
<svg xmlns="http://www.w3.org/2000/svg" version="1.1" xmlns:xlink="http://www.w3.org/1999/xlink" preserveAspectRatio="none" x="0px" y="0px" width="352px" height="105px" viewBox="0 0 352 105">
<defs>
<g id="Layer0_0_FILL">
<path fill="#FFC059" stroke="none" d="
M 343.45 96.7
L 331.9 89.4
Q 326.35 93.7 318.8 93.7
L 33.7 93.7
Q 25.4 93.7 19.5 88.45 13.85 83.45 13.6 76.5 13.6 76.15 13.6 75.8
L 13.6 29.4
Q 13.6 29.1 13.6 28.8 13.75 23.9 16.6 20
L 5.8 12.35
Q 2.5 17.5 2.5 24
L 2.5 81.15
Q 2.5 90.25 8.95 96.7 15.4 103.15 24.5 103.15
L 327.9 103.15
Q 337 103.15 343.45 96.7 Z"/>

<path fill="#009297" stroke="none" d="
M 331.9 89.4
Q 332.45 88.95 333 88.45 338.55 83.5 338.9 76.65 337.4 79.35 334.25 81.55 333.7 81.95 333.15 82.3 327.55 85.8 319.9 85.8
L 32.65 85.8
Q 24.3 85.8 18.3 81.55 15.1 79.25 13.6 76.5 13.85 83.45 19.5 88.45 25.4 93.7 33.7 93.7
L 318.8 93.7
Q 326.35 93.7 331.9 89.4 Z"/>

<path fill="#00BEC5" stroke="none" d="
M 338.9 28.6
Q 337.4 25.9 334.25 23.7 328.3 19.45 319.9 19.45
L 32.65 19.45
Q 24.3 19.45 18.3 23.7 16.55 24.9 15.4 26.3 14.3 27.5 13.6 28.8 13.6 29.1 13.6 29.4
L 13.6 75.8
Q 13.6 76.15 13.6 76.5 15.1 79.25 18.3 81.55 24.3 85.8 32.65 85.8
L 319.9 85.8
Q 327.55 85.8 333.15 82.3 333.7 81.95 334.25 81.55 337.4 79.35 338.9 76.65 338.9 76.25 338.9 75.8
L 338.9 29.4
Q 338.9 29 338.9 28.6 Z"/>

<path fill="#01F6FF" stroke="none" d="
M 334.25 23.7
Q 337.4 25.9 338.9 28.6 338.55 21.7 333 16.8 327.1 11.55 318.8 11.55
L 33.7 11.55
Q 25.4 11.55 19.5 16.8 17.8 18.3 16.6 20 13.75 23.9 13.6 28.8 14.3 27.5 15.4 26.3 16.55 24.9 18.3 23.7 24.3 19.45 32.65 19.45
L 319.9 19.45
Q 328.3 19.45 334.25 23.7 Z"/>

<path fill="#82571A" stroke="none" d="
M 343.45 8.45
Q 337 2 327.9 2
L 24.5 2
Q 15.4 2 8.95 8.45 7.1 10.3 5.8 12.35
L 16.6 20
Q 17.8 18.3 19.5 16.8 25.4 11.55 33.7 11.55
L 318.8 11.55
Q 327.1 11.55 333 16.8 338.55 21.7 338.9 28.6 338.9 29 338.9 29.4
L 338.9 75.8
Q 338.9 76.25 338.9 76.65 338.55 83.5 333 88.45 332.45 88.95 331.9 89.4
L 343.45 96.7
Q 349.9 90.25 349.9 81.15
L 349.9 24
Q 349.9 14.9 343.45 8.45 Z"/>
</g>
</defs>

<g transform="matrix( 1, 0, 0, 1, 0,0) ">
<use xlink:href="#Layer0_0_FILL"/>
</g>
</svg>
