
<svg xmlns="http://www.w3.org/2000/svg" version="1.1" xmlns:xlink="http://www.w3.org/1999/xlink" preserveAspectRatio="none" x="0px" y="0px" width="994px" height="308px" viewBox="0 0 994 308">
<defs>
<g id="Layer0_0_FILL">
<path fill="#FECB34" stroke="none" d="
M 252.15 262.35
L 258.95 245.85
Q 216.75 237.6 176.8 225.4 137.3 212.3 128.75 190.8
L 128.75 208.7
Q 137.3 230.15 176.8 243.25 213.5 254.5 252.15 262.35
M 25.5 164.9
L 10.95 186.95
Q 56.95 165.05 103 160.7
L 103 141.8
Q 65.8 147.9 25.5 164.9
M 103 35.15
L 103 15.25
Q 57.55 23.1 8.6 36.05
L 21.7 52.1
Q 62.9 41.45 103 35.15
M 174.95 75.9
Q 171.9 74.9 168.9 74
L 165.55 73.05
Q 130.2 60.75 128.75 36.15
L 128.75 63.4
Q 135.05 80.15 156.55 88.85 201.8 104.55 247.25 113.5 270.75 118.05 294.3 120.85 301.95 121.7 309.55 122.55
L 316.4 105.9
Q 297.45 103.65 278.5 100.65 262.9 98.15 247.25 95.15 243.25 94.3 239.2 93.5 211.25 87.55 174.95 75.9
M 344.6 276.1
L 351.7 258.85
Q 329.05 256.85 307.05 253.8
L 300.1 270.75
Q 322.05 273.9 344.6 276.1
M 365.95 110.4
L 359.05 127.15
Q 381.85 128.95 404.55 130.15
L 411.35 113.55
Q 388.65 112.35 365.95 110.4
M 867.05 208.9
Q 867.05 208.8 867.1 208.7
L 867.1 190.8
Q 858.55 212.3 819.05 225.4 736.2 250.7 643.85 258.85 613.95 261.15 583.7 262.5
L 576 281.25
Q 610 279.7 643.85 276.75 736.2 268.6 819.05 243.25 857 230.65 866.4 210.35 866.7 209.65 867.05 208.9
M 830.3 73.05
L 828.2 73.6 828.15 73.6 826.95 74
Q 789.35 86.3 760.4 92.75 758.5 93.1 756.65 93.5 736.95 97.5 717.35 100.65 681.95 106.3 646.65 109.2
L 639.35 127
Q 670.45 124.5 701.55 120.85 770.7 112.6 839.3 88.85 860.8 80.15 867.1 63.4
L 867.1 36.15
Q 865.65 60.75 830.3 73.05
M 984.45 186.75
Q 984.7 186.85 984.9 186.95
L 970.35 164.9
Q 931.85 148.7 896.3 142.4
L 896.8 161.15
Q 940.65 166.05 984.45 186.75
M 974.15 52.1
L 987.25 36.05
Q 938.15 23.05 892.6 15.25
L 893.2 35.2
Q 933.05 41.5 974.15 52.1 Z"/>

<path fill="#8A00CF" stroke="none" d="
M 258.95 245.85
Q 282.65 250.4 307.05 253.8
L 359.05 127.15
Q 334.35 125.15 309.55 122.55
L 258.95 245.85
M 351.7 258.85
Q 351.85 258.85 352 258.85 470.65 267.45 583.7 262.5
L 639.35 127
Q 522.7 136.45 404.55 130.15
L 351.7 258.85 Z"/>

<path fill="#FBF278" stroke="none" d="
M 300.1 270.75
L 307.05 253.8
Q 282.65 250.4 258.95 245.85
L 252.15 262.35
Q 275.75 267.15 300.1 270.75
M 351.7 258.85
L 344.6 276.1
Q 348.25 276.4 352 276.75 464.7 286.35 576 281.25
L 583.7 262.5
Q 470.65 267.45 352 258.85 351.85 258.85 351.7 258.85
M 365.95 110.4
Q 365.85 110.4 365.8 110.4 341.1 108.8 316.4 105.9
L 309.55 122.55
Q 334.35 125.15 359.05 127.15
L 365.95 110.4
M 639.35 127
L 646.65 109.2
Q 638.35 109.9 630.05 110.4 521.5 119.65 411.35 113.55
L 404.55 130.15
Q 522.7 136.45 639.35 127 Z"/>

<path fill="#CDA42A" stroke="none" d="
M 128.75 159.6
L 128.75 138.8
Q 116.1 139.6 103 141.8
L 103 160.7
Q 115.85 159.5 128.75 159.6
M 268.55 42.2
Q 277.45 39.55 278.5 32 278.8 29.85 278.5 27.4 270.8 4.8 230.7 3.05 170.75 3.5 103 15.25
L 103 35.15
Q 116.2 33 129.2 31.4 132.8 17.55 163.3 23.2
L 167.65 24.25
Q 208.4 18.9 242.7 19.6 267.1 22.45 268.55 42.2
M 867.1 138.8
L 867.1 159.6
Q 881.9 159.5 896.8 161.15
L 896.3 142.4
Q 881.4 139.75 867.1 138.8
M 893.2 35.2
L 892.6 15.25
Q 825 3.5 765.15 3.05 725.05 4.8 717.35 27.4 717.05 29.85 717.35 32 718.4 39.55 727.25 42.2 728.75 22.45 753.15 19.6 787.45 18.9 828.2 24.25
L 832.55 23.2
Q 863.05 17.55 866.65 31.4 879.8 33.05 893.2 35.2 Z"/>

<path fill="#000000" fill-opacity="0.2" stroke="none" d="
M 128.75 175.2
L 128.75 159.6
Q 115.85 159.5 103 160.7 56.95 165.05 10.95 186.95
L 2.5 205.2
Q 62.5 180.75 128.75 175.2
M 867.05 208.9
Q 866.7 209.65 866.4 210.35 857 230.65 819.05 243.25 736.2 268.6 643.85 276.75 610 279.7 576 281.25 464.7 286.35 352 276.75 348.25 276.4 344.6 276.1 322.05 273.9 300.1 270.75 275.75 267.15 252.15 262.35 213.5 254.5 176.8 243.25 137.3 230.15 128.75 208.7 125.95 239.2 159.25 259.35 192.55 279.5 281.85 293.35 501.75 320.75 713.9 293.35 803.2 279.5 836.5 259.35 869.7 239.25 867.05 208.9
M 992.8 205.2
L 984.45 186.75
Q 940.65 166.05 896.8 161.15 881.9 159.5 867.1 159.6
L 867.1 175.25
Q 933.05 180.85 992.8 205.2 Z"/>

<path fill="#660099" stroke="none" d="
M 64.85 105.05
L 25.5 164.9
Q 65.8 147.9 103 141.8
L 103 35.15
Q 62.9 41.45 21.7 52.1
L 64.85 105.05
M 309.55 122.55
Q 301.95 121.7 294.3 120.85 270.75 118.05 247.25 113.5 201.8 104.55 156.55 88.85 135.05 80.15 128.75 63.4
L 128.75 138.8 128.75 159.6 128.75 175.2 128.75 190.8
Q 137.3 212.3 176.8 225.4 216.75 237.6 258.95 245.85
L 309.55 122.55
M 404.55 130.15
Q 381.85 128.95 359.05 127.15
L 307.05 253.8
Q 329.05 256.85 351.7 258.85
L 404.55 130.15
M 896.3 142.4
Q 931.85 148.7 970.35 164.9
L 931 105.05 974.15 52.1
Q 933.05 41.5 893.2 35.2
L 896.3 142.4
M 867.1 63.4
Q 860.8 80.15 839.3 88.85 770.7 112.6 701.55 120.85 670.45 124.5 639.35 127
L 583.7 262.5
Q 613.95 261.15 643.85 258.85 736.2 250.7 819.05 225.4 858.55 212.3 867.1 190.8
L 867.1 175.25 867.1 159.6 867.1 138.8 867.1 63.4 Z"/>

<path fill="#4C0073" stroke="none" d="
M 128.75 36.15
Q 128.65 33.5 129.2 31.4 116.2 33 103 35.15
L 103 141.8
Q 116.1 139.6 128.75 138.8
L 128.75 63.4 128.75 36.15
M 247.25 43.05
Q 260.85 44.5 268.55 42.2 267.1 22.45 242.7 19.6 208.4 18.9 167.65 24.25
L 174.95 26.05 241.25 42.2
Q 244.4 42.7 247.25 43.05
M 754.6 42.2
L 760.4 40.85 828.2 24.25
Q 787.45 18.9 753.15 19.6 728.75 22.45 727.25 42.2 736.6 45 754.6 42.2
M 866.65 31.4
Q 867.2 33.5 867.1 36.15
L 867.1 63.4 867.1 138.8
Q 881.4 139.75 896.3 142.4
L 893.2 35.2
Q 879.8 33.05 866.65 31.4 Z"/>

<path fill="#E1E184" stroke="none" d="
M 174.95 26.05
L 167.65 24.25 163.3 23.2
Q 132.8 17.55 129.2 31.4 128.65 33.5 128.75 36.15 130.2 60.75 165.55 73.05
L 168.9 74
Q 171.9 74.9 174.95 75.9
L 174.95 26.05
M 268.55 42.2
Q 260.85 44.5 247.25 43.05
L 247.25 95.15
Q 262.9 98.15 278.5 100.65
L 278.5 32
Q 277.45 39.55 268.55 42.2
M 760.4 40.85
L 754.6 42.2
Q 736.6 45 727.25 42.2 718.4 39.55 717.35 32
L 717.35 100.65
Q 736.95 97.5 756.65 93.5 758.5 93.1 760.4 92.75
L 760.4 40.85
M 867.1 36.15
Q 867.2 33.5 866.65 31.4 863.05 17.55 832.55 23.2
L 828.2 24.25 828.2 73.6 830.3 73.05
Q 865.65 60.75 867.1 36.15 Z"/>

<path fill="#F9FA93" stroke="none" d="
M 247.25 95.15
L 247.25 43.05
Q 244.4 42.7 241.25 42.2
L 174.95 26.05 174.95 75.9
Q 211.25 87.55 239.2 93.5 243.25 94.3 247.25 95.15
M 828.15 73.6
L 828.2 73.6 828.2 24.25 760.4 40.85 760.4 92.75
Q 789.35 86.3 826.95 74
L 828.15 73.6 Z"/>
</g>
</defs>

<g transform="matrix( 1, 0, 0, 1, 0,0) ">
<use xlink:href="#Layer0_0_FILL"/>
</g>
</svg>
