
<svg xmlns="http://www.w3.org/2000/svg" version="1.1" xmlns:xlink="http://www.w3.org/1999/xlink" preserveAspectRatio="none" x="0px" y="0px" width="74px" height="92px" viewBox="0 0 74 92">
<defs>
<g id="_____2323_0_Layer1_0_FILL">
<path fill="#000000" fill-opacity="0.2980392156862745" stroke="none" d="
M 139.55 82.75
Q 139.55 63.65 123.6 60.45 125.1 42.9 116.6 26.9 100.8 6.95 74.05 6.75 53.3 7.55 37.3 21.9 24.8 38.3 26.8 60.45 11 63.7 11 82.75
L 11 146.45
Q 11 169.45 34 169.45
L 116.6 169.45
Q 139.55 169.45 139.55 146.45
L 139.55 82.75
M 102.6 59.8
L 102.3 59.8
Q 102.35 58.55 102.35 57.45 102.5 58.55 102.6 59.8
M 84.45 36.2
Q 95 40.45 95.8 59.8
L 55.25 59.8
Q 54.3 40.05 65.8 36.2 74.65 33.15 84.45 36.2
M 135.5 84.4
Q 134.9 64.65 114.05 64.65
L 36.6 64.65
Q 31.7 64.65 27.9 65.75 15.55 69.3 15.05 84.4 15.2 64.6 36.6 64.6
L 114.05 64.6
Q 135.4 64.6 135.5 84.4
M 21.3 132.6
L 21.15 133.3 21.15 132.6
Q 21.2 132.6 21.3 132.6 Z"/>
</g>

<g id="_____2323_0_Layer0_0_FILL">
<path fill="#537CB8" stroke="none" d="
M 43.8 23.1
Q 53.5 12.45 65.95 11.25 51.3 12.35 39.85 23.1 30.7 35.9 31.9 53.05
L 36.95 53.05
Q 35.9 35.9 43.8 23.1
M 99.9 53.05
L 105.05 53.05
Q 105.85 39.45 99.65 27.1 88.85 12.7 71.15 11.3 86.05 12.85 95.3 27.1 100.65 39.45 99.9 53.05 Z"/>

<path fill="#385B7C" stroke="none" d="
M 81.05 24.6
Q 92.95 29.8 95.6 50.7 95.6 40.95 91.45 32.05 82.55 19.15 67.5 19 55.8 19.55 46.75 28.8 39.85 39.1 40.9 53.05
L 42.05 53.05
Q 42.35 29.6 56.15 24.6 67.95 20.2 81.05 24.6 Z"/>

<path fill="#031420" stroke="none" d="
M 95.55 53.05
Q 95.6 51.8 95.6 50.7 92.95 29.8 81.05 24.6 67.95 20.2 56.15 24.6 42.35 29.6 42.05 53.05
L 48.5 53.05
Q 47.55 33.3 59.05 29.45 67.9 26.4 77.7 29.45 88.25 33.7 89.05 53.05
L 95.55 53.05
M 110.65 53.05
Q 114.05 53.1 116.85 53.7 118.35 36.15 109.85 20.15 94.05 0.2 67.3 0 46.55 0.8 30.55 15.15 18.05 31.55 20.05 53.7 22.9 53.1 26.35 53.05 24.85 33.7 35.55 19.35 49.45 6.55 67.5 5.9 90.8 6 104.5 23.8 111.75 37.75 110.65 53.05 Z"/>

<path fill="#9BC0E2" stroke="none" d="
M 95.85 53.05
L 97.95 53.05
Q 98.7 41.4 93.65 30.9 83.9 17.3 67.55 17.15 54.85 17.7 45.05 27.5 37.55 38.4 38.6 53.05
L 40.9 53.05
Q 39.85 39.1 46.75 28.8 55.8 19.55 67.5 19 82.55 19.15 91.45 32.05 95.6 40.95 95.6 50.7 95.75 51.8 95.85 53.05 Z"/>

<path fill="#2A4B6A" stroke="none" d="
M 97.95 53.05
L 99.9 53.05
Q 100.65 39.45 95.3 27.1 86.05 12.85 71.15 11.3 70.15 11.15 69.1 11.15 68.45 11.1 67.7 11.1 67.65 11.1 67.55 11.1 66.75 11.15 65.95 11.25 53.5 12.45 43.8 23.1 35.9 35.9 36.95 53.05
L 38.6 53.05
Q 37.55 38.4 45.05 27.5 54.85 17.7 67.55 17.15 83.9 17.3 93.65 30.9 98.7 41.4 97.95 53.05 Z"/>

<path fill="#BAEBFC" stroke="none" d="
M 105.05 53.05
L 109.85 53.05
Q 110.25 53.05 110.65 53.05 111.75 37.75 104.5 23.8 90.8 6 67.5 5.9 49.45 6.55 35.55 19.35 24.85 33.7 26.35 53.05 26.75 53.05 27.25 53.05
L 31.9 53.05
Q 30.7 35.9 39.85 23.1 51.3 12.35 65.95 11.25 66.75 11.15 67.55 11.1 67.65 11.1 67.7 11.1 68.45 11.1 69.1 11.15 70.15 11.15 71.15 11.3 88.85 12.7 99.65 27.1 105.85 39.45 105.05 53.05 Z"/>

<path fill="#681B0D" stroke="none" d="
M 116.85 53.7
Q 114.05 53.1 110.65 53.05 110.25 53.05 109.85 53.05
L 105.05 53.05 99.9 53.05 97.95 53.05 95.85 53.05 95.55 53.05 89.05 53.05 48.5 53.05 42.05 53.05 40.9 53.05 38.6 53.05 36.95 53.05 31.9 53.05 27.25 53.05
Q 26.75 53.05 26.35 53.05 22.9 53.1 20.05 53.7 4.25 56.95 4.25 76
L 4.25 139.7
Q 4.25 162.7 27.25 162.7
L 109.85 162.7
Q 132.8 162.7 132.8 139.7
L 132.8 76
Q 132.8 56.9 116.85 53.7
M 107.3 57.85
Q 128.65 57.85 128.75 77.65
L 128.75 133.45 128.75 134.3 128.75 136.95
Q 128.75 157.95 107.3 157.95
L 29.85 157.95
Q 8.3 157.95 8.3 136.95
L 8.3 134.3 8.3 133.45 8.3 126.25 8.3 77.65
Q 8.45 57.85 29.85 57.85
L 107.3 57.85 Z"/>

<path fill="#FFCA99" stroke="none" d="
M 8.3 133.45
L 8.3 134.3
Q 8.8 153.5 29.85 153.5
L 107.3 153.5
Q 128.3 153.5 128.75 134.3
L 128.75 133.45
Q 128.2 152.2 107.3 152.2
L 29.85 152.2
Q 8.8 152.2 8.3 133.45 Z"/>

<path fill="#A62813" stroke="none" d="
M 8.3 134.3
L 8.3 136.95
Q 8.3 157.95 29.85 157.95
L 107.3 157.95
Q 128.75 157.95 128.75 136.95
L 128.75 134.3
Q 128.3 153.5 107.3 153.5
L 29.85 153.5
Q 8.8 153.5 8.3 134.3 Z"/>

<path fill="#A52917" stroke="none" d="
M 60.75 122.8
L 60.75 109.7
Q 58.5 108.65 56.55 106.95
L 56.55 113.75 60.75 122.8
M 80.45 107.35
Q 78.75 108.75 76.8 109.7
L 76.8 122.4 80.45 114.6 80.45 114.45 80.45 107.35 Z"/>

<path fill="#931812" stroke="none" d="
M 80.45 114.6
L 76.8 122.4 76.8 127
Q 76.95 130.05 74.85 130.3
L 63.6 130.3
Q 61.2 130.3 60.75 127.35
L 60.75 122.8 56.55 113.75 56.55 120.05 56.55 129.25
Q 56.55 131.6 59.5 132.5
L 78.1 132.5
Q 80.6 131.85 80.45 129.15
L 80.45 114.6 Z"/>

<path fill="#FC872E" stroke="none" d="
M 80.45 114.45
L 80.45 114.6 80.45 129.15
Q 80.6 131.85 78.1 132.5
L 59.5 132.5
Q 56.55 131.6 56.55 129.25
L 56.55 120.05
Q 44.55 122.2 35.6 123.5 24.1 125.1 14.55 125.85
L 14.4 126.55 14.4 125.85
Q 11.2 126.15 8.3 126.25
L 8.3 133.45
Q 8.8 152.2 29.85 152.2
L 107.3 152.2
Q 128.2 152.2 128.75 133.45
L 121.45 122.55 119.35 105.35 119.35 96.35
Q 116.65 97.85 114.05 99.25 95.2 109.45 80.45 114.45
M 18.65 144.8
Q 17.25 142.5 17.1 140.2 23.25 146.8 38.7 147.3
L 107.2 147.3
Q 110.45 146.75 112.7 145.2 112.8 148.35 107.4 149.15
L 35.7 149.15
Q 22.45 148.75 18.65 144.8 Z"/>

<path fill="#F34A1F" stroke="none" d="
M 17.1 140.2
Q 17.25 142.5 18.65 144.8 22.45 148.75 35.7 149.15
L 107.4 149.15
Q 112.8 148.35 112.7 145.2 110.45 146.75 107.2 147.3
L 38.7 147.3
Q 23.25 146.8 17.1 140.2 Z"/>

<path fill="#341514" stroke="none" d="
M 58.85 87.75
Q 55.65 90.95 55 95.2 55.65 99.3 58.85 102.5 59.7 103.45 60.75 104.1
L 60.75 109.7 60.75 122.8 60.75 127.35
Q 61.2 130.3 63.6 130.3
L 74.85 130.3
Q 76.95 130.05 76.8 127
L 76.8 122.4 76.8 109.7 76.8 104.05
Q 77.7 103.3 78.5 102.5 81.7 99.3 82.4 95.2 81.7 90.95 78.5 87.75 74.45 83.7 68.7 83.7 62.9 83.7 58.85 87.75 Z"/>

<path fill="#FEC53B" stroke="none" d="
M 26.9 63.6
L 21.15 59
Q 8.8 62.55 8.3 77.65
L 8.3 126.25
Q 11.2 126.15 14.4 125.85
L 14.4 76.5
Q 16.65 65.15 26.9 63.6 Z"/>

<path fill="#7E1F13" stroke="none" d="
M 82.4 95.2
Q 82.6 94 82.6 92.7 82.6 86.95 78.5 82.85 74.45 78.8 68.7 78.8 62.9 78.8 58.85 82.85 54.8 86.95 54.8 92.7 54.8 94 55 95.2 55.65 90.95 58.85 87.75 62.9 83.7 68.7 83.7 74.45 83.7 78.5 87.75 81.7 90.95 82.4 95.2 Z"/>

<path fill="#C02B1D" stroke="none" d="
M 87.55 92.7
Q 87.55 84.9 82 79.4 76.55 73.9 68.8 73.9 61 73.9 55.45 79.4 50 84.9 50 92.7 50 100.45 55.45 105.95 56 106.45 56.55 106.95 58.5 108.65 60.75 109.7
L 60.75 104.1
Q 59.7 103.45 58.85 102.5 55.65 99.3 55 95.2 54.8 94 54.8 92.7 54.8 86.95 58.85 82.85 62.9 78.8 68.7 78.8 74.45 78.8 78.5 82.85 82.6 86.95 82.6 92.7 82.6 94 82.4 95.2 81.7 99.3 78.5 102.5 77.7 103.3 76.8 104.05
L 76.8 109.7
Q 78.75 108.75 80.45 107.35 81.25 106.7 82 105.95 87.55 100.45 87.55 92.7 Z"/>

<path fill="#FDBF31" stroke="none" d="
M 119.35 72.15
Q 116.6 67.55 110.65 65.75
L 28.6 65.75
Q 19.35 66.4 16.55 76.2
L 16.55 115.45 14.55 125.85
Q 24.1 125.1 35.6 123.5 44.55 122.2 56.55 120.05
L 56.55 113.75 56.55 106.95
Q 56 106.45 55.45 105.95 50 100.45 50 92.7 50 84.9 55.45 79.4 61 73.9 68.8 73.9 76.55 73.9 82 79.4 87.55 84.9 87.55 92.7 87.55 100.45 82 105.95 81.25 106.7 80.45 107.35
L 80.45 114.45
Q 95.2 109.45 114.05 99.25 116.65 97.85 119.35 96.35
L 119.35 72.15 Z"/>

<path fill="#FE9B26" stroke="none" d="
M 121.45 73.05
Q 118.7 65 109.3 63.6
L 26.9 63.6
Q 16.65 65.15 14.4 76.5
L 14.4 125.85
Q 14.45 125.85 14.55 125.85
L 16.55 115.45 16.55 76.2
Q 19.35 66.4 28.6 65.75
L 110.65 65.75
Q 116.6 67.55 119.35 72.15
L 119.35 96.35 119.35 105.35 121.45 122.55 121.45 73.05 Z"/>

<path fill="#FEF1A6" stroke="none" d="
M 109.3 63.6
Q 118.7 65 121.45 73.05
L 121.45 122.55 128.75 133.45 128.75 77.65
Q 128.15 57.9 107.3 57.9
L 29.85 57.9
Q 24.95 57.9 21.15 59
L 26.9 63.6 109.3 63.6 Z"/>
</g>
</defs>

<g transform="matrix( 0.5315399169921875, 0, 0, 0.5315399169921875, -1,1) ">
<g transform="matrix( 1, 0, 0, 1, 0,0) ">
<use xlink:href="#_____2323_0_Layer1_0_FILL"/>
</g>

<g transform="matrix( 1, 0, 0, 1, 0,0) ">
<use xlink:href="#_____2323_0_Layer0_0_FILL"/>
</g>
</g>
</svg>
