
<svg xmlns="http://www.w3.org/2000/svg" version="1.1" xmlns:xlink="http://www.w3.org/1999/xlink" preserveAspectRatio="none" x="0px" y="0px" width="258px" height="264px" viewBox="0 0 258 264">
<defs>
<g id="_______22_0_Layer1_0_FILL">
<path fill="#000000" fill-opacity="0.2980392156862745" stroke="none" d="
M 221.55 -3.5
L 52.25 -3.5
Q 38.4 -3.5 27.85 0.15 3.65 8.3 -2.1 35.4 -3.45 41.4 -3.8 48.3 -3.95 50.6 -4 53
L -4 226.65
Q -4 233.4 -3.2 239.4 -2.8 241.85 -2.55 244.25 -1.7 248.5 -0.35 252.6 0 253.55 0.4 254.5 0.9 255.8 1.5 257.05 3.9 262.8 7.6 267.35 15.05 276.9 27.85 281.3 38.4 284.75 52.25 284.75
L 221.55 284.75
Q 235.45 284.75 245.95 281.3 258.7 276.9 266.25 267.35 269.9 262.8 272.3 257.05 273.4 254.9 274.1 252.6 275.5 248.5 276.3 244.25 276.6 241.85 276.95 239.4 277.8 233.4 277.8 226.65
L 277.8 53
Q 277.75 50.6 277.55 48.3 275.5 10.1 245.95 0.15 235.45 -3.5 221.55 -3.5 Z"/>
</g>

<g id="_______22_0_Layer0_0_FILL">
<path fill="#016686" stroke="none" d="
M 5.35 215.8
Q 4.75 214.6 4.25 213.4 3.9 212.5 3.55 211.6 2.25 207.75 1.4 203.75 1.15 201.5 0.8 199.2 0.1 194.25 0 188.8
L 0 216.3
Q 0 222.65 0.8 228.3 1.15 230.6 1.4 232.85 2.25 236.85 3.55 240.7 3.9 241.6 4.25 242.5 4.75 243.7 5.35 244.9 7.65 250.3 11.25 254.55 18.5 263.55 30.95 267.7 41.15 270.9 54.6 270.9
L 219 270.9
Q 232.5 270.9 242.7 267.7 255.1 263.55 262.4 254.55 265.95 250.3 268.3 244.9 269.35 242.85 270.05 240.7 271.4 236.85 272.2 232.85 272.45 230.6 272.8 228.3 273.65 222.65 273.65 216.3
L 273.65 188.8
Q 273.55 194.25 272.8 199.2 272.45 201.5 272.2 203.75 271.4 207.75 270.05 211.6 269.35 213.75 268.3 215.8 265.95 221.2 262.4 225.45 255.1 234.45 242.7 238.6 232.5 241.8 219 241.8
L 54.6 241.8
Q 41.15 241.8 30.95 238.6 18.5 234.45 11.25 225.45 7.65 221.2 5.35 215.8 Z"/>

<path fill="#029BCB" stroke="none" d="
M 273.65 54.6
Q 272.25 51.45 270.7 48.55 261.05 31.2 242.7 23.55 231.9 19.05 217.6 17.85
L 56 17.85
Q 50.35 18.35 45.3 19.3 37.5 20.8 30.95 23.55 23.1 26.8 16.85 31.85 8.5 38.6 2.95 48.55 1.4 51.45 0 54.6
L 0 188.8
Q 0.1 194.25 0.8 199.2 1.15 201.5 1.4 203.75 2.25 207.75 3.55 211.6 3.9 212.5 4.25 213.4 4.75 214.6 5.35 215.8 7.65 221.2 11.25 225.45 18.5 234.45 30.95 238.6 41.15 241.8 54.6 241.8
L 219 241.8
Q 232.5 241.8 242.7 238.6 255.1 234.45 262.4 225.45 265.95 221.2 268.3 215.8 269.35 213.75 270.05 211.6 271.4 207.75 272.2 203.75 272.45 201.5 272.8 199.2 273.55 194.25 273.65 188.8
L 273.65 54.6
M 95.95 37.1
Q 100 39.35 100 42.75 100 46 95.95 48.3 92.05 50.6 86.4 50.6 80.7 50.6 76.7 48.3 72.65 46 72.65 42.75 72.65 39.4 76.7 37.1 80.65 34.75 86.3 34.75 92.05 34.75 95.95 37.1
M 53.5 37.6
Q 60.75 37.5 63.3 42.05 65.85 46.45 62.25 52.75 58.7 58.9 51.05 63.3 43.5 67.7 36.25 67.7 29.1 67.65 26.55 63.2 24 58.75 27.55 52.6 31.15 46.35 38.75 41.9 46.35 37.5 53.5 37.6 Z"/>

<path fill="#57C0E9" stroke="none" d="
M 63.3 42.05
Q 60.75 37.5 53.5 37.6 46.35 37.5 38.75 41.9 31.15 46.35 27.55 52.6 24 58.75 26.55 63.2 29.1 67.65 36.25 67.7 43.5 67.7 51.05 63.3 58.7 58.9 62.25 52.75 65.85 46.45 63.3 42.05
M 100 42.75
Q 100 39.35 95.95 37.1 92.05 34.75 86.3 34.75 80.65 34.75 76.7 37.1 72.65 39.4 72.65 42.75 72.65 46 76.7 48.3 80.7 50.6 86.4 50.6 92.05 50.6 95.95 48.3 100 46 100 42.75
M 273.65 54.6
L 273.65 53.1
Q 273.6 50.85 273.4 48.7 271.4 12.8 242.7 3.45 232.5 0 219 0
L 54.6 0
Q 41.15 0 30.95 3.45 7.45 11.1 1.85 36.55 0.55 42.2 0.2 48.7 0.05 50.85 0 53.1
L 0 54.6
Q 1.4 51.45 2.95 48.55 8.5 38.6 16.85 31.85 23.1 26.8 30.95 23.55 37.5 20.8 45.3 19.3 50.35 18.35 56 17.85
L 217.6 17.85
Q 231.9 19.05 242.7 23.55 261.05 31.2 270.7 48.55 272.25 51.45 273.65 54.6 Z"/>
</g>
</defs>

<g transform="matrix( 0.9070281982421875, 0, 0, 0.9070281982421875, -1.75,-2.95) ">
<g transform="matrix( 1, 0, 0, 1, 7.55,8.45) ">
<g transform="matrix( 1, 0, 0, 1, 0,0) ">
<use xlink:href="#_______22_0_Layer1_0_FILL"/>
</g>

<g transform="matrix( 1, 0, 0, 1, 0,0) ">
<use xlink:href="#_______22_0_Layer0_0_FILL"/>
</g>
</g>
</g>
</svg>
