
<svg xmlns="http://www.w3.org/2000/svg" version="1.1" xmlns:xlink="http://www.w3.org/1999/xlink" preserveAspectRatio="none" x="0px" y="0px" width="254px" height="138px" viewBox="0 0 254 138">
<defs>
<g id="_______27_0_Layer1_0_FILL">
<path fill="#000000" fill-opacity="0.2980392156862745" stroke="none" d="
M 225.95 -2.45
L 18.1 -2.45
Q 9.15 -2.45 2.8 3.9 -3.2 10.05 -3.45 18.7
L -3.45 112.65
Q -3.3 121.3 2.8 127.5 9.15 133.95 18.1 133.95
L 225.95 133.95
Q 234.9 133.95 241.2 127.5 247.4 121.3 247.55 112.65
L 247.55 18.7
Q 247.3 10.05 241.2 3.9 234.9 -2.45 225.95 -2.45 Z"/>
</g>

<g id="_______27_0_Layer0_0_FILL">
<path fill="#017128" stroke="none" d="
M 223 126.4
Q 231.7 126.4 237.85 120.45 243.85 114.7 244 106.65
L 244 90.15
Q 243.85 98.2 237.85 103.95 231.7 109.9 223 109.9
L 20.95 109.9
Q 12.25 109.9 6.1 103.95 0.15 98.2 0 90.15
L 0 106.65
Q 0.15 114.7 6.1 120.45 12.25 126.4 20.95 126.4
L 223 126.4 Z"/>

<path fill="#46D010" stroke="none" d="
M 244 90.15
L 244 28.65
Q 243.85 20.6 237.85 14.8 231.7 8.9 223 8.9
L 20.95 8.9
Q 12.25 8.9 6.1 14.8 0.15 20.6 0 28.65
L 0 90.15
Q 0.15 98.2 6.1 103.95 12.25 109.9 20.95 109.9
L 223 109.9
Q 231.7 109.9 237.85 103.95 243.85 98.2 244 90.15
M 58.95 17.3
Q 61.9 18.9 61.9 21.4 61.9 23.75 58.95 25.4 56.1 27.1 52 27.1 47.9 27.1 45 25.4 42.05 23.75 42.05 21.4 42.05 18.95 45 17.3 47.85 15.6 51.95 15.6 56.1 15.6 58.95 17.3
M 28.15 17.65
Q 33.4 17.55 35.25 20.85 37.1 24.05 34.5 28.65 31.95 33.1 26.4 36.3 20.9 39.5 15.65 39.5 10.45 39.45 8.6 36.2 6.75 33 9.35 28.55 11.95 24 17.45 20.75 22.95 17.55 28.15 17.65 Z"/>

<path fill="#B2FF95" stroke="none" d="
M 35.25 20.85
Q 33.4 17.55 28.15 17.65 22.95 17.55 17.45 20.75 11.95 24 9.35 28.55 6.75 33 8.6 36.2 10.45 39.45 15.65 39.5 20.9 39.5 26.4 36.3 31.95 33.1 34.5 28.65 37.1 24.05 35.25 20.85
M 61.9 21.4
Q 61.9 18.9 58.95 17.3 56.1 15.6 51.95 15.6 47.85 15.6 45 17.3 42.05 18.95 42.05 21.4 42.05 23.75 45 25.4 47.9 27.1 52 27.1 56.1 27.1 58.95 25.4 61.9 23.75 61.9 21.4
M 244 28.65
L 244 19.6
Q 243.75 11.6 237.85 5.9 231.7 0 223 0
L 20.95 0
Q 12.25 0 6.1 5.9 0.25 11.6 0 19.6
L 0 28.65
Q 0.15 20.6 6.1 14.8 12.25 8.9 20.95 8.9
L 223 8.9
Q 231.7 8.9 237.85 14.8 243.85 20.6 244 28.65 Z"/>
</g>
</defs>

<g transform="matrix( 1, 0, 0, 1, -1.1,-2.35) ">
<g transform="matrix( 1, 0, 0, 1, 6.05,5.65) ">
<g transform="matrix( 1, 0, 0, 1, 0,0) ">
<use xlink:href="#_______27_0_Layer1_0_FILL"/>
</g>

<g transform="matrix( 1, 0, 0, 1, 0,0) ">
<use xlink:href="#_______27_0_Layer0_0_FILL"/>
</g>
</g>
</g>
</svg>
