<?xml version="1.0" encoding="UTF-8"?>
<svg xmlns="http://www.w3.org/2000/svg" version="1.1" viewBox="0 0 110 110">
  <defs>
    <style>
      .cls-1 {
        fill: #c45d00;
      }

      .cls-2 {
        fill: #fdb300;
      }

      .cls-3 {
        fill: #fecf14;
      }

      .cls-4 {
        fill: #fde54b;
      }

      .cls-5 {
        fill: #d45900;
      }

      .cls-6 {
        fill: #fded68;
      }

      .cls-7 {
        fill: #ec7300;
      }

      .cls-8 {
        fill: #feca10;
      }

      .cls-9 {
        fill: #fb9500;
      }

      .cls-10 {
        fill: #faf181;
      }

      .cls-11 {
        fill: #fdea63;
      }

      .cls-12 {
        fill: #f7eb39;
      }

      .cls-13 {
        fill: #582f11;
      }
    </style>
  </defs>
  <!-- Generator: Adobe Illustrator 28.7.1, SVG Export Plug-In . SVG Version: 1.2.0 Build 142)  -->
  <g>
    <g id="_Слой_1" data-name="Слой_1">
      <g id="______2_0_Layer0_0_FILL">
        <path class="cls-13" d="M93.5,16.6c-2.8-2.8-5.8-5.2-8.9-7.3C75.9,3.5,66,.6,55,.6s-27.8,5.3-38.4,16C5.9,27.2.6,40,.6,55s1.6,15.7,4.7,22.5c2.6,5.8,6.4,11.1,11.2,16,3.5,3.5,7.3,6.4,11.3,8.8,1.8,1.1,3.6,2,5.5,2.8,6.6,2.9,13.8,4.3,21.6,4.3,7.8,0,15.1-1.4,21.8-4.3,6.1-2.6,11.6-6.5,16.7-11.6,10.6-10.6,15.9-23.5,15.9-38.5s-2.5-19.5-7.4-27.7c-2.3-3.8-5.1-7.4-8.5-10.7M90.3,19.7c3.1,3.1,5.7,6.3,7.8,9.8,4.6,7.6,6.8,16,6.8,25.5,0,13.8-4.9,25.6-14.6,35.4-4.7,4.7-9.8,8.2-15.4,10.7-6.1,2.6-12.8,4-20,4s-13.8-1.3-19.8-4c-1.8-.8-3.4-1.6-5.1-2.6-3.7-2.2-7.2-4.9-10.4-8.1-4.5-4.5-7.9-9.4-10.3-14.7-2.9-6.3-4.3-13.2-4.3-20.7,0-13.8,4.9-25.6,14.6-35.3,9.8-9.8,21.5-14.7,35.3-14.7s19.2,2.6,27.2,7.9c2.9,1.9,5.6,4.2,8.2,6.7Z"/>
        <path class="cls-4" d="M82.2,12.9c-8-5.3-17-7.9-27.2-7.9s-25.6,4.9-35.3,14.7c-9.8,9.8-14.6,21.5-14.6,35.3s1.4,14.4,4.3,20.7c2.4,5.3,5.9,10.2,10.3,14.7,3.3,3.2,6.7,5.9,10.4,8.1-2.9-1.9-5.6-4.1-8.2-6.7-2.6-2.6-4.9-5.4-6.8-8.4-5.2-7.9-7.8-16.9-7.8-27s4.9-25.6,14.6-35.4c9.8-9.8,21.6-14.6,35.4-14.6s17.5,2.2,24.9,6.5Z"/>
        <path class="cls-7" d="M98.1,29.5c2.9,6.3,4.3,13.2,4.3,20.7,0,13.8-4.9,25.6-14.6,35.3-9.8,9.8-21.6,14.6-35.4,14.6-13.8,0-25.6-4.9-35.3-14.6-.7-.7-1.4-1.4-2.1-2.2,1.9,2.9,4.2,5.7,6.8,8.4,2.6,2.6,5.3,4.8,8.2,6.7,1.6,1,3.3,1.8,5.1,2.6,6.1,2.6,12.7,4,19.8,4s13.9-1.3,20-4c5.6-2.4,10.7-6,15.4-10.7,9.8-9.8,14.6-21.6,14.6-35.4,0-9.4-2.3-17.9-6.8-25.5Z"/>
        <path class="cls-8" d="M98.1,29.5c-2.1-3.5-4.7-6.8-7.8-9.8-2.6-2.6-5.3-4.8-8.2-6.7-7.4-4.3-15.7-6.5-24.9-6.5-13.8,0-25.6,4.9-35.4,14.6-9.8,9.8-14.6,21.5-14.6,35.4s2.6,19,7.8,27c.7.7,1.4,1.5,2.1,2.2,9.8,9.8,21.5,14.6,35.3,14.6,13.8,0,25.6-4.9,35.4-14.6,9.8-9.8,14.6-21.5,14.6-35.3s-1.4-14.4-4.3-20.7M27.7,20.7c.5.9.5,1.8,0,2.7-1.6,2.3-3.7,4.1-6.3,5.3-2.3,1-3.5.8-3.7-.7,0-1.9,1.4-3.9,4.1-5.8,2.3-1.8,4.3-2.3,5.9-1.4M90.8,70.8c-1.9,4-4.5,7.6-7.8,10.9-7.6,7.6-16.8,11.4-27.5,11.4-10.7,0-19.9-3.8-27.5-11.4,0,0-.1-.1-.1-.1-2.5-2.5-4.5-5.1-6.2-7.9-1.8-3.2-3.2-6.6-4-10.1-.7-3-1.1-6.1-1.1-9.4,0-10.8,3.8-20,11.4-27.6,7.6-7.6,16.8-11.4,27.5-11.4s18.1,3.1,25.2,9.3c.8.7,1.6,1.4,2.3,2.2,7.6,7.6,11.4,16.8,11.4,27.6s-.2,5.3-.7,7.8c-.6,3.1-1.6,6-2.9,8.8Z"/>
        <path class="cls-6" d="M91.7,50.6v1.3c0,10.8-3.7,20-11.1,27.6-7.4,7.6-16.3,11.4-26.8,11.4-10.5,0-19.4-3.8-26.7-11.4-.4-.4-.7-.8-1.1-1.2-2.1-2.3-3.8-4.7-5.2-7.2-1.3-2.4-2.4-4.9-3.2-7.6.8,3.6,2.2,6.9,4,10.1,1.7,2.8,3.7,5.4,6.2,7.9,0,0,0,0,.1.1,7.6,7.6,16.8,11.4,27.5,11.4,10.8,0,20-3.8,27.5-11.4,3.3-3.3,6-7,7.8-10.9,1.3-2.8,2.3-5.8,2.9-8.8.5-2.5.7-5.1.7-7.8,0-10.8-3.8-20-11.4-27.6-.8-.8-1.5-1.5-2.3-2.2,6.4,6.6,10.1,14.5,10.9,23.5,0,.9.2,1.8.2,2.7Z"/>
        <path class="cls-5" d="M89.5,43.3c1,2.4,1.7,4.8,2.2,7.4,0-.9,0-1.8-.2-2.7-.8-9.1-4.4-16.9-10.9-23.5-7.1-6.2-15.5-9.3-25.2-9.3s-19.9,3.8-27.5,11.4c-7.6,7.6-11.4,16.8-11.4,27.6s.4,6.4,1.1,9.4c.8,2.6,1.8,5.2,3.2,7.6-1.1-3.8-1.7-7.9-1.7-12.1,0-10.8,3.6-20,10.8-27.6,7.2-7.6,15.8-11.4,25.9-11.4,10.1,0,18.8,3.8,26,11.4,3.4,3.6,6,7.6,7.8,11.9Z"/>
        <path class="cls-9" d="M83.2,34.6c2.6,2.7,4.6,5.5,6.3,8.6-1.8-4.3-4.4-8.3-7.8-11.9-7.2-7.6-15.8-11.4-26-11.4-10.1,0-18.7,3.8-25.9,11.4-7.2,7.6-10.8,16.8-10.8,27.6s.6,8.3,1.7,12.1c1.4,2.5,3.1,4.9,5.2,7.2-2.6-5.1-3.8-10.8-3.8-17.1,0-10.4,3.5-19.3,10.5-26.6,7-7.4,15.4-11,25.3-11s18.3,3.7,25.3,11Z"/>
        <path class="cls-2" d="M89.5,43.3c-1.6-3.1-3.7-5.9-6.3-8.6-7-7.4-15.4-11-25.3-11s-18.3,3.7-25.3,11c-7,7.3-10.5,16.2-10.5,26.6s1.3,11.9,3.8,17.1c.4.4.7.8,1.1,1.2,7.4,7.6,16.3,11.4,26.7,11.4,10.5,0,19.4-3.8,26.8-11.4,7.4-7.6,11.1-16.8,11.1-27.6v-1.3c-.5-2.6-1.2-5-2.2-7.4M82.7,39.1c1.1,2,1.1,4,0,6-11,16.9-19.8,28.4-26.5,34.5-3.3,2.1-6.5,1.7-9.8-1.1l-7.1-6.7c-5.1-5-9.2-10-12.3-15-1.1-2.4-.9-4.6.7-6.6l3.9-4c3.3-3,6.3-3.6,9-1.8l9.4,9c.8.8,1.5.8,2.2,0l16.1-19.7c1.8-1.9,3.9-2.2,6.5-1,3.1,1.9,5.7,4.1,7.7,6.5Z"/>
        <path class="cls-1" d="M82.7,45.1c1.1-2,1.1-4,0-6-2.1-2.4-4.7-4.6-7.7-6.5-2.6-1.2-4.7-.9-6.5,1l-16.1,19.7c-.7.9-1.5.9-2.2,0l-9.4-9c-2.8-1.8-5.8-1.2-9,1.8l-3.9,4c-1.6,2-1.9,4.2-.7,6.6,3.1,5,7.2,10,12.3,15l7.1,6.7c3.3,2.8,6.5,3.2,9.8,1.1,6.7-6.1,15.5-17.5,26.5-34.5M75.9,36.6l.7.5,2.9,2.2c1.1,1.3,1.1,2.7,0,4.4-5.5,8.4-11.2,16.3-17.1,23.8-2.4,3-4.8,6-7.2,8.8-2.2,2.1-4.3,2.1-6.5,0-7.2-5.8-13.1-12.1-17.9-18.8,0,0-.1-.1-.2-.2-1.5-2.2-1.8-4-.8-5.3,1.4-2,3.3-3.9,5.9-5.7,1.4-.7,2.6-.5,3.7.5l5,5,5,5c.6.5,1.2.7,1.8.7h0c.7-.1,1.4-.7,2.1-1.6l15.7-19.3c1.6-1.7,3.3-2,4.9-1.1l1.8,1.4Z"/>
        <path class="cls-10" d="M35.6,46.2c-2.6,1.8-4.6,3.7-5.9,5.7-1,1.3-.7,3.1.8,5.3,0,0,.1.2.2.2-.4-2,.2-3.8,1.6-5.5l4.2-3.7c.9-1,3.5.1,7.9,3.5l-5-5c-1.1-1.1-2.3-1.2-3.7-.5M75.9,36.6l-1.8-1.4c-1.7-.9-3.3-.5-4.9,1.1l-15.7,19.3c-.7,1-1.4,1.5-2.1,1.6,1.2.9,2.4.7,3.8-.6l13.8-17.3c1.7-2.6,4-3.6,6.9-2.8Z"/>
        <path class="cls-12" d="M79.4,43.6c1.1-1.7,1.1-3.1,0-4.4l-2.9-2.2c1.2,2.4,1.2,4.7,0,7.1l-14.2,23.2c5.9-7.5,11.6-15.4,17.1-23.8Z"/>
        <path class="cls-3" d="M76.6,37.1l-.7-.5c-2.9-.8-5.2.1-6.9,2.8l-13.8,17.3c-1.3,1.3-2.6,1.5-3.8.6h0c-.6,0-1.2-.2-1.8-.7l-5-5c-4.4-3.3-7-4.5-7.9-3.5l-4.2,3.7c-1.4,1.7-1.9,3.6-1.6,5.5,4.8,6.7,10.8,13,17.9,18.8,2.2,2.1,4.3,2.1,6.5,0,2.4-2.9,4.8-5.8,7.2-8.8l14.2-23.2c1.2-2.4,1.2-4.8,0-7.1Z"/>
        <path class="cls-11" d="M27.7,23.4c.5-.9.5-1.8,0-2.7-1.6-.9-3.6-.5-5.9,1.4-2.7,2-4.1,3.9-4.1,5.8.2,1.5,1.5,1.7,3.7.7,2.6-1.2,4.6-2.9,6.3-5.3Z"/>
      </g>
    </g>
    <g id="_Слой_2" data-name="Слой_2">
      <path class="cls-13" d="M93.5,16.6c-2.8-2.8-5.8-5.2-8.9-7.3C75.9,3.5,66,.6,55,.6s-27.8,5.3-38.4,16C5.9,27.2.6,40,.6,55s1.6,15.7,4.7,22.5c2.6,5.8,6.4,11.1,11.2,16,3.5,3.5,7.3,6.4,11.3,8.8,1.8,1.1,3.6,2,5.5,2.8,6.6,2.9,13.8,4.3,21.6,4.3,7.8,0,15.1-1.4,21.8-4.3,6.1-2.6,11.6-6.5,16.7-11.6,10.6-10.6,15.9-23.5,15.9-38.5s-2.5-19.5-7.4-27.7c-2.3-3.8-5.1-7.4-8.5-10.7M90.3,19.7c3.1,3.1,5.7,6.3,7.8,9.8,4.6,7.6,6.8,16,6.8,25.5,0,13.8-4.9,25.6-14.6,35.4-4.7,4.7-9.8,8.2-15.4,10.7-6.1,2.6-12.8,4-20,4s-13.8-1.3-19.8-4c-1.8-.8-3.4-1.6-5.1-2.6-3.7-2.2-7.2-4.9-10.4-8.1-4.5-4.5-7.9-9.4-10.3-14.7-2.9-6.3-4.3-13.2-4.3-20.7,0-13.8,4.9-25.6,14.6-35.3,9.8-9.8,21.5-14.7,35.3-14.7s19.2,2.6,27.2,7.9c2.9,1.9,5.6,4.2,8.2,6.7Z"/>
    </g>
  </g>
</svg>