
<svg xmlns="http://www.w3.org/2000/svg" version="1.1" xmlns:xlink="http://www.w3.org/1999/xlink" preserveAspectRatio="none" x="0px" y="0px" width="1210px" height="2550px" viewBox="0 0 1210 2550">
<defs>
<g id="Layer1_0_FILL">
<path fill="#E5AD50" stroke="none" d="
M 1190.55 79.5
Q 1179.85 23.35 1141.4 21.2
L 71.6 21.2
Q 45.65 22.35 24 32.75
L 19.35 91.2 19.35 2462.7
Q 28.55 2517.5 94.3 2522.9
L 1141.4 2522.9
Q 1172.6 2524.75 1203.9 2502.75
L 1199.75 2469.45 1199.35 2409.15 1198.35 2409.15 1198.35 2129.15 1199.35 2129.15 1199.2 2107.6 1198.35 2100.7 1198.35 1991.15 1192.85 1243.8 1192.05 966.6 1192.05 298.45 1190.55 79.5
M 1158.2 62
Q 1174.65 78.15 1174.65 101.1
L 1174.65 2446.95
Q 1174.6 2469.7 1158.2 2485.85 1141.7 2502 1118.4 2502
L 91.7 2502
Q 68.35 2502 51.95 2485.85 35.55 2469.7 35.5 2446.95
L 35.5 101.1
Q 35.5 78.15 51.95 62 68.35 45.85 91.7 45.85
L 1118.4 45.85
Q 1141.7 45.85 1158.2 62 Z"/>

<path fill="#582F11" stroke="none" d="
M 1174.65 101.1
Q 1174.65 78.15 1158.2 62 1141.7 45.85 1118.4 45.85
L 91.7 45.85
Q 68.35 45.85 51.95 62 35.5 78.15 35.5 101.1
L 35.5 2446.95
Q 35.55 2469.7 51.95 2485.85 68.35 2502 91.7 2502
L 1118.4 2502
Q 1141.7 2502 1158.2 2485.85 1174.6 2469.7 1174.65 2446.95
L 1174.65 101.1
M 1142.95 84.8
Q 1158.75 100.4 1158.75 122.65
L 1158.75 2431.05
Q 1158.35 2452.5 1142.95 2467.8 1128.6 2482.1 1108.8 2483.4
L 912.8 2483.5 912.8 2483.4
Q 911.6 2483.45 910.4 2483.5
L 305.3 2483.5
Q 299.6 2483.5 294.35 2482.5
L 94.35 2481.6 94.35 2482.5
Q 92.4 2482.1 90.5 2481.6 77.45 2478 67.25 2467.8 51.9 2452.55 51.5 2431.05
L 51.5 122.65
Q 51.5 100.4 67.25 84.8 78.95 73.1 94.35 70.15
L 294.35 70.15
Q 296.2 69.8 298.15 69.55
L 298.15 70.15 908.4 69.15 908.4 69.1 909.9 69.1
Q 910.25 69.1 910.65 69.15 911.7 69.2 912.8 69.25
L 912.8 69.1 914.15 69.1
Q 914.35 69.1 914.55 69.1 920.7 69.1 926.8 69.1
L 1108.8 69.1 1108.8 69.25
Q 1128.6 70.5 1142.95 84.8 Z"/>

<path fill="#85481A" stroke="none" d="
M 1158.75 122.65
Q 1158.75 100.4 1142.95 84.8 1128.6 70.5 1108.8 69.25
L 1108.8 69.1 926.8 69.1
Q 920.7 69.1 914.55 69.1 914.35 69.1 914.15 69.1
L 912.8 69.1 912.8 69.25
Q 911.7 69.2 910.65 69.15 910.25 69.1 909.9 69.1
L 908.4 69.1 908.4 69.15 298.15 70.15 298.15 69.55
Q 296.2 69.8 294.35 70.15
L 94.35 70.15
Q 78.95 73.1 67.25 84.8 51.5 100.4 51.5 122.65
L 51.5 2431.05
Q 51.9 2452.55 67.25 2467.8 77.45 2478 90.5 2481.6 92.4 2482.1 94.35 2482.5
L 94.35 2481.6 294.35 2482.5
Q 299.6 2483.5 305.3 2483.5
L 910.4 2483.5
Q 911.6 2483.45 912.8 2483.4
L 912.8 2483.5 1108.8 2483.4
Q 1128.6 2482.1 1142.95 2467.8 1158.35 2452.5 1158.75 2431.05
L 1158.75 122.65 Z"/>

<path fill="#FFC059" stroke="none" d="
M 1188.65 21.2
Q 1170.8 4 1145.45 4
L 64.55 4
Q 39.2 4 21.35 21.2 11.25 30.95 6.85 42.9 15.05 37.05 24 32.75 45.65 22.35 71.6 21.2
L 1141.4 21.2
Q 1179.85 23.35 1190.55 79.5
L 1192.05 298.45 1192.05 966.6 1192.85 1243.8 1198.35 1991.15 1198.35 2100.7 1199.2 2107.6 1199.35 2129.15 1198.35 2129.15 1198.35 2409.15 1199.35 2409.15 1199.75 2469.45 1203.9 2502.75
Q 1206.5 2494.45 1206.5 2485
L 1206.5 2020.75
Q 1206.5 2019.7 1206.5 2018.7
L 1206.5 62.75
Q 1206.5 38.4 1188.65 21.2 Z"/>

<path fill="#A97222" stroke="none" d="
M 24 32.75
Q 15.05 37.05 6.85 42.9 3.5 52.15 3.5 62.75
L 3.5 2485
Q 3.5 2509.35 21.35 2526.55 39.2 2543.75 64.55 2543.75
L 1145.45 2543.75
Q 1170.8 2543.75 1188.65 2526.55 1199.6 2516.05 1203.9 2502.75 1172.6 2524.75 1141.4 2522.9
L 94.3 2522.9
Q 28.55 2517.5 19.35 2462.7
L 19.35 91.2 24 32.75 Z"/>
</g>

<g id="Layer0_0_FILL">
<path fill="#582F11" stroke="none" d="
M 1142.5 522.55
Q 1142.5 513.45 1136.05 507 1129.6 500.55 1120.5 500.55
L 89.55 500.55
Q 80.45 500.55 74 507 67.55 513.45 67.55 522.55
L 67.55 2110.5
Q 67.55 2119.6 74 2126.05 80.45 2132.5 89.55 2132.5
L 1120.5 2132.5
Q 1129.6 2132.5 1136.05 2126.05 1142.5 2119.6 1142.5 2110.5
L 1142.5 522.55
M 1114.25 506.55
Q 1123.25 506.55 1129.65 512.95 1136 519.35 1136 528.4
L 1136 704.55 1136 908.55 1136 1112.55 1136 1316.55 1136 1520.55 1136 1724.55 1136 1928.55 1136 2104.65
Q 1136 2113.7 1129.65 2120.1 1123.25 2126.5 1114.25 2126.5
L 95.9 2126.5
Q 86.95 2126.5 80.55 2120.1 74.2 2113.7 74.2 2104.65
L 74.2 1928.55 74.2 1724.55 74.2 1520.55 74.2 1316.55 74.2 1112.6 74.2 908.55 74.2 704.55 74.2 528.4
Q 74.2 519.35 80.55 512.95 86.95 506.55 95.9 506.55
L 1114.25 506.55 Z"/>

<path fill="#A97222" stroke="none" d="
M 1114.25 2126.5
Q 1123.25 2126.5 1129.65 2120.1 1136 2113.7 1136 2104.65
L 1136 1928.55 74.2 1928.55 74.2 2104.65
Q 74.2 2113.7 80.55 2120.1 86.95 2126.5 95.9 2126.5
L 1114.25 2126.5
M 1136 1520.55
L 74.2 1520.55 74.2 1724.55 1136 1724.55 1136 1520.55
M 1136 908.55
L 1136 704.55 74.2 704.55 74.2 908.55 1136 908.55
M 76.15 1112.6
Q 75.9 1112.6 75.7 1112.6
L 74.2 1112.6 74.2 1316.55 1136 1316.55 1136 1112.55 106.15 1112.6
Q 105.9 1112.6 105.7 1112.6 105.5 1112.6 105.3 1112.6
L 76.15 1112.6 Z"/>

<path fill="#E5AD50" stroke="none" d="
M 1136 1928.55
L 1136 1724.55 74.2 1724.55 74.2 1928.55 1136 1928.55
M 74.2 1316.55
L 74.2 1520.55 1136 1520.55 1136 1316.55 74.2 1316.55
M 75.7 1112.6
Q 75.9 1112.6 76.15 1112.6
L 105.3 1112.6
Q 105.5 1112.6 105.7 1112.6 105.9 1112.6 106.15 1112.6
L 1136 1112.55 1136 908.55 74.2 908.55 74.2 1112.6 75.7 1112.6
M 1129.65 512.95
Q 1123.25 506.55 1114.25 506.55
L 95.9 506.55
Q 86.95 506.55 80.55 512.95 74.2 519.35 74.2 528.4
L 74.2 704.55 1136 704.55 1136 528.4
Q 1136 519.35 1129.65 512.95 Z"/>
</g>
</defs>

<g transform="matrix( 1, 0, 0, 1, 0,0) ">
<use xlink:href="#Layer1_0_FILL"/>
</g>
</svg>
