<svg width="531" height="907" viewBox="0 0 531 907" fill="none" xmlns="http://www.w3.org/2000/svg">
<path d="M9.04711 12.6944C6.41388 13.9602 3.89099 15.4541 1.47843 17.1761C0.49281 19.899 0 22.8206 0 25.9408V880.884C0 888.052 2.62587 894.167 7.8776 899.23C13.1293 904.293 19.4844 906.825 26.9427 906.825H503.968C511.426 906.825 517.781 904.293 523.033 899.23C526.255 896.14 528.498 892.637 529.763 888.722C520.554 895.198 511.36 898.163 502.181 897.619H40.0721C20.7274 896.029 9.70174 887.169 6.99496 871.038V38.5028L9.04711 12.6944ZM326.799 24.4396C330.889 24.4396 334.375 25.514 337.259 27.6628C337.744 28.0308 338.193 28.4061 338.605 28.7888C338.766 28.9507 338.928 29.1126 339.09 29.2745C340.752 31.0407 341.583 33.0644 341.583 35.3457V66.7397C341.583 69.595 340.296 72.0456 337.722 74.0914L349.174 65.5033V33.1159C349.174 31.7766 348.998 30.4961 348.645 29.2745C348.586 29.0979 348.527 28.9213 348.468 28.7446C347.703 26.5663 346.35 24.6015 344.408 22.85C341.26 20.0388 337.435 18.6332 332.934 18.6332H199.191C195.807 18.6332 192.799 19.4427 190.166 21.0617L196.477 26.6252C199.036 25.1681 202.001 24.4396 205.369 24.4396H326.799ZM368.063 77.4471V77.3588C367.283 79.596 365.981 81.6124 364.157 83.408C360.935 86.6313 357.044 88.2429 352.484 88.2429H180.258C175.683 88.2429 171.785 86.6313 168.563 83.408C166.724 81.5682 165.408 79.5077 164.613 77.2264V77.4471C164.613 81.9951 166.217 85.8733 169.424 89.0819C172.631 92.2905 176.5 93.8947 181.03 93.8947H351.646C356.191 93.8947 360.068 92.2905 363.274 89.0819C366.467 85.8733 368.063 81.9951 368.063 77.4471Z" fill="#A97222"/>
<path d="M523.872 33.3367C520.724 16.8082 513.493 8.22747 502.181 7.59459H30.0541C22.4192 7.93311 15.4169 9.63306 9.04711 12.6944L6.99496 38.5028V871.038C9.70174 887.169 20.7274 896.029 40.0721 897.619H502.181C511.36 898.163 520.554 895.197 529.763 888.721L527.932 874.018L527.755 847.393L526.961 829.532L524.887 547.429L524.534 425.032V130.013L523.872 33.3367ZM509.595 25.6097C514.435 30.3636 516.855 36.1184 516.855 42.8741V864.083C516.84 870.78 514.42 876.505 509.595 881.259C504.74 886.013 498.885 888.39 492.03 888.39H38.9246C32.0547 888.39 26.2072 886.013 21.3821 881.259C16.5569 876.505 14.137 870.78 14.1223 864.083V42.8741C14.1223 36.1184 16.5422 30.3636 21.3821 25.6097C26.2072 20.8557 32.0547 18.4787 38.9246 18.4787H158.17V18.5449H164.613V77.2264C165.408 79.5077 166.724 81.5682 168.563 83.408C171.785 86.6313 175.683 88.2429 180.258 88.2429H352.484C357.044 88.2429 360.935 86.6313 364.157 83.408C365.981 81.6124 367.283 79.596 368.063 77.3588V18.5449H374.528V18.4787H492.03C498.885 18.4787 504.74 20.8557 509.595 25.6097ZM348.468 28.7446C348.527 28.9213 348.586 29.0979 348.645 29.2745C348.998 30.4961 349.174 31.7766 349.174 33.1159V65.5033V68.9915C349.174 72.9802 347.585 76.3801 344.408 79.1913C341.26 82.0466 337.435 83.4743 332.934 83.4743H199.191C194.719 83.4743 190.901 82.0466 187.739 79.1913C184.561 76.3801 182.972 72.9802 182.972 68.9915V33.1159C182.972 31.7471 183.163 30.4446 183.546 29.2083C184.252 26.8386 185.65 24.7192 187.739 22.85C188.518 22.1877 189.327 21.5916 190.166 21.0617C192.799 19.4427 195.807 18.6332 199.191 18.6332H332.934C337.435 18.6332 341.26 20.0388 344.408 22.85C346.35 24.6015 347.703 26.5663 348.468 28.7446Z" fill="#E5AD50"/>
<path d="M314.994 77.6679H315.104C315.104 77.5943 315.104 77.5207 315.104 77.4471V77.3588C315.075 77.4619 315.038 77.5649 314.994 77.6679ZM509.838 52.3894C509.838 45.8398 507.513 40.269 502.865 35.6769C498.643 31.4675 493.619 29.1788 487.794 28.8109V28.7446H374.528V83.8496C374.425 88.4416 372.741 92.364 369.475 95.6168C366.106 98.9872 362.046 100.672 357.295 100.672H175.426C170.909 100.672 167.026 99.1638 163.775 96.1466C163.583 95.97 163.4 95.7934 163.223 95.6168C159.854 92.261 158.17 88.1841 158.17 83.3859V29.2083H40.0941C35.5632 30.0766 31.5766 32.2329 28.1343 35.6769C23.5004 40.269 21.1835 45.8398 21.1835 52.3894V857.063C21.3012 863.392 23.6181 868.8 28.1343 873.29C31.1353 876.292 34.5555 878.323 38.395 879.383C38.954 879.53 39.5204 879.662 40.0941 879.78V879.383L128.359 879.78C129.903 880.075 131.514 880.222 133.191 880.222H400.235C400.588 880.207 400.941 880.192 401.294 880.178V880.222L487.794 880.178C493.619 879.795 498.643 877.499 502.865 873.29C507.396 868.786 509.72 863.377 509.838 857.063V52.3894Z" fill="#85481A"/>
<path d="M315.104 77.6679H314.994H205.369C201.265 77.6679 197.771 76.5935 194.888 74.4446C192.005 72.3252 190.563 69.7569 190.563 66.7397V35.3458C190.563 33.035 191.424 30.9892 193.145 29.2083C193.645 28.6637 194.226 28.1486 194.888 27.6629C195.418 27.2802 195.947 26.9343 196.477 26.6252L190.166 21.0617C189.327 21.5916 188.518 22.1877 187.738 22.85C185.65 24.7192 184.252 26.8386 183.546 29.2083C183.163 30.4446 182.972 31.7472 182.972 33.1159V68.9915C182.972 72.9802 184.561 76.3801 187.738 79.1913C190.901 82.0466 194.719 83.4743 199.191 83.4743H332.934C337.435 83.4743 341.26 82.0466 344.408 79.1913C347.585 76.3801 349.174 72.9802 349.174 68.9915V65.5033L337.722 74.0914C337.663 74.0914 337.619 74.1282 337.59 74.2018C337.501 74.2607 337.391 74.3416 337.259 74.4446C334.375 76.5935 330.889 77.6679 326.799 77.6679H323.467C323.438 77.6679 323.401 77.6679 323.357 77.6679H315.104ZM523.033 7.59459C517.781 2.53153 511.426 0 503.968 0H26.9427C19.4844 0 13.1293 2.53153 7.8776 7.59459C4.90603 10.4646 2.77297 13.6585 1.47843 17.1761C3.89099 15.4541 6.41388 13.9602 9.04711 12.6944C15.4169 9.63306 22.4192 7.93311 30.054 7.59459H502.181C513.493 8.22747 520.724 16.8082 523.872 33.3367L524.534 130.013V425.032L524.887 547.429L526.961 829.532L527.755 847.393L527.932 874.018L529.763 888.722C530.528 886.278 530.911 883.666 530.911 880.884V25.9408C530.911 18.7731 528.285 12.6576 523.033 7.59459Z" fill="#FFC059"/>
<path d="M337.259 27.6629C334.375 25.514 330.889 24.4396 326.799 24.4396H205.369C202.001 24.4396 199.036 25.1681 196.477 26.6252C195.947 26.9343 195.418 27.2802 194.888 27.6629C194.226 28.1486 193.645 28.6637 193.145 29.2083C191.424 30.9892 190.563 33.035 190.563 35.3457V66.7397C190.563 69.7569 192.005 72.3252 194.888 74.4446C197.771 76.5935 201.265 77.6679 205.369 77.6679H314.994C315.038 77.5649 315.075 77.4619 315.104 77.3588V77.4471C315.104 77.5207 315.104 77.5943 315.104 77.6679H323.357C323.401 77.6679 323.438 77.6679 323.467 77.6679H326.799C330.889 77.6679 334.375 76.5935 337.259 74.4446C337.391 74.3416 337.501 74.2607 337.59 74.2018C337.619 74.1282 337.663 74.0914 337.722 74.0914C340.296 72.0456 341.583 69.595 341.583 66.7397V35.3457C341.583 33.0644 340.752 31.0407 339.09 29.2745C338.928 29.1126 338.766 28.9507 338.605 28.7888C338.193 28.4061 337.744 28.0308 337.259 27.6629Z" fill="#3A2520"/>
<path d="M516.855 42.8741C516.855 36.1184 514.435 30.3636 509.595 25.6097C504.74 20.8557 498.885 18.4787 492.03 18.4787H374.528V18.5449H368.063V77.3588V77.4471C368.063 81.9951 366.467 85.8733 363.274 89.0819C360.068 92.2904 356.191 93.8947 351.646 93.8947H181.03C176.499 93.8947 172.631 92.2904 169.424 89.0819C166.217 85.8733 164.613 81.9951 164.613 77.4471V77.2264V18.5449H158.17V18.4787H38.9246C32.0547 18.4787 26.2072 20.8557 21.3821 25.6097C16.5422 30.3636 14.1223 36.1184 14.1223 42.8741V864.083C14.137 870.78 16.5569 876.505 21.3821 881.259C26.2072 886.013 32.0547 888.39 38.9246 888.39H492.03C498.885 888.39 504.74 886.013 509.595 881.259C514.42 876.505 516.84 870.78 516.855 864.083V42.8741ZM502.865 35.6769C507.513 40.269 509.838 45.8398 509.838 52.3894V857.063C509.72 863.377 507.396 868.786 502.865 873.29C498.643 877.499 493.619 879.795 487.794 880.178L401.294 880.222V880.178C400.941 880.192 400.588 880.207 400.235 880.222H133.191C131.514 880.222 129.903 880.075 128.359 879.78L40.0941 879.383V879.78C39.5204 879.662 38.954 879.53 38.395 879.383C34.5555 878.323 31.1353 876.292 28.1343 873.29C23.6181 868.8 21.3012 863.392 21.1835 857.063V52.3894C21.1835 45.8398 23.5004 40.269 28.1343 35.6769C31.5766 32.2328 35.5632 30.0766 40.0941 29.2083H158.17V83.3859C158.17 88.1841 159.854 92.261 163.223 95.6168C163.4 95.7934 163.583 95.97 163.775 96.1466C167.026 99.1638 170.909 100.672 175.426 100.672H357.295C362.046 100.672 366.106 98.9872 369.475 95.6168C372.741 92.364 374.425 88.4416 374.528 83.8496V28.7446H487.794V28.8109C493.619 29.1788 498.643 31.4675 502.865 35.6769Z" fill="#582F11"/>
</svg>
