
<svg xmlns="http://www.w3.org/2000/svg" version="1.1" xmlns:xlink="http://www.w3.org/1999/xlink" preserveAspectRatio="none" x="0px" y="0px" width="255px" height="94px" viewBox="0 0 255 94">
<defs>
<g id="Layer0_0_FILL">
<path fill="#B26C1E" stroke="none" d="
M 12.4 83.6
Q 12.2 83.55 12.05 83.55 7.35 83.05 4 82.9 4.8 84.7 5.95 86.05
L 34.65 85.2
Q 34.35 85.2 34.1 85.2 26.5 85 20.4 84.45 15.2 83.9 12.4 83.6
M 99.6 83.05
Q 99.05 83.15 98.45 83.25
L 155.4 81.45
Q 152.1 81.4 148.35 81.45 131.5 81.7 129.3 81.65 123.35 81.55 120.45 81.55 115.2 81.55 111.6 81.75 109.05 81.95 105.6 82.35 101.6 82.85 99.6 83.05
M 88.1 46.4
Q 84 46.9 82.9 46.95 79 47.35 71.15 47.35 60.4 47.35 49.65 47.35 35.55 47.3 21.45 47.25 16.25 47.2 12.4 47.3 8.9 47.4 6.55 47.55 4.5 47.75 2.25 48
L 2.25 51.85
Q 9.8 50.85 12.4 50.6 12.65 50.55 12.9 50.5 19.75 49.75 29.9 49.45 37.15 49.3 42.15 49.45 46.1 49.6 49.65 50 52.05 50.25 54.25 50.65 58.7 51.45 59.35 51.5 62.85 52 69.5 51.95 76.85 51.95 80.5 51.85 86.6 51.6 91.4 50.9 96.9 50.15 102.3 48.55 105.2 47.75 106.5 46.75 97.8 45.75 93.35 45.9 91.35 46 88.1 46.4
M 231.5 53.3
Q 227.85 53.3 225.15 53.15 222.6 52.95 218.15 52.5 213.2 51.9 211.2 51.8 207.45 51.45 198.3 51.4
L 152.5 50.95
Q 146.7 50.9 143.95 51.25 140.55 51.6 137.2 52.75 136.35 53.05 135.85 53.6 135.25 54.15 135.55 54.7 138 55.7 141.25 55.9 143.2 56.1 147.15 56.1
L 192.95 56.05
Q 208.8 55.95 217.35 56.55 224.75 57.1 238 58.8 241.75 56.2 245.4 53.35 241.6 53.25 237.8 53.3 232.2 53.3 231.5 53.3
M 167.05 74.9
Q 169.95 75.25 175.75 76 181 76.6 184.5 76.8 185.65 76.9 187 76.95 190.45 77.05 195.35 77.05 196.3 77.05 197.3 77.1 209.45 74.05 220.55 68.85
L 166.2 64.45
Q 152.5 63.4 146.4 62.95 135.3 62.25 126.5 62.1 118.35 61.9 99.9 62.2
L 73.2 62.65
Q 57.7 62.9 49.65 63.3 49.6 63.3 49.55 63.3 36.45 63.95 26.05 65.35 23.1 65.75 17.7 66.6 14.6 67.05 12.4 67.45 10.55 67.75 9.4 67.9 6.55 68.3 2.25 68.75
L 2.25 73.5
Q 2.25 75.65 2.55 77.45
L 13.9 77.45
Q 18.7 77.45 21.1 77.4 25.15 77.2 28.3 76.7 29.85 76.45 33.35 75.7 36.55 75.05 38.35 74.8 40.35 74.45 42.9 74.3 44.4 74.25 47.4 74.15 48.5 74.1 49.65 74.1 65.9 73.7 86.15 73.5 97.8 73.45 124.9 73.45 138.7 73.4 146 73.6 157.65 73.95 167.05 74.9
M 170.8 76.8
Q 165.6 76.2 162.95 75.9 155.95 75.25 147.2 75 141.7 74.85 131.45 74.9
L 96 74.95
Q 67.15 74.95 49.65 75.6 48 75.65 46.45 75.7 42.35 75.85 39.7 76.15 37.3 76.4 33.3 77.15 28.75 77.95 26.9 78.2 22.95 78.75 17.9 78.9 16 78.95 12.4 78.95 10.85 78.95 9 78.95
L 2.75 78.95
Q 3.05 80.3 3.45 81.5 5.7 81.55 7.6 81.7 9.6 81.8 12.4 82.15 13.3 82.2 14.3 82.3 19.6 82.95 20.95 83.05 25.65 83.5 31.6 83.7 35.1 83.8 42.25 83.85 46.25 83.85 49.65 83.9 58.05 83.9 62.6 83.9 74 83.8 83 83.1 88.1 82.8 93.85 82.15 95.25 82.05 100.8 81.35 105.05 80.85 107.7 80.7 114.95 80.05 129.5 80 146.3 79.95 154.65 80.1 164 80.35 172.15 80.85 179.7 80.45 186.95 79.2 189.05 78.85 191.1 78.45 191 78.45 190.95 78.45 188.9 78.4 186.95 78.3 182.45 78.1 178.6 77.75 176 77.45 170.8 76.8
M 212.2 17.9
Q 225.5 18 232.25 17.85 242.35 17.6 250.55 16.85 245.15 9.4 234.75 8.45
L 20.65 8.45
Q 16 8.8 12.4 10.35 6.4 12.8 3.25 18.5
L 145.15 13.2
Q 152.25 12.95 155.45 12.9 161.2 12.9 165.75 13.4 169.65 13.75 176.15 14.95 183.85 16.35 186.65 16.75 188.05 16.9 189.55 17.1 192.3 17.35 195.4 17.55 196.75 17.65 198.1 17.7 198.7 17.7 199.4 17.7 203.7 17.9 212.2 17.9
M 247.1 51.95
Q 248.45 50.8 249.85 49.65 242.35 49.3 235.8 48.95 213.25 47.2 198.1 46.3 196.75 46.25 195.4 46.2 191.65 45.95 188.35 45.85 186.15 45.75 184.2 45.65 154.5 44.65 133.1 49 129.6 49.7 119.85 52.1 111.55 54.15 106.5 55 102 55.8 96.3 56.35 92.85 56.7 85.95 57.25
L 62.95 59.05
Q 55.75 59.65 49.65 60.05 36.25 60.95 28.25 61.05 24.45 61.1 15 61.1 13.65 61.1 12.4 61.1 6.2 61.1 2.25 61.25
L 2.25 67.2
Q 7 66.6 12.4 65.9 16.35 65.35 20.55 64.8 36.1 62.7 42.05 62.2 45.2 61.95 49.65 61.75 56.05 61.45 65.15 61.35 87.75 61 99.1 60.95 117.95 60.9 133 61.25 156.65 61.85 185.75 64 186.65 64.05 187.55 64.15 205.1 65.5 223.55 67.4 230 64.1 236.15 60.1 223 58.3 215.7 57.85 209.15 57.45 196 57.45
L 148.9 57.55
Q 145 57.55 143.05 57.45 139.85 57.3 137.35 56.85 134.05 56.25 133.8 54.5 133.7 53.45 134.6 52.6 135.45 51.85 136.75 51.4 140.1 50.1 144.65 49.7 147.5 49.45 153 49.5
L 198.6 49.95
Q 208.5 50.05 213.85 50.55 215.1 50.65 219.3 51.15 222.6 51.55 224.65 51.7 228.05 51.9 236.05 51.85 241.55 51.8 247.1 51.95
M 251.35 30
L 252.75 30.25 252.75 23.4
Q 225.4 24.75 198.1 23.3 196.75 23.2 195.4 23.1 193.25 22.95 191.1 22.85 190.2 22.8 189.3 22.75 182.9 22.25 179.05 21.65 177.25 21.4 173.1 20.75 169.25 20.05 167.15 19.8 162.35 19.1 156.35 19 152.7 18.9 145.4 18.9 132.65 18.9 126 19.25 115.3 19.75 106.8 21.2 99.95 22.55 96.5 23.1 90.9 23.9 83.6 24.1 79.65 24.15 70.65 23.9 60.15 23.7 49.65 23.7 31.05 23.6 12.4 24.1 7.35 24.2 2.25 24.4
L 2.25 29.85
Q 8.3 28.95 12.05 28.45 12.2 28.4 12.4 28.4 23.05 26.95 30.8 26.95 37.2 26.95 46.9 28.05 48.35 28.2 49.65 28.35 61.65 29.6 63.05 29.75 69.2 30.25 76.75 30.4 81.65 30.5 90.5 30.45 98.15 30.45 102 30.35 108.4 30.2 113.45 29.7 117.3 29.3 125.15 28.1 132.85 27 136.75 26.6 141.95 26.05 148.3 25.95 152.35 25.9 159.75 25.95
L 199.95 26.15
Q 215.5 26.3 223.3 26.8 229.5 27.2 237.3 28.15 241.6 28.65 251.35 30
M 252.75 47
L 252.75 43.2 209.75 43
Q 202.3 42.95 198.1 42.8 197.45 42.8 196.9 42.8 196.2 42.75 195.4 42.7 192.35 42.5 188.5 42.1 178.75 41.1 163.7 38.8 142.15 35.45 130.5 35.15 119.25 34.9 100.4 36.85 78.15 39.2 70.25 39.4 65.9 39.6 59.65 39.6 53.15 39.55 49.65 39.55 49.3 39.55 49 39.55 30.7 39.5 12.4 40.7 7.35 41.05 2.25 41.5
L 2.25 46.45
Q 3.95 46.25 5.45 46.15 8.05 45.9 12.4 45.85 14.55 45.85 17.1 45.85
L 66.45 45.9
Q 76.15 45.9 80.95 45.6 81.65 45.55 89.2 44.9 94.1 44.45 97.4 44.5 101.75 44.55 105.75 45.15 107.2 45.4 107.7 45.95 108.15 46.45 108 47.2 107.8 48 107.3 48.45 106.5 49.1 104.65 49.55 83.25 55.1 60.95 52.95 56.6 52.55 52.15 51.9 50.8 51.75 49.65 51.6 47.5 51.35 46.2 51.2 42.5 50.85 34.25 50.85 26 50.9 23 51.05 18.25 51.3 12.4 51.9 8.2 52.35 3.35 53.05 2.8 53.15 2.25 53.2
L 2.25 59.75
Q 6.25 59.65 12.4 59.65 13.25 59.65 14.15 59.65 23.5 59.7 27.35 59.65 35.6 59.45 49.65 58.55 55.65 58.15 62.7 57.6
L 85.85 55.8
Q 93.05 55.25 96.1 54.9 101.8 54.35 106.2 53.5 109.35 52.95 113.75 51.9 116.2 51.3 121.2 50.1 154.4 42.35 188.4 44.1 191.15 44.25 193.85 44.45 194.55 44.5 195.4 44.55 196.6 44.65 198.1 44.8 201.65 45.05 206.85 45.6 215.25 46.45 219.85 46.75 225.5 47.15 236.9 47.55
L 251.7 48
Q 252.25 47.5 252.75 47
M 252.75 41.65
L 252.75 31.7
Q 242 30.25 236.65 29.55 227.45 28.55 220.05 28.05 214 27.65 206.25 27.55 203.55 27.5 198.1 27.5 196.85 27.5 195.4 27.5 194 27.45 192.5 27.45
L 153.65 27.4
Q 147.15 27.4 144.3 27.5 139.1 27.65 135 28.15 132.35 28.45 128.1 29.2 122.7 30.15 121.15 30.35 113.4 31.5 103.5 31.8 97.85 32 85.75 31.95 76.85 31.85 73 31.7 65.9 31.55 60.25 31.05 58.4 30.85 49.65 29.8 48.65 29.7 47.6 29.55 39.8 28.65 34.8 28.5 25.9 28.15 14 29.55 13.55 29.6 12.4 29.8 9.55 30.15 2.25 31.2
L 2.25 40.1
Q 7.4 39.65 12.4 39.3 28.85 38.1 43.55 38.05 45.95 38.05 49.65 38.1 52.95 38.1 57.3 38.15 65.5 38.15 71.05 37.95 77.35 37.65 103.9 35.1 123.9 33.2 136.6 33.9 144.15 34.4 155.35 36.1 161.55 37.05 173.95 38.95 180.75 39.85 188.55 40.5 191.9 40.75 195.4 41 196.75 41.05 198.1 41.1 212.55 41.9 230.2 41.8 238.1 41.8 252.75 41.65
M 252.75 20.5
Q 252.2 19.3 251.5 18.15 243.3 19 233.75 19.25 225.45 19.45 208.75 19.25 202.15 19.15 199.5 19.05 198.8 19 198.1 19 196.7 19 195.4 18.9 192.65 18.75 190.35 18.55 189.95 18.5 189.55 18.45 185.2 17.95 177.65 16.8 169.05 15.4 164.9 14.95 157.15 14.15 145 14.25 128.3 14.25 106.9 15.55 97.3 16.1 68.85 18.2 57.85 19.05 49.65 19.5 44.05 19.8 39.8 19.95 29.7 20.4 12.4 20.45 10.3 20.45 8.05 20.45
L 2.25 20.5 2.25 22.7
Q 7.1 22.5 12.4 22.45 13.55 22.4 14.7 22.4 22.75 22.25 37.7 22.35
L 77.05 22.55
Q 83.15 22.55 86.2 22.5 91.35 22.35 95.4 21.8 98.1 21.4 102.75 20.5 108 19.45 110.1 19.1 116.95 18.05 126.35 17.7 131.8 17.6 142.75 17.6 154.15 17.55 154.45 17.55 161.05 17.55 166 18.15 168.3 18.45 172.25 19.1 176.55 19.9 178.4 20.1 182.05 20.65 189.4 21.25 189.55 21.25 189.65 21.25 192.55 21.5 195.4 21.65 196.75 21.7 198.1 21.8 225.4 23.35 252.75 22
L 252.75 20.5 Z"/>

<path fill="#905718" stroke="none" d="
M 82.9 46.95
Q 84 46.9 88.1 46.4 91.35 46 93.35 45.9 97.8 45.75 106.5 46.75 105.2 47.75 102.3 48.55 96.9 50.15 91.4 50.9 86.6 51.6 80.5 51.85 76.85 51.95 69.5 51.95 62.85 52 59.35 51.5 58.7 51.45 54.25 50.65 52.05 50.25 49.65 50 46.1 49.6 42.15 49.45 37.15 49.3 29.9 49.45 19.75 49.75 12.9 50.5 12.65 50.55 12.4 50.6 9.8 50.85 2.25 51.85
L 2.25 53.2
Q 2.8 53.15 3.35 53.05 8.2 52.35 12.4 51.9 18.25 51.3 23 51.05 26 50.9 34.25 50.85 42.5 50.85 46.2 51.2 47.5 51.35 49.65 51.6 50.8 51.75 52.15 51.9 56.6 52.55 60.95 52.95 83.25 55.1 104.65 49.55 106.5 49.1 107.3 48.45 107.8 48 108 47.2 108.15 46.45 107.7 45.95 107.2 45.4 105.75 45.15 101.75 44.55 97.4 44.5 94.1 44.45 89.2 44.9 81.65 45.55 80.95 45.6 76.15 45.9 66.45 45.9
L 17.1 45.85
Q 14.55 45.85 12.4 45.85 8.05 45.9 5.45 46.15 3.95 46.25 2.25 46.45
L 2.25 48
Q 4.5 47.75 6.55 47.55 8.9 47.4 12.4 47.3 16.25 47.2 21.45 47.25 35.55 47.3 49.65 47.35 60.4 47.35 71.15 47.35 79 47.35 82.9 46.95
M 162.95 75.9
Q 165.6 76.2 170.8 76.8 176 77.45 178.6 77.75 182.45 78.1 186.95 78.3 188.9 78.4 190.95 78.45 191 78.45 191.1 78.45 194.25 77.85 197.3 77.1 196.3 77.05 195.35 77.05 190.45 77.05 187 76.95 185.65 76.9 184.5 76.8 181 76.6 175.75 76 169.95 75.25 167.05 74.9 157.65 73.95 146 73.6 138.7 73.4 124.9 73.45 97.8 73.45 86.15 73.5 65.9 73.7 49.65 74.1 48.5 74.1 47.4 74.15 44.4 74.25 42.9 74.3 40.35 74.45 38.35 74.8 36.55 75.05 33.35 75.7 29.85 76.45 28.3 76.7 25.15 77.2 21.1 77.4 18.7 77.45 13.9 77.45
L 2.55 77.45
Q 2.65 78.25 2.75 78.95
L 9 78.95
Q 10.85 78.95 12.4 78.95 16 78.95 17.9 78.9 22.95 78.75 26.9 78.2 28.75 77.95 33.3 77.15 37.3 76.4 39.7 76.15 42.35 75.85 46.45 75.7 48 75.65 49.65 75.6 67.15 74.95 96 74.95
L 131.45 74.9
Q 141.7 74.85 147.2 75 155.95 75.25 162.95 75.9
M 165.65 81.15
Q 168.9 81.05 172.15 80.85 164 80.35 154.65 80.1 146.3 79.95 129.5 80 114.95 80.05 107.7 80.7 105.05 80.85 100.8 81.35 95.25 82.05 93.85 82.15 88.1 82.8 83 83.1 74 83.8 62.6 83.9 58.05 83.9 49.65 83.9 46.25 83.85 42.25 83.85 35.1 83.8 31.6 83.7 25.65 83.5 20.95 83.05 19.6 82.95 14.3 82.3 13.3 82.2 12.4 82.15 9.6 81.8 7.6 81.7 5.7 81.55 3.45 81.5 3.7 82.2 4 82.9 7.35 83.05 12.05 83.55 12.2 83.55 12.4 83.6 15.2 83.9 20.4 84.45 26.5 85 34.1 85.2 34.35 85.2 34.65 85.2
L 98.45 83.25
Q 99.05 83.15 99.6 83.05 101.6 82.85 105.6 82.35 109.05 81.95 111.6 81.75 115.2 81.55 120.45 81.55 123.35 81.55 129.3 81.65 131.5 81.7 148.35 81.45 152.1 81.4 155.4 81.45
L 165.65 81.15
M 187.55 64.15
Q 186.65 64.05 185.75 64 156.65 61.85 133 61.25 117.95 60.9 99.1 60.95 87.75 61 65.15 61.35 56.05 61.45 49.65 61.75 45.2 61.95 42.05 62.2 36.1 62.7 20.55 64.8 16.35 65.35 12.4 65.9 7 66.6 2.25 67.2
L 2.25 68.75
Q 6.55 68.3 9.4 67.9 10.55 67.75 12.4 67.45 14.6 67.05 17.7 66.6 23.1 65.75 26.05 65.35 36.45 63.95 49.55 63.3 49.6 63.3 49.65 63.3 57.7 62.9 73.2 62.65
L 99.9 62.2
Q 118.35 61.9 126.5 62.1 135.3 62.25 146.4 62.95 152.5 63.4 166.2 64.45
L 220.55 68.85
Q 222 68.15 223.55 67.4 205.1 65.5 187.55 64.15
M 249.85 49.65
Q 250.75 48.85 251.7 48
L 236.9 47.55
Q 225.5 47.15 219.85 46.75 215.25 46.45 206.85 45.6 201.65 45.05 198.1 44.8 196.6 44.65 195.4 44.55 194.55 44.5 193.85 44.45 191.15 44.25 188.4 44.1 154.4 42.35 121.2 50.1 116.2 51.3 113.75 51.9 109.35 52.95 106.2 53.5 101.8 54.35 96.1 54.9 93.05 55.25 85.85 55.8
L 62.7 57.6
Q 55.65 58.15 49.65 58.55 35.6 59.45 27.35 59.65 23.5 59.7 14.15 59.65 13.25 59.65 12.4 59.65 6.25 59.65 2.25 59.75
L 2.25 61.25
Q 6.2 61.1 12.4 61.1 13.65 61.1 15 61.1 24.45 61.1 28.25 61.05 36.25 60.95 49.65 60.05 55.75 59.65 62.95 59.05
L 85.95 57.25
Q 92.85 56.7 96.3 56.35 102 55.8 106.5 55 111.55 54.15 119.85 52.1 129.6 49.7 133.1 49 154.5 44.65 184.2 45.65 186.15 45.75 188.35 45.85 191.65 45.95 195.4 46.2 196.75 46.25 198.1 46.3 213.25 47.2 235.8 48.95 242.35 49.3 249.85 49.65
M 245.4 53.35
Q 246.25 52.65 247.1 51.95 241.55 51.8 236.05 51.85 228.05 51.9 224.65 51.7 222.6 51.55 219.3 51.15 215.1 50.65 213.85 50.55 208.5 50.05 198.6 49.95
L 153 49.5
Q 147.5 49.45 144.65 49.7 140.1 50.1 136.75 51.4 135.45 51.85 134.6 52.6 133.7 53.45 133.8 54.5 134.05 56.25 137.35 56.85 139.85 57.3 143.05 57.45 145 57.55 148.9 57.55
L 196 57.45
Q 209.15 57.45 215.7 57.85 223 58.3 236.15 60.1 237.05 59.45 238 58.8 224.75 57.1 217.35 56.55 208.8 55.95 192.95 56.05
L 147.15 56.1
Q 143.2 56.1 141.25 55.9 138 55.7 135.55 54.7 135.25 54.15 135.85 53.6 136.35 53.05 137.2 52.75 140.55 51.6 143.95 51.25 146.7 50.9 152.5 50.95
L 198.3 51.4
Q 207.45 51.45 211.2 51.8 213.2 51.9 218.15 52.5 222.6 52.95 225.15 53.15 227.85 53.3 231.5 53.3 232.2 53.3 237.8 53.3 241.6 53.25 245.4 53.35
M 252.75 30.25
L 251.35 30
Q 241.6 28.65 237.3 28.15 229.5 27.2 223.3 26.8 215.5 26.3 199.95 26.15
L 159.75 25.95
Q 152.35 25.9 148.3 25.95 141.95 26.05 136.75 26.6 132.85 27 125.15 28.1 117.3 29.3 113.45 29.7 108.4 30.2 102 30.35 98.15 30.45 90.5 30.45 81.65 30.5 76.75 30.4 69.2 30.25 63.05 29.75 61.65 29.6 49.65 28.35 48.35 28.2 46.9 28.05 37.2 26.95 30.8 26.95 23.05 26.95 12.4 28.4 12.2 28.4 12.05 28.45 8.3 28.95 2.25 29.85
L 2.25 31.2
Q 9.55 30.15 12.4 29.8 13.55 29.6 14 29.55 25.9 28.15 34.8 28.5 39.8 28.65 47.6 29.55 48.65 29.7 49.65 29.8 58.4 30.85 60.25 31.05 65.9 31.55 73 31.7 76.85 31.85 85.75 31.95 97.85 32 103.5 31.8 113.4 31.5 121.15 30.35 122.7 30.15 128.1 29.2 132.35 28.45 135 28.15 139.1 27.65 144.3 27.5 147.15 27.4 153.65 27.4
L 192.5 27.45
Q 194 27.45 195.4 27.5 196.85 27.5 198.1 27.5 203.55 27.5 206.25 27.55 214 27.65 220.05 28.05 227.45 28.55 236.65 29.55 242 30.25 252.75 31.7
L 252.75 30.25
M 252.75 43.2
L 252.75 41.65
Q 238.1 41.8 230.2 41.8 212.55 41.9 198.1 41.1 196.75 41.05 195.4 41 191.9 40.75 188.55 40.5 180.75 39.85 173.95 38.95 161.55 37.05 155.35 36.1 144.15 34.4 136.6 33.9 123.9 33.2 103.9 35.1 77.35 37.65 71.05 37.95 65.5 38.15 57.3 38.15 52.95 38.1 49.65 38.1 45.95 38.05 43.55 38.05 28.85 38.1 12.4 39.3 7.4 39.65 2.25 40.1
L 2.25 41.5
Q 7.35 41.05 12.4 40.7 30.7 39.5 49 39.55 49.3 39.55 49.65 39.55 53.15 39.55 59.65 39.6 65.9 39.6 70.25 39.4 78.15 39.2 100.4 36.85 119.25 34.9 130.5 35.15 142.15 35.45 163.7 38.8 178.75 41.1 188.5 42.1 192.35 42.5 195.4 42.7 196.2 42.75 196.9 42.8 197.45 42.8 198.1 42.8 202.3 42.95 209.75 43
L 252.75 43.2
M 252.75 23.4
L 252.75 22
Q 225.4 23.35 198.1 21.8 196.75 21.7 195.4 21.65 192.55 21.5 189.65 21.25 189.55 21.25 189.4 21.25 182.05 20.65 178.4 20.1 176.55 19.9 172.25 19.1 168.3 18.45 166 18.15 161.05 17.55 154.45 17.55 154.15 17.55 142.75 17.6 131.8 17.6 126.35 17.7 116.95 18.05 110.1 19.1 108 19.45 102.75 20.5 98.1 21.4 95.4 21.8 91.35 22.35 86.2 22.5 83.15 22.55 77.05 22.55
L 37.7 22.35
Q 22.75 22.25 14.7 22.4 13.55 22.4 12.4 22.45 7.1 22.5 2.25 22.7
L 2.25 24.4
Q 7.35 24.2 12.4 24.1 31.05 23.6 49.65 23.7 60.15 23.7 70.65 23.9 79.65 24.15 83.6 24.1 90.9 23.9 96.5 23.1 99.95 22.55 106.8 21.2 115.3 19.75 126 19.25 132.65 18.9 145.4 18.9 152.7 18.9 156.35 19 162.35 19.1 167.15 19.8 169.25 20.05 173.1 20.75 177.25 21.4 179.05 21.65 182.9 22.25 189.3 22.75 190.2 22.8 191.1 22.85 193.25 22.95 195.4 23.1 196.75 23.2 198.1 23.3 225.4 24.75 252.75 23.4
M 251.5 18.15
Q 251.05 17.45 250.55 16.85 242.35 17.6 232.25 17.85 225.5 18 212.2 17.9 203.7 17.9 199.4 17.7 198.7 17.7 198.1 17.7 196.75 17.65 195.4 17.55 192.3 17.35 189.55 17.1 188.05 16.9 186.65 16.75 183.85 16.35 176.15 14.95 169.65 13.75 165.75 13.4 161.2 12.9 155.45 12.9 152.25 12.95 145.15 13.2
L 3.25 18.5
Q 2.7 19.45 2.25 20.5
L 8.05 20.45
Q 10.3 20.45 12.4 20.45 29.7 20.4 39.8 19.95 44.05 19.8 49.65 19.5 57.85 19.05 68.85 18.2 97.3 16.1 106.9 15.55 128.3 14.25 145 14.25 157.15 14.15 164.9 14.95 169.05 15.4 177.65 16.8 185.2 17.95 189.55 18.45 189.95 18.5 190.35 18.55 192.65 18.75 195.4 18.9 196.7 19 198.1 19 198.8 19 199.5 19.05 202.15 19.15 208.75 19.25 225.45 19.45 233.75 19.25 243.3 19 251.5 18.15 Z"/>

<path fill="#6D411F" stroke="none" d="
M 172.15 80.85
Q 168.9 81.05 165.65 81.15
L 155.4 81.45
Q 162.3 81.55 167.35 81.85 172.1 82.15 179.5 83 182.35 83.3 186.75 83.85 196.05 84.95 212.05 87.1 214.2 87.4 216.2 87.7
L 225.8 87.7
Q 223.9 87.35 221.15 87
L 201 84.15
Q 192.7 83.05 186.8 82.3 182.65 81.8 179.7 81.5 176.1 81.15 172.15 80.85
M 252.2 79.5
Q 252.3 78.75 252.45 78.1 247.55 78 241.45 77.85 220.2 77.3 197.3 77.1 194.25 77.85 191.1 78.45 195.15 78.6 203.3 78.75
L 243.55 79.35
Q 248.2 79.45 252.2 79.5
M 252.75 62.25
L 252.75 60.8 240.65 59.2
Q 239.3 59 238 58.8 237.05 59.45 236.15 60.1 236.85 60.15 237.55 60.25
L 252.75 62.25
M 252.75 71.45
L 252.75 70.45
Q 252.6 70.4 252.35 70.4 247.95 70.05 233.85 68.45 228.65 67.9 223.55 67.4 222 68.15 220.55 68.85
L 250.15 71.25
Q 251.5 71.35 252.75 71.45
M 245.4 53.35
Q 249.1 53.4 252.75 53.55
L 252.75 52.1
Q 249.95 52 247.1 51.95 246.25 52.65 245.4 53.35
M 252.75 48.05
L 251.7 48
Q 250.75 48.85 249.85 49.65 251.3 49.7 252.75 49.7
L 252.75 48.05 Z"/>

<path fill="#844F26" stroke="none" d="
M 252.2 79.5
Q 248.2 79.45 243.55 79.35
L 203.3 78.75
Q 195.15 78.6 191.1 78.45 189.05 78.85 186.95 79.2 179.7 80.45 172.15 80.85 176.1 81.15 179.7 81.5 182.65 81.8 186.8 82.3 192.7 83.05 201 84.15
L 221.15 87
Q 223.9 87.35 225.8 87.7
L 216.2 87.7
Q 214.2 87.4 212.05 87.1 196.05 84.95 186.75 83.85 182.35 83.3 179.5 83 172.1 82.15 167.35 81.85 162.3 81.55 155.4 81.45
L 98.45 83.25 34.65 85.2 5.95 86.05
Q 8.35 89.05 12.4 90.4 15.75 91.45 20.2 91.45
L 234.85 91.45
Q 249.5 91.45 252.2 79.5
M 252.75 73.5
L 252.75 71.45
Q 251.5 71.35 250.15 71.25
L 220.55 68.85
Q 209.45 74.05 197.3 77.1 220.2 77.3 241.45 77.85 247.55 78 252.45 78.1 252.75 75.95 252.75 73.5
M 252.75 70.45
L 252.75 62.25 237.55 60.25
Q 236.85 60.15 236.15 60.1 230 64.1 223.55 67.4 228.65 67.9 233.85 68.45 247.95 70.05 252.35 70.4 252.6 70.4 252.75 70.45
M 247.1 51.95
Q 249.95 52 252.75 52.1
L 252.75 49.7
Q 251.3 49.7 249.85 49.65 248.45 50.8 247.1 51.95
M 252.75 53.55
Q 249.1 53.4 245.4 53.35 241.75 56.2 238 58.8 239.3 59 240.65 59.2
L 252.75 60.8 252.75 53.55
M 252.75 48.05
L 252.75 47
Q 252.25 47.5 251.7 48
L 252.75 48.05 Z"/>

<path fill="#EC8F27" stroke="none" d="
M 250.55 16.85
Q 251.05 17.45 251.5 18.15 252.2 19.3 252.75 20.5 252.75 19.25 252.7 18.1 252.65 17.3 252.55 16.6 250.7 2.55 234.85 2.55
L 20.2 2.55
Q 15.75 2.55 12.4 3.7 3.05 6.8 2.35 18.55 2.25 19.45 2.25 20.5 2.7 19.45 3.25 18.5 6.4 12.8 12.4 10.35 16 8.8 20.65 8.45
L 234.75 8.45
Q 245.15 9.4 250.55 16.85 Z"/>
</g>
</defs>

<g transform="matrix( 1, 0, 0, 1, 0,0) ">
<use xlink:href="#Layer0_0_FILL"/>
</g>
</svg>
