
<svg xmlns="http://www.w3.org/2000/svg" version="1.1" xmlns:xlink="http://www.w3.org/1999/xlink" preserveAspectRatio="none" x="0px" y="0px" width="335px" height="525px" viewBox="0 0 335 525">
<defs>
<g id="_________________0_Layer0_0_FILL">
<path fill="#4B1B09" stroke="none" d="
M 23.7 122.15
Q 24.6 122.05 25.5 122 26.75 114.65 22.6 110.7 24.95 116.5 23.7 122.15
M 35.35 120
Q 35.25 114.5 30.65 110.15 30.65 110.2 30.7 110.25 33.1 115.3 32.9 120.7 34.15 120.4 35.35 120 Z"/>

<path fill="#A13F15" stroke="none" d="
M 25.5 122
Q 29.3 121.6 32.9 120.7 33.1 115.3 30.7 110.25 27.2 107.9 18.6 107.9 12.35 107.9 10.2 110.9 8.6 113.15 7.4 120.8 8.05 120.95 8.8 121.05 16.6 122.55 23.7 122.15 24.95 116.5 22.6 110.7 26.75 114.65 25.5 122 Z"/>

<path fill="#893212" stroke="none" d="
M 30.65 110.15
Q 35.25 114.5 35.35 120 38.55 119 41.55 117.55 48.95 113.9 38.6 101.1 20.75 99.9 5.1 94.35
L 1.2 105.65
Q -2.95 118.25 7.4 120.8 8.6 113.15 10.2 110.9 12.35 107.9 18.6 107.9 27.2 107.9 30.7 110.25 30.65 110.2 30.65 110.15 Z"/>

<path fill="#C64808" stroke="none" d="
M 16.45 61.4
L 5.1 94.35
Q 20.75 99.9 38.6 101.1 50.05 87.2 56.35 69.85 47.8 69.25 39.45 67.7 27.7 65.5 16.45 61.4 Z"/>

<path fill="#272C33" stroke="none" d="
M 19.75 51.75
L 19.4 52.75
Q 29.35 55.75 39.7 57.45 53.85 59.75 68.75 59.55 68.95 59.05 69.1 58.6 53.95 58.65 39.8 56.4 29.5 54.7 19.75 51.75 Z"/>

<path fill="#5D6E7B" stroke="none" d="
M 39.35 63.4
Q 39.35 60.7 39.7 57.45 29.35 55.75 19.4 52.75
L 16.45 61.4
Q 27.7 65.5 39.45 67.7
L 39.35 63.4 Z"/>

<path fill="#6C7C84" stroke="none" d="
M 39.7 57.45
Q 39.35 60.7 39.35 63.4
L 39.45 67.7
Q 47.8 69.25 56.35 69.85 65 70.85 65.8 66.45 67.35 63 68.75 59.55 53.85 59.75 39.7 57.45 Z"/>

<path fill="#444E5A" stroke="none" d="
M 41.45 49.2
Q 42.15 48.25 46.1 46.25 51.15 43.7 52.65 42.7
L 52.35 42.8
Q 51 43.2 49.7 43.25 48.9 43.3 44.75 43.3 38 43.3 32.1 42.7 26.7 42.15 23.35 41.25
L 19.75 51.75
Q 29.5 54.7 39.8 56.4 39.85 55.95 39.9 55.5 40.55 50.35 41.45 49.2 Z"/>

<path fill="#516173" stroke="none" d="
M 46.1 46.25
Q 42.15 48.25 41.45 49.2 40.55 50.35 39.9 55.5 39.85 55.95 39.8 56.4 53.95 58.65 69.1 58.6 79.75 31.05 78.95 0
L 31.95 2.2 25.3 35.6 23.35 41.25
Q 26.7 42.15 32.1 42.7 38 43.3 44.75 43.3 48.9 43.3 49.7 43.25 51 43.2 52.35 42.8
L 52.65 42.7
Q 51.15 43.7 46.1 46.25 Z"/>
</g>

<g id="___________0_Layer0_0_FILL">
<path fill="#7A3B1B" stroke="none" d="
M 28.35 7.05
Q 26.75 4.4 23.45 2.95 5 -2.65 1.7 2.45 -1.75 9.9 1.9 15.85 1.85 15.9 1.85 15.95 5.95 21.2 10.25 15.95 11.85 12.1 15.25 12.2 15.6 12.2 15.9 12.25 20.3 12.55 19.4 17.15
L 3.1 113.85
Q 1.85 120.5 6.15 121.45 9.75 122.35 11.35 118.65 3.45 117.75 8.4 97.1
L 21.85 19.8
Q 24.05 9.45 19.8 8.3 23.7 5.55 28.35 7.05 Z"/>

<path fill="#904F23" stroke="none" d="
M 29.55 10.3
Q 29.2 8.45 28.35 7.05 23.7 5.55 19.8 8.3 24.05 9.45 21.85 19.8
L 8.4 97.1
Q 3.45 117.75 11.35 118.65 24.7 19.9 29.55 10.3 Z"/>

<path fill="#D07232" stroke="none" d="
M 29.6 15.2
Q 29.95 12.45 29.55 10.3 24.7 19.9 11.35 118.65 12.05 117.05 12.35 114.6
L 29.6 15.2 Z"/>
</g>

<g id="_________________0_Layer1_0_FILL">
<path fill="#F5590A" stroke="none" d="
M 41.25 67.65
Q 43.25 66.35 44.15 61.55 39.25 70 31.1 60.85 36.1 71.85 41.25 67.65
M 36.4 70.05
Q 34.3 69.05 32.8 66 28.05 66.5 24.3 59.4 28.95 73.3 36.4 70.05
M 27.65 69.6
Q 25.65 67.55 24.8 65.15 20.45 65.5 17.7 57.35 19.5 71.05 27.65 69.6
M 70.55 40
Q 69.85 37.55 68.45 35.25 68.8 37 68.9 38.55 69.8 53.8 44.8 50.15 45.2 52.25 45.35 54.35 58.3 55.75 65.6 52.5 67.8 51.5 69.5 50.1 72.45 44.85 70.55 40
M 45.45 28.9
Q 44 28.9 40.6 29.4 37.1 29.95 34.85 30.3 34.15 31.25 33.65 32.2 32.7 33.9 32.25 35.6 31.6 35.95 31 36.35 33.8 35.65 39.1 34.45 48.35 32.1 48.35 30.55 48.35 29.6 47.9 29.3 47.3 28.9 45.45 28.9 Z"/>

<path fill="#BE4505" stroke="none" d="
M 31.1 60.85
Q 30.95 60.55 30.8 60.25 31.65 63.7 32.8 66 34.3 69.05 36.4 70.05 28.95 73.3 24.3 59.4 23.85 62.5 24.8 65.15 25.65 67.55 27.65 69.6 19.5 71.05 17.7 57.35 17.65 56.95 17.65 56.6 17.4 59.8 17.95 63.35 19.3 71.75 29.2 71 34.4 73.5 37.6 70.45 37.8 70.5 38.05 70.5 42.3 70.4 43.75 66.35 43.9 65.9 44 65.5 45.65 59.85 45.35 54.35 45.2 52.25 44.8 50.15 44.9 57.25 44.15 61.55 43.25 66.35 41.25 67.65 36.1 71.85 31.1 60.85 Z"/>

<path fill="#E2D5D3" stroke="none" d="
M 24.85 9.3
Q 27.5 8.15 28.75 6.7 18.9 2.15 7.95 0
L 2.95 0
Q -2.95 10.75 2.95 23.85 11.7 38.2 25.6 40.25 27.95 38.15 31 36.35 31.6 35.95 32.25 35.6 32.7 33.9 33.65 32.2 32.5 31.65 30.9 30.65 27.35 28.4 26.4 26.7 24.2 22.9 22.75 20.15 19.95 15 19.95 13.35 19.95 11.45 24.85 9.3 Z"/>

<path fill="#FE7A11" stroke="none" d="
M 40.6 29.4
Q 44 28.9 45.45 28.9 47.3 28.9 47.9 29.3 48.35 29.6 48.35 30.55 48.35 32.1 39.1 34.45 33.8 35.65 31 36.35 27.95 38.15 25.6 40.25 18.25 46.9 17.65 56.6 17.65 56.95 17.7 57.35 20.45 65.5 24.8 65.15 23.85 62.5 24.3 59.4 28.05 66.5 32.8 66 31.65 63.7 30.8 60.25 30.95 60.55 31.1 60.85 39.25 70 44.15 61.55 44.9 57.25 44.8 50.15 69.8 53.8 68.9 38.55 61.65 28.55 46.95 20.25 38.55 25.2 34.85 30.3 37.1 29.95 40.6 29.4 Z"/>

<path fill="#FFA660" stroke="none" d="
M 49.5 21.3
Q 48.25 20.75 46.95 20.25 61.65 28.55 68.9 38.55 68.8 37 68.45 35.25 63.45 27.25 49.5 21.3 Z"/>

<path fill="#FEFDFE" stroke="none" d="
M 46.95 20.25
L 48.65 18.95
Q 39.3 11.5 28.75 6.7 27.5 8.15 24.85 9.3 19.95 11.45 19.95 13.35 19.95 15 22.75 20.15 24.2 22.9 26.4 26.7 27.35 28.4 30.9 30.65 32.5 31.65 33.65 32.2 34.15 31.25 34.85 30.3 38.55 25.2 46.95 20.25 Z"/>
</g>

<g id="_________________0_Layer0_0_FILL_FL">
<path fill="#C89E00" stroke="none" d="
M 50.65 55.5
L 50.65 54.5 49.5 54.55 49.5 55.35
Q 50.1 55.4 50.65 55.5
M 50.7 53.75
L 50.7 53.5
Q 50.3 53.6 49.9 53.75 50.3 53.8 50.7 53.75
M 34.85 34.2
Q 36.4 35.3 37.75 36.65
L 38.8 35.55
Q 37.45 34.25 35.8 33.2
L 34.85 34.2
M 40.75 38.3
Q 40.9 38.2 41.1 38.1 40.5 37.35 39.95 36.7 39.65 36.4 39.35 36.05
L 38.25 37.2
Q 39.2 38.2 40 39.3 40.35 38.75 40.75 38.3 Z"/>

<path fill="#F6DA00" stroke="none" d="
M 57.75 52.75
L 58 55.4
Q 58.2 55.4 58.45 55.35 58.5 53.85 58.3 52.5 58 52.6 57.75 52.75
M 47.9 35.3
Q 45.2 35.55 43.1 37.1 44.8 36.15 47.15 36.15 50.6 36.25 53.4 38.65 56.1 41.25 56.45 44.65 56.55 45.65 56.5 46.6 56.25 48.45 55.15 49.95 55.5 49.55 55.8 49.1 55.8 49 55.85 48.95
L 55.9 48.75
Q 56 48.65 56.05 48.55
L 56.1 48.55 57.45 52.05 57.5 52.05
Q 57.85 51.85 58.15 51.7 58.1 51.45 58.05 51.25 57.6 49.3 56.55 47.55 57.15 45.85 57.15 43.9 57.1 41.65 56.15 39.85 55.9 39.35 55.55 38.85 54.95 38.1 54.25 37.4 54.25 37.35 54.25 37.3 53.9 37.1 53.6 36.75 51.1 35.05 47.9 35.3
M 47.3 34.2
Q 46.65 33.4 45.85 32.65 45.15 32.85 44.5 33.05
L 46.45 34.15
Q 46.9 34.15 47.3 34.2
M 43.8 32.6
Q 44.55 32.4 45.3 32.15 43.85 30.85 42.05 29.75 41.05 30.15 40.15 30.55
L 43.8 32.6 Z"/>

<path fill="#F7C300" stroke="none" d="
M 57.75 52.75
L 57.7 52.75
Q 54.35 54.25 50.65 54.5
L 50.65 55.5
Q 54.4 55.85 58 55.4
L 57.75 52.75
M 35.8 33.2
Q 37.45 34.25 38.8 35.55 41 33.75 43.8 32.6
L 40.15 30.55
Q 37.75 31.6 35.8 33.2
M 55.85 48.95
Q 55.8 49 55.8 49.1 55.5 49.55 55.15 49.95 54.9 50.35 54.55 50.65
L 54.45 50.85
Q 52.8 52.6 50.75 53.45 50.7 53.45 50.7 53.5
L 50.7 53.75
Q 54.45 53.5 57.45 52.05
L 56.1 48.55 56.05 48.55
Q 56 48.65 55.9 48.75
L 55.85 48.95
M 46.45 34.15
L 44.5 33.05
Q 41.45 34.1 39.35 36.05 39.65 36.4 39.95 36.7 42.65 34.45 46.45 34.15
M 47.15 36.15
Q 44.8 36.15 43.1 37.1 42.15 37.7 41.3 38.55 40.1 39.95 39.65 41.6 39 43.2 39 45.05 39 48.75 41.65 51.2 44.35 53.6 48.05 53.25 48.7 53.2 49.3 53.05 52.2 52.45 54.35 50.15 55.85 48.45 56.5 46.6 56.55 45.65 56.45 44.65 56.1 41.25 53.4 38.65 50.6 36.25 47.15 36.15
M 43.15 40.2
Q 43.3 40.05 43.45 39.9 45.4 38.05 47.9 37.85 50.6 37.6 52.65 39.45 54.65 41.25 54.7 44.05 54.7 46.65 53.05 48.65 52.9 48.85 52.7 49 50.8 51.15 48 51.35 45.25 51.6 43.2 49.8 41.2 47.95 41.2 45.15 41.15 42.35 43.15 40.2 Z"/>

<path fill="#D9F3FC" stroke="none" d="
M 43.45 39.9
Q 41.8 41.85 41.85 44.4 41.9 47.25 43.85 49.1 45.9 50.9 48.65 50.65 51.2 50.4 53.05 48.65 54.7 46.65 54.7 44.05 54.65 41.25 52.65 39.45 50.6 37.6 47.9 37.85 45.4 38.05 43.45 39.9
M 48.7 45.5
L 44.5 44.85 48.7 45.5 49.2 41.45 48.7 45.5 Z"/>

<path fill="#C1D8E0" stroke="none" d="
M 43.45 39.9
Q 43.3 40.05 43.15 40.2 41.15 42.35 41.2 45.15 41.2 47.95 43.2 49.8 45.25 51.6 48 51.35 50.8 51.15 52.7 49 52.9 48.85 53.05 48.65 51.2 50.4 48.65 50.65 45.9 50.9 43.85 49.1 41.9 47.25 41.85 44.4 41.8 41.85 43.45 39.9 Z"/>

<path fill="#A78002" stroke="none" d="
M 47.95 35.05
Q 47.7 34.95 47.45 35.05 43.7 35.3 41.1 38.1 40.9 38.2 40.75 38.3 40.35 38.75 40 39.3 38.05 41.9 38.1 45.2 38.2 49.2 41 51.8 43.75 54.3 47.5 54.1 47.6 54.1 47.75 54.1 48.05 54.05 48.35 54.05 48.95 54 49.5 53.85
L 49.5 54.55 50.65 54.5
Q 54.35 54.25 57.7 52.75
L 57.75 52.75
Q 58 52.6 58.3 52.5 58.25 52.1 58.15 51.7 57.85 51.85 57.5 52.05
L 57.45 52.05
Q 54.45 53.5 50.7 53.75 50.3 53.8 49.9 53.75 50.3 53.6 50.7 53.5 50.7 53.45 50.75 53.45 52.8 52.6 54.45 50.85
L 54.55 50.65
Q 54.9 50.35 55.15 49.95 56.25 48.45 56.5 46.6 55.85 48.45 54.35 50.15 52.2 52.45 49.3 53.05 48.7 53.2 48.05 53.25 44.35 53.6 41.65 51.2 39 48.75 39 45.05 39 43.2 39.65 41.6 40.1 39.95 41.3 38.55 42.15 37.7 43.1 37.1 45.2 35.55 47.9 35.3 51.1 35.05 53.6 36.75 51.1 34.95 47.95 35.05
M 45.3 32.15
Q 44.55 32.4 43.8 32.6 41 33.75 38.8 35.55
L 37.75 36.65
Q 38 36.95 38.25 37.2
L 39.35 36.05
Q 41.45 34.1 44.5 33.05 45.15 32.85 45.85 32.65 45.6 32.4 45.3 32.15 Z"/>

<path fill="#E0B100" stroke="none" d="
M 47.3 34.2
Q 46.9 34.15 46.45 34.15 42.65 34.45 39.95 36.7 40.5 37.35 41.1 38.1 43.7 35.3 47.45 35.05 47.7 34.95 47.95 35.05 47.65 34.6 47.3 34.2 Z"/>
</g>

<g id="_____________0_Layer0_0_FILL">
<path fill="#516173" stroke="none" d="
M 35.55 85.3
Q 34 81.05 34.05 79.15 24.45 77.6 24.1 82.3 24.1 82.5 24.1 82.7 23.65 103.65 32.35 111.75 40.6 112.95 48.5 113.45 62 111.55 66.25 81.75
L 49.05 80.9
Q 48.1 84.15 46.9 86 44.8 89.15 41.35 89.15 37.2 89.15 35.55 85.3
M 38.25 34.3
Q 35.25 33.5 31.95 33.3 36.1 51.45 35.35 70.85
L 35.35 77.85 35.35 80.75
Q 35.6 82.2 36 83.3 36.9 83.3 37.6 83.35 36.6 82 36.6 80.2 36.6 78.1 37.9 76.65 39.2 75.2 41.05 75.2 42.35 75.2 43.45 76
L 43.4 74.8
Q 45.9 52.15 40.6 35.1 38.65 34.4 38.25 34.3
M 78.7 82.05
L 67.5 81.8
Q 66.6 99.05 60.4 108.1
L 66.75 110.35
Q 77.8 102.5 78.7 82.05
M 70.1 94.1
Q 69.25 92.65 69.55 90.6 69.9 88.55 71.15 87.1 72.45 85.65 73.95 85.65 75.5 85.65 76.35 87.1 77.2 88.55 76.85 90.6 76.55 92.65 75.3 94.1 74.05 95.55 72.5 95.55 71 95.55 70.1 94.1
M 92.95 85.15
Q 92.2 83.1 92.15 80.95
L 80.6 82.1
Q 81.3 100.8 68.65 111.65
L 80.35 112.25
Q 89.4 110.85 97.95 108.35
L 98.9 89.2
Q 98.45 89.25 97.95 89.25 94.45 89.25 92.95 85.15
M 93.15 34.45
Q 91.85 35 90.4 35.6 93.35 48.3 94.35 61.05 94.55 69.95 93.8 79 93.7 79.75 93.65 80.5 93.65 80.65 93.65 80.8 93.35 87.1 99 87.15 100.45 87.25 101.5 86.75 101.45 85.4 101.4 84 100.4 85 99.05 85 97.6 85 96.55 83.85 96.45 83.7 96.35 83.6 95.25 82.2 95.25 80.25 95.25 78.3 96.35 76.9 97.45 75.5 99.05 75.5 99.65 75.5 100.15 75.7 100.8 75.9 101.35 76.45 101.35 63.9 101.3 61.55 100.95 45.05 97.05 32.75 95.2 33.55 93.15 34.45 Z"/>

<path fill="#E55D03" stroke="none" d="
M 38.1 83.4
Q 37.85 83.35 37.6 83.35 37.75 83.55 37.9 83.75 39.2 85.2 41.05 85.2 42.85 85.2 44.15 83.75 45.5 82.25 45.5 80.2 45.5 78.1 44.15 76.65 43.8 76.25 43.45 76
L 43.45 77.9
Q 43.45 81.4 42.4 82.45 41.45 83.35 38.35 83.4 38.25 83.4 38.1 83.4
M 99.5 83.65
Q 99.35 83.7 96.55 83.85 97.6 85 99.05 85 100.4 85 101.4 84 101.6 83.8 101.75 83.6 102.9 82.2 102.9 80.25 102.9 78.3 101.75 76.9 101.55 76.65 101.35 76.45 100.8 75.9 100.15 75.7
L 100.5 81.8
Q 100.5 83.4 99.5 83.65 Z"/>

<path fill="#444E5A" stroke="none" d="
M 34.05 79.15
L 34.05 77.75
Q 29.95 77.4 25.9 76.95 25.15 76.85 24.4 76.75 12.5 75.25 1.35 72.45 -4.35 104.6 14.15 108.25 23.45 110.45 32.35 111.75 23.65 103.65 24.1 82.7 24.1 82.5 24.1 82.3 24.45 77.6 34.05 79.15
M 31.35 30.95
Q 31.65 32.1 31.95 33.3 35.25 33.5 38.25 34.3 38.65 34.4 40.6 35.1 45.9 52.15 43.4 74.8
L 43.45 76
Q 43.8 76.25 44.15 76.65 45.5 78.1 45.5 80.2 45.5 82.25 44.15 83.75 42.85 85.2 41.05 85.2 39.2 85.2 37.9 83.75 37.75 83.55 37.6 83.35 36.9 83.3 36 83.3 37.45 86.95 41.15 86.95 46.65 87.3 47.35 78.85 49.15 57.9 44.9 36.55 43 27.2 40 17.8 33.65 18.7 28.2 20.2 30 25.5 31.35 30.95
M 106.25 77.8
Q 105.8 82.95 104.25 85.65 103.2 87.5 101.55 88.4 100.35 89.05 98.9 89.2
L 97.95 108.35
Q 105.15 107.15 108.15 77.15 107.3 77.6 106.25 77.8
M 92.15 80.95
Q 92.1 80.1 92.2 79.2 86.3 79.8 80.45 80.1 79.6 80.1 78.75 80.15 73.15 80.4 67.55 80.3 67 80.25 66.45 80.25 61.85 80.15 57.25 79.8 53.35 79.55 49.5 79.1 49.3 80.05 49.05 80.9
L 66.25 81.75
Q 62 111.55 48.5 113.45 51.8 113.65 55.05 113.75 60.7 113.85 66.15 113.6 73.4 113.25 80.35 112.25
L 68.65 111.65
Q 81.3 100.8 80.6 82.1
L 92.15 80.95
M 67.5 81.8
L 78.7 82.05
Q 77.8 102.5 66.75 110.35
L 60.4 108.1
Q 66.6 99.05 67.5 81.8
M 69.55 90.6
Q 69.25 92.65 70.1 94.1 71 95.55 72.5 95.55 74.05 95.55 75.3 94.1 76.55 92.65 76.85 90.6 77.2 88.55 76.35 87.1 75.5 85.65 73.95 85.65 72.45 85.65 71.15 87.1 69.9 88.55 69.55 90.6
M 84.75 16.05
Q 84.85 16.3 84.9 16.55 87.95 25.35 90.1 34.2 90.25 34.9 90.4 35.6 91.85 35 93.15 34.45 95.2 33.55 97.05 32.75 100.95 45.05 101.3 61.55 101.35 63.9 101.35 76.45 101.55 76.65 101.75 76.9 102.9 78.3 102.9 80.25 102.9 82.2 101.75 83.6 101.6 83.8 101.4 84 101.45 85.4 101.5 86.75 103.8 85.55 103.95 81.25 104.1 79.6 104.25 77.95 104.95 67.8 104.35 57.05 103.9 43.65 100 31.5 97.7 24.35 94.2 17.65 89.7 16.3 84.75 16.05 Z"/>

<path fill="#272C33" stroke="none" d="
M 35.35 77.85
Q 34.7 77.8 34.05 77.75
L 34.05 79.15
Q 34 81.05 35.55 85.3 37.2 89.15 41.35 89.15 44.8 89.15 46.9 86 48.1 84.15 49.05 80.9 49.3 80.05 49.5 79.1 48.45 79 47.35 78.85 46.65 87.3 41.15 86.95 37.45 86.95 36 83.3 35.6 82.2 35.35 80.75
L 35.35 77.85
M 93.8 79
Q 93 79.1 92.2 79.2 92.1 80.1 92.15 80.95 92.2 83.1 92.95 85.15 94.45 89.25 97.95 89.25 98.45 89.25 98.9 89.2 100.35 89.05 101.55 88.4 103.2 87.5 104.25 85.65 105.8 82.95 106.25 77.8 105.3 77.95 104.25 77.95 104.1 79.6 103.95 81.25 103.8 85.55 101.5 86.75 100.45 87.25 99 87.15 93.35 87.1 93.65 80.8 93.65 80.65 93.65 80.5 93.7 79.75 93.8 79 Z"/>

<path fill="#FD7817" stroke="none" d="
M 37.9 76.65
Q 36.6 78.1 36.6 80.2 36.6 82 37.6 83.35 37.85 83.35 38.1 83.4 38.25 83.4 38.35 83.4 41.45 83.35 42.4 82.45 43.45 81.4 43.45 77.9
L 43.45 76
Q 42.35 75.2 41.05 75.2 39.2 75.2 37.9 76.65
M 100.15 75.7
Q 99.65 75.5 99.05 75.5 97.45 75.5 96.35 76.9 95.25 78.3 95.25 80.25 95.25 82.2 96.35 83.6 96.45 83.7 96.55 83.85 99.35 83.7 99.5 83.65 100.5 83.4 100.5 81.8
L 100.15 75.7 Z"/>

<path fill="#FEFDFE" stroke="none" d="
M 31.5 33.3
Q 30.75 33.25 29.95 33.25 23.95 33.25 22.75 37.05 22.35 38.35 22.35 47.45
L 22.35 49.65
Q 22.35 49.7 22.3 52.25 22.25 53.75 22.35 54.85 22.55 57.75 23.35 65.05 23.85 69.25 25.05 73.75 25.55 75.6 25.9 76.95 29.95 77.4 34.05 77.75 35.5 55.5 31.5 33.3
M 84.7 70.4
Q 84.9537109375 70.4 85.15 70.4 85.15 70.2 85.05 70.25 84.85625 70.3953125 84.7 70.4
M 91.1 41.8
Q 90.15 36.7 85.25 38.9 71.05 45.7 47.25 37.35 48.55 45.7 49.15 54.15 51.65 56.85 58.2 59.45 66.4 62.65 72.05 62
L 72.05 62.15
Q 66.05 63.15 63.8 63.15 58.95 63.15 54.35 61.75 51.4 60.85 49.5 59.75 49.6 61.75 49.65 63.8 50.15 64.35 51.1 65.4 52.9 67.25 54.55 67.95 54.95 68.1 59.4 68.8 63.85 69.5 64.3 69.5 59.05 69.6 57.4 69.95 54.4 70.5 54.4 72.45 54.4 74.3 61.55 75.4 65.2 75.95 72.5 76.7 67.45 76.3 62.95 77.45 59.7 78.3 57.25 79.8 61.85 80.15 66.45 80.25 67 80.25 67.55 80.3 73.15 80.4 78.75 80.15 79.6 80.1 80.45 80.1 86.3 79.8 92.2 79.2 92.6 74.15 92.7 69.15 91.2 69.6 90.25 69.8 88 70.35 85.15 70.4 85.15 70.5 82.65 70.45 79.7 70.4 76.9 70.05 74.1 69.7 73.45 69.55 72.5 69.4 72.35 68.9 80.8 68.15 85.15 65.8 89.1 63.65 92.6 58.45 92.25 50.05 91.1 41.8 Z"/>

<path fill="#E2D5D3" stroke="none" d="
M 29.95 33.25
Q 30.75 33.25 31.5 33.3 35.5 55.5 34.05 77.75 34.7 77.8 35.35 77.85
L 35.35 70.85
Q 36.1 51.45 31.95 33.3 31.65 32.1 31.35 30.95 30 25.5 28.2 20.2 19.9 22.45 13.75 26.05 0.9 38.2 1.35 72.45 12.5 75.25 24.4 76.75 25.15 76.85 25.9 76.95 25.55 75.6 25.05 73.75 23.85 69.25 23.35 65.05 22.55 57.75 22.35 54.85 22.25 53.75 22.3 52.25 22.35 49.7 22.35 49.65
L 22.35 47.45
Q 22.35 38.35 22.75 37.05 23.95 33.25 29.95 33.25
M 108.4 28.15
Q 107.15 24.8 105.35 23.05 100.2 19.4 94.2 17.65 97.7 24.35 100 31.5 103.9 43.65 104.35 57.05 104.95 67.8 104.25 77.95 105.3 77.95 106.25 77.8 107.3 77.6 108.15 77.15 112.95 40.95 108.4 28.15
M 90.4 35.6
Q 90.25 34.9 90.1 34.2 87.95 25.35 84.9 16.55 87.2 23.8 85.45 31.05 83.4 36.45 76.55 39.65 67.8 41.1 59.05 38.15 51 35.35 49 30.05 47.75 23.8 49 16.8 44.3 17.15 40 17.8 43 27.2 44.9 36.55 49.15 57.9 47.35 78.85 48.45 79 49.5 79.1 53.35 79.55 57.25 79.8 59.7 78.3 62.95 77.45 67.45 76.3 72.5 76.7 65.2 75.95 61.55 75.4 54.4 74.3 54.4 72.45 54.4 70.5 57.4 69.95 59.05 69.6 64.3 69.5 63.85 69.5 59.4 68.8 54.95 68.1 54.55 67.95 52.9 67.25 51.1 65.4 50.15 64.35 49.65 63.8 49.6 61.75 49.5 59.75 51.4 60.85 54.35 61.75 58.95 63.15 63.8 63.15 66.05 63.15 72.05 62.15
L 72.05 62
Q 66.4 62.65 58.2 59.45 51.65 56.85 49.15 54.15 48.55 45.7 47.25 37.35 71.05 45.7 85.25 38.9 90.15 36.7 91.1 41.8 92.25 50.05 92.6 58.45 89.1 63.65 85.15 65.8 80.8 68.15 72.35 68.9 72.5 69.4 73.45 69.55 74.1 69.7 76.9 70.05 79.7 70.4 82.65 70.45 85.15 70.5 85.15 70.4 84.9537109375 70.4 84.7 70.4 84.85625 70.3953125 85.05 70.25 85.15 70.2 85.15 70.4 88 70.35 90.25 69.8 91.2 69.6 92.7 69.15 92.6 74.15 92.2 79.2 93 79.1 93.8 79 94.55 69.95 94.35 61.05 93.35 48.3 90.4 35.6
M 84.15 16.55
Q 84.1 16.3 84 16 83.15 15.95 82.3 16 83.5 20.95 83.75 27.45 82 39.3 68.35 38.45 55.3 36.85 50.95 29.45 50.25 22.2 50.6 16.7 50.25 16.7 49.95 16.75 48.75 23.6 49.95 29.65 51.85 34.75 59.5 37.5 67.85 40.35 76.2 38.95 82.7 35.85 84.7 30.6 86.35 23.6 84.15 16.55 Z"/>

<path fill="#DA490D" stroke="none" d="
M 83.75 27.45
Q 83.5 20.95 82.3 16 78.3 -0.4 63.55 0.05 51.65 -0.7 50.6 16.7 50.25 22.2 50.95 29.45 55.3 36.85 68.35 38.45 82 39.3 83.75 27.45 Z"/>

<path fill="#544A48" stroke="none" d="
M 84 16
Q 84.1 16.3 84.15 16.55 86.35 23.6 84.7 30.6 82.7 35.85 76.2 38.95 67.85 40.35 59.5 37.5 51.85 34.75 49.95 29.65 48.75 23.6 49.95 16.75 49.45 16.75 49 16.8 47.75 23.8 49 30.05 51 35.35 59.05 38.15 67.8 41.1 76.55 39.65 83.4 36.45 85.45 31.05 87.2 23.8 84.9 16.55 84.85 16.3 84.75 16.05 84.4 16.05 84 16 Z"/>
</g>

<g id="_____________0_Layer0_0_FILL_FL">
<path fill="#CCCCCC" stroke="none" d="
M 16.1 23
L 15.95 22.6 16.95 26
Q 17.6 27.55 17.9 29.4 21 29.6 23.1 31.9 22.55 32.75 21.8 33.6 21.6 33.8 21.35 34.05 21 34.35 20.6 34.65 20.25 34.95 19.8 35.25 19.45 35.45 19 35.7 18.75 35.85 18.5 35.95 18.55 36.35 18.55 36.5 18.7 37.9 18.8 39.1 18.8 39.6 18.85 40.1 18.85 39.6 18.9 39.05 18.9 37.8 18.9 36.45 18.9 36.3 18.9 36.2 19.2 36 19.55 35.8 19.9 35.55 20.3 35.3 20.7 35.05 21.1 34.7 21.45 34.4 21.75 34.05 22.05 33.8 22.25 33.55 22.9 32.75 23.45 31.85 21.35 29.55 18.25 29.15 17.9 27.65 17.4 26.4
L 16.1 23
M 12.9 1.55
Q 14.75 4 15.45 7.85 18.5 8.05 20.65 10.3 20.1 11.2 19.3 12 19.1 12.2 18.9 12.45 18.5 12.8 18.15 13.1 17.75 13.4 17.3 13.65 17 13.9 16.55 14.1 16.25 14.3 16 14.4 16.05 14.8 16.1 14.95 16.2 16.3 16.3 17.5 16.35 18.05 16.35 18.55 16.4 18 16.4 17.5 16.4 16.25 16.45 14.9 16.4 14.75 16.4 14.6 16.75 14.45 17.05 14.25 17.45 14 17.8 13.75 18.25 13.45 18.6 13.15 18.95 12.85 19.3 12.5 19.55 12.25 19.8 11.95 20.45 11.15 21 10.25 18.85 8 15.75 7.6 14.9 3.9 12.9 1.55
M 11.35 28.75
Q 12.85 26.45 14.65 24.95 14.75 24.85 14.8 24.75 12.75 25.9 11.35 28.2 9 27.55 6.7 27.65 6 27.6 5.25 27.7 4.9 27.75 4.5 27.85 4.65 28.15 4.75 28.45 4.85 28.75 5 29 5.3 29.8 5.75 30.5 6.65 32 7.9 33.45 7.55 32.85 7.25 32.25 7.2 32.2 7.2 32.15 7.2 32.1 7.1 32.05 7 31.75 6.85 31.45 6.85 31.4 6.8 31.35 5.8 29.7 5.25 28.2 8.2 27.75 11.35 28.75
M 12.2 3.4
Q 12.25 3.3 12.3 3.15 10.25 4.35 8.9 6.65 6.5 6 4.25 6.05 3.5 6.05 2.75 6.15 2.4 6.2 2.05 6.25 2.15 6.55 2.25 6.9 2.4 7.2 2.55 7.45 2.85 8.2 3.3 8.95 4.2 10.4 5.45 11.85 5.05 11.25 4.75 10.7 4.7 10.6 4.7 10.55 4.7 10.5 4.65 10.45 4.5 10.15 4.35 9.9 4.35 9.85 4.3 9.75 3.35 8.15 2.8 6.65 5.75 6.2 8.85 7.2 10.4 4.9 12.2 3.4 Z"/>

<path fill="#171717" stroke="none" d="
M 14.55 23.15
L 14.45 21.55
Q 13.45 21.35 12.65 21 12.45 20.9 12.25 20.85 12.05 20.75 11.9 20.65 13.1 23.05 12 25.5
L 12.55 24.8
Q 13.45 23.85 14.55 23.15
M 6.5 0
L 5.85 4.9
Q 7.15 5.1 8.4 5.45 8.65 5 8.95 4.55
L 8.95 0 6.5 0 Z"/>

<path fill="#333333" stroke="none" d="
M 12.9 1.55
Q 12.8 1.4 12.65 1.25
L 12.6 1.2
Q 12.5 1.25 12.4 1.4 11.1 2.1 10.05 3.2
L 10.05 0.65 8.95 0 8.95 4.55
Q 8.65 5 8.4 5.45 7.15 5.1 5.85 4.9 3.5 4.55 1.1 4.85 0.6 4.9 0 5 0.05 5.05 0.05 5.1 0.2 5.65 0.45 6.2 0.95 7.2 1.5 8.25 2.6 10.1 4.15 11.95 3.95 12.25 3.75 12.6 1.75 15.95 1.85 19.9 4.05 20.15 6 19.55 7.85 19.1 9.45 17.85
L 9.45 17.9
Q 10.25 19.65 11.9 20.65 12.05 20.75 12.25 20.85 12.45 20.9 12.65 21 13.45 21.35 14.45 21.55
L 14.55 23.15
Q 13.45 23.85 12.55 24.8
L 12 25.5 11.4 26.15
Q 11.15 26.55 10.85 27.05 9.65 26.65 8.35 26.5 5.95 26.15 3.55 26.4 3.05 26.45 2.45 26.6 2.5 26.65 2.55 26.7 2.7 27.25 2.9 27.75 3.4 28.8 4 29.85 5.1 31.7 6.65 33.5 6.45 33.8 6.25 34.2 4.2 37.55 4.3 41.5 6.55 41.7 8.5 41.1 10.3 40.65 11.95 39.45
L 11.95 39.5
Q 12.95 41.65 15.15 42.6 16.4 43.15 18.15 43.25 18.3 43.25 18.5 43.3
L 18.8 40.95
Q 18.85 40.5 18.85 40.1 18.8 39.6 18.8 39.1 18.7 37.9 18.55 36.5 18.55 36.35 18.5 35.95 18.75 35.85 19 35.7 19.45 35.45 19.8 35.25 20.25 34.95 20.6 34.65 21 34.35 21.35 34.05 21.6 33.8 21.8 33.6 22.55 32.75 23.1 31.9 21 29.6 17.9 29.4 17.6 27.55 16.95 26
L 15.95 22.6 16.1 23 16.05 21.7 16.35 18.55
Q 16.35 18.05 16.3 17.5 16.2 16.3 16.1 14.95 16.05 14.8 16 14.4 16.25 14.3 16.55 14.1 17 13.9 17.3 13.65 17.75 13.4 18.15 13.1 18.5 12.8 18.9 12.45 19.1 12.2 19.3 12 20.1 11.2 20.65 10.3 18.5 8.05 15.45 7.85 14.75 4 12.9 1.55
M 12.35 3.15
Q 13.2 4.1 13.85 5.4 14.5 6.75 14.9 8.4 17.45 8.7 19.15 10.6 18.95 10.9 18.7 11.25 18.65 11.35 18.5 11.5 18.35 11.8 18.1 12.05 17.8 12.4 17.45 12.65 16.8 13.3 15.95 13.8 15.7 13.95 15.45 14.1 15.45 15.75 15.35 17.05 15.2 18.8 14.9 20.1 13.6 20 12.55 19.5 12.45 19.45 12.35 19.4 10.55 18.45 9.75 16.3 7.1 18.65 3.75 18.45 3.65 18.45 3.55 18.4 3.45 15.55 4.75 13 4.9 12.75 5.05 12.5 5.2 12.2 5.45 11.9
L 5.45 11.85
Q 4.2 10.4 3.3 8.95 2.85 8.2 2.55 7.45 2.4 7.2 2.25 6.9 2.15 6.55 2.05 6.25 2.4 6.2 2.75 6.15 3.5 6.05 4.25 6.05 6.5 6 8.9 6.65 10.25 4.35 12.3 3.15
L 12.35 3.15
M 16.35 27
Q 16.95 28.3 17.35 29.95 19.9 30.25 21.6 32.15 21.4 32.45 21.2 32.8 21.1 32.95 21 33.05 20.8 33.35 20.6 33.6 20.25 33.95 19.9 34.25 19.25 34.85 18.4 35.4 18.2 35.5 17.9 35.65 17.9 37.3 17.8 38.6 17.7 40.4 17.35 41.7 16.05 41.6 15.05 41.05 14.95 41 14.8 40.95 13 40 12.25 37.85 9.6 40.25 6.2 40.05 6.1 40 6 40 5.95 37.1 7.25 34.55 7.35 34.3 7.55 34.1 7.7 33.75 7.9 33.45 6.65 32 5.75 30.5 5.3 29.8 5 29 4.85 28.75 4.75 28.45 4.65 28.15 4.5 27.85 4.9 27.75 5.25 27.7 6 27.6 6.7 27.65 9 27.55 11.35 28.2 12.75 25.9 14.8 24.75
L 14.85 24.75
Q 15.65 25.7 16.35 27 Z"/>

<path fill="#000000" stroke="none" d="
M 14.65 24.95
Q 12.85 26.45 11.35 28.75 8.2 27.75 5.25 28.2 5.8 29.7 6.8 31.35 6.85 31.4 6.85 31.45 7 31.75 7.1 32.05 7.2 32.1 7.2 32.15 7.2 32.2 7.25 32.25 7.55 32.85 7.9 33.45 7.7 33.75 7.55 34.1 7.35 34.3 7.25 34.55 5.95 37.1 6 40 6.1 40 6.2 40.05 9.6 40.25 12.25 37.85 13 40 14.8 40.95 13.95 39.45 13 38.15 11.75 36.5 11.55 36.25 11.05 35.4 10.95 34.65 10.7 32.45 13.35 29.65 14.55 28.3 16.35 27 15.65 25.7 14.85 24.75
L 14.8 24.75
Q 14.75 24.85 14.65 24.95
M 13.85 5.4
Q 13.2 4.1 12.35 3.15
L 12.3 3.15
Q 12.25 3.3 12.2 3.4 10.4 4.9 8.85 7.2 5.75 6.2 2.8 6.65 3.35 8.15 4.3 9.75 4.35 9.85 4.35 9.9 4.5 10.15 4.65 10.45 4.7 10.5 4.7 10.55 4.7 10.6 4.75 10.7 5.05 11.25 5.45 11.85
L 5.45 11.9
Q 5.2 12.2 5.05 12.5 4.9 12.75 4.75 13 3.45 15.55 3.55 18.4 3.65 18.45 3.75 18.45 7.1 18.65 9.75 16.3 10.55 18.45 12.35 19.4 11.5 17.9 10.5 16.55 9.3 14.9 9.1 14.65 8.6 13.8 8.5 13.05 8.2 10.9 10.9 8.1 12.1 6.75 13.85 5.4 Z"/>

<path fill="#666666" stroke="none" d="
M 17.35 29.95
Q 16.95 28.3 16.35 27 14.55 28.3 13.35 29.65 10.7 32.45 10.95 34.65 11.05 35.4 11.55 36.25 11.75 36.5 13 38.15 13.95 39.45 14.8 40.95 14.95 41 15.05 41.05 16.05 41.6 17.35 41.7 17.7 40.4 17.8 38.6 17.9 37.3 17.9 35.65 18.2 35.5 18.4 35.4 19.25 34.85 19.9 34.25 20.25 33.95 20.6 33.6 20.8 33.35 21 33.05 21.1 32.95 21.2 32.8 21.4 32.45 21.6 32.15 19.9 30.25 17.35 29.95
M 18.1 12.05
Q 18.35 11.8 18.5 11.5 18.65 11.35 18.7 11.25 18.95 10.9 19.15 10.6 17.45 8.7 14.9 8.4 14.5 6.75 13.85 5.4 12.1 6.75 10.9 8.1 8.2 10.9 8.5 13.05 8.6 13.8 9.1 14.65 9.3 14.9 10.5 16.55 11.5 17.9 12.35 19.4 12.45 19.45 12.55 19.5 13.6 20 14.9 20.1 15.2 18.8 15.35 17.05 15.45 15.75 15.45 14.1 15.7 13.95 15.95 13.8 16.8 13.3 17.45 12.65 17.8 12.4 18.1 12.05 Z"/>
</g>

<g id="________________0_Layer0_0_FILL">
<path fill="#561F0B" stroke="none" d="
M 62.95 81.95
Q 64.05 84.45 65.3 85.95 62.9 79.5 63.4 72.05
L 55.8 69.5
Q 58.85 71.3 62.15 72.95 62.25 78.4 62.95 81.95 Z"/>

<path fill="#893212" stroke="none" d="
M 68 68.7
Q 65.45 66.45 61.2 64.7 58.7 67.25 55.75 69.45
L 55.8 69.5 63.4 72.05
Q 62.9 79.5 65.3 85.95 67.95 89.15 71.3 87.95 69.6 86.1 69.05 82.3 72.75 90.7 79.9 87.7 79.25 87.25 78.7 86.55 72.05 87.05 71.9 83.35
L 71.9 77.1
Q 70.95 71.4 68 68.7 Z"/>

<path fill="#5D6E7B" stroke="none" d="
M 28.55 44.8
Q 30.4 44 32.25 43.2 29.2 39.85 26.4 35.9 20.95 38.3 16 39.65 18.35 43.5 21.05 47.5 24.85 46.3 28.55 44.8 Z"/>

<path fill="#444E5A" stroke="none" d="
M 11.6 1.3
L 0 0
Q 1.95 16.65 15.6 39.05 20.6 37.65 26 35.3 22.05 29.55 18.7 22.6 13.05 10.8 11.6 1.3 Z"/>

<path fill="#FE7B12" stroke="none" d="
M 60.05 33.25
Q 51.7 36.1 46.25 39.8 40.1 44 40.1 47.85 40.1 52.3 44.1 55.9 47.25 58.7 54.2 61.95 56.1 62.85 60.95 64.6 61.05 64.65 61.2 64.7 68.9 56.9 72.2 45.7 65.4 39.95 60.05 33.25 Z"/>

<path fill="#F5590A" stroke="none" d="
M 60.05 33.25
Q 58.05 30.75 56.3 28.15 44.6 37.55 32.25 43.2 30.4 44 28.55 44.8 38.4 59.2 55.75 69.45 58.7 67.25 61.2 64.7 61.05 64.65 60.95 64.6 56.1 62.85 54.2 61.95 47.25 58.7 44.1 55.9 40.1 52.3 40.1 47.85 40.1 44 46.25 39.8 51.7 36.1 60.05 33.25 Z"/>

<path fill="#6C7C84" stroke="none" d="
M 56.3 28.15
Q 57.4 27.2 58.55 26.25
L 54.4 18.8
Q 39 30.3 26.4 35.9 29.2 39.85 32.25 43.2 44.6 37.55 56.3 28.15 Z"/>

<path fill="#272C33" stroke="none" d="
M 54.4 18.8
L 54.1 18.3
Q 38.9 29.6 26 35.3 20.6 37.65 15.6 39.05 15.8 39.35 16 39.65 20.95 38.3 26.4 35.9 39 30.3 54.4 18.8 Z"/>

<path fill="#516173" stroke="none" d="
M 54.1 18.3
L 46.8 5.25 11.6 1.3
Q 13.05 10.8 18.7 22.6 22.05 29.55 26 35.3 38.9 29.6 54.1 18.3 Z"/>

<path fill="#CF511B" stroke="none" d="
M 90.15 65.8
Q 90.15 62.7 90.05 59.15 90.95 52.65 85.3 51.15 81.8 50.4 78.9 49.35 89.85 53.8 90.15 65.8 Z"/>

<path fill="#4B1B09" stroke="none" d="
M 86.45 86.8
Q 86.8 86.4 87.15 85.85 81.05 90.2 75.6 79.75 76.8 84.4 78.7 86.55 79.25 87.25 79.9 87.7 72.75 90.7 69.05 82.3 69.6 86.1 71.3 87.95 67.95 89.15 65.3 85.95 64.05 84.45 62.95 81.95 64 87.05 66.3 88.25 69.05 89.95 72.8 89.1 75.75 90.55 80.9 88.2 83.4 89.15 86.45 86.8 Z"/>

<path fill="#A13F15" stroke="none" d="
M 87.15 85.85
Q 89.9 81.15 90.15 67.1 90.15 66.65 90.15 66.2
L 90.15 65.8
Q 89.85 53.8 78.9 49.35 78.8 49.3 78.7 49.25 78.35 49.1 78 49 75.6 48 73.55 46.8 72.85 46.25 72.2 45.7 68.9 56.9 61.2 64.7 65.45 66.45 68 68.7 70.95 71.4 71.9 77.1
L 71.9 83.35
Q 72.05 87.05 78.7 86.55 76.8 84.4 75.6 79.75 81.05 90.2 87.15 85.85 Z"/>
</g>

<g id="________________0_Layer1_0_FILL">
<path fill="#272C33" stroke="none" d="
M 22.05 95.55
Q 22.85 95.8 23.7 96 34 93.05 43.95 74.65 42.7 75.2 41.75 75.3 33.75 90.95 22.05 95.55 Z"/>

<path fill="#FE7B12" stroke="none" d="
M 22.45 91.3
Q 28.5 93.65 39.45 74.65 30.6 64.25 33.55 49.65 14.3 41.25 11.3 46.8 1.6 84.35 22.45 91.3
M 13.8 60.6
L 14.05 61.05
Q 14.25 61.45 14.15 62.3
L 14 63.35 13.85 63.85 13.6 64.4 13.2 65 12.65 65.45
Q 12.05 65.7 11.35 65.6 10.9 65.6 10.4 65.35 9.6 64.8 9.7 63.7 9.7 63.15 9.85 62.7
L 10.7 60.8 11.2 60.1
Q 11.55 59.75 11.9 59.7
L 12.95 59.55
Q 13.6 59.45 13.7 60.1
L 13.8 60.6
M 19.9 65.75
L 19.95 66.75
Q 19.95 67.9 19.65 68.4 19.5 68.8 19.05 68.95 18.65 69.2 18.2 69.1 17.7 69.1 17.35 68.9 17 68.75 16.8 68.3 16.7 68.05 16.7 67.55
L 16.7 66.1
Q 16.7 65.55 16.85 65.3
L 17.6 64.55
Q 17.8 64.4 18.3 64.4 18.8 64.4 19.05 64.5 19.4 64.65 19.65 65.15
L 19.9 65.75 Z"/>

<path fill="#FD8E0C" stroke="none" d="
M 19.95 66.75
L 19.9 65.75 19.65 65.15
Q 19.4 64.65 19.05 64.5 18.8 64.4 18.3 64.4 17.8 64.4 17.6 64.55
L 16.85 65.3
Q 16.7 65.55 16.7 66.1
L 16.7 67.55
Q 16.7 68.05 16.8 68.3 17 68.75 17.35 68.9 17.7 69.1 18.2 69.1 18.65 69.2 19.05 68.95 19.5 68.8 19.65 68.4 19.95 67.9 19.95 66.75
M 14.05 61.05
L 13.8 60.6 13.7 60.1
Q 13.6 59.45 12.95 59.55
L 11.9 59.7
Q 11.55 59.75 11.2 60.1
L 10.7 60.8 9.85 62.7
Q 9.7 63.15 9.7 63.7 9.6 64.8 10.4 65.35 10.9 65.6 11.35 65.6 12.05 65.7 12.65 65.45
L 13.2 65 13.6 64.4 13.85 63.85 14 63.35 14.15 62.3
Q 14.25 61.45 14.05 61.05 Z"/>

<path fill="#E2D5D3" stroke="none" d="
M 36.2 42.1
Q 34.2 43.4 31.15 44.1 32.9 44.7 34.65 45.35 35.95 45.85 37.2 46.35 39.05 41.35 40.35 36.25 39.55 37.35 38.4 39.3 37.1 41.5 36.2 42.1
M 43.25 16.3
Q 43.6 8 42.6 0 12.7 10 0.95 38 2.75 38.15 4.55 38.35 11.05 39.05 17.3 40.35 16.05 39.35 15 38.15 12.05 34.75 12.05 32.1 12.05 27.4 18.2 21.55 24.65 15.45 30.9 15.45 33 15.45 36.95 15.9 40.4 16.25 43.25 16.3 Z"/>

<path fill="#F5590A" stroke="none" d="
M 17.3 40.35
Q 11.05 39.05 4.55 38.35 -10 86 22.05 95.55 33.75 90.95 41.75 75.3 40.3 75.45 39.45 74.65 28.5 93.65 22.45 91.3 1.6 84.35 11.3 46.8 14.3 41.25 33.55 49.65 34 47.55 34.65 45.35 32.9 44.7 31.15 44.1 24.4 41.8 17.3 40.35 Z"/>

<path fill="#FEFDFE" stroke="none" d="
M 42.3 26.25
Q 43 21.2 43.25 16.3 40.4 16.25 36.95 15.9 33 15.45 30.9 15.45 24.65 15.45 18.2 21.55 12.05 27.4 12.05 32.1 12.05 34.75 15 38.15 16.05 39.35 17.3 40.35 24.4 41.8 31.15 44.1 34.2 43.4 36.2 42.1 37.1 41.5 38.4 39.3 39.55 37.35 40.35 36.25 41.6 31.3 42.3 26.25 Z"/>
</g>

<g id="____mc__________________________0_Layer8_0_FILL">
<path fill="#FC8E0C" stroke="none" d="
M -33.65 66.1
Q -33.9 66.25 -34.3 66.75 -34.6 67.15 -35.15 68.35
L -35.8 69.95 -35.85 70.05 -36 71.6
Q -36.1 72.6 -35.5 73.1 -35.45 73.15 -34.8 73.4
L -34.05 73.5
Q -33.3 73.6 -32.65 72.85 -32.15 72.35 -31.9 71.5 -31.7 70.9 -31.6 70.5 -31.55 70.2 -31.55 70
L -31.5 68.3
Q -31.5 67.35 -31.65 66.95 -31.9 66.05 -32.75 65.9 -33.1 65.85 -33.65 66.1
M -63.55 54.7
Q -63.7 54.15 -64.15 53.85 -64.4 53.7 -65.05 53.6 -65.5 53.6 -65.95 53.75 -66.5 54.25 -66.8 54.5
L -67.6 55.15
Q -67.7 55.25 -67.8 55.35 -69.7 57 -69.8 59.25 -69.8 60.4 -69.2 60.8 -68.95 61.05 -68.2 61.15 -67.15 61.15 -66.2 60.5 -65.3 59.9 -64.7 59 -64.45 58.65 -64.2 58.35 -64.05 58.1 -63.95 57.85 -63.5 57 -63.5 55.7
L -63.55 54.7
M -50.65 61.4
Q -50.75 60.9 -51 60.7 -51.25 60.5 -51.85 60.5 -52.55 60.6 -52.9 60.9 -53.05 61 -53.65 61.6 -54.65 62.7 -54.85 63.25 -55 63.55 -55.1 63.95 -55.2 64.4 -55.2 64.95 -55.2 65.8 -54.95 66.15 -54.7 66.45 -54.35 66.6 -53.65 66.85 -52.95 66.55 -52.45 66.25 -51.9 65.45
L -51.85 65.45
Q -51.4 64.75 -51.25 64.35 -50.9 63.7 -50.7 62.2 -50.6 61.7 -50.65 61.4
M -77.45 23.55
Q -77.35 22.95 -77.6 22.5 -78.05 21.8 -79.1 22
L -80.55 22.65
Q -81.15 23 -81.55 23.45 -82.15 24.05 -82.4 24.9
L -82.5 25.8
Q -82.5 27.1 -82.25 27.5 -81.9 28.15 -81.15 28.4 -80.9 28.45 -80.55 28.5 -80.05 28.6 -79.6 28.35 -79.2 28.2 -78.9 27.8 -78.35 27.25 -78.05 26.55
L -77.7 25.65
Q -77.45 24.5 -77.45 23.55
M -73.35 43.1
Q -73.9 44 -73.9 45.3 -74 46.25 -73.55 46.75 -73.15 47.1 -72.3 47.2 -71.15 47.2 -70.4 46.65 -70 46.4 -69.65 45.95 -69.2 45.45 -68.8 44.8 -68.6 44.5 -68.45 44.2 -67.9 43.15 -67.7 41.95
L -67.65 41.1
Q -67.7 40.65 -68.1 40.35 -68.45 40.1 -69.15 40.1 -69.95 40.25 -70 40.25 -70.4 40.4 -71 40.9
L -72.2 41.9
Q -72.9 42.5 -73.2 42.9 -73.3 43 -73.35 43.1
M -68.8 11.65
Q -68.15 10.05 -68.2 9 -68.2 8.45 -68.4 8.05
L -68.95 7.5
Q -69.35 7.35 -69.7 7.4 -70.05 7.45 -70.55 7.85 -71.45 8.75 -72 9.65
L -72.4 10.3 -72.65 10.85
Q -72.95 11.55 -72.95 12.25 -73.05 12.8 -72.8 13.25 -72.3 14.1 -71.3 14 -70.4 13.95 -69.75 13.2 -69.3 12.75 -68.8 11.65
M 17.85 5.25
Q 17.5 4.8 17.3 4.75 17.1 4.65 16.75 4.65
L 16.05 4.55
Q 15.35 4.55 15 5.2 14.85 5.45 14.85 5.8 14.75 6.15 14.75 6.85 14.75 7.9 15.6 9.4 15.85 9.95 16.25 10.3 16.75 10.8 17.5 10.8 17.95 10.8 18.2 10.6 18.55 10.35 18.65 9.55
L 18.8 8.2
Q 18.8 7.65 18.65 7.05 18.6 6.9 18.35 6.2
L 17.85 5.25
M 25.15 -0.95
Q 24.35 -0.95 24.1 -0.65 23.95 -0.5 23.85 -0.1 23.55 0.6 23.55 0.7 23.5 0.85 23.5 1.65
L 23.3 2.9 23.35 3.9
Q 23.5 4.5 23.85 4.75 24.2 5.2 24.9 5.4 25.65 5.5 26.05 5.1 26.55 4.7 26.75 3.7 26.9 3.1 26.9 3
L 26.95 1.75
Q 26.95 0.7 26.9 0.5 26.7 -0.3 26.3 -0.6 25.85 -0.85 25.15 -0.95
M 8.75 -3.1
L 8.35 -3.9
Q 8.05 -4.5 7.7 -4.75 7.65 -4.8 7 -5.05
L 6.4 -5.15
Q 5.85 -5.15 5.4 -4.6 5.05 -4.2 4.9 -3.55
L 4.75 -2.8
Q 4.45 -0.85 5.35 0.9 5.8 1.75 6.3 2.05 7 2.5 7.65 2.35 8.45 2.2 8.75 1.5 8.9 1.25 9 0.55 9.1 -1.05 9 -1.8 9 -2.45 8.75 -3.1
M -46.45 68.4
Q -46.8 68.45 -47.2 68.95 -47.55 69.4 -47.8 69.95
L -48 70.6 -48.05 71.65 -48 72.35
Q -47.85 72.7 -47.5 72.85 -46.65 73.35 -46 72.85 -45.8 72.7 -45.6 72.3 -45.3 71.8 -45.2 71.05
L -45.15 69.9
Q -45.15 69.15 -45.25 68.95 -45.4 68.6 -45.75 68.45 -46.1 68.3 -46.45 68.4
M 65.55 59.8
Q 65.15 59 64.8 58.7 64.55 58.4 64.05 58.15 63.4 57.8 62.7 57.9 61.95 58 61.5 58.5 60.95 59.15 60.95 60.5
L 61 61.5 61.3 62.15
Q 61.35 62.3 61.45 62.4 62.05 63.6 62.6 64.2 63.05 64.65 63.3 64.75 63.8 65 64.5 65 65.35 64.9 65.5 64.8 66.25 64.4 66.35 63.15 66.5 61.6 65.55 59.8
M 72.25 51.15
Q 71.65 50.95 71.35 51
L 70.85 51.2 70.5 51.4
Q 69.8 51.9 69.8 53.05 69.8 53.9 70.2 54.7
L 70.6 55.4
Q 71.1 56.2 71.45 56.45 71.8 56.65 72.3 56.75 72.9 56.85 73.2 56.75 73.75 56.65 73.95 56.3 74.2 55.95 74.2 55.1 74.2 54.05 74.15 53.85
L 73.95 53.1
Q 73.65 52.4 73.4 52.1 73 51.5 72.25 51.15
M 74.85 48.45
Q 75.3 48.55 75.55 48.45 75.9 48.35 76.05 48.1 76.3 47.85 76.3 47.5 76.4 46.85 75.95 46.35
L 75.4 45.75
Q 75.2 45.55 74.7 45.55 74.2 45.55 74 45.65 73.65 45.8 73.55 46.3 73.35 46.75 73.5 47.15 73.55 47.45 73.85 47.8 74.25 48.2 74.35 48.25
L 74.85 48.45
M 78.55 42.2
Q 78.45 42.85 78.9 43.2 79.2 43.5 79.7 43.4 80.15 43.3 80.35 43.1 80.55 42.9 80.65 42.35 80.65 41.65 80.15 41.2 79.55 40.7 78.95 41.1 78.55 41.45 78.55 42.2
M 27.25 -12.4
L 26.85 -12.5
Q 26.25 -12.6 26.1 -12.55
L 25.75 -12.3 25.5 -12.05
Q 25.3 -11.8 25.3 -11.4 25.25 -10.85 25.6 -10.3 25.85 -10 26.1 -9.85 26.6 -9.7 26.95 -9.75 27.4 -9.75 27.65 -9.95
L 27.9 -10.45 27.95 -11
Q 27.95 -11.55 27.85 -11.8 27.7 -12.15 27.25 -12.4
M 16.45 -13.35
L 15.9 -13.6 15.4 -13.7
Q 14.85 -13.7 14.6 -13.25 14.35 -12.9 14.25 -12.4 14.15 -11.75 14.15 -10.35 14.15 -9.4 14.2 -9.25 14.35 -8.75 14.75 -8.35 15.2 -7.75 15.65 -7.55 15.75 -7.5 16 -7.4 16.25 -7.35 16.65 -7.3 17.3 -7.3 17.55 -7.45 18.05 -7.65 18.35 -8.3 18.55 -8.85 18.55 -9.5 18.55 -10.3 18.35 -10.9
L 17.95 -11.7
Q 17.1 -13.05 16.45 -13.35 Z"/>

<path fill="#D0421C" stroke="none" d="
M -71.8 -44.2
Q -55.95 -34.55 -45.8 -23.45 -54.9 -37.25 -71.8 -44.2 Z"/>

<path fill="#EE4C21" stroke="none" d="
M -72.75 -8.75
Q -72.7 -8.2 -72.6 -7.6 -66.3 -10.2 -60.55 -13.45 -52.7 -17.9 -45.8 -23.45 -55.95 -34.55 -71.8 -44.2 -74.8 -26.35 -72.75 -8.75 Z"/>

<path fill="#DF471E" stroke="none" d="
M -76.1 -4.75
Q -76 -3.45 -75.8 -2.2 -65.55 -6.8 -56.9 -13.35 -50.95 -17.95 -45.8 -23.45 -52.7 -17.9 -60.55 -13.45 -66.3 -10.2 -72.6 -7.6 -72.7 -8.2 -72.75 -8.75 -74.8 -26.35 -71.8 -44.2 -78.3 -24.45 -76.1 -4.75 Z"/>

<path fill="#FFA660" stroke="none" d="
M -75.65 -59.8
Q -74.3 -58.9 -72.95 -57.95 -52 -43.05 -39.4 -29.8 -35.1 -26 -30.8 -26.45 -42.7 -39.35 -55.05 -48.15 -65.2 -55.35 -75.65 -59.8
M 90.8 51.65
Q 94.65 43.7 96.3 34.3 99.85 -2.05 74.55 -30.7 99.45 7.8 90.8 51.65
M 53.2 -89.1
Q 64.3 -75.75 72.6 -60.3 65.65 -77.95 54.2 -92.4 53.85 -92.3 53.55 -92.2 53.1 -92.1 52.65 -92 41.25 -88.9 31.65 -79.9
L 31.7 -79.9
Q 42.1 -86 53.2 -89.1 Z"/>

<path fill="#F5590A" stroke="none" d="
M -75.65 -59.8
Q -76.7 -60.25 -77.8 -60.7 -90.05 -41.3 -92.8 -3.95 -102.9 21.3 -96.3 46.55 -86.1 81.75 -43.5 90.85 -28.55 93.7 -13.9 94.25 -18.65 90.9 -19.8 86.35 -50.85 84.4 -68.4 69 -97.5 47.4 -85.6 -1.8 -80.5 -55.25 -72.95 -57.95 -74.3 -58.9 -75.65 -59.8
M 50.2 85.45
Q 53.35 84.45 56.5 83.3 80.95 72.1 90.8 51.65 75.2 71.6 52.55 78.25 51.7 81.85 50.2 85.45 Z"/>

<path fill="#FBC077" stroke="none" d="
M 50.2 85.45
Q 51.7 81.85 52.55 78.25 17.1 88.05 -19.8 86.35 -18.65 90.9 -13.9 94.25 18.9 95.5 50.2 85.45 Z"/>

<path fill="#FDDEA0" stroke="none" d="
M 33.85 36.4
Q 32.6 36.4 31.3 36.6 31.55 36.95 31.45 37.4 31.4 37.9 31.1 38.15 30.75 38.45 30.3 38.45 29.8 38.45 29.5 38.15 29 37.65 29.1 37.1 29.1 37 29.15 36.95 23.95 38.1 18.25 41.8 12.9 45.3 3.95 53.65 -5.7 62.7 -9.6 65.5 -13.45 68.3 -16.9 69.65 -18.95 75.3 -20 80.85 -20.45 83.8 -19.8 86.35 17.1 88.05 52.55 78.25 55.75 64.15 48.15 50.45 44.45 42.7 36.75 36.6 35.2 36.4 33.85 36.4
M 35.5 38.4
Q 35.85 38.2 36.35 38.3 36.8 38.4 37.05 38.8 37.3 39.15 37.2 39.6 37.15 40.1 36.85 40.35 36.5 40.65 36.05 40.65 35.55 40.65 35.25 40.35 34.75 39.85 34.85 39.3 34.95 38.65 35.5 38.4
M 35.15 45.25
Q 34.65 44.75 34.75 44.2 34.85 43.55 35.4 43.3 35.75 43.1 36.25 43.2 36.7 43.3 36.95 43.7 37.2 44.05 37.1 44.5 37.05 45 36.75 45.25 36.4 45.55 35.95 45.55 35.45 45.55 35.15 45.25 Z"/>

<path fill="#333333" stroke="none" d="
M 34.75 44.2
Q 34.65 44.75 35.15 45.25 35.45 45.55 35.95 45.55 36.4 45.55 36.75 45.25 37.05 45 37.1 44.5 37.2 44.05 36.95 43.7 36.7 43.3 36.25 43.2 35.75 43.1 35.4 43.3 34.85 43.55 34.75 44.2
M 36.35 38.3
Q 35.85 38.2 35.5 38.4 34.95 38.65 34.85 39.3 34.75 39.85 35.25 40.35 35.55 40.65 36.05 40.65 36.5 40.65 36.85 40.35 37.15 40.1 37.2 39.6 37.3 39.15 37.05 38.8 36.8 38.4 36.35 38.3
M 31.3 36.6
Q 31.05 36.2 30.6 36.1 30.1 36 29.75 36.2 29.25 36.4 29.15 36.95 29.1 37 29.1 37.1 29 37.65 29.5 38.15 29.8 38.45 30.3 38.45 30.75 38.45 31.1 38.15 31.4 37.9 31.45 37.4 31.55 36.95 31.3 36.6
M 12 38.05
Q 11.45 38.3 11.35 38.95 11.25 39.5 11.75 40 12.05 40.3 12.55 40.3 13 40.3 13.35 40 13.65 39.75 13.7 39.25 13.8 38.8 13.55 38.45 13.3 38.05 12.85 37.95 12.35 37.85 12 38.05
M 9.5 45.3
Q 9.4 45.85 9.9 46.35 10.2 46.65 10.7 46.65 11.15 46.65 11.5 46.35 11.8 46.1 11.85 45.6 11.95 45.15 11.7 44.8 11.45 44.4 11 44.3 10.5 44.2 10.15 44.4 9.6 44.65 9.5 45.3
M 3.9 47.5
Q 3.35 47.75 3.25 48.4 3.15 48.95 3.65 49.45 3.95 49.75 4.45 49.75 4.9 49.75 5.25 49.45 5.55 49.2 5.6 48.7 5.7 48.25 5.45 47.9 5.2 47.5 4.75 47.4 4.25 47.3 3.9 47.5
M 5.7 42.75
Q 6 42.5 6.05 42 6.15 41.55 5.9 41.2 5.65 40.8 5.2 40.7 4.7 40.6 4.35 40.8 3.8 41.05 3.7 41.7 3.6 42.25 4.1 42.75 4.4 43.05 4.9 43.05 5.35 43.05 5.7 42.75 Z"/>

<path fill="#FDE6B9" stroke="none" d="
M 30.6 36.1
Q 31.05 36.2 31.3 36.6 32.6 36.4 33.85 36.4 35.2 36.4 36.75 36.6 33.35 33.95 29.2 31.6 20.9 29.45 11.8 32.85 2.45 35.6 -6.9 50.1 -13.4 60 -16.9 69.65 -13.45 68.3 -9.6 65.5 -5.7 62.7 3.95 53.65 12.9 45.3 18.25 41.8 23.95 38.1 29.15 36.95 29.25 36.4 29.75 36.2 30.1 36 30.6 36.1
M 6.05 42
Q 6 42.5 5.7 42.75 5.35 43.05 4.9 43.05 4.4 43.05 4.1 42.75 3.6 42.25 3.7 41.7 3.8 41.05 4.35 40.8 4.7 40.6 5.2 40.7 5.65 40.8 5.9 41.2 6.15 41.55 6.05 42
M 3.25 48.4
Q 3.35 47.75 3.9 47.5 4.25 47.3 4.75 47.4 5.2 47.5 5.45 47.9 5.7 48.25 5.6 48.7 5.55 49.2 5.25 49.45 4.9 49.75 4.45 49.75 3.95 49.75 3.65 49.45 3.15 48.95 3.25 48.4
M 9.9 46.35
Q 9.4 45.85 9.5 45.3 9.6 44.65 10.15 44.4 10.5 44.2 11 44.3 11.45 44.4 11.7 44.8 11.95 45.15 11.85 45.6 11.8 46.1 11.5 46.35 11.15 46.65 10.7 46.65 10.2 46.65 9.9 46.35
M 11.35 38.95
Q 11.45 38.3 12 38.05 12.35 37.85 12.85 37.95 13.3 38.05 13.55 38.45 13.8 38.8 13.7 39.25 13.65 39.75 13.35 40 13 40.3 12.55 40.3 12.05 40.3 11.75 40 11.25 39.5 11.35 38.95 Z"/>

<path fill="#FF892B" stroke="none" d="
M 51.55 -13.45
Q 47.3 -11.8 44.45 -10.85 33.05 -7.1 9.6 -7.1 -8.6 -7.1 -19.9 -10 -28.6 -12.2 -35.55 -13.6 -47.75 -12.05 -54.65 -13.1 -55.8 -13.3 -56.9 -13.35 -65.55 -6.8 -75.8 -2.2 -76 -3.45 -76.1 -4.75 -76.35 -4.4 -76.55 -4.05 -81.65 4.6 -81.65 20.4 -81.65 21.95 -81.55 23.45 -81.15 23 -80.55 22.65
L -79.1 22
Q -78.05 21.8 -77.6 22.5 -77.35 22.95 -77.45 23.55 -77.45 24.5 -77.7 25.65
L -78.05 26.55
Q -78.35 27.25 -78.9 27.8 -79.2 28.2 -79.6 28.35 -80.05 28.6 -80.55 28.5 -80.9 28.45 -81.15 28.4 -79.05 44.9 -67.8 55.35 -67.7 55.25 -67.6 55.15
L -66.8 54.5
Q -66.5 54.25 -65.95 53.75 -65.5 53.6 -65.05 53.6 -64.4 53.7 -64.15 53.85 -63.7 54.15 -63.55 54.7
L -63.5 55.7
Q -63.5 57 -63.95 57.85 -64.05 58.1 -64.2 58.35 -62.05 60 -59.65 61.45 -57.45 62.8 -55.1 63.95 -55 63.55 -54.85 63.25 -54.65 62.7 -53.65 61.6 -53.05 61 -52.9 60.9 -52.55 60.6 -51.85 60.5 -51.25 60.5 -51 60.7 -50.75 60.9 -50.65 61.4 -50.6 61.7 -50.7 62.2 -50.9 63.7 -51.25 64.35 -51.4 64.75 -51.85 65.45 -44.35 68.6 -35.8 69.95
L -35.15 68.35
Q -34.6 67.15 -34.3 66.75 -33.9 66.25 -33.65 66.1 -33.1 65.85 -32.75 65.9 -31.9 66.05 -31.65 66.95 -31.5 67.35 -31.5 68.3
L -31.55 70
Q -31.55 70.2 -31.6 70.5 -27.4 70.9 -22.9 70.9 -20.05 70.9 -16.9 69.65 -13.4 60 -6.9 50.1 2.45 35.6 11.8 32.85 20.9 29.45 29.2 31.6 33.35 33.95 36.75 36.6 41.55 37.25 48.15 39.9 56.9 43.4 66.6 43.4 78.95 43.4 83.35 37.45 87.35 32 87.35 17.4 87.35 7.4 77.85 -3.6 68.35 -14.6 59.6 -14.6 55.2 -14.6 51.55 -13.45
M 8.35 -3.9
L 8.75 -3.1
Q 9 -2.45 9 -1.8 9.1 -1.05 9 0.55 8.9 1.25 8.75 1.5 8.45 2.2 7.65 2.35 7 2.5 6.3 2.05 5.8 1.75 5.35 0.9 4.45 -0.85 4.75 -2.8
L 4.9 -3.55
Q 5.05 -4.2 5.4 -4.6 5.85 -5.15 6.4 -5.15
L 7 -5.05
Q 7.65 -4.8 7.7 -4.75 8.05 -4.5 8.35 -3.9
M 24.1 -0.65
Q 24.35 -0.95 25.15 -0.95 25.85 -0.85 26.3 -0.6 26.7 -0.3 26.9 0.5 26.95 0.7 26.95 1.75
L 26.9 3
Q 26.9 3.1 26.75 3.7 26.55 4.7 26.05 5.1 25.65 5.5 24.9 5.4 24.2 5.2 23.85 4.75 23.5 4.5 23.35 3.9
L 23.3 2.9 23.5 1.65
Q 23.5 0.85 23.55 0.7 23.55 0.6 23.85 -0.1 23.95 -0.5 24.1 -0.65
M 17.3 4.75
Q 17.5 4.8 17.85 5.25
L 18.35 6.2
Q 18.6 6.9 18.65 7.05 18.8 7.65 18.8 8.2
L 18.65 9.55
Q 18.55 10.35 18.2 10.6 17.95 10.8 17.5 10.8 16.75 10.8 16.25 10.3 15.85 9.95 15.6 9.4 14.75 7.9 14.75 6.85 14.75 6.15 14.85 5.8 14.85 5.45 15 5.2 15.35 4.55 16.05 4.55
L 16.75 4.65
Q 17.1 4.65 17.3 4.75
M -68.2 9
Q -68.15 10.05 -68.8 11.65 -69.3 12.75 -69.75 13.2 -70.4 13.95 -71.3 14 -72.3 14.1 -72.8 13.25 -73.05 12.8 -72.95 12.25 -72.95 11.55 -72.65 10.85
L -72.4 10.3 -72 9.65
Q -71.45 8.75 -70.55 7.85 -70.05 7.45 -69.7 7.4 -69.35 7.35 -68.95 7.5
L -68.4 8.05
Q -68.2 8.45 -68.2 9
M -73.9 45.3
Q -73.9 44 -73.35 43.1 -73.3 43 -73.2 42.9 -72.9 42.5 -72.2 41.9
L -71 40.9
Q -70.4 40.4 -70 40.25 -69.95 40.25 -69.15 40.1 -68.45 40.1 -68.1 40.35 -67.7 40.65 -67.65 41.1
L -67.7 41.95
Q -67.9 43.15 -68.45 44.2 -68.6 44.5 -68.8 44.8 -69.2 45.45 -69.65 45.95 -70 46.4 -70.4 46.65 -71.15 47.2 -72.3 47.2 -73.15 47.1 -73.55 46.75 -74 46.25 -73.9 45.3 Z"/>

<path fill="#E65609" stroke="none" d="
M 64.9 -29.9
Q 66.5 -31.25 66.9 -34 46.1 -34.6 22.35 -29.15 6.75 -24.85 -10.75 -22.45 -19.8 -21.75 -25.9 -23.9 -22.65 -19.6 -19 -18.2 -17.95 -17.8 -16.15 -17.5 -11.5 -16.8 -2.1 -16.8 10.2 -16.8 18.4 -19.55 35.05 -25.1 42.2 -26.8 48.75 -28.3 59.4 -28.1 63.15 -28.45 64.9 -29.9 Z"/>

<path fill="#B05F2D" stroke="none" d="
M 40.25 -38.9
Q 32.7 -37.95 23.4 -36 16.65 -34.6 0.75 -30.2 -8.65 -27.6 -10.1 -27.8 -10.3951171875 -27.84921875 -10.4 -28 -10.39921875 -27.84921875 -10.35 -27.8
L -10.15 -27.8
Q -18.1 -26.25 -23.7 -26.35 -29.35 -26.5 -30.8 -26.45 -28.65 -24.9 -25.9 -23.9 -19.8 -21.75 -10.75 -22.45 6.75 -24.85 22.35 -29.15 46.1 -34.6 66.9 -34 67.6 -34 68.35 -33.95 71.45 -36.45 63.6 -39.8 63.55 -39.8 63.5 -39.8 60.5 -40 59 -40 49.4 -40 40.25 -38.9
M 57.05 -53.65
Q 58.4 -56.85 59.15 -60 56.75 -64.95 50.25 -69.45 49.4 -70.05 48.55 -70.65 27.25 -81.1 5.15 -80.6 -10.3 -80.3 -26.15 -74.55 -27.9 -73.45 -29.6 -72.25 -34.2 -69.1 -38.75 -65.1 -39 -63.2 -39 -61.8 -39 -45.8 -33.8 -39.8 -29.8 -35.2 -20.8 -35.2 -15.9 -35.2 -11.1 -36.75 -9.5 -37.25 -2.1 -40.3 11.35 -45.8 27.6 -47 32.7 -47.35 40.5 -47.3 48.9 -47.25 51.6 -47.4 54.4 -47.55 57.05 -53.65
M 45.4 -59
Q 33.8 -70.85 17.8 -74.6 37.85 -74.25 45.4 -59
M -21.2 -67.4
Q -4.25 -65 1 -50 -7.75 -60.3 -21.2 -67.4
M 23 -56.6
Q 9.25 -68.55 -10.6 -74.4 12.1 -73.65 23 -56.6 Z"/>

<path fill="#C5743A" stroke="none" d="
M 31.7 -79.9
L 31.65 -79.9 31.6 -79.9
Q 25.15 -82.55 18.7 -83.85 9.95 -85.65 1.2 -84.95 -12.75 -82.95 -26.15 -74.55 -10.3 -80.3 5.15 -80.6 27.25 -81.1 48.55 -70.65 40.1 -76.4 31.7 -79.9
M -10.6 -74.4
Q 9.25 -68.55 23 -56.6 12.1 -73.65 -10.6 -74.4
M 1 -50
Q -4.25 -65 -21.2 -67.4 -7.75 -60.3 1 -50
M 17.8 -74.6
Q 33.8 -70.85 45.4 -59 37.85 -74.25 17.8 -74.6 Z"/>

<path fill="#FE7B12" stroke="none" d="
M 50.25 -69.45
Q 56.75 -64.95 59.15 -60 62.55 -52.75 57.25 -44.45 56.3 -43.45 54.45 -42.95 60.1 -41.3 63.6 -39.8 71.45 -36.45 68.35 -33.95 67.6 -34 66.9 -34 66.5 -31.25 64.9 -29.9 63.15 -28.45 59.4 -28.1 48.75 -28.3 42.2 -26.8 35.05 -25.1 18.4 -19.55 10.2 -16.8 -2.1 -16.8 -11.5 -16.8 -16.15 -17.5 -17.95 -17.8 -19 -18.2 -22.65 -19.6 -25.9 -23.9 -28.65 -24.9 -30.8 -26.45 -35.1 -26 -39.4 -29.8 -52 -43.05 -72.95 -57.95 -80.5 -55.25 -85.6 -1.8 -97.5 47.4 -68.4 69 -50.85 84.4 -19.8 86.35 -20.45 83.8 -20 80.85 -18.95 75.3 -16.9 69.65 -20.05 70.9 -22.9 70.9 -27.4 70.9 -31.6 70.5 -31.7 70.9 -31.9 71.5 -32.15 72.35 -32.65 72.85 -33.3 73.6 -34.05 73.5
L -34.8 73.4
Q -35.45 73.15 -35.5 73.1 -36.1 72.6 -36 71.6
L -35.85 70.05 -35.8 69.95
Q -44.35 68.6 -51.85 65.45
L -51.9 65.45
Q -52.45 66.25 -52.95 66.55 -53.65 66.85 -54.35 66.6 -54.7 66.45 -54.95 66.15 -55.2 65.8 -55.2 64.95 -55.2 64.4 -55.1 63.95 -57.45 62.8 -59.65 61.45 -62.05 60 -64.2 58.35 -64.45 58.65 -64.7 59 -65.3 59.9 -66.2 60.5 -67.15 61.15 -68.2 61.15 -68.95 61.05 -69.2 60.8 -69.8 60.4 -69.8 59.25 -69.7 57 -67.8 55.35 -79.05 44.9 -81.15 28.4 -81.9 28.15 -82.25 27.5 -82.5 27.1 -82.5 25.8
L -82.4 24.9
Q -82.15 24.05 -81.55 23.45 -81.65 21.95 -81.65 20.4 -81.65 4.6 -76.55 -4.05 -76.35 -4.4 -76.1 -4.75 -78.3 -24.45 -71.8 -44.2 -54.9 -37.25 -45.8 -23.45 -50.95 -17.95 -56.9 -13.35 -55.8 -13.3 -54.65 -13.1 -47.75 -12.05 -35.55 -13.6 -28.6 -12.2 -19.9 -10 -8.6 -7.1 9.6 -7.1 33.05 -7.1 44.45 -10.85 47.3 -11.8 51.55 -13.45 55.2 -14.6 59.6 -14.6 68.35 -14.6 77.85 -3.6 87.35 7.4 87.35 17.4 87.35 32 83.35 37.45 78.95 43.4 66.6 43.4 56.9 43.4 48.15 39.9 41.55 37.25 36.75 36.6 44.45 42.7 48.15 50.45 55.75 64.15 52.55 78.25 75.2 71.6 90.8 51.65 99.45 7.8 74.55 -30.7 75.55 -46.6 72.6 -60.3 64.3 -75.75 53.2 -89.1 42.1 -86 31.7 -79.9 40.1 -76.4 48.55 -70.65 49.4 -70.05 50.25 -69.45
M 15.9 -13.6
L 16.45 -13.35
Q 17.1 -13.05 17.95 -11.7
L 18.35 -10.9
Q 18.55 -10.3 18.55 -9.5 18.55 -8.85 18.35 -8.3 18.05 -7.65 17.55 -7.45 17.3 -7.3 16.65 -7.3 16.25 -7.35 16 -7.4 15.75 -7.5 15.65 -7.55 15.2 -7.75 14.75 -8.35 14.35 -8.75 14.2 -9.25 14.15 -9.4 14.15 -10.35 14.15 -11.75 14.25 -12.4 14.35 -12.9 14.6 -13.25 14.85 -13.7 15.4 -13.7
L 15.9 -13.6
M 26.85 -12.5
L 27.25 -12.4
Q 27.7 -12.15 27.85 -11.8 27.95 -11.55 27.95 -11
L 27.9 -10.45 27.65 -9.95
Q 27.4 -9.75 26.95 -9.75 26.6 -9.7 26.1 -9.85 25.85 -10 25.6 -10.3 25.25 -10.85 25.3 -11.4 25.3 -11.8 25.5 -12.05
L 25.75 -12.3 26.1 -12.55
Q 26.25 -12.6 26.85 -12.5
M 78.9 43.2
Q 78.45 42.85 78.55 42.2 78.55 41.45 78.95 41.1 79.55 40.7 80.15 41.2 80.65 41.65 80.65 42.35 80.55 42.9 80.35 43.1 80.15 43.3 79.7 43.4 79.2 43.5 78.9 43.2
M 75.55 48.45
Q 75.3 48.55 74.85 48.45
L 74.35 48.25
Q 74.25 48.2 73.85 47.8 73.55 47.45 73.5 47.15 73.35 46.75 73.55 46.3 73.65 45.8 74 45.65 74.2 45.55 74.7 45.55 75.2 45.55 75.4 45.75
L 75.95 46.35
Q 76.4 46.85 76.3 47.5 76.3 47.85 76.05 48.1 75.9 48.35 75.55 48.45
M 71.35 51
Q 71.65 50.95 72.25 51.15 73 51.5 73.4 52.1 73.65 52.4 73.95 53.1
L 74.15 53.85
Q 74.2 54.05 74.2 55.1 74.2 55.95 73.95 56.3 73.75 56.65 73.2 56.75 72.9 56.85 72.3 56.75 71.8 56.65 71.45 56.45 71.1 56.2 70.6 55.4
L 70.2 54.7
Q 69.8 53.9 69.8 53.05 69.8 51.9 70.5 51.4
L 70.85 51.2 71.35 51
M 64.8 58.7
Q 65.15 59 65.55 59.8 66.5 61.6 66.35 63.15 66.25 64.4 65.5 64.8 65.35 64.9 64.5 65 63.8 65 63.3 64.75 63.05 64.65 62.6 64.2 62.05 63.6 61.45 62.4 61.35 62.3 61.3 62.15
L 61 61.5 60.95 60.5
Q 60.95 59.15 61.5 58.5 61.95 58 62.7 57.9 63.4 57.8 64.05 58.15 64.55 58.4 64.8 58.7
M -47.2 68.95
Q -46.8 68.45 -46.45 68.4 -46.1 68.3 -45.75 68.45 -45.4 68.6 -45.25 68.95 -45.15 69.15 -45.15 69.9
L -45.2 71.05
Q -45.3 71.8 -45.6 72.3 -45.8 72.7 -46 72.85 -46.65 73.35 -47.5 72.85 -47.85 72.7 -48 72.35
L -48.05 71.65 -48 70.6 -47.8 69.95
Q -47.55 69.4 -47.2 68.95 Z"/>

<path fill="#8A4A23" stroke="none" d="
M 59.15 -60
Q 58.4 -56.85 57.05 -53.65 54.4 -47.55 51.6 -47.4 48.9 -47.25 40.5 -47.3 32.7 -47.35 27.6 -47 11.35 -45.8 -2.1 -40.3 -9.5 -37.25 -11.1 -36.75 -15.9 -35.2 -20.8 -35.2 -29.8 -35.2 -33.8 -39.8 -39 -45.8 -39 -61.8 -39 -63.2 -38.75 -65.1 -47 -57.9 -55.05 -48.15 -42.7 -39.35 -30.8 -26.45 -29.35 -26.5 -23.7 -26.35 -18.1 -26.25 -10.15 -27.8
L -10.35 -27.8
Q -10.39921875 -27.84921875 -10.4 -28 -10.3951171875 -27.84921875 -10.1 -27.8 -8.65 -27.6 0.75 -30.2 16.65 -34.6 23.4 -36 32.7 -37.95 40.25 -38.9 49.4 -40 59 -40 60.5 -40 63.5 -39.8 63.55 -39.8 63.6 -39.8 60.1 -41.3 54.45 -42.95 56.3 -43.45 57.25 -44.45 62.55 -52.75 59.15 -60 Z"/>
</g>

<g id="____________0_Layer1_0_FILL">
<path fill="#000000" stroke="none" d="
M 40.25 23.4
Q 32.35 29.25 21.9 23.4 12.95 33.65 0 26.9 7.7 36 22.85 27.35 34.75 32.6 40.25 23.4 Z"/>
</g>

<g id="____________0_Layer0_0_FILL">
<path fill="#B63317" stroke="none" d="
M 10.05 7.5
Q 10.3380859375 7.8408203125 10.65 8.15 23.1576171875 15.0716796875 27.3 2.2 25.1419921875 -0.8392578125 16.5 0.35 8.4 1.55 8.6 5.35 9.25 6.5 10.05 7.5
M 25.7 2.55
Q 25.7537109375 2.70703125 25.7 2.85 25.6 3.3 24.9 3.4 24.25 3.55 23.4 3.3
L 23.35 3.3
Q 22.489453125 3.0904296875 21.95 2.6 21.617578125 2.30078125 21.55 2 21.51640625 1.85078125 21.55 1.7 21.7 1.3 22.35 1.15 22.9525390625 1.0638671875 23.7 1.2 23.8248046875 1.222265625 23.95 1.25 24.8 1.5 25.3 1.95 25.6533203125 2.2712890625 25.7 2.55 Z"/>

<path fill="#FF886F" stroke="none" d="
M 25.7 2.85
Q 25.7537109375 2.70703125 25.7 2.55 25.6533203125 2.2712890625 25.3 1.95 24.8 1.5 23.95 1.25 23.8248046875 1.222265625 23.7 1.2 22.9525390625 1.0638671875 22.35 1.15 21.7 1.3 21.55 1.7 21.51640625 1.85078125 21.55 2 21.617578125 2.30078125 21.95 2.6 22.489453125 3.0904296875 23.35 3.3
L 23.4 3.3
Q 24.25 3.55 24.9 3.4 25.6 3.3 25.7 2.85 Z"/>

<path fill="#8A2611" stroke="none" d="
M 28 4.1
Q 27.87578125 3.0125 27.3 2.2 23.1576171875 15.0716796875 10.65 8.15 14.1478515625 11.6837890625 20.35 11.5 25.85 10.4 27.45 6.25 27.85 5.25 28 4.1 Z"/>
</g>

<g id="________________0_Layer0_0_FILL_FL">
<path fill="#F05807" stroke="none" d="
M 7.65 7.3
Q 6 8.9 4.75 10.65 58.3740234375 24.7521484375 40.9 4.55 34.3919921875 0 25.95 0 16.6 0 9.6 5.6 8.6 6.4 7.65 7.3 Z"/>

<path fill="#BE4505" stroke="none" d="
M 51 18.5
Q 49.3 12.25 44.25 7.3 42.64609375 5.7595703125 40.9 4.55 58.3740234375 24.7521484375 4.75 10.65 27.85 19.9 51 18.5 Z"/>

<path fill="#EDCE9B" stroke="none" d="
M 51.8 23.2
Q 51.15 32.3 44.25 38.95 36.65 46.35 25.95 46.35 16.6 46.35 9.6 40.7 8.55 39.9 7.6 38.95 0.85 32.45 0.1 23.55 0.05 24.3 0.05 25.05 0.05 35.4 7.65 42.7 8.6 43.65 9.6 44.45 16.6 50.1 25.95 50.1 36.65 50.1 44.25 42.7 51.85 35.4 51.85 25.05 51.85 24.1 51.8 23.2 Z"/>

<path fill="#FEECB9" stroke="none" d="
M 51.8 23.2
Q 51.6 20.75 51 18.5 27.85 19.9 4.75 10.65 0.5 16.35 0.1 23.55 0.85 32.45 7.6 38.95 8.55 39.9 9.6 40.7 16.6 46.35 25.95 46.35 36.65 46.35 44.25 38.95 51.15 32.3 51.8 23.2 Z"/>
</g>

<g id="__________________1_Layer1_0_FILL">
<path fill="#FFFFFF" stroke="none" d="
M 20.85 10.05
Q 20.6 11.0697265625 20.6 12.2 20.6 14.75 22 16.5 23.45 18.3 25.45 18.3 27.45 18.3 28.85 16.5 30.3 14.75 30.3 12.2 30.3 11.6681640625 30.2 11.15 25.5560546875 10.8466796875 20.85 10.05 Z"/>

<path fill="#4B2722" stroke="none" d="
M 20.6 12.2
Q 20.6 11.0697265625 20.85 10.05 12.797265625 8.7671875 4.7 6.1 0 11.368359375 0 18.6 0 26.3 5.35 31.75 10.8 37.2 18.4 37.2 26 37.2 31.4 31.75 36.8 26.3 36.8 18.6 36.8 14.7064453125 35.4 11.4 32.8259765625 11.3486328125 30.2 11.15 30.3 11.6681640625 30.3 12.2 30.3 14.75 28.85 16.5 27.45 18.3 25.45 18.3 23.45 18.3 22 16.5 20.6 14.75 20.6 12.2 Z"/>
</g>

<g id="_________________0_Layer0_0_FILL_FL_FL">
<path fill="#EDCE9B" stroke="none" d="
M 45.3 35.5
Q 42.3 32.5 40.55 28.95 42.25 34.65 46.7 39.1 53.4 45.8 62.45 45.8 71.55 45.8 77.55 39.1 83.65 32.4 83.2 22.9 82.95 17.7 80.85 13.35 81.65 16.15 81.8 19.3 82.25 28.8 76.15 35.5 70.15 42.2 61.05 42.2 52 42.2 45.3 35.5 Z"/>

<path fill="#BE4505" stroke="none" d="
M 47.3 4.6
Q 46.2 5.55 45.15 6.7 40.1 12.3 39.6 19.8 59.1 16.2 74.65 5.45 35.65 25.25 47.3 4.6 Z"/>

<path fill="#F05807" stroke="none" d="
M 60.25 0
Q 52.75 0 47.3 4.6 35.65 25.25 74.65 5.45 68.45 0 60.25 0 Z"/>

<path fill="#FEECB9" stroke="none" d="
M 76 6.7
Q 75.35 6.05 74.65 5.45 59.1 16.2 39.6 19.8 39.45 21.3 39.55 22.9 39.7 26.05 40.55 28.95 42.3 32.5 45.3 35.5 52 42.2 61.05 42.2 70.15 42.2 76.15 35.5 82.25 28.8 81.8 19.3 81.65 16.15 80.85 13.35 79.05 9.75 76 6.7 Z"/>
</g>

<g id="___________________1_Layer1_0_FILL">
<path fill="#4B2722" stroke="none" d="
M 31.1 16.9
Q 31.1 9.9 26.5 4.95 25.019921875 3.321875 23.7 2.7 12.4625 8.215625 0.9 10.95 0 13.70703125 0 16.9 0 23.9 4.5 28.85 9.1 33.8 15.55 33.8 22 33.8 26.5 28.85 31.1 23.9 31.1 16.9
M 24.55 7.05
Q 25.65 8.55 25.65 10.65 25.65 12.75 24.55 14.2 23.727734375 15.374609375 22.6 15.6 22.2861328125 15.7 21.95 15.7 20.4 15.7 19.3 14.2 18.25 12.75 18.25 10.65 18.25 8.55 19.3 7.05 20.4 5.6 21.95 5.6 22.2861328125 5.6 22.6 5.65 23.727734375 5.914453125 24.55 7.05 Z"/>

<path fill="#FFFFFF" stroke="none" d="
M 25.65 10.65
Q 25.65 8.55 24.55 7.05 23.727734375 5.914453125 22.6 5.65 22.2861328125 5.6 21.95 5.6 20.4 5.6 19.3 7.05 18.25 8.55 18.25 10.65 18.25 12.75 19.3 14.2 20.4 15.7 21.95 15.7 22.2861328125 15.7 22.6 15.6 23.727734375 15.374609375 24.55 14.2 25.65 12.75 25.65 10.65 Z"/>
</g>

<g id="______________0_Layer0_0_FILL">
<path fill="#A12D20" stroke="none" d="
M 36.45 15.95
Q 37.75 14.55 37.95 12.55 38.25 10.05 36.7 8.1 35.15 6.15 32.7 5.9 19.45 4.4 8.05 0.35 5.7 -0.5 3.45 0.6 1.2 1.65 0.35 4 -0.45 6.2 0.55 8.4 18.1 15.6 36.45 15.95 Z"/>

<path fill="#792218" stroke="none" d="
M 31.35 17.85
Q 33.8 18.1 35.75 16.55 36.1 16.25 36.45 15.95 18.1 15.6 0.55 8.4 0.55 8.45 0.6 8.55 1.65 10.8 4 11.65 16.65 16.2 31.35 17.85 Z"/>
</g>

<g id="_______________0_Layer0_0_FILL">
<path fill="#A12D20" stroke="none" d="
M 30.2 7.6
Q 30.45 5.6 29.5 3.7 28.45 1.35 26.5 0.45 24.45 -0.5 22.7 0.5 13.15 5.7 3.55 7.7 1.55 8.15 0.6 10.2 -0.4 12.2 0.25 14.65 0.85 17.05 2.65 18.45 2.7 18.5 2.8 18.55 17.6 15.9 30.2 7.6 Z"/>

<path fill="#792218" stroke="none" d="
M 27.75 11.5
Q 29.55 10.5 30.05 8.2 30.1 7.9 30.2 7.6 17.6 15.9 2.8 18.55 4.55 19.9 6.5 19.5 17.2 17.25 27.75 11.5 Z"/>
</g>

<path id="_________________0_Layer0_0_1_STROKES" stroke="#000000" stroke-width="1" stroke-linejoin="round" stroke-linecap="round" fill="none" d="
M 49.2 41.45
L 48.7 45.5 44.5 44.85"/>

<path id="____________0_Layer1_0_1_STROKES" stroke="#000000" stroke-width="1" stroke-linejoin="round" stroke-linecap="round" fill="none" d="
M 21.9 23.4
Q 12.95 33.65 0 26.9 7.7 36 22.85 27.35 34.75 32.6 40.25 23.4 32.35 29.25 21.9 23.4
L 20.35 11.5"/>
</defs>

<g transform="matrix( 1.35211181640625, 0, 0, 1.35211181640625, -7.75,363.85) ">
<g transform="matrix( 1, 0, 0, 1, 102.65,10) ">
<g transform="matrix( 1, 0, 0, 1, 0,0) ">
<use xlink:href="#_________________0_Layer0_0_FILL"/>
</g>
</g>

<g transform="matrix( 1, 0, 0, 1, 208.2,9.55) ">
<g transform="matrix( 1, 0, 0, 1, 0,0) ">
<use xlink:href="#___________0_Layer0_0_FILL"/>
</g>
</g>

<g transform="matrix( 1, 0, 0, 1, 166.05,-40) ">
<g transform="matrix( 1, 0, 0, 1, 0,0) ">
<use xlink:href="#_________________0_Layer1_0_FILL"/>
</g>

<g transform="matrix( 1, 0, 0, 1, 0,0) ">
<use xlink:href="#_________________0_Layer0_0_FILL_FL"/>

<use xlink:href="#_________________0_Layer0_0_1_STROKES"/>
</g>
</g>

<g transform="matrix( 1, 0, 0, 1, 74.65,-58.05) ">
<g transform="matrix( 1, 0, 0, 1, 0,0) ">
<use xlink:href="#_____________0_Layer0_0_FILL"/>
</g>
</g>

<g transform="matrix( 1, 0, 0, 1, 135.05,-20.8) ">
<g transform="matrix( 1, 0, 0, 1, 0,0) ">
<use xlink:href="#_____________0_Layer0_0_FILL_FL"/>
</g>
</g>

<g transform="matrix( 1, 0, 0, 1, 77.2,43.35) ">
<g transform="matrix( 1, 0, 0, 1, 0,0) ">
<use xlink:href="#________________0_Layer0_0_FILL"/>
</g>
</g>

<g transform="matrix( 1, 0, 0, 1, 60.4,-41.65) ">
<g transform="matrix( 1, 0, 0, 1, 0,0) ">
<use xlink:href="#________________0_Layer1_0_FILL"/>
</g>
</g>

<g transform="matrix( 1, 0, 0, 1, 131.55,-124) ">
<g transform="matrix( 1, 0, 0, 1, 0,0) ">
<use xlink:href="#____mc__________________________0_Layer8_0_FILL"/>
</g>

<g transform="matrix( 1, 0, 0, 1, 1.75,25.35) ">
<g transform="matrix( 1, 0, 0, 1, 0,0) ">
<use xlink:href="#____________0_Layer1_0_FILL"/>

<use xlink:href="#____________0_Layer1_0_1_STROKES"/>
</g>

<g transform="matrix( 1, 0, 0, 1, 0,0) ">
<use xlink:href="#____________0_Layer0_0_FILL"/>
</g>
</g>

<g transform="matrix( 1, 0, 0, 1, -55.2,0.6) ">
<g transform="matrix( 1, 0, 0, 1, 0,0) ">
<use xlink:href="#________________0_Layer0_0_FILL_FL"/>
</g>
</g>

<g transform="matrix( 1, 0, 0, 1, -47.75,7.8) ">
<g transform="matrix( 1, 0, 0, 1, 0,0) ">
<use xlink:href="#__________________1_Layer1_0_FILL"/>
</g>
</g>

<g transform="matrix( 1, 0, 0, 1, -3.6,-6.3) ">
<g transform="matrix( 1, 0, 0, 1, 0,0) ">
<use xlink:href="#_________________0_Layer0_0_FILL_FL_FL"/>
</g>
</g>

<g transform="matrix( 1, 0, 0, 1, 38.3,1.9) ">
<g transform="matrix( 1, 0, 0, 1, 0,0) ">
<use xlink:href="#___________________1_Layer1_0_FILL"/>
</g>
</g>

<g transform="matrix( 1, 0, 0, 1, -39.9,-12.65) ">
<g transform="matrix( 1, 0, 0, 1, 0,0) ">
<use xlink:href="#______________0_Layer0_0_FILL"/>
</g>
</g>

<g transform="matrix( 1, 0, 0, 1, 33.9,-20.15) ">
<g transform="matrix( 1, 0, 0, 1, 0,0) ">
<use xlink:href="#_______________0_Layer0_0_FILL"/>
</g>
</g>
</g>
</g>
</svg>
