
<svg xmlns="http://www.w3.org/2000/svg" version="1.1" xmlns:xlink="http://www.w3.org/1999/xlink" preserveAspectRatio="none" x="0px" y="0px" width="335px" height="525px" viewBox="0 0 335 525">
<defs>
<g id="_________________________________________________1_Layer0_0_FILL">
<path fill="#271D1F" stroke="none" d="
M 221.85 255.85
Q 232.15 258.55 242.55 260.3
L 244.3 244
Q 233.8 242.5 223.65 240.1
L 221.85 255.85
M 195.85 231.65
L 194.65 246.75
Q 203.9 250.45 213.25 253.35
L 214.95 237.9
Q 205.25 235.2 195.85 231.65
M 201.15 201.25
Q 201.35 213.35 200.9 226 219.95 232.55 239.55 235.9 232.7 209.15 201.15 201.25
M 241.35 224.65
Q 240.2 224.1 239.1 223.5 241.4 228.1 243.3 233.45 242.1 228.85 241.35 224.65
M 278.45 246.5
Q 266 246.4 253.95 245.2
L 252.4 261.7
Q 265.1 263.2 278 263.25
L 278.45 246.5
M 308 245.5
Q 303.15 245.95 298.25 246.25 292.4 246.55 286.5 246.6
L 287.2 263.1
Q 298.25 262.7 309.45 261.2
L 308 245.5
M 200.7 187.9
Q 200.9 191.95 201 196.05 213.65 197.6 223.1 204.3 221.5 199.1 220.75 191.95 210.7 190.8 200.7 187.9
M 339.2 255.4
L 335.25 241.05
Q 325.55 243.25 315.55 244.6
L 318.05 259.9
Q 328.55 258.1 339.2 255.4
M 359.25 234
Q 351.4 236.8 343.3 239.05
L 347.5 253.15
Q 350.5 252.25 353.5 251.3
L 359.25 249.5 359.25 234
M 340.45 232.3
Q 339.2 232.35 337.95 232.4 325.15 233 311.5 233.1 307.15 233.1 304.5 233.1 304.8 233.05 305.15 233 266.2 233 247.6 227.1 248.85 232.05 250.85 237.55 260.05 238.65 269.45 239.05 304.15 240.55 340.45 232.3 Z"/>

<path fill="#77595F" stroke="none" d="
M 223.9 206.7
Q 228 217.5 239.1 223.5 232.8 211.15 223.1 204.3 223.45 205.55 223.9 206.7
M 220.65 191.35
Q 220.7 191.65 220.75 191.95 232.55 193.3 244.4 192.3 237.55 203.3 241.35 224.65 243.65 225.7 246.2 226.6 246.9 226.85 247.6 227.1 241.8 203.7 252.6 190.65
L 249.75 186.4
Q 248.15 184.65 246.7 182.85 234 184.1 219.95 182.1 220.3 188.1 220.65 191.35 Z"/>

<path fill="#010000" stroke="none" d="
M 223.65 240.1
Q 219.25 239.05 214.95 237.9
L 213.25 253.35
Q 217.55 254.7 221.85 255.85
L 223.65 240.1
M 278.45 246.5
L 278 263.25
Q 282.6 263.25 287.2 263.1
L 286.5 246.6
Q 282.5 246.6 278.45 246.5
M 253.95 245.2
Q 249.1 244.7 244.3 244
L 242.55 260.3
Q 247.45 261.1 252.4 261.7
L 253.95 245.2
M 315.55 244.6
Q 311.8 245.1 308 245.5
L 309.45 261.2
Q 313.75 260.65 318.05 259.9
L 315.55 244.6
M 343.3 239.05
Q 339.3 240.1 335.25 241.05
L 339.2 255.4
Q 343.35 254.3 347.5 253.15
L 343.3 239.05 Z"/>

<path fill="#5D454A" stroke="none" d="
M 250.85 237.55
Q 248.85 232.05 247.6 227.1 246.9 226.85 246.2 226.6 243.65 225.7 241.35 224.65 242.1 228.85 243.3 233.45 241.4 228.1 239.1 223.5 228 217.5 223.9 206.7 223.45 205.55 223.1 204.3 213.65 197.6 201 196.05 197.35 198.15 201.15 201.25 232.7 209.15 239.55 235.9 241.85 236.3 244.15 236.65 247.5 237.1 250.85 237.55
M 200.3 177.9
Q 195.85 184.05 200.7 187.9 210.7 190.8 220.75 191.95 220.7 191.65 220.65 191.35 220.3 188.1 219.95 182.1 217.35 181.75 214.75 181.25 209.5 180.3 204.05 178.9 202.2 178.45 200.3 177.9 Z"/>

<path fill="#4D3A3E" stroke="none" d="
M 286.5 246.6
Q 292.4 246.55 298.25 246.25 290.65 244.45 283.1 242.6 275 240.6 269.45 239.05 260.05 238.65 250.85 237.55 247.5 237.1 244.15 236.65 241.85 236.3 239.55 235.9 219.95 232.55 200.9 226
L 196.4 224.35 195.85 231.65
Q 205.25 235.2 214.95 237.9 219.25 239.05 223.65 240.1 233.8 242.5 244.3 244 249.1 244.7 253.95 245.2 266 246.4 278.45 246.5 282.5 246.6 286.5 246.6
M 244.4 192.3
Q 232.55 193.3 220.75 191.95 221.5 199.1 223.1 204.3 232.8 211.15 239.1 223.5 240.2 224.1 241.35 224.65 237.55 203.3 244.4 192.3
M 282.4 157.45
Q 262.35 159.75 244.2 168.7 245.7 172.15 247.85 175.6 261.25 166.15 283.5 163.75
L 282.4 157.45
M 240.4 149.25
Q 240.05 155.05 241.5 160.85 262.85 151.4 281.25 150.85
L 280.05 144.3
Q 260.25 141.05 240.4 149.25
M 337.95 232.4
Q 339.2 232.35 340.45 232.3 343.9 231.5 347.45 230.6 343.85 207.75 337.5 196.5 331.45 185.7 320.6 178.7 305.9 174.1 284.7 175.5 266.15 178.4 256.4 186.75 254.3 188.55 252.6 190.65 241.8 203.7 247.6 227.1 266.2 233 305.15 233 304.8 233.05 304.5 233.1 307.15 233.1 311.5 233.1 325.15 233 337.95 232.4
M 332.4 206.75
Q 330 209.75 325.8 209.75 314.75 209.75 302.85 206.75 287.85 202.95 287.75 198.1 287.6 193.25 289.3 190.75 291 188.25 302.2 186.6 315.85 188.95 321.05 190.55 334.4 194.65 334.4 201.25 334.4 204.25 332.4 206.75 Z"/>

<path fill="#72595F" stroke="none" d="
M 247.85 175.6
Q 249.4 178.1 251.35 180.65 267.7 170.3 284.1 169.6
L 283.5 163.75
Q 261.25 166.15 247.85 175.6
M 282.4 157.45
L 281.25 150.85
Q 262.85 151.4 241.5 160.85 242.45 164.75 244.2 168.7 262.35 159.75 282.4 157.45 Z"/>

<path fill="#C49A84" stroke="none" d="
M 235.6 144
Q 235.4 144.5 235.25 145 232.95 151.35 234.55 157.65 236.15 163.95 238.65 169.7 241.75 176.7 246.7 182.85 248.15 184.65 249.75 186.4
L 252.6 190.65
Q 254.3 188.55 256.4 186.75 266.15 178.4 284.7 175.5
L 284.1 169.6
Q 267.7 170.3 251.35 180.65 249.4 178.1 247.85 175.6 245.7 172.15 244.2 168.7 242.45 164.75 241.5 160.85 240.05 155.05 240.4 149.25 260.25 141.05 280.05 144.3
L 281.25 150.85 282.4 157.45 283.5 163.75 283.95 140
Q 280 138.85 276.25 138.05 252.2 133.1 235.6 144 Z"/>

<path fill="#FDFEFF" stroke="none" d="
M 235.25 145
Q 235.4 144.5 235.6 144 252.2 133.1 276.25 138.05 278.65 86.85 272.35 48.75 255.4 54.8 239.45 66.75 219.65 80.65 215.4 129.3 213.65 149.25 214.5 175.1 215.2 175.35 215.8 175.6 218.3 176.7 222.85 177 225.1 177.15 226.8 177.2 226.9 177.2 226.95 177.2 232.2 177.15 234 176 235.6 174.95 235.6 172.1 235.6 167.75 233 162.5 230.4 157.25 230.4 152.7 230.4 148.75 231 147.2 231.9 144.9 234.6 145
L 235.25 145 Z"/>

<path fill="#D1DDD8" stroke="none" d="
M 272.35 48.75
Q 271.55 44 270.65 39.5 260.9 16.35 230.15 18 204.4 23.95 196.65 51.5
L 204.05 178.9
Q 209.5 180.3 214.75 181.25 217.35 181.75 219.95 182.1 234 184.1 246.7 182.85 241.75 176.7 238.65 169.7 236.15 163.95 234.55 157.65 232.95 151.35 235.25 145
L 234.6 145
Q 231.9 144.9 231 147.2 230.4 148.75 230.4 152.7 230.4 157.25 233 162.5 235.6 167.75 235.6 172.1 235.6 174.95 234 176 232.2 177.15 226.95 177.2 226.9 177.2 226.8 177.2 225.1 177.15 222.85 177 218.3 176.7 215.8 175.6 215.2 175.35 214.5 175.1 213.65 149.25 215.4 129.3 219.65 80.65 239.45 66.75 255.4 54.8 272.35 48.75 Z"/>

<path fill="#795B62" stroke="none" d="
M 347.45 230.6
L 353.45 229
Q 353.35 188.9 320.6 178.7 331.45 185.7 337.5 196.5 343.85 207.75 347.45 230.6
M 325.8 209.75
Q 330 209.75 332.4 206.75 334.4 204.25 334.4 201.25 334.4 194.65 321.05 190.55 315.85 188.95 302.2 186.6 291 188.25 289.3 190.75 287.6 193.25 287.75 198.1 287.85 202.95 302.85 206.75 314.75 209.75 325.8 209.75 Z"/>

<path fill="#8B6F64" stroke="none" d="
M 335.25 241.05
Q 339.3 240.1 343.3 239.05 351.4 236.8 359.25 234
L 359.25 229 353.45 229 347.45 230.6
Q 343.9 231.5 340.45 232.3 304.15 240.55 269.45 239.05 275 240.6 283.1 242.6 290.65 244.45 298.25 246.25 303.15 245.95 308 245.5 311.8 245.1 315.55 244.6 325.55 243.25 335.25 241.05 Z"/>
</g>

<g id="_________________________________________________2_Layer0_0_FILL">
<path fill="#271D1F" stroke="none" d="
M 221.85 255.85
Q 232.15 258.55 242.55 260.3
L 244.3 244
Q 233.8 242.5 223.65 240.1
L 221.85 255.85
M 195.85 231.65
L 194.65 246.75
Q 203.9 250.45 213.25 253.35
L 214.95 237.9
Q 205.25 235.2 195.85 231.65
M 201.15 201.25
Q 201.35 213.35 200.9 226 219.95 232.55 239.55 235.9 232.7 209.15 201.15 201.25
M 241.35 224.65
Q 240.2 224.1 239.1 223.5 241.4 228.1 243.3 233.45 242.1 228.85 241.35 224.65
M 278.45 246.5
Q 266 246.4 253.95 245.2
L 252.4 261.7
Q 265.1 263.2 278 263.25
L 278.45 246.5
M 308 245.5
Q 303.15 245.95 298.25 246.25 292.4 246.55 286.5 246.6
L 287.2 263.1
Q 298.25 262.7 309.45 261.2
L 308 245.5
M 200.7 187.9
Q 200.9 191.95 201 196.05 213.65 197.6 223.1 204.3 221.5 199.1 220.75 191.95 210.7 190.8 200.7 187.9
M 339.2 255.4
L 335.25 241.05
Q 325.55 243.25 315.55 244.6
L 318.05 259.9
Q 328.55 258.1 339.2 255.4
M 359.25 234
Q 351.4 236.8 343.3 239.05
L 347.5 253.15
Q 350.5 252.25 353.5 251.3
L 359.25 249.5 359.25 234
M 340.45 232.3
Q 339.2 232.35 337.95 232.4 325.15 233 311.5 233.1 307.15 233.1 304.5 233.1 304.8 233.05 305.15 233 266.2 233 247.6 227.1 248.85 232.05 250.85 237.55 260.05 238.65 269.45 239.05 304.15 240.55 340.45 232.3 Z"/>

<path fill="#77595F" stroke="none" d="
M 223.9 206.7
Q 228 217.5 239.1 223.5 232.8 211.15 223.1 204.3 223.45 205.55 223.9 206.7
M 220.65 191.35
Q 220.7 191.65 220.75 191.95 232.55 193.3 244.4 192.3 237.55 203.3 241.35 224.65 243.65 225.7 246.2 226.6 246.9 226.85 247.6 227.1 241.8 203.7 252.6 190.65
L 249.75 186.4
Q 248.15 184.65 246.7 182.85 234 184.1 219.95 182.1 220.3 188.1 220.65 191.35 Z"/>

<path fill="#010000" stroke="none" d="
M 223.65 240.1
Q 219.25 239.05 214.95 237.9
L 213.25 253.35
Q 217.55 254.7 221.85 255.85
L 223.65 240.1
M 278.45 246.5
L 278 263.25
Q 282.6 263.25 287.2 263.1
L 286.5 246.6
Q 282.5 246.6 278.45 246.5
M 253.95 245.2
Q 249.1 244.7 244.3 244
L 242.55 260.3
Q 247.45 261.1 252.4 261.7
L 253.95 245.2
M 315.55 244.6
Q 311.8 245.1 308 245.5
L 309.45 261.2
Q 313.75 260.65 318.05 259.9
L 315.55 244.6
M 343.3 239.05
Q 339.3 240.1 335.25 241.05
L 339.2 255.4
Q 343.35 254.3 347.5 253.15
L 343.3 239.05 Z"/>

<path fill="#5D454A" stroke="none" d="
M 250.85 237.55
Q 248.85 232.05 247.6 227.1 246.9 226.85 246.2 226.6 243.65 225.7 241.35 224.65 242.1 228.85 243.3 233.45 241.4 228.1 239.1 223.5 228 217.5 223.9 206.7 223.45 205.55 223.1 204.3 213.65 197.6 201 196.05 197.35 198.15 201.15 201.25 232.7 209.15 239.55 235.9 241.85 236.3 244.15 236.65 247.5 237.1 250.85 237.55
M 200.3 177.9
Q 195.85 184.05 200.7 187.9 210.7 190.8 220.75 191.95 220.7 191.65 220.65 191.35 220.3 188.1 219.95 182.1 217.35 181.75 214.75 181.25 209.5 180.3 204.05 178.9 202.2 178.45 200.3 177.9 Z"/>

<path fill="#4D3A3E" stroke="none" d="
M 286.5 246.6
Q 292.4 246.55 298.25 246.25 290.65 244.45 283.1 242.6 275 240.6 269.45 239.05 260.05 238.65 250.85 237.55 247.5 237.1 244.15 236.65 241.85 236.3 239.55 235.9 219.95 232.55 200.9 226
L 196.4 224.35 195.85 231.65
Q 205.25 235.2 214.95 237.9 219.25 239.05 223.65 240.1 233.8 242.5 244.3 244 249.1 244.7 253.95 245.2 266 246.4 278.45 246.5 282.5 246.6 286.5 246.6
M 244.4 192.3
Q 232.55 193.3 220.75 191.95 221.5 199.1 223.1 204.3 232.8 211.15 239.1 223.5 240.2 224.1 241.35 224.65 237.55 203.3 244.4 192.3
M 282.4 157.45
Q 262.35 159.75 244.2 168.7 245.7 172.15 247.85 175.6 261.25 166.15 283.5 163.75
L 282.4 157.45
M 240.4 149.25
Q 240.05 155.05 241.5 160.85 262.85 151.4 281.25 150.85
L 280.05 144.3
Q 260.25 141.05 240.4 149.25
M 337.95 232.4
Q 339.2 232.35 340.45 232.3 343.9 231.5 347.45 230.6 343.85 207.75 337.5 196.5 331.45 185.7 320.6 178.7 305.9 174.1 284.7 175.5 266.15 178.4 256.4 186.75 254.3 188.55 252.6 190.65 241.8 203.7 247.6 227.1 266.2 233 305.15 233 304.8 233.05 304.5 233.1 307.15 233.1 311.5 233.1 325.15 233 337.95 232.4
M 332.4 206.75
Q 330 209.75 325.8 209.75 314.75 209.75 302.85 206.75 287.85 202.95 287.75 198.1 287.6 193.25 289.3 190.75 291 188.25 302.2 186.6 315.85 188.95 321.05 190.55 334.4 194.65 334.4 201.25 334.4 204.25 332.4 206.75 Z"/>

<path fill="#72595F" stroke="none" d="
M 247.85 175.6
Q 249.4 178.1 251.35 180.65 267.7 170.3 284.1 169.6
L 283.5 163.75
Q 261.25 166.15 247.85 175.6
M 282.4 157.45
L 281.25 150.85
Q 262.85 151.4 241.5 160.85 242.45 164.75 244.2 168.7 262.35 159.75 282.4 157.45 Z"/>

<path fill="#C49A84" stroke="none" d="
M 235.6 144
Q 235.4 144.5 235.25 145 232.95 151.35 234.55 157.65 236.15 163.95 238.65 169.7 241.75 176.7 246.7 182.85 248.15 184.65 249.75 186.4
L 252.6 190.65
Q 254.3 188.55 256.4 186.75 266.15 178.4 284.7 175.5
L 284.1 169.6
Q 267.7 170.3 251.35 180.65 249.4 178.1 247.85 175.6 245.7 172.15 244.2 168.7 242.45 164.75 241.5 160.85 240.05 155.05 240.4 149.25 260.25 141.05 280.05 144.3
L 281.25 150.85 282.4 157.45 283.5 163.75 283.95 140
Q 280 138.85 276.25 138.05 252.2 133.1 235.6 144 Z"/>

<path fill="#D1DDD8" stroke="none" d="
M 210.1 43.95
Q 214.470703125 18.906640625 234.4 8.4 205.625390625 1.56484375 193.9 17.1
L 204.05 178.9
Q 209.5 180.3 214.75 181.25 217.35 181.75 219.95 182.1 234 184.1 246.7 182.85 241.75 176.7 238.65 169.7 236.15 163.95 234.55 157.65 232.95 151.35 235.25 145
L 234.6 145
Q 231.9 144.9 231 147.2 230.4 148.75 230.4 152.7 230.4 157.25 233 162.5 235.6 167.75 235.6 172.1 235.6 174.95 234 176 232.2 177.15 226.95 177.2 226.9 177.2 226.8 177.2 225.1 177.15 222.85 177 218.3 176.7 215.8 175.6 215.2 175.35 214.5 175.1 213.9736328125 159.0947265625 214.45 145.35
L 210.1 43.95 Z"/>

<path fill="#FDFEFF" stroke="none" d="
M 272.35 48.75
Q 271.55 44 270.65 39.5 260.9 16.35 241.45 10.35 237.8099609375 9.22734375 234.4 8.4 214.470703125 18.906640625 210.1 43.95
L 214.45 145.35
Q 213.9736328125 159.0947265625 214.5 175.1 215.2 175.35 215.8 175.6 218.3 176.7 222.85 177 225.1 177.15 226.8 177.2 226.9 177.2 226.95 177.2 232.2 177.15 234 176 235.6 174.95 235.6 172.1 235.6 167.75 233 162.5 230.4 157.25 230.4 152.7 230.4 148.75 231 147.2 231.9 144.9 234.6 145
L 235.25 145
Q 235.4 144.5 235.6 144 252.2 133.1 276.25 138.05 278.65 86.85 272.35 48.75 Z"/>

<path fill="#795B62" stroke="none" d="
M 347.45 230.6
L 353.45 229
Q 353.35 188.9 320.6 178.7 331.45 185.7 337.5 196.5 343.85 207.75 347.45 230.6
M 325.8 209.75
Q 330 209.75 332.4 206.75 334.4 204.25 334.4 201.25 334.4 194.65 321.05 190.55 315.85 188.95 302.2 186.6 291 188.25 289.3 190.75 287.6 193.25 287.75 198.1 287.85 202.95 302.85 206.75 314.75 209.75 325.8 209.75 Z"/>

<path fill="#8B6F64" stroke="none" d="
M 335.25 241.05
Q 339.3 240.1 343.3 239.05 351.4 236.8 359.25 234
L 359.25 229 353.45 229 347.45 230.6
Q 343.9 231.5 340.45 232.3 304.15 240.55 269.45 239.05 275 240.6 283.1 242.6 290.65 244.45 298.25 246.25 303.15 245.95 308 245.5 311.8 245.1 315.55 244.6 325.55 243.25 335.25 241.05 Z"/>
</g>

<g id="____________________________________________________3_Layer0_0_FILL">
<path fill="#FDFEFF" stroke="none" d="
M 187.7 274.6
Q 188.4 275.2 189.1 275.85 198.8 284.5 204.2 296.45 205.2 298.7 206.25 301
L 207.7 304.15
Q 208.6 304.25 209.45 304.35 224.75 305.8 226.45 290.55 226.5 289.4 226.6 288.25 226.878125 285.6083984375 226.6 283.1 226.1677734375 279.2958984375 224.45 275.8 224.15 275.6 224 275.3 218.5 267 209.15 260.3 199.7 253.55 187.55 267.15 185.6 270.65 187.7 274.6
M 187.6 267.5
Q 187.8359375 267.981640625 188.05 268.45
L 188.05 268.5
Q 187.8275390625 268.0005859375 187.6 267.5
M 162.65 283.35
Q 162.75 283.5 162.9 283.65 168.45 289.95 172.75 297.05 173.55 298.25 174.25 299.55 176.4 303.65 177.55 308.15 178 310.05 178.55 312
L 179.5 314.7
Q 187.35 319.55 196.4 315.65 200.201171875 314.1966796875 202.75 312.2 211.3353515625 302.031640625 179.65 270.55 169.3109375 268.372265625 162.65 283.35
M 151.8 280.35
Q 159.04140625 280.2841796875 161.8 282.45 162.4044921875 272.2763671875 170.9 268.6 170.9380859375 268.605078125 170.95 268.6 176.9685546875 266.265234375 185.15 272.5 182.971484375 266.061328125 189.55 260.85 196.675 255.6216796875 203.6 255.25 212.5640625 255.9912109375 219.8 266.85 228.2328125 278.001953125 227.75 282.6 235.8671875 279.065234375 237.55 272.1 242.6 251.35 226.8 240.55 224 238.65 220.55 237.1 219.6 236.95 218.65 236.85 216.65 236.5 198.75 214.55 164.7 244.55 114 254.35 115.500390625 274.0958984375 126.7 293.75 134.6140625 299.0431640625 135.75 293.75 139.1056640625 281.4205078125 151.8 280.35
M 158.9 282.75
Q 157.868359375 282.6978515625 156.55 282.65 151 282.4 145.15 285.9 139.2 289.45 138.25 297.05 138.15 299.6 139.3 301.9
L 153.55 323.35 153.6 323.4
Q 158.65 330.8 168.55 326.5 171.848046875 325.0361328125 174.15 323.2 182.883203125 311.3126953125 158.9 282.75 Z"/>

<path fill="#D1DDD8" stroke="none" d="
M 188.05 268.45
Q 187.8359375 267.981640625 187.6 267.5 187.8275390625 268.0005859375 188.05 268.5
L 188.05 268.45
M 113.55 247
Q 113.7 250.75 114 254.35 164.7 244.55 198.75 214.55 197.2 212.8 195.45 210.9 156.25 233.15 113.55 247
M 156.55 282.65
Q 157.868359375 282.6978515625 158.9 282.75 182.883203125 311.3126953125 174.15 323.2 178.737109375 319.6427734375 179.5 314.7
L 178.55 312
Q 178 310.05 177.55 308.15 176.4 303.65 174.25 299.55 173.55 298.25 172.75 297.05 168.45 289.95 162.9 283.65 162.75 283.5 162.65 283.35 169.3109375 268.372265625 179.65 270.55 211.3353515625 302.031640625 202.75 312.2 207.0099609375 308.9177734375 207.7 304.15
L 206.25 301
Q 205.2 298.7 204.2 296.45 198.8 284.5 189.1 275.85 188.4 275.2 187.7 274.6 187.23046875 274.1841796875 186.75 273.8 186.80859375 273.821875 186.85 273.85 187.25 274.15 187.7 274.6 185.6 270.65 187.55 267.15 199.7 253.55 209.15 260.3 218.5 267 224 275.3 224.15 275.6 224.45 275.8 226.1677734375 279.2958984375 226.6 283.1 227.1953125 282.8689453125 227.75 282.6 228.2328125 278.001953125 219.8 266.85 212.5640625 255.9912109375 203.6 255.25 196.675 255.6216796875 189.55 260.85 182.971484375 266.061328125 185.15 272.5 176.9685546875 266.265234375 170.95 268.6 170.9380859375 268.605078125 170.9 268.6 162.4044921875 272.2763671875 161.8 282.45 159.04140625 280.2841796875 151.8 280.35 139.1056640625 281.4205078125 135.75 293.75 134.6140625 299.0431640625 126.7 293.75 131.8400390625 302.7275390625 138.95 311.65 138.990234375 311.6876953125 139 311.7 146.1919921875 320.4986328125 153.55 323.35
L 139.3 301.9
Q 138.15 299.6 138.25 297.05 139.2 289.45 145.15 285.9 151 282.4 156.55 282.65 Z"/>

<path fill="#663137" stroke="none" d="
M 117.1 232.7
Q 105.45 231 100.45 225.95 97.75 226.6 95.2 227
L 100.95 245.6
Q 102.4 248.65 107.25 248.9 110.4 247.95 113.55 247 156.25 233.15 195.45 210.9 152.85 232.05 117.1 232.7
M 58.5 71.4
Q 64.25 120.3 84 178.75
L 98.45 221.8
Q 130.8 213.05 160.45 198.8 93.6 227.85 58.5 71.4 Z"/>

<path fill="#804C3F" stroke="none" d="
M 100.45 225.95
Q 105.45 231 117.1 232.7 152.85 232.05 195.45 210.9 197.05 210 198.55 209.15
L 190.95 186.4
Q 138.55 217.55 100.45 225.95
M 184.3 186.1
Q 181.65 180.3 179.15 174.5 175.7 171.45 172.5 167.5 166.95 159.8 164.05 156.45 161.8 153.7 159.75 149.55 157.4 144.95 156.75 143.95 153.4 139.4 144.1 143.45 143.95 143.2 143.9 142.4
L 143.9 141.85
Q 152.3 139.65 154.25 132.85 155.65 127.8 153.95 117.2 151.15 99.7 151.05 97.65 149.95 85.55 152.95 76.6
L 153.45 76.7
Q 152.85 72.4 152.45 67.95 143 26.75 94.75 24.55 49.55 31.5 58.5 71.4 93.6 227.85 160.45 198.8 172.6 192.9 184.3 186.1 Z"/>

<path fill="#A05945" stroke="none" d="
M 172.5 167.5
Q 175.7 171.45 179.15 174.5 159.45 128.25 153.45 76.7
L 152.95 76.6
Q 149.95 85.55 151.05 97.65 151.15 99.7 153.95 117.2 155.65 127.8 154.25 132.85 152.3 139.65 143.9 141.85
L 143.9 142.4
Q 143.95 143.2 144.1 143.45 153.4 139.4 156.75 143.95 157.4 144.95 159.75 149.55 161.8 153.7 164.05 156.45 166.95 159.8 172.5 167.5
M 190.95 186.4
Q 189.1 183.5 184.3 186.1 172.6 192.9 160.45 198.8 130.8 213.05 98.45 221.8 94.4 224.45 95.2 227 97.75 226.6 100.45 225.95 138.55 217.55 190.95 186.4 Z"/>
</g>

<g id="__________________________________________1_Layer0_0_FILL">
<path fill="#281214" stroke="none" d="
M 205.6 355
L 204.95 361.8
Q 209.2 361.85 213.45 361.8
L 214.05 355.8 205.6 355
M 215.1 345.8
L 206.5 345 206.1 349.7 214.6 350.4 215.1 345.8
M 207.45 335
L 207 339.7 215.65 340.45 216.1 335.85 207.45 335
M 216.65 330.45
L 217.15 325.6 208.4 324.8 207.95 329.7 216.65 330.45
M 209.3 314.85
L 208.9 319.5 217.7 320.2 218.15 315.65 209.3 314.85
M 211.4 292.35
L 211.1 295.65 210.25 304.7 209.8 309.5 218.7 310.25 219.1 306.15 219.1 298.4 211.4 292.35 Z"/>

<path fill="#FFFFFF" stroke="none" d="
M 201.35 349.3
L 201.1 351.9 220.5 353.1 220.5 350.9 214.6 350.4 206.1 349.7 201.35 349.3
M 221.5 343.1
L 221.5 340.9 215.65 340.45 207 339.7 202.35 339.3 202.1 341.9 221.5 343.1
M 222.25 330.9
L 216.65 330.45 207.95 329.7 203.1 329.3 202.85 331.9 222.25 333.1 222.25 330.9
M 203.85 319.05
L 203.6 321.65 223 322.85 223 320.65 217.7 320.2 208.9 319.5 203.85 319.05
M 223.5 312.85
L 223.5 310.65 218.7 310.25 209.8 309.5 204.35 309.05 204.1 311.65 223.5 312.85
M 187.75 242.8
Q 185.25 240.3 181.75 240.3 178.2 240.3 175.8 242.8 175.55 243.05 175.35 243.3
L 179.05 246.5
Q 179.15 246.4 179.25 246.3 180.25 245.25 181.75 245.25 183.2 245.25 184.25 246.3 185.25 247.3 185.25 248.75 185.25 249.55 184.95 250.25
L 189.75 251.55
Q 190.2 250.25 190.2 248.75 190.2 245.25 187.75 242.8
M 157.1 208.5
Q 157.55 207.191796875 157.55 205.7 157.55 202.2 155.1 199.75 152.6 197.25 149.1 197.25 145.55 197.25 143.15 199.75 142.90625 199.9888671875 142.65 200.25
L 146.4 203.45
Q 146.49609375 203.3490234375 146.6 203.25 147.6 202.2 149.1 202.2 150.55 202.2 151.6 203.25 152.6 204.25 152.6 205.7 152.6 206.509765625 152.3 207.2
L 157.1 208.5
M 208.1 200.5
Q 224.65 222.35 227.9 245.85 229.15 259.25 225.7 271.7
L 275.1 200.25
Q 243.9 206.4 208.1 200.5
M 312.5 220.15
Q 313.5 221.15 313.5 222.6 313.5 223.4 313.2 224.1
L 318 225.4
Q 318.45 224.1 318.45 222.6 318.45 219.1 316 216.65 313.5 214.15 310 214.15 306.45 214.15 304.05 216.65 303.8 216.9 303.6 217.15
L 307.3 220.35
Q 307.4 220.25 307.5 220.15 308.5 219.1 310 219.1 311.45 219.1 312.5 220.15
M 151.25 365
Q 102.8 356.35 91.45 393.5 104.6 404.85 125.25 411.55 202.65 439.25 270.45 411.55 311.95 394.1 322.95 353.8 301.4 361.35 277.95 365 214.6 374.2 151.25 365
M 117.2 135.3
Q 116.7 133.45 115.5 131.25
L 111.05 130.95 94.5 130 117.2 135.3
M 151.5 142.65
L 146.05 144.05 135.85 146.7 152.7 147.15
Q 152.35 145.05 151.5 142.65
M 77.5 112.45
L 73.7 111.85 69.8 111.2 52.35 108.45 79.3 116.85
Q 78.85 114.9 77.5 112.45
M 311.8 169.25
L 309.6 168.4 305.5 166.9
Q 305.3 167.05 305.15 167.15 302.7 169.05 301.55 170.95
L 330.75 174 311.8 169.25
M 280.6 171.85
L 265.05 166.2 260.9 164.65
Q 258.6 166.35 257.4 168.05
L 280.6 171.85
M 228.1 161.75
L 223.7 158.3
Q 221.55 160.6 220.35 162.75
L 236.4 168.2 228.1 161.75
M 192.35 157.35
Q 191.65 154.4 189.15 152.5 186.3 150.3 182.7 150.75 182.55 150.8 182.35 150.8
L 183.7 159.15 192.35 157.35 Z"/>

<path fill="#CCCCCC" stroke="none" d="
M 201.1 351.9
L 200.85 354.55 205.6 355 214.05 355.8 220.5 356.4 220.5 353.1 201.1 351.9
M 215.1 345.8
L 221.5 346.4 221.5 343.1 202.1 341.9 201.85 344.55 206.5 345 215.1 345.8
M 202.6 334.55
L 207.45 335 216.1 335.85 222.25 336.4 222.25 333.1 202.85 331.9 202.6 334.55
M 203.35 324.3
L 208.4 324.8 217.15 325.6 223 326.15 223 322.85 203.6 321.65 203.35 324.3
M 223.5 316.15
L 223.5 312.85 204.1 311.65 203.85 314.3 209.3 314.85 218.15 315.65 223.5 316.15
M 179.05 246.5
L 175.35 243.3
Q 173.3 245.6 173.3 248.75 173.3 252.25 175.8 254.75 178.2 257.2 181.75 257.2 185.25 257.2 187.75 254.75 189.15 253.3 189.75 251.55
L 184.95 250.25
Q 184.7 250.8 184.25 251.25 183.2 252.25 181.75 252.25 180.25 252.25 179.25 251.25 178.2 250.2 178.2 248.75 178.2 247.45 179.05 246.5
M 157.1 208.5
L 152.3 207.2
Q 152.0416015625 207.736328125 151.6 208.2 150.55 209.2 149.1 209.2 147.6 209.2 146.6 208.2 145.55 207.15 145.55 205.7 145.55 204.3935546875 146.4 203.45
L 142.65 200.25
Q 140.65 202.54140625 140.65 205.7 140.65 209.2 143.15 211.7 145.55 214.15 149.1 214.15 152.6 214.15 155.1 211.7 156.505859375 210.2654296875 157.1 208.5
M 306.45 222.6
Q 306.45 221.3 307.3 220.35
L 303.6 217.15
Q 301.55 219.45 301.55 222.6 301.55 226.1 304.05 228.6 306.45 231.05 310 231.05 313.5 231.05 316 228.6 317.4 227.15 318 225.4
L 313.2 224.1
Q 312.95 224.65 312.5 225.1 311.45 226.1 310 226.1 308.5 226.1 307.5 225.1 306.45 224.05 306.45 222.6 Z"/>

<path fill="#804C3F" stroke="none" d="
M 211.4 292.35
L 219.7 280.35 220.4 258.85
Q 216.3 242.55 207.35 224.3
L 183.8 186.7 127 167.95 130.45 226.3
Q 159.9 219.4 182.8 221.8 150.6 243.3 162.5 253.55
L 211.1 295.65 211.4 292.35
M 157.55 205.7
Q 157.55 207.191796875 157.1 208.5 156.505859375 210.2654296875 155.1 211.7 152.6 214.15 149.1 214.15 145.55 214.15 143.15 211.7 140.65 209.2 140.65 205.7 140.65 202.54140625 142.65 200.25 142.90625 199.9888671875 143.15 199.75 145.55 197.25 149.1 197.25 152.6 197.25 155.1 199.75 157.55 202.2 157.55 205.7
M 181.75 240.3
Q 185.25 240.3 187.75 242.8 190.2 245.25 190.2 248.75 190.2 250.25 189.75 251.55 189.15 253.3 187.75 254.75 185.25 257.2 181.75 257.2 178.2 257.2 175.8 254.75 173.3 252.25 173.3 248.75 173.3 245.6 175.35 243.3 175.55 243.05 175.8 242.8 178.2 240.3 181.75 240.3
M 310 259.8
L 288.45 237.3 326.4 241.95
Q 324.2998046875 218.8375 312.75 196.4 300.721484375 192.4701171875 280.2 202.5
L 214.4 291.4 310 259.8
M 304.05 216.65
Q 306.45 214.15 310 214.15 313.5 214.15 316 216.65 318.45 219.1 318.45 222.6 318.45 224.1 318 225.4 317.4 227.15 316 228.6 313.5 231.05 310 231.05 306.45 231.05 304.05 228.6 301.55 226.1 301.55 222.6 301.55 219.45 303.6 217.15 303.8 216.9 304.05 216.65
M 80.4 140.55
Q 76.7 158.7 73.75 176.75 73.604296875 225.5484375 83.85 261.6 136.591796875 290.169140625 189.3 307.9 193.2451171875 309.00703125 192.35 312.05 192.11328125 312.701953125 191.75 313.2 191.8140625 313.8244140625 191.6 314.55 190.4 317.85 186 317.45 135.89765625 300.814453125 89 277.1 92.3361328125 285.866796875 96.4 293.75 141.8501953125 317.0919921875 187.3 332.4 191.25 333.5 190.35 336.55 190.11796875 337.187890625 189.75 337.7 189.775 338.2068359375 189.6 338.8 188.4 342.1 184 341.7 144.448828125 328.5958984375 106.95 311.05 137.2716796875 353.2560546875 195.3 361.6 200.15 361.75 204.95 361.8
L 205.6 355 200.85 354.55 201.1 351.9 201.35 349.3 206.1 349.7 206.5 345 201.85 344.55 202.1 341.9 202.35 339.3 207 339.7 207.45 335 202.6 334.55 202.85 331.9 203.1 329.3 207.95 329.7 208.4 324.8 203.35 324.3 203.6 321.65 203.85 319.05 208.9 319.5 209.3 314.85 203.85 314.3 204.1 311.65 204.35 309.05 209.8 309.5 210.25 304.7 156.05 258.05
Q 143.65 241.5 164.8 228.8
L 126.75 235.05 112.5 162.2 80.4 140.55
M 329.8 281.9
Q 328.6638671875 266.0115234375 326.5 250.35
L 302.95 245.35 316.25 258.05
Q 320.15 268.3 310.25 273.6
L 219.1 306.15 218.7 310.25 223.5 310.65 223.5 312.85 223.5 316.15 218.15 315.65 217.7 320.2 223 320.65 223 322.85 223 326.15 217.15 325.6 216.65 330.45 222.25 330.9 222.25 333.1 222.25 336.4 216.1 335.85 215.65 340.45 221.5 340.9 221.5 343.1 221.5 346.4 215.1 345.8 214.6 350.4 220.5 350.9 220.5 353.1 220.5 356.4 214.05 355.8 213.45 361.8
Q 271 361.1 325.4 342.25 327.95 341.35 330.5 340.45 330.9439453125 330.7365234375 331 321.1 287.379296875 338.19453125 241.8 345.7 238.3 345.05 237.8 342.45 237.6978515625 341.6833984375 237.8 341 237.440234375 340.4462890625 237.3 339.7 236.8759765625 336.675390625 240.05 335.45 285.5125 327.721875 330.95 308.45 330.8322265625 300.4314453125 330.45 292.45 286.6029296875 312.9900390625 238.8 322.7 235.65 323.1 235.3 319.2 235.278125 318.95859375 235.3 318.7 234.903515625 317.92890625 234.8 316.7 234.6154296875 314.4921875 237.3 313.4 285.02890625 302.08671875 329.8 281.9 Z"/>

<path fill="#2E1E1F" stroke="none" d="
M 184.25 246.3
Q 183.2 245.25 181.75 245.25 180.25 245.25 179.25 246.3 179.15 246.4 179.05 246.5 178.2 247.45 178.2 248.75 178.2 250.2 179.25 251.25 180.25 252.25 181.75 252.25 183.2 252.25 184.25 251.25 184.7 250.8 184.95 250.25 185.25 249.55 185.25 248.75 185.25 247.3 184.25 246.3
M 152.3 207.2
Q 152.6 206.509765625 152.6 205.7 152.6 204.25 151.6 203.25 150.55 202.2 149.1 202.2 147.6 202.2 146.6 203.25 146.49609375 203.3490234375 146.4 203.45 145.55 204.3935546875 145.55 205.7 145.55 207.15 146.6 208.2 147.6 209.2 149.1 209.2 150.55 209.2 151.6 208.2 152.0416015625 207.736328125 152.3 207.2
M 313.5 222.6
Q 313.5 221.15 312.5 220.15 311.45 219.1 310 219.1 308.5 219.1 307.5 220.15 307.4 220.25 307.3 220.35 306.45 221.3 306.45 222.6 306.45 224.05 307.5 225.1 308.5 226.1 310 226.1 311.45 226.1 312.5 225.1 312.95 224.65 313.2 224.1 313.5 223.4 313.5 222.6
M 191.35 168.45
Q 188.9 170.55 185.4 171 182.8 171.35 180.5 170.65 178.6 170 176.85 168.65 174.35 166.85 173.2 164.2 163.3 161.6 153.8 158.7 151.1 161.2 147.75 161.65 145.8 161.9 144.5 161.05 143.25 160.25 143.1 159 142.95 157.8 143 157.55 143.05 157.4 143.3 157
L 141.65 154.65
Q 129.25 150.35 117.45 145.4 115.25 146.45 112.25 146.8 110.7 147.05 109.4 145.7 108.45 144.75 108.25 143.75 108.2 143.6 108.2 143.5 108.1 142.65 108.3 142.15
L 108.35 142.1 106.55 140.55
Q 94.4 134.9 82.95 128.5 81.4 127.65 79.85 126.75 77.95 127.75 75.25 128.1 72.85 128.4 71.75 128 70.35 127.35 70.1 125.25 70.05 125.1 70.05 125 70 124.3 70.3 123.35
L 65.25 119.2 61.85 124.9 68.6 129.35
Q 68.8 129.5 69.1 129.65 75.05 133.25 81.2 136.7 126.65 161.75 183.4 174.45 230 184.9 284.3 186.95 294.75 187.35 305.5 187.45
L 310.35 187.6 312.6 187.65 312.3 180.65 309.7 180.6
Q 308.55 180.6 307.5 180.6 307.35 180.8 307.25 181 306.9 181.55 306.4 181.95 306 182.25 305.5 182.45 305.35 182.5 305.2 182.55 303.55 183.3 302.15 182.45 300.55 181.5 299.35 180.5 280.55 180.05 262.75 178.65 262.7 178.75 262.65 178.8 262.05 179.75 260.65 180.3 258.95 181 257.55 180.25 255.8 179.15 254.45 177.95 239.75 176.55 225.8 174.55
L 225.5 174.7
Q 225.55 175.2 225.55 175.3 225.5 175.6 224.85 176.6 224.2 177.75 222.75 178 221.25 178.2 219.6 177.2 217.1 175.7 215.65 173.05 203.25 170.95 191.35 168.45 Z"/>

<path fill="#B46A58" stroke="none" d="
M 307.25 268.35
Q 312 264.55 310 259.8
L 214.4 291.4 211.4 292.35 219.1 298.4 307.25 268.35 Z"/>

<path fill="#663137" stroke="none" d="
M 64.45 250.7
Q 74.166796875 256.334765625 83.85 261.6 73.604296875 225.5484375 73.75 176.75 67.6076171875 213.9546875 64.45 250.7
M 61.15 333.95
Q 64.7 335.25 68.25 336.5 133.55 359.3 195.3 361.6 137.2716796875 353.2560546875 106.95 311.05 105.2509765625 310.25703125 103.55 309.45 94.15 305 84.95 300.3 73.3591796875 294.4072265625 62 288.1 60.9880859375 311.13046875 61.15 333.95
M 81.9 286.1
Q 89.1501953125 290.027734375 96.4 293.75 92.3361328125 285.866796875 89 277.1 87.97578125 276.573046875 86.95 276.05 75.0767578125 270.0400390625 63.45 263.55 63.02265625 269.3916015625 62.65 275.2 62.6783203125 275.2693359375 62.65 275.3 72.2615234375 280.9099609375 81.9 286.1 Z"/>

<path fill="#E17D61" stroke="none" d="
M 96.4 293.75
Q 97.3451171875 295.583984375 98.3 297.35 142.43984375 319.8009765625 186.55 334.65 189.731640625 335.5361328125 189.75 337.7 190.11796875 337.187890625 190.35 336.55 191.25 333.5 187.3 332.4 141.8501953125 317.0919921875 96.4 293.75
M 83.85 261.6
Q 84.371875 263.33515625 84.9 265.05 136.7208984375 292.943359375 188.55 310.4 191.5603515625 311.23828125 191.75 313.2 192.11328125 312.701953125 192.35 312.05 193.2451171875 309.00703125 189.3 307.9 136.591796875 290.169140625 83.85 261.6
M 331 311.4
Q 330.99921875 309.9263671875 330.95 308.45 285.5125 327.721875 240.05 335.45 236.8759765625 336.675390625 237.3 339.7 237.440234375 340.4462890625 237.8 341 238.2048828125 339.1306640625 240.55 338.2 285.7580078125 330.4912109375 331 311.4
M 329.95 284.55
Q 329.8939453125 283.22109375 329.8 281.9 285.02890625 302.08671875 237.3 313.4 234.6154296875 314.4921875 234.8 316.7 234.903515625 317.92890625 235.3 318.7 235.3962890625 316.879296875 237.8 315.9 285.3794921875 304.6404296875 329.95 284.55 Z"/>

<path fill="#D6DCDA" stroke="none" d="
M 91.45 393.5
Q 102.8 356.35 151.25 365 214.6 374.2 277.95 365 301.4 361.35 322.95 353.8 324.45 348.25 325.4 342.25 271 361.1 213.45 361.8 209.2 361.85 204.95 361.8 200.15 361.75 195.3 361.6 133.55 359.3 68.25 336.5 67.3 372.75 91.45 393.5
M 284.3 186.95
Q 230 184.9 183.4 174.45 209.75 209.75 220.9 243.05
L 220.4 258.85 219.7 280.35 225.7 271.7
Q 229.15 259.25 227.9 245.85 224.65 222.35 208.1 200.5 243.9 206.4 275.1 200.25
L 284.3 186.95 Z"/>

<path fill="#58342B" stroke="none" d="
M 104.25 307.15
Q 105.587109375 309.1494140625 106.95 311.05 144.448828125 328.5958984375 184 341.7 188.4 342.1 189.6 338.8 189.775 338.2068359375 189.75 337.7 188.2994140625 339.77265625 184.75 339.45 143.4140625 325.7251953125 104.25 307.15
M 87.7 273.55
Q 88.3369140625 275.3390625 89 277.1 135.89765625 300.814453125 186 317.45 190.4 317.85 191.6 314.55 191.8140625 313.8244140625 191.75 313.2 190.281640625 315.291015625 186.75 314.95 135.555859375 297.927734375 87.7 273.55
M 331 321.1
Q 331.044921875 319.62578125 331.05 318.15 287.149609375 335.42265625 241.3 342.95 238.7943359375 342.4921875 237.8 341 237.6978515625 341.6833984375 237.8 342.45 238.3 345.05 241.8 345.7 287.379296875 338.19453125 331 321.1
M 330.45 292.45
Q 330.373046875 291.1337890625 330.3 289.8 286.2884765625 310.468359375 238.3 320.2 236.1298828125 320.466796875 235.3 318.7 235.278125 318.95859375 235.3 319.2 235.65 323.1 238.8 322.7 286.6029296875 312.9900390625 330.45 292.45 Z"/>

<path fill="#A05945" stroke="none" d="
M 98.3 297.35
Q 101.1412109375 302.469140625 104.25 307.15 143.4140625 325.7251953125 184.75 339.45 188.2994140625 339.77265625 189.75 337.7 189.731640625 335.5361328125 186.55 334.65 142.43984375 319.8009765625 98.3 297.35
M 84.9 265.05
Q 86.21953125 269.391796875 87.7 273.55 135.555859375 297.927734375 186.75 314.95 190.281640625 315.291015625 191.75 313.2 191.5603515625 311.23828125 188.55 310.4 136.7208984375 292.943359375 84.9 265.05
M 331.05 318.15
Q 331.0533203125 314.772265625 331 311.4 285.7580078125 330.4912109375 240.55 338.2 238.2048828125 339.1306640625 237.8 341 238.7943359375 342.4921875 241.3 342.95 287.149609375 335.42265625 331.05 318.15
M 330.3 289.8
Q 330.15390625 287.1685546875 329.95 284.55 285.3794921875 304.6404296875 237.8 315.9 235.3962890625 316.879296875 235.3 318.7 236.1298828125 320.466796875 238.3 320.2 286.2884765625 310.468359375 330.3 289.8
M 326.4 241.95
L 332.45 242.7
Q 328.85 219.55 317.05 198.4 315.0576171875 197.138671875 312.75 196.4 324.2998046875 218.8375 326.4 241.95 Z"/>

<path fill="#301C17" stroke="none" d="
M 62.1 285.5
Q 62.0634765625 286.83046875 62 288.1 73.3591796875 294.4072265625 84.95 300.3 94.15 305 103.55 309.45 105.2509765625 310.25703125 106.95 311.05 105.587109375 309.1494140625 104.25 307.15 94.91875 302.75078125 85.7 298.05 73.796484375 292.0248046875 62.1 285.5
M 89 277.1
Q 88.3369140625 275.3390625 87.7 273.55 75.56875 267.376953125 63.65 260.7 63.544140625 262.1390625 63.45 263.55 75.0767578125 270.0400390625 86.95 276.05 87.97578125 276.573046875 89 277.1 Z"/>

<path fill="#744032" stroke="none" d="
M 95.65 296
Q 88.4 292.3 81.15 288.35 71.789453125 283.3060546875 62.5 277.9 62.307421875 281.73203125 62.1 285.5 73.796484375 292.0248046875 85.7 298.05 94.91875 302.75078125 104.25 307.15 101.1412109375 302.469140625 98.3 297.35 96.98984375 296.68828125 95.65 296
M 84.9 265.05
Q 84.0208984375 264.571875 83.15 264.1 73.65859375 258.9892578125 64.2 253.5 63.916796875 257.11328125 63.65 260.7 75.56875 267.376953125 87.7 273.55 86.21953125 269.391796875 84.9 265.05 Z"/>

<path fill="#BC6851" stroke="none" d="
M 96.4 293.75
Q 89.1501953125 290.027734375 81.9 286.1 72.2615234375 280.9099609375 62.65 275.3 62.5970703125 276.629296875 62.5 277.9 71.789453125 283.3060546875 81.15 288.35 88.4 292.3 95.65 296 96.98984375 296.68828125 98.3 297.35 97.3451171875 295.583984375 96.4 293.75
M 84.9 265.05
Q 84.371875 263.33515625 83.85 261.6 74.166796875 256.334765625 64.45 250.7 64.330078125 252.0998046875 64.2 253.5 73.65859375 258.9892578125 83.15 264.1 84.0208984375 264.571875 84.9 265.05 Z"/>

<path fill="#59282C" stroke="none" d="
M 80.4 140.55
L 112.5 162.2 126.75 235.05 164.8 228.8
Q 143.65 241.5 156.05 258.05
L 210.25 304.7 211.1 295.65 162.5 253.55
Q 150.6 243.3 182.8 221.8 159.9 219.4 130.45 226.3
L 127 167.95 183.8 186.7 207.35 224.3
Q 216.3 242.55 220.4 258.85
L 220.9 243.05
Q 209.75 209.75 183.4 174.45 126.65 161.75 81.2 136.7 80.8 138.6 80.4 140.55
M 310.35 187.6
L 305.5 187.45
Q 294.75 187.35 284.3 186.95
L 275.1 200.25 225.7 271.7 219.7 280.35 211.4 292.35 214.4 291.4 280.2 202.5
Q 300.721484375 192.4701171875 312.75 196.4 315.0576171875 197.138671875 317.05 198.4 313.95 192.95 310.35 187.6
M 332.45 242.7
L 326.4 241.95 288.45 237.3 310 259.8
Q 312 264.55 307.25 268.35
L 219.1 298.4 219.1 306.15 310.25 273.6
Q 320.15 268.3 316.25 258.05
L 302.95 245.35 326.5 250.35 333.5 251.85
Q 333.1 247.25 332.45 242.7 Z"/>

<path fill="#CACACA" stroke="none" d="
M 143.3 157
L 144.8 158.95
Q 146.6 158.4 148 157.6 148.4 157.3 148.8 157.05 149.2 156.75 149.65 156.4
L 135.85 146.7 141.65 154.65 143.3 157
M 106.55 140.55
L 108.35 142.1 110.55 144.1
Q 111.85 143.8 112.9 143.45 114.35 142.9 115.35 142.15
L 94.5 130 106.55 140.55
M 65.25 119.2
L 70.3 123.35 72.6 125.3
Q 74.3 124.9 75.7 124.3 76.55 123.9 77.25 123.4
L 52.35 108.45 65.25 119.2
M 301.15 176.65
Q 301.15 176.7 301.15 176.75 302.15 178.7 304.7 180.55 304.75 180.6 304.8 180.65
L 307.65 179.65 307.7 179.65 312.25 178.3 330.75 174 301.15 176.65
M 263.05 177.45
L 263.1 177.4 280.6 171.85 256.3 174
Q 256.65 174.8 257.35 175.75 258.4 177.05 260.25 178.4
L 263.05 177.45
M 219.7 171.2
Q 220.05 171.95 220.5 172.75 220.85 173.35 221.35 173.9 222.2 174.9 223.35 175.95
L 225.5 174.7 225.8 174.55 236.4 168.2 219.7 171.2
M 185 168
Q 186.15 167.85 187.1 167.5 188.85 166.8 190.2 165.45
L 183.7 159.15 177.2 165
Q 177.3 165.1 177.4 165.2 177.9 165.8 178.6 166.3 181.45 168.5 185 168 Z"/>

<path fill="#000000" stroke="none" d="
M 153.8 158.7
Q 154.25 158.25 154.65 157.7 156.55 155.45 157.15 152.75 155.3 154.95 154.7 155.25 153.65 155.9 151.65 156.75 150.55 157.2 149.9 157.45 149.45 157.6 149.2 157.6 148.5 157.6 148 157.6 146.6 158.4 144.8 158.95
L 143.3 157
Q 143.05 157.4 143 157.55 142.95 157.8 143.1 159 143.25 160.25 144.5 161.05 145.8 161.9 147.75 161.65 151.1 161.2 153.8 158.7
M 108.25 143.75
Q 108.45 144.75 109.4 145.7 110.7 147.05 112.25 146.8 115.25 146.45 117.45 145.4 118.25 145.05 119 144.55 123 141.9 122.45 137.05 120.55 139.35 118.5 141.05
L 114.9 143.75
Q 114.7 143.85 114.2 144 113.85 144.1 113.3 144.3
L 112.1 144.6
Q 110.7 144.75 109.8 144.4 109.05 144.05 108.25 143.75
M 75.8 126.15
Q 73.5 126.45 71.95 125.95 71.3 125.7 70.05 125 70.05 125.1 70.1 125.25 70.35 127.35 71.75 128 72.85 128.4 75.25 128.1 77.95 127.75 79.85 126.75 80.9 126.25 81.7 125.45 83.95 123.45 84.15 120.15 83.2 121.45 81.65 122.75 79.55 124.75 77.8 125.55 76.75 126 75.8 126.15
M 299.35 180.5
Q 300.55 181.5 302.15 182.45 303.55 183.3 305.2 182.55 305.35 182.5 305.5 182.45 306 182.25 306.4 181.95 306.9 181.55 307.25 181 307.35 180.8 307.5 180.6 307.7 180.05 307.7 179.65
L 307.65 179.65 304.8 180.65
Q 304.75 180.6 304.7 180.55 302.15 178.7 301.15 176.75 299.9 176.15 298.9 175.5 296.95 174.2 295.7 172.25 295.2 175.05 296.9 177.65 297.85 179.15 299.35 180.5
M 252.5 173
Q 251.65 172.3 251.05 171.65 251.15 173.55 252.3 175.4 253.1 176.7 254.45 177.95 255.8 179.15 257.55 180.25 258.95 181 260.65 180.3 262.05 179.75 262.65 178.8 262.7 178.75 262.75 178.65 263.05 178 263.1 177.4
L 263.05 177.45 260.25 178.4
Q 258.4 177.05 257.35 175.75 254.6 174.8 252.5 173
M 220.5 172.75
Q 219.05 172.4 217.45 171.7 215.8 170.95 214.55 169.9 214.6 170.4 214.75 170.85 215.1 172.05 215.65 173.05 217.1 175.7 219.6 177.2 221.25 178.2 222.75 178 224.2 177.75 224.85 176.6 225.5 175.6 225.55 175.3 225.55 175.2 225.5 174.7
L 223.35 175.95
Q 222.2 174.9 221.35 173.9 220.85 173.35 220.5 172.75
M 195.6 159.65
Q 195.05 160.05 194.4 160.45 193.1 161.45 192.2 162.1 191.7 163.45 190.75 164.7 190.45 165.1 190.2 165.45 188.85 166.8 187.1 167.5 186.15 167.85 185 168 181.45 168.5 178.6 166.3 177.9 165.8 177.4 165.2 177.3 165.1 177.2 165 176.25 163.9 175.75 162.55 175 162.35 173.9 162 173.05 161.75 172.45 161.55 172.65 162.9 173.2 164.2 174.35 166.85 176.85 168.65 178.6 170 180.5 170.65 182.8 171.35 185.4 171 188.9 170.55 191.35 168.45 192.3 167.55 193.15 166.5 195.55 163.45 195.6 159.65 Z"/>

<path fill="#EAEAEA" stroke="none" d="
M 115.35 142.15
Q 118.45 139.8 117.2 135.3
L 94.5 130 115.35 142.15
M 152.7 147.15
L 135.85 146.7 149.65 156.4
Q 153.5 153.1 152.7 147.15
M 77.25 123.4
Q 80.35 121.15 79.3 116.85
L 52.35 108.45 77.25 123.4
M 301.55 170.95
Q 299.7 173.9 301.15 176.65
L 330.75 174 301.55 170.95
M 280.6 171.85
L 257.4 168.05
Q 255.15 171.05 256.3 174
L 280.6 171.85
M 220.35 162.75
Q 218 167.25 219.7 171.2
L 236.4 168.2 220.35 162.75
M 183.7 159.15
L 182.35 150.8
Q 179.05 151.4 177 154.1 174.8 156.95 175.25 160.55 175.4 161.65 175.75 162.55 176.25 163.9 177.2 165
L 183.7 159.15
M 192.35 157.35
L 183.7 159.15 190.2 165.45
Q 190.45 165.1 190.75 164.7 191.7 163.45 192.2 162.1 192.75 160.3 192.5 158.3 192.45 157.8 192.35 157.35 Z"/>

<path fill="#1B1B1B" stroke="none" d="
M 146.05 144.05
L 151.5 142.65
Q 152.35 145.05 152.7 147.15 153.5 153.1 149.65 156.4 149.2 156.75 148.8 157.05 148.4 157.3 148 157.6 148.5 157.6 149.2 157.6 149.45 157.6 149.9 157.45 150.55 157.2 151.65 156.75 153.65 155.9 154.7 155.25 155.3 154.95 157.15 152.75 157.5 151 157.25 149.05 156.7 144.8 155.35 142.25 153.6 139.1 150.95 139.45 149 139.7 147.8 141.25 147.1 141.95 146.05 144.05
M 122.45 137.05
Q 122.45 136.9 122.45 136.8 121.85 132.35 120.25 130.3 118.6 128.35 116 128.65 115.5 128.75 115.1 128.85 113.8 129.15 112.6 129.8 111.55 130.35 111.05 130.95
L 115.5 131.25
Q 116.7 133.45 117.2 135.3 118.45 139.8 115.35 142.15 114.35 142.9 112.9 143.45 111.85 143.8 110.55 144.1
L 108.35 142.1 108.3 142.15
Q 108.1 142.65 108.2 143.5 108.2 143.6 108.25 143.75 109.05 144.05 109.8 144.4 110.7 144.75 112.1 144.6
L 113.3 144.3
Q 113.85 144.1 114.2 144 114.7 143.85 114.9 143.75
L 118.5 141.05
Q 120.55 139.35 122.45 137.05
M 73.7 111.85
L 77.5 112.45
Q 78.85 114.9 79.3 116.85 80.35 121.15 77.25 123.4 76.55 123.9 75.7 124.3 74.3 124.9 72.6 125.3
L 70.3 123.35
Q 70 124.3 70.05 125 71.3 125.7 71.95 125.95 73.5 126.45 75.8 126.15 76.75 126 77.8 125.55 79.55 124.75 81.65 122.75 83.2 121.45 84.15 120.15 84.25 119.05 84.05 117.75 83.55 114.1 81.95 111.9 80.2 109.55 77.55 109.9 75.55 110.15 74.55 110.85 74 111.2 73.7 111.85
M 305.95 164.35
Q 305.5 164.05 305.05 163.85 301 162.4 296.9 169.15 295.95 170.7 295.7 172.25 296.95 174.2 298.9 175.5 299.9 176.15 301.15 176.75 301.15 176.7 301.15 176.65 299.7 173.9 301.55 170.95 302.7 169.05 305.15 167.15 305.3 167.05 305.5 166.9
L 309.6 168.4
Q 309.4 167.6 308.65 166.75 307.5 165.25 305.95 164.35
M 265.05 166.2
Q 264.85 165.4 264.1 164.45 262.9 163 261.35 162.15 256.9 159.3 252.35 166.9 250.85 169.3 251.05 171.65 251.65 172.3 252.5 173 254.6 174.8 257.35 175.75 256.65 174.8 256.3 174 255.15 171.05 257.4 168.05 258.6 166.35 260.9 164.65
L 265.05 166.2
M 228.1 161.75
Q 227.95 159.4 227.6 158.45 227.05 156.55 225.4 155.55 223.1 154.2 220.25 156.45 218.05 158.15 215.8 161.95 213.6 165.7 214.55 169.9 215.8 170.95 217.45 171.7 219.05 172.4 220.5 172.75 220.05 171.95 219.7 171.2 218 167.25 220.35 162.75 221.55 160.6 223.7 158.3
L 228.1 161.75
M 194.4 160.45
Q 195.05 160.05 195.6 159.65 195.55 158.8 195.45 157.9 194.8 153.15 191 150.2 187.2 147.25 182.35 147.85 177.6 148.5 174.7 152.35 171.65 156.2 172.3 160.95 172.35 161.25 172.45 161.55 173.05 161.75 173.9 162 175 162.35 175.75 162.55 175.4 161.65 175.25 160.55 174.8 156.95 177 154.1 179.05 151.4 182.35 150.8 182.55 150.8 182.7 150.75 186.3 150.3 189.15 152.5 191.65 154.4 192.35 157.35 192.45 157.8 192.5 158.3 192.75 160.3 192.2 162.1 193.1 161.45 194.4 160.45 Z"/>

<path fill="#422C2D" stroke="none" d="
M 307.7 179.65
Q 307.7 180.05 307.5 180.6 308.55 180.6 309.7 180.6
L 312.3 180.65 312.25 178.3 307.7 179.65
M 195.45 157.9
Q 195.55 158.8 195.6 159.65 195.55 163.45 193.15 166.5 192.3 167.55 191.35 168.45 203.25 170.95 215.65 173.05 215.1 172.05 214.75 170.85 214.6 170.4 214.55 169.9 213.6 165.7 215.8 161.95 218.05 158.15 220.25 156.45 223.1 154.2 225.4 155.55 227.05 156.55 227.6 158.45 227.95 159.4 228.1 161.75
L 236.4 168.2 225.8 174.55
Q 239.75 176.55 254.45 177.95 253.1 176.7 252.3 175.4 251.15 173.55 251.05 171.65 250.85 169.3 252.35 166.9 256.9 159.3 261.35 162.15 262.9 163 264.1 164.45 264.85 165.4 265.05 166.2
L 280.6 171.85 263.1 177.4
Q 263.05 178 262.75 178.65 280.55 180.05 299.35 180.5 297.85 179.15 296.9 177.65 295.2 175.05 295.7 172.25 295.95 170.7 296.9 169.15 301 162.4 305.05 163.85 305.5 164.05 305.95 164.35 307.5 165.25 308.65 166.75 309.4 167.6 309.6 168.4
L 311.8 169.25 310.95 149.6 307.5 149.5 304.05 149.4
Q 214.3 145.9 128.05 117.15 125.2 116.25 122.4 115.3 120.95 114.8 119.55 114.3
L 118.3 114.15
Q 118.35 114 118.45 113.9 100.55 107.6 82.8 100.3
L 77.45 97.9 69.8 111.2 73.7 111.85
Q 74 111.2 74.55 110.85 75.55 110.15 77.55 109.9 80.2 109.55 81.95 111.9 83.55 114.1 84.05 117.75 84.25 119.05 84.15 120.15 83.95 123.45 81.7 125.45 80.9 126.25 79.85 126.75 81.4 127.65 82.95 128.5 94.4 134.9 106.55 140.55
L 94.5 130 111.05 130.95
Q 111.55 130.35 112.6 129.8 113.8 129.15 115.1 128.85 115.5 128.75 116 128.65 118.6 128.35 120.25 130.3 121.85 132.35 122.45 136.8 122.45 136.9 122.45 137.05 123 141.9 119 144.55 118.25 145.05 117.45 145.4 129.25 150.35 141.65 154.65
L 135.85 146.7 146.05 144.05
Q 147.1 141.95 147.8 141.25 149 139.7 150.95 139.45 153.6 139.1 155.35 142.25 156.7 144.8 157.25 149.05 157.5 151 157.15 152.75 156.55 155.45 154.65 157.7 154.25 158.25 153.8 158.7 163.3 161.6 173.2 164.2 172.65 162.9 172.45 161.55 172.35 161.25 172.3 160.95 171.65 156.2 174.7 152.35 177.6 148.5 182.35 147.85 187.2 147.25 191 150.2 194.8 153.15 195.45 157.9 Z"/>

<path fill="#B7C2B7" stroke="none" d="
M 307.8 144.65
Q 308.0189453125 121.859765625 305.55 99.6 305.1 48.75 267.95 14.8 239.7 -2.4 194.35 0.4 164.55 8.55 137.55 33.2 117.9369140625 52.2123046875 100.25 72.8 100.289453125 72.834765625 100.3 72.85 87.480078125 87.0712890625 82.8 100.3 100.55 107.6 118.45 113.9 118.35 114 118.3 114.15
L 119.55 114.3
Q 120.95 114.8 122.4 115.3 125.2 116.25 128.05 117.15 214.3 145.9 304.05 149.4
L 307.5 149.5 307.8 144.65 Z"/>
</g>

<g id="______________________________mc______________1_0_Layer9_0_FILL">
<path fill="#D1DDD8" stroke="none" d="
M -172.5 -177.6
Q -215.15 -324.25 -141.05 -400.8 -247.2 -336.75 -172.5 -177.6
M 119 116.75
Q 72.75 114.35 28.75 94.05 -15.3 73.75 -52.6 51.5 -89.95 29.2 -100.7 8 -111.5 -13.2 -112.5 -58.65 -113.55 -104.15 -124.75 -129.85 -136 -155.55 -172.5 -177.6
L -149.8 -137.9
Q -180.4 30.25 -67.8 75.15 27.85 117.85 132.8 127.15 172.15 131.8 203.2 113.7 165.2 119.1 119 116.75
M 242.75 76.9
Q 221.75 92.75 196.8 94.65 145.9 98.45 111.8 68.65 105.15 61.95 100.2 55.05 92.45 44.3 88.9 33.2 90.1 66.6 114.4 84.85 144.3 107.2 209.6 107.2 211.4 107.2 213.1 107.2 229.15 95.4 242.75 76.9
M 100.7 -415.25
Q 96.1 -411 92.2 -405.8 79.95 -324.15 131.55 -295.75 138.35 -293.05 144.75 -289.75 150.45 -286.85 155.85 -283.45 184 -265.85 203.85 -235.95 204.5 -239.15 205.1 -242.35 181.45 -276.85 153.35 -293.15 138.5 -303.25 126.6 -316.3 102.1 -355.25 100.7 -415.25 Z"/>

<path fill="#B7C2B7" stroke="none" d="
M -67.2 -268
Q -53.85 -284.9 -37.75 -287.95 -53.65 -317.5 -69.15 -339.4 -49.4 -302.25 -67.2 -268
M -141.05 -400.8
Q -155.1 -404.45 -168.75 -401 -211.75 -392.85 -229.3 -341 -239.65 -287.4 -188.75 -205.95
L -172.5 -177.6
Q -247.2 -336.75 -141.05 -400.8
M 74.8 -367.5
L 62.85 -308.35
Q 76.95 -308.3 90.8 -306.5 112.65 -303.35 131.55 -295.75 79.95 -324.15 92.2 -405.8 80.7 -390.65 74.8 -367.5 Z"/>

<path fill="#301418" stroke="none" d="
M 265.8 37.1
Q 266.45 35.4 267.05 33.7 263.05 31.6 258.25 31.6 249.8 31.6 240.65 37.7 230.25 45.7 224.25 49.6 211.65 57.8 201.3 61.8 183.95 64.15 173.25 60.05 162.5 55.95 156.75 52.6 143.6 44.95 139.75 43.1 134.7 40.65 126.3 38.9 108.25 37.5 105.1 42.4 101.95 47.25 100.2 55.05 105.15 61.95 111.8 68.65 145.9 98.45 196.8 94.65 221.75 92.75 242.75 76.9 255.3 59.85 265.8 37.1 Z"/>

<path fill="#422C2D" stroke="none" d="
M 271.35 -11.6
Q 247.9 -55.25 193.8 -64.4 120.6 -75.2 90.3 -11.4 81.9 11.65 88.9 33.2 92.45 44.3 100.2 55.05 101.95 47.25 105.1 42.4 108.25 37.5 126.3 38.9 134.7 40.65 139.75 43.1 143.6 44.95 156.75 52.6 162.5 55.95 173.25 60.05 183.95 64.15 201.3 61.8 211.65 57.8 224.25 49.6 230.25 45.7 240.65 37.7 249.8 31.6 258.25 31.6 263.05 31.6 267.05 33.7 274.3 12.5 271.35 -11.6
M 161.75 -28.3
Q 150.35 -26.9 140.15 -21.6 131.75 -17.1 122.7 -16.45 117 -16.6 116.35 -21.95 114.8 -34.85 125.4 -42.55 135.05 -49.65 146.7 -52.25 157.4 -54.85 168.15 -55.7 178.45 -56.55 188.75 -55.65 197.3 -54.75 205.85 -53.5 216.85 -52 225.6 -46.05 234.55 -39.95 234.3 -29.55 234.25 -28.1 233.4 -27.15 227.1 -20.3 216.9 -22.75 209.5 -24.5 202.1 -26.75 190.3 -30.45 177.75 -30.45
L 176.85 -30.45
Q 169.3 -29.35 161.75 -28.3 Z"/>

<path fill="#9C938E" stroke="none" d="
M 140.15 -21.6
Q 150.35 -26.9 161.75 -28.3 169.3 -29.35 176.85 -30.45
L 177.75 -30.45
Q 190.3 -30.45 202.1 -26.75 209.5 -24.5 216.9 -22.75 227.1 -20.3 233.4 -27.15 234.25 -28.1 234.3 -29.55 234.55 -39.95 225.6 -46.05 216.85 -52 205.85 -53.5 197.3 -54.75 188.75 -55.65 178.45 -56.55 168.15 -55.7 157.4 -54.85 146.7 -52.25 135.05 -49.65 125.4 -42.55 114.8 -34.85 116.35 -21.95 117 -16.6 122.7 -16.45 131.75 -17.1 140.15 -21.6 Z"/>

<path fill="#8CA9AB" stroke="none" d="
M 221.65 -201.95
Q 209.8572265625 -205.75 196.15 -205.75 166.35 -205.75 153.05 -179.7 143.05 -160.35 143.05 -128.55 143.05 -102.8 157.3 -86.75 173.3 -68.75 203.3 -68.75 216.1 -68.75 224.75 -71.4 231.65 -73.55 239.35 -78.8 242.330078125 -80.7755859375 248 -84.8
L 238.8 -113.95 230.35 -159.9
Q 229.416796875 -176.1828125 225.05 -191.55 223.5490234375 -196.78984375 221.65 -201.95 Z"/>

<path fill="#FDFEFF" stroke="none" d="
M 221.65 -201.95
Q 215.1185546875 -219.5955078125 203.85 -235.95 184 -265.85 155.85 -283.45 150.45 -286.85 144.75 -289.75 137.7 -292.4 131.55 -295.75 112.65 -303.35 90.8 -306.5 76.95 -308.3 62.85 -308.35 14.2 -308.6 -37.75 -287.95 -53.85 -284.9 -67.2 -268 -49.4 -302.25 -69.15 -339.4 -106.2 -391.85 -141.05 -400.8 -215.15 -324.25 -172.5 -177.6 -136 -155.55 -124.75 -129.85 -113.55 -104.15 -112.5 -58.65 -111.5 -13.2 -100.7 8 -89.95 29.2 -52.6 51.5 -15.3 73.75 28.75 94.05 72.75 114.35 119 116.75 165.2 119.1 203.2 113.7 208.25 110.75 213.1 107.2 211.4 107.2 209.6 107.2 144.3 107.2 114.4 84.85 90.1 66.6 88.9 33.2 81.9 11.65 90.3 -11.4 120.6 -75.2 193.8 -64.4 247.9 -55.25 271.35 -11.6 268.3 -36.65 254.3 -64.9
L 248 -84.8
Q 242.330078125 -80.7755859375 239.35 -78.8 231.65 -73.55 224.75 -71.4 216.1 -68.75 203.3 -68.75 173.3 -68.75 157.3 -86.75 143.05 -102.8 143.05 -128.55 143.05 -160.35 153.05 -179.7 166.35 -205.75 196.15 -205.75 209.8572265625 -205.75 221.65 -201.95
M 180.8 -415.25
Q 153.8 -435.55 100.7 -415.25 102.1 -355.25 126.6 -316.3 138.5 -303.25 153.35 -293.15 181.45 -276.85 205.1 -242.35 212.9 -282.95 215.65 -323.55 213.7 -393.65 180.8 -415.25
M 184.6 -333.1
Q 177.35 -334.85 172.5 -334.2 177.35 -334.85 184.6 -333.1 183.8 -342.6 181.95 -351.85 183.8 -342.6 184.6 -333.1 191.6 -331.75 198.7 -328.6 191.6 -331.75 184.6 -333.1 184.65 -332.45 184.75 -331.75 185.5 -322.9 185.4 -313.7 192 -312.9 198.7 -310.3 192 -312.9 185.4 -313.7 185.35 -307.5 184.95 -301.15 185.35 -307.5 185.4 -313.7 178.35 -315.6 172.75 -315.35 178.35 -315.6 185.4 -313.7 185.5 -322.9 184.75 -331.75 184.65 -332.45 184.6 -333.1 Z"/>

<path fill="#FFFFFF" stroke="none" d="
M 130.8 -431.5
Q 113.25 -426.95 100.7 -415.25 153.8 -435.55 180.8 -415.25 213.7 -393.65 215.65 -323.55 216.5 -335.75 216.85 -347.95 218.5 -395.85 194.35 -418 164.45 -440.85 130.8 -431.5 Z"/>
</g>

<g id="_________________________________________0_Layer0_0_FILL">
<path fill="#0A0909" stroke="none" d="
M 20.3 6.8
Q 12.85 9.45 7.3 20.75 10.6 25.25 14.15 29.4 52.55 74.5 121.45 80.9 49.45 59.95 20.3 6.8 Z"/>

<path fill="#DBE7E4" stroke="none" d="
M 7.3 20.75
L 0.5 35.05 14.15 29.4
Q 10.6 25.25 7.3 20.75 Z"/>

<path fill="#566472" stroke="none" d="
M 20.3 6.8
L 37.55 0.25
Q -4.35 -2.85 0.5 35.05
L 7.3 20.75
Q 12.85 9.45 20.3 6.8 Z"/>
</g>

<g id="_____________________________________________0_Layer0_0_FILL">
<path fill="#0B0505" stroke="none" d="
M 65.55 19.1
Q 74.2 29.8 75.85 44.2 76.2 47.45 76.2 50.95 76.2 62.3 72.25 71.65 75.25 66.35 76.8 60.35 78.55 53.75 78.55 46.3 78.55 27.1 67.05 13.55 55.55 0 39.3 0 23 0 11.5 13.55 0 27.1 0 46.3 0 60.95 6.7 72.3 8.65 75.6 11.2 78.65 6.55 71.45 4.7 62.7 3.55 57.15 3.55 50.95 3.55 32.3 14.15 19.1 24.8 5.95 39.9 5.95 54.9 5.95 65.55 19.1 Z"/>

<path fill="#F4FEFE" stroke="none" d="
M 75.85 44.2
Q 73.45 32.9 66.35 24.05 55.7 10.9 40.65 10.9 25.6 10.9 14.95 24.05 4.3 37.25 4.3 55.9 4.3 59.4 4.7 62.7 6.55 71.45 11.2 78.65 11.35 78.85 11.5 79.05 23 92.6 39.3 92.6 55.55 92.6 67.05 79.05 70 75.55 72.25 71.65 76.2 62.3 76.2 50.95 76.2 47.45 75.85 44.2 Z"/>

<path fill="#A9C0CE" stroke="none" d="
M 66.35 24.05
Q 73.45 32.9 75.85 44.2 74.2 29.8 65.55 19.1 54.9 5.95 39.9 5.95 24.8 5.95 14.15 19.1 3.55 32.3 3.55 50.95 3.55 57.15 4.7 62.7 4.3 59.4 4.3 55.9 4.3 37.25 14.95 24.05 25.6 10.9 40.65 10.9 55.7 10.9 66.35 24.05 Z"/>
</g>

<g id="___________________________________________0_Layer0_0_FILL">
<path fill="#000000" stroke="none" d="
M 50.85 33.65
Q 50.85 19.7 43.4 9.8 35.95 0 25.4 0 14.9 0 7.45 9.8 0 19.7 0 33.65 0 47.55 7.45 57.4 14.9 67.3 25.4 67.3 35.95 67.3 43.4 57.4 50.85 47.55 50.85 33.65
M 42.4 14.5
Q 43.4 17.55 42.5 20.1 41.5 22.65 39.2 23.15 36.85 23.7 34.55 21.85 32.2 20.05 31.2 17 30.2 13.9 31.2 11.35 32.1 8.85 34.45 8.35 36.75 7.8 39.1 9.6 41.4 11.4 42.4 14.5 Z"/>

<path fill="#FFFFFF" stroke="none" d="
M 42.5 20.1
Q 43.4 17.55 42.4 14.5 41.4 11.4 39.1 9.6 36.75 7.8 34.45 8.35 32.1 8.85 31.2 11.35 30.2 13.9 31.2 17 32.2 20.05 34.55 21.85 36.85 23.7 39.2 23.15 41.5 22.65 42.5 20.1 Z"/>
</g>

<g id="______________________________________________0_Layer0_0_FILL">
<path fill="#A9C0CE" stroke="none" d="
M 52.3 22
Q 57.9 30.05 59.8 40.4 58.5 27.25 51.65 17.45 43.25 5.4 31.5 5.4 19.55 5.4 11.2 17.45 2.8 29.5 2.8 46.55 2.8 52.2 3.75 57.3 3.45 54.3 3.45 51.1 3.45 34.05 11.8 22 20.15 9.95 32.05 9.95 43.95 9.95 52.3 22 Z"/>

<path fill="#F4FEFE" stroke="none" d="
M 60.05 46.55
Q 60.05 43.35 59.8 40.4 57.9 30.05 52.3 22 43.95 9.95 32.05 9.95 20.15 9.95 11.8 22 3.45 34.05 3.45 51.1 3.45 54.3 3.75 57.3 5.2 65.3 8.85 71.9 8.95 72.05 9.1 72.2 18.15 84.65 30.95 84.65 43.85 84.65 52.9 72.2 55.2 69.05 56.95 65.5 60.05 56.95 60.05 46.55 Z"/>

<path fill="#0B0505" stroke="none" d="
M 59.8 40.4
Q 60.05 43.35 60.05 46.55 60.05 56.95 56.95 65.5 59.35 60.6 60.6 55.15 61.9 49.15 61.9 42.3 61.9 24.8 52.9 12.35 43.85 0 30.95 0 18.15 0 9.1 12.35 0 24.8 0 42.3 0 55.7 5.3 66.1 6.85 69.1 8.85 71.9 5.2 65.3 3.75 57.3 2.8 52.2 2.8 46.55 2.8 29.5 11.2 17.45 19.55 5.4 31.5 5.4 43.25 5.4 51.65 17.45 58.5 27.25 59.8 40.4 Z"/>
</g>

<g id="____________________________________________0_Layer0_0_FILL">
<path fill="#000000" stroke="none" d="
M 20.05 0
Q 11.75 0 5.85 9 0 18.05 0 30.75 0 43.5 5.85 52.5 11.75 61.55 20.05 61.55 28.35 61.55 34.15 52.5 40.05 43.5 40.05 30.75 40.05 18.05 34.15 9 28.35 0 20.05 0
M 33.4 13.25
Q 34.15 16.05 33.5 18.4 32.7 20.7 30.9 21.2 29.05 21.7 27.25 20 25.4 18.35 24.6 15.55 23.85 12.75 24.6 10.4 25.3 8.15 27.15 7.6 28.95 7.15 30.8 8.8 32.6 10.45 33.4 13.25 Z"/>

<path fill="#FFFFFF" stroke="none" d="
M 33.5 18.4
Q 34.15 16.05 33.4 13.25 32.6 10.45 30.8 8.8 28.95 7.15 27.15 7.6 25.3 8.15 24.6 10.4 23.85 12.75 24.6 15.55 25.4 18.35 27.25 20 29.05 21.7 30.9 21.2 32.7 20.7 33.5 18.4 Z"/>
</g>

<g id="________________________________________0_Layer0_0_FILL">
<path fill="#35181D" stroke="none" d="
M 63.4 2.4
Q 21.4 15.25 3.7 51.55 41.65 15.5 89.6 14.85 88.35 -6 63.4 2.4 Z"/>

<path fill="#0F0608" stroke="none" d="
M 89.6 18.65
Q 89.65 16.65 89.6 14.85 41.65 15.5 3.7 51.55 1.7 55.65 0 60 39 19.7 89.6 18.65 Z"/>
</g>

<g id="_______________________________________________0_Layer3_0_FILL">
<path fill="#171717" stroke="none" d="
M 92.85 96.95
Q 93.8390625 93.401953125 95.05 89.9
L 4.9 76.15
Q 4.8826171875 76.130078125 4.85 76.1
L 4.8 76.1 -73.85 63.6
Q -83.95 63.5 -88.4 78.75
L -88.4 78.8
Q -81.05 84 -73.65 68.85
L 15.5 85.5 92.15 99.25 92.2 99.25
Q 92.527734375 98.0904296875 92.85 96.95 Z"/>

<path fill="#CCCCCC" stroke="none" d="
M 251.9 38.15
Q 229.5 28.05 200.9 38.6 227 33.5 251.9 38.15
M 168.8 34.7
Q 167.9 34.6 167.05 34.5 166.1 32 165.05 29.65 163.8 26.9 162.45 24.3 160.85 21.3 159.05 18.5 157.25 15.7 155.25 13.2 153.85 11.4 152.35 9.7 147.55 4.35 141.75 0 124.7 12.35 119.25 32.75 93.6 35.55 76.25 46.75 94 36.7 120.75 35.2 124.7 14.8 141.75 2.45 147.4 7 152 12.55 153.4 14.3 154.75 16.15 156.65 18.75 158.35 21.6 160.05 24.45 161.55 27.55 162.8 30.2 163.9 33 164.9 35.35 165.1 36.85 167.9 36.9 168.8 36.95 178.25 37.15 186.5 37.7 190.05 37.95 193.4 38.25 189.95 37.6 186.3 37.05 178.2 35.75 168.8 34.7
M 86.65 52.15
Q 92.7 67.15 107.05 78.45 100.45 93.5 98.95 109.2 98.5 114 98.5 118.9 98.5 121.45 98.65 124 100.75 123.55 102.9 123 105 122.45 107.1 121.85 112.35 120.2 117.65 118 128.45 113.3 139.35 105.95 134.9 107.9 130.55 109.55 130.15 109.65 129.8 109.8 129.4 109.9 129.05 110.05 127.05 110.75 125.1 111.4 124.55 111.55 123.95 111.75 112.55 116.75 101.9 119.2 101.25 99 110.75 78.8 96.45 66.8 87.95 53.45 87.3 52.8 86.65 52.15
M 258.5 48.6
Q 258.45 48.65 258.4 48.65 263.15 58.9 273.7 68.15 278 71.9 283.25 75.5 283.9 75.95 284.6 76.4 273.75 93.15 276.95 108.4 277.35 110.35 278 112.25 283.05 111.5 287.95 110.3 303.4 106.55 317.65 98.55 299.05 105.55 281.5 107.75 278.15 92.25 288.55 77.4 289.3 76.3 290.1 75.25 268.8 63.85 258.5 48.6
M 330.4 31.2
Q 327.9 24.75 324.65 19.6 321.6 14.75 317.85 11.05 313.45 6.65 308.1 3.7 292.2 17.3 287.75 37.6 268.35 34.5 253.5 38.85 273.2 36.8 289.45 41 294.8 18.05 308.95 7.4 326.95 20.3 331.35 41.3 336.65 41.3 341.85 41.7 356.2 42.8 369.55 47 360.35 42.45 350.55 40.6 347.05 39.9 343.5 39.6 338.35 39.1 333.1 39.35 331.9 35.05 330.4 31.2 Z"/>

<path fill="#333333" stroke="none" d="
M 341.85 41.7
Q 336.65 41.3 331.35 41.3 326.95 20.3 308.95 7.4 294.8 18.05 289.45 41 273.2 36.8 253.5 38.85 253.45 38.85 253.4 38.85 252.75 38.55 252.1 38.25 252 38.2 251.9 38.15 227 33.5 200.9 38.6 200.5 38.75 200.15 38.9 199.6 39.1 199.05 39.3 196.3 38.75 193.4 38.25 190.05 37.95 186.5 37.7 178.25 37.15 168.8 36.95 167.9 36.9 165.1 36.85 164.9 35.35 163.9 33 162.8 30.2 161.55 27.55 160.05 24.45 158.35 21.6 156.65 18.75 154.75 16.15 153.4 14.3 152 12.55 147.4 7 141.75 2.45 124.7 14.8 120.75 35.2 94 36.7 76.25 46.75 75.05 47.5 73.95 48.3 73.8 48.35 73.7 48.45 74.1 49.4 74.5 50.35 78.5 59.5 85.05 67.5
L 89.1 71.8 -75.45 58.65
Q -86.45 57.6 -88.4 78.75 -83.95 63.5 -73.85 63.6
L 4.8 76.1 4.85 76.1 4.9 76.1 4.9 76.15 95.05 89.9
Q 93.8390625 93.401953125 92.85 96.95 92.527734375 98.0904296875 92.2 99.25 92.1521484375 99.54375 92.05 99.85 88.3908203125 114.199609375 88.3 129.05 88.25 132.8 88.45 136.6 88.75 136.55 89.1 136.5 92.9 135.65 96.7 134.55 104.15 132.4 111.6 129.25 125 123.5 138.4 114.4 140.55 116.3 142.8 118.05 163.6 134.35 190.2 137.15 193.5 122.35 191.55 108.75 189.65 95.9 183.1 84.15 183.25 84.1 183.45 84.05 198.8 79.3 207 65.3 211.8 57 214.1 45.55 214.35 44.35 214.55 43.2 229.2 38.4 242.9 43.2 249 56.3 260.7 67.7 266.4 73.3 273.45 78.45 265.95 93.9 265.75 108.05 265.6 116.7 268.15 124.85 268.35 125.5 268.55 126.15 274.7 125.25 280.65 123.95 297 120.3 311.3 113.7 314.55 112.2 317.65 110.55 336.4 125 361.15 130.2 364.65 104.75 345.95 81.9 355.35 76.8 362.1 70.25 371.1 61.55 375.45 50.2 372.55 48.45 369.55 47 356.2 42.8 341.85 41.7
M 337.55 46.9
Q 342.05 47.25 346.35 48.4 353.4 50.25 359.85 54.1 356.45 62.95 347.8 70.05 341.6 75.05 332.7 79.2 351.6 95.8 348.85 115.3 330.85 111.5 318.8 99.75 318.2 99.15 317.65 98.55 303.4 106.55 287.95 110.3 283.05 111.5 278 112.25 277.35 110.35 276.95 108.4 273.75 93.15 284.6 76.4 283.9 75.95 283.25 75.5 278 71.9 273.7 68.15 263.15 58.9 258.4 48.65 258.45 48.65 258.5 48.6 272.3 41.2 292.55 46.5 296.15 28.9 308.3 18.5 310.45 19.7 312.4 21.2 316.45 24.45 319.5 29.25 322.8 34.45 324.85 41.6 325.55 44.2 326.15 47.1 332 46.45 337.55 46.9
M 162.8 40.75
Q 173.65 42 182.65 43.8 194.4 46.15 202.95 49.5 200.8 58.25 196.6 64.7 196.2 65.25 195.85 65.85 187.75 77.15 172.75 80.8 186.45 100.5 182 123.15 181.85 123.8 181.7 124.45 162.05 122.4 146.35 111.4 144.7 110.25 143.15 109.05 141.25 107.55 139.45 105.95
L 139.4 105.9 139.35 105.95
Q 128.45 113.3 117.65 118 112.35 120.2 107.1 121.85 105 122.45 102.9 123 100.75 123.55 98.65 124 98.5 121.45 98.5 118.9 98.5 114 98.95 109.2 100.45 93.5 107.05 78.45 92.7 67.15 86.65 52.15 86.7 52.15 86.75 52.1 93.9 47.05 103.05 43.85 112.4 40.6 123.8 39.35 128.2 22.7 142.15 12.65 144.35 14.3 146.4 16.15 147.25 16.9 148.1 17.7 149.65 19.2 151.15 20.9 153.2 23.25 155.05 25.9 158.6 30.9 161.2 36.8 162.05 38.75 162.8 40.75 Z"/>

<path fill="#000000" stroke="none" d="
M 195.85 65.85
Q 185.05 70.5 175.25 76 162.9 82.85 161.2 83.65 155 86.55 149.95 86.55 135.1 86.55 118.25 66.1 110.45 56.65 103.05 43.85 93.9 47.05 86.75 52.1 86.7 52.15 86.65 52.15 87.3 52.8 87.95 53.45 96.45 66.8 110.75 78.8 101.25 99 101.9 119.2 112.55 116.75 123.95 111.75 124.55 111.55 125.1 111.4 127.05 110.75 129.05 110.05 129.4 109.9 129.8 109.8 130.15 109.65 130.55 109.55 134.9 107.9 139.35 105.95
L 139.4 105.9 139.45 105.95
Q 141.25 107.55 143.15 109.05 144.7 110.25 146.35 111.4 162.05 122.4 181.7 124.45 181.85 123.8 182 123.15 186.45 100.5 172.75 80.8 187.75 77.15 195.85 65.85
M 346.35 48.4
Q 342.05 47.25 337.55 46.9 335.3 49.5 332.9 52.1 322.05 63.8 311.95 70.95 300.75 78.9 293.6 78.9 291.7 78.9 288.55 77.4 278.15 92.25 281.5 107.75 299.05 105.55 317.65 98.55 318.2 99.15 318.8 99.75 330.85 111.5 348.85 115.3 351.6 95.8 332.7 79.2 341.6 75.05 347.8 70.05 356.45 62.95 359.85 54.1 353.4 50.25 346.35 48.4 Z"/>

<path fill="#666666" stroke="none" d="
M 182.65 43.8
Q 173.65 42 162.8 40.75 162.05 38.75 161.2 36.8 158.6 30.9 155.05 25.9 153.2 23.25 151.15 20.9 149.65 19.2 148.1 17.7 147.25 16.9 146.4 16.15 144.35 14.3 142.15 12.65 128.2 22.7 123.8 39.35 112.4 40.6 103.05 43.85 110.45 56.65 118.25 66.1 135.1 86.55 149.95 86.55 155 86.55 161.2 83.65 162.9 82.85 175.25 76 185.05 70.5 195.85 65.85 196.2 65.25 196.6 64.7 200.8 58.25 202.95 49.5 194.4 46.15 182.65 43.8
M 326.15 47.1
Q 325.55 44.2 324.85 41.6 322.8 34.45 319.5 29.25 316.45 24.45 312.4 21.2 310.45 19.7 308.3 18.5 296.15 28.9 292.55 46.5 272.3 41.2 258.5 48.6 268.8 63.85 290.1 75.25 289.3 76.3 288.55 77.4 291.7 78.9 293.6 78.9 300.75 78.9 311.95 70.95 322.05 63.8 332.9 52.1 335.3 49.5 337.55 46.9 332 46.45 326.15 47.1 Z"/>
</g>

<g id="___________________________________________________1_Layer0_0_FILL">
<path fill="#D1DDD8" stroke="none" d="
M -141.6 198.65
Q -144.65 211.8 -139.2 224.65 -163.4 229.4 -171.3 182.3 -171.85 200.95 -164.15 219.55 -155.2 235 -134.5 229.7 -113.75 245.7 -97.65 231.35 -128.85 242.1 -141.6 198.65
M -95.75 229.55
Q -92.2 225.9 -88.8 220.65 -106.55 215.7 -105.05 193.8 -107.65 220.75 -95.75 229.55
M -68.95 153.5
Q -69.4 151.2 -69.95 148.75 -115.05 148.4 -158.95 139 -160.7 142.3 -162.25 145.6 -113.4 162.45 -68.95 153.5 Z"/>

<path fill="#FDFEFF" stroke="none" d="
M -162.25 145.6
Q -170.75 163.95 -171.3 182.3 -163.4 229.4 -139.2 224.65 -144.65 211.8 -141.6 198.65 -128.85 242.1 -97.65 231.35 -96.7 230.5 -95.75 229.55 -107.65 220.75 -105.05 193.8 -106.55 215.7 -88.8 220.65 -55.4 224.85 -68.95 153.5 -113.4 162.45 -162.25 145.6 Z"/>

<path fill="#A05945" stroke="none" d="
M -94.25 120.7
Q -127 118.25 -159.4 109.65 -164.25 109.95 -164.85 112.5 -162.4 113.45 -159.75 114.25 -122.55 126.05 -61.6 125.25 -61.75 121.8 -67.2 121.65 -80.75 121.7 -94.25 120.7
M -39.25 11.5
L -39.6 11.15
Q -46.7 17.4 -51.8 28.4 -52.7 30.25 -59.05 46.85 -62.85 56.85 -66.6 60.5 -71.7 65.4 -80.05 63.15
L -80.35 63.65
Q -80.7 64.3 -80.7 64.6 -70.6 65.75 -70 71.35 -69.9 72.55 -70.2 77.7 -70.5 82.35 -69.9 85.85 -69.1 90.2 -68.1 99.65 -67.35 104.7 -65.85 109.05 -59.8 59.1 -39.25 11.5 Z"/>

<path fill="#663137" stroke="none" d="
M -159.4 109.65
Q -127 118.25 -94.25 120.7 -166.65 112.45 -110.3 -29.15 -138.25 4.65 -150.4 65.15
L -159.4 109.65
M -148.7 128.4
Q -157.95 121.1 -159.75 114.25 -162.4 113.45 -164.85 112.5
L -169.15 131.5
Q -169.4 134.85 -165.35 137.55 -162.15 138.3 -158.95 139 -115.05 148.4 -69.95 148.75 -117.45 145.7 -148.7 128.4 Z"/>

<path fill="#804C3F" stroke="none" d="
M -159.75 114.25
Q -157.95 121.1 -148.7 128.4 -117.45 145.7 -69.95 148.75 -68.15 148.7 -66.4 148.7
L -61.6 125.25
Q -122.55 126.05 -159.75 114.25
M -64.05 -63.05
Q -90.95 -52.5 -110.3 -29.15 -166.65 112.45 -94.25 120.7 -80.75 121.7 -67.2 121.65 -66.65 115.3 -65.85 109.05 -67.35 104.7 -68.1 99.65 -69.1 90.2 -69.9 85.85 -70.5 82.35 -70.2 77.7 -69.9 72.55 -70 71.35 -70.6 65.75 -80.7 64.6 -80.7 64.3 -80.35 63.65
L -80.05 63.15
Q -71.7 65.4 -66.6 60.5 -62.85 56.85 -59.05 46.85 -52.7 30.25 -51.8 28.4 -46.7 17.4 -39.6 11.15
L -39.25 11.5
Q -37.6 7.45 -35.75 3.4 -23.3 -37 -64.05 -63.05 Z"/>
</g>

<path id="______________________________mc______________1_0_Layer9_0_1_STROKES" stroke="#000000" stroke-width="6" stroke-linejoin="round" stroke-linecap="round" fill="none" d="
M 172.75 -315.35
Q 178.35 -315.6 185.4 -313.7 185.5 -322.9 184.75 -331.75 184.65 -332.45 184.6 -333.1 177.35 -334.85 172.5 -334.2
M 198.7 -310.3
Q 192 -312.9 185.4 -313.7 185.35 -307.5 184.95 -301.15
M 198.7 -328.6
Q 191.6 -331.75 184.6 -333.1 183.8 -342.6 181.95 -351.85"/>
</defs>

<g transform="matrix( 0.4555511474609375, 0, 0, 0.4555511474609375, 156.05,286) ">
<g transform="matrix( 1.130615234375, 0, 0, 1.130615234375, -207.05,291.35) ">
<g transform="matrix( 1, 0, 0, 1, 0,0) ">
<use xlink:href="#_________________________________________________1_Layer0_0_FILL"/>
</g>
</g>

<g transform="matrix( 1.1259002685546875, 0.1030731201171875, -0.1030731201171875, 1.1259002685546875, -341.2,280.65) ">
<g transform="matrix( 1, 0, 0, 1, 0,0) ">
<use xlink:href="#_________________________________________________2_Layer0_0_FILL"/>
</g>
</g>

<g transform="matrix( 0.9981689453125, -0.06048583984375, 0.06048583984375, 0.9981689453125, 4.95,78.25) ">
<g transform="matrix( 1, 0, 0, 1, 0,0) ">
<use xlink:href="#____________________________________________________3_Layer0_0_FILL"/>
</g>
</g>

<g transform="matrix( 1, 0, 0, 1, -201.55,-38) ">
<g transform="matrix( 1, 0, 0, 1, 0,0) ">
<use xlink:href="#__________________________________________1_Layer0_0_FILL"/>
</g>
</g>

<g transform="matrix( 1, 0, 0, 1, -1.15,-0.95) ">
<g transform="matrix( 1, 0, 0, 1, 0,0) ">
<use xlink:href="#______________________________mc______________1_0_Layer9_0_FILL"/>

<use xlink:href="#______________________________mc______________1_0_Layer9_0_1_STROKES"/>
</g>

<g transform="matrix( 1, 0, 0, 1, -8.6,30.1) ">
<g transform="matrix( 1, 0, 0, 1, 0,0) ">
<use xlink:href="#_________________________________________0_Layer0_0_FILL"/>
</g>
</g>

<g transform="matrix( 1, 0, 0, 1, 5.4,-185.1) ">
<g transform="matrix( 1, 0, 0, 1, 0,0) ">
<use xlink:href="#_____________________________________________0_Layer0_0_FILL"/>
</g>
</g>

<g transform="matrix( 1, 0, 0, 1, 13.6,-162.75) ">
<g transform="matrix( 1, 0, 0, 1, 0,0) ">
<use xlink:href="#___________________________________________0_Layer0_0_FILL"/>
</g>
</g>

<g transform="matrix( 1, 0, 0, 1, 166.95,-180.1) ">
<g transform="matrix( 1, 0, 0, 1, 0,0) ">
<use xlink:href="#______________________________________________0_Layer0_0_FILL"/>
</g>
</g>

<g transform="matrix( 1, 0, 0, 1, 171.5,-159.6) ">
<g transform="matrix( 1, 0, 0, 1, 0,0) ">
<use xlink:href="#____________________________________________0_Layer0_0_FILL"/>
</g>
</g>

<g transform="matrix( 1, 0, 0, 1, -12.75,-262.4) ">
<g transform="matrix( 1, 0, 0, 1, 0,0) ">
<use xlink:href="#________________________________________0_Layer0_0_FILL"/>
</g>
</g>

<g transform="matrix( -0.7455291748046875, 0.044647216796875, 0, 1, 211.55,-266.4) ">
<g transform="matrix( 1, 0, 0, 1, 0,0) ">
<use xlink:href="#________________________________________0_Layer0_0_FILL"/>
</g>
</g>

<g transform="matrix( 0.906341552734375, 0, 0, 1.138763427734375, -81.25,-220.6) ">
<g transform="matrix( 1, 0, 0, 1, 0,0) ">
<use xlink:href="#_______________________________________________0_Layer3_0_FILL"/>
</g>
</g>
</g>

<g transform="matrix( 0.9999847412109375, 0, 0, 0.9999847412109375, -54.35,163.8) ">
<g transform="matrix( 1, 0, 0, 1, 0,0) ">
<use xlink:href="#___________________________________________________1_Layer0_0_FILL"/>
</g>
</g>
</g>
</svg>
