<svg width="100" height="158" viewBox="0 0 100 158" fill="none" xmlns="http://www.w3.org/2000/svg">
<path d="M66.2919 128.38C61.2854 128.959 58.8879 130.728 59.0991 133.689C68.5781 133.211 74.7919 131.796 77.7405 129.446C74.5596 128.01 70.7434 127.655 66.2919 128.38Z" fill="#B33102"/>
<path d="M79.9947 130.719C79.2832 130.229 78.5318 129.804 77.7405 129.446C74.7919 131.796 68.5781 133.211 59.0991 133.689C59.1102 133.85 59.1289 134.014 59.1553 134.179C59.1241 136.21 62.3947 137.156 68.967 137.018C70.4635 137.075 71.8416 136.892 73.1012 136.471C74.6289 136.735 76.1535 136.666 77.675 136.264C78.0055 135.999 78.2549 135.717 78.4233 135.415C80.8053 135.553 81.8685 134.877 81.6128 133.387C81.6066 132.532 81.0672 131.643 79.9947 130.719Z" fill="#E65F1A"/>
<path d="M77.675 136.264L78.4233 135.415L78.9658 135.424C78.9346 133.809 78.3204 132.79 77.1232 132.369C78.0959 133.519 78.2799 134.818 77.675 136.264Z" fill="#C95316"/>
<path d="M71.3147 135.707C71.2523 135.707 71.19 135.707 71.1276 135.707C71.1339 135.707 71.1744 135.698 71.2492 135.679C71.2929 135.673 71.3147 135.682 71.3147 135.707C71.9071 135.695 72.3062 135.641 72.5119 135.547C72.7613 135.427 72.8861 135.17 72.8861 134.774C72.8861 134.39 72.3997 134.145 71.4269 134.038C71.3334 134.025 70.8751 134.007 70.052 133.981C69.6903 134.132 69.4565 134.242 69.3505 134.312C69.1634 134.425 69.0699 134.632 69.0699 134.934C69.0699 135.431 69.444 135.695 70.1923 135.726C70.5664 135.739 70.9406 135.732 71.3147 135.707ZM75.9727 133.623C75.9041 133.642 75.8449 133.658 75.795 133.67C75.7014 133.758 75.6297 133.831 75.5798 133.887C75.4115 134.107 75.3273 134.352 75.3273 134.623C75.3273 134.786 75.452 134.909 75.7014 134.99C75.8823 135.047 76.0849 135.075 76.3094 135.075C76.7272 135.075 77.0047 135.016 77.1419 134.896C77.2603 134.783 77.3196 134.56 77.3196 134.227C77.3196 134.038 77.2292 133.881 77.0483 133.755C76.8488 133.623 76.5962 133.557 76.2907 133.557C76.2346 133.557 76.1286 133.579 75.9727 133.623Z" fill="#FF7B38"/>
<path d="M38.4544 133.583C38.5529 133.311 38.6021 133.041 38.6021 132.776C38.6021 131.256 37.231 130.055 34.4888 129.173C32.1178 128.413 29.2715 128.025 25.9498 128.01C24.0901 128.071 22.2304 128.331 20.3708 128.789C19.7647 128.992 19.2364 129.179 18.7857 129.351C18.4893 129.465 18.2071 129.581 17.9391 129.7C22.7218 131.956 29.5603 133.251 38.4544 133.583Z" fill="#B33102"/>
<path d="M37.8692 134.643C38.1414 134.284 38.3365 133.93 38.4544 133.583C29.5603 133.251 22.7218 131.956 17.9391 129.7C17.4533 129.913 17.014 130.132 16.6211 130.359C14.7993 131.416 13.8884 132.661 13.8884 134.093C13.8884 135.143 14.3239 135.991 15.1951 136.636C16.0208 137.247 17.0585 137.553 18.3084 137.553C18.7061 137.553 19.0546 137.507 19.3538 137.415C19.6 137.343 19.9655 137.184 20.4503 136.94C20.492 137.028 20.5488 137.11 20.6207 137.186C20.8972 137.499 21.3991 137.748 22.1263 137.931C22.7626 138.087 23.3591 138.166 23.9159 138.166C24.7946 138.166 25.4574 138.099 25.9044 137.965C26.1695 137.889 26.4933 137.749 26.8759 137.547C27.1864 137.387 27.5349 137.184 27.9212 136.94C28.1371 137.112 28.3568 137.263 28.5803 137.392C29.2545 137.786 29.957 137.979 30.688 137.971C31.6539 137.963 32.1822 137.94 32.2731 137.902C32.3602 137.864 32.4095 137.847 32.4208 137.851C32.7769 137.774 33.1424 137.673 33.5173 137.547C34.4036 137.245 35.235 136.839 36.0114 136.327C36.7955 135.804 37.4147 135.243 37.8692 134.643Z" fill="#E65F1A"/>
<path d="M20.5298 135.302C20.5298 134.817 20.5336 134.471 20.5412 134.265C20.5639 133.753 20.6113 133.425 20.6832 133.28H20.6435C20.2079 133.654 19.867 134.322 19.6208 135.285C19.439 136.002 19.3481 136.642 19.3481 137.203C19.3481 137.28 19.35 137.35 19.3538 137.415C19.6 137.343 19.9655 137.184 20.4503 136.94C20.492 137.028 20.5488 137.11 20.6207 137.186C20.598 137.11 20.5829 137.043 20.5753 136.986C20.545 136.81 20.5298 136.249 20.5298 135.302ZM26.8759 137.547C27.1864 137.387 27.5349 137.184 27.9212 136.94C28.1371 137.112 28.3568 137.263 28.5803 137.392C28.2318 135.697 27.7356 134.429 27.0918 133.589V135.897C27.0918 136.348 27.0198 136.898 26.8759 137.547Z" fill="#C95316"/>
<path d="M24.6545 134.706C24.4462 134.721 24.2549 134.735 24.0807 134.746C24.0163 134.796 23.9632 134.849 23.9216 134.907C23.8004 135.071 23.7398 135.285 23.7398 135.548C23.7398 135.934 23.9159 136.203 24.2681 136.356C24.5068 136.459 24.8363 136.51 25.2567 136.51C25.6771 136.51 25.9706 136.434 26.1373 136.281C26.2888 136.144 26.3645 135.913 26.3645 135.588C26.3645 135.351 26.1998 135.147 25.8703 134.975C25.5332 134.796 25.1279 134.706 24.6545 134.706ZM32.6992 135.548C32.6992 135.136 32.2049 134.901 31.2164 134.844C30.8414 134.847 30.529 134.851 30.279 134.855C30.0593 135.099 29.9495 135.292 29.9495 135.434C29.9495 135.739 30.0536 135.957 30.2619 136.087C30.4703 136.216 30.8244 136.281 31.3243 136.281C31.6349 136.281 31.9398 136.205 32.239 136.052C32.5458 135.892 32.6992 135.724 32.6992 135.548Z" fill="#FF7B38"/>
<path d="M88.698 106.085C88.6281 105.751 88.5349 105.403 88.4184 105.042C88.1616 104.178 87.7973 103.236 87.3255 102.215C84.8559 102.868 82.5027 103.991 80.2659 105.584C79.2114 106.609 79.1295 107.786 80.0201 109.115C80.3171 109.454 80.6503 109.741 81.0194 109.976C81.0249 109.981 81.0306 109.985 81.0365 109.988C81.8598 110.62 83.2104 111.247 85.0883 111.87C85.6271 111.782 86.1641 111.638 86.6993 111.436C87.4091 111.082 87.9455 110.604 88.3087 110.003C88.899 109.024 89.0287 107.718 88.698 106.085ZM87.6546 105.96C87.9724 106.454 88.1769 107.029 88.2682 107.684C88.3623 108.321 88.3162 108.859 88.1299 109.3C87.9427 109.746 87.6721 109.948 87.3181 109.905C86.9622 109.875 86.6254 109.613 86.3076 109.119C85.995 108.632 85.7931 108.061 85.7018 107.406C85.6086 106.763 85.6557 106.218 85.8429 105.772C86.0273 105.344 86.2974 105.145 86.6533 105.175C87.0082 105.212 87.342 105.473 87.6546 105.96Z" fill="#FFD90A"/>
<path d="M88.2622 107.679C88.1708 107.023 87.9661 106.448 87.648 105.954C87.3351 105.467 87.001 105.205 86.6458 105.168C86.2896 105.138 86.0192 105.337 85.8346 105.765C85.6472 106.212 85.6001 106.757 85.6933 107.4C85.7847 108.056 85.9868 108.627 86.2997 109.115C86.6178 109.609 86.955 109.871 87.3112 109.902C87.6655 109.944 87.9364 109.742 88.1237 109.295C88.3102 108.854 88.3564 108.316 88.2622 107.679Z" fill="#FEE677"/>
<path d="M76.219 108.011L76.2176 108.021C76.3998 108.209 76.5813 108.39 76.7622 108.563C79.5326 111.226 82.3103 112.33 85.0956 111.876C83.2175 111.253 81.8667 110.626 81.0433 109.994C81.0374 109.991 81.0317 109.987 81.0262 109.982C80.657 109.747 80.3238 109.46 80.0267 109.121C79.136 107.791 79.218 106.614 80.2725 105.59C82.5096 103.997 84.8631 102.873 87.333 102.221C87.1801 101.894 87.0157 101.557 86.8397 101.21C86.7059 101.259 86.5756 101.306 86.4489 101.349C86.0129 101.516 85.5852 101.69 85.1658 101.872C82.8828 102.844 80.745 104.131 78.7524 105.733C78.6034 105.85 78.4558 105.97 78.3096 106.092C77.5943 106.695 76.8974 107.335 76.219 108.011Z" fill="#FBC501"/>
<path d="M78.4959 100.874C75.5935 103.322 74.439 105.176 75.0326 106.436L76.2482 108.007C76.9268 107.33 77.6238 106.69 78.3392 106.087C78.4855 105.965 78.6331 105.845 78.7821 105.728C80.7752 104.126 82.9134 102.838 85.1969 101.866C85.6164 101.684 86.0442 101.51 86.4804 101.343C86.6071 101.3 86.7374 101.253 86.8712 101.205L86.8726 101.195L85.1175 97.5309C82.969 98.3494 80.7618 99.4639 78.4959 100.874ZM83.2065 97.4317C83.4148 97.3433 83.6241 97.2554 83.8343 97.1682L78.0581 85.7238C76.055 85.407 73.8937 86.5318 71.5741 89.0984C71.0053 89.7267 70.4523 90.4399 69.915 91.2381C69.9604 91.9774 70.0379 92.7036 70.1475 93.4169C70.8125 96.4642 71.7758 98.5573 73.0373 99.6964C74.533 101.042 76.4469 101.059 78.779 99.7476C78.9652 99.6341 79.153 99.5207 79.3424 99.4073C80.1947 98.912 81.0742 98.4466 81.9809 98.0112C82.3785 97.8068 82.787 97.6137 83.2065 97.4317Z" fill="#93CEE0"/>
<path d="M73.7172 104.239L72.5332 105.168C72.5362 105.175 72.5388 105.179 72.5411 105.179C72.6865 105.418 72.8346 105.654 72.9854 105.887C73.7775 106.976 74.5707 107.932 75.3649 108.755L76.2514 108.036L76.2528 108.027L75.0362 106.455C74.4423 105.195 75.5976 103.34 78.5021 100.891C76.9372 101.866 75.3453 102.983 73.7265 104.24C73.7246 104.242 73.7215 104.241 73.7172 104.239ZM70.1476 93.4305C70.0379 92.717 69.9604 91.9904 69.9149 91.2508C69.5265 94.7209 69.9938 97.8455 71.3169 100.624C71.3574 100.71 71.3983 100.795 71.4397 100.882C71.4437 100.89 71.4458 100.897 71.4462 100.902C71.9199 101.868 72.486 102.903 73.1445 104.006L73.3807 103.824C73.6448 103.582 73.912 103.341 74.1823 103.102C74.5688 102.774 74.9623 102.451 75.3627 102.134C76.4497 101.281 77.5906 100.491 78.7854 99.7641C76.4516 101.076 74.5363 101.059 73.0395 99.7128C71.7771 98.5733 70.8131 96.4792 70.1476 93.4305Z" fill="#7FB3C2"/>
<path d="M83.8324 97.1504C84.1402 97.023 84.4501 96.897 84.7619 96.7723C82.8947 93.2874 81.1172 89.7532 79.4293 86.1694C78.9802 85.9385 78.5227 85.7843 78.0568 85.7071L83.8324 97.1504ZM86.1271 97.1573C85.7926 97.2704 85.4554 97.389 85.1155 97.5131L86.8704 101.177L87.926 100.781C87.8658 100.676 87.8061 100.568 87.7469 100.457C87.6747 100.307 87.5958 100.158 87.5103 100.011C87.0465 99.1832 86.6271 98.3337 86.252 97.4625C86.2102 97.3613 86.1686 97.2596 86.1271 97.1573Z" fill="#A7EAFF"/>
<path d="M83.8194 97.174C83.6094 97.2612 83.4003 97.349 83.1921 97.4374C82.7729 97.6192 82.3647 97.8122 81.9674 98.0164C81.0613 98.4516 80.1824 98.9166 79.3308 99.4116C79.1416 99.5249 78.9539 99.6382 78.7678 99.7516C77.5747 100.477 76.4355 101.266 75.35 102.119C74.9502 102.436 74.5574 102.758 74.1714 103.085C73.9014 103.325 73.6346 103.565 73.3709 103.807L73.135 103.989L72.2276 104.665C72.3261 104.83 72.4251 104.991 72.5246 105.149L73.7069 104.221C73.7112 104.223 73.7143 104.224 73.7162 104.223C75.3327 102.966 76.9223 101.851 78.4849 100.878C80.7492 99.4681 82.9548 98.3544 85.1018 97.5365C85.4415 97.4125 85.7785 97.2939 86.1127 97.1809C86.0082 96.9205 85.9056 96.6571 85.8048 96.3906L84.7484 96.7961C84.4368 96.9207 84.1271 97.0467 83.8194 97.174Z" fill="#68929F"/>
<path d="M82.4779 96.966L81.4519 95.1068L79.5446 94.6869L79.5988 97.2815L78.8355 96.8338L79.1415 94.7582L77.3714 95.4557L79.2204 94.2765L79.4957 92.3393L79.5086 92.2329L78.9929 92.266L76.0055 98.0486L78.6559 97.3766L80.0629 98.2088L80.2122 97.2531L82.4779 96.966ZM79.5384 94.2834L81.4519 95.1068L79.8522 92.2164L79.5164 92.2415L79.4957 92.3393L79.5384 94.2834Z" fill="#B3EBFF"/>
<path d="M77.7556 93.1706L77.7943 91.0483L76.3515 89.73L75.1039 92.0019L74.666 91.2323L75.9667 89.5898L74.0853 89.3069L76.2754 89.2125L77.4803 87.6744L77.5446 87.5888L77.0813 87.3592L71.6083 90.8663L74.2396 91.612L75.0434 93.0366L75.6495 92.2845L77.7556 93.1706ZM76.5474 89.3777L77.7943 91.0483L77.8505 87.7465L77.547 87.6002L77.4803 87.6744L76.5474 89.3777Z" fill="#B3EBFF"/>
<g filter="url(#filter0_f_1_1400)">
<path d="M60.451 107.609C59.6092 108.653 58.5273 109.247 57.2054 109.391C56.8687 109.429 56.5507 109.439 56.2514 109.42L55.6715 110.523C56.2077 110.611 56.7658 110.624 57.3457 110.561C58.9857 110.378 60.3232 109.64 61.3583 108.345C62.3934 107.05 62.8205 105.569 62.6397 103.903C62.4838 102.47 61.907 101.263 60.9093 100.282L60.3481 101.376C60.9904 102.112 61.3676 102.995 61.4799 104.026C61.6295 105.359 61.2866 106.553 60.451 107.609ZM54.4181 110.165L54.9419 109.118C54.5553 108.961 54.1843 108.75 53.8289 108.486L53.2864 109.542C53.6418 109.794 54.019 110.001 54.4181 110.165ZM56.3823 99.7069L56.5226 99.4146C56.6785 99.1254 56.8282 98.8299 56.9716 98.5282C56.666 98.5282 56.3574 98.5439 56.0456 98.5753C55.0292 98.6885 54.1282 99.0154 53.3425 99.556C52.8623 99.8892 52.4227 100.301 52.0237 100.791C50.9948 102.093 50.5677 103.567 50.7422 105.214C50.8732 106.402 51.2847 107.433 51.9769 108.307L52.5849 107.138C52.5822 107.133 52.5791 107.127 52.5755 107.119C52.2008 106.523 51.97 105.844 51.8834 105.082C51.7399 103.749 52.0891 102.561 52.9309 101.517C53.754 100.468 54.8297 99.8672 56.1578 99.7163C56.2327 99.7101 56.3044 99.7069 56.373 99.7069H56.3823ZM58.73 98.8865L58.1969 99.9238C58.5897 100.056 58.9732 100.248 59.3473 100.499L60.0675 99.5843C59.5687 99.2637 59.1228 99.0311 58.73 98.8865Z" fill="#FFCC33"/>
<path d="M60.3481 101.376L58.412 105.167L57.9256 107.26L57.5141 106.949L56.2514 109.42C56.5507 109.439 56.8687 109.429 57.2054 109.391C58.5273 109.247 59.6092 108.653 60.451 107.609C61.2866 106.553 61.6295 105.359 61.4799 104.026C61.3676 102.995 60.9904 102.112 60.3481 101.376ZM54.9419 109.118L56.4665 106.148L56.3823 106.091L55.6621 106.713L55.3067 105.563L53.8288 108.486C54.1843 108.75 54.5553 108.961 54.9419 109.118ZM55.6715 105.12L55.8772 105.78L59.1509 101.951L55.6715 105.12ZM56.3823 99.7069H56.373C56.3044 99.7069 56.2327 99.7101 56.1578 99.7163C54.8297 99.8672 53.754 100.468 52.9309 101.517C52.0891 102.561 51.7399 103.749 51.8834 105.082C51.97 105.844 52.2008 106.523 52.5755 107.119L53.8943 104.563L53.1741 104.214L54.2965 103.79L56.3823 99.7069ZM59.3473 100.499C58.9732 100.248 58.5897 100.056 58.1969 99.9238L56.6816 102.885L58.4868 102.206L59.3473 100.499Z" fill="#10ABDE"/>
<path d="M56.4665 106.148L54.9419 109.118C55.3597 109.275 55.7962 109.376 56.2514 109.42L57.5141 106.949L56.4665 106.148ZM55.2038 105.186L53.8943 104.563L52.5755 107.119C52.5791 107.127 52.5822 107.133 52.5849 107.138C52.8218 107.534 53.1211 107.892 53.4828 108.213C53.5451 108.263 53.6075 108.31 53.6698 108.354C53.7197 108.398 53.7727 108.442 53.8288 108.486L55.3067 105.563L55.2038 105.186ZM59.7121 100.773C59.5874 100.678 59.4658 100.587 59.3473 100.499L58.4868 102.206L59.1509 101.951L58.412 105.167L60.3481 101.376C60.1611 101.162 59.9491 100.961 59.7121 100.773ZM58.1969 99.9238C58.0534 99.8735 57.91 99.8358 57.7666 99.8107C57.3239 99.6975 56.8624 99.6629 56.3823 99.7069L54.2965 103.79L56.6816 102.885L58.1969 99.9238Z" fill="#12C4FF"/>
<path d="M54.9419 109.118L54.4181 110.165C54.8172 110.334 55.235 110.454 55.6715 110.523L56.2514 109.42C55.7962 109.376 55.3597 109.275 54.9419 109.118ZM52.5849 107.138L51.9769 108.307C52.2575 108.647 52.5817 108.967 52.9496 109.269C53.0619 109.363 53.1741 109.454 53.2864 109.542L53.8288 108.486C53.7727 108.442 53.7197 108.398 53.6698 108.354C53.6075 108.31 53.5451 108.263 53.4828 108.213C53.1211 107.892 52.8218 107.534 52.5849 107.138ZM60.4323 99.8672C60.3138 99.7666 60.1922 99.6723 60.0675 99.5843L59.3473 100.499C59.4658 100.587 59.5874 100.678 59.7121 100.772C59.949 100.961 60.1611 101.162 60.3481 101.376L60.9093 100.282C60.7597 100.138 60.6007 99.9992 60.4323 99.8672ZM58.1969 99.9238L58.73 98.8865C58.5928 98.8299 58.4556 98.7828 58.3185 98.7451C57.882 98.6193 57.433 98.547 56.9716 98.5282C56.8282 98.8299 56.6785 99.1254 56.5226 99.4146L56.3823 99.7069C56.8624 99.6629 57.3239 99.6975 57.7666 99.8106C57.91 99.8358 58.0534 99.8735 58.1969 99.9238Z" fill="#FFFF99"/>
<path d="M56.6816 102.885L54.2965 103.79L53.1741 104.214L53.8943 104.563L55.2038 105.186L55.3067 105.563L55.6621 106.713L56.3823 106.091L56.4665 106.148L57.5141 106.949L57.9256 107.26L58.412 105.167L59.1509 101.951L55.8772 105.78L55.6715 105.12L59.1509 101.951L58.4868 102.206L56.6816 102.885Z" fill="white"/>
<path d="M53.3425 99.556L52.8093 98.6696C52.747 98.7073 52.6722 98.7231 52.5849 98.7168C52.3791 98.7168 52.1795 98.6068 51.9862 98.3867C51.7929 98.173 51.6526 97.9121 51.5653 97.604C51.4843 97.2834 51.4843 97.0131 51.5653 96.7931C51.609 96.6862 51.6651 96.6076 51.7337 96.5573L51.1491 95.5247C51.0696 95.5782 50.9807 95.6049 50.8826 95.6049C50.6705 95.6112 50.4679 95.5012 50.2746 95.2748C50.075 95.0611 49.9347 94.8002 49.8537 94.4922C49.7726 94.1715 49.7695 93.9044 49.8443 93.6906C49.9115 93.5305 50.005 93.4252 50.1249 93.3747L49.6994 92.3138C49.6556 92.3264 49.6104 92.3327 49.5637 92.3327C49.3517 92.339 49.1491 92.229 48.9558 92.0027C48.7562 91.7889 48.6159 91.528 48.5349 91.22C48.4538 90.8993 48.4507 90.6322 48.5255 90.4184C48.5941 90.255 48.6908 90.1481 48.8155 90.0978C48.8653 90.0789 48.9183 90.0695 48.9745 90.0695C49.174 90.0758 49.3767 90.1795 49.5824 90.3807C49.7882 90.6133 49.9316 90.8836 50.0127 91.1917C50.1 91.506 50.0938 91.7732 49.994 91.9932C49.9503 92.1064 49.8973 92.1913 49.835 92.2478C49.7918 92.278 49.7466 92.3 49.6994 92.3138L49.5263 91.8895M63.1214 92.2148C63.1836 92.2323 63.2507 92.237 63.3225 92.229C63.522 92.2164 63.7122 92.0907 63.8931 91.8518C64.0739 91.6129 64.1924 91.3394 64.2485 91.0314C64.3046 90.7107 64.2859 90.4404 64.1924 90.2204C64.1175 90.0758 64.0115 89.9846 63.8743 89.9469C63.8307 89.9218 63.7808 89.9123 63.7247 89.9186C63.5189 89.9438 63.3225 90.0664 63.1354 90.2864C62.9484 90.5316 62.8268 90.8145 62.7706 91.1351C62.7145 91.4494 62.7426 91.7135 62.8548 91.9272C62.9109 92.0278 62.9671 92.1095 63.0232 92.1724C63.0546 92.1905 63.0873 92.2046 63.1214 92.2148ZM63.1214 92.2148L63.257 91.8141M60.0675 99.5843L60.5258 98.6696C60.4323 98.613 60.3513 98.5187 60.2827 98.3867C60.1704 98.1667 60.1424 97.9027 60.1985 97.5946C60.2608 97.274 60.3887 96.9974 60.582 96.7648C60.7566 96.5322 60.953 96.4064 61.1712 96.3876C61.2772 96.375 61.3708 96.4002 61.4518 96.463L61.9382 95.4021L61.9288 95.3974C61.8727 95.3346 61.8166 95.2528 61.7605 95.1523C61.6482 94.9385 61.6202 94.6745 61.6763 94.3601C61.7324 94.0395 61.854 93.7566 62.0411 93.5114C62.2282 93.2914 62.4246 93.1688 62.6303 93.1437C62.6865 93.1374 62.7364 93.1468 62.78 93.172C62.7857 93.1735 62.7919 93.1751 62.7987 93.1767L63.1214 92.2148M62.2001 94.8222L61.9382 95.4021C62.0223 95.449 62.119 95.4662 62.2282 95.454C62.4277 95.4414 62.6179 95.3157 62.7987 95.0768C62.9795 94.8379 63.098 94.5645 63.1541 94.2564C63.2103 93.9358 63.1915 93.6655 63.098 93.4454C63.0263 93.3068 62.9265 93.2172 62.7987 93.1767L62.6584 93.5869M60.7784 98.1604L60.5258 98.6696C60.5944 98.6885 60.6693 98.6948 60.7503 98.6885C60.9561 98.6759 61.1494 98.5533 61.3302 98.3207C61.5111 98.0818 61.6295 97.8084 61.6857 97.5003C61.7418 97.1734 61.7231 96.8999 61.6295 96.6799C61.5797 96.5856 61.5204 96.5133 61.4518 96.463L61.2273 96.9345M50.2933 93.7849L50.1249 93.3747L50.1343 93.37C50.1842 93.3511 50.2372 93.3417 50.2933 93.3417C50.4928 93.348 50.6955 93.4517 50.9013 93.6529C51.107 93.8855 51.2504 94.1558 51.3315 94.4639C51.4188 94.7782 51.4126 95.0454 51.3128 95.2654C51.2692 95.3786 51.2162 95.4634 51.1538 95.52L51.1491 95.5247L50.8451 94.9825M51.7337 96.5573C51.8023 96.4819 51.8927 96.4473 52.005 96.4536C52.2107 96.4599 52.4134 96.5699 52.6129 96.7836C52.8249 96.9974 52.9715 97.2646 53.0525 97.5852C53.1274 97.8932 53.1211 98.1573 53.0338 98.3773C52.9777 98.5156 52.9029 98.613 52.8093 98.6696L52.5194 98.1887M51.7337 96.5573L51.9769 97.01" stroke="white" stroke-width="1.25335" stroke-linecap="round" stroke-linejoin="round"/>
<path d="M58.1969 99.9238C58.5897 100.056 58.9732 100.248 59.3473 100.499M56.3823 99.7069C56.8624 99.6629 57.3239 99.6975 57.7666 99.8107C57.91 99.8358 58.0534 99.8735 58.1969 99.9238M59.3473 100.499C59.4658 100.587 59.5874 100.678 59.7121 100.773C59.9491 100.961 60.1611 101.162 60.3481 101.376M52.5755 107.124C52.2008 106.524 51.97 105.844 51.8834 105.082C51.7399 103.749 52.0891 102.561 52.9309 101.517C53.754 100.468 54.8297 99.8672 56.1578 99.7164C56.2327 99.7101 56.3044 99.7069 56.373 99.7069M52.5849 107.138C52.8218 107.534 53.1211 107.892 53.4828 108.213C53.5451 108.263 53.6075 108.31 53.6698 108.354C53.7197 108.398 53.7727 108.442 53.8288 108.486M56.2514 109.42C55.7962 109.376 55.3597 109.275 54.9419 109.118C54.5553 108.961 54.1843 108.75 53.8288 108.486M60.3481 101.376C60.9904 102.112 61.3676 102.995 61.4799 104.026C61.6295 105.359 61.2866 106.553 60.451 107.609C59.6092 108.653 58.5273 109.247 57.2054 109.391C56.8687 109.429 56.5507 109.439 56.2514 109.42" stroke="#07546D" stroke-width="1.25335" stroke-linecap="round" stroke-linejoin="round"/>
<path d="M60.0675 99.5843C59.5687 99.2637 59.1228 99.0311 58.73 98.8865C58.5928 98.8299 58.4556 98.7828 58.3185 98.7451C57.882 98.6193 57.433 98.547 56.9716 98.5282M60.9093 100.282C60.7597 100.138 60.6007 99.9992 60.4323 99.8672C60.3138 99.7666 60.1922 99.6723 60.0675 99.5843M53.3425 99.556C54.1282 99.0154 55.0292 98.6885 56.0456 98.5753C56.3574 98.5439 56.666 98.5282 56.9716 98.5282M51.9769 108.307C51.2847 107.433 50.8732 106.402 50.7422 105.214C50.5677 103.567 50.9948 102.093 52.0237 100.791C52.4227 100.301 52.8623 99.8892 53.3425 99.556M53.2864 109.542C53.1741 109.454 53.0619 109.363 52.9496 109.269C52.5817 108.967 52.2575 108.647 51.9769 108.307M55.6715 110.523C55.235 110.454 54.8172 110.334 54.4181 110.165C54.019 110.001 53.6418 109.794 53.2864 109.542M60.9093 100.282C61.907 101.263 62.4838 102.47 62.6397 103.903C62.8205 105.569 62.3934 107.05 61.3583 108.345C60.3232 109.64 58.9857 110.378 57.3457 110.561C56.7658 110.624 56.2077 110.611 55.6715 110.523" stroke="#D37F30" stroke-width="1.25335" stroke-linecap="round" stroke-linejoin="round"/>
<path d="M56.373 99.7069H56.3838" stroke="black" stroke-width="1.25335" stroke-linecap="round" stroke-linejoin="round"/>
</g>
<path d="M43.6847 67.0377C43.6224 67.0252 43.5444 67.0063 43.4509 66.9812C43.3386 66.9497 43.2825 66.9749 43.2825 67.0566C43.2825 67.044 43.4166 67.0377 43.6847 67.0377ZM67.1898 40.0962C68.942 40.8317 69.8181 41.693 69.8181 42.68C69.8181 43.0509 69.4658 43.315 68.7612 43.4721C68.0503 43.6293 67.6949 43.8242 67.6949 44.0568C67.6949 44.2643 67.9163 44.5251 68.359 44.8395C68.5149 44.9464 69.0044 45.2513 69.8275 45.7542C71.243 46.6218 71.9507 47.329 71.9507 47.8759C71.9507 48.4417 71.7387 48.8127 71.3147 48.9887C70.978 49.1333 70.3606 49.1867 69.4627 49.149C68.2592 49.0736 67.2678 49.0296 66.4883 49.017C65.0853 48.9981 63.7478 49.0798 62.4757 49.2622C60.8357 49.5011 59.3735 50.1957 58.089 51.3462C57.3095 52.044 56.4708 53.0687 55.5729 54.4204C56.0717 56.9476 56.8138 58.8776 57.799 60.2104C58.2916 60.8831 58.6034 61.342 58.7343 61.5872C59.0087 62.1027 59.1459 62.6371 59.1459 63.1903C59.1459 64.4791 58.5753 65.4787 57.4342 66.189C56.2183 66.9372 54.4411 67.3112 52.1028 67.3112C50.6249 67.2484 49.1502 67.1918 47.6786 67.1415C45.6271 67.0723 44.2958 67.0377 43.6847 67.0377C43.7391 67.0499 43.7734 67.0562 43.7876 67.0566C39.1732 67.0568 36.8661 67.9872 36.8661 69.8479C36.8661 70.6086 37.3119 71.1461 38.2036 71.4604C38.4842 71.561 39.4632 71.7528 41.1406 72.0357C42.475 72.2683 43.4509 72.6015 44.0682 73.0352C44.9599 73.6702 45.4057 74.6321 45.4057 75.9208C45.4057 77.6119 44.3052 78.7498 42.104 79.3345C41.3308 79.542 40.3362 79.7023 39.1202 79.8154C37.7858 79.9097 36.838 79.9852 36.2768 80.0417C36.1895 80.9785 36.23 81.8649 36.3984 82.701C36.5418 83.4303 36.6135 83.9175 36.6135 84.1627C36.6135 85.5 36.1677 86.817 35.276 88.1138C43.7319 90.6358 55.6793 91.4248 71.1183 90.4808C72.2273 90.0583 73.2687 89.5899 74.2423 89.0757C75.1589 88.5602 76.0288 88.0195 76.8519 87.4537C77.569 86.9634 78.2518 86.4542 78.9003 85.9261C79.2418 85.6492 79.5723 85.3663 79.8918 85.0774C84.7026 80.8056 87.3185 75.4996 87.7393 69.1595C87.7618 66.6755 87.5996 64.3023 87.2529 62.0398C82.7837 48.6571 74.2128 39.554 61.5404 34.7305C63.3704 34.146 65.2473 33.8254 67.1711 33.7686C63.5118 32.667 59.7923 32.6921 56.0125 33.8441C55.9997 33.8444 55.9904 33.8475 55.9844 33.8535C55.9844 33.8472 55.9876 33.8441 55.9938 33.8441C56.7727 32.4429 57.8795 31.5502 59.3143 31.166C55.3082 31.1823 51.6947 32.0372 48.4737 33.7309C48.3923 33.7893 48.3112 33.8491 48.2305 33.9101C48.9345 32.5567 48.0366 31.6168 45.5367 31.0905C46.7739 31.6788 47.5627 32.6123 47.9031 33.8912L46.9584 34.0515C44.6076 34.3533 42.2131 34.8468 39.775 35.5321C39.5898 35.5821 39.4059 35.6324 39.2231 35.6829C32.897 37.4928 27.7776 40.6582 23.8648 45.179C23.4433 46.016 23.0474 46.8458 22.6769 47.6685C23.4675 47.2623 24.487 46.7625 25.7355 46.1691C27.999 45.0878 29.2368 44.4811 29.4488 44.3491H29.533C28.9905 44.9904 28.4667 45.8799 27.9616 47.0178C27.4565 48.294 27.098 49.1867 26.886 49.6959V49.7808C29.5735 46.8261 33.3274 43.9059 38.1475 41.0203C40.1741 39.807 42.079 38.798 43.8624 37.9933C45.6396 37.2012 47.0083 36.7422 47.9686 36.6165H48.8197C48.6015 37.308 48.4269 37.8707 48.2959 38.3045C48.2086 38.5874 48.1369 38.8294 48.0808 39.0306C49.3716 38.578 51.3358 38.1599 53.9735 37.7764C56.8107 37.3615 58.329 37.2703 58.5286 37.5029C58.4984 37.5395 58.4516 37.5583 58.3883 37.5595H59.3797C58.9994 37.5721 58.5255 37.7984 57.958 38.2385C57.958 38.295 57.9268 38.3233 57.8645 38.3233C62.0174 38.6377 65.1258 39.2286 67.1898 40.0962ZM72.7458 76.9298C70.7067 76.3452 69.6872 74.7704 69.6872 72.2054C69.6872 71.3378 69.946 70.6337 70.4635 70.0931C72.7894 70.1434 74.8253 70.3131 76.5713 70.6023C80.4 71.231 82.3143 72.3374 82.3143 73.9217C82.3143 76.0591 80.6026 77.1279 77.1793 77.1279C76.4123 77.1719 75.7669 77.2002 75.2431 77.2127C74.2641 77.2253 73.4317 77.131 72.7458 76.9298Z" fill="#FFD90A"/>
<path d="M23.8648 45.179C23.0227 46.1556 22.237 47.1929 21.5078 48.2909C19.5978 51.1655 18.0701 54.4692 16.9246 58.2018C14.7297 64.8154 14.4802 71.3284 16.1763 77.7408C16.8435 80.3184 18.0532 82.5816 19.8055 84.5304C22.5595 87.5866 26.6594 89.8529 32.1052 91.3295C35.724 92.3134 39.9362 92.9483 44.7416 93.2343C55.844 93.8732 64.6362 92.9553 71.1183 90.4808C55.6793 91.4248 43.7319 90.6358 35.276 88.1138C28.9567 86.2283 24.5887 83.3742 22.1719 79.5514C17.1658 70.1207 17.3342 59.493 22.6769 47.6685C23.0474 46.8458 23.4433 46.016 23.8648 45.179ZM56.0125 33.8441C56.0057 33.8441 55.9994 33.8441 55.9938 33.8441C55.9876 33.8441 55.9844 33.8472 55.9844 33.8535C55.9904 33.8475 55.9997 33.8444 56.0125 33.8441Z" fill="#FBC501"/>
<path d="M45.5367 31.0905C45.4253 31.0685 45.3099 31.0465 45.1906 31.0245C46.3317 32.0053 46.921 33.0143 46.9584 34.0516L47.9031 33.8913C47.5627 32.6124 46.7739 31.6788 45.5367 31.0905Z" fill="#E69D1D"/>
<path d="M59.3143 31.166C60.2244 30.9286 61.2658 30.894 62.4383 31.0622C57.4198 29.6925 52.765 30.582 48.4737 33.7309C51.6947 32.0373 55.3083 31.1823 59.3143 31.166ZM75.7482 41.4258C75.3491 41.0926 74.9438 40.7657 74.5323 40.4451C70.5727 37.8298 66.4384 35.9753 62.1296 34.8814C61.9301 34.8311 61.7337 34.7808 61.5404 34.7305C74.2128 39.554 82.7837 48.6572 87.2529 62.0398C85.9643 53.641 82.1294 46.7697 75.7482 41.4258ZM67.1711 33.7687C67.6268 33.7581 68.0851 33.7612 68.5461 33.7781C64.0814 31.6532 59.9035 31.6752 56.0125 33.8441C59.7923 32.6921 63.5118 32.667 67.1711 33.7687Z" fill="#FDEEC3"/>
<path d="M69.8181 42.68C69.8181 41.693 68.942 40.8317 67.1898 40.0962C65.1258 39.2286 62.0174 38.6377 57.8645 38.3234C57.9268 38.3234 57.958 38.2951 57.958 38.2385C58.5255 37.7984 58.9994 37.5721 59.3797 37.5595H58.3883C58.4516 37.5583 58.4984 37.5395 58.5286 37.5029C58.329 37.2703 56.8107 37.3615 53.9735 37.7764C51.3358 38.1599 49.3716 38.578 48.0808 39.0306C48.1369 38.8294 48.2086 38.5874 48.2959 38.3045C48.4269 37.8707 48.6015 37.3081 48.8197 36.6165H47.9686C47.0083 36.7422 45.6396 37.2012 43.8624 37.9933C42.079 38.798 40.1741 39.807 38.1475 41.0203C33.3274 43.9059 29.5735 46.8261 26.886 49.7808V49.696C27.098 49.1867 27.4566 48.294 27.9616 47.0178C28.4667 45.8799 28.9905 44.9904 29.533 44.3491H29.4488C29.2368 44.4812 27.999 45.0878 25.7355 46.1691C24.487 46.7625 23.4675 47.2623 22.677 47.6685C17.3342 59.493 17.1658 70.1207 22.1719 79.5514C24.5887 83.3742 28.9567 86.2283 35.276 88.1138C36.1677 86.817 36.6135 85.5 36.6135 84.1627C36.6135 83.9175 36.5418 83.4303 36.3984 82.701C36.23 81.8649 36.1895 80.9785 36.2768 80.0418C36.838 79.9852 37.7858 79.9097 39.1203 79.8154C40.3362 79.7023 41.3308 79.542 42.104 79.3345C44.3052 78.7498 45.4057 77.6119 45.4057 75.9208C45.4057 74.6321 44.9599 73.6702 44.0682 73.0352C43.4509 72.6015 42.475 72.2683 41.1406 72.0357C39.4632 71.7528 38.4842 71.561 38.2036 71.4604C37.3119 71.1461 36.8661 70.6086 36.8661 69.8479C36.8661 67.9872 39.1733 67.0568 43.7876 67.0566C43.7734 67.0562 43.7391 67.0499 43.6847 67.0378C43.4166 67.0378 43.2825 67.044 43.2825 67.0566C43.2825 66.9749 43.3386 66.9497 43.4509 66.9812C43.5444 67.0063 43.6224 67.0252 43.6847 67.0378C44.2958 67.0378 45.6271 67.0723 47.6786 67.1415C49.1502 67.1918 50.6249 67.2484 52.1028 67.3112C54.4411 67.3112 56.2183 66.9372 57.4342 66.1891C58.5753 65.4787 59.1459 64.4791 59.1459 63.1903C59.1459 62.6371 59.0087 62.1027 58.7344 61.5872C58.6034 61.342 58.2916 60.8831 57.799 60.2104C56.8138 58.8776 56.0717 56.9476 55.5729 54.4204C56.4708 53.0688 57.3095 52.044 58.089 51.3462C59.3735 50.1957 60.8358 49.5011 62.4757 49.2622C63.7478 49.0799 65.0853 48.9981 66.4883 49.017C67.2678 49.0296 68.2592 49.0736 69.4627 49.149C70.3606 49.1867 70.978 49.1333 71.3147 48.9887C71.7387 48.8127 71.9507 48.4418 71.9507 47.876C71.9507 47.329 71.243 46.6218 69.8275 45.7542C69.0044 45.2513 68.5149 44.9464 68.359 44.8395C67.9163 44.5252 67.6949 44.2643 67.6949 44.0568C67.6949 43.8242 68.0503 43.6293 68.7612 43.4721C69.4658 43.315 69.8181 43.0509 69.8181 42.68ZM69.6872 72.2054C69.6872 74.7704 70.7067 76.3452 72.7458 76.9298C73.4317 77.131 74.2641 77.2253 75.2431 77.2127C75.7669 77.2002 76.4123 77.1719 77.1793 77.1279C80.6026 77.1279 82.3143 76.0591 82.3143 73.9217C82.3143 72.3374 80.4 71.231 76.5713 70.6023C74.8253 70.3131 72.7894 70.1434 70.4635 70.0931C69.946 70.6337 69.6872 71.3378 69.6872 72.2054Z" fill="#FEE677"/>
<path d="M49.8469 62.0019C49.5174 62.5412 49.1178 63.0477 48.648 63.5213C47.1104 65.0715 45.2569 65.8466 43.0876 65.8466C40.9182 65.8466 39.0685 65.0715 37.5385 63.5213C36.8534 62.8345 36.3206 62.0824 35.9401 61.2651C40.2621 64.3423 44.8977 64.5879 49.8469 62.0019Z" fill="#E8E8E8"/>
<path d="M35.9401 61.2651C35.5733 60.482 35.3487 59.6378 35.2664 58.7327C35.2436 58.4717 35.2322 58.2032 35.2322 57.9269C35.2322 55.7321 36.001 53.8634 37.5385 52.3209C39.0685 50.7784 40.9182 50.0071 43.0876 50.0071C45.2569 50.0071 47.1104 50.7784 48.648 52.3209C50.178 53.8634 50.943 55.7321 50.943 57.9269C50.943 58.2032 50.9315 58.4717 50.9087 58.7327C50.8 59.9286 50.446 61.0183 49.8469 62.0019C44.8977 64.5879 40.2621 64.3423 35.9401 61.2651Z" fill="white"/>
<path d="M35.2664 58.7327C35.3487 59.6378 35.5733 60.482 35.9401 61.2651C36.3206 62.0824 36.8534 62.8345 37.5385 63.5213C39.0685 65.0715 40.9182 65.8466 43.0876 65.8466C45.2569 65.8466 47.1104 65.0715 48.648 63.5213C49.1178 63.0477 49.5174 62.5412 49.8469 62.0019C50.446 61.0183 50.8 59.9285 50.9087 58.7327C50.9315 58.9936 50.943 59.2622 50.943 59.5385C50.943 60.4293 50.8174 61.2657 50.5662 62.0479C50.1942 63.1903 49.5548 64.2186 48.648 65.1329C47.1104 66.6831 45.2569 67.4582 43.0876 67.4582C40.9182 67.4582 39.0685 66.6831 37.5385 65.1329C36.001 63.5904 35.2322 61.7256 35.2322 59.5385C35.2322 59.2622 35.2436 58.9936 35.2664 58.7327Z" fill="#D4A600"/>
<path d="M35.2664 58.7327C35.3487 59.6378 35.5733 60.4839 35.9401 61.2709C36.3206 62.0843 36.8534 62.8345 37.5385 63.5214C39.0685 65.0715 40.9182 65.8466 43.0876 65.8466C45.2569 65.8466 47.1104 65.0715 48.648 63.5214C49.1178 63.0477 49.5155 62.5431 49.8412 62.0076C50.4441 61.0202 50.8 59.9286 50.9087 58.7327M35.2664 58.7327C35.2436 58.4717 35.2322 58.2032 35.2322 57.9269C35.2322 55.7321 36.001 53.8634 37.5385 52.3209C39.0685 50.7784 40.9182 50.0071 43.0876 50.0071C45.2569 50.0071 47.1104 50.7784 48.648 52.3209C50.178 53.8634 50.943 55.7321 50.943 57.9269C50.943 58.2032 50.9315 58.4717 50.9087 58.7327" stroke="#CCCCCC" stroke-width="1.52998" stroke-linecap="round" stroke-linejoin="round"/>
<path d="M46.8112 58.3445C46.8112 57.8627 46.9215 57.4512 47.1421 57.1102C47.3627 56.7692 47.6311 56.5987 47.9473 56.5987C48.2561 56.5987 48.5208 56.7692 48.7414 57.1102C48.962 57.4512 49.0723 57.8627 49.0723 58.3445C49.0723 58.819 48.962 59.2304 48.7414 59.5788C48.5208 59.9199 48.2561 60.0904 47.9473 60.0904C47.6311 60.0904 47.3627 59.9199 47.1421 59.5788C46.9215 59.2304 46.8112 58.819 46.8112 58.3445Z" fill="black"/>
<path d="M80.2435 61.8372C79.9585 62.3038 79.6128 62.742 79.2063 63.1519C77.876 64.4931 76.2723 65.1637 74.3954 65.1637C72.5185 65.1637 70.9181 64.4931 69.5944 63.1519C69.0016 62.5576 68.5406 61.9069 68.2114 61.1998C71.9508 63.8622 75.9615 64.0746 80.2435 61.8372Z" fill="#E8E8E8"/>
<path d="M68.2114 61.1998C67.894 60.5222 67.6998 59.7919 67.6285 59.0087C67.6088 58.783 67.5989 58.5506 67.5989 58.3115C67.5989 56.4126 68.2641 54.7958 69.5944 53.4612C70.9181 52.1267 72.5185 51.4594 74.3954 51.4594C76.2723 51.4594 77.876 52.1267 79.2063 53.4612C80.53 54.7958 81.1919 56.4126 81.1919 58.3115C81.1919 58.5506 81.182 58.783 81.1623 59.0087C81.0682 60.0434 80.7619 60.9862 80.2435 61.8372C75.9615 64.0746 71.9508 63.8622 68.2114 61.1998Z" fill="white"/>
<path d="M67.6285 59.0087C67.6998 59.7918 67.894 60.5222 68.2114 61.1998C68.5406 61.9069 69.0016 62.5576 69.5944 63.1519C70.9181 64.4931 72.5185 65.1637 74.3954 65.1637C76.2723 65.1637 77.876 64.4931 79.2063 63.1519C79.6128 62.742 79.9585 62.3038 80.2435 61.8372C80.7619 60.9862 81.0682 60.0434 81.1623 59.0087C81.182 59.2344 81.1919 59.4668 81.1919 59.7059C81.1919 60.4766 81.0832 61.2003 80.8659 61.877C80.5441 62.8654 79.9909 63.7552 79.2063 64.5462C77.876 65.8874 76.2723 66.558 74.3954 66.558C72.5185 66.558 70.9181 65.8874 69.5944 64.5462C68.2641 63.2116 67.5989 61.5982 67.5989 59.7059C67.5989 59.4668 67.6088 59.2344 67.6285 59.0087Z" fill="#D4A600"/>
<path d="M67.6285 59.0087C67.6998 59.7919 67.894 60.5239 68.2114 61.2048C68.5406 61.9086 69.0016 62.5576 69.5944 63.1519C70.9181 64.4931 72.5185 65.1637 74.3954 65.1637C76.2723 65.1637 77.876 64.4931 79.2063 63.1519C79.6128 62.7421 79.9569 62.3055 80.2386 61.8422C80.7603 60.9879 81.0682 60.0434 81.1623 59.0087M67.6285 59.0087C67.6088 58.783 67.5989 58.5506 67.5989 58.3115C67.5989 56.4126 68.2641 54.7958 69.5944 53.4612C70.9181 52.1267 72.5185 51.4594 74.3954 51.4594C76.2723 51.4594 77.876 52.1267 79.2063 53.4612C80.53 54.7958 81.1919 56.4126 81.1919 58.3115C81.1919 58.5506 81.182 58.783 81.1623 59.0087" stroke="#CCCCCC" stroke-width="1.32374" stroke-linecap="round" stroke-linejoin="round"/>
<path d="M77.7451 58.8791C77.7451 58.4475 77.8438 58.079 78.0414 57.7736C78.239 57.4681 78.4794 57.3154 78.7626 57.3154C79.0392 57.3154 79.2762 57.4681 79.4738 57.7736C79.6714 58.079 79.7702 58.4475 79.7702 58.8791C79.7702 59.304 79.6714 59.6725 79.4738 59.9846C79.2762 60.29 79.0392 60.4427 78.7626 60.4427C78.4794 60.4427 78.239 60.29 78.0414 59.9846C77.8438 59.6725 77.7451 59.304 77.7451 58.8791Z" fill="black"/>
<path d="M37.7734 47.1121C37.7696 47.1171 37.7665 47.1203 37.764 47.1216C38.7804 43.6953 41.549 42.0073 46.0698 42.0576C47.61 43.1138 47.7909 44.3711 46.6123 45.8296C43.9393 44.9816 40.993 45.4091 37.7734 47.1121Z" fill="url(#paint0_radial_1_1400)"/>
<path d="M37.923 47.4705L37.7734 47.1121C40.993 45.4091 43.9393 44.9816 46.6123 45.8296L46.285 46.3955C43.5288 45.9787 40.7415 46.337 37.923 47.4705Z" fill="#E69D1D"/>
<path d="M37.7734 47.1168C40.993 45.4107 43.9393 44.9816 46.6123 45.8296C47.7909 44.3711 47.61 43.1138 46.0698 42.0576C41.549 42.0073 38.7804 43.6953 37.764 47.1216C37.7665 47.1203 37.7696 47.1187 37.7734 47.1168Z" stroke="#432100" stroke-width="1.25336" stroke-linecap="round" stroke-linejoin="round"/>
<path d="M78.3305 47.8463C78.3339 47.8508 78.3367 47.8536 78.339 47.8548C77.4214 44.7619 74.9222 43.2381 70.8412 43.2835C69.4509 44.237 69.2876 45.372 70.3515 46.6886C72.7645 45.923 75.4241 46.3089 78.3305 47.8463Z" fill="url(#paint1_radial_1_1400)"/>
<path d="M78.1954 48.1698L78.3305 47.8463C75.4241 46.3089 72.7645 45.923 70.3515 46.6886L70.647 47.1993C73.135 46.8231 75.6511 47.1466 78.1954 48.1698Z" fill="#E69D1D"/>
<path d="M78.3305 47.8505C75.4241 46.3103 72.7645 45.923 70.3515 46.6886C69.2876 45.372 69.4509 44.237 70.8412 43.2835C74.9222 43.2381 77.4214 44.7619 78.339 47.8548C78.3367 47.8536 78.3339 47.8522 78.3305 47.8505Z" stroke="#432100" stroke-width="1.13142" stroke-linecap="round" stroke-linejoin="round"/>
<path d="M34.8925 60.0124C34.5371 59.7295 34.2004 59.4403 33.8823 59.1448L19.1601 56.7873C17.9005 56.7748 16.9932 57.7272 16.4382 59.6446V59.6541C17.3549 60.3079 18.2746 59.6823 19.1975 57.7775L33.8075 63.0771C34.0944 62.0398 34.456 61.0183 34.8925 60.0124Z" fill="#171717"/>
<path d="M63.5607 51.9875C60.7672 50.7176 57.587 50.7458 54.0202 52.0723C57.2752 51.4311 60.4554 51.4028 63.5607 51.9875ZM48.0153 51.3368C47.9031 51.3242 47.794 51.3116 47.688 51.2991C47.5695 50.9847 47.4448 50.6798 47.3138 50.3844C47.1579 50.0386 46.9958 49.7023 46.8275 49.3753C46.6279 48.9981 46.4159 48.6335 46.1914 48.2815C45.9669 47.9294 45.73 47.5962 45.4806 47.2819C45.306 47.0556 45.1251 46.8355 44.9381 46.6218C44.3395 45.9491 43.6785 45.3393 42.9551 44.7924C40.8288 46.3452 39.4258 48.4041 38.7461 50.969C35.5472 51.3211 32.8659 52.2012 30.7022 53.6094C32.9158 52.3458 35.6907 51.6197 39.0267 51.4311C39.5193 48.8661 40.8288 46.8072 42.9551 45.2544C43.6598 45.8265 44.2989 46.4615 44.8726 47.1593C45.0472 47.3793 45.2187 47.6056 45.387 47.8383C45.624 48.1652 45.8485 48.5078 46.0605 48.8661C46.2725 49.2245 46.472 49.5985 46.6591 49.9883C46.815 50.3215 46.9615 50.6641 47.0987 51.0162C47.2234 51.3116 47.2982 51.5537 47.3232 51.7423C47.6724 51.7486 47.9031 51.7549 48.0153 51.7611C49.1939 51.7863 50.2976 51.8334 51.3264 51.9026C51.7692 51.934 52.1994 51.9686 52.6172 52.0063C52.187 51.9246 51.7442 51.8492 51.289 51.78C50.2789 51.6165 49.1876 51.4688 48.0153 51.3368ZM37.156 59.6541C35.3726 58.1453 33.9509 56.5516 32.8909 54.873C32.8098 54.7913 32.7288 54.7096 32.6477 54.6279C33.4022 56.5139 34.6743 58.1673 36.4639 59.5881C35.6408 61.4803 35.1357 63.4135 34.9486 65.3875C34.8925 65.991 34.8644 66.6008 34.8644 67.2169C34.8644 67.5376 34.8738 67.8582 34.8925 68.1788C35.1544 68.1222 35.4194 68.0594 35.6875 67.9902C35.9494 67.9211 36.2113 67.8488 36.4732 67.7733C37.128 67.5659 37.7858 67.3238 38.4468 67.0472C39.7937 66.4563 41.1468 65.6987 42.5062 64.7746C41.9512 65.0197 41.4025 65.2461 40.86 65.4535C40.8101 65.4661 40.7633 65.4818 40.7197 65.5007C40.6698 65.5133 40.623 65.529 40.5794 65.5478C40.33 65.6358 40.0836 65.7207 39.8405 65.8024C39.7719 65.8213 39.7002 65.8433 39.6253 65.8685C38.2036 66.4971 36.8287 66.9655 35.5005 67.2735C35.4194 64.7337 35.9713 62.1939 37.156 59.6541ZM64.7954 53.9583C64.7891 53.9646 64.7829 53.9678 64.7766 53.9678C65.369 55.2565 66.3231 56.4824 67.6388 57.6455C68.1751 58.117 68.7706 58.579 69.4253 59.0317C69.5064 59.0883 69.5905 59.1448 69.6778 59.2014C68.3247 61.3075 67.8477 63.3192 68.2468 65.2366C68.2967 65.4818 68.3621 65.7239 68.4432 65.9628C69.073 65.8685 69.6934 65.7459 70.3045 65.595C72.2313 65.1235 74.0833 64.3848 75.8604 63.3789C73.5408 64.2591 71.2866 64.8374 69.0979 65.114C68.6801 63.1652 69.1197 61.2572 70.4168 59.39C70.5103 59.2517 70.6069 59.1166 70.7067 58.9845C68.0503 57.5512 66.0799 55.8758 64.7954 53.9583ZM78.2456 50.6767C77.9338 49.8657 77.5752 49.1365 77.1699 48.4889C76.7895 47.8791 76.3655 47.3416 75.8979 46.8764C75.3491 46.3232 74.7412 45.8611 74.0739 45.4902C72.091 47.2002 70.8221 49.3313 70.2671 51.8837C67.8477 51.494 65.712 51.5725 63.86 52.1195C66.3168 51.8617 68.5585 51.9969 70.5851 52.525C71.2523 49.6394 72.4683 47.5271 74.233 46.188C76.4778 47.81 77.8745 49.9411 78.4233 52.5816C79.0843 52.5816 79.739 52.6067 80.3875 52.657C82.1771 52.7953 83.9044 53.1285 85.5693 53.6566C84.4219 53.0845 83.2372 52.6821 82.015 52.4495C81.5785 52.3615 81.1389 52.2987 80.6962 52.2609C80.0539 52.1981 79.4054 52.1823 78.7506 52.2138C78.601 51.6731 78.4326 51.1608 78.2456 50.6767Z" fill="#CCCCCC"/>
<path d="M80.3875 52.657C79.739 52.6067 79.0843 52.5815 78.4233 52.5815C77.8745 49.9411 76.4778 47.81 74.233 46.188C72.4683 47.5271 71.2523 49.6394 70.5851 52.525C68.5586 51.9969 66.3168 51.8617 63.86 52.1195C63.8538 52.1195 63.8475 52.1195 63.8413 52.1195C63.7602 52.0818 63.6792 52.044 63.5981 52.0063C63.5857 52 63.5732 51.9937 63.5607 51.9875C60.4554 51.4028 57.2752 51.4311 54.0202 52.0723C53.9703 52.0912 53.9236 52.11 53.8799 52.1289C53.8113 52.1541 53.7427 52.1792 53.6742 52.2043C53.3312 52.1352 52.9789 52.0692 52.6172 52.0063C52.1994 51.9686 51.7692 51.934 51.3265 51.9026C50.2976 51.8334 49.1939 51.7863 48.0153 51.7611C47.9031 51.7549 47.6724 51.7486 47.3232 51.7423C47.2982 51.5537 47.2234 51.3116 47.0987 51.0162C46.9615 50.6641 46.815 50.3215 46.6591 49.9883C46.472 49.5985 46.2725 49.2245 46.0605 48.8661C45.8485 48.5078 45.624 48.1652 45.387 47.8382C45.2187 47.6056 45.0472 47.3793 44.8726 47.1593C44.2989 46.4615 43.6598 45.8265 42.9551 45.2544C40.8288 46.8072 39.5193 48.8661 39.0267 51.4311C35.6907 51.6197 32.9158 52.3458 30.7022 53.6094C30.5525 53.7037 30.4091 53.8012 30.2719 53.9018C30.2532 53.908 30.2376 53.9175 30.2252 53.93C30.275 54.0495 30.3249 54.1689 30.3748 54.2884C30.8737 55.4388 31.5315 56.517 32.3484 57.5229L18.8608 55.8538C17.4889 55.7217 16.6814 56.9854 16.4382 59.6446C16.9932 57.7272 17.9005 56.7748 19.1601 56.7873L33.8823 59.1448C34.2004 59.4403 34.5371 59.7295 34.8925 60.0124C34.456 61.0183 34.0944 62.0399 33.8075 63.0772C33.2525 65.0575 32.9688 67.0755 32.9564 69.1312C32.9501 69.6027 32.9595 70.0774 32.9844 70.5552C33.0218 70.5489 33.0624 70.5426 33.106 70.5363C33.5799 70.4294 34.0538 70.3068 34.5277 70.1685C35.4568 69.8982 36.3859 69.565 37.315 69.169C38.9862 68.446 40.6573 67.5124 42.3285 66.3682C42.5966 66.6071 42.871 66.8366 43.1516 67.0566C45.7456 69.1061 48.7013 70.3068 52.0186 70.6589C52.4302 68.798 52.5143 67.0126 52.2711 65.3026C52.0342 63.687 51.5073 62.1404 50.6904 60.6631C50.7091 60.6568 50.7309 60.6505 50.7559 60.6442C52.6702 60.047 54.1387 58.8682 55.1613 57.108C55.76 56.0644 56.2027 54.8227 56.4895 53.3831C56.5207 53.2322 56.5488 53.0845 56.5737 52.9399C58.4007 52.3364 60.1685 52.3364 61.8771 52.9399C62.6378 54.587 63.7478 56.1272 65.2069 57.5606C65.9178 58.2647 66.7128 58.9405 67.592 59.5881C66.6567 61.5306 66.1765 63.3915 66.1516 65.1706C66.1329 66.2582 66.2826 67.3144 66.6006 68.3391C66.6255 68.4208 66.6505 68.5026 66.6754 68.5843C67.4424 68.4711 68.1969 68.3328 68.9389 68.1694C70.978 67.7104 72.8892 67.0661 74.6726 66.2362C75.0779 66.0476 75.4738 65.8496 75.8604 65.6421C78.1988 67.459 80.9113 68.6943 83.9979 69.3481C84.4344 66.1482 83.4866 63.1117 81.1545 60.2387C82.3268 59.5975 83.3338 58.8651 84.1756 58.0415C85.298 56.9476 86.1305 55.6872 86.673 54.2601C86.3113 54.0401 85.9434 53.8389 85.5693 53.6566C83.9044 53.1285 82.1771 52.7953 80.3875 52.657ZM79.5831 53.6377C80.1443 53.6817 80.693 53.776 81.2293 53.9206C82.1085 54.1532 82.9503 54.5116 83.7547 54.9956C83.3307 56.1084 82.5793 57.1111 81.5005 58.0038C80.7273 58.6325 79.7858 59.2077 78.6758 59.7295C81.0329 61.8167 82.0399 64.0862 81.697 66.538C79.4522 66.0602 77.5784 65.0826 76.0756 63.6052C76.0007 63.5298 75.929 63.4544 75.8604 63.3789C74.0833 64.3848 72.2313 65.1235 70.3045 65.595C69.6934 65.7459 69.073 65.8684 68.4432 65.9627C68.3621 65.7239 68.2967 65.4818 68.2468 65.2366C67.8477 63.3192 68.3247 61.3075 69.6778 59.2014C69.5905 59.1448 69.5064 59.0883 69.4253 59.0317C68.7706 58.579 68.1751 58.117 67.6388 57.6455C66.3231 56.4824 65.369 55.2565 64.7767 53.9678C64.7829 53.9678 64.7891 53.9646 64.7954 53.9583C66.5164 53.0279 68.6396 52.8959 71.165 53.5623C71.614 51.3494 72.5961 49.5891 74.1114 48.2815C74.3795 48.4323 74.6351 48.6021 74.8783 48.7907C75.3834 49.1993 75.8261 49.7054 76.2065 50.3089C76.6181 50.9627 76.9517 51.7391 77.2073 52.6381C77.2946 52.965 77.3757 53.3108 77.4505 53.6754C78.1801 53.5937 78.8909 53.5811 79.5831 53.6377ZM46.8929 52.4778C48.2461 52.635 49.4838 52.8267 50.6062 53.053C52.0716 53.3485 53.3374 53.7069 54.4037 54.1281C54.1356 55.2282 53.7396 56.1838 53.2158 56.9948C53.166 57.064 53.1192 57.1362 53.0755 57.2117C52.0654 58.6325 50.6249 59.5723 48.7543 60.0313C50.4628 62.5082 51.0396 65.1706 50.4846 68.0185C50.4659 68.1002 50.4472 68.1819 50.4285 68.2637C47.9779 68.0059 45.7736 67.1855 43.8157 65.8024C43.6099 65.6578 43.4103 65.5101 43.217 65.3592C42.9801 65.1706 42.7494 64.9757 42.5249 64.7746L42.5155 64.7651L42.5062 64.7746C41.1468 65.6987 39.7937 66.4562 38.4468 67.0472C37.7858 67.3238 37.128 67.5658 36.4732 67.7733C36.2113 67.8487 35.9494 67.921 35.6875 67.9902C35.4194 68.0594 35.1544 68.1222 34.8925 68.1788C34.8738 67.8582 34.8644 67.5376 34.8644 67.2169C34.8644 66.6008 34.8925 65.991 34.9486 65.3875C35.1357 63.4135 35.6408 61.4803 36.4639 59.5881C34.6743 58.1673 33.4022 56.5139 32.6477 54.6279C32.6539 54.6279 32.6602 54.6247 32.6664 54.6184C33.5581 53.9835 34.5745 53.4648 35.7156 53.0625C36.8817 52.6538 38.1756 52.3709 39.5973 52.2138C40.146 50.1203 41.2902 48.4418 43.03 47.1781C43.3043 47.3856 43.5694 47.6056 43.825 47.8382C43.931 47.9326 44.037 48.03 44.143 48.1306C44.3363 48.3192 44.5265 48.5204 44.7136 48.7341C44.9692 49.0296 45.2124 49.3439 45.4432 49.6771C45.8859 50.3058 46.2694 50.991 46.5936 51.7328C46.6996 51.978 46.7994 52.2264 46.8929 52.4778Z" fill="#333333"/>
<path d="M53.0755 57.2117C51.7286 57.7963 50.4441 58.4344 49.2219 59.126C47.6817 59.9872 46.8056 60.4682 46.5936 60.5688C45.8204 60.9334 45.1189 61.1157 44.4891 61.1157C42.6371 61.1157 40.6604 59.8301 38.559 57.2588C37.5863 56.0706 36.6385 54.6719 35.7156 53.0625C34.5745 53.4648 33.5581 53.9835 32.6664 54.6184C32.6602 54.6247 32.6539 54.6279 32.6477 54.6279C32.7288 54.7096 32.8098 54.7913 32.8909 54.873C33.9509 56.5516 35.3726 58.1453 37.156 59.6541C35.9713 62.1939 35.4194 64.7337 35.5005 67.2735C36.8287 66.9655 38.2036 66.4971 39.6253 65.8684C39.7002 65.8433 39.7719 65.8213 39.8405 65.8024C40.0837 65.7207 40.33 65.6358 40.5794 65.5478C40.623 65.529 40.6698 65.5132 40.7197 65.5007C40.7633 65.4818 40.8101 65.4661 40.86 65.4535C41.4025 65.2461 41.9512 65.0197 42.5062 64.7746L42.5155 64.7651L42.5249 64.7746C42.7494 64.9757 42.9801 65.1706 43.217 65.3592C43.4103 65.5101 43.6099 65.6578 43.8157 65.8024C45.7736 67.1855 47.9779 68.0059 50.4285 68.2637C50.4472 68.1819 50.4659 68.1002 50.4846 68.0185C51.0396 65.1706 50.4628 62.5082 48.7543 60.0313C50.6249 59.5723 52.0654 58.6325 53.0755 57.2117ZM81.2293 53.9206C80.693 53.776 80.1443 53.6817 79.5831 53.6377C79.3025 53.9646 79.0125 54.2915 78.7132 54.6184C77.3601 56.0895 76.0538 57.2745 74.7942 58.1735C73.3974 59.1731 72.2532 59.6729 71.3615 59.6729C71.1245 59.6729 70.8096 59.5786 70.4168 59.39C69.1198 61.2572 68.6801 63.1652 69.0979 65.114C71.2866 64.8374 73.5408 64.259 75.8604 63.3789C75.929 63.4544 76.0007 63.5298 76.0756 63.6052C77.5784 65.0826 79.4522 66.0602 81.697 66.538C82.0399 64.0862 81.0329 61.8167 78.6758 59.7295C79.7858 59.2077 80.7273 58.6325 81.5006 58.0038C82.5793 57.1111 83.3307 56.1084 83.7547 54.9956C82.9503 54.5115 82.1085 54.1532 81.2293 53.9206Z" fill="black"/>
<path d="M50.6062 53.0531C49.4838 52.8267 48.2461 52.635 46.8929 52.4778C46.7994 52.2264 46.6996 51.978 46.5936 51.7329C46.2694 50.991 45.8859 50.3058 45.4432 49.6771C45.2124 49.3439 44.9692 49.0296 44.7136 48.7341C44.5265 48.5204 44.3363 48.3192 44.143 48.1306C44.037 48.03 43.931 47.9326 43.825 47.8383C43.5694 47.6057 43.3043 47.3856 43.03 47.1782C41.2902 48.4418 40.146 50.1203 39.5973 52.2138C38.1756 52.371 36.8817 52.6539 35.7156 53.0625C36.6385 54.6719 37.5863 56.0707 38.559 57.2589C40.6604 59.8301 42.6371 61.1157 44.4891 61.1157C45.1189 61.1157 45.8204 60.9334 46.5936 60.5688C46.8056 60.4682 47.6817 59.9873 49.2219 59.126C50.4441 58.4345 51.7286 57.7964 53.0755 57.2117C53.1192 57.1363 53.166 57.064 53.2158 56.9948C53.7396 56.1838 54.1356 55.2283 54.4037 54.1281C53.3374 53.7069 52.0716 53.3485 50.6062 53.0531ZM77.4505 53.6754C77.3757 53.3108 77.2946 52.965 77.2073 52.6381C76.9517 51.7391 76.6181 50.9627 76.2065 50.3089C75.8261 49.7054 75.3834 49.1993 74.8783 48.7907C74.6351 48.6021 74.3795 48.4324 74.1113 48.2815C72.5961 49.5891 71.614 51.3494 71.165 53.5623C68.6396 52.8959 66.5164 53.0279 64.7954 53.9583C66.0799 55.8758 68.0503 57.5512 70.7067 58.9845C70.6069 59.1166 70.5103 59.2517 70.4168 59.39C70.8096 59.5786 71.1245 59.6729 71.3614 59.6729C72.2531 59.6729 73.3974 59.1731 74.7942 58.1736C76.0537 57.2746 77.3601 56.0895 78.7132 54.6184C79.0125 54.2915 79.3025 53.9646 79.5831 53.6377C78.8909 53.5811 78.1801 53.5937 77.4505 53.6754Z" fill="#666666"/>
<path d="M60.7823 78.6114C62.5457 78.5994 64.2007 78.4159 65.7474 78.061C66.4387 77.9047 67.1095 77.7122 67.7597 77.4836C68.5956 77.1871 69.3953 76.8352 70.1588 76.4279C60.211 76.8443 54.0538 76.1586 51.6871 74.3707C50.4116 72.6977 51.5628 71.9819 55.1407 72.2233C54.4883 72.1043 53.838 71.969 53.1898 71.8173C52.9379 71.7571 52.686 71.694 52.4341 71.6278C51.567 71.4052 50.7087 71.1526 49.8593 70.8699C48.0607 70.3526 46.6986 69.7691 45.773 69.1194C49.8739 70.4849 54.1125 70.4849 58.4888 69.1194C58.8817 69.0322 59.2713 68.951 59.6575 68.8758C55.1149 69.4485 50.8382 69.2861 46.8275 68.3886C46.2733 68.2272 45.8193 68.0437 45.4654 67.8382C44.29 67.1476 44.2372 66.2062 45.3073 65.0141C42.9287 65.796 41.7717 67.2006 41.8361 69.2277C41.9019 70.0511 42.1949 70.8331 42.7149 71.5737C42.9384 71.8921 43.202 72.2018 43.5058 72.503C44.4724 73.4594 45.858 74.3467 47.6624 75.1647C51.8863 77.4926 56.2596 78.6415 60.7823 78.6114Z" fill="#C95316"/>
<path d="M72.839 69.6789C72.1243 69.6428 71.225 69.4563 70.1412 69.1195C69.8951 69.0533 69.6462 68.9931 69.3942 68.939C68.41 68.7225 67.4053 68.5751 66.3801 68.4969C64.8582 68.3758 63.2852 68.4059 61.6611 68.5871C61.0035 68.6605 60.3357 68.7568 59.6575 68.8758C59.2713 68.9511 58.8817 69.0323 58.4888 69.1195C54.1125 70.4849 49.8739 70.4849 45.773 69.1195C46.6986 69.7691 48.0607 70.3526 49.8593 70.8699C50.7087 71.1526 51.567 71.4052 52.4341 71.6278C52.686 71.694 52.9379 71.7571 53.1898 71.8173C53.838 71.969 54.4883 72.1043 55.1407 72.2233C57.3773 72.623 59.6591 72.8276 61.9862 72.8369C67.4639 73.0414 71.0815 71.9887 72.839 69.6789Z" fill="#330700"/>
<path d="M73.5596 74.0189C72.8683 74.6504 72.1389 75.2159 71.3715 75.7151C70.9782 75.9688 70.574 76.2064 70.1588 76.4279C69.3953 76.8352 68.5956 77.1871 67.7597 77.4836C67.1095 77.7122 66.4387 77.9047 65.7474 78.0611C64.2007 78.416 62.5457 78.5994 60.7823 78.6115C56.2596 78.6415 51.8863 77.4926 47.6624 75.1647C45.858 74.3467 44.4724 73.4594 43.5058 72.503C43.202 72.2019 42.9384 71.8921 42.7149 71.5737C42.9645 72.3671 43.4332 73.119 44.1209 73.8294C45.0466 74.7858 46.3735 75.673 48.1017 76.4911C52.1558 78.819 56.3475 79.9679 60.6769 79.9378C62.37 79.9258 63.9576 79.7423 65.4398 79.3874C66.1018 79.231 66.7433 79.0385 67.3643 78.81C68.6004 78.3528 69.7545 77.7633 70.8266 77.0415C71.5648 76.5422 72.2649 75.9768 72.9269 75.3452C74.0096 74.3466 74.7654 73.3029 75.1941 72.2143C74.767 72.831 74.2221 73.4325 73.5596 74.0189Z" fill="#FBC501"/>
<path d="M66.424 60.9628C65.1625 59.0158 63.7067 57.6353 62.0565 56.8214C62.5563 58.6502 63.4117 60.1149 64.6225 61.2155C65.5716 62.0757 67.0889 62.9238 69.1746 63.7599C71.5707 64.7224 73.2081 65.4953 74.0869 66.0788C74.9488 66.6588 75.6987 67.3416 76.3365 68.127C76.3018 67.7035 76.2198 67.2734 76.0904 66.8367C74.9656 65.1043 73.3956 63.9103 71.3803 63.2546C69.1716 62.7073 67.5195 61.9433 66.424 60.9628Z" fill="#FF7B38"/>
<path d="M62.0566 56.8214C61.3209 56.454 60.5447 56.2014 59.7278 56.0634C58.2749 55.9492 56.822 56.5387 55.3691 57.8319C53.0785 61.2365 49.7245 63.6306 45.3073 65.0141C44.2372 66.2062 44.29 67.1476 45.4655 67.8382C45.8193 68.0437 46.2733 68.2272 46.8275 68.3886C50.8382 69.2861 55.1149 69.4485 59.6575 68.8758C60.3357 68.7568 61.0035 68.6605 61.6611 68.5871C63.2852 68.4059 64.8582 68.3758 66.3801 68.4969C67.4053 68.5751 68.41 68.7225 69.3943 68.939C69.6462 68.9931 69.8951 69.0533 70.1412 69.1195C71.225 69.4563 72.1243 69.6428 72.839 69.6789C71.0815 71.9887 67.4639 73.0414 61.9863 72.8369C59.6591 72.8275 57.3773 72.623 55.1407 72.2233C51.5628 71.9819 50.4116 72.6977 51.6871 74.3707C54.0538 76.1586 60.211 76.8443 70.1588 76.4279C70.574 76.2064 70.9782 75.9688 71.3715 75.7151C72.1389 75.2159 72.8683 74.6504 73.5596 74.0188C74.2222 73.4325 74.767 72.831 75.1941 72.2143C76.0906 70.9209 76.4714 69.5584 76.3365 68.1269C75.6987 67.3415 74.9488 66.6588 74.0869 66.0788C73.2081 65.4953 71.5707 64.7223 69.1746 63.7599C67.089 62.9238 65.5716 62.0756 64.6226 61.2155C63.4117 60.1149 62.5563 58.6502 62.0566 56.8214Z" fill="#E65F1A"/>
<path d="M64.4468 66.8638C64.4007 66.8638 64.3626 66.8638 64.3326 66.8638C64.3624 66.8632 64.3946 66.8452 64.4292 66.8096C64.4409 66.7976 64.4468 66.8156 64.4468 66.8638C66.0637 66.8698 67.3731 66.942 68.3749 67.0803C69.4001 67.2187 70.0328 67.2878 70.273 67.2878C70.3843 67.2878 70.604 67.2878 70.9321 67.2878C71.2016 67.2337 71.3363 67.0442 71.3363 66.7194C71.3363 65.6968 70.5132 65.0803 68.867 64.8697C68.3046 64.7975 67.5781 64.7675 66.6876 64.7795C65.7327 64.8096 65.0649 64.8246 64.6841 64.8246C62.5809 64.7825 61.2188 64.7765 60.5978 64.8066C59.7483 64.8547 58.8139 65.0772 57.7945 65.4743C56.8337 65.8592 55.9901 66.2803 55.2637 66.7374C54.4025 67.2788 53.8547 67.7841 53.6204 68.2533C54.921 67.9285 55.7909 67.7179 56.2303 67.6217C56.6697 67.5194 57.1853 67.4172 57.777 67.3149C58.3687 67.2126 58.808 67.1224 59.0951 67.0442C59.1771 67.0262 59.596 66.9931 60.3517 66.945C61.0372 66.8968 61.4795 66.8698 61.6787 66.8638C61.8661 66.8577 62.4315 66.8728 63.3747 66.9089C64.0894 66.939 64.4468 66.9239 64.4468 66.8638Z" fill="#FF7B38"/>
<path d="M37.5863 116.781C37.6636 116.584 37.7353 116.402 37.8014 116.234V120.959H38.0259C38.0321 120.94 38.0353 120.924 38.0353 120.911C38.0415 120.886 38.0477 120.864 38.054 120.845C38.1039 120.625 38.1974 120.412 38.3346 120.204C38.347 120.179 38.3595 120.154 38.372 120.129C38.4549 120.022 38.5204 119.934 38.5684 119.865C38.6326 119.788 38.6731 119.738 38.69 119.714C38.796 119.833 38.9457 120.129 39.139 120.6C39.2766 120.93 39.4106 121.106 39.5412 121.128C39.5546 121.135 39.567 121.138 39.5786 121.138C39.7843 121.138 39.9153 121.128 39.9714 121.11C39.9901 121.097 40.0119 121.084 40.0369 121.072C40.0431 121.072 40.0494 121.069 40.0556 121.062C40.0681 121.05 40.0837 121.034 40.1024 121.015H40.1117C40.118 121.003 40.1242 120.993 40.1304 120.987C40.1367 120.974 40.1429 120.962 40.1491 120.949C40.1894 120.886 40.2205 120.811 40.2427 120.723C40.2333 120.736 40.2239 120.749 40.2146 120.761C40.2066 120.768 40.1973 120.774 40.1865 120.779V120.789C40.1708 120.806 40.1521 120.822 40.1304 120.836C40.1282 120.84 40.1251 120.843 40.1211 120.845C40.0967 120.86 40.0718 120.873 40.0462 120.883C40.0256 120.89 39.9944 120.896 39.9527 120.902C39.8786 120.908 39.7726 120.911 39.6347 120.911C39.4788 120.911 39.3198 120.732 39.1577 120.374C38.9519 119.902 38.7929 119.607 38.6806 119.488C38.6579 119.52 38.5924 119.601 38.4842 119.733C38.4429 119.783 38.3962 119.84 38.3439 119.902C38.3258 119.928 38.3071 119.953 38.2878 119.978C38.1722 120.156 38.0849 120.335 38.0259 120.515C38.0157 120.55 38.0063 120.581 37.9978 120.61C37.9918 120.635 37.9856 120.657 37.9791 120.676C37.9764 120.696 37.9733 120.715 37.9698 120.732V115.055C37.8702 115.309 37.7424 115.642 37.5863 116.055C37.3906 116.583 37.1506 117.237 36.8661 118.016C36.3859 119.337 36.0461 120.242 35.8466 120.732H35.6782C35.6465 120.651 35.6153 120.576 35.5847 120.506C35.5224 120.347 35.4694 120.221 35.4257 120.129C35.3259 119.884 35.2043 119.761 35.0609 119.761C34.2877 120.057 33.8917 120.204 33.873 120.204C33.6556 120.204 33.5153 120.157 33.4521 120.063C33.4726 120.163 33.4944 120.276 33.5176 120.402C33.5243 120.441 33.5399 120.473 33.5643 120.497C33.6304 120.578 33.7613 120.619 33.9572 120.619C33.9673 120.619 34.2292 120.522 34.7429 120.327C34.86 120.282 34.9909 120.231 35.1357 120.176C35.2729 120.176 35.3882 120.299 35.4818 120.544C35.4959 120.577 35.5114 120.615 35.5285 120.657C35.5785 120.781 35.6409 120.945 35.7156 121.147H35.884C36.0898 120.657 36.4452 119.752 36.9503 118.431C37.1929 117.797 37.405 117.247 37.5863 116.781ZM50.1666 119.667C50.147 119.704 50.1345 119.852 50.1292 120.11C50.1233 120.368 50.1482 120.896 50.204 121.694C50.2287 121.949 50.3191 122.197 50.4753 122.439C50.4613 122.209 50.4426 121.935 50.4192 121.619C50.3356 120.493 50.2919 119.607 50.2882 118.959C50.191 119.149 50.0975 119.325 50.0076 119.488C49.9662 119.571 49.9226 119.65 49.8767 119.723C49.5078 120.41 49.2366 120.837 49.0629 121.006C49.0052 121.062 48.9585 121.091 48.9226 121.091C48.8778 121.091 48.8404 121.091 48.8104 121.091C48.7857 121.088 48.7701 121.084 48.7636 121.081C48.7512 121.062 48.7293 121.037 48.6981 121.006C48.6981 120.861 48.6701 120.515 48.614 119.968C48.5959 119.81 48.5804 119.666 48.5672 119.535C48.556 119.426 48.5466 119.325 48.5391 119.233C48.5267 119.077 48.5204 118.958 48.5204 118.875C48.4955 118.875 48.4674 118.89 48.4363 118.922C48.4113 118.947 48.3833 118.959 48.3521 118.959C48.3521 119.255 48.1151 120.034 47.6412 121.298C47.4672 121.753 47.3144 122.133 47.1829 122.439C44.9644 122.416 42.8599 122.325 40.8693 122.166C40.8474 121.121 40.704 120.496 40.4391 120.289C40.4391 120.352 40.411 120.383 40.3549 120.383C40.3434 120.465 40.3247 120.537 40.2988 120.6C40.3237 120.586 40.3362 120.558 40.3362 120.515C40.5794 120.723 40.7135 121.348 40.7384 122.392C40.7384 122.43 40.7384 122.467 40.7384 122.505C40.7384 122.581 40.782 122.577 40.8693 122.496C42.9645 122.548 45.0565 122.561 47.1455 122.533C47.2188 122.535 47.2905 122.535 47.3606 122.533C47.3859 122.534 47.4077 122.534 47.4261 122.533V122.449C47.582 121.965 47.7316 121.54 47.875 121.176C48.1664 120.395 48.3441 119.842 48.4082 119.516C48.4283 119.51 48.4439 119.506 48.455 119.506C48.455 119.589 48.4612 119.717 48.4737 119.893C48.4895 120.034 48.5083 120.2 48.5298 120.393C48.5734 120.833 48.5953 121.11 48.5953 121.223C48.6202 121.248 48.6389 121.27 48.6514 121.289C48.6576 121.289 48.6981 121.289 48.773 121.289C48.7973 121.289 48.8254 121.273 48.8572 121.242C48.866 121.249 48.8722 121.255 48.8759 121.26C48.8821 121.26 48.9226 121.26 48.9975 121.26C49.0598 121.26 49.1565 121.166 49.2874 120.977C49.4807 120.701 49.7831 120.167 50.1947 119.374C50.2022 119.538 50.1928 119.635 50.1666 119.667ZM69.3318 117.3C69.3253 117.355 69.316 117.412 69.3037 117.47C69.2142 117.937 69.0676 118.607 68.8641 119.478C68.7094 120.126 68.5971 120.622 68.5274 120.968L68.9202 120.977C68.9888 120.625 69.1011 120.126 69.2569 119.478C69.3899 118.909 69.499 118.425 69.5843 118.026C69.5952 117.972 69.6046 117.918 69.6124 117.866L70.0894 118.809V118.818L70.2484 118.978L70.7067 118.922V118.931H71.0621C71.0621 118.919 71.0653 118.906 71.0715 118.893C71.2212 118.001 71.3646 117.284 71.5018 116.743C71.5289 116.642 71.5819 116.45 71.6608 116.168C71.6553 116.504 71.646 116.868 71.6327 117.262C71.6327 117.966 71.6826 118.472 71.7824 118.78C71.7886 118.799 71.7948 118.821 71.8011 118.846C71.8073 118.865 71.8135 118.881 71.8198 118.893C71.851 118.925 71.8728 118.953 71.8852 118.978C71.8977 118.985 71.9476 118.988 72.0349 118.988C72.0474 118.988 72.0848 118.959 72.1471 118.903C72.2033 118.84 72.2874 118.749 72.3997 118.629C72.4184 118.611 72.4371 118.592 72.4558 118.573C72.5493 118.46 72.6616 118.331 72.7925 118.186L73.017 120.308V117.809C72.9128 117.928 72.8193 118.032 72.7364 118.12C72.6026 118.273 72.4966 118.39 72.4184 118.469C72.3872 118.502 72.3591 118.527 72.3342 118.545C72.2945 118.589 72.2696 118.611 72.2594 118.611C72.1721 118.611 72.1222 118.607 72.1097 118.601C72.1037 118.589 72.0943 118.576 72.0817 118.563C72.0728 118.548 72.0603 118.532 72.0443 118.516C71.9195 118.227 71.8572 117.683 71.8572 116.885C71.8735 116.335 71.8829 115.842 71.8852 115.404C71.8853 115.389 71.8853 115.374 71.8852 115.357C71.8876 114.979 71.8845 114.642 71.8759 114.348H71.7917C71.7434 114.518 71.6966 114.679 71.6514 114.829C71.6365 114.889 71.6209 114.946 71.6046 114.999C71.3621 115.863 71.2156 116.394 71.165 116.593C71.0307 117.128 70.8873 117.839 70.7348 118.724C70.7317 118.743 70.7286 118.762 70.7254 118.78H70.37L69.3972 116.828V116.923C69.3847 117.022 69.3629 117.147 69.3318 117.3ZM31.7778 103.098C31.6315 103.164 31.4756 103.243 31.3102 103.334C30.961 103.535 30.7864 103.699 30.7864 103.824C30.7864 103.969 30.7926 104.069 30.8051 104.126C30.8416 104.26 30.9071 104.37 31.0015 104.456C31.0015 104.412 31.0015 104.352 31.0015 104.277C31.0015 104.17 31.1449 104.032 31.4318 103.862C31.5689 103.793 31.6968 103.73 31.8152 103.673C31.9337 103.416 32.0491 103.208 32.1613 103.051C32.4793 102.598 32.8535 102.372 33.2837 102.372C33.502 102.372 33.6423 102.419 33.7046 102.514C33.7358 102.564 33.7514 102.677 33.7514 102.853C33.7514 102.928 33.6984 103.233 33.5924 103.768C33.4989 104.252 33.4646 104.591 33.4895 104.786C33.3897 105.1 33.29 105.484 33.1902 105.937C33.053 106.534 32.9844 106.983 32.9844 107.285C32.9844 107.442 33.025 107.593 33.106 107.738C33.1808 107.889 33.2183 108.058 33.2183 108.247C33.2183 108.436 33.0374 108.665 32.6758 108.935C32.3141 109.206 32.1301 109.451 32.1239 109.671C32.1239 110.23 31.9836 110.736 31.703 111.189C31.5284 111.472 31.3694 111.661 31.226 111.755C31.1948 111.384 31.1792 110.347 31.1792 108.643C31.1792 108.322 31.0202 107.838 30.7022 107.191C30.3842 106.537 30.2252 106.182 30.2252 106.125C30.2252 105.83 30.3249 105.597 30.5245 105.427C30.7302 105.251 30.9797 105.192 31.2727 105.248V104.89C31.2141 104.85 31.1642 104.803 31.1231 104.748V104.984C30.7614 104.915 30.4559 104.984 30.2065 105.192C29.9633 105.399 29.8417 105.679 29.8417 106.031C29.8417 106.1 30.0381 106.521 30.4309 107.295C30.8175 108.068 31.0109 108.646 31.0109 109.03C31.0109 111.067 31.0296 112.305 31.067 112.745C31.2416 112.632 31.4349 112.406 31.6469 112.066C31.9836 111.525 32.1551 110.922 32.1613 110.256C32.1676 109.992 32.3889 109.699 32.8254 109.379C33.2681 109.058 33.4895 108.784 33.4895 108.558C33.4895 108.332 33.4427 108.131 33.3492 107.955C33.2557 107.779 33.2089 107.599 33.2089 107.417C33.2089 107.053 33.29 106.515 33.4521 105.805C33.5768 105.264 33.6984 104.808 33.8169 104.437C33.7857 104.205 33.8293 103.796 33.9478 103.211C34.0725 102.576 34.1349 102.215 34.1349 102.127C34.1349 101.913 34.1162 101.778 34.0788 101.721C34.0039 101.608 33.8325 101.552 33.5643 101.552C33.0468 101.552 32.5916 101.822 32.1987 102.363C32.0638 102.549 31.9235 102.794 31.7778 103.098ZM60.5209 92.4234L59.9597 92.4328L56.7888 100.505H56.6953L54.7405 97.2704C54.6344 97.4025 54.5316 97.5313 54.4318 97.6571C54.4091 97.6799 54.3842 97.705 54.357 97.7325C54.353 97.741 54.3468 97.7505 54.3383 97.7608C53.7334 98.49 53.3 98.8578 53.0381 98.8641V98.4586C53.113 98.226 53.1847 97.9368 53.2533 97.5911C53.3094 97.283 53.3374 97.0693 53.3374 96.9498L53.2907 96.997C53.2283 97.0787 53.1285 97.1604 52.9914 97.2421C52.8916 97.305 52.8043 97.3522 52.7295 97.3836C52.7108 97.3836 52.6921 97.3867 52.6733 97.393V97.3459C52.6733 97.2264 52.6952 97.0944 52.7388 96.9498C52.7451 96.9247 52.7544 96.8964 52.7669 96.8649V96.3651C52.6422 96.34 52.4551 96.4594 52.2057 96.7235L52.1963 96.7329C52.1687 96.7626 52.1407 96.7909 52.1121 96.8178C51.9102 97.0273 51.6826 97.2253 51.4293 97.4119C51.5569 97.1275 51.7066 96.8038 51.8783 96.4406V96.4312C52.3153 95.5253 52.6302 94.9469 52.823 94.696L51.5509 92.546L50.9804 92.5554L52.2618 94.6583C52.1697 94.778 52.0481 94.9729 51.897 95.243C51.739 95.5388 51.5457 95.9254 51.3171 96.4029C51.1545 96.7447 51.0142 97.0527 50.8962 97.327C50.6386 97.9157 50.4827 98.3463 50.4285 98.6189C50.6899 98.4595 50.9299 98.2898 51.1487 98.1097C51.3836 97.929 51.5957 97.7372 51.7848 97.5345C51.8702 97.4441 51.9482 97.3687 52.0186 97.3082C52.1601 97.1971 52.2723 97.15 52.3553 97.1667V97.6665C52.293 97.8425 52.2618 98.0028 52.2618 98.1474V98.1946C52.3296 98.1763 52.4045 98.1449 52.4863 98.1003C52.5161 98.0833 52.5473 98.0644 52.5798 98.0437C52.717 97.962 52.8168 97.8802 52.8791 97.7985L52.9259 97.7514C52.9259 97.8466 52.9072 98.0006 52.8698 98.2134C52.8624 98.2705 52.8531 98.3303 52.8417 98.3926C52.8216 98.4942 52.7997 98.5916 52.7762 98.6849C52.7293 98.9042 52.6794 99.0959 52.6266 99.2602V99.6657C52.7654 99.6623 52.9525 99.5554 53.1878 99.345C53.3963 99.1658 53.6426 98.9049 53.9267 98.5623C54.0547 98.41 54.1888 98.2466 54.3289 98.072L56.2838 101.297L57.032 101.306L60.5209 92.4234Z" fill="#628C99"/>
<path d="M18.3183 85.068H18.3089C12.4723 93.1546 9.41378 104.471 9.13322 119.016C10.1559 119.217 11.1816 119.409 12.2105 119.591C18.545 120.722 24.843 121.527 31.1044 122.005C31.2744 122.021 31.4428 122.034 31.6095 122.043C31.6111 122.046 31.6111 122.046 31.6095 122.043L31.9555 122.024C32.0696 121.841 32.2006 121.631 32.3484 121.392C32.3546 121.374 32.364 121.355 32.3764 121.336C32.5624 121.036 32.7183 120.772 32.8441 120.544C33.1189 120.043 33.2498 119.713 33.237 119.554L33.3118 119.469C33.2615 119.218 33.2303 119.077 33.2183 119.044L33.1247 119.139C33.1426 119.31 32.9992 119.675 32.6945 120.233C32.5856 120.437 32.4547 120.666 32.3016 120.921C32.1502 120.887 31.9974 120.852 31.8433 120.817C14.5358 116.732 10.3798 105.017 19.3752 85.6715C19.385 85.656 19.3944 85.6372 19.4033 85.6149C19.4049 85.615 19.4049 85.6119 19.4033 85.6055L18.3183 85.068Z" fill="#7FB3C2"/>
<path d="M47.4261 122.449V122.533H47.4354L47.4261 122.449ZM57.032 101.344C57.0324 101.332 57.0324 101.319 57.032 101.306L56.2838 101.297V101.306C56.3784 108.154 56.1696 115 55.6571 121.845C55.6509 121.971 55.6415 122.097 55.629 122.222C55.9114 122.205 56.192 122.187 56.4708 122.166C56.4842 122.06 56.4935 121.953 56.4989 121.845C57.0214 114.866 57.1992 108.032 57.032 101.344ZM54.1231 117.913C53.9984 118.045 53.9361 118.199 53.9361 118.375C53.9361 118.557 53.9984 118.714 54.1231 118.846C54.2333 118.957 54.3611 119.02 54.5066 119.035C54.534 119.041 54.5621 119.044 54.5908 119.044C54.7716 119.044 54.9244 118.978 55.0491 118.846C55.1801 118.714 55.2455 118.56 55.2455 118.384C55.2455 118.202 55.1801 118.045 55.0491 117.913C54.9244 117.787 54.7716 117.724 54.5908 117.724C54.5621 117.724 54.534 117.724 54.5066 117.724C54.3611 117.744 54.2333 117.807 54.1231 117.913ZM55.5542 112.877C55.5542 112.695 55.4887 112.538 55.3578 112.406C55.2331 112.28 55.0803 112.217 54.8995 112.217C54.7186 112.217 54.5627 112.28 54.4318 112.406C54.3071 112.538 54.2447 112.692 54.2447 112.868C54.2447 113.05 54.3071 113.207 54.4318 113.339C54.5627 113.471 54.7186 113.537 54.8995 113.537C55.0803 113.537 55.2331 113.471 55.3578 113.339C55.4887 113.207 55.5542 113.053 55.5542 112.877ZM55.5542 107.992C55.5542 107.81 55.4887 107.653 55.3578 107.521C55.2331 107.395 55.0803 107.332 54.8995 107.332C54.7186 107.332 54.5627 107.395 54.4318 107.521C54.3071 107.653 54.2447 107.807 54.2447 107.983C54.2447 108.165 54.3071 108.322 54.4318 108.454C54.5627 108.586 54.7186 108.652 54.8995 108.652C55.0803 108.652 55.2331 108.586 55.3578 108.454C55.4887 108.322 55.5542 108.168 55.5542 107.992ZM54.4318 102.58C54.3071 102.712 54.2447 102.866 54.2447 103.042C54.2447 103.091 54.2478 103.138 54.2541 103.183C54.2819 103.307 54.3411 103.417 54.4318 103.513C54.5627 103.645 54.7186 103.711 54.8995 103.711C55.0803 103.711 55.2331 103.645 55.3578 103.513C55.453 103.417 55.5122 103.31 55.5355 103.192C55.548 103.146 55.5542 103.099 55.5542 103.051C55.5542 102.869 55.4887 102.712 55.3578 102.58C55.2331 102.454 55.0803 102.391 54.8995 102.391C54.7186 102.391 54.5627 102.454 54.4318 102.58Z" fill="#68929F"/>
<path d="M82.0431 119.676C82.0368 119.33 82.0181 118.978 81.9869 118.62C79.1337 119.233 76.2747 119.774 73.4099 120.242C73.3912 120.245 73.3724 120.248 73.3537 120.251C73.2415 120.271 73.1293 120.29 73.017 120.308L72.7925 118.186C72.6616 118.331 72.5493 118.46 72.4558 118.573C72.4371 118.592 72.4184 118.611 72.3997 118.629C72.2875 118.749 72.2033 118.84 72.1472 118.903C72.0848 118.959 72.0474 118.988 72.0349 118.988C71.9476 118.988 71.8977 118.985 71.8853 118.978C71.8728 118.953 71.851 118.925 71.8198 118.893C71.8135 118.881 71.8073 118.865 71.8011 118.846C71.7948 118.821 71.7886 118.799 71.7824 118.78C71.6826 118.472 71.6327 117.966 71.6327 117.262C71.646 116.868 71.6553 116.504 71.6608 116.168C71.5819 116.45 71.5289 116.642 71.5018 116.743C71.3646 117.284 71.2212 118.001 71.0715 118.893C71.0653 118.906 71.0622 118.919 71.0622 118.931H70.7067V118.922L70.2484 118.978L70.0894 118.818V118.809L69.6124 117.866C69.6046 117.918 69.5952 117.972 69.5843 118.026C69.499 118.425 69.3899 118.909 69.2569 119.478C69.1011 120.126 68.9888 120.625 68.9202 120.977L68.5274 120.968C68.5237 120.972 68.5206 120.972 68.518 120.968C68.4704 120.978 68.4205 120.984 68.3684 120.987C68.33 120.997 68.2895 121.003 68.2468 121.006C68.2316 121.01 68.216 121.013 68.2 121.015C68.0866 121.03 67.9712 121.046 67.8539 121.062C66.199 121.279 64.5403 121.471 62.8779 121.638C60.7464 121.854 58.6107 122.03 56.4708 122.166C56.192 122.187 55.9114 122.205 55.629 122.222C55.0838 122.256 54.5382 122.287 53.9922 122.317C52.9685 122.364 51.9552 122.402 50.9523 122.43C50.7967 122.437 50.6408 122.443 50.4847 122.449H50.4753V122.439C50.3191 122.197 50.2287 121.949 50.204 121.694C50.1482 120.896 50.1233 120.368 50.1292 120.11C50.1345 119.852 50.147 119.704 50.1666 119.667C50.1928 119.635 50.2022 119.538 50.1947 119.374C49.7831 120.167 49.4807 120.701 49.2874 120.977C49.1565 121.166 49.0598 121.26 48.9975 121.26C48.9226 121.26 48.8821 121.26 48.8759 121.26C48.8722 121.255 48.866 121.249 48.8572 121.242C48.8254 121.273 48.7973 121.289 48.773 121.289C48.6981 121.289 48.6576 121.289 48.6514 121.289C48.6389 121.27 48.6202 121.248 48.5953 121.223C48.5953 121.11 48.5734 120.833 48.5298 120.393C48.5083 120.2 48.4895 120.034 48.4737 119.893C48.4612 119.717 48.455 119.589 48.455 119.506C48.4439 119.506 48.4283 119.51 48.4082 119.516C48.3441 119.842 48.1664 120.395 47.8751 121.176C47.7316 121.54 47.582 121.965 47.4261 122.449L47.4354 122.533H47.4261C47.4077 122.534 47.3859 122.534 47.3606 122.533C47.2905 122.535 47.2188 122.535 47.1455 122.533C45.0565 122.561 42.9645 122.548 40.8693 122.496C40.782 122.577 40.7384 122.581 40.7384 122.505C40.7384 122.467 40.7384 122.43 40.7384 122.392C40.7135 121.348 40.5794 120.723 40.3362 120.515C40.3362 120.558 40.3237 120.586 40.2988 120.6C40.2865 120.638 40.2709 120.673 40.252 120.704C40.2488 120.709 40.2457 120.712 40.2427 120.713V120.723C40.2206 120.811 40.1894 120.886 40.1491 120.949C40.1429 120.962 40.1367 120.974 40.1304 120.987C40.1242 120.993 40.118 121.003 40.1117 121.015H40.1024C40.0837 121.034 40.0681 121.05 40.0556 121.062C40.0494 121.069 40.0431 121.072 40.0369 121.072C40.0119 121.084 39.9901 121.097 39.9714 121.11C39.9153 121.128 39.7843 121.138 39.5786 121.138C39.567 121.138 39.5546 121.135 39.5412 121.128C39.4106 121.106 39.2766 120.93 39.139 120.6C38.9457 120.129 38.796 119.833 38.69 119.714C38.6731 119.738 38.6326 119.788 38.5684 119.865C38.5204 119.934 38.4549 120.022 38.372 120.129C38.3595 120.154 38.347 120.179 38.3346 120.204C38.1974 120.412 38.1039 120.625 38.054 120.845C38.0477 120.864 38.0415 120.886 38.0353 120.911C38.0353 120.924 38.0321 120.94 38.0259 120.959H37.8014V116.234C37.7353 116.402 37.6636 116.584 37.5863 116.781C37.405 117.247 37.1929 117.797 36.9503 118.431C36.4452 119.752 36.0898 120.657 35.884 121.147H35.7156C35.6409 120.945 35.5785 120.781 35.5285 120.657C35.5114 120.615 35.4959 120.577 35.4818 120.544C35.3882 120.299 35.2729 120.176 35.1357 120.176C34.9909 120.231 34.8599 120.282 34.7429 120.327C34.2292 120.522 33.9673 120.619 33.9572 120.619C33.7613 120.619 33.6304 120.578 33.5643 120.497C33.5399 120.473 33.5243 120.441 33.5176 120.402C33.4944 120.276 33.4726 120.163 33.4521 120.063C33.4393 120.04 33.4299 120.015 33.424 119.987C33.3821 119.783 33.3447 119.61 33.3118 119.469L33.237 119.554C33.2498 119.713 33.1189 120.043 32.8441 120.544C32.7183 120.772 32.5624 121.036 32.3764 121.336C32.364 121.355 32.3546 121.374 32.3484 121.392C32.2006 121.631 32.0696 121.841 31.9555 122.024L31.6095 122.043C31.6111 122.046 31.6111 122.046 31.6095 122.043C31.4428 122.034 31.2744 122.021 31.1044 122.005C24.843 121.527 18.545 120.722 12.2105 119.591C12.2167 119.943 12.2386 120.286 12.276 120.619C12.3033 120.851 12.3376 121.08 12.3789 121.308C12.3852 121.339 12.3915 121.37 12.3976 121.402C13.3766 126.469 18.2185 129.703 26.9234 131.105C28.5339 131.392 30.1395 131.647 31.7404 131.869C16.4477 126.015 15.8023 123.308 29.8043 123.75C35.546 124.234 41.42 124.419 47.4261 124.306C50.4496 124.256 53.5051 124.127 56.5924 123.92C64.8303 123.377 73.3045 122.302 82.015 120.695C82.0375 120.36 82.0468 120.021 82.0431 119.676ZM51.5509 92.546L52.823 94.696C52.6302 94.9469 52.3153 95.5253 51.8783 96.4312V96.4406C51.7066 96.8038 51.5569 97.1275 51.4293 97.4119C51.6826 97.2253 51.9102 97.0273 52.1121 96.8178C52.1407 96.7909 52.1688 96.7626 52.1963 96.7329L52.2057 96.7235C52.4551 96.4594 52.6422 96.34 52.7669 96.3651V96.8649C52.7544 96.8964 52.7451 96.9247 52.7388 96.9498C52.6952 97.0944 52.6733 97.2264 52.6733 97.3459V97.393C52.6921 97.3867 52.7108 97.3836 52.7295 97.3836C52.8043 97.3522 52.8916 97.305 52.9914 97.2421C53.1285 97.1604 53.2283 97.0787 53.2907 96.997L53.3374 96.9498C53.3374 97.0693 53.3094 97.283 53.2533 97.5911C53.1847 97.9368 53.113 98.226 53.0381 98.4586V98.8641C53.3 98.8578 53.7334 98.49 54.3383 97.7608C54.3468 97.7505 54.353 97.741 54.357 97.7325C54.3842 97.705 54.4091 97.6799 54.4318 97.6571C54.5316 97.5313 54.6344 97.4025 54.7405 97.2704L56.6953 100.505H56.7888L59.9597 92.4328L51.5509 92.546ZM31.0015 104.277C31.0015 104.352 31.0015 104.412 31.0015 104.456C31.0393 104.492 31.0798 104.524 31.1231 104.55V104.748C31.1642 104.803 31.2141 104.85 31.2727 104.89V105.248C30.9797 105.192 30.7302 105.251 30.5245 105.427C30.3249 105.597 30.2252 105.83 30.2252 106.125C30.2252 106.182 30.3842 106.537 30.7022 107.191C31.0202 107.838 31.1792 108.322 31.1792 108.643C31.1792 110.347 31.1948 111.384 31.226 111.755C31.3694 111.661 31.5284 111.472 31.703 111.189C31.9836 110.736 32.1239 110.23 32.1239 109.671C32.1301 109.451 32.3141 109.206 32.6758 108.935C33.0374 108.665 33.2183 108.436 33.2183 108.247C33.2183 108.058 33.1808 107.889 33.106 107.738C33.025 107.593 32.9844 107.442 32.9844 107.285C32.9844 106.983 33.053 106.534 33.1902 105.937C33.29 105.484 33.3897 105.1 33.4895 104.786C33.4646 104.591 33.4989 104.252 33.5924 103.768C33.6984 103.233 33.7514 102.928 33.7514 102.853C33.7514 102.677 33.7358 102.564 33.7046 102.514C33.6423 102.419 33.502 102.372 33.2837 102.372C32.8535 102.372 32.4793 102.598 32.1613 103.051C32.0491 103.208 31.9337 103.416 31.8152 103.673C31.6968 103.73 31.5689 103.793 31.4318 103.862C31.1449 104.032 31.0015 104.17 31.0015 104.277Z" fill="#FBC501"/>
<path d="M81.6409 122.901C81.8365 122.196 81.9612 121.46 82.015 120.695C73.3045 122.302 64.8303 123.377 56.5924 123.92C53.5051 124.127 50.4496 124.256 47.4261 124.306C41.42 124.419 35.546 124.234 29.8043 123.75C15.8023 123.308 16.4477 126.015 31.7404 131.869C46.3178 133.927 60.4477 133.45 74.1301 130.436C78.2082 128.65 80.7118 126.139 81.6409 122.901ZM56.4241 124.966H56.4147C56.292 124.966 56.1735 124.966 56.0593 124.966C56.1191 124.965 56.2064 124.936 56.3212 124.882C56.3898 124.85 56.4241 124.878 56.4241 124.966Z" fill="#FFD90A"/>
<path d="M80.4623 92.0933C80.4436 92.043 80.4249 91.9927 80.4062 91.9425C80.3299 91.7287 80.255 91.5181 80.1817 91.3106C82.2067 100.415 82.8084 109.518 81.9869 118.62C82.8038 118.444 83.6238 118.262 84.4469 118.073C84.4219 115.106 84.2879 112.255 84.0447 109.52C83.4648 103.082 82.2706 97.2736 80.4623 92.0933Z" fill="#A7EAFF"/>
<path d="M61.8303 94.2717L66.7783 101.222C71.8768 97.3086 75.7616 92.5998 78.4326 87.0954C73.9318 90.9481 68.3977 93.3402 61.8303 94.2717ZM49.7083 94.498L48.8104 94.4697C34.3277 92.9769 24.6126 89.2552 19.6652 83.3046C19.2602 83.8024 18.8643 84.3116 18.4773 84.8322C18.4263 84.9128 18.3733 84.9914 18.3183 85.068L19.4033 85.6055C19.4049 85.6119 19.4049 85.615 19.4033 85.6149C19.4082 85.6234 19.4113 85.6297 19.4126 85.6338C23.7187 90.2897 28.5326 94.1717 33.8543 97.2799C33.9898 97.1635 34.1457 97.0284 34.322 96.8744C34.827 96.4343 35.1201 96.1954 35.2012 96.1577V96.9121C35.2324 96.9435 35.3415 96.9592 35.5285 96.9592C35.6221 96.9592 35.7281 96.9278 35.8466 96.8649C36.0087 96.7643 36.1459 96.6763 36.2581 96.6009V96.9592H36.7726C36.8848 96.8461 37.0875 96.6889 37.3805 96.4877C37.7297 96.2426 38.0166 96.0728 38.241 95.9785L38.3159 95.8936C38.1724 96.2394 37.8918 96.7423 37.4741 97.4024C37.156 97.8991 37.0157 98.2103 37.0532 98.336L37.0064 98.3737C37.1872 98.3172 37.4273 98.2166 37.7266 98.072C38.0696 97.9085 38.266 97.8174 38.3159 97.7985H38.3626C38.3626 97.8991 38.3315 98.0185 38.2691 98.1568C38.213 98.2889 38.188 98.3612 38.1943 98.3737H38.7274C38.7524 98.4366 38.7648 98.512 38.7648 98.6001C38.7648 98.711 38.6557 99.0788 38.4375 99.7034C38.9342 99.9406 39.4331 100.17 39.934 100.392C41.4704 101.078 43.0418 101.707 44.6481 102.278L49.7083 94.498Z" fill="#9FDFF3"/>
<path d="M57.032 101.306C57.0324 101.319 57.0324 101.332 57.032 101.344C57.1992 108.032 57.0214 114.866 56.4989 121.845C56.4935 121.953 56.4842 122.06 56.4708 122.166C58.6107 122.03 60.7464 121.854 62.8779 121.638C64.5403 121.471 66.199 121.279 67.8539 121.062C67.9712 121.046 68.0866 121.03 68.2 121.015C68.216 121.013 68.2316 121.01 68.2468 121.006C68.2895 121.003 68.33 120.997 68.3684 120.987C68.4205 120.984 68.4704 120.978 68.518 120.968C68.5206 120.972 68.5237 120.972 68.5274 120.968C68.5971 120.622 68.7094 120.126 68.8641 119.478C69.0676 118.607 69.2142 117.937 69.3037 117.47C69.316 117.412 69.3253 117.355 69.3318 117.3C69.3629 117.147 69.3847 117.022 69.3972 116.923V116.828L70.37 118.78H70.7254C70.7286 118.762 70.7317 118.743 70.7348 118.724C70.8873 117.839 71.0307 117.128 71.165 116.593C71.2156 116.394 71.3621 115.863 71.6046 114.999C71.6209 114.946 71.6365 114.889 71.6514 114.829C71.6966 114.679 71.7434 114.518 71.7917 114.348H71.8759C71.8845 114.642 71.8876 114.979 71.8852 115.357C71.8853 115.374 71.8853 115.389 71.8852 115.404C71.8829 115.842 71.8735 116.335 71.8572 116.885C71.8572 117.683 71.9195 118.227 72.0443 118.516C72.0603 118.532 72.0728 118.548 72.0817 118.563C72.0943 118.576 72.1037 118.589 72.1097 118.601C72.1222 118.607 72.1721 118.611 72.2594 118.611C72.2696 118.611 72.2945 118.589 72.3342 118.545C72.3591 118.527 72.3872 118.502 72.4184 118.469C72.4966 118.39 72.6026 118.273 72.7364 118.12C72.8193 118.032 72.9128 117.928 73.017 117.809V120.308C73.1293 120.29 73.2415 120.271 73.3537 120.251C73.3724 120.248 73.3911 120.245 73.4099 120.242C76.2747 119.774 79.1337 119.233 81.9869 118.62C82.8084 109.518 82.2067 100.415 80.1817 91.3107C80.147 91.2166 80.1127 91.1223 80.0788 91.0278C79.9354 90.6506 79.792 90.2765 79.6486 89.9056C79.4553 89.4278 79.262 88.9594 79.0687 88.5005C79.0091 88.3627 78.9468 88.2244 78.8816 88.0856C78.8543 88.0174 78.8231 87.9483 78.7881 87.8781C78.6737 87.615 78.5552 87.3541 78.4326 87.0954C74.7922 95.5292 70.6673 100.829 66.0581 102.994L60.5209 92.4234L57.032 101.306ZM51.897 95.243C52.0481 94.9729 52.1697 94.778 52.2618 94.6583L50.9804 92.5554L45.7799 104.154C33.0789 98.8159 24.2898 92.6424 19.4126 85.6338C19.4113 85.6297 19.4082 85.6234 19.4033 85.6149C19.3944 85.6372 19.385 85.656 19.3752 85.6715C10.3798 105.017 14.5358 116.732 31.8433 120.817C31.9974 120.852 32.1502 120.887 32.3016 120.921C32.4547 120.666 32.5856 120.437 32.6945 120.233C32.9992 119.675 33.1426 119.31 33.1247 119.139L33.2183 119.044C33.2303 119.077 33.2615 119.218 33.3118 119.469C33.3447 119.61 33.3821 119.783 33.424 119.987C33.4299 120.015 33.4393 120.04 33.4521 120.063C33.5153 120.157 33.6556 120.204 33.873 120.204C33.8917 120.204 34.2877 120.056 35.0609 119.761C35.2043 119.761 35.3259 119.884 35.4257 120.129C35.4694 120.221 35.5224 120.347 35.5847 120.506C35.6153 120.576 35.6465 120.651 35.6782 120.732H35.8466C36.0461 120.242 36.3859 119.337 36.8661 118.016C37.1506 117.237 37.3906 116.583 37.5863 116.055C37.7424 115.642 37.8702 115.309 37.9698 115.055V120.732C37.9733 120.715 37.9764 120.696 37.9791 120.676C37.9856 120.657 37.9918 120.635 37.9978 120.61C38.0063 120.581 38.0157 120.55 38.0259 120.515C38.0849 120.335 38.1722 120.156 38.2878 119.978C38.3071 119.953 38.3258 119.928 38.3439 119.902C38.3962 119.84 38.4429 119.783 38.4842 119.733C38.5924 119.601 38.6579 119.52 38.6806 119.488C38.7929 119.607 38.9519 119.902 39.1577 120.374C39.3198 120.732 39.4788 120.911 39.6347 120.911C39.7726 120.911 39.8786 120.908 39.9527 120.902C39.9944 120.896 40.0256 120.89 40.0462 120.883C40.0718 120.873 40.0967 120.86 40.1211 120.845C40.1251 120.843 40.1282 120.84 40.1304 120.836C40.1521 120.822 40.1708 120.806 40.1865 120.789V120.779C40.1973 120.774 40.2066 120.768 40.2146 120.761C40.2239 120.749 40.2333 120.736 40.2427 120.723V120.713C40.2457 120.712 40.2488 120.709 40.252 120.704C40.2709 120.673 40.2865 120.638 40.2988 120.6C40.3247 120.537 40.3434 120.465 40.3549 120.383C40.411 120.383 40.4391 120.352 40.4391 120.289C40.704 120.496 40.8474 121.121 40.8693 122.166C42.8599 122.325 44.9644 122.416 47.1829 122.439C47.3144 122.133 47.4671 121.753 47.6412 121.298C48.1151 120.034 48.3521 119.255 48.3521 118.959C48.3832 118.959 48.4113 118.947 48.4362 118.922C48.4674 118.89 48.4955 118.875 48.5204 118.875C48.5204 118.958 48.5267 119.077 48.5391 119.233C48.5466 119.325 48.556 119.426 48.5672 119.535C48.5804 119.666 48.5959 119.81 48.614 119.968C48.6701 120.515 48.6981 120.861 48.6981 121.006C48.7293 121.037 48.7511 121.062 48.7636 121.081C48.7701 121.084 48.7857 121.088 48.8104 121.091C48.8404 121.091 48.8778 121.091 48.9226 121.091C48.9585 121.091 49.0052 121.062 49.0629 121.006C49.2366 120.837 49.5078 120.41 49.8767 119.723C49.9226 119.65 49.9662 119.571 50.0076 119.488C50.0975 119.325 50.191 119.149 50.2882 118.959C50.2919 119.607 50.3356 120.493 50.4192 121.619C50.4426 121.935 50.4613 122.209 50.4753 122.439V122.449H50.4846C50.6408 122.443 50.7966 122.437 50.9523 122.43C51.9552 122.402 52.9685 122.364 53.9922 122.317C54.5382 122.287 55.0838 122.256 55.629 122.222C55.6415 122.097 55.6508 121.971 55.6571 121.845C56.1695 115 56.3784 108.154 56.2838 101.306V101.297L54.3289 98.072C54.1888 98.2466 54.0547 98.41 53.9267 98.5623C53.6426 98.9049 53.3963 99.1658 53.1878 99.345C52.9525 99.5554 52.7654 99.6623 52.6266 99.6657V99.2602C52.6794 99.0959 52.7293 98.9042 52.7762 98.6849C52.7997 98.5916 52.8216 98.4942 52.8417 98.3926C52.8531 98.3303 52.8624 98.2705 52.8698 98.2134C52.9072 98.0006 52.9259 97.8466 52.9259 97.7514L52.8791 97.7985C52.8168 97.8802 52.717 97.962 52.5798 98.0437C52.5473 98.0644 52.5161 98.0833 52.4863 98.1003C52.4045 98.1449 52.3296 98.1763 52.2618 98.1946V98.1474C52.2618 98.0028 52.293 97.8425 52.3553 97.6665V97.1667C52.2723 97.15 52.1601 97.1971 52.0186 97.3082C51.9482 97.3687 51.8702 97.4441 51.7848 97.5345C51.5957 97.7372 51.3836 97.929 51.1487 98.1097C50.9299 98.2898 50.6899 98.4595 50.4285 98.6189C50.4827 98.3463 50.6386 97.9157 50.8962 97.327C51.0142 97.0527 51.1545 96.7447 51.3171 96.4029C51.5457 95.9254 51.739 95.5388 51.897 95.243ZM54.2447 103.042C54.2447 102.866 54.3071 102.712 54.4318 102.58C54.5627 102.454 54.7186 102.391 54.8995 102.391C55.0803 102.391 55.2331 102.454 55.3578 102.58C55.4887 102.712 55.5542 102.869 55.5542 103.051C55.5542 103.099 55.548 103.146 55.5355 103.192C55.5122 103.31 55.453 103.417 55.3578 103.513C55.2331 103.645 55.0803 103.711 54.8995 103.711C54.7186 103.711 54.5627 103.645 54.4318 103.513C54.3411 103.417 54.2819 103.307 54.2541 103.183C54.2478 103.139 54.2447 103.091 54.2447 103.042ZM55.3578 107.521C55.4887 107.653 55.5542 107.81 55.5542 107.992C55.5542 108.168 55.4887 108.322 55.3578 108.454C55.2331 108.586 55.0803 108.652 54.8995 108.652C54.7186 108.652 54.5627 108.586 54.4318 108.454C54.3071 108.322 54.2447 108.165 54.2447 107.983C54.2447 107.807 54.3071 107.653 54.4318 107.521C54.5627 107.395 54.7186 107.332 54.8995 107.332C55.0803 107.332 55.2331 107.395 55.3578 107.521ZM55.3578 112.406C55.4887 112.538 55.5542 112.695 55.5542 112.877C55.5542 113.053 55.4887 113.207 55.3578 113.339C55.2331 113.471 55.0803 113.537 54.8995 113.537C54.7186 113.537 54.5627 113.471 54.4318 113.339C54.3071 113.207 54.2447 113.05 54.2447 112.868C54.2447 112.692 54.3071 112.538 54.4318 112.406C54.5627 112.28 54.7186 112.217 54.8995 112.217C55.0803 112.217 55.2331 112.28 55.3578 112.406ZM53.9361 118.375C53.9361 118.199 53.9984 118.045 54.1231 117.913C54.2333 117.807 54.3611 117.744 54.5066 117.724C54.534 117.724 54.5621 117.724 54.5908 117.724C54.7716 117.724 54.9244 117.787 55.0491 117.913C55.1801 118.045 55.2455 118.202 55.2455 118.384C55.2455 118.56 55.1801 118.714 55.0491 118.846C54.9244 118.978 54.7716 119.044 54.5908 119.044C54.5621 119.044 54.534 119.041 54.5066 119.035C54.3611 119.02 54.2333 118.957 54.1231 118.846C53.9984 118.714 53.9361 118.557 53.9361 118.375ZM31.3102 103.334C31.4756 103.243 31.6315 103.164 31.7778 103.098C31.9235 102.794 32.0638 102.549 32.1987 102.363C32.5916 101.822 33.0468 101.552 33.5643 101.552C33.8325 101.552 34.0039 101.608 34.0788 101.721C34.1162 101.778 34.1349 101.913 34.1349 102.127C34.1349 102.215 34.0725 102.576 33.9478 103.211C33.8293 103.796 33.7857 104.205 33.8169 104.437C33.6984 104.808 33.5768 105.264 33.4521 105.805C33.29 106.515 33.2089 107.053 33.2089 107.417C33.2089 107.599 33.2557 107.779 33.3492 107.955C33.4427 108.131 33.4895 108.332 33.4895 108.558C33.4895 108.784 33.2681 109.058 32.8254 109.379C32.3889 109.699 32.1676 109.992 32.1613 110.256C32.1551 110.922 31.9836 111.525 31.6469 112.066C31.4349 112.406 31.2416 112.632 31.067 112.745C31.0296 112.305 31.0108 111.067 31.0108 109.03C31.0108 108.646 30.8175 108.068 30.4309 107.295C30.0381 106.521 29.8417 106.1 29.8417 106.031C29.8417 105.679 29.9633 105.399 30.2065 105.192C30.4559 104.984 30.7614 104.915 31.1231 104.984V104.748V104.55C31.0798 104.524 31.0393 104.492 31.0015 104.456C30.9071 104.37 30.8416 104.26 30.8051 104.126C30.7926 104.069 30.7864 103.969 30.7864 103.824C30.7864 103.699 30.961 103.535 31.3102 103.334Z" fill="#93CEE0"/>
<path d="M50.9804 92.546C50.9773 92.5492 50.9742 92.5492 50.971 92.546L49.7083 94.498L44.6481 102.278C43.0417 101.707 41.4704 101.078 39.934 100.392C39.4331 100.17 38.9342 99.9406 38.4375 99.7034C38.6557 99.0788 38.7648 98.711 38.7648 98.6001C38.7648 98.5121 38.7524 98.4366 38.7274 98.3737H38.1943C38.188 98.3612 38.213 98.2889 38.2691 98.1569C38.3314 98.0185 38.3626 97.8991 38.3626 97.7985H38.3159C38.266 97.8174 38.0696 97.9085 37.7266 98.072C37.4273 98.2166 37.1872 98.3172 37.0064 98.3737L37.0532 98.336C37.0157 98.2103 37.156 97.8991 37.4741 97.4025C37.8918 96.7424 38.1724 96.2394 38.3159 95.8937L38.241 95.9785C38.0166 96.0728 37.7297 96.2426 37.3805 96.4877C37.0874 96.6889 36.8848 96.8461 36.7725 96.9592H36.2581V96.6009C36.1459 96.6763 36.0087 96.7644 35.8466 96.8649C35.7281 96.9278 35.6221 96.9592 35.5285 96.9592C35.3415 96.9592 35.2324 96.9435 35.2012 96.9121V96.1577C35.1201 96.1954 34.827 96.4343 34.322 96.8744C34.1457 97.0284 33.9898 97.1635 33.8543 97.2799C28.5326 94.1717 23.7187 90.2897 19.4126 85.6338C24.2898 92.6424 33.0789 98.8159 45.7799 104.154L50.9804 92.5554V92.546ZM61.8303 94.2717L60.5209 92.4234L66.0581 102.994C70.6673 100.829 74.7922 95.5292 78.4326 87.0954C75.7616 92.5998 71.8768 97.3086 66.7783 101.222L61.8303 94.2717Z" fill="#7BADBD"/>
<path d="M50.971 92.546C50.6202 92.5564 50.271 92.5627 49.9234 92.5648C37.6925 92.6422 27.6096 89.5554 19.6745 83.3046H19.6652C24.6126 89.2552 34.3277 92.9769 48.8104 94.4697L49.7083 94.498L50.971 92.546ZM60.6144 92.414C60.5853 92.4172 60.5541 92.4203 60.5209 92.4234L61.8303 94.2717C68.3977 93.3402 73.9318 90.9481 78.4326 87.0954C78.2624 86.7282 78.0878 86.3635 77.9088 86.0016C73.0671 89.6434 67.3023 91.7809 60.6144 92.414Z" fill="#8DC6D8"/>
<path d="M79.0545 102.171L79.5388 100.101L78.4087 98.4968L76.7136 100.45L76.4484 99.6013L78.0628 98.2759L76.2869 97.59L78.4433 97.9736L79.9424 96.7297L80.0231 96.6599L79.6195 96.3344L73.5425 98.5782L75.9525 99.8803L76.4368 101.45L77.1864 100.845L79.0545 102.171ZM78.6739 98.1945L79.5388 100.101L80.2883 96.8808L80.0231 96.6716L79.9424 96.7297L78.6739 98.1945Z" fill="#B3EBFF"/>
<path d="M68.21 107.977L70.3223 107.907L71.5738 106.39L69.2626 105.253L70.0099 104.774L71.6973 105.996L71.9008 104.092L72.0853 106.287L73.6649 107.419L73.7526 107.479L73.9618 107.002L70.2475 101.683L69.6147 104.365L68.2311 105.246L69.0041 105.816L68.21 107.977ZM71.9322 106.569L70.3223 107.907L73.6084 107.794L73.7414 107.482L73.6649 107.419L71.9322 106.569Z" fill="#B3EBFF"/>
<path d="M64.1284 114.391L65.2373 116.199L67.1616 116.528L66.9904 113.938L67.7731 114.349L67.5612 116.437L69.2979 115.656L67.5041 116.922L67.3165 118.871L67.3084 118.978L67.8221 118.92L70.5454 113.001L67.9281 113.799L66.4849 113.034L66.3789 113.996L64.1284 114.391ZM67.1861 116.931L65.2373 116.199L66.9659 119.01L67.3002 118.969L67.3165 118.871L67.1861 116.931Z" fill="#B3EBFF"/>
<path d="M17.2713 109.486L19.3837 109.416L20.6351 107.899L18.3239 106.762L19.0713 106.283L20.7586 107.505L20.9621 105.6L21.1466 107.796L22.7262 108.927L22.8139 108.988L23.0232 108.51L19.3088 103.192L18.676 105.874L17.2924 106.754L18.0655 107.325L17.2713 109.486ZM20.9936 108.078L19.3837 109.416L22.6698 109.303L22.8028 108.991L22.7262 108.927L20.9936 108.078Z" fill="#B3EBFF"/>
<path d="M17.9305 92.8139L17.4462 94.8832L18.5762 96.4874L20.2712 94.5344L20.5365 95.383L18.9222 96.7083L20.6979 97.3942L18.5417 97.0106L17.0427 98.2545L16.962 98.3242L17.3655 98.6497L23.4422 96.406L21.0323 95.104L20.548 93.5346L19.7985 94.1391L17.9305 92.8139ZM18.311 96.7897L17.4462 94.8832L16.6967 98.1034L16.962 98.3126L17.0427 98.2545L18.311 96.7897Z" fill="#B3EBFF"/>
<path d="M29.4719 109.782L27.6782 110.9L27.3522 112.84L29.9205 112.667L29.5129 113.456L27.4419 113.242L28.2166 114.993L26.9609 113.185L25.0285 112.996L24.9225 112.988L24.9796 113.506L30.8501 116.251L30.0591 113.612L30.8173 112.157L29.8634 112.05L29.4719 109.782ZM26.9527 112.864L27.6782 110.9L24.8899 112.642L24.9307 112.979L25.0285 112.996L26.9527 112.864Z" fill="#B3EBFF"/>
<path d="M40.2563 115.382L40.7405 113.312L39.6105 111.708L37.9155 113.661L37.6503 112.813L39.2646 111.487L37.4889 110.801L39.6451 111.185L41.1441 109.941L41.2248 109.871L40.8213 109.546L34.7445 111.79L37.1545 113.092L37.6388 114.661L38.3883 114.056L40.2563 115.382ZM39.8757 111.406L40.7405 113.312L41.49 110.092L41.2248 109.883L41.1441 109.941L39.8757 111.406Z" fill="#B3EBFF"/>
<path d="M56.5836 113.531L58.6959 113.461L59.9474 111.944L57.6363 110.807L58.3836 110.328L60.0709 111.55L60.2744 109.646L60.4589 111.841L62.0384 112.973L62.1261 113.033L62.3353 112.556L58.6212 107.237L57.9884 109.919L56.6048 110.8L57.3778 111.37L56.5836 113.531ZM60.3058 112.123L58.6959 113.461L61.9819 113.348L62.1149 113.036L62.0384 112.973L60.3058 112.123Z" fill="#B3EBFF"/>
<path d="M47.6095 118.667L49.0527 117.123L48.8658 115.165L46.43 115.997L46.6196 115.129L48.675 114.8L47.4739 113.309L49.1544 114.731L51.0696 114.413L51.1741 114.394L50.985 113.909L44.6051 112.776L46.0516 115.12L45.6957 116.721L46.6446 116.577L47.6095 118.667ZM49.2452 115.038L49.0527 117.123L51.2949 114.719L51.1683 114.404L51.0696 114.413L49.2452 115.038Z" fill="#B3EBFF"/>
<path d="M51.7905 106.031L53.2336 104.487L53.0467 102.529L50.6109 103.361L50.8005 102.493L52.8559 102.163L51.6549 100.673L53.3354 102.095L55.2505 101.777L55.355 101.758L55.1659 101.272L48.7861 100.14L50.2325 102.483L49.8766 104.085L50.8256 103.941L51.7905 106.031ZM53.4262 102.402L53.2336 104.487L55.4758 102.083L55.3493 101.768L55.2505 101.777L53.4262 102.402Z" fill="#B3EBFF"/>
<path d="M37.5403 101.067L36.5455 102.933L37.2314 104.776L39.3686 103.341L39.4096 104.228L37.5101 105.08L39.0546 106.208L37.065 105.27L35.2978 106.074L35.2019 106.12L35.5098 106.539L41.9621 105.979L39.9604 104.09L39.8906 102.451L39.0115 102.836L37.5403 101.067ZM36.8979 104.997L36.5455 102.933L35.0014 105.837L35.2049 106.108L35.2978 106.074L36.8979 104.997Z" fill="#B3EBFF"/>
<path d="M25.652 102.206L27.7643 102.136L29.0158 100.619L26.7046 99.4822L27.4519 99.0027L29.1393 100.225L29.3428 98.3203L29.5273 100.516L31.1069 101.647L31.1946 101.708L31.4038 101.23L27.6894 95.9119L27.0567 98.5938L25.6731 99.4745L26.4461 100.045L25.652 102.206ZM29.3742 100.798L27.7643 102.136L31.0504 102.023L31.1834 101.711L31.1069 101.647L29.3742 100.798Z" fill="#B3EBFF"/>
<path d="M81.0279 109.782L79.2342 110.9L78.9082 112.84L81.4765 112.667L81.0689 113.456L78.9979 113.242L79.7726 114.993L78.5169 113.185L76.5845 112.996L76.4785 112.988L76.5356 113.506L82.4061 116.251L81.6151 113.612L82.3733 112.157L81.4194 112.05L81.0279 109.782ZM78.5087 112.864L79.2342 110.9L76.4459 112.642L76.4867 112.979L76.5845 112.996L78.5087 112.864Z" fill="#B3EBFF"/>
<path d="M24.1735 105.493C24.1787 105.486 24.1818 105.476 24.1829 105.465C24.029 105.305 23.7515 105.16 23.3504 105.031L21.9942 109.152L23.0604 109.501C23.6798 108.186 24.0509 106.85 24.1735 105.493ZM25.6981 96.9309C25.9478 96.325 26.1161 95.7529 26.2032 95.2147C24.1356 97.782 22.8823 100.765 22.4431 104.164C22.6961 104.248 22.9487 104.333 23.2007 104.418C23.2825 104.022 23.3698 103.629 23.4626 103.24C24.0037 101.014 24.7488 98.9108 25.6981 96.9309Z" fill="#A7EAFF"/>
<path d="M11.668 110.095C11.7221 108.941 12.6325 108.287 14.3992 108.134C17.2018 108.358 19.668 108.946 21.7977 109.897C21.8636 109.657 21.9259 109.408 21.9848 109.152C21.8539 109.102 21.7229 109.055 21.592 109.011C21.1555 108.854 20.719 108.709 20.2825 108.577C17.9579 107.866 15.5479 107.477 13.0523 107.408C12.8099 107.402 12.5667 107.399 12.3227 107.398C11.3874 107.392 10.4427 107.433 9.48865 107.521C9.50221 107.712 9.5178 107.9 9.53541 108.087C9.99466 112.761 11.9246 115.7 15.3252 116.904C15.592 116.968 15.8507 117.006 16.1015 117.017C13.1996 114.474 11.7218 112.166 11.668 110.095Z" fill="#FBC501"/>
<path d="M14.3992 108.134C12.6325 108.287 11.7221 108.941 11.668 110.095C11.7218 112.166 13.1996 114.474 16.1015 117.017C17.7845 117.122 19.1813 116.147 20.2918 114.094C20.4477 113.792 20.6005 113.468 20.7502 113.122C21.1403 112.204 21.4895 111.129 21.7977 109.897C19.668 108.946 17.2018 108.358 14.3992 108.134ZM17.121 115.574C16.8841 115.304 16.8186 114.879 16.9246 114.301C17.0306 113.729 17.2769 113.176 17.6635 112.641C18.0377 112.113 18.443 111.752 18.8795 111.557C19.3097 111.368 19.6433 111.409 19.8803 111.679C20.111 111.95 20.1734 112.371 20.0674 112.943C19.9676 113.521 19.7244 114.078 19.3378 114.612C18.9637 115.14 18.5583 115.499 18.1218 115.687C17.6854 115.882 17.3517 115.844 17.121 115.574Z" fill="#FFD90A"/>
<path d="M16.9246 114.301C16.8186 114.879 16.8841 115.304 17.121 115.574C17.3517 115.844 17.6853 115.882 18.1218 115.687C18.5583 115.499 18.9636 115.14 19.3378 114.612C19.7244 114.078 19.9676 113.521 20.0674 112.943C20.1734 112.371 20.111 111.95 19.8803 111.679C19.6433 111.409 19.3097 111.368 18.8795 111.557C18.443 111.752 18.0377 112.113 17.6635 112.641C17.2769 113.176 17.0306 113.729 16.9246 114.301Z" fill="#FEE677"/>
<path d="M15.7835 103.249C15.6923 103.241 15.5988 103.231 15.5029 103.221C15.3837 103.207 15.2621 103.194 15.1381 103.183C12.5181 102.979 10.4978 103.724 9.0771 105.418C9.05084 106.132 9.09449 106.836 9.20805 107.53L9.48865 107.521C10.4427 107.433 11.3874 107.392 12.3227 107.398C12.5667 107.399 12.8099 107.402 13.0523 107.408C15.5479 107.477 17.9579 107.866 20.2825 108.577C20.719 108.709 21.1555 108.854 21.592 109.011C21.7229 109.055 21.8539 109.102 21.9848 109.152H21.9942L23.3504 105.031C23.3028 105.015 23.2529 104.999 23.2007 104.984C22.6645 104.802 22.1282 104.632 21.592 104.475C21.1555 104.343 20.719 104.223 20.2825 104.117C18.7842 103.731 17.2846 103.442 15.7835 103.249ZM24.5383 91.056C22.7781 90.0129 20.6081 89.6703 18.0283 90.0281C17.1865 90.1413 16.3042 90.3299 15.3813 90.5939C15.3797 90.5954 15.3766 90.5954 15.3719 90.5939C15.2261 90.7992 15.0827 91.0035 14.9417 91.2069C13.3269 94.4492 12.6379 97.0362 12.8746 98.9678C13.1133 100.852 14.2326 102.112 16.2325 102.749C16.9646 102.982 17.8157 103.13 18.7859 103.192C19.2845 103.303 19.7833 103.422 20.2825 103.551C20.3291 103.562 20.3759 103.572 20.4228 103.579C20.8124 103.681 21.2021 103.791 21.592 103.909C21.8762 103.992 22.1599 104.077 22.4431 104.164C22.8823 100.765 24.1357 97.782 26.2032 95.2147C26.5009 93.4447 25.9459 92.0585 24.5383 91.056Z" fill="#93CEE0"/>
<path d="M8.60007 103.004C8.59822 102.998 8.5951 102.991 8.59072 102.985C8.23721 104.509 8.17486 106.034 8.40365 107.559L9.20804 107.53C9.09449 106.836 9.05084 106.132 9.0771 105.418C10.4978 103.724 12.5181 102.979 15.1381 103.183C14.2896 103.091 13.4385 103.031 12.5846 103.004C11.8613 102.979 10.9945 102.979 9.98438 103.004H8.60007ZM8.80585 102.447H8.78714C8.7697 102.456 8.75411 102.465 8.74037 102.476C8.76169 102.465 8.78351 102.456 8.80585 102.447ZM14.9417 91.2069C15.0827 91.0036 15.2261 90.7992 15.3719 90.594C12.8585 93.0036 11.2185 95.6975 10.452 98.6755C10.4207 98.7962 10.3895 98.9157 10.3585 99.0338C10.1694 99.8033 10.0042 100.586 9.86278 101.382C9.80184 101.716 9.74572 102.052 9.69442 102.391L9.40447 102.438C9.41947 102.442 9.43506 102.445 9.45123 102.447C9.50097 102.446 9.55086 102.443 9.60089 102.438C9.62851 102.44 9.65657 102.44 9.68507 102.438C9.67903 102.444 9.67903 102.447 9.68507 102.447L9.98438 102.438C10.2338 102.432 10.4739 102.426 10.7046 102.419C11.4132 102.413 12.0399 102.419 12.5846 102.438C13.8007 102.477 15.0167 102.58 16.2325 102.749C14.2326 102.112 13.1133 100.852 12.8746 98.9678C12.6379 97.0362 13.3269 94.4492 14.9417 91.2069Z" fill="#7FB3C2"/>
<path d="M8.74038 102.476C8.7336 102.48 8.72737 102.483 8.72167 102.485C8.63966 102.556 8.6116 102.66 8.63749 102.796C8.62502 102.854 8.61255 102.911 8.60008 102.966C8.59844 102.972 8.59532 102.978 8.59072 102.985C8.59511 102.991 8.59822 102.998 8.60008 103.004H9.98438C10.9945 102.979 11.8613 102.979 12.5846 103.004C13.4385 103.031 14.2896 103.091 15.1381 103.183C15.2621 103.194 15.3837 103.207 15.5029 103.221C15.5988 103.231 15.6923 103.241 15.7835 103.249C17.2846 103.441 18.7842 103.731 20.2825 104.117C20.719 104.223 21.1555 104.343 21.592 104.475C22.1282 104.632 22.6645 104.802 23.2007 104.984C23.2529 104.999 23.3028 105.015 23.3504 105.031C23.7515 105.16 24.029 105.304 24.1829 105.465C24.2 105.289 24.2125 105.113 24.2203 104.937C24.0941 104.785 23.8603 104.647 23.5188 104.522C23.4215 104.486 23.3155 104.452 23.2007 104.418C22.9487 104.333 22.6962 104.248 22.4431 104.164C22.1599 104.077 21.8762 103.992 21.592 103.909C21.2021 103.791 20.8124 103.681 20.4228 103.579C20.3759 103.572 20.3291 103.562 20.2825 103.551C19.7833 103.422 19.2845 103.303 18.7859 103.192C17.8157 103.13 16.9646 102.982 16.2325 102.749C15.0167 102.58 13.8007 102.477 12.5846 102.438C12.0399 102.419 11.4132 102.413 10.7046 102.419C10.4739 102.426 10.2338 102.432 9.98438 102.438L9.68507 102.447H9.45124C9.43506 102.445 9.41947 102.442 9.40447 102.438L9.3577 102.447H8.80585C8.78351 102.456 8.76169 102.465 8.74038 102.476Z" fill="#68929F"/>
<path d="M8.72166 102.486C8.72744 102.484 8.73377 102.481 8.74063 102.476C8.75456 102.466 8.77037 102.456 8.78805 102.447H8.73115C8.72769 102.46 8.72453 102.473 8.72166 102.486Z" fill="url(#paint2_linear_1_1400)"/>
<path d="M21.4092 90.8367L19.6156 91.9547L19.2896 93.8946L21.8578 93.7219L21.4502 94.511L19.3793 94.2974L20.1539 96.0483L18.8982 94.2399L16.9659 94.051L16.8599 94.0427L16.917 94.5606L22.7875 97.3058L21.9965 94.6672L22.7547 93.2122L21.8007 93.1054L21.4092 90.8367ZM18.89 93.9193L19.6156 91.9547L16.8273 93.6975L16.868 94.0345L16.9659 94.051L18.89 93.9193Z" fill="#B3EBFF"/>
<path d="M15.213 96.2677L14.2183 98.1333L14.9045 99.9761L17.0416 98.5412L17.0826 99.4285L15.1832 100.28L16.7278 101.408L14.738 100.471L12.9709 101.274L12.875 101.32L13.183 101.74L19.6354 101.179L17.6335 99.2903L17.5635 97.6511L16.6844 98.036L15.213 96.2677ZM14.5709 100.197L14.2183 98.1333L12.6744 101.038L12.878 101.309L12.9709 101.274L14.5709 100.197Z" fill="#B3EBFF"/>
<defs>
<filter id="filter0_f_1_1400" x="45.1783" y="86.6235" width="22.395" height="27.2699" filterUnits="userSpaceOnUse" color-interpolation-filters="sRGB">
<feFlood flood-opacity="0" result="BackgroundImageFix"/>
<feBlend mode="normal" in="SourceGraphic" in2="BackgroundImageFix" result="shape"/>
<feGaussianBlur stdDeviation="1.33332" result="effect1_foregroundBlur_1_1400"/>
</filter>
<radialGradient id="paint0_radial_1_1400" cx="0" cy="0" r="1" gradientTransform="matrix(0.729566 2.74885 5.23791 -1.4145 42.581 44.5849)" gradientUnits="userSpaceOnUse">
<stop stop-color="#6F3700"/>
<stop offset="1" stop-color="#2A1400"/>
</radialGradient>
<radialGradient id="paint1_radial_1_1400" cx="0" cy="0" r="1" gradientTransform="matrix(-0.658586 2.48141 -4.72831 -1.27689 73.9906 45.5649)" gradientUnits="userSpaceOnUse">
<stop stop-color="#6F3700"/>
<stop offset="1" stop-color="#2A1400"/>
</radialGradient>
<linearGradient id="paint2_linear_1_1400" x1="8.53911" y1="103.894" x2="24.1679" y2="108.052" gradientUnits="userSpaceOnUse">
<stop stop-color="#577A84"/>
<stop offset="0.368627" stop-color="#93CEE0"/>
<stop offset="0.8" stop-color="#93CEE0"/>
<stop offset="1" stop-color="#C7F1FF"/>
</linearGradient>
</defs>
</svg>
