
<svg xmlns="http://www.w3.org/2000/svg" version="1.1" xmlns:xlink="http://www.w3.org/1999/xlink" preserveAspectRatio="none" x="0px" y="0px" width="335px" height="525px" viewBox="0 0 335 525">
<defs>
<g id="Layer1_0_FILL">
<path fill="#A97222" stroke="none" d="
M 13.8 17.35
Q 9.1 19.6 4.85 22.7 3.1 27.5 3.1 33
L 3.1 492
Q 3.1 504.7 12.45 513.65 15.05 516.2 18 518 25.45 522.65 34.95 522.65
L 300.95 522.65
Q 314.15 522.65 323.5 513.65 329.2 508.2 331.45 501.25 315.1 512.7 298.85 511.75
L 50.45 511.75
Q 16.15 508.95 11.35 480.35
L 11.35 47.8 13.8 17.35 Z"/>

<path fill="#E5AD50" stroke="none" d="
M 325.1 145.7
L 325.05 145.7 324.45 41.75
Q 318.9 12.4 298.85 11.35
L 38.6 11.35
Q 25.1 11.9 13.8 17.35
L 11.35 47.8 11.35 480.35
Q 16.15 508.95 50.45 511.75
L 298.85 511.75
Q 315.1 512.7 331.45 501.25
L 329.25 483.9 325.75 420.25 325.25 420.25 325.1 145.7
M 286.85 24.2
Q 299 24.2 307.55 32.6 316.2 41.05 316.2 53
L 316.2 472.05
Q 316.2 481 311.4 488 309.7 490.35 307.55 492.5 307 493 306.4 493.55 300.15 499.45 288.9 500.3
L 49.9 500.3
Q 38.25 499.25 28.95 492.95 28.6 492.7 28.4 492.5 27.3 491.4 26.4 490.35 25.55 489.35 24.85 488.3 19.8 481.2 19.8 472.05
L 19.8 53
Q 19.8 41.05 28.4 32.6 36.95 24.2 49.15 24.2
L 286.85 24.2 Z"/>

<path fill="#582F11" stroke="none" d="
M 307.55 32.6
Q 299 24.2 286.85 24.2
L 49.15 24.2
Q 36.95 24.2 28.4 32.6 19.8 41.05 19.8 53
L 19.8 472.05
Q 19.8 481.2 24.85 488.3 25.55 489.35 26.4 490.35 27.3 491.4 28.4 492.5 28.6 492.7 28.95 492.95 38.25 499.25 49.9 500.3
L 288.9 500.3
Q 300.15 499.45 306.4 493.55 307 493 307.55 492.5 309.7 490.35 311.4 488 316.2 481 316.2 472.05
L 316.2 53
Q 316.2 41.05 307.55 32.6
M 299.65 44.45
Q 299.6751953125 44.4748046875 299.7 44.5 306.8884765625 51.6166015625 307.8 61.4 307.95 62.819921875 307.95 64.3
L 307.95 186.5 307.95 292.75 307.95 421.3 307.95 463.35
Q 307.95 470 305.25 475.45
L 305.2 475.35 305.2 475.4
Q 298 488.15 285.25 490.95
L 136.8 490.95 52.95 490.95
Q 35.05 489.95 28.15 476.6
L 28.15 64.25
Q 28.15 52.6 36.35 44.45 43.2 37.65 52.5 36.55
L 279.55 36.55 279.55 36.3 279.8 36.3
Q 281.280078125 36.3 282.7 36.45 292.4896484375 37.348828125 299.65 44.45 Z"/>

<path fill="#FAFFD3" stroke="none" d="
M 172.45 92.55
Q 168.75 86.2 164.95 82.25 155.4 72.4 139.35 72.4 119.4 72.4 49.15 104.85 43.15 107.6 28.2 114.7
L 28.2 190.15
Q 80.45 200.05 91.7 210.75 96.4 215.25 96.7 222.2 96.9 226.3 96.1 236 96.1 258.2 80.9 273.95 77.05 277.9 70.4 284.1 65.65 289.2 65.65 293.55 65.65 300.8 73.85 309.1 80.4 315.65 93.85 324.35 94.2 324.6 118.55 339.6 133.5 348.8 141.15 355 153.5 364.85 162.3 387.35
L 162.2 387.35
Q 188.106640625 455.6900390625 136.8 490.95
L 285.25 490.95
Q 298 488.15 305.2 475.4
L 305.2 475.35 305.25 475.45
Q 307.95 470 307.95 463.35
L 307.95 421.3
Q 307.925 421.2755859375 307.9 421.25 300.92578125 414.423046875 294.15 406.9 279.85 391.1 265.6 371.45 259.65 363.2 245.6 342.2 241.7 336.3 223.3 320.5 199.5 300.5 186.8 289.35 164.2 269.6 152.65 256.3 137.55 238.95 137.55 228.8 137.55 220.85 143.1 212.7 150.3 201.9 162.65 201.9 187.75 201.9 204.8 207.7 222.05 213.55 241 228.7 256.35 240.95 285.75 270.45 293.6861328125 278.4359375 307.9 292.7 307.925 292.725 307.95 292.75
L 307.95 186.5
Q 307.925 186.4796875 307.9 186.45 304.775 183.926171875 301.65 180.95 296.2 175.35 293.45 172.55 283.4 162.35 272.3 156.9 256.15 149.05 227.45 144.35 207.2 141.05 194.95 128.9 187.15 121.3 178.75 104.65 174.2 95.55 172.45 92.55 Z"/>

<path fill="#EFF3CA" stroke="none" d="
M 299.7 44.5
Q 299.6751953125 44.4748046875 299.65 44.45 292.4896484375 37.348828125 282.7 36.45 281.280078125 36.3 279.8 36.3
L 279.55 36.3 279.55 36.55 52.5 36.55
Q 43.2 37.65 36.35 44.45 28.15 52.6 28.15 64.25
L 28.15 476.6
Q 35.05 489.95 52.95 490.95
L 136.8 490.95
Q 188.106640625 455.6900390625 162.2 387.35
L 162.3 387.35
Q 153.5 364.85 141.15 355 133.5 348.8 118.55 339.6 94.2 324.6 93.85 324.35 80.4 315.65 73.85 309.1 65.65 300.8 65.65 293.55 65.65 289.2 70.4 284.1 77.05 277.9 80.9 273.95 96.1 258.2 96.1 236 96.9 226.3 96.7 222.2 96.4 215.25 91.7 210.75 80.45 200.05 28.2 190.15
L 28.2 114.7
Q 43.15 107.6 49.15 104.85 119.4 72.4 139.35 72.4 155.4 72.4 164.95 82.25 168.75 86.2 172.45 92.55 174.2 95.55 178.75 104.65 187.15 121.3 194.95 128.9 207.2 141.05 227.45 144.35 256.15 149.05 272.3 156.9 283.4 162.35 293.45 172.55 296.2 175.35 301.65 180.95 304.775 183.926171875 307.9 186.45 307.925 186.4796875 307.95 186.5
L 307.95 64.3
Q 307.95 62.819921875 307.8 61.4 306.8884765625 51.6166015625 299.7 44.5
M 143.1 212.7
Q 137.55 220.85 137.55 228.8 137.55 238.95 152.65 256.3 164.2 269.6 186.8 289.35 199.5 300.5 223.3 320.5 241.7 336.3 245.6 342.2 259.65 363.2 265.6 371.45 279.85 391.1 294.15 406.9 300.92578125 414.423046875 307.9 421.25 307.925 421.2755859375 307.95 421.3
L 307.95 292.75
Q 307.925 292.725 307.9 292.7 293.6861328125 278.4359375 285.75 270.45 256.35 240.95 241 228.7 222.05 213.55 204.8 207.7 187.75 201.9 162.65 201.9 150.3 201.9 143.1 212.7 Z"/>

<path fill="#FFC059" stroke="none" d="
M 325.05 145.7
L 325.1 145.7 325.25 420.25 325.75 420.25 329.25 483.9 331.45 501.25
Q 332.8 496.9 332.8 492
L 332.8 33
Q 332.8 20.3 323.5 11.35 314.15 2.35 300.95 2.35
L 34.95 2.35
Q 21.75 2.35 12.45 11.35 7.15 16.4 4.85 22.7 9.1 19.6 13.8 17.35 25.1 11.9 38.6 11.35
L 298.85 11.35
Q 318.9 12.4 324.45 41.75
L 325.05 145.7 Z"/>
</g>
</defs>

<g transform="matrix( 1, 0, 0, 1, 0,0) ">
<use xlink:href="#Layer1_0_FILL"/>
</g>
</svg>
