
<svg xmlns="http://www.w3.org/2000/svg" version="1.1" xmlns:xlink="http://www.w3.org/1999/xlink" preserveAspectRatio="none" x="0px" y="0px" width="335px" height="525px" viewBox="0 0 335 525">
<defs>
<g id="Layer1_0_FILL">
<path fill="#A97222" stroke="none" d="
M 11.35 47.8
L 13.8 17.35
Q 9.1 19.6 4.85 22.7 3.1 27.5 3.1 33
L 3.1 492
Q 3.1 504.7 12.45 513.65 15.05 516.2 18 518 25.45 522.65 34.95 522.65
L 300.95 522.65
Q 314.15 522.65 323.5 513.65 329.2 508.2 331.45 501.25 315.1 512.7 298.85 511.75
L 50.45 511.75
Q 16.15 508.95 11.35 480.35
L 11.35 47.8 Z"/>

<path fill="#E5AD50" stroke="none" d="
M 325.1 145.7
L 325.05 145.7 324.45 41.75
Q 318.9 12.4 298.85 11.35
L 38.6 11.35
Q 25.1 11.9 13.8 17.35
L 11.35 47.8 11.35 480.35
Q 16.15 508.95 50.45 511.75
L 298.85 511.75
Q 315.1 512.7 331.45 501.25
L 329.25 483.9 325.75 420.25 325.25 420.25 325.1 145.7
M 286.85 24.2
Q 299 24.2 307.55 32.6 316.2 41.05 316.2 53
L 316.2 472.05
Q 316.2 481 311.4 488 309.7 490.35 307.55 492.5 307 493 306.4 493.55 300.15 499.45 288.9 500.3
L 49.9 500.3
Q 38.25 499.25 28.95 492.95 28.6 492.7 28.4 492.5 27.3 491.4 26.4 490.35 25.55 489.35 24.85 488.3 19.8 481.2 19.8 472.05
L 19.8 53
Q 19.8 41.05 28.4 32.6 36.95 24.2 49.15 24.2
L 286.85 24.2 Z"/>

<path fill="#582F11" stroke="none" d="
M 307.55 32.6
Q 299 24.2 286.85 24.2
L 49.15 24.2
Q 36.95 24.2 28.4 32.6 19.8 41.05 19.8 53
L 19.8 472.05
Q 19.8 481.2 24.85 488.3 25.55 489.35 26.4 490.35 27.3 491.4 28.4 492.5 28.6 492.7 28.95 492.95 38.25 499.25 49.9 500.3
L 288.9 500.3
Q 300.15 499.45 306.4 493.55 307 493 307.55 492.5 309.7 490.35 311.4 488 316.2 481 316.2 472.05
L 316.2 53
Q 316.2 41.05 307.55 32.6
M 279.55 36.55
L 279.55 36.3 279.8 36.3
Q 291.45 36.3 299.65 44.45 307.9 52.6 307.9 64.25
L 307.9 463.3
Q 307.9 469.95 305.2 475.4 298 488.15 285.25 490.95
L 52.95 490.95
Q 35.05 489.95 28.15 476.6
L 28.15 64.25
Q 28.15 52.6 36.35 44.45 43.2 37.65 52.5 36.55
L 279.55 36.55 Z"/>

<path fill="#333333" stroke="none" d="
M 279.55 36.3
L 279.55 36.55 52.5 36.55
Q 43.2 37.65 36.35 44.45 28.15 52.6 28.15 64.25
L 28.15 476.6
Q 35.05 489.95 52.95 490.95
L 285.25 490.95
Q 298 488.15 305.2 475.4 307.9 469.95 307.9 463.3
L 307.9 64.25
Q 307.9 52.6 299.65 44.45 291.45 36.3 279.8 36.3
L 279.55 36.3 Z"/>

<path fill="#FFC059" stroke="none" d="
M 325.05 145.7
L 325.1 145.7 325.25 420.25 325.75 420.25 329.25 483.9 331.45 501.25
Q 332.8 496.9 332.8 492
L 332.8 33
Q 332.8 20.3 323.5 11.35 314.15 2.35 300.95 2.35
L 34.95 2.35
Q 21.75 2.35 12.45 11.35 7.15 16.4 4.85 22.7 9.1 19.6 13.8 17.35 25.1 11.9 38.6 11.35
L 298.85 11.35
Q 318.9 12.4 324.45 41.75
L 325.05 145.7 Z"/>
</g>
</defs>

<g transform="matrix( 1, 0, 0, 1, 0,0) ">
<use xlink:href="#Layer1_0_FILL"/>
</g>
</svg>
