<svg width="449" height="192" viewBox="0 0 449 192" fill="none" xmlns="http://www.w3.org/2000/svg">
<path d="M50.5 20.22C50.3333 20.12 50.1667 20.0367 50 19.97C38.5333 14.5367 26.2333 10.8533 13.1 8.92001C8.83333 8.25334 4.46667 7.80334 0 7.57001V148.92C0 158.487 2.65 166.987 7.95 174.42C8.68333 175.453 9.48333 176.487 10.35 177.52L15.1 115.62L20.5 96.87C25.7 84.47 34.4 77.8533 46.6 77.02H79.5C74 53.6867 67.1333 36.2367 58.9 24.67C56.1333 23.07 53.3333 21.5867 50.5 20.22ZM3.15 46.77C3.68333 40.47 6.23333 35.07 10.8 30.57C11.5333 29.8367 12.3 29.1533 13.1 28.52C17.7 24.7867 23.1 22.92 29.3 22.92C36.5333 22.92 42.7 25.47 47.8 30.57C52.9 35.6367 55.45 41.8033 55.45 49.07C55.45 49.4367 55.45 49.8533 55.45 50.32C55.1833 57.0867 52.6333 62.8367 47.8 67.57C42.7 72.67 36.5333 75.22 29.3 75.22C23.1 75.22 17.7 73.37 13.1 69.67C12.3 69.0033 11.5333 68.3033 10.8 67.57C5.66667 62.5033 3.1 56.3367 3.1 49.07C3.1 48.27 3.11667 47.5033 3.15 46.77ZM382.15 78.12C376.25 41.62 364.817 22.6033 347.85 21.07H65.35L68 26.02C73.4667 35.62 77.8667 45.5533 81.2 55.82C95.8667 70.4867 123.283 77.92 163.45 78.12H382.15ZM333.15 29.57C335.483 26.7367 338 26.7367 340.7 29.57L346 38.47L357.3 40.17C360.133 40.9033 361.183 42.8367 360.45 45.97C359.117 49.0033 356.75 51.8867 353.35 54.62L352.5 67.87C351.167 70.1033 348.583 70.7867 344.75 69.92L336.55 66.07L327.3 69.77C323.867 70.07 321.8 68.62 321.1 65.42V54.62L313.55 46.47C312.717 42.9033 313.867 40.7533 317 40.02L328.3 37.97L333.15 29.57ZM287.95 29.57L293.2 38.47L304.6 40.17C307.367 40.9033 308.4 42.8367 307.7 45.97C306.367 49.0033 303.983 51.8867 300.55 54.62L299.7 67.87C298.367 70.1033 295.8 70.7867 292 69.92L283.8 66.07L274.6 69.77C271.1 70.07 269 68.62 268.3 65.42V54.62L260.85 46.47C259.95 42.9033 261.067 40.7533 264.2 40.02L275.55 37.97L280.35 29.57C282.683 26.7367 285.217 26.7367 287.95 29.57ZM249.45 40.17C252.217 40.9033 253.267 42.8367 252.6 45.97C251.267 49.0033 248.867 51.8867 245.4 54.62L244.65 67.87C243.283 70.1033 240.683 70.7867 236.85 69.92L228.65 66.07L219.45 69.77C215.983 70.07 213.917 68.62 213.25 65.42V54.62L205.7 46.47C204.833 42.9033 205.983 40.7533 209.15 40.02L220.4 37.97L225.3 29.57C227.567 26.7367 230.067 26.7367 232.8 29.57L238.05 38.47L249.45 40.17ZM170.75 29.57C173.083 26.7367 175.617 26.7367 178.35 29.57L183.6 38.47L195 40.17C197.767 40.9033 198.8 42.8367 198.1 45.97C196.733 49.0033 194.35 51.8867 190.95 54.62L190.1 67.87C188.767 70.1033 186.2 70.7867 182.4 69.92L174.2 66.07L164.95 69.77C161.483 70.07 159.4 68.62 158.7 65.42V54.62L151.25 46.47C150.35 42.9033 151.467 40.7533 154.6 40.02L165.95 37.97L170.75 29.57ZM128.25 38.47L139.65 40.17C142.417 40.9033 143.467 42.8367 142.8 45.97C141.433 49.0033 139.033 51.8867 135.6 54.62L134.8 67.87C133.467 70.1033 130.867 70.7867 127 69.92L118.85 66.07L109.65 69.77C106.15 70.07 104.067 68.62 103.4 65.42V54.62L95.9 46.47C95.0333 42.9033 96.1667 40.7533 99.3 40.02L110.6 37.97L115.45 29.57C117.75 26.7367 120.267 26.7367 123 29.57L128.25 38.47Z" fill="#B26C1E"/>
<path d="M10.8 30.57C6.23331 35.07 3.68331 40.47 3.14998 46.77C3.11664 47.5033 3.09998 48.27 3.09998 49.07C3.09998 56.3367 5.66664 62.5033 10.8 67.57C11.5333 68.3033 12.3 69.0033 13.1 69.67C17.7 73.37 23.1 75.22 29.3 75.22C36.5333 75.22 42.7 72.67 47.8 67.57C52.6333 62.8367 55.1833 57.0867 55.45 50.32C55.45 49.8533 55.45 49.4367 55.45 49.07C55.45 41.8033 52.9 35.6367 47.8 30.57C42.7 25.47 36.5333 22.92 29.3 22.92C23.1 22.92 17.7 24.7867 13.1 28.52C12.3 29.1533 11.5333 29.8367 10.8 30.57ZM45.95 30.87C50.65 35.57 53 41.22 53 47.82C53 48.1867 53 48.5867 53 49.02C52.7333 55.1533 50.3833 60.4033 45.95 64.77C41.2833 69.4033 35.6333 71.72 29 71.72C22.8666 71.72 17.5666 69.7033 13.1 65.67C12.7666 65.37 12.45 65.07 12.15 64.77C7.48331 60.1367 5.14998 54.4867 5.14998 47.82C5.14998 47.12 5.16664 46.4367 5.19998 45.77C5.66664 40.0367 7.98331 35.07 12.15 30.87C12.45 30.57 12.7666 30.27 13.1 29.97C17.5666 25.97 22.8666 23.97 29 23.97C35.6333 23.97 41.2833 26.27 45.95 30.87ZM139.65 40.17L128.25 38.47L123 29.57C120.267 26.7367 117.75 26.7367 115.45 29.57L110.6 37.97L99.3 40.02C96.1666 40.7533 95.0333 42.9033 95.9 46.47L103.4 54.62V65.42C104.067 68.62 106.15 70.07 109.65 69.77L118.85 66.07L127 69.92C130.867 70.7867 133.467 70.1033 134.8 67.87L135.6 54.62C139.033 51.8867 141.433 49.0033 142.8 45.97C143.467 42.8367 142.417 40.9033 139.65 40.17ZM127.25 39.62L137.3 41.12C139.667 41.82 140.55 43.5533 139.95 46.32C138.817 48.9867 136.75 51.5533 133.75 54.02L133.15 63.37L132.95 65.67C132.683 66.07 132.383 66.4033 132.05 66.67C130.783 67.8367 128.783 68.12 126.05 67.52L118.85 64.02L110.6 67.32C108.667 67.4867 107.25 67.0533 106.35 66.02C105.817 65.42 105.433 64.6033 105.2 63.57V62.02V54.02L98.5 46.77C98.3666 46.3033 98.2833 45.8867 98.25 45.52C98.05 43.0867 99.1333 41.6033 101.5 41.07L111.5 39.27L115.85 31.67C117.883 29.27 120.117 29.27 122.55 31.67L127.25 39.62ZM178.35 29.57C175.617 26.7367 173.083 26.7367 170.75 29.57L165.95 37.97L154.6 40.02C151.467 40.7533 150.35 42.9033 151.25 46.47L158.7 54.62V65.42C159.4 68.62 161.483 70.07 164.95 69.77L174.2 66.07L182.4 69.92C186.2 70.7867 188.767 70.1033 190.1 67.87L190.95 54.62C194.35 51.8867 196.733 49.0033 198.1 45.97C198.8 42.8367 197.767 40.9033 195 40.17L183.6 38.47L178.35 29.57ZM171.2 31.67C173.233 29.27 175.45 29.27 177.85 31.67L182.55 39.62L192.6 41.12C195.033 41.82 195.95 43.5533 195.35 46.32C194.183 48.9867 192.083 51.5533 189.05 54.02L188.45 63.37L188.3 65.67C188 66.07 187.7 66.4033 187.4 66.67C186.1 67.8367 184.083 68.12 181.35 67.52L174.2 64.02L165.95 67.32C164.05 67.4867 162.633 67.0533 161.7 66.02C161.133 65.42 160.733 64.6033 160.5 63.57V62.02V54.02L153.85 46.77C153.717 46.3033 153.633 45.8867 153.6 45.52C153.4 43.0867 154.483 41.6033 156.85 41.07L166.85 39.27L171.2 31.67ZM252.6 45.97C253.267 42.8367 252.217 40.9033 249.45 40.17L238.05 38.47L232.8 29.57C230.067 26.7367 227.567 26.7367 225.3 29.57L220.4 37.97L209.15 40.02C205.983 40.7533 204.833 42.9033 205.7 46.47L213.25 54.62V65.42C213.917 68.62 215.983 70.07 219.45 69.77L228.65 66.07L236.85 69.92C240.683 70.7867 243.283 70.1033 244.65 67.87L245.4 54.62C248.867 51.8867 251.267 49.0033 252.6 45.97ZM247.1 41.12C249.5 41.82 250.4 43.5533 249.8 46.32C248.633 48.9867 246.55 51.5533 243.55 54.02L242.95 63.37L242.8 65.67C242.533 66.07 242.233 66.4033 241.9 66.67C240.633 67.8367 238.633 68.12 235.9 67.52L228.65 64.02L220.4 67.32C218.5 67.4867 217.1 67.0533 216.2 66.02C215.633 65.42 215.233 64.6033 215 63.57V62.02V54.02L208.35 46.77C208.183 46.3033 208.083 45.8867 208.05 45.52C207.883 43.0867 208.967 41.6033 211.3 41.07L221.3 39.27L225.7 31.67C227.7 29.27 229.917 29.27 232.35 31.67L237.05 39.62L247.1 41.12ZM293.2 38.47L287.95 29.57C285.217 26.7367 282.683 26.7367 280.35 29.57L275.55 37.97L264.2 40.02C261.067 40.7533 259.95 42.9033 260.85 46.47L268.3 54.62V65.42C269 68.62 271.1 70.07 274.6 69.77L283.8 66.07L292 69.92C295.8 70.7867 298.367 70.1033 299.7 67.87L300.55 54.62C303.983 51.8867 306.367 49.0033 307.7 45.97C308.4 42.8367 307.367 40.9033 304.6 40.17L293.2 38.47ZM287.45 31.67L292.2 39.62L302.25 41.12C304.65 41.82 305.55 43.5533 304.95 46.32C303.783 48.9867 301.7 51.5533 298.7 54.02L298.1 63.37L297.9 65.67C297.667 66.07 297.383 66.4033 297.05 66.67C295.717 67.8367 293.7 68.12 291 67.52L283.8 64.02L275.55 67.32C273.65 67.4867 272.233 67.0533 271.3 66.02C270.767 65.42 270.367 64.6033 270.1 63.57V62.02V54.02L263.5 46.77C263.333 46.3033 263.233 45.8867 263.2 45.52C263 43.0867 264.083 41.6033 266.45 41.07L276.45 39.27L280.8 31.67C282.833 29.27 285.05 29.27 287.45 31.67ZM340.7 29.57C338 26.7367 335.483 26.7367 333.15 29.57L328.3 37.97L317 40.02C313.867 40.7533 312.717 42.9033 313.55 46.47L321.1 54.62V65.42C321.8 68.62 323.867 70.07 327.3 69.77L336.55 66.07L344.75 69.92C348.583 70.7867 351.167 70.1033 352.5 67.87L353.35 54.62C356.75 51.8867 359.117 49.0033 360.45 45.97C361.183 42.8367 360.133 40.9033 357.3 40.17L346 38.47L340.7 29.57ZM333.55 31.67C335.617 29.27 337.833 29.27 340.2 31.67L344.95 39.62L354.95 41.12C357.383 41.82 358.3 43.5533 357.7 46.32C356.567 48.9867 354.483 51.5533 351.45 54.02L350.8 63.37L350.7 65.67C350.4 66.07 350.1 66.4033 349.8 66.67C348.5 67.8367 346.483 68.12 343.75 67.52L336.55 64.02L328.3 67.32C326.4 67.4867 324.983 67.0533 324.05 66.02C323.483 65.42 323.1 64.6033 322.9 63.57V62.02V54.02L316.2 46.77C316.1 46.3033 316.033 45.8867 316 45.52C315.8 43.0867 316.883 41.6033 319.25 41.07L329.2 39.27L333.55 31.67Z" fill="#B26C1E"/>
<path d="M9 51.87C9.6 55.1367 10.9667 58.07 13.1 60.67C13.5667 61.2367 14.0667 61.7867 14.6 62.32C18.6 66.32 23.45 68.32 29.15 68.32C34.7833 68.32 39.6 66.32 43.6 62.32C46.5333 59.3867 48.3833 56.02 49.15 52.22C36.8167 60.52 24.8 61.3033 13.1 54.57C11.7333 53.77 10.3667 52.87 9 51.87Z" fill="#E59C33"/>
<path d="M5.20002 45.77C5.16669 46.4367 5.15002 47.12 5.15002 47.82C5.15002 54.4867 7.48336 60.1367 12.15 64.77C12.45 65.07 12.7667 65.37 13.1 65.67C17.5667 69.7033 22.8667 71.72 29 71.72C35.6334 71.72 41.2834 69.4033 45.95 64.77C50.3834 60.4033 52.7334 55.1533 53 49.02L49.15 52.22C48.3834 56.02 46.5334 59.3867 43.6 62.32C39.6 66.32 34.7834 68.32 29.15 68.32C23.45 68.32 18.6 66.32 14.6 62.32C14.0667 61.7867 13.5667 61.2367 13.1 60.67C10.9667 58.07 9.60002 55.1367 9.00002 51.87L5.20002 45.77Z" fill="#D4D4D4"/>
<path d="M49.55 47.82C49.55 42.1867 47.5667 37.3867 43.6 33.42C39.6 29.4533 34.7834 27.47 29.15 27.47C23.45 27.47 18.6 29.4533 14.6 33.42C14.0667 33.9533 13.5667 34.5033 13.1 35.07C10.1334 38.7033 8.65002 42.9533 8.65002 47.82C8.65002 49.22 8.76669 50.57 9.00002 51.87C10.3667 52.87 11.7334 53.77 13.1 54.57C24.8 61.3033 36.8167 60.52 49.15 52.22C49.4167 50.82 49.55 49.3533 49.55 47.82ZM41.65 38.47C41.4167 39.8367 40.9167 40.8367 40.15 41.47C39.3167 42.27 38.1834 42.5367 36.75 42.27C35.2167 41.9033 33.75 40.9533 32.35 39.42C31.5834 38.72 31.1 38.1033 30.9 37.57C30.3334 36.57 30.1834 35.5533 30.45 34.52C30.65 33.42 31.2334 32.5867 32.2 32.02C33 31.52 34.0334 31.32 35.3 31.42C36.2 31.42 37 31.52 37.7 31.72C38.5667 32.02 39.3167 32.4367 39.95 32.97C40.8167 33.8367 41.3834 34.7533 41.65 35.72C41.85 36.42 41.85 37.3367 41.65 38.47ZM21.35 33.12C22.0167 33.0867 22.65 33.2533 23.25 33.62C23.85 33.9867 24.2834 34.4533 24.55 35.02C24.75 35.6867 24.8167 36.3533 24.75 37.02C24.65 37.72 24.3667 38.3033 23.9 38.77C22.9 39.77 21.7167 40.0367 20.35 39.57C19.55 39.27 18.9 38.7033 18.4 37.87C18.1 37.0367 18.0834 36.17 18.35 35.27C18.5834 34.67 18.9834 34.1867 19.55 33.82C20.15 33.3867 20.75 33.1533 21.35 33.12Z" fill="#F9DF39"/>
<path d="M23.25 33.62C22.65 33.2533 22.0166 33.0867 21.35 33.12C20.75 33.1533 20.15 33.3867 19.55 33.82C18.9833 34.1867 18.5833 34.67 18.35 35.27C18.0833 36.17 18.1 37.0367 18.4 37.87C18.9 38.7033 19.55 39.27 20.35 39.57C21.7166 40.0367 22.9 39.77 23.9 38.77C24.3666 38.3033 24.65 37.72 24.75 37.02C24.8166 36.3533 24.75 35.6867 24.55 35.02C24.2833 34.4533 23.85 33.9867 23.25 33.62ZM40.15 41.47C40.9166 40.8367 41.4166 39.8367 41.65 38.47C41.85 37.3367 41.85 36.42 41.65 35.72C41.3833 34.7533 40.8166 33.8367 39.95 32.97C39.3166 32.4367 38.5666 32.02 37.7 31.72C37 31.52 36.2 31.42 35.3 31.42C34.0333 31.32 33 31.52 32.2 32.02C31.2333 32.5867 30.65 33.42 30.45 34.52C30.1833 35.5533 30.3333 36.57 30.9 37.57C31.1 38.1033 31.5833 38.72 32.35 39.42C33.75 40.9533 35.2166 41.9033 36.75 42.27C38.1833 42.5367 39.3166 42.27 40.15 41.47Z" fill="#FBFC95"/>
<path d="M53 47.82C53 41.22 50.65 35.57 45.95 30.87C41.2833 26.27 35.6333 23.97 29 23.97C22.8667 23.97 17.5667 25.97 13.1 29.97C12.7667 30.27 12.45 30.57 12.15 30.87C7.98335 35.07 5.66668 40.0367 5.20001 45.77L9.00001 51.87C8.76668 50.57 8.65001 49.22 8.65001 47.82C8.65001 42.9533 10.1333 38.7033 13.1 35.07C13.5667 34.5033 14.0667 33.9533 14.6 33.42C18.6 29.4533 23.45 27.47 29.15 27.47C34.7833 27.47 39.6 29.4533 43.6 33.42C47.5667 37.3867 49.55 42.1867 49.55 47.82C49.55 49.3533 49.4167 50.82 49.15 52.22L53 49.02C53 48.5867 53 48.1867 53 47.82Z" fill="#F0F0F0"/>
<path d="M50 19.97C50.1667 20.0367 50.3333 20.12 50.5 20.22C53.3333 21.5867 56.1333 23.07 58.9 24.67C57.7667 23.07 56.6167 21.5867 55.45 20.22C54.15 18.72 52.8167 17.3533 51.45 16.12C41.75 7.35333 28.9667 2.15333 13.1 0.52C12.2667 0.42 11.4333 0.353333 10.6 0.32C7.2 0.0533333 3.66667 -0.0466667 0 0.02V7.57C4.46667 7.80333 8.83333 8.25333 13.1 8.92C26.2333 10.8533 38.5333 14.5367 50 19.97ZM382.15 78.12H387.7C386.167 40.3867 375.083 19.7033 354.45 16.07C312.383 16.07 270.317 16.0867 228.25 16.12C228.083 16.12 227.917 16.12 227.75 16.12C227.617 16.12 227.5 16.12 227.4 16.12H225C224.567 16.12 224.133 16.12 223.7 16.12C170.033 16.12 116.367 16.12 62.7 16.12L65.35 21.07H347.85C364.817 22.6033 376.25 41.62 382.15 78.12Z" fill="#EC8F27"/>
<path d="M81.4 83.02L79.5 77.02H46.6C34.4 77.8533 25.7 84.47 20.5 96.87L15.1 115.62L10.35 177.52C11.3166 178.653 12.35 179.77 13.45 180.87C13.7166 181.137 14 181.403 14.3 181.67L18.15 133.97H18.05L18.25 132.82C18.25 132.687 18.2666 132.57 18.3 132.47C18.3333 131.503 18.4166 130.57 18.55 129.67C18.55 129.17 18.5666 128.72 18.6 128.32C18.7666 126.187 18.9833 124.187 19.25 122.32C19.2833 121.82 19.3666 121.37 19.5 120.97C19.8666 118.27 20.35 115.753 20.95 113.42C21.0166 112.953 21.1333 112.52 21.3 112.12C21.8666 109.753 22.5333 107.52 23.3 105.42C23.4666 105.02 23.6 104.637 23.7 104.27C24.1 103.103 24.5666 102.02 25.1 101.02C25.2333 100.687 25.4 100.387 25.6 100.12C25.6 99.9533 25.6333 99.8533 25.7 99.82C30.6 90.1867 37.9 84.5867 47.6 83.02H81.4Z" fill="#704424"/>
<path d="M424.2 99.27C423.867 98.87 423.567 98.4533 423.3 98.02C419 92.1867 414.45 89.2367 409.65 89.17H58.65C49.5167 89.4367 41.4 91.2367 34.3 94.57C31.2333 96.07 28.3667 97.82 25.7 99.82C25.6333 99.8533 25.6 99.9533 25.6 100.12C25.4 100.387 25.2333 100.687 25.1 101.02C24.5667 102.02 24.1 103.103 23.7 104.27C23.6 104.637 23.4667 105.02 23.3 105.42C22.5333 107.52 21.8667 109.753 21.3 112.12C21.1333 112.52 21.0167 112.953 20.95 113.42C20.35 115.753 19.8667 118.27 19.5 120.97C19.3667 121.37 19.2833 121.82 19.25 122.32C18.9833 124.187 18.7667 126.187 18.6 128.32C18.5667 128.72 18.55 129.17 18.55 129.67C18.4167 130.57 18.3333 131.503 18.3 132.47C18.2667 132.57 18.25 132.687 18.25 132.82L18.05 133.97H18.15L14.3 181.67C26.8 188.803 45.5 192.237 70.4 191.97H418.45C431.55 191.203 441.717 188.087 448.95 182.62L443.6 157.37C443.4 156.67 443.267 155.987 443.2 155.32C443.033 154.887 442.933 154.47 442.9 154.07C442.5 152.203 442.117 150.387 441.75 148.62C441.617 148.253 441.533 147.937 441.5 147.67C440.933 145.203 440.383 142.853 439.85 140.62C439.717 140.12 439.6 139.67 439.5 139.27C438.867 136.67 438.233 134.22 437.6 131.92C437.433 131.453 437.3 131.02 437.2 130.62C436.967 129.82 436.733 129.053 436.5 128.32C436.367 127.787 436.2 127.287 436 126.82C435.567 125.22 435.1 123.67 434.6 122.17C434.433 121.637 434.267 121.12 434.1 120.62C433.033 117.487 431.95 114.587 430.85 111.92C430.617 111.453 430.417 111.02 430.25 110.62C429.15 108.187 428.083 105.987 427.05 104.02C426.817 103.587 426.567 103.187 426.3 102.82C425.6 101.52 424.9 100.337 424.2 99.27ZM379.2 99.57C387.533 99.57 394.617 102.17 400.45 107.37C406.317 112.637 409.25 118.97 409.25 126.37V153.62V160.07C409.25 167.47 406.317 173.77 400.45 178.97C394.617 184.237 387.533 186.87 379.2 186.87H83.5C75.2333 186.87 68.1667 184.237 62.3 178.97C56.4333 173.77 53.5 167.47 53.5 160.07V126.37C53.5 118.97 56.4333 112.637 62.3 107.37C63.7333 106.137 65.2333 105.037 66.8 104.07C71.6667 101.07 77.2333 99.57 83.5 99.57H379.2Z" fill="#E5AD50"/>
<path d="M361.65 176.12C361.183 176.12 360.717 176.12 360.25 176.12H94.95C87.35 176.12 80.8833 174.137 75.55 170.17C70.2167 166.237 67.55 161.487 67.55 155.92V130.52C67.55 124.953 70.2167 120.203 75.55 116.27C76.5167 115.57 77.5 114.937 78.5 114.37L66.8 104.07C65.2333 105.037 63.7333 106.137 62.3 107.37C56.4333 112.637 53.5 118.97 53.5 126.37V160.07C53.5 167.47 56.4333 173.77 62.3 178.97C68.1667 184.237 75.2333 186.87 83.5 186.87H379.2C387.533 186.87 394.617 184.237 400.45 178.97C406.317 173.77 409.25 167.47 409.25 160.07V153.62L388.05 169.52C387.95 169.52 387.867 169.587 387.8 169.72C387.633 169.82 387.433 169.97 387.2 170.17C381.867 174.137 375.417 176.12 367.85 176.12H361.65Z" fill="#FFC059"/>
<path d="M387.2 116.27C381.867 112.303 375.417 110.32 367.85 110.32H361.65C361.183 110.32 360.717 110.353 360.25 110.42L94.95 110.32C88.7166 110.32 83.2333 111.67 78.5 114.37C77.5 114.937 76.5167 115.57 75.55 116.27C70.2167 120.203 67.55 124.953 67.55 130.52V155.92C67.55 161.487 70.2167 166.237 75.55 170.17C80.8833 174.137 87.35 176.12 94.95 176.12H360.25C360.717 176.12 361.183 176.12 361.65 176.12H367.85C375.417 176.12 381.867 174.137 387.2 170.17C387.433 169.97 387.633 169.82 387.8 169.72C387.867 169.587 387.95 169.52 388.05 169.52C392.817 165.72 395.2 161.187 395.2 155.92V130.52C395.2 124.953 392.533 120.203 387.2 116.27Z" fill="#3A2520"/>
<path d="M367.85 110.32C375.417 110.32 381.867 112.303 387.2 116.27C392.533 120.203 395.2 124.953 395.2 130.52V155.92C395.2 161.187 392.817 165.72 388.05 169.52L409.25 153.62V126.37C409.25 118.97 406.317 112.637 400.45 107.37C394.617 102.17 387.533 99.57 379.2 99.57H83.5C77.2333 99.57 71.6667 101.07 66.8 104.07L78.5 114.37C83.2333 111.67 88.7166 110.32 94.95 110.32L360.25 110.42C360.717 110.353 361.183 110.32 361.65 110.32H367.85Z" fill="#A97222"/>
<path d="M135 49.22C133.367 50.32 132.3 51.42 131.8 52.52C131.767 56.12 132.217 59.7367 133.15 63.37L133.75 54.02C136.75 51.5533 138.817 48.9867 139.95 46.32C137.917 47.2867 136.267 48.2533 135 49.22ZM110.6 67.32L118.85 64.02L126.05 67.52C128.783 68.12 130.783 67.8367 132.05 66.67L122 61.07C120 59.8367 117.783 59.8367 115.35 61.07L106.35 66.02C107.25 67.0533 108.667 67.4867 110.6 67.32ZM98.25 45.52C98.2833 45.8867 98.3667 46.3033 98.5 46.77L105.2 54.02V62.02C107.033 59.02 107.833 55.9867 107.6 52.92C107 51.6867 105.717 50.37 103.75 48.97C102.25 47.8367 100.417 46.6867 98.25 45.52ZM160.5 54.02V62.02C162.367 59.02 163.167 55.9867 162.9 52.92C162.3 51.6867 161.017 50.37 159.05 48.97C157.583 47.8367 155.767 46.6867 153.6 45.52C153.633 45.8867 153.717 46.3033 153.85 46.77L160.5 54.02ZM181.35 67.52C184.083 68.12 186.1 67.8367 187.4 66.67L177.4 61.07C175.333 59.8367 173.1 59.8367 170.7 61.07L161.7 66.02C162.633 67.0533 164.05 67.4867 165.95 67.32L174.2 64.02L181.35 67.52ZM190.35 49.22C188.683 50.32 187.617 51.42 187.15 52.52C187.117 56.12 187.55 59.7367 188.45 63.37L189.05 54.02C192.083 51.5533 194.183 48.9867 195.35 46.32C193.25 47.2867 191.583 48.2533 190.35 49.22ZM231.85 61.07C229.817 59.8367 227.583 59.8367 225.15 61.07L216.2 66.02C217.1 67.0533 218.5 67.4867 220.4 67.32L228.65 64.02L235.9 67.52C238.633 68.12 240.633 67.8367 241.9 66.67L231.85 61.07ZM208.05 45.52C208.083 45.8867 208.183 46.3033 208.35 46.77L215 54.02V62.02C216.833 59.02 217.65 55.9867 217.45 52.92C216.85 51.6867 215.55 50.37 213.55 48.97C212.05 47.8367 210.217 46.6867 208.05 45.52ZM242.95 63.37L243.55 54.02C246.55 51.5533 248.633 48.9867 249.8 46.32C247.733 47.2867 246.067 48.2533 244.8 49.22C243.2 50.32 242.133 51.42 241.6 52.52C241.567 56.12 242.017 59.7367 242.95 63.37ZM299.95 49.22C298.35 50.32 297.283 51.42 296.75 52.52C296.717 56.12 297.167 59.7367 298.1 63.37L298.7 54.02C301.7 51.5533 303.783 48.9867 304.95 46.32C302.85 47.2867 301.183 48.2533 299.95 49.22ZM271.3 66.02C272.233 67.0533 273.65 67.4867 275.55 67.32L283.8 64.02L291 67.52C293.7 68.12 295.717 67.8367 297.05 66.67L287 61.07C284.933 59.8367 282.7 59.8367 280.3 61.07L271.3 66.02ZM263.2 45.52C263.233 45.8867 263.333 46.3033 263.5 46.77L270.1 54.02V62.02C271.967 59.02 272.783 55.9867 272.55 52.92C271.95 51.6867 270.65 50.37 268.65 48.97C267.183 47.8367 265.367 46.6867 263.2 45.52ZM322.9 62.02C324.767 59.02 325.567 55.9867 325.3 52.92C324.7 51.6867 323.4 50.37 321.4 48.97C319.967 47.8367 318.167 46.6867 316 45.52C316.033 45.8867 316.1 46.3033 316.2 46.77L322.9 54.02V62.02ZM343.75 67.52C346.483 68.12 348.5 67.8367 349.8 66.67L339.75 61.07C337.717 59.8367 335.5 59.8367 333.1 61.07L324.05 66.02C324.983 67.0533 326.4 67.4867 328.3 67.32L336.55 64.02L343.75 67.52ZM352.7 49.22C351.067 50.32 350.017 51.42 349.55 52.52C349.483 56.12 349.9 59.7367 350.8 63.37L351.45 54.02C354.483 51.5533 356.567 48.9867 357.7 46.32C355.6 47.2867 353.933 48.2533 352.7 49.22Z" fill="#B26C1E"/>
<path d="M103.75 48.97C105.717 50.37 107 51.6867 107.6 52.92C107.833 55.9867 107.033 59.02 105.2 62.02V63.57C105.433 64.6033 105.817 65.42 106.35 66.02L115.35 61.07C117.783 59.8367 120 59.8367 122 61.07L132.05 66.67C132.383 66.4033 132.683 66.07 132.95 65.67L133.15 63.37C132.217 59.7367 131.767 56.12 131.8 52.52C132.3 51.42 133.367 50.32 135 49.22C131.833 47.32 127.117 46.0867 120.85 45.52C114.717 45.6867 109.017 46.8367 103.75 48.97ZM187.15 52.52C187.617 51.42 188.683 50.32 190.35 49.22C187.217 47.32 182.5 46.0867 176.2 45.52C170.033 45.6867 164.317 46.8367 159.05 48.97C161.017 50.37 162.3 51.6867 162.9 52.92C163.167 55.9867 162.367 59.02 160.5 62.02V63.57C160.733 64.6033 161.133 65.42 161.7 66.02L170.7 61.07C173.1 59.8367 175.333 59.8367 177.4 61.07L187.4 66.67C187.7 66.4033 188 66.07 188.3 65.67L188.45 63.37C187.55 59.7367 187.117 56.12 187.15 52.52ZM242.95 63.37C242.017 59.7367 241.567 56.12 241.6 52.52C242.133 51.42 243.2 50.32 244.8 49.22C241.667 47.32 236.95 46.0867 230.65 45.52C224.517 45.6867 218.817 46.8367 213.55 48.97C215.55 50.37 216.85 51.6867 217.45 52.92C217.65 55.9867 216.833 59.02 215 62.02V63.57C215.233 64.6033 215.633 65.42 216.2 66.02L225.15 61.07C227.583 59.8367 229.817 59.8367 231.85 61.07L241.9 66.67C242.233 66.4033 242.533 66.07 242.8 65.67L242.95 63.37ZM270.1 62.02V63.57C270.367 64.6033 270.767 65.42 271.3 66.02L280.3 61.07C282.7 59.8367 284.933 59.8367 287 61.07L297.05 66.67C297.383 66.4033 297.667 66.07 297.9 65.67L298.1 63.37C297.167 59.7367 296.717 56.12 296.75 52.52C297.283 51.42 298.35 50.32 299.95 49.22C296.817 47.32 292.1 46.0867 285.8 45.52C279.633 45.6867 273.917 46.8367 268.65 48.97C270.65 50.37 271.95 51.6867 272.55 52.92C272.783 55.9867 271.967 59.02 270.1 62.02ZM349.55 52.52C350.017 51.42 351.067 50.32 352.7 49.22C349.567 47.32 344.85 46.0867 338.55 45.52C332.417 45.6867 326.7 46.8367 321.4 48.97C323.4 50.37 324.7 51.6867 325.3 52.92C325.567 55.9867 324.767 59.02 322.9 62.02V63.57C323.1 64.6033 323.483 65.42 324.05 66.02L333.1 61.07C335.5 59.8367 337.717 59.8367 339.75 61.07L349.8 66.67C350.1 66.4033 350.4 66.07 350.7 65.67L350.8 63.37C349.9 59.7367 349.483 56.12 349.55 52.52Z" fill="#B26C1E"/>
<path d="M137.3 41.12L127.25 39.62L122.55 31.67C120.117 29.27 117.883 29.27 115.85 31.67L111.5 39.27L101.5 41.07C99.1333 41.6033 98.05 43.0867 98.25 45.52C100.417 46.6867 102.25 47.8367 103.75 48.97C109.017 46.8367 114.717 45.6867 120.85 45.52C127.117 46.0867 131.833 47.32 135 49.22C136.267 48.2533 137.917 47.2867 139.95 46.32C140.55 43.5533 139.667 41.82 137.3 41.12ZM177.85 31.67C175.45 29.27 173.233 29.27 171.2 31.67L166.85 39.27L156.85 41.07C154.483 41.6033 153.4 43.0867 153.6 45.52C155.767 46.6867 157.583 47.8367 159.05 48.97C164.317 46.8367 170.033 45.6867 176.2 45.52C182.5 46.0867 187.217 47.32 190.35 49.22C191.583 48.2533 193.25 47.2867 195.35 46.32C195.95 43.5533 195.033 41.82 192.6 41.12L182.55 39.62L177.85 31.67ZM249.8 46.32C250.4 43.5533 249.5 41.82 247.1 41.12L237.05 39.62L232.35 31.67C229.917 29.27 227.7 29.27 225.7 31.67L221.3 39.27L211.3 41.07C208.967 41.6033 207.883 43.0867 208.05 45.52C210.217 46.6867 212.05 47.8367 213.55 48.97C218.817 46.8367 224.517 45.6867 230.65 45.52C236.95 46.0867 241.667 47.32 244.8 49.22C246.067 48.2533 247.733 47.2867 249.8 46.32ZM292.2 39.62L287.45 31.67C285.05 29.27 282.833 29.27 280.8 31.67L276.45 39.27L266.45 41.07C264.083 41.6033 263 43.0867 263.2 45.52C265.367 46.6867 267.183 47.8367 268.65 48.97C273.917 46.8367 279.633 45.6867 285.8 45.52C292.1 46.0867 296.817 47.32 299.95 49.22C301.183 48.2533 302.85 47.2867 304.95 46.32C305.55 43.5533 304.65 41.82 302.25 41.12L292.2 39.62ZM340.2 31.67C337.833 29.27 335.617 29.27 333.55 31.67L329.2 39.27L319.25 41.07C316.883 41.6033 315.8 43.0867 316 45.52C318.167 46.6867 319.967 47.8367 321.4 48.97C326.7 46.8367 332.417 45.6867 338.55 45.52C344.85 46.0867 349.567 47.32 352.7 49.22C353.933 48.2533 355.6 47.2867 357.7 46.32C358.3 43.5533 357.383 41.82 354.95 41.12L344.95 39.62L340.2 31.67Z" fill="#B26C1E"/>
<path d="M382.85 83.02C382.617 81.32 382.383 79.6867 382.15 78.12H163.45C123.283 77.92 95.8667 70.4867 81.2 55.82C77.8667 45.5533 73.4667 35.62 68 26.02L65.35 21.07L62.7 16.12H51.45C52.8167 17.3533 54.15 18.72 55.45 20.22C56.6167 21.5867 57.7667 23.07 58.9 24.67C67.1333 36.2367 74 53.6867 79.5 77.02L81.4 83.02H382.85Z" fill="#844F26"/>
<path d="M387.85 83.02C387.817 81.32 387.767 79.6867 387.7 78.12H382.15C382.383 79.6867 382.617 81.32 382.85 83.02H387.85Z" fill="#A25A4A"/>
<path d="M433.9 97.37C429 89.2033 422.15 84.42 413.35 83.02H387.85H382.85H81.4H47.6C37.9 84.5867 30.6 90.1867 25.7 99.82C28.3667 97.82 31.2333 96.07 34.3 94.57C41.4 91.2367 49.5167 89.4367 58.65 89.17H409.65C414.45 89.2367 419 92.1867 423.3 98.02C423.567 98.4533 423.867 98.87 424.2 99.27C424.9 100.337 425.6 101.52 426.3 102.82C426.567 103.187 426.817 103.587 427.05 104.02C428.083 105.987 429.15 108.187 430.25 110.62C430.417 111.02 430.617 111.453 430.85 111.92C431.95 114.587 433.033 117.487 434.1 120.62C434.267 121.12 434.433 121.637 434.6 122.17C435.1 123.67 435.567 125.22 436 126.82C436.2 127.287 436.367 127.787 436.5 128.32C436.733 129.053 436.967 129.82 437.2 130.62C437.3 131.02 437.433 131.453 437.6 131.92C438.233 134.22 438.867 136.67 439.5 139.27C439.6 139.67 439.717 140.12 439.85 140.62C440.383 142.853 440.933 145.203 441.5 147.67C441.533 147.937 441.617 148.253 441.75 148.62C442.117 150.387 442.5 152.203 442.9 154.07C442.933 154.47 443.033 154.887 443.2 155.32C443.267 155.987 443.4 156.67 443.6 157.37L448.95 182.62L447.05 154.27V154.22L442.7 132.82C442.7 132.587 442.7 132.337 442.7 132.07C442.667 131.67 442.633 131.27 442.6 130.87C442.5 130.003 442.417 129.17 442.35 128.37C442.317 127.903 442.267 127.42 442.2 126.92C442.067 125.287 441.9 123.703 441.7 122.17C441.6 121.637 441.517 121.12 441.45 120.62C441.05 117.787 440.55 115.153 439.95 112.72C439.783 112.287 439.667 111.82 439.6 111.32C438.867 108.587 438.033 106.053 437.1 103.72C436.867 103.287 436.667 102.87 436.5 102.47C435.9 101.07 435.267 99.77 434.6 98.57C434.333 98.17 434.1 97.77 433.9 97.37Z" fill="#F6CA79"/>
</svg>
