
<svg xmlns="http://www.w3.org/2000/svg" version="1.1" xmlns:xlink="http://www.w3.org/1999/xlink" preserveAspectRatio="none" x="0px" y="0px" width="1300px" height="1980px" viewBox="0 0 1300 1980">
<defs>
<g id="Layer0_0_FILL">
<path fill="#BF8E49" stroke="none" d="
M 269.4 1852.25
L 266.85 1835.7 154.2 1821.4 206.95 1847.9 250.75 1869.85 269.3 1909.3 282.7 1937.95 278.25 1909.3 269.4 1852.25
M 205.55 1880.95
L 164.4 1880.95 174.4 1899 205.55 1880.95
M 497.75 1909.7
L 514.95 1895.05 598.3 1879.95 501.85 1879.95 487.7 1909.7 480.8 1924.15 497.75 1909.7
M 385.1 1872
L 477.85 1862.8 558.15 1854.85 733.95 1842.8 546.1 1842.8 443.2 1861.45 385.1 1872
M 446.7 1942.95
L 423.25 1909.6 430.5 1943.55
Q 438.6 1943.2 446.7 1942.95
M 338.15 1892.05
L 349.1 1909.45 372.35 1946.25
Q 386.35 1945.5 400.35 1944.9
L 358.8 1909.45 338.15 1892.05
M 834.5 1817.1
L 878.6 1843.8 922.85 1831.75 834.5 1817.1
M 803.25 1881.95
L 795.1 1910.25 786.25 1940.5 810.6 1910.25 820.35 1898.05 999.7 1885.75 803.25 1881.95
M 1205.05 1837.7
Q 1200.1 1827.8 1192.75 1818
L 1124.85 1833.95 1205.05 1837.7
M 998.15 1863.65
L 998.2 1863.65 1022.3 1828.75 998.15 1828.75 998.15 1863.65
M 1116.45 1858.7
L 1078.5 1815.65 1102.35 1859.4 1115.7 1883.95 1086.5 1910.75 1068.5 1927.2 1094.35 1910.75 1137.8 1882.95 1116.45 1858.7
M 1023.3 1882.95
L 1092.6 1882.95 1049.85 1871.8 1023.3 1882.95
M 215.05 60.05
L 211.25 50.35 197.5 60.05 215.05 60.05
M 165.85 25.9
L 171.9 48.05 183.95 92.1 183.95 48.8 183.95 34.4 228.6 34.4 165.85 25.9
M 698.55 93.65
L 714.85 75.65 680.7 93.35 541.65 87.05 580.65 92.95 684.75 108.8 698.55 93.65
M 841 83.6
L 813.65 96.85 793.25 106.75 847.15 98.3 841 83.6
M 1110.25 94.7
L 1116.75 62.05 1098.15 94.7
Q 1095.1 99.8 1093.6 102.95 1088.8 113.55 1102.9 101.35 1106.1 98.6 1110.25 94.7
M 1078.6 28.4
L 1078.6 39.35 1078.6 96.7 1088.25 37.75
Q 1088.3 37.75 1088.4 37.75
L 1123.8 24.4 1078.6 28.4
M 165.55 112.3
L 176.55 120.8 222.3 115.85 165.55 112.3
M 215.05 83.4
L 239.65 83.4 239.65 62.55 215.05 70.6 215.05 83.4
M 249.95 79.65
L 246.2 92.7 267.5 85.95 249.95 79.65
M 652.1 81.6
L 680.2 72.1 622.95 72.1 652.1 81.6
M 1110.75 41
L 1091.6 62.05 1104.2 62.05 1110.75 41 Z"/>

<path fill="#381D13" stroke="none" d="
M 10.7 1892.05
Q 14.2 1904.25 22.25 1916.4
L 108.6 1909
Q 106.15 1902 104.8 1895.05
L 148.65 1885.1 102.9 1877.1 8.05 1870.7
Q 7.8 1877.3 8.9 1883.9
L 84.05 1883.9 10.7 1892.05
M 12.8 1847.9
Q 11.7 1850.75 10.85 1853.6
L 61.95 1853.85 12.8 1847.9
M 1209.55 1908.75
Q 1209.15 1909.85 1208.75 1910.95
L 1272.6 1916.4
Q 1290.55 1894.3 1290.8 1872.9
L 1214.9 1880.35
Q 1214.75 1885.55 1214 1890.8
L 1169.85 1903.6 1209.55 1908.75
M 1290.3 1865.3
Q 1289.15 1857 1285.35 1848.75
L 1242.9 1859.45 1290.3 1865.3
M 142.75 39.15
Q 141.9 33.7 141.9 29.15 137.65 84.95 98.55 88.4 112.6 112.55 147.8 119.5 143.7 103.05 142.2 86.95 140.25 66.75 142.3 47.15
L 157.3 47.15 142.75 39.15
M 1167 54.15
Q 1167.95 68.45 1167 82.25 1165.7 100.85 1161 118.6 1192.75 111.05 1205.9 88.4 1176.8 85.85 1167 54.15 Z"/>

<path fill="#DCAE6E" stroke="none" d="
M 104.05 1861.9
Q 102.8 1869.4 102.9 1877.1
L 148.65 1885.1 104.8 1895.05
Q 106.15 1902 108.6 1909
L 269.3 1909.3 250.75 1869.85 206.95 1847.9
Q 200.95 1847.45 195 1847 152.75 1843.85 110.5 1840.2 108.6 1844.5 107.25 1848.8
L 123.75 1855.45 104.05 1861.9
M 164.4 1880.95
L 205.55 1880.95 174.4 1899 164.4 1880.95
M 1214.9 1880.35
Q 1215.2 1866.75 1211.25 1853.4 1163.85 1856.35 1116.45 1858.7
L 1137.8 1882.95 1094.35 1910.75 1208.75 1910.95
Q 1209.15 1909.85 1209.55 1908.75
L 1169.85 1903.6 1214 1890.8
Q 1214.75 1885.55 1214.9 1880.35
M 1087.85 1860.1
Q 1082.1 1860.35 1076.3 1860.6 1037.25 1862.3 998.2 1863.65
L 998.15 1863.65
Q 938.6 1865.6 879 1866.65 853.5 1867.1 828.05 1867.45 682.4 1868.95 536.85 1864.75 507.3 1863.9 477.85 1862.8
L 385.1 1872 443.2 1861.45
Q 420.25 1860.5 397.35 1859.4 333.35 1856.35 269.4 1852.25
L 278.25 1909.3 349.1 1909.45 338.15 1892.05 358.8 1909.45 487.7 1909.7 501.85 1879.95 598.3 1879.95 514.95 1895.05 497.75 1909.7 795.1 1910.25 803.25 1881.95 999.7 1885.75 820.35 1898.05 810.6 1910.25 1086.5 1910.75 1115.7 1883.95 1102.35 1859.4
Q 1095.1 1859.75 1087.85 1860.1
M 1092.6 1882.95
L 1023.3 1882.95 1049.85 1871.8 1092.6 1882.95
M 1165.45 38.7
Q 1164.65 28.7 1161.2 22.05 1124 31.7 1088.4 37.75 1088.3 37.75 1088.25 37.75
L 1078.6 96.7 1078.6 39.35
Q 1036.85 45.8 997.15 47.15 605.9 72.25 211.25 50.35
L 215.05 60.05 197.5 60.05 211.25 50.35
Q 197.6 49.6 183.95 48.8
L 183.95 92.1 171.9 48.05
Q 164.65 47.6 157.3 47.15
L 142.3 47.15
Q 140.25 66.75 142.2 86.95 181.95 109.45 232.65 106.45 407.05 93.95 580.65 92.95
L 541.65 87.05 680.7 93.35 714.85 75.65 698.55 93.65
Q 756.1 94.6 813.65 96.85
L 841 83.6 847.15 98.3
Q 916.2 101.4 985.15 106.45 1044.25 110.8 1093.6 102.95 1095.1 99.8 1098.15 94.7
L 1116.75 62.05 1110.25 94.7
Q 1106.1 98.6 1102.9 101.35 1137.5 94.9 1167 82.25 1167.95 68.45 1167 54.15 1166.5 46.5 1165.45 38.7
M 1091.6 62.05
L 1110.75 41 1104.2 62.05 1091.6 62.05
M 680.2 72.1
L 652.1 81.6 622.95 72.1 680.2 72.1
M 246.2 92.7
L 249.95 79.65 267.5 85.95 246.2 92.7
M 239.65 83.4
L 215.05 83.4 215.05 70.6 239.65 62.55 239.65 83.4 Z"/>

<path fill="#713B2A" stroke="none" d="
M 102.9 1877.1
Q 102.8 1869.4 104.05 1861.9
L 123.75 1855.45 107.25 1848.8
Q 108.6 1844.5 110.5 1840.2
L 22.25 1829.75
Q 16.25 1838.8 12.8 1847.9
L 61.95 1853.85 10.85 1853.6
Q 8.35 1862.15 8.05 1870.7
L 102.9 1877.1
M 1290.8 1872.9
Q 1290.8 1869.1 1290.3 1865.3
L 1242.9 1859.45 1285.35 1848.75
Q 1280.8 1839.2 1272.6 1829.75
L 1205.05 1837.7
Q 1208.9 1845.5 1211.25 1853.4 1215.2 1866.75 1214.9 1880.35
L 1290.8 1872.9
M 141.9 29.15
Q 141.85 25.55 142.4 22.55 116.85 23.5 98.55 44.2
L 98.55 49.2 98.55 88.4
Q 137.65 84.95 141.9 29.15
M 1205.9 49.2
L 1205.9 44.2
Q 1187.6 23.5 1161.2 22.05 1164.65 28.7 1165.45 38.7 1166.5 46.5 1167 54.15 1176.8 85.85 1205.9 88.4
L 1205.9 49.2 Z"/>

<path fill="#C29A61" stroke="none" d="
M 366.9 1946.5
Q 369.6 1946.35 372.35 1946.25
L 349.1 1909.45 278.25 1909.3 282.7 1937.95 269.3 1909.3 108.6 1909
Q 117.04296875 1933.3546875 137.7 1959 139.317578125 1960.9962890625 141 1963 163.33984375 1960.909765625 185.7 1959 276.1689453125 1951.27109375 366.9 1946.5
M 786.25 1940.5
L 795.1 1910.25 497.75 1909.7 480.8 1924.15 487.7 1909.7 358.8 1909.45 400.35 1944.9
Q 412.85 1944.3 425.4 1943.75 427.95 1943.65 430.5 1943.55
L 423.25 1909.6 446.7 1942.95
Q 616.1 1936.55 786.25 1940.5
M 1068.5 1927.2
L 1086.5 1910.75 810.6 1910.25 786.25 1940.5
Q 957.49296875 1944.47734375 1129.45 1959 1152.0826171875 1960.908984375 1174.7 1963 1176.5541015625 1960.9978515625 1178.3 1959 1199.878125 1934.6548828125 1208.75 1910.95
L 1094.35 1910.75 1068.5 1927.2
M 1139.8 132.6
Q 1154.3 134.8 1158.95 125.55 1160.05 122.1 1161 118.6 1165.7 100.85 1167 82.25 1137.5 94.9 1102.9 101.35 1088.8 113.55 1093.6 102.95 1044.25 110.8 985.15 106.45 916.2 101.4 847.15 98.3
L 793.25 106.75 813.65 96.85
Q 756.1 94.6 698.55 93.65
L 684.75 108.8 580.65 92.95
Q 407.05 93.95 232.65 106.45 181.95 109.45 142.2 86.95 143.7 103.05 147.8 119.5 151.6 149.35 190.8 148.9 198.3 148.85 207.05 147.6
L 253.75 113.95 307.55 142.6
Q 394 139.15 480.35 136.7
L 507.2 105.65 502.45 136.1
Q 808.25 127.85 1112 132.2 1125.95 132.35 1139.8 132.6
M 176.55 120.8
L 165.55 112.3 222.3 115.85 176.55 120.8 Z"/>

<path fill="#A17F50" stroke="none" d="
M 1109.7 1802.85
Q 1108.05 1787.05 1106.5 1771.25 653.35 1812.15 194 1779 192.85 1790.35 191.75 1801.7 515.5 1826.25 834.45 1817.1
L 834.5 1817.1
Q 972.55 1813.15 1109.7 1802.85
M 1109.2 160.05
Q 1110.6 146.1 1112 132.2 808.25 127.85 502.45 136.1
L 507.2 105.65 480.35 136.7
Q 394 139.15 307.55 142.6
L 253.75 113.95 207.05 147.6
Q 198.3 148.85 190.8 148.9 191.45 155.3 192.2 161.7
L 213.25 161.7 255.35 127.15 314.35 157.25
Q 749.6 134.35 1109.2 160.05 Z"/>

<path fill="#FBE6B0" stroke="none" d="
M 1076.3 1860.6
Q 1082.1 1860.35 1087.85 1860.1 1095.1 1859.75 1102.35 1859.4
L 1078.5 1815.65 1116.45 1858.7
Q 1163.85 1856.35 1211.25 1853.4 1208.9 1845.5 1205.05 1837.7
L 1124.85 1833.95 1192.75 1818
Q 1189.1 1813.2 1184.95 1808.4 1180.2 1803 1174.7 1797.65 1142.2 1800.45 1109.7 1802.85 972.55 1813.15 834.5 1817.1
L 922.85 1831.75 878.6 1843.8 834.5 1817.1 834.45 1817.1
Q 515.5 1826.25 191.75 1801.7 166.4 1799.75 141 1797.65 119.9 1818.3 110.5 1840.2 152.75 1843.85 195 1847 200.95 1847.45 206.95 1847.9
L 154.2 1821.4 266.85 1835.7 269.4 1852.25
Q 333.35 1856.35 397.35 1859.4 420.25 1860.5 443.2 1861.45
L 546.1 1842.8 733.95 1842.8 558.15 1854.85 477.85 1862.8
Q 507.3 1863.9 536.85 1864.75 682.4 1868.95 828.05 1867.45 853.5 1867.1 879 1866.65 938.6 1865.6 998.15 1863.65
L 998.15 1828.75 1022.3 1828.75 998.2 1863.65
Q 1037.25 1862.3 1076.3 1860.6
M 1078.6 39.35
L 1078.6 28.4 1123.8 24.4 1088.4 37.75
Q 1124 31.7 1161.2 22.05 1153.5 7.3 1132.8 9 958 22.55 783.2 26.1 478.6 37.1 173.9 6.95 145.9 1.9 142.4 22.55 141.85 25.55 141.9 29.15 141.9 33.7 142.75 39.15
L 157.3 47.15
Q 164.65 47.6 171.9 48.05
L 165.85 25.9 228.6 34.4 183.95 34.4 183.95 48.8
Q 197.6 49.6 211.25 50.35 605.9 72.25 997.15 47.15 1036.85 45.8 1078.6 39.35 Z"/>

<path fill="#D0AD6E" stroke="none" d="
M 1058.45 1274.2
L 1072.75 1270.1
Q 1072.5 1263.1 1072.25 1256.05
L 1049.45 1256.05 1033.35 1384.7 1058.45 1274.2
M 1069.9 1174.95
Q 1069.7 1167.7 1069.55 1160.45
L 1026.2 1150 1069.9 1174.95
M 1045.35 909.5
L 1034.35 941.65 1057.4 941.65 1067.8 915.6 1045.35 909.5
M 1068.1 888.4
Q 1068.15 881.9 1068.25 875.4
L 1033.35 881.35 1068.1 888.4
M 267 1073.75
L 233.3 1088.25
Q 233.2 1094 233.15 1099.8
L 267 1073.75
M 231.7 1172.4
Q 231.55 1178.65 231.4 1184.85
L 270.25 1170.85 231.7 1172.4
M 248.75 536.5
L 248.75 576.95 261.15 522.75 248.75 450.35 248.75 536.5
M 242.95 311.35
L 206.85 318.65
Q 207.1 322.75 207.5 326.9
L 242.95 311.35
M 1071 744.7
Q 1071.2 736.65 1071.45 728.65
L 1049.5 680.5 1071 744.7
M 1075.45 622.25
Q 1075.75 615.1 1076.15 607.95
L 1028.35 607.95 1075.45 622.25
M 1083.35 475.35
L 1056.45 475.35 1056.45 508.6 1082.1 495.3
Q 1082.7 485.35 1083.35 475.35
M 847.25 201.4
L 804.65 194.1 798.75 207.2 847.25 201.4
M 784.2 159
L 765.1 165.05 722.9 194.15 789.2 173.05 871.05 187.55 947.9 201.2 890.05 186.3 784.2 159
M 1089.25 388.4
L 1034.35 315.7 1078.3 388.4 1088.05 404.55
Q 1088.6 396.45 1089.25 388.4
M 1093.15 336.55
L 1066.35 325.8 1092.45 346.1
Q 1092.8 341.35 1093.15 336.55
M 1038.35 355.9
L 1048.75 388.4 1061.5 428.2 1063.5 388.4 1038.35 355.9
M 1098.1 277.8
Q 1098.35 274.55 1098.65 271.35
L 1075.15 255.15 1098.1 277.8
M 1007.7 198.2
L 999.15 208.2 1020.75 208.2 1007.7 198.2
M 1050.4 228.8
L 1038.85 218.75 1038.85 248.4 1050.4 228.8
M 1090.6 195.9
L 1037.35 195.9 1067.6 209.1 1055.45 253.4 1090.6 195.9
M 210.9 241.7
Q 221.1 253.15 236.95 255.05 248.6 256.45 263.3 252.7
L 210.9 241.7
M 253.6 229.8
L 256.3 216.05 238.7 220.5 253.6 229.8
M 274.75 211.1
L 278.4 222.45 348.15 207.25 274.75 211.1
M 602.9 199.2
Q 613.15 204.75 623.7 206.9 647 211.6 671.2 199.2
L 602.9 199.2
M 500.9 194.6
L 499.9 183.65 650.6 168.05 223.65 181.1 248.55 194.6 500.9 194.6 Z"/>

<path fill="#FBE8A9" stroke="none" d="
M 941.5 1512.7
L 932.5 1519.85
Q 921 1528.9 909.45 1537.2 894.65 1547.85 879.2 1557.6 845.25 1579.05 808.15 1596.25 687.5 1652.4 518.3 1669.9 446.35 1677.3 363.35 1678.1 361.55 1678.1 359.75 1678.15 355.95 1678.15 352.15 1678.2 351.85 1678.2 351.7 1678.2 351 1678.15 350.3 1678.2 343.6 1678.2 336.85 1678.2 285.6 1678.05 230.3 1675.4 217.15 1674.8 203.8 1674.05 201.25 1703.2 198.55 1732.4 197.75 1740.65 196.95 1748.95 195.5 1763.95 194 1779 653.35 1812.15 1106.5 1771.25 1103.25 1738.6 1100.3 1705.95 1099.55 1697.7 1098.85 1689.5 1097.55 1675.1 1096.35 1660.7 1095.6 1651.65 1094.85 1642.55 1093.2 1623.2 1091.7 1603.8 1090.95 1593.75 1090.25 1583.7 1082.25 1478.05 1077.15 1372.4 1066.45 1385.45 1062 1390.7 1024.1 1435.65 991.55 1467.65 966.8 1491.95 941.5 1512.7
M 1106.6 185.4
Q 1044.8 182.8 989.05 183.15 936.95 183.45 890.05 186.3
L 947.9 201.2 871.05 187.55
Q 843.35 189.6 817.55 192.55 811.05 193.3 804.65 194.1
L 847.25 201.4 798.75 207.2 804.65 194.1
Q 718.65 204.95 648.55 227 645.35 228 642.25 229 575.2 250.75 518.25 284.5 467.95 314.35 419.35 357.45 402.7 372.2 383.9 390.75 382.5 392.1 381.1 393.55 358.2 416.25 332.2 444.5 308 470.75 261.15 522.75
L 248.75 576.95 248.75 536.5
Q 246.05 539.5 243.3 542.55 241.6 544.45 239.95 546.2 231.55 555.3 223.35 564.05 235.3 793.5 233.95 1024 233.9 1033 233.85 1042.05 233.8 1047.25 233.75 1052.45 233.65 1058.3 233.6 1064.1
L 267 1073.75 233.15 1099.8
Q 232.7 1128.5 232.05 1157.25
L 270.25 1170.85 231.4 1184.85
Q 230 1237.45 227.95 1290.1 226.4 1329.5 224.45 1369 222.1 1418.45 219 1468 253.25 1464.8 303.95 1460.9 391.1 1454.1 429.6 1449 491.35 1440.8 515 1428.5 556.75 1406.55 596.25 1368.5 635.6 1330.55 667.8 1281.4 700.8 1231 722.3 1174.75 723.3 1172.15 724.3 1169.5 745.25 1113.1 752.55 1056.1 755.3 1034.6 757.95 1014.6 758.1 1013.05 758.35 1011.5 768.75 932.75 777.35 876.15 782.95 839.65 787.75 812.4 808.7 694.35 835.7 617.8 864.35 536.75 905.8 484 909.2 479.6 912.7 475.45 962.15 416.65 1035.05 388.4
L 1048.75 388.4 1038.35 355.9 1063.5 388.4 1078.3 388.4 1034.35 315.7 1089.25 388.4
Q 1090.8 367.25 1092.45 346.1
L 1066.35 325.8 1094.95 315.2
Q 1096.45 296.5 1098.1 277.8
L 1075.15 255.15 1101.25 242.4
Q 1103.8 213.9 1106.6 185.4
M 1037.35 195.9
L 1090.6 195.9 1055.45 253.4 1067.6 209.1 1037.35 195.9
M 1038.85 218.75
L 1050.4 228.8 1038.85 248.4 1038.85 218.75
M 999.15 208.2
L 1007.7 198.2 1020.75 208.2 999.15 208.2 Z"/>

<path fill="#B05119" stroke="none" d="
M 98.55 88.4
L 98.55 49.2
Q 86.75 78.75 44.45 77.9 47.8 85.5 55.85 92.4 80.7 83.35 98.55 88.4
M 94 43.6
Q 92.7 43.45 91.45 43.35 90.55 43.25 89.65 43.2 83.75 42.75 77.95 42.95 76.55 43 75.15 43.1
L 75.15 52.85
Q 76.65 57.7 83.3 58.35 89.45 58.15 93.05 52.85
L 94 43.6
M 1248.7 92.4
Q 1256.7 85.5 1260.05 77.9 1217.8 78.75 1205.9 49.2
L 1205.9 88.4
Q 1223.8 83.35 1248.7 92.4
M 1234.2 43.5
Q 1224.95 42.45 1215.15 43.2
L 1216.3 52.85
Q 1219.95 58.15 1226.05 58.35 1232.7 57.7 1234.2 52.85
L 1234.2 43.5 Z"/>

<path fill="#FAB43D" stroke="none" d="
M 98.55 44.2
Q 96.25 43.85 94 43.6
L 93.05 52.85
Q 89.45 58.15 83.3 58.35 76.65 57.7 75.15 52.85
L 75.15 43.1
Q 75.05 43.1 74.95 43.1 60.25 44 46.85 49.2 38.55 64.6 44.45 77.9 86.75 78.75 98.55 49.2
L 98.55 44.2
M 1226.05 58.35
Q 1219.95 58.15 1216.3 52.85
L 1215.15 43.2
Q 1210.55 43.5 1205.9 44.2
L 1205.9 49.2
Q 1217.8 78.75 1260.05 77.9 1266 64.6 1257.7 49.2 1246.4 44.85 1234.2 43.5
L 1234.2 52.85
Q 1232.7 57.7 1226.05 58.35 Z"/>

<path fill="#E8CF92" stroke="none" d="
M 1048.75 388.4
L 1035.05 388.4
Q 962.15 416.65 912.7 475.45 909.2 479.6 905.8 484 864.35 536.75 835.7 617.8 808.7 694.35 787.75 812.4 782.95 839.65 777.35 876.15 768.75 932.75 758.35 1011.5 758.1 1013.05 757.95 1014.6 755.3 1034.6 752.55 1056.1 745.25 1113.1 724.3 1169.5 723.3 1172.15 722.3 1174.75 700.8 1231 667.8 1281.4 635.6 1330.55 596.25 1368.5 556.75 1406.55 515 1428.5 491.35 1440.8 429.6 1449 391.1 1454.1 303.95 1460.9 253.25 1464.8 219 1468 215.1 1531.65 210.2 1595.45 207.15 1634.7 203.8 1674.05 217.15 1674.8 230.3 1675.4 285.6 1678.05 336.85 1678.2 343.6 1678.2 350.3 1678.2 351 1678.15 351.7 1678.2 351.85 1678.2 352.15 1678.2 355.95 1678.15 359.75 1678.15 361.55 1678.1 363.35 1678.1 446.35 1677.3 518.3 1669.9 687.5 1652.4 808.15 1596.25 845.25 1579.05 879.2 1557.6 894.65 1547.85 909.45 1537.2 921 1528.9 932.5 1519.85
L 941.5 1512.7
Q 966.8 1491.95 991.55 1467.65 1024.1 1435.65 1062 1390.7 1066.45 1385.45 1077.15 1372.4 1075.45 1339.3 1074.15 1306.2 1073.4 1288.2 1072.75 1270.1
L 1058.45 1274.2 1033.35 1384.7 1049.45 1256.05 1072.25 1256.05
Q 1070.85 1215.5 1069.9 1174.95
L 1026.2 1150 1069.05 1134.8
Q 1068.15 1089.3 1067.8 1043.8 1067.65 1021.5 1067.6 999.2 1067.55 992 1067.55 984.85 1067.5 950.2 1067.8 915.6
L 1057.4 941.65 1034.35 941.65 1045.35 909.5 1067.8 915.6
Q 1067.9 902 1068.1 888.4
L 1033.35 881.35 1068.25 875.4
Q 1069.05 810.05 1071 744.7
L 1049.5 680.5 1073.85 660.55
Q 1074.1 653.8 1074.4 647.1 1074.9 634.65 1075.45 622.25
L 1028.35 607.95 1076.15 607.95
Q 1076.55 599.5 1076.9 591.1 1077.3 583.9 1077.65 576.7 1079.65 536.05 1082.1 495.3
L 1056.45 508.6 1056.45 475.35 1083.35 475.35
Q 1085.55 439.95 1088.05 404.55
L 1078.3 388.4 1063.5 388.4 1061.5 428.2 1048.75 388.4
M 1106.6 185.4
Q 1107.85 172.7 1109.2 160.05 749.6 134.35 314.35 157.25
L 255.35 127.15 213.25 161.7 192.2 161.7
Q 199 228.1 204.8 294.6
L 242.95 311.35 207.5 326.9
Q 217.2 445.3 223.35 564.05 231.55 555.3 239.95 546.2 241.6 544.45 243.3 542.55 246.05 539.5 248.75 536.5
L 248.75 450.35 261.15 522.75
Q 308 470.75 332.2 444.5 358.2 416.25 381.1 393.55 382.5 392.1 383.9 390.75 402.7 372.2 419.35 357.45 467.95 314.35 518.25 284.5 575.2 250.75 642.25 229 645.35 228 648.55 227 718.65 204.95 804.65 194.1 811.05 193.3 817.55 192.55 843.35 189.6 871.05 187.55
L 789.2 173.05 722.9 194.15 765.1 165.05 784.2 159 890.05 186.3
Q 936.95 183.45 989.05 183.15 1044.8 182.8 1106.6 185.4
M 499.9 183.65
L 500.9 194.6 248.55 194.6 223.65 181.1 650.6 168.05 499.9 183.65
M 623.7 206.9
Q 613.15 204.75 602.9 199.2
L 671.2 199.2
Q 647 211.6 623.7 206.9
M 278.4 222.45
L 274.75 211.1 348.15 207.25 278.4 222.45
M 256.3 216.05
L 253.6 229.8 238.7 220.5 256.3 216.05
M 236.95 255.05
Q 221.1 253.15 210.9 241.7
L 263.3 252.7
Q 248.6 256.45 236.95 255.05 Z"/>
</g>
</defs>

<g transform="matrix( 1, 0, 0, 1, 0,0) ">
<use xlink:href="#Layer0_0_FILL"/>
</g>
</svg>
