
<svg xmlns="http://www.w3.org/2000/svg" version="1.1" xmlns:xlink="http://www.w3.org/1999/xlink" preserveAspectRatio="none" x="0px" y="0px" width="335px" height="525px" viewBox="0 0 335 525">
<defs>
<g id="_______2_______________0_Layer0_0_FILL">
<path fill="#FDA1B1" stroke="none" d="
M 129.95 217.5
Q 146.25 219.55 134.45 208.45 124.55 202.3 112.4 198.6 105.05 196.35 96.9 195.1 144.45 212 129.95 217.5
M 123.05 181.05
Q 131.35 179 131.55 175.5 132.1 166.1 77.35 172.85 138.25 170.45 123.05 181.05
M 107 183.3
Q 99.95 183 91.7 182.95 159.5 190.05 141.7 198.65 149.25 197.45 149.85 194.35 149.8 184.95 107 183.3
M 65.2 83.85
Q 65.8 68.95 66.7 53.9 62.6 68.2 60.8 84.9 56.55 123.3 64.3 174.55 63.35 130 65.2 83.85 Z"/>

<path fill="#AB4253" stroke="none" d="
M 37.5 196.3
Q 2.7 195.85 21.9 184.75 -20 197.3 18.25 199.45 72.3 200.95 118.8 215.45 119.65 215.6 120.4 215.75
L 90.45 205.45
Q 67.7 197.55 37.5 196.3
M 69.55 13.95
Q 67.75 2.15 54.35 0.6 41.35 -2.65 35.05 11.9 34.15 34.2 34.1 56.45 34.05 73.85 34.55 91.2
L 60.8 84.9
Q 62.6 68.2 66.7 53.9 66.7 53.75 66.75 53.65 67 48.65 67.4 43.65 68.35 28.85 69.55 13.95 Z"/>

<path fill="#FD706F" stroke="none" d="
M 60.8 84.9
L 34.55 91.2
Q 35.7 135.7 40.2 179.75 29.65 182.4 21.9 184.75 2.7 195.85 37.5 196.3 67.7 197.55 90.45 205.45
L 120.4 215.75
Q 126 217 129.95 217.5 144.45 212 96.9 195.1 105.05 196.35 112.4 198.6 132.4 200.1 141.7 198.65 159.5 190.05 91.7 182.95 99.95 183 107 183.3 117 182.55 123.05 181.05 138.25 170.45 77.35 172.85 71.2 173.6 64.3 174.55 56.55 123.3 60.8 84.9 Z"/>
</g>

<g id="_______2_______________________2_Layer1_0_FILL">
<path fill="#2C3650" stroke="none" d="
M 77.7 142.7
Q 47.26640625 130.9607421875 16.35 110.55 20.0578125 134.5158203125 36.2 154.65 118.1498046875 190.8578125 182.95 158.8 157.8765625 150.870703125 155.3 132.1 148.4376953125 139.8626953125 143.3 144.05 133 152.4 122.3 152.4 102.75 152.4 77.7 142.7 Z"/>

<path fill="#9FADBD" stroke="none" d="
M 158.9 75.7
L 161.9 67.9
Q 109.5525390625 79.3974609375 50.1 52.2
L 40.5 57.05
Q 84.1845703125 68.76875 113.65 74.85 136.8505859375 79.6423828125 158.9 75.7 Z"/>

<path fill="#334157" stroke="none" d="
M 106.4 92.1
Q 106.4 87.2 108.75 81.9 110.761328125 77.364453125 113.65 74.85 84.1845703125 68.76875 40.5 57.05 20.0388671875 67.4439453125 16.35 90.1 14.9896484375 101.7830078125 16.35 110.55 47.26640625 130.9607421875 77.7 142.7 102.75 152.4 122.3 152.4 133 152.4 143.3 144.05 148.4376953125 139.8626953125 155.3 132.1
L 155.3 132.05
Q 152.39609375 118.638671875 154.45 102.1
L 154.4 102.1
Q 148.0005859375 104.4298828125 145.3 105.15 138.5 107 128.9 107 117.25 107 112.05 103.8 106.4 100.35 106.4 92.1 Z"/>

<path fill="#40526D" stroke="none" d="
M 108.75 81.9
Q 106.4 87.2 106.4 92.1 106.4 100.35 112.05 103.8 117.25 107 128.9 107 138.5 107 145.3 105.15 148.0005859375 104.4298828125 154.4 102.1 154.302734375 88.9125 158.9 75.7 136.8505859375 79.6423828125 113.65 74.85 110.761328125 77.364453125 108.75 81.9 Z"/>

<path fill="#606D9A" stroke="none" d="
M 200.9 133.65
Q 200.9 131.9 201.45 130.05 197.85 132.15 195.75 135.9 191.85 142.85 195.65 151.35 196.8 153.95 198.4 156.25 202.15 161.45 208.5 165 217.65 170.15 226.9 168.8 236.1 167.55 239.95 160.6 241.5 157.9 241.85 154.95 226.8 154.9 216.1 150.75 201.05 144.9 200.9 133.65
M 221.05 94.3
Q 221.3 94.05 221.6 93.85 221 94.1 220.45 94.3 213.25 97.25 210.6 106.85 207.45 119 215.15 127.45 217.5 130.05 220.95 132.3 229.05 138.15 237.35 140.05 245.9 142.05 254.7 139.6 264 136.5 266.75 127.65 268.25 124 268.35 119.95 267.85 120.15 267.4 120.35 261 123.45 251.3 123.55 233.6 123.8 224.4 116.65 216.85 110.75 216.7 101.75 216.65 97.7 218.9 95.95 219.65 95.4 221.05 94.3
M 280 81.05
Q 276.85 84.35 271.55 87.05 263.5 91.1 257.15 91.2 246.55 91.35 240.6 87.65 234 83.6 233.85 75.2
L 234.15 70.2
Q 229.05 74.45 227.65 80.2 226.7 83.3 226.9 86.15 227.1 89.85 229.2 93 233.95 100.15 248.25 104.6 257.9 107.25 265 106.2 272.05 105.15 276.55 100.45 284.85 90.85 280 81.05 Z"/>

<path fill="#849EAA" stroke="none" d="
M 215.15 127.45
Q 212 127.15 208.9 127.6 204.6 128.2 201.45 130.05 200.9 131.9 200.9 133.65 201.05 144.9 216.1 150.75 226.8 154.9 241.85 154.95 242.45 150.35 240.15 145.1 239.05 142.4 237.35 140.05 229.05 138.15 220.95 132.3 217.5 130.05 215.15 127.45
M 221.6 93.85
Q 221.3 94.05 221.05 94.3 219.65 95.4 218.9 95.95 216.65 97.7 216.7 101.75 216.85 110.75 224.4 116.65 233.6 123.8 251.3 123.55 261 123.45 267.4 120.35 267.85 120.15 268.35 119.95 268.45 113.5 265 106.2 257.9 107.25 248.25 104.6 233.95 100.15 229.2 93 227.9 92.95 226.7 93 223.95 93.15 221.6 93.85
M 273.1 72.25
Q 272.505859375 71.71953125 271.85 71.15 269.2384765625 68.8599609375 265.9 66.55 259.3 62.95 252.6 63.05 244.25 63.1 235.7 68.95 234.9 69.55 234.15 70.2
L 233.85 75.2
Q 234 83.6 240.6 87.65 246.55 91.35 257.15 91.2 263.5 91.1 271.55 87.05 276.85 84.35 280 81.05 277.84453125 76.678125 273.1 72.25
M 269.05 63.55
Q 271.1880859375 64.902734375 273.05 66.5 273.3404296875 64.457421875 273.2 62.3 274.2138671875 56.0712890625 272.05 50.9 238.4197265625 17.8609375 167.7 66.5
L 167.7 66.55
Q 167.654296875 66.5677734375 167.6 66.55 167.499609375 66.5826171875 167.4 66.6 167.37734375 66.596484375 167.35 66.6 164.0095703125 71.7 164.7 74.5 184.252734375 81.348046875 200.45 76.7 213.030078125 79.7587890625 232.05 69.3
L 237.3 64.95
Q 237.312109375 64.940234375 237.3 64.9 240.611328125 62.325390625 244.3 60.9 248.559765625 59.2564453125 253.35 59.15 261.85 58.95 269.05 63.55 Z"/>

<path fill="#1C2233" stroke="none" d="
M 164.7 74.5
Q 164.0095703125 71.7 167.35 66.6 164.6357421875 67.323828125 161.9 67.9
L 158.9 75.7
Q 154.302734375 88.9125 154.4 102.1
L 154.45 102.1
Q 152.39609375 118.638671875 155.3 132.05
L 155.3 132.1
Q 157.8765625 150.870703125 182.95 158.8 187.2537109375 156.706640625 191.45 154.3 163.9703125 153.881640625 159.7 126.85 157.985546875 115.7265625 159.85 100.1 161.291796875 88.5390625 164.7 74.5 Z"/>

<path fill="#516082" stroke="none" d="
M 200.45 76.7
Q 184.252734375 81.348046875 164.7 74.5 161.291796875 88.5390625 159.85 100.1 157.985546875 115.7265625 159.7 126.85 163.9703125 153.881640625 191.45 154.3 194.324609375 155.7869140625 198.4 156.25 196.8 153.95 195.65 151.35 191.85 142.85 195.75 135.9 197.85 132.15 201.45 130.05 204.6 128.2 208.9 127.6 212 127.15 215.15 127.45 207.45 119 210.6 106.85 213.25 97.25 220.45 94.3 221 94.1 221.6 93.85 223.95 93.15 226.7 93 227.9 92.95 229.2 93 227.1 89.85 226.9 86.15 195.25 103.35 180 102.8 210.2 92.7 225.15 77.7 229.1255859375 73.6865234375 232.05 69.3 213.030078125 79.7587890625 200.45 76.7 Z"/>

<path fill="#C5DAE6" stroke="none" d="
M 272.05 50.9
Q 270.4595703125 47.2044921875 267.2 44.05 255.1166015625 32.344140625 238.4 31.35 237.432421875 31.3208984375 236.45 31.3 191.73203125 35.573828125 167.75 66.35 167.733984375 66.437109375 167.7 66.5 238.4197265625 17.8609375 272.05 50.9 Z"/>

<path fill="#394A6D" stroke="none" d="
M 273.05 66.5
Q 271.1880859375 64.902734375 269.05 63.55 261.85 58.95 253.35 59.15 248.559765625 59.2564453125 244.3 60.9 240.611328125 62.325390625 237.3 64.9 237.312109375 64.940234375 237.3 64.95
L 232.05 69.3
Q 229.1255859375 73.6865234375 225.15 77.7 210.2 92.7 180 102.8 195.25 103.35 226.9 86.15 226.7 83.3 227.65 80.2 229.05 74.45 234.15 70.2 234.9 69.55 235.7 68.95 244.25 63.1 252.6 63.05 259.3 62.95 265.9 66.55 269.2384765625 68.8599609375 271.85 71.15 272.7529296875 68.9134765625 273.05 66.5 Z"/>
</g>

<g id="_______2_____________1_Layer1_0_FILL">
<path fill="#C5DAE6" stroke="none" d="
M 180.85 153.3
Q 203.25 138.6 207.9 123.85 178.65 154.45 80.25 183.9 70.6 180.7 62.95 173.6
L 16.15 127.3
Q 12.25 122.95 7.4 124.05 9.85 130.2 12.75 136 31.15 172.65 68.2 195.85 80.95 207.95 180.85 153.3 Z"/>

<path fill="#959EC9" stroke="none" d="
M 353.05 356.95
Q 351.8673828125 375.4396484375 349.2 393.9 245.3166015625 423.93671875 152.2 376.15 93.311328125 336.5224609375 84.1 304.3 24.4455078125 272.7591796875 5.95 228.5 13.8 266.35 32.15 303 75.75 383 167.35 406.7 278.5 436.85 372.15 400.7 410.6888671875 383.65234375 436.25 358.05 435.0017578125 340.4984375 434.5 323.05 400.8638671875 349.071875 353.05 356.95 Z"/>

<path fill="#606D9A" stroke="none" d="
M 349.2 393.9
Q 351.8673828125 375.4396484375 353.05 356.95 311.06328125 363.9208984375 258.15 356.9 232.4 353.55 208.9 347.3 204.4 346.3 200 345.25
L 200.55 344.95
Q 144.61875 328.5505859375 102 295.1 80.684765625 278.418359375 62.7 257.45 20.8 199.25 12.75 136 9.85 130.2 7.4 124.05 1.85 126.45 1.9 137.3 -3.4 183.75 5.95 228.5 24.4455078125 272.7591796875 84.1 304.3 93.311328125 336.5224609375 152.2 376.15 245.3166015625 423.93671875 349.2 393.9
M 483.95 260.7
Q 481.25 266.25 478.3 271.5 460.70390625 302.776953125 434.5 323.05 435.0017578125 340.4984375 436.25 358.05 468.7908203125 325.4568359375 480.3 279 482.55 269.9 483.95 260.7 Z"/>

<path fill="#CCDFEE" stroke="none" d="
M 460.55 152.55
L 460.55 152.5
Q 418.3546875 147.615234375 380.65 179.85 364.35 197.35 355.6 221.15 354.75 223.7 353.8 226.25 350.491796875 235.2447265625 346.2 243.65 356.650390625 300.3146484375 353.05 356.95 400.8638671875 349.071875 434.5 323.05 433.5474609375 290.3908203125 435.2 258.1
L 460.55 152.55 Z"/>

<path fill="#849EAA" stroke="none" d="
M 473.3 96.1
Q 472.9119140625 78.7435546875 473.35 61.2 471.25 -2.55 325.2 0.8 235.35 -6.65 224.45 55.2
L 216.45 112.25
Q 213.4 118.05 207.9 123.85 203.25 138.6 180.85 153.3 80.95 207.95 68.2 195.85 31.15 172.65 12.75 136 20.8 199.25 62.7 257.45 80.684765625 278.418359375 102 295.1 144.61875 328.5505859375 200.55 344.95 204.65 346.15 208.9 347.3 232.4 353.55 258.15 356.9 311.06328125 363.9208984375 353.05 356.95 356.650390625 300.3146484375 346.2 243.65 350.491796875 235.2447265625 353.8 226.25 354.75 223.7 355.6 221.15 364.35 197.35 380.65 179.85 418.3546875 147.615234375 460.55 152.5
L 460.55 152.55 435.2 258.1
Q 433.5474609375 290.3908203125 434.5 323.05 460.70390625 302.776953125 478.3 271.5 481.25 266.25 483.95 260.7 488.45 230.85 483.85 199.9 479.9 178.05 477.4 155.9 474.066796875 126.282421875 473.3 96.1 Z"/>
</g>

<g id="_______2________________0_Layer0_0_FILL">
<path fill="#FDA1B1" stroke="none" d="
M 126.45 225.45
Q 142.4 229.35 131.95 217 122.85 209.7 111.25 204.6 104.2 201.55 96.25 199.3 141.5 221.65 126.45 225.45
M 66.25 175.1
Q 71.9 116.4 82.75 55.6 63.8 100.75 66.25 175.1
M 123.8 188.45
Q 132.3 187.35 132.95 183.9 134.6 174.65 79.4 174.95 140.2 179.7 123.8 188.45
M 107.65 188.8
Q 100.65 187.65 92.5 186.65 159 201.65 140.35 208.1 147.95 207.8 148.9 204.75 149.95 195.45 107.65 188.8 Z"/>

<path fill="#AB4253" stroke="none" d="
M 37.05 193.6
Q 2.6 189.1 22.95 180.3 -20.1 187.9 17.6 194.5 71.1 202.25 115.6 222.05 116.4 222.35 117.15 222.6
L 88.65 208.85
Q 66.95 198.35 37.05 193.6
M 84.6 45.45
Q 87.25 30.85 90.25 16.2 89.8 4.3 76.7 1.2 64.15 -3.55 56.2 10.2 52.7 32.25 50.05 54.3 70.15 53.65 84.6 45.45 Z"/>

<path fill="#FD706F" stroke="none" d="
M 82.75 55.6
Q 82.75 55.45 82.8 55.35 83.65 50.4 84.6 45.45 70.15 53.65 50.05 54.3 42.65 115.9 41.7 177.45 30.95 178.9 22.95 180.3 2.6 189.1 37.05 193.6 66.95 198.35 88.65 208.85
L 117.15 222.6
Q 122.55 224.5 126.45 225.45 141.5 221.65 96.25 199.3 104.2 201.55 111.25 204.6 130.9 208.45 140.35 208.1 159 201.65 92.5 186.65 100.65 187.65 107.65 188.8 117.7 189.2 123.8 188.45 140.2 179.7 79.4 174.95 73.2 174.95 66.25 175.1 63.8 100.75 82.75 55.6 Z"/>
</g>

<g id="_______________________0_Layer0_0_FILL">
<path fill="#2E3A43" stroke="none" d="
M 116.15 0
L 94.45 16.05
Q -33.15 126.4 11.6 140.85 34.2 93.8 136.45 12.75
L 116.15 0 Z"/>

<path fill="#161D22" stroke="none" d="
M 142.55 16.55
L 136.45 12.75
Q 34.2 93.8 11.6 140.85 74.35 149.95 150.3 109.8
L 142.55 16.55 Z"/>
</g>

<g id="_______2_mc______________1_0_Layer8_0_FILL">
<path fill="#C5DAE6" stroke="none" d="
M 28 -172.45
Q 53.85 -171.35 62.9 -170 71.9 -168.65 83.6 -165.3 50.75 -191.4 7.25 -188.45 -90.85 -185.6 -112.9 -90.3 -117.65 -49.7 -118.4 -7.15 -116.35 -15.4 -114.6 -24 -110.3 -48.5 -108.35 -59.45 -104.95 -78.55 -100.9 -90.6 -95.45 -106.6 -85.95 -120.45 -72.6 -139.85 -59.55 -150.8 -47.45 -160.95 -33.5 -165.45 -21.7 -169.3 -9.8 -171.4 2.1 -173.55 28 -172.45
M 86.1 -136.85
Q 86.35 -137.45 86.35 -142.25 86.35 -145.85 83.7 -149.95 81.2 -153.9 73.35 -160.45 69.6 -162.35 64 -164.15 57.45 -166.2 53.7 -166.2 50.05 -166.2 48.8 -164.7 47.8 -163.45 47.8 -160.05 47.8 -150.25 60.05 -142.15 71 -134.9 80.6 -134.9 85.25 -134.9 86.1 -136.85 Z"/>

<path fill="#758C97" stroke="none" d="
M 124.75 -108.3
Q 120.8 -108.35 116.3 -108.35 76.5 -108.35 41.6 -102.25 6.35 -96.05 -19.85 -84.3 -46.95 -72.15 -61.5 -55.25 -76.85 -37.4 -76.85 -15.7 -76.85 15.95 -44.4 33.25 -15.2 48.8 38.3 51.8 83.95 54.35 106.3 68 121.9 77.5 129.85 94
L 131 41.9 134 -36.7
Q 136.8 -74.3 124.75 -108.3 Z"/>

<path fill="#849EAA" stroke="none" d="
M 124.75 -108.3
Q 121.25 -118.25 116.45 -127.9 101.6 -151 83.6 -165.3 71.9 -168.65 62.9 -170 53.85 -171.35 28 -172.45 2.1 -173.55 -9.8 -171.4 -21.7 -169.3 -33.5 -165.45 -47.45 -160.95 -59.55 -150.8 -72.6 -139.85 -85.95 -120.45 -95.45 -106.6 -100.9 -90.6 -104.95 -78.55 -108.35 -59.45 -110.3 -48.5 -114.6 -24 -116.35 -15.4 -118.4 -7.15 -118.7 9.25 -118.4 25.9
L -112.65 105.2
Q -106.55 136.4 -59.8 142.5 1.75 156.2 61.15 148.9 109.35 142.7 123.15 109.95
L 129.85 94
Q 121.9 77.5 106.3 68 83.95 54.35 38.3 51.8 -15.2 48.8 -44.4 33.25 -76.85 15.95 -76.85 -15.7 -76.85 -37.4 -61.5 -55.25 -46.95 -72.15 -19.85 -84.3 6.35 -96.05 41.6 -102.25 76.5 -108.35 116.3 -108.35 120.8 -108.35 124.75 -108.3
M 86.35 -142.25
Q 86.35 -137.45 86.1 -136.85 85.25 -134.9 80.6 -134.9 71 -134.9 60.05 -142.15 47.8 -150.25 47.8 -160.05 47.8 -163.45 48.8 -164.7 50.05 -166.2 53.7 -166.2 57.45 -166.2 64 -164.15 69.6 -162.35 73.35 -160.45 81.2 -153.9 83.7 -149.95 86.35 -145.85 86.35 -142.25 Z"/>
</g>

<g id="_______2__________________0_Layer0_0_FILL">
<path fill="#192027" stroke="none" d="
M 105.6 14.25
Q 103.45 12.6 101.25 11.1 84.5 0 61.9 0 38.75 0 21.75 11.65 19.9 12.85 18.15 14.25 0 28.5 0 48.65 0 68.75 18.15 82.95 36.25 97.25 61.9 97.25 87.5 97.25 105.6 82.95 123.7 68.75 123.7 48.65 123.7 28.5 105.6 14.25
M 116.5 44.85
Q 116.7 46.7 116.7 48.6 116.7 66.45 100.6 79.1 84.55 91.75 61.8 91.75 39.1 91.75 23 79.1 6.9 66.45 6.9 48.6 6.9 46.7 7.1 44.85 8.65 29.4 23 18.1 39.1 5.45 61.8 5.45 84.55 5.45 100.6 18.1 114.95 29.4 116.5 44.85 Z"/>

<path fill="#FFFFFF" stroke="none" d="
M 116.5 44.85
Q 114.95 29.4 100.6 18.1 84.55 5.45 61.8 5.45 39.1 5.45 23 18.1 8.65 29.4 7.1 44.85 8.65 60.3 23 71.6 39.1 84.25 61.8 84.25 84.55 84.25 100.6 71.6 114.95 60.3 116.5 44.85 Z"/>

<path fill="#C3DBE8" stroke="none" d="
M 116.7 48.6
Q 116.7 46.7 116.5 44.85 114.95 60.3 100.6 71.6 84.55 84.25 61.8 84.25 39.1 84.25 23 71.6 8.65 60.3 7.1 44.85 6.9 46.7 6.9 48.6 6.9 66.45 23 79.1 39.1 91.75 61.8 91.75 84.55 91.75 100.6 79.1 116.7 66.45 116.7 48.6 Z"/>
</g>

<g id="_______2_______________0_Layer0_0_FILL_FL">
<path fill="#192027" stroke="none" d="
M 55 22.9
Q 55 13.4 46.95 6.7 46 5.9 45.05 5.2 37.6 0 27.55 0 17.25 0 9.7 5.45 8.9 6.05 8.1 6.7 0 13.4 0 22.9 0 32.35 8.1 39.05 16.1 45.8 27.55 45.8 38.95 45.8 46.95 39.05 55 32.35 55 22.9
M 45.85 8.35
Q 48.65 10.65 48.65 13.95 48.65 17.25 45.85 19.55 43.1 21.9 39.15 21.9 35.2 21.9 32.4 19.55 29.6 17.25 29.6 13.95 29.6 10.65 32.4 8.35 32.65 8.1 32.95 7.9 35.55 6.05 39.15 6.05 42.6 6.05 45.2 7.85 45.5 8.05 45.85 8.35 Z"/>

<path fill="#FFFFFF" stroke="none" d="
M 48.65 13.95
Q 48.65 10.65 45.85 8.35 45.5 8.05 45.2 7.85 42.6 6.05 39.15 6.05 35.55 6.05 32.95 7.9 32.65 8.1 32.4 8.35 29.6 10.65 29.6 13.95 29.6 17.25 32.4 19.55 35.2 21.9 39.15 21.9 43.1 21.9 45.85 19.55 48.65 17.25 48.65 13.95 Z"/>
</g>

<g id="_______2________________0_Layer0_0_FILL_FL">
<path fill="#192027" stroke="none" d="
M 106.45 17.35
Q 104.3 15.35 102.1 13.5 85.2 0 62.4 0 39.1 0 21.95 14.15 20.1 15.65 18.3 17.35 0 34.7 0 59.2 0 83.65 18.3 100.95 36.55 118.35 62.4 118.35 88.25 118.35 106.45 100.95 124.7 83.65 124.7 59.2 124.7 34.7 106.45 17.35
M 117.65 59.15
Q 117.65 80.85 101.45 96.25 85.25 111.65 62.3 111.65 39.45 111.65 23.2 96.25 7 80.85 7 59.15 7 56.85 7.2 54.6 8.75 35.75 23.2 22 39.45 6.65 62.3 6.65 85.25 6.65 101.45 22 115.9 35.75 117.45 54.6 117.65 56.85 117.65 59.15 Z"/>

<path fill="#FFFFFF" stroke="none" d="
M 101.45 87.15
Q 115.9 73.4 117.45 54.6 115.9 35.75 101.45 22 85.25 6.65 62.3 6.65 39.45 6.65 23.2 22 8.75 35.75 7.2 54.6 8.75 73.4 23.2 87.15 39.45 102.55 62.3 102.55 85.25 102.55 101.45 87.15 Z"/>

<path fill="#C3DBE8" stroke="none" d="
M 117.45 54.6
Q 115.9 73.4 101.45 87.15 85.25 102.55 62.3 102.55 39.45 102.55 23.2 87.15 8.75 73.4 7.2 54.6 7 56.85 7 59.15 7 80.85 23.2 96.25 39.45 111.65 62.3 111.65 85.25 111.65 101.45 96.25 117.65 80.85 117.65 59.15 117.65 56.85 117.45 54.6 Z"/>
</g>

<g id="_______2___________________0_Layer0_0_FILL">
<path fill="#192027" stroke="none" d="
M 57.1 24.45
Q 57.1 14.3 48.75 7.15 47.75 6.25 46.75 5.55 39.05 0 28.6 0 17.9 0 10.05 5.8 9.25 6.45 8.4 7.15 0 14.3 0 24.45 0 34.55 8.4 41.7 16.75 48.95 28.6 48.95 40.45 48.95 48.75 41.7 57.1 34.55 57.1 24.45
M 47.6 8.9
Q 50.5 11.35 50.5 14.9 50.5 18.45 47.6 20.9 44.75 23.4 40.65 23.4 36.5 23.4 33.6 20.9 30.75 18.45 30.75 14.9 30.75 11.35 33.6 8.9 33.9 8.65 34.2 8.45 36.9 6.45 40.65 6.45 44.25 6.45 46.95 8.4 47.25 8.6 47.6 8.9 Z"/>

<path fill="#FFFFFF" stroke="none" d="
M 50.5 14.9
Q 50.5 11.35 47.6 8.9 47.25 8.6 46.95 8.4 44.25 6.45 40.65 6.45 36.9 6.45 34.2 8.45 33.9 8.65 33.6 8.9 30.75 11.35 30.75 14.9 30.75 18.45 33.6 20.9 36.5 23.4 40.65 23.4 44.75 23.4 47.6 20.9 50.5 18.45 50.5 14.9 Z"/>
</g>

<g id="________________________0_Layer0_0_FILL">
<path fill="#2C3841" stroke="none" d="
M 22.4 91.1
Q 22.15 93.5 22 95.85 11.6 218.8 59.8 170.65 78.55 156.45 97.55 145.3 67.85 74.45 95.25 26.65 77.7 35.95 62.75 47.85 39.4 66.35 22.4 91.1
M 178.45 90.35
Q 167.95 62.35 196.8 50.5 199.5 49.55 202.1 48.85 239 38.1 265.4 59.05 286.3 77.7 288.85 102.25 288.9 102.85 288.95 103.55 310.25 102.7 330.65 106.2 324.1 82.2 301.05 56.2 255.25 5.4 158.6 3.65 147.55 5.9 136.45 9.6 134.4 10.2 132.45 10.9 119.35 15.25 107.35 20.7 74.95 71.7 102.3 142.6 142 120.05 182.5 110.6 184.3 103.5 181.4 96.4 180.45 94 178.95 91.65 178.7 90.95 178.45 90.35
M 277.1 83.95
Q 274.55 83.85 272.05 83.85 228.5 83.6 187.35 93.25 185.7 93.6 184.15 93.95 184.4 94.5 184.6 95 184.95 95.9 185.35 96.8 193.45 111.25 207.1 109.75
L 285.05 102.75
Q 282.05 92.2 277.1 83.95 Z"/>

<path fill="#4E6172" stroke="none" d="
M 95.25 26.65
Q 101.15 23.55 107.35 20.7 119.35 15.25 132.45 10.9 124.85 3.55 96 15.25 76.85 23.65 65.2 39.6
L 62.75 47.85
Q 77.7 35.95 95.25 26.65
M 225.2 60.3
Q 180.4 60.9 187.35 93.25 228.5 83.6 272.05 83.85 256.95 61.35 225.2 60.3
M 330.65 106.2
Q 340.25 107.85 349.6 110.4 326.2 44.5 263.25 14.75 211.6 -7.3 158.6 3.65 255.25 5.4 301.05 56.2 324.1 82.2 330.65 106.2 Z"/>

<path fill="#161D22" stroke="none" d="
M 349.6 110.4
Q 340.25 107.85 330.65 106.2 310.25 102.7 288.95 103.55 288.9 102.85 288.85 102.25 286.3 77.7 265.4 59.05 239 38.1 202.1 48.85 199.5 49.55 196.8 50.5 167.95 62.35 178.45 90.35 178.7 90.95 178.95 91.65 180.45 94 181.4 96.4 184.3 103.5 182.5 110.6 142 120.05 102.3 142.6 74.95 71.7 107.35 20.7 101.15 23.55 95.25 26.65 67.85 74.45 97.55 145.3 78.55 156.45 59.8 170.65 11.6 218.8 22 95.85 22.15 93.5 22.4 91.1 -13.45 154 8.05 210.5 19.5 221.35 32.9 220.35 109.4 137.5 207.9 118.8 228.5 115.5 247.85 113.85 267.15 112.2 285.2 112.2 287.1 112.2 289 112.2 322.95 112.5 352.35 118.8 351.05 114.5 349.6 110.4
M 182.55 89.05
Q 177.95 72.35 189.5 62.15 196.15 57.9 204 55.65 211.9 53.5 221.1 53.35 260.2 55.65 277.1 83.95 282.05 92.2 285.05 102.75
L 207.1 109.75
Q 193.45 111.25 185.35 96.8 184.95 95.9 184.6 95 184.4 94.5 184.15 93.95 183.2 91.45 182.55 89.05 Z"/>

<path fill="#3D4C56" stroke="none" d="
M 272.05 83.85
Q 274.55 83.85 277.1 83.95 260.2 55.65 221.1 53.35 211.9 53.5 204 55.65 196.15 57.9 189.5 62.15 177.95 72.35 182.55 89.05 183.2 91.45 184.15 93.95 185.7 93.6 187.35 93.25 180.4 60.9 225.2 60.3 256.95 61.35 272.05 83.85 Z"/>
</g>

<g id="___________________0_Layer2_0_FILL">
<path fill="#171717" stroke="none" d="
M 3.65 163.5
L 3.65 163.55
Q 12.5 164.8 12 147.85
L 82.75 126.55 83.15 126.4 82.8 126.05
Q 83.15 123.5 83.55 121
L 84.05 118.85 84.1 118.35 9.4 143.35
Q 0.45 148 3.65 163.5 Z"/>

<path fill="#CCCCCC" stroke="none" d="
M 229.35 43.45
Q 205.6 37.3 179.2 52.55 204 43.05 229.35 43.45
M 164.85 54.1
Q 168.35 53.75 171.75 53.45 168.2 53.4 164.5 53.45 156.35 53.6 146.85 54.1 146 54.2 145.15 54.2 143.75 51.95 142.3 49.75 140.65 47.25 138.85 44.95 136.8 42.25 134.55 39.8 132.3 37.35 129.9 35.2 128.25 33.7 126.45 32.25 120.8 27.8 114.35 24.5 99.65 39.55 97.75 60.6 72.9 67.7 57.7 81.7 73.5 68.75 99.6 62.75 100.05 42 114.75 26.9 121.1 30.45 126.55 35.1 128.25 36.65 129.9 38.2 132.2 40.5 134.35 43 136.55 45.5 138.5 48.3 140.2 50.7 141.8 53.25 143.15 55.45 143.6 56.85 146.4 56.45 147.25 56.3 156.65 54.9 164.85 54.1
M 346.8 32.25
Q 337 29.35 327 29.15 323.45 29.05 319.9 29.4 314.7 29.75 309.6 30.9 307.7 26.85 305.6 23.3 302 17.4 297.9 12.85 294.1 8.6 289.75 5.6 284.75 2 278.95 0 265.6 16.1 264.6 36.85 245 37.05 231.1 43.9 250.15 38.5 266.85 39.9 268.25 16.4 280.4 3.5 300.35 13.15 308.2 33.1 313.45 32.2 318.6 31.75 332.95 30.4 346.8 32.25
M 70.4 86.3
Q 69.65 85.75 68.9 85.25 77.35 99 93.45 107.7 89.5 123.65 90.65 139.35 91.05 144.15 91.9 149 92.3 151.5 92.9 154 94.85 153.2 96.85 152.3 98.9 151.4 100.85 150.45 105.75 147.95 110.6 144.9 120.45 138.4 129.95 129.3 125.85 132 121.85 134.35 121.45 134.5 121.2 134.75 120.8 134.9 120.5 135.1 118.6 136.15 116.8 137.1 116.3 137.35 115.7 137.65 105.35 144.5 95.3 148.75 91.2 128.9 97.15 107.4 81 98 70.4 86.3
M 266.6 74.95
Q 267.3 75.3 268.1 75.6 260.2 93.95 265.95 108.45 266.7 110.3 267.65 112.1 272.5 110.5 277.1 108.45 291.7 102.15 304.4 91.85 287.25 101.9 270.35 107.05 264.4 92.3 272.15 75.95 272.65 74.7 273.3 73.55 250.35 65.95 237.65 52.65 237.6 52.7 237.55 52.7 243.95 62 255.95 69.3 260.8 72.3 266.6 74.95 Z"/>

<path fill="#333333" stroke="none" d="
M 353.2 34.45
Q 350 33.2 346.8 32.25 332.95 30.4 318.6 31.75 313.45 32.2 308.2 33.1 300.35 13.15 280.4 3.5 268.25 16.4 266.85 39.9 250.15 38.5 231.1 43.9 231.05 43.9 231 43.9 230.3 43.7 229.6 43.5 229.45 43.5 229.35 43.45 204 43.05 179.2 52.55 178.8 52.75 178.5 52.95 177.95 53.25 177.5 53.55 174.65 53.45 171.75 53.45 168.35 53.75 164.85 54.1 156.65 54.9 147.25 56.3 146.4 56.45 143.6 56.85 143.15 55.45 141.8 53.25 140.2 50.7 138.5 48.3 136.55 45.5 134.35 43 132.2 40.5 129.9 38.2 128.25 36.65 126.55 35.1 121.1 30.45 114.75 26.9 100.05 42 99.6 62.75 73.5 68.75 57.7 81.7 56.65 82.6 55.75 83.6 55.6 83.65 55.5 83.75 56.05 84.65 56.55 85.5 62.05 93.85 69.9 100.65
L 79.05 107.3
Q 79 107.3 78.95 107.3
L 5.7 139.7
Q -4.55 143.9 3.65 163.5 0.45 148 9.4 143.35
L 84.1 118.35
Q 84.1 118.3 84.15 118.3
L 84.05 118.85 83.55 121
Q 83.15 123.5 82.8 126.05
L 83.15 126.4 82.75 126.55
Q 82.65 127.45 82.55 128.35 82.45 129.55 82.35 130.7 82.3 131 82.3 131.3 81.1 146.1 83.55 160.75 84.15 164.45 84.95 168.2 85.2 168.05 85.55 167.95 89.15 166.45 92.75 164.75 99.7 161.35 106.55 157 118.75 149.05 130.4 137.8 132.85 139.3 135.4 140.65 158.65 153.2 185.3 151.45 186.05 136.35 181.85 123.25 177.8 110.9 169.35 100.45 169.5 100.4 169.7 100.3 184.05 93 189.7 77.8 193.05 68.85 193.35 57.15 193.4 55.9 193.4 54.8 207.05 47.55 221.35 50 229.6 61.85 243.05 71.05 249.6 75.65 257.45 79.5 252.65 96.05 254.85 110 256.15 118.55 260.1 126.15 260.4 126.75 260.65 127.4 266.6 125.45 272.25 123.15 287.7 116.75 300.7 107.85 303.65 105.85 306.4 103.65 327.35 114.75 352.65 115.65 351.8 90 329.45 70.65 337.85 64.05 343.4 56.45 350.8 46.3 353.2 34.45
M 324.2 37.55
Q 331.45 38.15 338.45 40.9 336.6 50.2 329.3 58.65 324 64.6 315.95 70.25 337.35 83.4 337.95 103.1 319.6 102.4 305.75 92.85 305.05 92.35 304.4 91.85 291.7 102.15 277.1 108.45 272.5 110.5 267.65 112.1 266.7 110.3 265.95 108.45 260.2 93.95 268.1 75.6 267.3 75.3 266.6 74.95 260.8 72.3 255.95 69.3 243.95 62 237.55 52.7 237.6 52.7 237.65 52.65 250 43 270.85 44.8 271.45 26.85 281.65 14.55 283.95 15.35 286.15 16.5 290.7 19.05 294.5 23.25 298.65 27.8 301.85 34.5 303 36.95 304.05 39.7 309.7 38.1 315.3 37.55 319.75 37.15 324.2 37.55
M 179.35 78.95
Q 179.05 79.6 178.8 80.25 172.75 92.75 158.6 98.9 175.4 116 174.85 139.05 174.85 139.7 174.8 140.4 155.05 141.7 137.75 133.5 135.9 132.65 134.2 131.75 132.05 130.6 130.05 129.3
L 130 129.25 129.95 129.3
Q 120.45 138.4 110.6 144.9 105.75 147.95 100.85 150.45 98.9 151.4 96.85 152.3 94.85 153.2 92.9 154 92.3 151.5 91.9 149 91.05 144.15 90.65 139.35 89.5 123.65 93.45 107.7 77.35 99 68.9 85.25 68.95 85.2 68.95 85.15 75.15 78.95 83.6 74.25 92.3 69.45 103.3 66.35 104.85 49.15 116.9 36.9 119.3 38.15 121.7 39.6 122.6 40.2 123.6 40.9 125.4 42.05 127.15 43.5 129.6 45.45 131.85 47.8 136.2 52.1 139.75 57.45 140.9 59.25 142 61.1 152.9 60.5 162.05 60.75 174.05 61.1 183.05 62.95 182.4 71.9 179.35 78.95 Z"/>

<path fill="#000000" stroke="none" d="
M 174.8 140.4
Q 174.85 139.7 174.85 139.05 175.4 116 158.6 98.9 172.75 92.75 178.8 80.25 169 86.65 160.2 93.75 149.25 102.55 147.65 103.65 142.05 107.55 137.1 108.4 122.45 110.95 102.4 93.65 93.1 85.65 83.6 74.25 75.15 78.95 68.95 85.15 68.95 85.2 68.9 85.25 69.65 85.75 70.4 86.3 81 98 97.15 107.4 91.2 128.9 95.3 148.75 105.35 144.5 115.7 137.65 116.3 137.35 116.8 137.1 118.6 136.15 120.5 135.1 120.8 134.9 121.2 134.75 121.45 134.5 121.85 134.35 125.85 132 129.95 129.3
L 130 129.25 130.05 129.3
Q 132.05 130.6 134.2 131.75 135.9 132.65 137.75 133.5 155.05 141.7 174.8 140.4
M 338.45 40.9
Q 331.45 38.15 324.2 37.55 319.75 37.15 315.3 37.55 313.5 40.55 311.55 43.5 302.85 56.9 294.1 65.65 284.4 75.35 277.35 76.55 275.5 76.85 272.15 75.95 264.4 92.3 270.35 107.05 287.25 101.9 304.4 91.85 305.05 92.35 305.75 92.85 319.6 102.4 337.95 103.1 337.35 83.4 315.95 70.25 324 64.6 329.3 58.65 336.6 50.2 338.45 40.9 Z"/>

<path fill="#666666" stroke="none" d="
M 178.8 80.25
Q 179.05 79.6 179.35 78.95 182.4 71.9 183.05 62.95 174.05 61.1 162.05 60.75 152.9 60.5 142 61.1 140.9 59.25 139.75 57.45 136.2 52.1 131.85 47.8 129.6 45.45 127.15 43.5 125.4 42.05 123.6 40.9 122.6 40.2 121.7 39.6 119.3 38.15 116.9 36.9 104.85 49.15 103.3 66.35 92.3 69.45 83.6 74.25 93.1 85.65 102.4 93.65 122.45 110.95 137.1 108.4 142.05 107.55 147.65 103.65 149.25 102.55 160.2 93.75 169 86.65 178.8 80.25
M 294.5 23.25
Q 290.7 19.05 286.15 16.5 283.95 15.35 281.65 14.55 271.45 26.85 270.85 44.8 250 43 237.65 52.65 250.35 65.95 273.3 73.55 272.65 74.7 272.15 75.95 275.5 76.85 277.35 76.55 284.4 75.35 294.1 65.65 302.85 56.9 311.55 43.5 313.5 40.55 315.3 37.55 309.7 38.1 304.05 39.7 303 36.95 301.85 34.5 298.65 27.8 294.5 23.25 Z"/>
</g>

<g id="_______2____________0_Layer1_0_FILL">
<path fill="#85878E" stroke="none" d="
M 2 0
Q 1.3 3.8 0.85 7.5 49.9 16.05 96.6 33.9 67.15 14.85 2 0 Z"/>

<path fill="#262830" stroke="none" d="
M 105.6 54.15
Q 94.55 54.4 84.75 53.8 59.1 64.4 28.55 60.2 14.15 57.2 0.75 31.05 3.95 54.7 21.3 71.3 70.85 80.4 105.6 54.15 Z"/>

<path fill="#000000" stroke="none" d="
M 84.75 53.8
Q 94.55 54.4 105.6 54.15 109.4 51.2 113 47.9 57.45 50.5 25.4 33.85 45.85 51.2 84.75 53.8 Z"/>

<path fill="#4A4E4F" stroke="none" d="
M 113 47.9
Q 107.05 40.6 96.6 33.9 49.9 16.05 0.85 7.5 -0.8 20 0.75 31.05 14.15 57.2 28.55 60.2 59.1 64.4 84.75 53.8 45.85 51.2 25.4 33.85 57.45 50.5 113 47.9 Z"/>
</g>

<g id="_______2___________0_Layer0_0_FILL">
<path fill="#FFFFFF" stroke="none" d="
M 246.45 323.45
Q 245.85 328 245.1 334.4 246.85 334.1 248.6 333.8 249.35 328.65 250.05 323.45 248.4 322.85 246.55 322.65 246.5 323.05 246.45 323.45
M 248.3 308.15
Q 248.2 308.8 248.15 309.45 247.6 314.05 247.1 318.7 248.75 319.05 250.55 319.75 251.15 314.6 251.75 309.45 250.05 308.6 248.3 308.15
M 237.7 323.45
Q 236.9 329.6 236 335.75 237.35 335.55 238.75 335.4 238.8 335.35 238.85 335.35 239.75 329.4 240.5 323.45 240.55 323.15 240.6 322.85 239.15 323.05 237.7 323.45
M 242.25 308.5
Q 242.3 308.2 242.35 307.9 240.9 308.1 239.45 308.5 238.85 314 238.2 319.5 239.6 318.9 241.1 318.65 241.7 313.55 242.25 308.5
M 249.75 292.05
Q 249.7 292.5 249.65 292.95 249.2 298.35 248.7 303.75 250.45 304.25 252.15 305.45 252.75 299.2 253.25 292.95 251.5 292.35 249.75 292.05
M 243.85 292.2
Q 243.85 292 243.9 291.75 242.45 291.9 241.05 292.2 240.6 297.4 240.1 302.6 239.9 304.15 239.75 305.7 241.25 304.7 242.75 304.15 243.3 298.15 243.85 292.2
M 250.85 274.35
Q 250.8 274.5 250.8 274.65 250.5 281.25 250.05 287.85 251.85 288.2 253.55 289.15 254.05 281.9 254.4 274.65 252.6 274.35 250.85 274.35
M 245.1 276.3
Q 245.1 275.8 245.15 275.25 243.7 275.7 242.3 276.3 241.85 282.6 241.35 288.9 242.8 288.25 244.25 287.9 244.7 282.1 245.1 276.3
M 251.4 254.8
Q 251.4 255.25 251.4 255.75 251.25 263.1 251.05 270.45 252.8 270.45 254.6 270.85 254.85 263.3 255 255.75 253.3 255 251.4 254.8
M 246.15 256.05
Q 246.15 255.6 246.15 255.2 244.8 255.5 243.35 256.05 243 264.5 242.5 273 243.95 272.15 245.4 271.6 245.85 263.8 246.15 256.05
M 251.3 232.55
Q 251.3 232.85 251.3 233.15 251.5 242.4 251.45 251.65 253.2 251.75 255.05 252.25 255.1 242.7 254.9 233.15 253.05 232.65 251.3 232.55
M 246.65 233.8
Q 246.65 233.35 246.65 232.9 245.2 233.25 243.85 233.8 243.75 243.4 243.45 253.05 244.85 252.4 246.3 252.05 246.55 242.9 246.65 233.8
M 254.45 220.25
Q 252.7 218.35 250.95 216.55 251.05 224.7 251.2 229.15 252.95 229.25 254.8 229.85 254.65 225.05 254.45 220.25
M 243.6 209.15
Q 243.75 213.9 243.8 218.75 243.85 224.85 243.85 231 245.25 230.2 246.65 229.75 246.7 220.85 246.5 212 245.05 210.55 243.6 209.15
M 221.05 148.3
Q 218.9 146.1 215.8 146.1 212.7 146.1 210.5 148.3 209.85 148.95 209.4 149.65 218.6 148.15 223.05 155.4 223.25 154.55 223.25 153.6 223.25 150.5 221.05 148.3 Z"/>

<path fill="#A9A6A7" stroke="none" d="
M 240.5 323.45
Q 239.75 329.4 238.85 335.35 241.95 334.9 245.1 334.4 245.85 328 246.45 323.45 246.5 323.05 246.55 322.65 243.8 322.35 240.6 322.85 240.55 323.15 240.5 323.45
M 242.35 307.9
Q 242.3 308.2 242.25 308.5 241.7 313.55 241.1 318.65 244 318.05 247.1 318.7 247.6 314.05 248.15 309.45 248.2 308.8 248.3 308.15 245.45 307.45 242.35 307.9
M 243.9 291.75
Q 243.85 292 243.85 292.2 243.3 298.15 242.75 304.15 245.8 302.95 248.7 303.75 249.2 298.35 249.65 292.95 249.7 292.5 249.75 292.05 246.8 291.5 243.9 291.75
M 245.15 275.25
Q 245.1 275.8 245.1 276.3 244.7 282.1 244.25 287.9 247.2 287.2 250.05 287.85 250.5 281.25 250.8 274.65 250.8 274.5 250.85 274.35 248 274.4 245.15 275.25
M 246.15 255.2
Q 246.15 255.6 246.15 256.05 245.85 263.8 245.4 271.6 248.2 270.45 251.05 270.45 251.25 263.1 251.4 255.75 251.4 255.25 251.4 254.8 248.95 254.5 246.15 255.2
M 246.65 232.9
Q 246.65 233.35 246.65 233.8 246.55 242.9 246.3 252.05 248.8 251.4 251.45 251.65 251.5 242.4 251.3 233.15 251.3 232.85 251.3 232.55 248.95 232.4 246.65 232.9
M 250.95 216.55
Q 248.7 214.25 246.5 212 246.7 220.85 246.65 229.75 248.85 229 251.2 229.15 251.05 224.7 250.95 216.55
M 209.4 149.65
Q 208.3 151.4 208.3 153.6 208.3 156.7 210.5 158.85 212.7 161.05 215.8 161.05 218.9 161.05 221.05 158.85 222.6 157.35 223.05 155.4 218.6 148.15 209.4 149.65 Z"/>

<path fill="#030411" stroke="none" d="
M 241.1 318.65
Q 239.6 318.9 238.2 319.5 237.95 321.45 237.7 323.45 239.15 323.05 240.6 322.85 243.8 322.35 246.55 322.65 248.4 322.85 250.05 323.45 250.3 321.6 250.55 319.75 248.75 319.05 247.1 318.7 244 318.05 241.1 318.65
M 242.75 304.15
Q 241.25 304.7 239.75 305.7 239.6 307.1 239.45 308.5 240.9 308.1 242.35 307.9 245.45 307.45 248.3 308.15 250.05 308.6 251.75 309.45 251.95 307.45 252.15 305.45 250.45 304.25 248.7 303.75 245.8 302.95 242.75 304.15
M 250.05 287.85
Q 247.2 287.2 244.25 287.9 242.8 288.25 241.35 288.9 241.2 290.55 241.05 292.2 242.45 291.9 243.9 291.75 246.8 291.5 249.75 292.05 251.5 292.35 253.25 292.95 253.4 291.05 253.55 289.15 251.85 288.2 250.05 287.85
M 251.05 270.45
Q 248.2 270.45 245.4 271.6 243.95 272.15 242.5 273 242.35 274.65 242.3 276.3 243.7 275.7 245.15 275.25 248 274.4 250.85 274.35 252.6 274.35 254.4 274.65 254.5 272.75 254.6 270.85 252.8 270.45 251.05 270.45
M 255 255.75
Q 255 254 255.05 252.25 253.2 251.75 251.45 251.65 248.8 251.4 246.3 252.05 244.85 252.4 243.45 253.05 243.35 254.55 243.35 256.05 244.8 255.5 246.15 255.2 248.95 254.5 251.4 254.8 253.3 255 255 255.75
M 254.9 233.15
Q 254.85 231.5 254.8 229.85 252.95 229.25 251.2 229.15 248.85 229 246.65 229.75 245.25 230.2 243.85 231 243.85 232.4 243.85 233.8 245.2 233.25 246.65 232.9 248.95 232.4 251.3 232.55 253.05 232.65 254.9 233.15 Z"/>

<path fill="#1B2132" stroke="none" d="
M 254.45 220.25
Q 254.65 225.05 254.8 229.85 266.5 242.8 270.4 262.05 270.3 249.55 269.6 237.05 262.3 228.5 254.45 220.25
M 237.5 104
Q 216.15 75.25 165 36.4 159.5 32.8 156.25 29.2 165.15 59.15 237.5 104
M 191 164
Q 187.85 160.2 191 154.8
L 211.4 122.4 173.8 154.8
Q 169.6 159.35 166.2 154.8
L 121.8 74.4
Q 119.7 70.25 118.55 65.4
L 110.55 68.55
Q 112.25 76.9 117.25 87.2 123.25 99.6 137 120 138.3 121.9 143.45 130.8 148.85 140.15 152.5 145.65 164.85 164.4 172.4 164.4 173.8 164.4 181 159.6 193 187 243.8 218.75 243.75 213.9 243.6 209.15 219.5 185.3 191 164 Z"/>

<path fill="#334157" stroke="none" d="
M 254.8 229.85
Q 254.85 231.5 254.9 233.15 255.1 242.7 255.05 252.25 255 254 255 255.75 254.85 263.3 254.6 270.85 254.5 272.75 254.4 274.65 254.05 281.9 253.55 289.15 253.4 291.05 253.25 292.95 252.75 299.2 252.15 305.45 251.95 307.45 251.75 309.45 251.15 314.6 250.55 319.75 250.3 321.6 250.05 323.45 249.35 328.65 248.6 333.8 257.1 332.35 265.8 330.4 270.55 296.2 270.4 262.05 266.5 242.8 254.8 229.85
M 140.05 304.4
Q 144.65 322.25 150.85 334.3 190.65 341.85 236 335.75 236.9 329.6 237.7 323.45 237.95 321.45 238.2 319.5 238.85 314 239.45 308.5 189.75 317.65 140.05 304.4
M 131 278
L 136.2 288.4
Q 136.3 288.35 136.35 288.35 168.45 272.35 188.6 252.4
L 182.6 240.4 131 278
M 181 159.6
Q 173.8 164.4 172.4 164.4 164.85 164.4 152.5 145.65 148.85 140.15 143.45 130.8 138.3 121.9 137 120 123.25 99.6 117.25 87.2 112.25 76.9 110.55 68.55 82.1 78.55 57.45 96.15 57.2 96.45 56.95 96.7 86.35 107.3 105.45 137.15 116.25 154.1 122.3 175.35 127.6 194 128.2 212 129.25 243.15 133.25 270.05
L 183 232.8 195 252
Q 182.65 270.35 137.6 294.3 137.95 295.95 138.35 297.6 189.2 311.8 240.1 302.6 240.6 297.4 241.05 292.2 241.2 290.55 241.35 288.9 241.85 282.6 242.3 276.3 242.35 274.65 242.5 273 243 264.5 243.35 256.05 243.35 254.55 243.45 253.05 243.75 243.4 243.85 233.8 243.85 232.4 243.85 231 243.85 224.85 243.8 218.75 193 187 181 159.6
M 191 154.8
Q 187.85 160.2 191 164 219.5 185.3 243.6 209.15 245.05 210.55 246.5 212 248.7 214.25 250.95 216.55 252.7 218.35 254.45 220.25 262.3 228.5 269.6 237.05 266.4 182.3 250.6 127.6 247 116.8 237.5 104 165.15 59.15 156.25 29.2 152.7 25.3 151.8 21.4
L 151.8 0
Q 145.4 -0.1 140.3 1.35 124.35 22.75 123.8 58 144.75 107.75 173.8 154.8
L 211.4 122.4 191 154.8
M 215.8 142.9
Q 220.2 142.9 223.3 146 226.45 149.15 226.45 153.6 226.45 158 223.3 161.1 220.2 164.25 215.8 164.25 211.35 164.25 208.2 161.1 205.1 158 205.1 153.6 205.1 149.15 208.2 146 211.35 142.9 215.8 142.9 Z"/>

<path fill="#07162E" stroke="none" d="
M 4.85 207.55
L 8.2 212
Q 40.05 261.8 114.2 296 127.1 300.95 140.05 304.4 189.75 317.65 239.45 308.5 239.6 307.1 239.75 305.7 239.9 304.15 240.1 302.6 189.2 311.8 138.35 297.6 126.85 294.4 115.4 290 41.8 256.05 9.85 206.7
L 3.15 197.5
Q 3.9 202.5 4.85 207.55
M 133.25 270.05
L 127.4 274.4
Q 124.35 276.65 125 279.6 128.65 291.2 136.6 294.8 137.1 294.55 137.6 294.3 182.65 270.35 195 252
L 183 232.8 133.25 270.05
M 136.2 288.4
L 131 278 182.6 240.4 188.6 252.4
Q 168.45 272.35 136.35 288.35 136.3 288.35 136.2 288.4
M 223.3 146
Q 220.2 142.9 215.8 142.9 211.35 142.9 208.2 146 205.1 149.15 205.1 153.6 205.1 158 208.2 161.1 211.35 164.25 215.8 164.25 220.2 164.25 223.3 161.1 226.45 158 226.45 153.6 226.45 149.15 223.3 146
M 215.8 146.1
Q 218.9 146.1 221.05 148.3 223.25 150.5 223.25 153.6 223.25 154.55 223.05 155.4 222.6 157.35 221.05 158.85 218.9 161.05 215.8 161.05 212.7 161.05 210.5 158.85 208.3 156.7 208.3 153.6 208.3 151.4 209.4 149.65 209.85 148.95 210.5 148.3 212.7 146.1 215.8 146.1 Z"/>

<path fill="#2C3650" stroke="none" d="
M 8.2 212
L 4.85 207.55
Q 6 213.7 7.4 219.9
L 7.4 219.95
Q 6.6 239.85 18.6 255.2 74.6 319.8 150.85 334.3 144.65 322.25 140.05 304.4 127.1 300.95 114.2 296 40.05 261.8 8.2 212
M 4.2 125.9
Q -0.4 132.25 0.5 139.95 -1.3 168.15 3.15 197.5
L 9.85 206.7
Q 41.8 256.05 115.4 290 126.85 294.4 138.35 297.6 137.95 295.95 137.6 294.3 137.1 294.55 136.6 294.8 128.65 291.2 125 279.6 124.35 276.65 127.4 274.4
L 133.25 270.05
Q 129.25 243.15 128.2 212 127.6 194 122.3 175.35 116.25 154.1 105.45 137.15 86.35 107.3 56.95 96.7
L 4.2 125.9 Z"/>

<path fill="#9FADBD" stroke="none" d="
M 166.2 154.8
Q 169.6 159.35 173.8 154.8 144.75 107.75 123.8 58 124.35 22.75 140.3 1.35 128.75 4.65 123.8 16
L 117 49.6
Q 116.9 53.75 117.25 57.6 113.3 58.9 109.6 60.4 78.3 72.7 57.45 96.15 82.1 78.55 110.55 68.55
L 118.55 65.4
Q 119.7 70.25 121.8 74.4
L 166.2 154.8 Z"/>
</g>

<g id="_______2______________________3_Layer0_0_FILL">
<path fill="#516082" stroke="none" d="
M 126.7 235.95
Q 152.8 237.85 158.4 217.05 138.25 243.2 103.65 213.9 108.35 226.6 119.95 234.3 102.4 251.55 69.9 216.5 79.7 232.45 96.35 243.7 112.3 251.75 126.7 235.95
M 159 214.55
Q 159.95 209.5 159.9 203.25 142.35 208.9 131.6 189.8 144.2 213.65 159 214.55
M 56.4 173.55
Q 56.8 177.25 57.35 180.9 107.4 168.15 139.65 136.2 138 134.55 136.2 132.85 98.3 157.35 56.4 173.55 Z"/>

<path fill="#849EAA" stroke="none" d="
M 139.65 136.2
Q 107.4 168.15 57.35 180.9 60.25 200.9 69.9 216.5 102.4 251.55 119.95 234.3 108.35 226.6 103.65 213.9 138.25 243.2 158.4 217.05 158.7 215.85 159 214.55 144.2 213.65 131.6 189.8 142.35 208.9 159.9 203.25 190.15 188.5 139.65 136.2 Z"/>

<path fill="#334157" stroke="none" d="
M 42.25 153.3
Q 47.5 158.05 59.25 159.1 94.8 156.35 136.2 132.85 137.65 131.8 139.1 130.85
L 130.25 108.6
Q 79.8 142.75 42.25 153.3
M 118.2 -53
Q 96.4 -62.95 72.7 -44.05 42.0380859375 2.482421875 31.85 35.05 31.879296875 35.05703125 31.9 35.05 20.701953125 62.47421875 31.85 91.1 31.825 91.1345703125 31.8 91.15 59.2 143.55 100.5 122.65 112.3 116.15 123.65 108.7 120.55 103.1 117.8 97.35 114.15 94.6 110.8 90.75 104.75 83.4 101.7 80.25 100.85 79.3 100 78.15 95.4 70.75 93.15 63.3
L 93.2 63.25 94.9 58.7
Q 97.7169921875 53.39296875 101.55 48.95
L 101.85 48.6
Q 101.95 48.45 102 48.35 104.55 45.4 107.5 40.8 117.05 25.85 118.35 24.15 125.55 14.45 133.8 9.8
L 134.05 10.15
Q 136.5 6.55 139.1 3 159.5 -34.05 118.2 -53 Z"/>

<path fill="#2C3650" stroke="none" d="
M 50.3 175.85
Q 53.4 174.75 56.4 173.55 98.3 157.35 136.2 132.85 94.8 156.35 59.25 159.1 47.5 158.05 42.25 153.3 39.55 154.1 36.95 154.6
L 43.85 172.9
Q 45.45 175.8 50.3 175.85 Z"/>

<path fill="#9FADBD" stroke="none" d="
M 31.9 35.05
Q 31.879296875 35.05703125 31.85 35.05 42.0380859375 2.482421875 72.7 -44.05 40.91875 -18.54140625 17.8 32.3 17.8671875 32.33125 17.9 32.35 4.4837890625 66.3701171875 20 99.05 19.9736328125 99.082421875 19.95 99.1 21.45 103.1 23.1 107.15
L 40 149.25
Q 36.15 152.2 36.95 154.6 39.55 154.1 42.25 153.3 79.8 142.75 130.25 108.6 128.25 105.8 123.65 108.7 112.3 116.15 100.5 122.65 59.2 143.55 31.8 91.15 31.825 91.1345703125 31.85 91.1 20.701953125 62.47421875 31.9 35.05 Z"/>

<path fill="#1F2639" stroke="none" d="
M 134.05 10.15
L 133.8 9.8
Q 125.55 14.45 118.35 24.15 117.05 25.85 107.5 40.8 104.55 45.4 102 48.35 101.95 48.45 101.85 48.6
L 101.55 48.95
Q 97.7169921875 53.39296875 94.9 58.7
L 93.2 63.25 93.15 63.3
Q 95.4 70.75 100 78.15 100.85 79.3 101.7 80.25 104.75 83.4 110.8 90.75 114.15 94.6 117.8 97.35 109.5818359375 80.76953125 103.1 63.25 116.0810546875 35.7767578125 134.05 10.15 Z"/>
</g>

<g id="_______2___________0_Layer0_0_FILL_FL">
<path fill="#FFFFFF" stroke="none" d="
M 5.8 273.05
L 6.15 290.05
Q 8.05 290.8 10.25 290.95
L 9.85 271.3
Q 7.85 271.85 5.8 273.05
M 17.25 271.45
Q 15.45 270.85 13.7 270.8
L 14.1 290.65
Q 15.75 290.35 17.6 289.75
L 17.25 271.45
M 9.5 254.9
Q 7.55 255.3 5.5 256.3
L 5.75 269.95
Q 7.8 268.75 9.8 268.2
L 9.5 254.9
M 16.9 255.6
Q 15.2 254.8 13.35 254.65
L 13.6 267.65
Q 15.4 267.65 17.15 268.2
L 17 261.8 16.9 255.6
M 16.5 238.65
Q 14.8 238.1 13 238.05
L 13.3 251.75
Q 15.05 251.85 16.8 252.65
L 16.5 238.65
M 9.15 238.55
Q 7.2 239.05 5.15 240.1
L 5.45 254.25
Q 7.45 252.9 9.45 252.25
L 9.15 238.55
M 16.15 220.9
Q 14.35 220.35 12.6 220.3
L 12.95 235.2
Q 14.7 235.3 16.45 235.95
L 16.15 220.9
M 8.75 220.75
Q 6.8 221.25 4.8 222.4
L 5.1 237.25
Q 7.1 236.05 9.1 235.55
L 8.75 220.75
M 8.4 204.2
Q 6.45 204.8 4.5 206.3
L 4.75 219.65
Q 6.7 218.1 8.7 217.45
L 8.4 204.2
M 4.3 198.15
L 4.4 202.75
Q 6.35 201.2 8.35 200.45
L 8.15 192.6
Q 6.2 195.35 4.3 198.15
M 15.8 205.05
Q 14 204.1 12.25 203.9
L 12.55 217
Q 14.25 217.15 16.05 217.95
L 15.8 205.05
M 15.4 186.25
L 15.3 182.85
Q 13.6 185.1 11.9 187.4
L 12.2 199.75
Q 13.9 199.75 15.7 200.45
L 15.4 186.25
M 44.45 123.25
Q 44.6 122.5 44.6 121.7 44.6 119.1 42.75 117.25 40.95 115.4 38.35 115.4 35.75 115.4 33.9 117.25 33.35 117.8 33 118.4 40.7 117.15 44.45 123.25 Z"/>

<path fill="#A9A6A7" stroke="none" d="
M 13.7 270.8
Q 11.75 270.75 9.85 271.3
L 10.25 290.95
Q 12.05 291 14.1 290.65
L 13.7 270.8
M 13.6 267.65
L 13.35 254.65
Q 11.5 254.45 9.5 254.9
L 9.8 268.2
Q 11.7 267.6 13.6 267.65
M 13 238.05
Q 11.1 238 9.15 238.55
L 9.45 252.25
Q 11.4 251.65 13.3 251.75
L 13 238.05
M 12.6 220.3
Q 10.7 220.2 8.75 220.75
L 9.1 235.55
Q 11 235.05 12.95 235.2
L 12.6 220.3
M 12.55 217
L 12.25 203.9
Q 10.35 203.6 8.4 204.2
L 8.7 217.45
Q 10.6 216.8 12.55 217
M 11.9 187.4
Q 10 190 8.15 192.6
L 8.35 200.45
Q 10.25 199.7 12.2 199.75
L 11.9 187.4
M 42.75 126.15
Q 44.05 124.85 44.45 123.25 40.7 117.15 33 118.4 32.05 119.85 32.05 121.7 32.05 124.35 33.9 126.15 35.75 128 38.35 128 40.95 128 42.75 126.15 Z"/>

<path fill="#334157" stroke="none" d="
M 17 261.8
L 17.15 268.2 17.25 271.45 17.6 289.75
Q 21.9 288.3 27.05 285.2 37.4 280.2 36.65 272.45
L 37.3 252.2 17 261.8
M 15.7 200.45
L 15.8 205.05 16.05 217.95 16.15 220.9 16.45 235.95 16.5 238.65 16.8 252.65 16.9 255.6 38.4 244.35
Q 42.05 222.05 43.75 199.75 43.55 162.25 15.4 186.25
L 15.7 200.45
M 74.6 89.8
Q 75.5 89.7 76.25 89.55 81.25 84.85 38.85 14.7 35.5 64.3 21.8 116.05 2.7 186.25 15.4 182.7 40 142.55 59.15 125.25 57.95 110.05 33.7 92.7
L 74.6 89.8
M 44.65 115.35
Q 47.3 118 47.3 121.7 47.3 125.4 44.65 128 42.05 130.65 38.35 130.65 34.6 130.65 31.95 128 29.35 125.4 29.35 121.7 29.35 118 31.95 115.35 34.6 112.75 38.35 112.75 42.05 112.75 44.65 115.35 Z"/>

<path fill="#030411" stroke="none" d="
M 9.8 268.2
Q 7.8 268.75 5.75 269.95
L 5.8 273.05
Q 7.85 271.85 9.85 271.3 11.75 270.75 13.7 270.8 15.45 270.85 17.25 271.45
L 17.15 268.2
Q 15.4 267.65 13.6 267.65 11.7 267.6 9.8 268.2
M 16.8 252.65
Q 15.05 251.85 13.3 251.75 11.4 251.65 9.45 252.25 7.45 252.9 5.45 254.25
L 5.5 256.3
Q 7.55 255.3 9.5 254.9 11.5 254.45 13.35 254.65 15.2 254.8 16.9 255.6
L 16.8 252.65
M 5.15 240.1
Q 7.2 239.05 9.15 238.55 11.1 238 13 238.05 14.8 238.1 16.5 238.65
L 16.45 235.95
Q 14.7 235.3 12.95 235.2 11 235.05 9.1 235.55 7.1 236.05 5.1 237.25
L 5.15 240.1
M 8.7 217.45
Q 6.7 218.1 4.75 219.65
L 4.8 222.4
Q 6.8 221.25 8.75 220.75 10.7 220.2 12.6 220.3 14.35 220.35 16.15 220.9
L 16.05 217.95
Q 14.25 217.15 12.55 217 10.6 216.8 8.7 217.45
M 15.7 200.45
Q 13.9 199.75 12.2 199.75 10.25 199.7 8.35 200.45 6.35 201.2 4.4 202.75
L 4.5 206.3
Q 6.45 204.8 8.4 204.2 10.35 203.6 12.25 203.9 14 204.1 15.8 205.05
L 15.7 200.45 Z"/>

<path fill="#07162E" stroke="none" d="
M 37.3 252.2
L 37.35 250.45
Q 37.9 247.4 38.4 244.35
L 16.9 255.6 17 261.8 37.3 252.2
M 47.3 121.7
Q 47.3 118 44.65 115.35 42.05 112.75 38.35 112.75 34.6 112.75 31.95 115.35 29.35 118 29.35 121.7 29.35 125.4 31.95 128 34.6 130.65 38.35 130.65 42.05 130.65 44.65 128 47.3 125.4 47.3 121.7
M 44.45 123.25
Q 44.05 124.85 42.75 126.15 40.95 128 38.35 128 35.75 128 33.9 126.15 32.05 124.35 32.05 121.7 32.05 119.85 33 118.4 33.35 117.8 33.9 117.25 35.75 115.4 38.35 115.4 40.95 115.4 42.75 117.25 44.6 119.1 44.6 121.7 44.6 122.5 44.45 123.25 Z"/>

<path fill="#2C3650" stroke="none" d="
M 15.4 182.75
Q 15.35 182.75 15.3 182.85
L 15.4 186.25
Q 43.55 162.25 43.75 199.75 45.7 173.65 45 147.55 28.9 164.8 15.4 182.7
L 15.4 182.75 Z"/>

<path fill="#9FADBD" stroke="none" d="
M 45 147.55
Q 51.15 140.9 57.7 134.35 60.35 131.7 63.05 129.05 79.55 113.3 33.7 92.7 57.95 110.05 59.15 125.25 40 142.55 15.4 182.7 28.9 164.8 45 147.55
M 29.9 0
Q 34.6 7.65 38.85 14.7 81.25 84.85 76.25 89.55 82.65 88.3 82.4 82.7 64.05 39.7 29.9 0 Z"/>

<path fill="#1B2132" stroke="none" d="
M 38.85 14.7
Q 34.6 7.65 29.9 0 26.65 82.15 3.7 153.3 -0.75 178.1 0.15 204.4 0.25 208.25 0.5 212.15
L 0.5 285.2
Q 2.8 288.7 6.15 290.05
L 5.8 273.05 5.75 269.95 5.5 256.3 5.45 254.25 5.15 240.1 5.1 237.25 4.8 222.4 4.75 219.65 4.5 206.3 4.4 202.75 4.3 198.15
Q 6.2 195.35 8.15 192.6 10 190 11.9 187.4 13.6 185.1 15.3 182.85 15.35 182.75 15.4 182.75
L 15.4 182.7
Q 2.7 186.25 21.8 116.05 35.5 64.3 38.85 14.7 Z"/>
</g>
</defs>

<g transform="matrix( 0.597442626953125, 0, 0, 0.597442626953125, 168.9,314.45) ">
<g transform="matrix( 1, 0, 0, 1, -69.4,172.85) ">
<g transform="matrix( 1, 0, 0, 1, 0,0) ">
<use xlink:href="#_______2_______________0_Layer0_0_FILL"/>
</g>
</g>

<g transform="matrix( 0.1781463623046875, 0.983978271484375, -0.983978271484375, 0.1781463623046875, 211.7,-7.9) ">
<g transform="matrix( 1, 0, 0, 1, 0,0) ">
<use xlink:href="#_______2_______________________2_Layer1_0_FILL"/>
</g>
</g>

<g transform="matrix( 1, 0, 0, 1, -322.85,-177.25) ">
<g transform="matrix( 1, 0, 0, 1, 0,0) ">
<use xlink:href="#_______2_____________1_Layer1_0_FILL"/>
</g>
</g>

<g transform="matrix( 1, 0, 0, 1, -196.65,198.7) ">
<g transform="matrix( 1, 0, 0, 1, 0,0) ">
<use xlink:href="#_______2________________0_Layer0_0_FILL"/>
</g>
</g>

<g transform="matrix( 1, 0, 0, 1, 20.25,-180.2) ">
<g transform="matrix( 0.7890625, 0.105010986328125, -0.103118896484375, 0.803619384765625, -221.05,-87.9) ">
<g transform="matrix( 1, 0, 0, 1, 0,0) ">
<use xlink:href="#_______________________0_Layer0_0_FILL"/>
</g>
</g>

<g transform="matrix( 1, 0, 0, 1, 0,0) ">
<use xlink:href="#_______2_mc______________1_0_Layer8_0_FILL"/>
</g>

<g transform="matrix( 1, 0, 0, 1, 36.45,-95.35) ">
<g transform="matrix( 1, 0, 0, 1, 0,0) ">
<use xlink:href="#_______2__________________0_Layer0_0_FILL"/>
</g>
</g>

<g transform="matrix( 1, 0, 0, 1, 91.25,-66.5) ">
<g transform="matrix( 1, 0, 0, 1, 0,0) ">
<use xlink:href="#_______2_______________0_Layer0_0_FILL_FL"/>
</g>
</g>

<g transform="matrix( 1, 0, 0, 1, -96.4,-105.85) ">
<g transform="matrix( 1, 0, 0, 1, 0,0) ">
<use xlink:href="#_______2________________0_Layer0_0_FILL_FL"/>
</g>
</g>

<g transform="matrix( 1, 0, 0, 1, -79.35,-87.15) ">
<g transform="matrix( 1, 0, 0, 1, 0,0) ">
<use xlink:href="#_______2___________________0_Layer0_0_FILL"/>
</g>
</g>

<g transform="matrix( 0.7890625, 0.105010986328125, -0.103118896484375, 0.803619384765625, -132.8,-232.1) ">
<g transform="matrix( 1, 0, 0, 1, 0,0) ">
<use xlink:href="#________________________0_Layer0_0_FILL"/>
</g>
</g>

<g transform="matrix( 0.7890625, 0.105010986328125, -0.103118896484375, 0.803619384765625, -137.3,-242.75) ">
<g transform="matrix( 1, 0, 0, 1, 0,0) ">
<use xlink:href="#___________________0_Layer2_0_FILL"/>
</g>
</g>

<g transform="matrix( 1, 0, 0, 1, 25.05,-25.75) ">
<g transform="matrix( 1, 0, 0, 1, 0,0) ">
<use xlink:href="#_______2____________0_Layer1_0_FILL"/>
</g>
</g>
</g>

<g transform="matrix( 1, 0, 0, 1, -249,-119.2) ">
<g transform="matrix( 1, 0, 0, 1, 0,0) ">
<use xlink:href="#_______2___________0_Layer0_0_FILL"/>
</g>
</g>

<g transform="matrix( 1, 0, 0, 1, -263.65,28.05) ">
<g transform="matrix( 1, 0, 0, 1, 0,0) ">
<use xlink:href="#_______2______________________3_Layer0_0_FILL"/>
</g>
</g>

<g transform="matrix( 1, 0, 0, 1, 119.75,-85.6) ">
<g transform="matrix( 1, 0, 0, 1, 0,0) ">
<use xlink:href="#_______2___________0_Layer0_0_FILL_FL"/>
</g>
</g>
</g>
</svg>
