
<svg xmlns="http://www.w3.org/2000/svg" version="1.1" xmlns:xlink="http://www.w3.org/1999/xlink" preserveAspectRatio="none" x="0px" y="0px" width="27px" height="25px" viewBox="0 0 27 25">
<defs>
<g id="Layer0_0_FILL">
<path fill="#AC5B00" stroke="none" d="
M 5.35 23.4
Q 6.2 24.4 8.05 24.25
L 13.3 22.1 17.95 24.4
Q 20.55 24.95 21.75 23.85
L 15.35 20.3
Q 13.4 19.05 11.05 20.3
L 5.35 23.4
M 0.2 10.35
Q 0.2 10.7 0.3 11.15
L 4.6 15.75 4.6 20.85
Q 6.35 18 6.1 15.1 5.55 13.85 3.7 12.55 2.25 11.45 0.2 10.35
M 21.6 14.8
Q 21.55 18.2 22.4 21.75
L 22.8 15.75
Q 25.75 13.4 26.75 10.85 24.85 11.75 23.6 12.7 22.05 13.8 21.6 14.8 Z"/>

<path fill="#FDD707" stroke="none" d="
M 21.75 23.85
Q 22.05 23.6 22.3 23.2
L 22.4 21.75
Q 21.55 18.2 21.6 14.8 22.05 13.8 23.6 12.7 20.6 10.85 14.6 10.35 8.7 10.45 3.7 12.55 5.55 13.85 6.1 15.1 6.35 18 4.6 20.85
L 4.6 21.85
Q 4.8 22.9 5.35 23.4
L 11.05 20.3
Q 13.4 19.05 15.35 20.3
L 21.75 23.85 Z"/>

<path fill="#FEF726" stroke="none" d="
M 26.75 10.85
Q 27.35 8.2 25.1 7.55
L 18.7 6.6 15.65 1.5
Q 13.35 -0.8 11.4 1.5
L 8.65 6.35 2.25 7.5
Q -0.05 8 0.2 10.35 2.25 11.45 3.7 12.55 8.7 10.45 14.6 10.35 20.6 10.85 23.6 12.7 24.85 11.75 26.75 10.85
M 23 9.05
Q 23.4 9.1 23.7 9.15 24.95 9.45 24.95 9.95 24.95 10.15 24.5 10.4 24 10.7 23.4 10.7 22.85 10.7 22.65 10.55 22.35 10.45 22.35 9.95 22.35 9.45 22.5 9.3 22.65 9.15 23 9.05
M 11.55 4.85
Q 12.05 3.9 12.5 3.5 13.95 3.45 13.95 5.65 13.95 6.6 13.75 6.95 13.4 7.85 12.35 7.85 11.7 7.85 11.35 7.7 11 7.4 11 6.8 11 6.15 11.55 4.85 Z"/>

<path fill="#FAFED8" stroke="none" d="
M 12.5 3.5
Q 12.05 3.9 11.55 4.85 11 6.15 11 6.8 11 7.4 11.35 7.7 11.7 7.85 12.35 7.85 13.4 7.85 13.75 6.95 13.95 6.6 13.95 5.65 13.95 3.45 12.5 3.5
M 23.7 9.15
Q 23.4 9.1 23 9.05 22.65 9.15 22.5 9.3 22.35 9.45 22.35 9.95 22.35 10.45 22.65 10.55 22.85 10.7 23.4 10.7 24 10.7 24.5 10.4 24.95 10.15 24.95 9.95 24.95 9.45 23.7 9.15 Z"/>
</g>
</defs>

<g transform="matrix( 1, 0, 0, 1, 0,0) ">
<use xlink:href="#Layer0_0_FILL"/>
</g>
</svg>
