
<svg xmlns="http://www.w3.org/2000/svg" version="1.1" xmlns:xlink="http://www.w3.org/1999/xlink" preserveAspectRatio="none" x="0px" y="0px" width="124px" height="126px" viewBox="0 0 124 126">
<defs>
<g id="_______________0_Layer2_0_FILL">
<path fill="#000000" fill-opacity="0.2980392156862745" stroke="none" d="
M 26.9 -2.5
Q 19.25 -2.5 13.55 -0.5 0.25 3.9 -2.95 18.65 -3.65 21.9 -3.85 25.6 -4 27.25 -4 29.05
L -4 122.35
Q -4 126 -3.55 129.25 -3.45 129.95 -3.35 130.7 -3.3 131.3 -3.2 131.9 -2.75 134.2 -2 136.45 -1.8 136.95 -1.6 137.5 -1.35 138.15 -0.95 138.85 0.35 141.95 2.35 144.4 6.5 149.6 13.55 152 19.25 153.85 26.9 153.85
L 119.85 153.85
Q 127.5 153.85 133.25 152 140.3 149.6 144.4 144.4 146.45 141.95 147.75 138.85 148.3 137.65 148.75 136.45 149.5 134.2 149.95 131.9 150.1 130.55 150.3 129.25 150.75 126 150.75 122.35
L 150.75 29.05
Q 150.75 27.25 150.65 25.6 149.5 4.9 133.25 -0.5 127.5 -2.5 119.85 -2.5
L 26.9 -2.5 Z"/>
</g>

<g id="_______________0_Layer1_0_FILL">
<path fill="#A20000" stroke="none" d="
M 2.95 107.45
Q 2.9 106.9 2.85 106.35
L 2 100.6 2 115.3
Q 2 118.6 2.4 121.55 2.5 122.2 2.6 122.85 2.65 123.4 2.7 123.95 3.15 126.05 3.85 128.05 4 128.5 4.2 129 4.45 129.6 4.8 130.25 6 133.05 7.85 135.25 11.65 139.95 18.15 142.15 23.45 143.8 30.5 143.8
L 116.25 143.8
Q 123.3 143.8 128.6 142.15 135.1 139.95 138.9 135.25 140.75 133.05 141.95 130.25 142.5 129.15 142.9 128.05 143.6 126.05 144 123.95 144.15 122.75 144.3 121.55 144.75 118.6 144.75 115.3
L 144.75 103.5
Q 144.6646484375 104.2984375 144.55 105.05 144.4 106.25 144.25 107.45 144.15 108.05 144 108.65 143.65 110.1 143.15 111.55 142.75 112.65 142.2 113.75 141 116.55 139.15 118.75 135.35 123.45 128.85 125.65 123.55 127.3 116.5 127.3
L 30.75 127.3
Q 23.7 127.3 18.4 125.65 13.9263671875 124.1259765625 10.75 121.5 10.7037109375 121.4453125 10.65 121.4 9.25 120.15 8.1 118.75 6.25 116.55 5.05 113.75 4.7 113.1 4.45 112.5 4.25 112 4.1 111.55 3.4 109.55 2.95 107.45 Z"/>

<path fill="#FF0000" stroke="none" d="
M 144.75 30.95
Q 144.05 29.3 143.2 27.8 138.2 18.75 128.6 14.75 123 12.4 115.5 11.75
L 31.2 11.75
Q 28.25 12.05 25.6 12.55 21.55 13.3 18.15 14.75 14.05 16.45 10.8 19.1 6.4 22.6 3.55 27.8 2.7 29.3 2 30.95
L 2 100.6 2.85 106.35
Q 2.9 106.9 2.95 107.45 3.4 109.55 4.1 111.55 4.25 112 4.45 112.5 4.7 113.1 5.05 113.75 6.25 116.55 8.1 118.75 9.25 120.15 10.65 121.4 10.7037109375 121.4453125 10.75 121.5 13.9263671875 124.1259765625 18.4 125.65 23.7 127.3 30.75 127.3
L 116.5 127.3
Q 123.55 127.3 128.85 125.65 135.35 123.45 139.15 118.75 141 116.55 142.2 113.75 142.75 112.65 143.15 111.55 143.65 110.1 144 108.65 144.15 108.05 144.25 107.45 144.4 106.25 144.55 105.05 144.6646484375 104.2984375 144.75 103.5
L 144.75 30.95
M 52.05 21.8
Q 54.15 23 54.15 24.75 54.15 26.45 52.05 27.65 50 28.85 47.05 28.85 44.1 28.85 42 27.65 39.9 26.45 39.9 24.75 39.9 23 42 21.8 44.05 20.6 47 20.6 50 20.6 52.05 21.8
M 29.9 22.1
Q 33.7 22 35 24.4 36.35 26.7 34.45 30 32.6 33.2 28.6 35.5 24.7 37.8 20.9 37.8 17.15 37.75 15.85 35.45 14.5 33.1 16.35 29.9 18.25 26.65 22.2 24.3 26.15 22 29.9 22.1 Z"/>

<path fill="#FF9176" stroke="none" d="
M 35 24.4
Q 33.7 22 29.9 22.1 26.15 22 22.2 24.3 18.25 26.65 16.35 29.9 14.5 33.1 15.85 35.45 17.15 37.75 20.9 37.8 24.7 37.8 28.6 35.5 32.6 33.2 34.45 30 36.35 26.7 35 24.4
M 54.15 24.75
Q 54.15 23 52.05 21.8 50 20.6 47 20.6 44.05 20.6 42 21.8 39.9 23 39.9 24.75 39.9 26.45 42 27.65 44.1 28.85 47.05 28.85 50 28.85 52.05 27.65 54.15 26.45 54.15 24.75
M 144.75 30.95
Q 144.75 29.35 144.65 27.85 143.6 9.15 128.6 4.25 123.3 2.45 116.25 2.45
L 30.5 2.45
Q 23.45 2.45 18.15 4.25 5.9 8.25 2.95 21.55 2.3 24.5 2.1 27.85 2 29.35 2 30.95 2.7 29.3 3.55 27.8 6.4 22.6 10.8 19.1 14.05 16.45 18.15 14.75 21.55 13.3 25.6 12.55 28.25 12.05 31.2 11.75
L 115.5 11.75
Q 123 12.4 128.6 14.75 138.2 18.75 143.2 27.8 144.05 29.3 144.75 30.95 Z"/>
</g>

<g id="_______________0_Layer0_0_FILL">
<path fill="#FFFFFF" stroke="none" d="
M 83.15 32.85
Q 81.85 33.8 81 35.95
L 75.1 48.85
Q 74.85 49.5 74.45 50.1 74.05 50.75 73.5 50.85 72.9 50.75 72.55 50.3 72.15 49.8 71.85 49
L 65.95 35.95
Q 65 33.9 63.65 32.95 62.3 31.9 60.3 31.9
L 44.8 31.9
Q 44.4 31.9 43.2 32.05 42.1 32.25 41.4 33.1 40.65 34 41.55 35.95
L 58.8 72.45
Q 59.45 73.8 59.6 74.3 59.85 74.85 59.75 75.1 59.75 75.5 59.5 76.15 59.25 76.75 59.1 77
L 39.05 117.95
Q 38.3 119.8 38.85 121.15 39.45 122.4 41.55 122.5
L 57.2 122.5
Q 59.05 122.6 60.65 121.7 62.2 120.75 63.55 117.95
L 72 100
Q 72.15 99.85 72.4 99.35 72.65 98.95 72.95 98.9 73.45 98.95 73.75 99.35 74 99.85 74.15 100
L 83.35 120.2
Q 84.25 121.85 85.85 122.2 87.45 122.6 88.15 122.5
L 102.8 122.5
Q 104.55 122.5 105.7 122.2 106.85 121.85 106.85 120.65 106.85 119.8 106.7 119.25 106.45 118.7 106.2 118.15
L 87.2 78.05
Q 86.8 77.15 86.5 76.7 86.15 76.2 86.15 75.75 86.15 75.1 86.5 74.45 86.8 73.75 87.2 73.1
L 105.4 35.95
Q 106.05 34.75 105.9 33.4 105.7 32.05 102.6 31.9
L 86.3 31.9
Q 84.35 31.9 83.15 32.85 Z"/>
</g>
</defs>

<g transform="matrix( 0.80084228515625, 0, 0, 0.80084228515625, 3.25,2.4) ">
<g transform="matrix( 1, 0, 0, 1, 0,0) ">
<use xlink:href="#_______________0_Layer2_0_FILL"/>
</g>

<g transform="matrix( 1, 0, 0, 1, 0,0) ">
<use xlink:href="#_______________0_Layer1_0_FILL"/>
</g>

<g transform="matrix( 1, 0, 0, 1, 0,0) ">
<use xlink:href="#_______________0_Layer0_0_FILL"/>
</g>
</g>
</svg>
