
<svg xmlns="http://www.w3.org/2000/svg" version="1.1" xmlns:xlink="http://www.w3.org/1999/xlink" preserveAspectRatio="none" x="0px" y="0px" width="320px" height="135px" viewBox="0 0 320 135">
<defs>
<g id="_______19_0_Layer1_0_FILL">
<path fill="#000000" fill-opacity="0.2980392156862745" stroke="none" d="
M 176.85 -1.25
L 23.05 -1.25
Q 16.9 -1.25 12.2 0.55 -0.85 5.45 -1.75 24.05 -1.8 25.15 -1.85 26.35
L -1.85 37.35 -1.8 37.35 -1.8 40.95 -1.85 40.95 -1.85 48.75 -1.8 48.75 -1.8 52.35 -1.85 52.35 -1.85 57
Q -1.85 57.7 -1.8 58.45 -1.7 60.3 -1.5 62.05 -1.35 63.2 -1.2 64.4 -0.85 66.5 -0.25 68.45 0.15 69.6 0.6 70.7 1.6 73.45 3.25 75.7 6.6 80.4 12.2 82.5 16.9 84.2 23.05 84.2
L 176.85 84.2
Q 197.2 84.2 201 65.25 201.15 64.1 201.35 63.05 201.7 60.3 201.75 57.25
L 201.75 26.2
Q 201.75 24.8 201.65 23.35 201.6 22.1 201.45 20.95 198.95 -1.25 176.85 -1.25 Z"/>
</g>

<g id="_______19_0_Layer0_0_FILL">
<path fill="#AAAAAA" stroke="none" d="
M 199.8 43.25
Q 199.75 46.05 199.4 48.6 199.2 49.55 199.05 50.6 197.45 58.2 192.7 62.5 186.6 68 175.35 68
L 24.45 68
Q 18.4 68 13.8 66.45 9.8 65.05 6.95 62.35 6.85 62.3 6.8 62.2 5.8 61.25 5 60.2 3.4 58.15 2.4 55.6 1.95 54.6 1.55 53.55 1 51.75 0.65 49.85 0.5 48.75 0.35 47.65 0.05 45.5 0 43.1
L 0 45.9 0.05 45.9 0.05 49.2 0 49.2 0 53.5
Q 0 53.8 0.05 54.15 0.05 54.45 0.05 54.8 0.15 56.45 0.35 57.95 0.35 58.05 0.35 58.1 0.5 59.2 0.65 60.3 1 62.2 1.55 64 1.95 65.05 2.4 66.05 3.4 68.6 5 70.65 8.3 74.95 13.8 76.9 18.4 78.45 24.45 78.45
L 175.35 78.45
Q 195.35 78.45 199.05 61.05 199.2 60 199.4 59.05 199.45 58.85 199.45 58.6 199.45 58.5 199.5 58.45 199.5 58.35 199.5 58.25 199.5 58.05 199.55 57.9 199.6 57.55 199.6 57.2 199.75 55.5 199.8 53.7
L 199.8 43.25 Z"/>

<path fill="#CCCCCC" stroke="none" d="
M 199.8 43.25
L 199.8 30.6
Q 199.775 29.9 199.7 29.15 199.65 28 199.5 26.95 197.55 10.75 183.5 7.45 179.85 6.55 175.35 6.55
L 24.45 6.55
Q 19.65 6.55 15.8 7.6 14.75 7.85 13.8 8.2 1 12.7 0.1 29.8 0.05 30.8 0 31.9
L 0 35.45 0.05 35.45 0.05 38.75 0 38.75 0 43.1
Q 0.05 45.5 0.35 47.65 0.5 48.75 0.65 49.85 1 51.75 1.55 53.55 1.95 54.6 2.4 55.6 3.4 58.15 5 60.2 5.8 61.25 6.8 62.2 6.85 62.3 6.95 62.35 9.8 65.05 13.8 66.45 18.4 68 24.45 68
L 175.35 68
Q 186.6 68 192.7 62.5 197.45 58.2 199.05 50.6 199.2 49.55 199.4 48.6 199.75 46.05 199.8 43.25
M 45 13.2
Q 46.9 14.35 46.9 16.05 46.9 17.75 44.8 18.95 42.75 20.15 39.8 20.15 36.85 20.15 34.75 18.95 32.65 17.75 32.65 16.05 32.65 14.35 34.6 13.2 34.65 13.15 34.75 13.1 36.8 11.9 39.75 11.9 42.75 11.9 44.8 13.1 44.9 13.15 45 13.2
M 27.75 15.7
Q 29.1 18 27.2 21.3 26.8 21.95 26.35 22.6 24.55 24.95 21.35 26.8 18.65 28.4 16 28.9 14.8 29.1 13.65 29.1 9.9 29.05 8.6 26.75 7.4 24.65 8.75 21.9 8.9 21.55 9.1 21.2 11 17.95 14.95 15.6 18.9 13.3 22.65 13.4 23.95 13.35 25 13.65 26.9 14.15 27.75 15.7 Z"/>

<path fill="#EBEBEB" stroke="none" d="
M 27.2 21.3
Q 29.1 18 27.75 15.7 26.9 14.15 25 13.65 23.95 13.35 22.65 13.4 18.9 13.3 14.95 15.6 11 17.95 9.1 21.2 8.9 21.55 8.75 21.9 7.4 24.65 8.6 26.75 9.9 29.05 13.65 29.1 14.8 29.1 16 28.9 18.65 28.4 21.35 26.8 24.55 24.95 26.35 22.6 26.8 21.95 27.2 21.3
M 46.9 16.05
Q 46.9 14.35 45 13.2 44.9 13.15 44.8 13.1 42.75 11.9 39.75 11.9 36.8 11.9 34.75 13.1 34.65 13.15 34.6 13.2 32.65 14.35 32.65 16.05 32.65 17.75 34.75 18.95 36.85 20.15 39.8 20.15 42.75 20.15 44.8 18.95 46.9 17.75 46.9 16.05
M 199.7 22.6
Q 199.65 21.45 199.5 20.4 197.05 0 175.35 0
L 24.45 0
Q 18.4 0 13.8 1.65 1 6.15 0.1 23.25 0.05 24.25 0 25.35
L 0 31.9
Q 0.05 30.8 0.1 29.8 1 12.7 13.8 8.2 14.75 7.85 15.8 7.6 19.65 6.55 24.45 6.55
L 175.35 6.55
Q 179.85 6.55 183.5 7.45 197.55 10.75 199.5 26.95 199.65 28 199.7 29.15 199.775 29.9 199.8 30.6
L 199.8 25.2
Q 199.8 24 199.7 22.85 199.7 22.7 199.7 22.6 Z"/>
</g>
</defs>

<g transform="matrix( 1.557861328125, 0, 0, 1.557861328125, -35.05,-3) ">
<g transform="matrix( 1, 0, 0, 1, 25.25,3.8) ">
<g transform="matrix( 1, 0, 0, 1, 0,0) ">
<use xlink:href="#_______19_0_Layer1_0_FILL"/>
</g>

<g transform="matrix( 1, 0, 0, 1, 0,0) ">
<use xlink:href="#_______19_0_Layer0_0_FILL"/>
</g>
</g>
</g>
</svg>
