
<svg xmlns="http://www.w3.org/2000/svg" version="1.1" xmlns:xlink="http://www.w3.org/1999/xlink" preserveAspectRatio="none" x="0px" y="0px" width="964px" height="964px" viewBox="0 0 964 964">
<defs>
<g id="Layer0_0_FILL">
<path fill="#A97222" stroke="none" d="
M 3 31.85
Q 0.3 39.25 0.3 47.75
L 0.3 916.3
Q 0.3 935.8 14.6 949.55 28.9 963.35 49.2 963.35
L 914.85 963.35
Q 935.15 963.35 949.45 949.55 958.2 941.15 961.65 930.5 936.6 948.1 911.6 946.65
L 73 946.65
Q 58.15 945.45 46.95 941.1 18.3 929.95 13 898.4
L 13 70.5 16.7 23.7
Q 9.55 27.15 3 31.85
M 665.2 140.85
Q 665.15 141.15 665 141.45
L 665.2 141.45
Q 665.2 141.25 665.2 141.05
L 665.2 140.85
M 718.4 42
Q 709.8 34.35 697.55 34.35
L 680.2 34.35 665.2 34.35 262.65 34.35
Q 253.45 34.35 246.3 38.75
L 257.75 48.85
Q 264.7 44.9 273.85 44.9
L 582.9 44.95
Q 583.05 44.95 583.2 44.95 583.65 44.9 584.1 44.9
L 686.45 44.9
Q 697.55 44.9 705.4 50.75 707.3 52.15 708.75 53.65 713.25 58.45 713.25 64.65
L 713.25 121.6
Q 713.25 129.4 706.25 134.95
L 727.05 119.35 727.05 60.65
Q 727.05 57 726.1 53.65 724.1 47.15 718.4 42
M 761.3 141.05
L 761.3 140.85
Q 759.2 146.95 754.25 151.85 745.45 160.6 733.05 160.6
L 228.3 160.6
Q 215.85 160.6 207.1 151.85 202.05 146.85 199.9 140.65
L 199.9 141.05
Q 199.9 153.4 208.65 162.15 217.35 170.85 229.7 170.85
L 731.5 170.85
Q 743.9 170.85 752.6 162.15 761.3 153.4 761.3 141.05 Z"/>

<path fill="#E5AD50" stroke="none" d="
M 950.95 61.15
Q 942.4 16.2 911.6 14.45
L 54.85 14.45
Q 34.05 15.4 16.7 23.7
L 13 70.5 13 898.4
Q 18.3 929.95 46.95 941.1 58.15 945.45 73 946.65
L 911.6 946.65
Q 936.6 948.1 961.65 930.5
L 958.3 903.8 957.85 834 954.75 719.4 952.8 458.5 957.65 458.5 957.5 440.5 952.65 440.5 951.9 209.95 950.95 61.15
M 810.9 162.15
Q 819.6 170.85 831.95 170.85
L 938.2 170.85 938.2 885.65
Q 938.2 902.65 926.9 915.1 926 916.05 925.05 916.95 912.25 929.5 894.35 929.9
L 70.95 929.9
Q 52.25 929.9 39.1 916.95 25.95 904 25.95 885.65
L 25.95 78.45
Q 25.95 60.05 39.1 47.15 52.25 34.2 70.95 34.2
L 199.9 34.2 199.9 140.65
Q 202.05 146.85 207.1 151.85 215.85 160.6 228.3 160.6
L 733.05 160.6
Q 745.45 160.6 754.25 151.85 759.2 146.95 761.3 140.85
L 761.3 34.2 802.15 34.2 802.15 141.05
Q 802.15 153.4 810.9 162.15
M 697.55 34.35
Q 709.8 34.35 718.4 42 724.1 47.15 726.1 53.65 727.05 57 727.05 60.65
L 727.05 119.35 727.05 125.7
Q 727.05 136.55 718.4 144.2 709.8 151.95 697.55 151.95
L 262.65 151.95
Q 250.5 151.95 241.9 144.2 233.25 136.55 233.25 125.7
L 233.25 60.65
Q 233.25 49.75 241.9 42 244 40.2 246.3 38.75 253.45 34.35 262.65 34.35
L 665.2 34.35 665.2 34.2 680.2 34.2 680.2 34.35 697.55 34.35 Z"/>

<path fill="#FFC059" stroke="none" d="
M 727.05 125.7
L 727.05 119.35 706.25 134.95
Q 706.1 134.95 706 135.15 705.75 135.3 705.4 135.6 697.55 141.45 686.45 141.45
L 680.4 141.45
Q 680.3 141.45 680.2 141.45
L 665.2 141.45 665 141.45 369.95 141.45
Q 369.3 141.45 368.6 141.45
L 273.85 141.45
Q 262.7 141.45 254.85 135.6 247 129.8 247 121.6
L 247 64.65
Q 247 56.5 254.85 50.75 256.3 49.7 257.75 48.85
L 246.3 38.75
Q 244 40.2 241.9 42 233.25 49.75 233.25 60.65
L 233.25 125.7
Q 233.25 136.55 241.9 144.2 250.5 151.95 262.65 151.95
L 697.55 151.95
Q 709.8 151.95 718.4 144.2 727.05 136.55 727.05 125.7
M 963.75 47.75
Q 963.75 28.25 949.45 14.45 935.15 0.7 914.85 0.7
L 49.2 0.7
Q 28.9 0.7 14.6 14.45 6.5 22.25 3 31.85 9.55 27.15 16.7 23.7 34.05 15.4 54.85 14.45
L 911.6 14.45
Q 942.4 16.2 950.95 61.15
L 951.9 209.95 952.65 440.5 957.5 440.5 957.65 458.5 952.8 458.5 954.75 719.4 957.85 834 958.3 903.8 961.65 930.5
Q 961.75 930.2 961.85 929.9 963.75 923.5 963.75 916.3
L 963.75 47.75 Z"/>

<path fill="#3A2520" stroke="none" d="
M 708.75 53.65
Q 707.3 52.15 705.4 50.75 697.55 44.9 686.45 44.9
L 584.1 44.9
Q 583.65 44.9 583.2 44.95 583.05 44.95 582.9 44.95
L 273.85 44.9
Q 264.7 44.9 257.75 48.85 256.3 49.7 254.85 50.75 247 56.5 247 64.65
L 247 121.6
Q 247 129.8 254.85 135.6 262.7 141.45 273.85 141.45
L 368.6 141.45
Q 369.3 141.45 369.95 141.45
L 665 141.45
Q 665.15 141.15 665.2 140.85
L 665.2 141.05
Q 665.2 141.25 665.2 141.45
L 680.2 141.45
Q 680.3 141.45 680.4 141.45
L 686.45 141.45
Q 697.55 141.45 705.4 135.6 705.75 135.3 706 135.15 706.1 134.95 706.25 134.95 713.25 129.4 713.25 121.6
L 713.25 64.65
Q 713.25 58.45 708.75 53.65 Z"/>

<path fill="#582F11" stroke="none" d="
M 665.2 34.2
L 665.2 34.35 680.2 34.35 680.2 34.2 665.2 34.2
M 831.95 170.85
Q 819.6 170.85 810.9 162.15 802.15 153.4 802.15 141.05
L 802.15 34.2 761.3 34.2 761.3 140.85 761.3 141.05
Q 761.3 153.4 752.6 162.15 743.9 170.85 731.5 170.85
L 229.7 170.85
Q 217.35 170.85 208.65 162.15 199.9 153.4 199.9 141.05
L 199.9 140.65 199.9 34.2 70.95 34.2
Q 52.25 34.2 39.1 47.15 25.95 60.05 25.95 78.45
L 25.95 885.65
Q 25.95 904 39.1 916.95 52.25 929.9 70.95 929.9
L 894.35 929.9
Q 912.25 929.5 925.05 916.95 926 916.05 926.9 915.1 938.2 902.65 938.2 885.65
L 938.2 170.85 831.95 170.85
M 821.8 183.15
L 925.5 183.2 925.5 245.2 925.5 872.25
Q 925.5 889.95 912.85 902.5 901.35 913.95 885.5 915
L 728.5 915.1 728.5 915
Q 727.55 915.05 726.6 915.1
L 619.6 915.1 242 915.1
Q 237.45 915.1 233.25 914.3
L 73.05 913.55 73.05 914.3
Q 71.5 913.95 69.95 913.55 59.5 910.65 51.35 902.5 38.75 889.95 38.75 872.25
L 38.75 616 38.75 95.7
Q 38.75 77.9 51.35 65.4 60.7 56 73.05 53.65
L 185.2 53.65
Q 185.6 53.6 186.1 53.5 187.15 53.3 188.2 53.2
L 188.2 151.8
Q 188.2 164.85 197.4 174 206.55 183.15 219.55 183.15
L 358.3 183.15 741.75 183.15
Q 754.7 183.15 763.9 174 772.75 165.15 773.05 152.65
L 773.05 53.65 787.4 53.65
Q 788.9 53.4 790.45 53.2
L 790.45 151.8
Q 790.45 164.85 799.65 174 808.8 183.15 821.8 183.15 Z"/>

<path fill="#0099CC" stroke="none" d="
M 376.05 363.55
Q 352.55 349 339.55 338.3 322.25 324.1 313.7 309.55 303.9 292.9 303.9 273.35 303.9 231 358.3 183.15
L 219.55 183.15
Q 206.55 183.15 197.4 174 188.2 164.85 188.2 151.8
L 188.2 53.2
Q 187.15 53.3 186.1 53.5 185.6 53.6 185.2 53.65
L 73.05 53.65
Q 60.7 56 51.35 65.4 38.75 77.9 38.75 95.7
L 38.75 616
Q 56.55 624.15 79.05 636.9 93.9 645.35 124.45 663.35 183.4 697.35 231.2 712.85 300.5 735.35 383.9 735.35 440.65 735.35 472.4 725.35 502.45 715.9 516.05 695.55 527.7 678 530.55 646.1 531.7 633.4 531.9 614.15 531.9 613.8 531.9 577.35 531.9 507.7 496.3 458.4 491.5 451.8 486 445.45 474.5 432.1 459.75 419.65 442.75 405.25 417.9 389.35 389.4 371.85 376.05 363.55 Z"/>

<path fill="#008AB8" stroke="none" d="
M 925.5 245.2
Q 819.15 306.4 771.2 351.65 723.55 396.7 707.3 448.15 705.15 454.95 703.4 462.2 699.1 480 697.2 500.65 695 524.8 695.65 559.75 695.9 571.85 698.1 628.35 699.9 675.35 699.9 709.35 699.9 779.4 681.7 828.75 663.05 879.35 624.05 911.55 621.85 913.35 619.6 915.1
L 726.6 915.1
Q 727.55 915.05 728.5 915
L 728.5 915.1 885.5 915
Q 901.35 913.95 912.85 902.5 925.5 889.95 925.5 872.25
L 925.5 245.2 Z"/>

<path fill="#008EBD" stroke="none" d="
M 925.5 183.2
L 821.8 183.15
Q 808.8 183.15 799.65 174 790.45 164.85 790.45 151.8
L 790.45 53.2
Q 788.9 53.4 787.4 53.65
L 773.05 53.65 773.05 152.65
Q 772.75 165.15 763.9 174 754.7 183.15 741.75 183.15
L 358.3 183.15
Q 303.9 231 303.9 273.35 303.9 292.9 313.7 309.55 322.25 324.1 339.55 338.3 352.55 349 376.05 363.55 389.4 371.85 417.9 389.35 442.75 405.25 459.75 419.65 474.5 432.1 486 445.45 491.5 451.8 496.3 458.4 531.9 507.7 531.9 577.35 531.9 613.8 531.9 614.15 531.7 633.4 530.55 646.1 527.7 678 516.05 695.55 502.45 715.9 472.4 725.35 440.65 735.35 383.9 735.35 300.5 735.35 231.2 712.85 183.4 697.35 124.45 663.35 93.9 645.35 79.05 636.9 56.55 624.15 38.75 616
L 38.75 872.25
Q 38.75 889.95 51.35 902.5 59.5 910.65 69.95 913.55 71.5 913.95 73.05 914.3
L 73.05 913.55 233.25 914.3
Q 237.45 915.1 242 915.1
L 619.6 915.1
Q 621.85 913.35 624.05 911.55 663.05 879.35 681.7 828.75 699.9 779.4 699.9 709.35 699.9 675.35 698.1 628.35 695.9 571.85 695.65 559.75 695 524.8 697.2 500.65 699.1 480 703.4 462.2 705.15 454.95 707.3 448.15 723.55 396.7 771.2 351.65 819.15 306.4 925.5 245.2
L 925.5 183.2 Z"/>
</g>
</defs>

<g transform="matrix( 1, 0, 0, 1, 0,0) ">
<use xlink:href="#Layer0_0_FILL"/>
</g>
</svg>
