
<svg xmlns="http://www.w3.org/2000/svg" version="1.1" xmlns:xlink="http://www.w3.org/1999/xlink" preserveAspectRatio="none" x="0px" y="0px" width="300px" height="300px" viewBox="0 0 300 300">
<defs>
<g id="Layer0_0_FILL">
<path fill="#582F11" stroke="none" d="
M 299.2 150.05
Q 299.2 88.45 255.7 44.7 211.75 0.85 150.05 0.85 88.25 0.85 44.55 44.7 0.85 88.45 0.85 150.05 0.85 211.95 44.55 255.7 88.25 299.15 150.05 299.15 211.75 299.15 255.7 255.7 299.2 211.95 299.2 150.05
M 247.15 53.2
Q 287.15 93.4 287.15 150 287.15 206.95 247.15 247.15 206.75 287.1 150 287.1 93.2 287.1 53 247.15 12.85 206.95 12.85 150 12.85 93.4 53 53.2 93.2 12.85 150 12.85 206.75 12.85 247.15 53.2 Z"/>

<path fill="#FFFFFF" stroke="none" d="
M 287.15 150
Q 287.15 93.4 247.15 53.2 206.75 12.85 150 12.85 93.2 12.85 53 53.2 12.85 93.4 12.85 150 12.85 206.95 53 247.15 93.2 287.1 150 287.1 206.75 287.1 247.15 247.15 287.15 206.95 287.15 150
M 234.15 65.9
Q 269.05 100.7 269.05 150 269.05 199.4 234.15 234.2 199.35 269.25 150 269.25 100.45 269.25 65.7 234.2 30.8 199.4 30.8 150 30.8 100.7 65.7 65.9 100.45 30.85 150 30.85 199.35 30.85 234.15 65.9 Z"/>

<path fill="#AF281D" stroke="none" d="
M 269.05 150
Q 269.05 100.7 234.15 65.9 199.35 30.85 150 30.85 100.45 30.85 65.7 65.9 30.8 100.7 30.8 150 30.8 199.4 65.7 234.2 100.45 269.25 150 269.25 199.35 269.25 234.15 234.2 269.05 199.4 269.05 150
M 182.75 59.8
Q 196.3 73.2 196.3 92.4 196.3 111.2 182.75 124.65 182.65 124.75 182.45 124.9 238.55 132.6 232.45 219 151 295.2 62.2 217.2 60.7 123.8 118.9 126 118.5 125.2 117.9 124.65 104.45 111.2 104.45 92.4 104.45 73.2 117.9 59.8 131.45 46.35 150.4 46.35 169.4 46.35 182.75 59.8 Z"/>

<path fill="#333333" stroke="none" d="
M 150.4 138.1
Q 132.3 138.1 118.9 126 60.7 123.8 62.2 217.2 151 295.2 232.45 219 238.55 132.6 182.45 124.9 169.3 138.1 150.4 138.1
M 196.3 92.4
Q 196.3 73.2 182.75 59.8 169.4 46.35 150.4 46.35 131.45 46.35 117.9 59.8 104.45 73.2 104.45 92.4 104.45 111.2 117.9 124.65 118.5 125.2 118.9 126 132.3 138.1 150.4 138.1 169.3 138.1 182.45 124.9 182.65 124.75 182.75 124.65 196.3 111.2 196.3 92.4 Z"/>
</g>

<path id="Layer0_0_1_STROKES" stroke="#291305" stroke-width="1" stroke-linejoin="round" stroke-linecap="round" fill="none" d="
M 118.9 126
Q 118.5 125.2 117.9 124.65 104.45 111.2 104.45 92.4 104.45 73.2 117.9 59.8 131.45 46.35 150.4 46.35 169.4 46.35 182.75 59.8 196.3 73.2 196.3 92.4 196.3 111.2 182.75 124.65 182.65 124.75 182.45 124.9 238.55 132.6 232.45 219 151 295.2 62.2 217.2 60.7 123.8 118.9 126 132.3 138.1 150.4 138.1 169.3 138.1 182.45 124.9"/>

<path id="Layer0_0_2_STROKES" stroke="#801700" stroke-width="3" stroke-linejoin="round" stroke-linecap="round" fill="none" d="
M 287.15 150
Q 287.15 206.95 247.15 247.15 206.75 287.1 150 287.1 93.2 287.1 53 247.15 12.85 206.95 12.85 150 12.85 93.4 53 53.2 93.2 12.85 150 12.85 206.75 12.85 247.15 53.2 287.15 93.4 287.15 150 Z
M 269.05 150
Q 269.05 199.4 234.15 234.2 199.35 269.25 150 269.25 100.45 269.25 65.7 234.2 30.8 199.4 30.8 150 30.8 100.7 65.7 65.9 100.45 30.85 150 30.85 199.35 30.85 234.15 65.9 269.05 100.7 269.05 150 Z"/>
</defs>

<g transform="matrix( 1, 0, 0, 1, 0,0) ">
<use xlink:href="#Layer0_0_FILL"/>

<use xlink:href="#Layer0_0_1_STROKES"/>

<use xlink:href="#Layer0_0_2_STROKES"/>
</g>
</svg>
