
<svg xmlns="http://www.w3.org/2000/svg" version="1.1" xmlns:xlink="http://www.w3.org/1999/xlink" preserveAspectRatio="none" x="0px" y="0px" width="290px" height="126px" viewBox="0 0 290 126">
<defs>
<g id="_______16_0_Layer1_0_FILL">
<path fill="#000000" fill-opacity="0.2980392156862745" stroke="none" d="
M 180.1 46.55
L 180.1 24.5
Q 180.1 23.2 180 21.95 179.95 20.85 179.8 19.8 177.25 0 154.8 0
L 25.35 0
Q 19.1 0 14.35 1.6 1.1 5.95 0.1 22.6 0.05 23.6 0 24.65
L 0 46.55
Q 0 49.35 0.4 51.85 0.55 52.9 0.7 53.95 1.1 55.8 1.65 57.55 2.05 58.6 2.5 59.55 2.6 59.75 2.7 59.95 2.85 60.25 2.95 60.5
L 2.95 60.55
Q 3.9 62.4 5.2 64 8.6 68.2 14.35 70.1 19.1 71.6 25.35 71.6
L 154.8 71.6
Q 175.5 71.6 179.3 54.7 179.5 53.7 179.7 52.75 180.1 49.8 180.1 46.55 Z"/>
</g>

<g id="_______16_0_Layer0_0_FILL">
<path fill="#A20000" stroke="none" d="
M 180.1 46.55
L 180.1 37.85
Q 180.05 40.65 179.7 43.25 179.5 44.2 179.3 45.2 175.5 62.1 154.8 62.1
L 25.35 62.1
Q 19.1 62.1 14.35 60.6 8.6 58.7 5.2 54.5 3.9 52.9 2.95 51.05
L 2.95 51
Q 2.85 50.75 2.7 50.45 2.6 50.25 2.5 50.05 2.05 49.1 1.65 48.05 1.1 46.3 0.7 44.45 0.55 43.4 0.4 42.35 0.05 40.15 0 37.75
L 0 46.55
Q 0 49.35 0.4 51.85 0.55 52.9 0.7 53.95 1.1 55.8 1.65 57.55 2.05 58.6 2.5 59.55 2.6 59.75 2.7 59.95 2.85 60.25 2.95 60.5
L 2.95 60.55
Q 3.9 62.4 5.2 64 8.6 68.2 14.35 70.1 19.1 71.6 25.35 71.6
L 154.8 71.6
Q 175.5 71.6 179.3 54.7 179.5 53.7 179.7 52.75 180.1 49.8 180.1 46.55 Z"/>

<path fill="#FF0000" stroke="none" d="
M 180.1 37.85
L 180.1 30.05
Q 180.08125 29.271875 180 28.5 179.95 27.4 179.8 26.35 177.25 6.55 154.8 6.55
L 25.35 6.55
Q 19.1 6.55 14.35 8.15 1.1 12.5 0.1 29.15 0.05 30.15 0 31.2
L 0 37.75
Q 0.05 40.15 0.4 42.35 0.55 43.4 0.7 44.45 1.1 46.3 1.65 48.05 2.05 49.1 2.5 50.05 2.6 50.25 2.7 50.45 2.85 50.75 2.95 51
L 2.95 51.05
Q 3.9 52.9 5.2 54.5 8.6 58.7 14.35 60.6 19.1 62.1 25.35 62.1
L 154.8 62.1
Q 175.5 62.1 179.3 45.2 179.5 44.2 179.7 43.25 180.05 40.65 180.1 37.85
M 43.35 11.1
Q 45.45 12.3 45.45 14.05 45.45 15.75 43.35 16.95 41.3 18.15 38.35 18.15 35.4 18.15 33.3 16.95 31.2 15.75 31.2 14.05 31.2 12.3 33.3 11.1 35.35 9.9 38.3 9.9 41.3 9.9 43.35 11.1
M 21.2 11.4
Q 25 11.3 26.3 13.7 27.65 16 25.75 19.3 23.9 22.5 19.9 24.8 16 27.1 12.2 27.1 8.45 27.05 7.15 24.75 5.8 22.4 7.65 19.2 9.55 15.95 13.5 13.6 17.45 11.3 21.2 11.4 Z"/>

<path fill="#FF9176" stroke="none" d="
M 26.3 13.7
Q 25 11.3 21.2 11.4 17.45 11.3 13.5 13.6 9.55 15.95 7.65 19.2 5.8 22.4 7.15 24.75 8.45 27.05 12.2 27.1 16 27.1 19.9 24.8 23.9 22.5 25.75 19.3 27.65 16 26.3 13.7
M 45.45 14.05
Q 45.45 12.3 43.35 11.1 41.3 9.9 38.3 9.9 35.35 9.9 33.3 11.1 31.2 12.3 31.2 14.05 31.2 15.75 33.3 16.95 35.4 18.15 38.35 18.15 41.3 18.15 43.35 16.95 45.45 15.75 45.45 14.05
M 180 21.95
Q 179.95 20.85 179.8 19.8 177.25 0 154.8 0
L 25.35 0
Q 19.1 0 14.35 1.6 1.1 5.95 0.1 22.6 0.05 23.6 0 24.65
L 0 31.2
Q 0.05 30.15 0.1 29.15 1.1 12.5 14.35 8.15 19.1 6.55 25.35 6.55
L 154.8 6.55
Q 177.25 6.55 179.8 26.35 179.95 27.4 180 28.5 180.08125 29.271875 180.1 30.05
L 180.1 24.5
Q 180.1 23.2 180 21.95 Z"/>
</g>
</defs>

<g transform="matrix( 1.557861328125, 0, 0, 1.557861328125, -31.25,-7.35) ">
<g transform="matrix( 1, 0, 0, 1, 23.05,6.8) ">
<g transform="matrix( 1.0216522216796875, 0, 0, 1.116912841796875, -1.9,-1.6) ">
<use xlink:href="#_______16_0_Layer1_0_FILL"/>
</g>

<g transform="matrix( 1, 0, 0, 1, 0,0) ">
<use xlink:href="#_______16_0_Layer0_0_FILL"/>
</g>
</g>
</g>
</svg>
