
<svg xmlns="http://www.w3.org/2000/svg" version="1.1" xmlns:xlink="http://www.w3.org/1999/xlink" preserveAspectRatio="none" x="0px" y="0px" width="1054px" height="722px" viewBox="0 0 1054 722">
<defs>
<g id="Layer0_0_FILL">
<path fill="#582F11" stroke="none" d="
M 1046.8 7.7
Q 1040.35 1.25 1031.25 1.25
L 22.8 1.25
Q 13.7 1.25 7.25 7.7 1 13.95 0.8 22.7
L 0.8 699.35
Q 1 708.05 7.25 714.3 7.35 714.4 7.45 714.5 13.65 720.6 22.35 720.75
L 1031.75 720.75
Q 1040.5 720.6 1046.75 714.35 1046.8 714.35 1046.8 714.3 1053.05 708.05 1053.25 699.35
L 1053.25 22.7
Q 1053.05 13.95 1046.8 7.7
M 1040.4 13.65
Q 1046.75 20.05 1046.75 29.1
L 1046.75 383.6 1046.75 693.5
Q 1046.55 702.15 1040.4 708.35 1034 714.75 1025 714.75
L 29.15 714.75
Q 20.2 714.75 13.8 708.35 7.65 702.15 7.45 693.5
L 7.45 383.6 7.45 29.1
Q 7.45 20.05 13.8 13.65 20.2 7.25 29.15 7.25
L 1025 7.25
Q 1034 7.25 1040.4 13.65 Z"/>

<path fill="#E5AD50" stroke="none" d="
M 1040.4 708.35
Q 1046.55 702.15 1046.75 693.5
L 1046.75 383.6 7.45 383.6 7.45 693.5
Q 7.65 702.15 13.8 708.35 20.2 714.75 29.15 714.75
L 1025 714.75
Q 1034 714.75 1040.4 708.35 Z"/>

<path fill="#A97222" stroke="none" d="
M 1046.75 29.1
Q 1046.75 20.05 1040.4 13.65 1034 7.25 1025 7.25
L 29.15 7.25
Q 20.2 7.25 13.8 13.65 7.45 20.05 7.45 29.1
L 7.45 383.6 1046.75 383.6 1046.75 29.1 Z"/>
</g>
</defs>

<g transform="matrix( 1, 0, 0, 1, 0,0) ">
<use xlink:href="#Layer0_0_FILL"/>
</g>
</svg>
