
<svg xmlns="http://www.w3.org/2000/svg" version="1.1" xmlns:xlink="http://www.w3.org/1999/xlink" preserveAspectRatio="none" x="0px" y="0px" width="530px" height="202px" viewBox="0 0 530 202">
<defs>
<g id="_______14_0_Layer1_0_FILL">
<path fill="#000000" fill-opacity="0.2980392156862745" stroke="none" d="
M 333.3 23.05
Q 333.3 21.8 333.2 20.65 333.15 19.6 333 18.65 330.6 0 309.45 0
L 23.85 0
Q 17.95 0 13.5 1.5 1 5.6 0.1 21.25 0.05 22.2 0 23.2
L 0 95.1
Q 0.05 97.5 0.35 99.65 0.5 100.65 0.65 101.65 1 103.4 1.55 105.05 1.9 106 2.35 106.9 3.35 109.25 4.9 111.1 8.1 115.05 13.5 116.85 17.95 118.25 23.85 118.25
L 309.45 118.25
Q 328.95 118.25 332.55 102.35 332.7 101.4 332.9 100.5 333.25 98 333.3 95.2
L 333.3 23.05 Z"/>
</g>

<g id="_______14_0_Layer0_0_FILL">
<path fill="#017128" stroke="none" d="
M 332.9 88.5
Q 332.7 89.4 332.55 90.35 328.95 106.25 309.45 106.25
L 23.85 106.25
Q 17.95 106.25 13.5 104.85 8.1 103.05 4.9 99.1 3.35 97.25 2.35 94.9 1.9 94 1.55 93.05 1 91.4 0.65 89.65 0.5 88.65 0.35 87.65 0.05 85.5 0 83.1
L 0 95.1
Q 0.05 97.5 0.35 99.65 0.5 100.65 0.65 101.65 1 103.4 1.55 105.05 1.9 106 2.35 106.9 3.35 109.25 4.9 111.1 8.1 115.05 13.5 116.85 17.95 118.25 23.85 118.25
L 309.45 118.25
Q 328.95 118.25 332.55 102.35 332.7 101.4 332.9 100.5 333.25 98 333.3 95.2
L 333.3 83.2
Q 333.25 86 332.9 88.5 Z"/>

<path fill="#46D010" stroke="none" d="
M 333.3 28.9
Q 333.2875 28.2625 333.2 27.65 333.15 26.6 333 25.65 330.6 7 309.45 7
L 23.85 7
Q 17.95 7 13.5 8.5 1 12.6 0.1 28.25 0.05 29.2 0 30.2
L 0 83.1
Q 0.05 85.5 0.35 87.65 0.5 88.65 0.65 89.65 1 91.4 1.55 93.05 1.9 94 2.35 94.9 3.35 97.25 4.9 99.1 8.1 103.05 13.5 104.85 17.95 106.25 23.85 106.25
L 309.45 106.25
Q 328.95 106.25 332.55 90.35 332.7 89.4 332.9 88.5 333.25 86 333.3 83.2
L 333.3 28.9
M 57.15 15.85
Q 60.05 17.45 60.05 19.9 60.05 22.2 57.15 23.85 54.4 25.5 50.35 25.5 46.35 25.5 43.45 23.85 40.6 22.2 40.6 19.9 40.6 17.5 43.45 15.85 46.3 14.2 50.3 14.2 54.4 14.2 57.15 15.85
M 26.95 16.2
Q 32.1 16.2 33.9 19.4 35.75 22.55 33.15 27 30.65 31.4 25.2 34.55 19.8 37.7 14.65 37.7 9.55 37.65 7.7 34.5 5.9 31.3 8.4 26.9 11 22.45 16.4 19.3 21.85 16.2 26.95 16.2 Z"/>

<path fill="#B2FF95" stroke="none" d="
M 33.9 19.4
Q 32.1 16.2 26.95 16.2 21.85 16.2 16.4 19.3 11 22.45 8.4 26.9 5.9 31.3 7.7 34.5 9.55 37.65 14.65 37.7 19.8 37.7 25.2 34.55 30.65 31.4 33.15 27 35.75 22.55 33.9 19.4
M 60.05 19.9
Q 60.05 17.45 57.15 15.85 54.4 14.2 50.3 14.2 46.3 14.2 43.45 15.85 40.6 17.5 40.6 19.9 40.6 22.2 43.45 23.85 46.35 25.5 50.35 25.5 54.4 25.5 57.15 23.85 60.05 22.2 60.05 19.9 Z"/>

<path fill="#C6FF82" stroke="none" d="
M 333.3 28.9
L 333.3 23.05
Q 333.3 21.8 333.2 20.65 333.15 19.6 333 18.65 330.6 0 309.45 0
L 23.85 0
Q 17.95 0 13.5 1.5 1 5.6 0.1 21.25 0.05 22.2 0 23.2
L 0 30.2
Q 0.05 29.2 0.1 28.25 1 12.6 13.5 8.5 17.95 7 23.85 7
L 309.45 7
Q 330.6 7 333 25.65 333.15 26.6 333.2 27.65 333.2875 28.2625 333.3 28.9 Z"/>
</g>
</defs>

<g transform="matrix( 1.557861328125, 0, 0, 1.557861328125, -41.65,-10.15) ">
<g transform="matrix( 1, 0, 0, 1, 30.15,9.3) ">
<g transform="matrix( 1.015594482421875, 0, 0, 1.0867919921875, -2.55,-2.2) ">
<use xlink:href="#_______14_0_Layer1_0_FILL"/>
</g>

<g transform="matrix( 1, 0, 0, 1, 0,0) ">
<use xlink:href="#_______14_0_Layer0_0_FILL"/>
</g>
</g>
</g>
</svg>
