
<svg xmlns="http://www.w3.org/2000/svg" version="1.1" xmlns:xlink="http://www.w3.org/1999/xlink" preserveAspectRatio="none" x="0px" y="0px" width="280px" height="140px" viewBox="0 0 280 140">
<defs>
<g id="Layer0_0_FILL">
<path fill="#FFC059" stroke="none" d="
M 220.7 125.3
Q 220.6 125.3 220.45 125.3
L 201.75 125.3 201.5 125.3 51.85 125.3
Q 37.9 125.3 28.1 118 18.3 110.8 18.3 100.55
L 18.3 39.45
Q 18.3 29.25 28.1 22.05 29.9 20.75 31.7 19.7
L 17.4 7.1
Q 14.55 8.9 11.9 11.15 1.1 20.8 1.1 34.4
L 1.1 105.65
Q 1.1 119.2 11.9 128.75 22.65 138.45 37.85 138.45
L 242.15 138.45
Q 257.45 138.45 268.15 128.75 278.95 119.2 278.95 105.65
L 278.95 97.75 253 117.2
Q 252.8 117.2 252.7 117.45 252.4 117.65 251.95 118 242.15 125.3 228.25 125.3
L 220.7 125.3 Z"/>

<path fill="#3A2520" stroke="none" d="
M 261.75 39.45
Q 261.75 31.7 256.1 25.7 254.3 23.8 251.95 22.05 242.15 14.75 228.25 14.75
L 51.85 14.75
Q 40.4 14.75 31.7 19.7 29.9 20.75 28.1 22.05 18.3 29.25 18.3 39.45
L 18.3 100.55
Q 18.3 110.8 28.1 118 37.9 125.3 51.85 125.3
L 201.5 125.3
Q 201.65 124.95 201.75 124.6
L 201.75 124.8
Q 201.75 125.05 201.75 125.3
L 220.45 125.3
Q 220.6 125.3 220.7 125.3
L 228.25 125.3
Q 242.15 125.3 251.95 118 252.4 117.65 252.7 117.45 252.8 117.2 253 117.2 261.75 110.25 261.75 100.55
L 261.75 39.45 Z"/>

<path fill="#A97222" stroke="none" d="
M 277.75 25.7
Q 275.3 17.55 268.15 11.15 257.45 1.6 242.15 1.6
L 37.85 1.6
Q 26.35 1.6 17.4 7.1
L 31.7 19.7
Q 40.4 14.75 51.85 14.75
L 228.25 14.75
Q 242.15 14.75 251.95 22.05 254.3 23.8 256.1 25.7 261.75 31.7 261.75 39.45
L 261.75 100.55
Q 261.75 110.25 253 117.2
L 278.95 97.75 278.95 34.4
Q 278.95 29.85 277.75 25.7 Z"/>
</g>
</defs>

<g transform="matrix( 1, 0, 0, 1, 0,0) ">
<use xlink:href="#Layer0_0_FILL"/>
</g>
</svg>
