
<svg xmlns="http://www.w3.org/2000/svg" version="1.1" xmlns:xlink="http://www.w3.org/1999/xlink" preserveAspectRatio="none" x="0px" y="0px" width="416px" height="278px" viewBox="0 0 416 278">
<defs>
<g id="Layer0_0_FILL">
<path fill="#582F11" stroke="none" d="
M 415.5 22.7
Q 415.3 13.95 409.05 7.7 402.6 1.25 393.5 1.25
L 22.55 1.25
Q 13.45 1.25 7 7.7 0.75 13.95 0.55 22.7
L 0.55 255.35
Q 0.75 264.05 7 270.3 7.1 270.4 7.2 270.5 13.4 276.6 22.1 276.75
L 394 276.75
Q 402.75 276.6 409 270.35 409.05 270.35 409.05 270.3 415.3 264.05 415.5 255.35
L 415.5 22.7
M 387.25 7.25
Q 396.25 7.25 402.65 13.65 409 20.05 409 29.1
L 409 139 409 249.5
Q 408.8 258.15 402.65 264.35 396.25 270.75 387.25 270.75
L 28.9 270.75
Q 19.95 270.75 13.55 264.35 7.4 258.15 7.2 249.5
L 7.2 139 7.2 29.1
Q 7.2 20.05 13.55 13.65 19.95 7.25 28.9 7.25
L 387.25 7.25 Z"/>

<path fill="#E5AD50" stroke="none" d="
M 387.25 270.75
Q 396.25 270.75 402.65 264.35 408.8 258.15 409 249.5
L 409 139 7.2 139 7.2 249.5
Q 7.4 258.15 13.55 264.35 19.95 270.75 28.9 270.75
L 387.25 270.75 Z"/>

<path fill="#A97222" stroke="none" d="
M 402.65 13.65
Q 396.25 7.25 387.25 7.25
L 28.9 7.25
Q 19.95 7.25 13.55 13.65 7.2 20.05 7.2 29.1
L 7.2 139 409 139 409 29.1
Q 409 20.05 402.65 13.65 Z"/>
</g>
</defs>

<g transform="matrix( 1, 0, 0, 1, 0,0) ">
<use xlink:href="#Layer0_0_FILL"/>
</g>
</svg>
