
<svg xmlns="http://www.w3.org/2000/svg" version="1.1" xmlns:xlink="http://www.w3.org/1999/xlink" preserveAspectRatio="none" x="0px" y="0px" width="1055px" height="140px" viewBox="0 0 1055 140">
<defs>
<g id="Layer0_0_FILL">
<path fill="#FFC059" stroke="none" d="
M 1017.4 138.45
Q 1032.7 138.45 1043.4 128.75 1054.2 119.2 1054.2 105.65
L 1054.2 97.75 1028.25 117.2
Q 1028.05 117.2 1027.95 117.45 1027.65 117.65 1027.2 118 1017.4 125.3 1003.5 125.3
L 995.95 125.3
Q 995.85 125.3 995.7 125.3
L 977 125.3 976.75 125.3 51.6 125.3
Q 37.65 125.3 27.85 118 18.05 110.8 18.05 100.55
L 18.05 39.45
Q 18.05 29.25 27.85 22.05 29.65 20.75 31.45 19.7
L 17.15 7.1
Q 14.3 8.9 11.65 11.15 0.85 20.8 0.85 34.4
L 0.85 105.65
Q 0.85 119.2 11.65 128.75 22.4 138.45 37.6 138.45
L 1017.4 138.45 Z"/>

<path fill="#3A2520" stroke="none" d="
M 1037 39.45
Q 1037 31.7 1031.35 25.7 1029.55 23.8 1027.2 22.05 1017.4 14.75 1003.5 14.75
L 51.6 14.75
Q 40.15 14.75 31.45 19.7 29.65 20.75 27.85 22.05 18.05 29.25 18.05 39.45
L 18.05 100.55
Q 18.05 110.8 27.85 118 37.65 125.3 51.6 125.3
L 976.75 125.3
Q 976.9 124.95 977 124.6
L 977 124.8
Q 977 125.05 977 125.3
L 995.7 125.3
Q 995.85 125.3 995.95 125.3
L 1003.5 125.3
Q 1017.4 125.3 1027.2 118 1027.65 117.65 1027.95 117.45 1028.05 117.2 1028.25 117.2 1037 110.25 1037 100.55
L 1037 39.45 Z"/>

<path fill="#A97222" stroke="none" d="
M 1054.2 34.4
Q 1054.2 29.85 1053 25.7 1050.55 17.55 1043.4 11.15 1032.7 1.6 1017.4 1.6
L 37.6 1.6
Q 26.1 1.6 17.15 7.1
L 31.45 19.7
Q 40.15 14.75 51.6 14.75
L 1003.5 14.75
Q 1017.4 14.75 1027.2 22.05 1029.55 23.8 1031.35 25.7 1037 31.7 1037 39.45
L 1037 100.55
Q 1037 110.25 1028.25 117.2
L 1054.2 97.75 1054.2 34.4 Z"/>
</g>
</defs>

<g transform="matrix( 1, 0, 0, 1, 0,0) ">
<use xlink:href="#Layer0_0_FILL"/>
</g>
</svg>
