
<svg xmlns="http://www.w3.org/2000/svg" version="1.1" xmlns:xlink="http://www.w3.org/1999/xlink" preserveAspectRatio="none" x="0px" y="0px" width="1220px" height="212px" viewBox="0 0 1220 212">
<defs>
<g id="Layer0_0_FILL">
<path fill="#A1E1FF" stroke="none" d="
M 1205.65 120.75
L 1194.75 120.75
Q 1147.05 162.95 1099.4 155.7 1054.6552734375 150.2974609375 1029.25 120.75
L 940.25 120.75
Q 892.55 162.95 844.9 155.7 801.85 150.5 776.75 122.95 776 121.85 775.25 120.75
L 693.75 120.75
Q 646.05 162.95 598.4 155.7 553.6552734375 150.2974609375 528.25 120.75
L 441.25 120.75
Q 393.55 162.95 345.9 155.7 302.85 150.5 277.75 122.95 277 121.85 276.25 120.75
L 194.75 120.75
Q 147.05 162.95 99.4 155.7 48.05 149.5 22.2 111.5 17.65 104.85 13.9 97.25 11.9 117.5 18.5 137.75 19.2 138.85 19.85 140.15 23.35 149.2 28.75 157.5 34.2 165.75 41.65 173.2 69.5 201 108.85 201 148.2 201 176.05 173.2 189.8 159.4 196.8 142.8
L 197.1 142.05
Q 201.9 131.2 210.65 130.05
L 254.75 130.05
Q 262.4 129.7 267.6 139.8 267.7 140 267.7 140.2 274.65 158.3 289.5 173.2 317.35 201 356.7 201 396.05 201 423.9 173.2 437.6 159.5 444.5 143.05 448.9 131 455.3 130.35 456.6 130.2 457.6 130.1
L 494.65 130.1 494.7 130.05 506.1 130.05
Q 513.7 129.7 518.9 139.8 519 140 519.05 140.2 526 158.3 540.85 173.2 568.65 201 608 201 647.4 201 675.2 173.2 688.9 159.5 695.85 143.05 700.2 131 706.65 130.35 708.5 130.1 709.8 130.05
L 757.4 130.05
Q 765.05 129.7 770.25 139.8 770.35 140 770.35 140.2 777.3 158.3 792.15 173.2 820 201 859.35 201 898.7 201 926.55 173.2 940.25 159.5 947.15 143.05 951.55 131 957.95 130.35 959.8 130.1 961.1 130.05
L 1008.75 130.05
Q 1016.35 129.7 1021.55 139.8 1021.65 140 1021.7 140.2 1028.65 158.3 1043.5 173.2 1071.3 201 1110.65 201 1150.05 201 1177.85 173.2 1191.55 159.5 1198.5 143.05 1199.5 140.25 1200.65 138.05 1204.0375 129.29765625 1205.65 120.75 Z"/>

<path fill="#CCEFFF" stroke="none" d="
M 1201.05 74.6
Q 1199.7 72.25 1198.5 69 1191.6 52.5 1177.85 38.8 1150.05 10.95 1110.65 10.95 1071.3 10.95 1043.5 38.8 1028.05 54.25 1021.15 73.2 1021.1 73.4 1021 73.65 1017.9 79.65 1008.75 80.4
L 964.05 80.4
Q 962.7 80.4 956.9 80.2 951.2 80 947.15 69 940.3 52.5 926.55 38.8 898.7 10.95 859.35 10.95 820 10.95 792.15 38.8 776.75 54.25 769.8 73.2 769.75 73.4 769.7 73.65 766.55 79.65 757.4 80.4
L 712.75 80.4
Q 711.35 80.4 705.6 80.2 699.85 80 695.85 69 688.95 52.5 675.2 38.8 647.4 10.95 608 10.95 568.65 10.95 540.85 38.8 525.4 54.25 518.5 73.2 518.45 73.4 518.35 73.65 515.25 79.65 506.1 80.4
L 494.95 80.4
Q 494.9 80.3 494.8 80.15
L 453.7 80.15
Q 448.35 79.45 444.5 69 437.65 52.5 423.9 38.8 396.05 10.95 356.7 10.95 317.35 10.95 289.5 38.8 274.1 54.25 267.15 73.2 267.1 73.4 267.05 73.65 263.9 79.65 254.75 80.4
L 210.9 80.4
Q 202.55 80.5 195.9 67.15 189 51.75 176.05 38.8 148.2 10.95 108.85 10.95 69.5 10.95 41.65 38.8 26.3 54.2 19.35 73.2 15.1 85.25 13.9 97.25 17.65 104.85 22.2 111.5 48.05 149.5 99.4 155.7 147.05 162.95 194.75 120.75
L 276.25 120.75
Q 277 121.85 277.75 122.95 302.85 150.5 345.9 155.7 393.55 162.95 441.25 120.75
L 528.25 120.75
Q 553.6552734375 150.2974609375 598.4 155.7 646.05 162.95 693.75 120.75
L 775.25 120.75
Q 776 121.85 776.75 122.95 801.85 150.5 844.9 155.7 892.55 162.95 940.25 120.75
L 1029.25 120.75
Q 1054.6552734375 150.2974609375 1099.4 155.7 1147.05 162.95 1194.75 120.75
L 1205.65 120.75
Q 1210.2177734375 96.875390625 1201.05 74.6
M 1144.75 47.8
Q 1136.25 43.75 1134.4 42.95 1133.3 42.45 1128.75 42.3 1122.9 42.2 1120.2 41.85 1109.1 40.35 1109.1 32.7 1109.1 26.9 1110.85 25.25 1112.65 23.5 1119 23.5 1123.5 23.5 1129.95 24.7 1139.2 26.35 1143.4 29.4 1152.5 36.15 1154.8 38.25 1155.05 38.45 1155.3 38.7 1157.3 42.65 1157.3 46.55 1157.3 48.75 1156.6 49.85 1155.55 51.6 1152.8 51.6 1152.75 51.6 1144.75 47.8
M 1168.4 59.55
Q 1169.6 57.5 1172.55 57.5 1177.5 57.5 1184.35 66.45 1186.25 68.95 1187.75 71.25 1187.8 72.45 1187.8 74.15 1187.8 80.65 1187.45 82.1 1186.6 85.55 1183.1 85.55 1177.45 85.55 1171.85 75.3 1169.05 70.2 1167.35 64.95 1167.35 61.35 1168.4 59.55
M 892.1 29.4
Q 901.2 36.15 903.5 38.25 903.75 38.45 903.95 38.7 905.95 42.65 905.95 46.55 905.95 48.75 905.25 49.85 904.25 51.6 901.45 51.6 901.4 51.6 893.45 47.8 884.95 43.75 883.1 42.95 882 42.45 877.4 42.3 871.55 42.2 868.85 41.85 857.75 40.35 857.75 32.7 857.75 26.9 859.5 25.25 861.35 23.5 867.65 23.5 872.15 23.5 878.6 24.7 887.9 26.35 892.1 29.4
M 917.05 59.55
Q 918.25 57.5 921.2 57.5 926.15 57.5 933.05 66.45 934.95 68.95 936.4 71.25 936.45 72.45 936.45 74.15 936.45 80.65 936.1 82.1 935.25 85.55 931.8 85.55 926.1 85.55 920.5 75.3 917.7 70.2 916 64.95 916 61.35 917.05 59.55
M 652.15 38.25
Q 652.4 38.45 652.65 38.7 654.65 42.65 654.65 46.55 654.65 48.75 653.95 49.85 652.9 51.6 650.15 51.6 650.1 51.6 642.1 47.8 633.6 43.75 631.75 42.95 630.65 42.45 626.1 42.3 620.25 42.2 617.55 41.85 606.45 40.35 606.45 32.7 606.45 26.9 608.2 25.25 610 23.5 616.35 23.5 620.85 23.5 627.3 24.7 636.55 26.35 640.75 29.4 649.85 36.15 652.15 38.25
M 669.9 57.5
Q 674.85 57.5 681.7 66.45 683.6 68.95 685.1 71.25 685.15 72.45 685.15 74.15 685.15 80.65 684.8 82.1 683.95 85.55 680.45 85.55 674.8 85.55 669.2 75.3 666.4 70.2 664.7 64.95 664.7 61.35 665.75 59.55 666.95 57.5 669.9 57.5
M 430.4 66.45
Q 432.3 68.95 433.75 71.25 433.8 72.45 433.8 74.15 433.8 80.65 433.45 82.1 432.6 85.55 429.15 85.55 423.45 85.55 417.85 75.3 415.05 70.2 413.35 64.95 413.35 61.35 414.4 59.55 415.6 57.5 418.55 57.5 423.5 57.5 430.4 66.45
M 365 23.5
Q 369.5 23.5 375.95 24.7 385.25 26.35 389.45 29.4 398.55 36.15 400.85 38.25 401.1 38.45 401.3 38.7 403.3 42.65 403.3 46.55 403.3 48.75 402.6 49.85 401.6 51.6 398.8 51.6 398.75 51.6 390.8 47.8 382.3 43.75 380.45 42.95 379.35 42.45 374.75 42.3 368.9 42.2 366.2 41.85 355.1 40.35 355.1 32.7 355.1 26.9 356.85 25.25 358.7 23.5 365 23.5
M 185.85 66.45
Q 187.75 68.95 189.2 71.25 189.25 72.45 189.25 74.15 189.25 80.65 188.9 82.1 188.05 85.55 184.55 85.55 178.9 85.55 173.3 75.3 170.5 70.2 168.8 64.95 168.8 61.35 169.85 59.55 171.05 57.5 174 57.5 178.95 57.5 185.85 66.45
M 135.85 42.95
Q 134.8 42.45 130.2 42.3 124.35 42.2 121.65 41.85 110.55 40.35 110.55 32.7 110.55 26.9 112.3 25.25 114.1 23.5 120.45 23.5 124.95 23.5 131.4 24.7 140.65 26.35 144.9 29.4 154 36.15 156.25 38.25 156.55 38.45 156.75 38.7 158.75 42.65 158.75 46.55 158.75 48.75 158.05 49.85 157 51.6 154.25 51.6 154.2 51.6 146.2 47.8 137.75 43.75 135.85 42.95 Z"/>

<path fill="#FFFFFF" stroke="none" d="
M 130.2 42.3
Q 134.8 42.45 135.85 42.95 137.75 43.75 146.2 47.8 154.2 51.6 154.25 51.6 157 51.6 158.05 49.85 158.75 48.75 158.75 46.55 158.75 42.65 156.75 38.7 156.55 38.45 156.25 38.25 154 36.15 144.9 29.4 140.65 26.35 131.4 24.7 124.95 23.5 120.45 23.5 114.1 23.5 112.3 25.25 110.55 26.9 110.55 32.7 110.55 40.35 121.65 41.85 124.35 42.2 130.2 42.3
M 189.2 71.25
Q 187.75 68.95 185.85 66.45 178.95 57.5 174 57.5 171.05 57.5 169.85 59.55 168.8 61.35 168.8 64.95 170.5 70.2 173.3 75.3 178.9 85.55 184.55 85.55 188.05 85.55 188.9 82.1 189.25 80.65 189.25 74.15 189.25 72.45 189.2 71.25
M 375.95 24.7
Q 369.5 23.5 365 23.5 358.7 23.5 356.85 25.25 355.1 26.9 355.1 32.7 355.1 40.35 366.2 41.85 368.9 42.2 374.75 42.3 379.35 42.45 380.45 42.95 382.3 43.75 390.8 47.8 398.75 51.6 398.8 51.6 401.6 51.6 402.6 49.85 403.3 48.75 403.3 46.55 403.3 42.65 401.3 38.7 401.1 38.45 400.85 38.25 398.55 36.15 389.45 29.4 385.25 26.35 375.95 24.7
M 433.75 71.25
Q 432.3 68.95 430.4 66.45 423.5 57.5 418.55 57.5 415.6 57.5 414.4 59.55 413.35 61.35 413.35 64.95 415.05 70.2 417.85 75.3 423.45 85.55 429.15 85.55 432.6 85.55 433.45 82.1 433.8 80.65 433.8 74.15 433.8 72.45 433.75 71.25
M 681.7 66.45
Q 674.85 57.5 669.9 57.5 666.95 57.5 665.75 59.55 664.7 61.35 664.7 64.95 666.4 70.2 669.2 75.3 674.8 85.55 680.45 85.55 683.95 85.55 684.8 82.1 685.15 80.65 685.15 74.15 685.15 72.45 685.1 71.25 683.6 68.95 681.7 66.45
M 652.65 38.7
Q 652.4 38.45 652.15 38.25 649.85 36.15 640.75 29.4 636.55 26.35 627.3 24.7 620.85 23.5 616.35 23.5 610 23.5 608.2 25.25 606.45 26.9 606.45 32.7 606.45 40.35 617.55 41.85 620.25 42.2 626.1 42.3 630.65 42.45 631.75 42.95 633.6 43.75 642.1 47.8 650.1 51.6 650.15 51.6 652.9 51.6 653.95 49.85 654.65 48.75 654.65 46.55 654.65 42.65 652.65 38.7
M 921.2 57.5
Q 918.25 57.5 917.05 59.55 916 61.35 916 64.95 917.7 70.2 920.5 75.3 926.1 85.55 931.8 85.55 935.25 85.55 936.1 82.1 936.45 80.65 936.45 74.15 936.45 72.45 936.4 71.25 934.95 68.95 933.05 66.45 926.15 57.5 921.2 57.5
M 903.5 38.25
Q 901.2 36.15 892.1 29.4 887.9 26.35 878.6 24.7 872.15 23.5 867.65 23.5 861.35 23.5 859.5 25.25 857.75 26.9 857.75 32.7 857.75 40.35 868.85 41.85 871.55 42.2 877.4 42.3 882 42.45 883.1 42.95 884.95 43.75 893.45 47.8 901.4 51.6 901.45 51.6 904.25 51.6 905.25 49.85 905.95 48.75 905.95 46.55 905.95 42.65 903.95 38.7 903.75 38.45 903.5 38.25
M 1172.55 57.5
Q 1169.6 57.5 1168.4 59.55 1167.35 61.35 1167.35 64.95 1169.05 70.2 1171.85 75.3 1177.45 85.55 1183.1 85.55 1186.6 85.55 1187.45 82.1 1187.8 80.65 1187.8 74.15 1187.8 72.45 1187.75 71.25 1186.25 68.95 1184.35 66.45 1177.5 57.5 1172.55 57.5
M 1134.4 42.95
Q 1136.25 43.75 1144.75 47.8 1152.75 51.6 1152.8 51.6 1155.55 51.6 1156.6 49.85 1157.3 48.75 1157.3 46.55 1157.3 42.65 1155.3 38.7 1155.05 38.45 1154.8 38.25 1152.5 36.15 1143.4 29.4 1139.2 26.35 1129.95 24.7 1123.5 23.5 1119 23.5 1112.65 23.5 1110.85 25.25 1109.1 26.9 1109.1 32.7 1109.1 40.35 1120.2 41.85 1122.9 42.2 1128.75 42.3 1133.3 42.45 1134.4 42.95 Z"/>

<path fill="#88D4EF" stroke="none" d="
M 1208.05 65.8
Q 1207.85 65.45 1207.7 65.1 1200.05 46.9 1184.95 31.8 1154.2 1.05 1110.7 1.05 1067.25 1.05 1036.5 31.8 1022.2 46.15 1014.5 63.25 1012.45 69.15 1004.85 70.4
L 963.95 70.4
Q 958.45 69.95 956.4 65.1 948.75 46.9 933.6 31.8 902.9 1.05 859.4 1.05 815.9 1.05 785.2 31.8 770.85 46.15 763.2 63.25 761.1 69.15 753.5 70.4
L 712.6 70.4
Q 707.1 69.95 705.05 65.1 697.4 46.9 682.3 31.8 651.55 1.05 608.05 1.05 564.6 1.05 533.85 31.8 519.5 46.15 511.85 63.25 509.8 69.15 502.2 70.4
L 461.3 70.4
Q 455.8 69.95 453.75 65.1 446.1 46.9 430.95 31.8 400.25 1.05 356.75 1.05 313.25 1.05 282.55 31.8 268.2 46.15 260.55 63.25 258.45 69.15 250.85 70.4
L 215.1 70.4
Q 209.3 70.45 205.5 64.25 197.85 46.55 183.1 31.8 152.35 1.05 108.85 1.05 65.4 1.05 34.7 31.8 20.4 46.1 12.7 63.15
L 8.1 73.2
Q 6.8 76.8 5.85 80.4 -1.1 105.15 5 129.95 5.9 130 6.85 130.05 13.65 129.7 18.5 137.75 11.9 117.5 13.9 97.25 15.1 85.25 19.35 73.2 26.3 54.2 41.65 38.8 69.5 10.95 108.85 10.95 148.2 10.95 176.05 38.8 189 51.75 195.9 67.15 202.55 80.5 210.9 80.4
L 254.75 80.4
Q 263.9 79.65 267.05 73.65 267.1 73.4 267.15 73.2 274.1 54.25 289.5 38.8 317.35 10.95 356.7 10.95 396.05 10.95 423.9 38.8 437.65 52.5 444.5 69 448.35 79.45 453.7 80.15
L 494.8 80.15
Q 494.9 80.3 494.95 80.4
L 506.1 80.4
Q 515.25 79.65 518.35 73.65 518.45 73.4 518.5 73.2 525.4 54.25 540.85 38.8 568.65 10.95 608 10.95 647.4 10.95 675.2 38.8 688.95 52.5 695.85 69 699.85 80 705.6 80.2 711.35 80.4 712.75 80.4
L 757.4 80.4
Q 766.55 79.65 769.7 73.65 769.75 73.4 769.8 73.2 776.75 54.25 792.15 38.8 820 10.95 859.35 10.95 898.7 10.95 926.55 38.8 940.3 52.5 947.15 69 951.2 80 956.9 80.2 962.7 80.4 964.05 80.4
L 1008.75 80.4
Q 1017.9 79.65 1021 73.65 1021.1 73.4 1021.15 73.2 1028.05 54.25 1043.5 38.8 1071.3 10.95 1110.65 10.95 1150.05 10.95 1177.85 38.8 1191.6 52.5 1198.5 69 1199.7 72.25 1201.05 74.6 1210.2177734375 96.875390625 1205.65 120.75 1204.0375 129.29765625 1200.65 138.05 1204.35 130.85 1209.3 130.35 1211.15 130.1 1212.45 130.05
L 1214.05 130.05
Q 1215.4404296875 125.36953125 1216.3 120.75 1220.2732421875 99.955859375 1213.85 80.4 1212.9 77.45 1211.7 74.6 1210.35 72.25 1209.15 69
L 1208.05 65.8 Z"/>

<path fill="#60C4E9" stroke="none" d="
M 1212.45 130.05
Q 1211.15 130.1 1209.3 130.35 1204.35 130.85 1200.65 138.05 1199.5 140.25 1198.5 143.05 1191.55 159.5 1177.85 173.2 1150.05 201 1110.65 201 1071.3 201 1043.5 173.2 1028.65 158.3 1021.7 140.2 1021.65 140 1021.55 139.8 1016.35 129.7 1008.75 130.05
L 961.1 130.05
Q 959.8 130.1 957.95 130.35 951.55 131 947.15 143.05 940.25 159.5 926.55 173.2 898.7 201 859.35 201 820 201 792.15 173.2 777.3 158.3 770.35 140.2 770.35 140 770.25 139.8 765.05 129.7 757.4 130.05
L 709.8 130.05
Q 708.5 130.1 706.65 130.35 700.2 131 695.85 143.05 688.9 159.5 675.2 173.2 647.4 201 608 201 568.65 201 540.85 173.2 526 158.3 519.05 140.2 519 140 518.9 139.8 513.7 129.7 506.1 130.05
L 494.7 130.05 494.65 130.1 457.6 130.1
Q 456.6 130.2 455.3 130.35 448.9 131 444.5 143.05 437.6 159.5 423.9 173.2 396.05 201 356.7 201 317.35 201 289.5 173.2 274.65 158.3 267.7 140.2 267.7 140 267.6 139.8 262.4 129.7 254.75 130.05
L 210.65 130.05
Q 201.9 131.2 197.1 142.05
L 196.8 142.8
Q 189.8 159.4 176.05 173.2 148.2 201 108.85 201 69.5 201 41.65 173.2 34.2 165.75 28.75 157.5 23.35 149.2 19.85 140.15 19.2 138.85 18.5 137.75 13.65 129.7 6.85 130.05
L 5.05 130.05
Q 6 133.9 7.25 137.75
L 10.3 144.2
Q 11.5 145.75 12.3 147.9 16.65 157.8 23.15 166.75 28.25 173.75 34.7 180.2 65.4 210.95 108.85 210.95 152.35 210.95 183.1 180.2 198.55 164.7 206.25 145.95 210.2 139.6 216.05 139.75
L 250.2 139.75
Q 256.55 140.05 259.5 146.3 267.15 164.8 282.55 180.2 313.25 210.95 356.75 210.95 400.25 210.95 430.95 180.2 446.7 164.45 454.35 145.35 456.95 139.85 462.5 139.75
L 501.55 139.75
Q 507.85 140.05 510.8 146.3 518.5 164.8 533.85 180.2 564.6 210.95 608.05 210.95 651.55 210.95 682.3 180.2 698 164.45 705.7 145.35 708.3 139.85 713.85 139.75
L 752.85 139.75
Q 759.2 140.05 762.15 146.3 769.8 164.8 785.2 180.2 815.9 210.95 859.4 210.95 902.9 210.95 933.6 180.2 949.35 164.45 957 145.35 959.6 139.85 965.15 139.75
L 1004.2 139.75
Q 1010.5 140.05 1013.45 146.3 1021.15 164.8 1036.5 180.2 1067.25 210.95 1110.7 210.95 1154.2 210.95 1184.95 180.2 1200.65 164.45 1208.35 145.35 1209.05 143.9 1209.95 142.8
L 1209.95 142.05 1211.3 138.05
Q 1212.85 134.05 1214.05 130.05
L 1212.45 130.05 Z"/>

<path fill="#48BE0B" stroke="none" d="
M 5 129.95
Q 5 130 5.05 130.05
L 6.85 130.05
Q 5.9 130 5 129.95 Z"/>
</g>
</defs>

<g transform="matrix( 1, 0, 0, 1, 0,0) ">
<use xlink:href="#Layer0_0_FILL"/>
</g>
</svg>
