
<svg xmlns="http://www.w3.org/2000/svg" version="1.1" xmlns:xlink="http://www.w3.org/1999/xlink" preserveAspectRatio="none" x="0px" y="0px" width="1050px" height="202px" viewBox="0 0 1050 202">
<defs>
<g id="_______15_0_Layer1_0_FILL">
<path fill="#000000" fill-opacity="0.2980392156862745" stroke="none" d="
M 20.95 -2.6
Q 14.95 -2.6 10.5 -0.95 -2.15 3.5 -3.05 20.5 -3.1 21.55 -3.15 22.65
L -3.15 100.05
Q -3.15 101.75 -3.05 103.35 -2.95 104.6 -2.8 105.8 -2.65 106.85 -2.5 107.95 -2.15 109.85 -1.6 111.65 -1.25 112.7 -0.8 113.65 0.25 116.2 1.8 118.25 5.05 122.55 10.5 124.5 14.95 126 20.95 126
L 224.9 126 224.9 126.05 562.3 126.05 562.3 126 646.65 126
Q 666.35 126 670 108.7 670.15 107.7 670.35 106.7 670.75 103.6 670.75 100.05
L 670.75 22.45
Q 670.75 21.1 670.65 19.85 670.6 18.7 670.45 17.7 668 -2.6 646.65 -2.6
L 562.3 -2.6 562.3 -2.55 224.9 -2.55 224.9 -2.6 20.95 -2.6 Z"/>
</g>

<g id="_______15_0_Layer0_0_FILL">
<path fill="#1B5B82" stroke="none" d="
M 667.5 94.4
L 667.5 81.75
Q 667.45 84.55 667.1 87.05 666.9 87.95 666.75 88.9 663.15 104.8 643.65 104.8
L 560.1 104.8 560.1 104.85 225.9 104.85 225.9 104.8 23.85 104.8
Q 17.95 104.8 13.5 103.4 8.1 101.6 4.9 97.65 3.35 95.8 2.35 93.45 1.9 92.55 1.55 91.6 1 89.95 0.65 88.2 0.5 87.2 0.35 86.2 0.2 85.1 0.1 83.95 0.05 82.85 0 81.75
L 0 94.4
Q 0 95.95 0.1 97.4 0.2 98.55 0.35 99.65 0.5 100.65 0.65 101.65 1 103.4 1.55 105.05 1.9 106 2.35 106.9 3.35 109.25 4.9 111.1 8.1 115.05 13.5 116.85 17.95 118.25 23.85 118.25
L 225.9 118.25 225.9 118.3 560.1 118.3 560.1 118.25 643.65 118.25
Q 663.15 118.25 666.75 102.35 666.9 101.4 667.1 100.5 667.5 97.65 667.5 94.4 Z"/>

<path fill="#329EDF" stroke="none" d="
M 667.5 23.85
Q 666.75 22.25 665.85 20.75 665.25 19.8 664.6 18.95 657.4 9.05 643.55 7.8
L 560.1 7.8 560.1 7.85 225.9 7.85 225.9 7.8 24.45 7.8
Q 18.25 8.3 13.5 10.3 5.5 13.6 1.3 21.2 0.6 22.45 0 23.85
L 0 81.75
Q 0.05 82.85 0.1 83.95 0.2 85.1 0.35 86.2 0.5 87.2 0.65 88.2 1 89.95 1.55 91.6 1.9 92.55 2.35 93.45 3.35 95.8 4.9 97.65 8.1 101.6 13.5 103.4 17.95 104.8 23.85 104.8
L 225.9 104.8 225.9 104.85 560.1 104.85 560.1 104.8 643.65 104.8
Q 663.15 104.8 666.75 88.9 666.9 87.95 667.1 87.05 667.45 84.55 667.5 81.75
L 667.5 23.85
M 57.95 15.95
Q 60.85 17.55 60.85 20 60.85 22.3 57.95 23.95 55.2 25.6 51.15 25.6 47.15 25.6 44.25 23.95 41.4 22.3 41.4 20 41.4 17.6 44.25 15.95 47.1 14.3 51.1 14.3 55.2 14.3 57.95 15.95
M 27.75 16.3
Q 32.9 16.3 34.7 19.5 36.55 22.65 33.95 27.1 31.45 31.5 26 34.65 20.6 37.8 15.45 37.8 10.35 37.75 8.5 34.6 6.7 31.4 9.2 27 11.8 22.55 17.2 19.4 22.65 16.3 27.75 16.3 Z"/>

<path fill="#39B4FF" stroke="none" d="
M 34.7 19.5
Q 32.9 16.3 27.75 16.3 22.65 16.3 17.2 19.4 11.8 22.55 9.2 27 6.7 31.4 8.5 34.6 10.35 37.75 15.45 37.8 20.6 37.8 26 34.65 31.45 31.5 33.95 27.1 36.55 22.65 34.7 19.5
M 60.85 20
Q 60.85 17.55 57.95 15.95 55.2 14.3 51.1 14.3 47.1 14.3 44.25 15.95 41.4 17.6 41.4 20 41.4 22.3 44.25 23.95 47.15 25.6 51.15 25.6 55.2 25.6 57.95 23.95 60.85 22.3 60.85 20
M 667.5 23.85
L 667.5 23.05
Q 667.5 21.8 667.4 20.65 667.35 19.6 667.2 18.65 664.8 0 643.65 0
L 560.1 0 560.1 0.05 225.9 0.05 225.9 0 23.85 0
Q 17.95 0 13.5 1.5 1 5.6 0.1 21.25 0.05 22.2 0 23.2
L 0 23.85
Q 0.6 22.45 1.3 21.2 5.5 13.6 13.5 10.3 18.25 8.3 24.45 7.8
L 225.9 7.8 225.9 7.85 560.1 7.85 560.1 7.8 643.55 7.8
Q 657.4 9.05 664.6 18.95 665.25 19.8 665.85 20.75 666.75 22.25 667.5 23.85 Z"/>
</g>

<g id="______________________________________________________________12_Layer1_0_FILL">
<path fill="#003366" stroke="none" d="
M 168.35 44.35
L 168.35 35.2 115 35.2
Q 106.5041015625 35.2 106.35 43.4
L 106.35 92.65
Q 106.4603515625 97.111328125 109.05 99.1 111.1763671875 100.8 115 100.8
L 175.65 100.8
Q 184.0494140625 100.8 184.25 92.65
L 184.25 54.45
Q 184.2109375 52.851953125 183.85 51.55 182.412890625 46.25 175.65 46.25
L 119.05 46.25
Q 119.376171875 45.95234375 119.75 45.7 121.25 44.6 123.6 44.35
L 168.35 44.35
M 167 36.8
L 167 42.8 122.9 42.8
Q 119.23515625 43.19921875 117.65 45.65 117.4970703125 45.9515625 117.35 46.25 117.2173828125 46.53828125 117.1 46.85 116.923046875 47.3228515625 116.8 47.85
L 173.85 47.85
Q 177.8658203125 47.85 179.9 49.85 180.2982421875 50.2642578125 180.6 50.75 181.8720703125 52.6126953125 181.95 55.65
L 181.95 91
Q 181.95 99.1 173.85 99.1
L 116.7 99.1
Q 108.55 99.1 108.55 91
L 108.55 44.9
Q 108.55 44.646875 108.55 44.4 108.6775390625 40.7064453125 110.6 38.8 112.6421875 36.8 116.7 36.8
L 167 36.8
M 166.9 67.15
Q 164.55 67.15 162.85 68.75 161.2 70.45 161.2 72.75 161.2 75.15 162.85 76.85 164.55 78.55 166.9 78.55 169.2 78.55 170.9 76.85 172.55 75.15 172.55 72.85 172.55 70.45 170.9 68.75 169.2 67.15 166.9 67.15
M 162.85 72.85
Q 162.85 71.2 164 70 165.2 68.9 166.85 68.9 168.5 68.9 169.7 70 170.85 71.2 170.85 72.9 170.85 74.5 169.7 75.7 168.5 76.9 166.85 76.9 165.2 76.9 164 75.7 162.85 74.5 162.85 72.85 Z"/>

<path fill="#FFFFFF" stroke="none" d="
M 167 42.8
L 167 36.8 116.7 36.8
Q 112.6421875 36.8 110.6 38.8 108.6775390625 40.7064453125 108.55 44.4 108.55 44.646875 108.55 44.9
L 108.55 91
Q 108.55 99.1 116.7 99.1
L 173.85 99.1
Q 181.95 99.1 181.95 91
L 181.95 55.65
Q 181.8720703125 52.6126953125 180.6 50.75 180.2982421875 50.2642578125 179.9 49.85 177.8658203125 47.85 173.85 47.85
L 116.8 47.85
Q 116.923046875 47.3228515625 117.1 46.85 117.2173828125 46.53828125 117.35 46.25 117.4970703125 45.9515625 117.65 45.65 119.23515625 43.19921875 122.9 42.8
L 167 42.8
M 162.85 68.75
Q 164.55 67.15 166.9 67.15 169.2 67.15 170.9 68.75 172.55 70.45 172.55 72.85 172.55 75.15 170.9 76.85 169.2 78.55 166.9 78.55 164.55 78.55 162.85 76.85 161.2 75.15 161.2 72.75 161.2 70.45 162.85 68.75 Z"/>
</g>
</defs>

<g transform="matrix( 1.557861328125, 0, 0, 1.557861328125, -40.7,-9.5) ">
<g transform="matrix( 1, 0, 0, 1, 29.35,9.2) ">
<g transform="matrix( 1, 0, 0, 1, 0,0) ">
<use xlink:href="#_______15_0_Layer1_0_FILL"/>
</g>

<g transform="matrix( 1, 0, 0, 1, 0,0) ">
<use xlink:href="#_______15_0_Layer0_0_FILL"/>
</g>
</g>

<g transform="matrix( 1, 0, 0, 1, 0,0) ">
<use xlink:href="#______________________________________________________________12_Layer1_0_FILL"/>
</g>
</g>
</svg>
