
<svg xmlns="http://www.w3.org/2000/svg" version="1.1" xmlns:xlink="http://www.w3.org/1999/xlink" preserveAspectRatio="none" x="0px" y="0px" width="544px" height="210px" viewBox="0 0 544 210">
<defs>
<g id="_______3_0_Layer2_0_FILL">
<path fill="#000000" fill-opacity="0.2980392156862745" stroke="none" d="
M 33.6 -3.3
Q 24.1 -3.3 16.9 -0.65 -3.25 6.45 -4.7 33.85 -4.8 35.45 -4.85 37.2
L -4.85 141.9
Q -4.85 142.4 -4.85 142.95
L -4.85 162.85
Q -4.8 167.05 -4.3 170.8 -4.05 172.55 -3.85 174.3 -3.25 177.35 -2.35 180.25 -1.8 181.9 -1.1 183.45 0.55 187.6 3.05 190.8 8.2 197.7 16.9 200.85 24.1 203.3 33.6 203.3
L 494.05 203.3
Q 525.45 203.3 531.3 175.5 531.55 173.85 531.85 172.3 532.4 167.95 532.5 163.1
L 532.5 36.95
Q 532.45 34.85 532.35 32.8 532.25 30.95 532 29.25 528.1 -3.3 494.05 -3.3
L 33.6 -3.3 Z"/>
</g>

<g id="_______3_0_Layer1_0_FILL">
<path fill="#B52400" stroke="none" d="
M 527.4 131.7
Q 527.3 136.1 526.75 140.05 526.45 141.45 526.2 142.95 520.5 168.1 489.65 168.1
L 37.75 168.1
Q 28.4 168.1 21.35 165.9 12.8 163.05 7.75 156.8 5.3 153.9 3.7 150.15 3 148.75 2.45 147.25 1.55 144.6 1 141.85 0.8 140.25 0.55 138.7 0.1125 135.725 0 132.45
L 0 150.5
Q 0.05 154.3 0.55 157.7 0.8 159.25 1 160.85 1.55 163.6 2.45 166.25 3 167.75 3.7 169.15 5.3 172.9 7.75 175.8 12.8 182.05 21.35 184.9 28.4 187.1 37.75 187.1
L 489.65 187.1
Q 520.5 187.1 526.2 161.95 526.45 160.45 526.75 159.05 527.3 155.1 527.4 150.7
L 527.4 131.7 Z"/>

<path fill="#FF3300" stroke="none" d="
M 527.4 48.45
Q 527.35 46.55 527.25 44.7 527.15 43 526.9 41.5 523.1 12 489.65 12
L 37.75 12
Q 28.4 12 21.35 14.4 1.55 20.85 0.15 45.65 0.05 47.1 0 48.7
L 0 131.5
Q 0.003125 131.9734375 0 132.45 0.1125 135.725 0.55 138.7 0.8 140.25 1 141.85 1.55 144.6 2.45 147.25 3 148.75 3.7 150.15 5.3 153.9 7.75 156.8 12.8 163.05 21.35 165.9 28.4 168.1 37.75 168.1
L 489.65 168.1
Q 520.5 168.1 526.2 142.95 526.45 141.45 526.75 140.05 527.3 136.1 527.4 131.7
L 527.4 48.45 Z"/>

<path fill="#FF9176" stroke="none" d="
M 527.4 48.45
L 527.4 36.45
Q 527.35 34.55 527.25 32.7 527.15 31 526.9 29.5 523.1 0 489.65 0
L 37.75 0
Q 28.4 0 21.35 2.4 1.55 8.85 0.15 33.65 0.05 35.1 0 36.7
L 0 48.7
Q 0.05 47.1 0.15 45.65 1.55 20.85 21.35 14.4 28.4 12 37.75 12
L 489.65 12
Q 523.1 12 526.9 41.5 527.15 43 527.25 44.7 527.35 46.55 527.4 48.45 Z"/>
</g>

<g id="_______3_0_Layer0_0_FILL">
<path fill="#FF9176" stroke="none" d="
M 55.75 33.45
Q 55.75 36.25 59.2 38.25 62.65 40.25 67.5 40.2 72.35 40.25 75.7 38.25 79.2 36.25 79.2 33.45 79.2 30.55 75.7 28.6 72.35 26.6 67.45 26.6 62.6 26.6 59.2 28.6 55.75 30.6 55.75 33.45
M 46.8 42.05
Q 49.9 36.65 47.7 32.85 45.5 29 39.3 29.05 33.15 29 26.6 32.75 20.1 36.55 17 41.9 13.95 47.2 16.15 51.05 18.35 54.85 24.5 54.9 30.7 54.9 37.2 51.1 43.75 47.35 46.8 42.05 Z"/>
</g>

<g id="_______2_0_Layer0_0_FILL">
<path fill="#27354A" stroke="none" d="
M 123.85 142.6
Q 126 138.4 125.85 133.65 125.7 131.45 125.1 129.15 124.05 123.6 115.15 119.65 110.3 119.45 106.5 122.35 106.2 122.65 105.95 122.9 103.4 125.1 102.3 127.95 101.5 129.85 101.35 132.05 101.35 132.55 101.35 133 101.3 137.9 104.6 141.65 108.25 145.85 113.75 146.2 119.25 146.6 123.35 142.95 123.6 142.8 123.85 142.6
M 115.25 124.55
Q 118.75 124.8 121.05 127.45 123.3 130.05 123.05 133.55 122.85 137.05 120.2 139.35 117.6 141.6 114.1 141.35 110.6 141.15 108.3 138.5 106.25 136.15 106.25 133.15 106.25 132.8 106.25 132.4 106.5 128.9 109.15 126.6 111.75 124.35 115.25 124.55
M 48.7 120
Q 44.65 119.8 41.4 121.85 40.35 122.4 39.45 123.2 36.25 126 35.3 129.95 35.1 130.65 35.05 131.35 34.95 131.85 34.95 132.35 34.55 137.85 38.1 142 41.75 146.15 47.3 146.55 52.8 146.95 56.9 143.3 57.15 143.15 57.4 142.95 60 137.8 59.15 131.95 58.95 130.75 58.65 129.45 57.6 123.9 48.7 120
M 56.55 131.9
Q 56.7 132.85 56.65 133.9 56.4 137.35 53.75 139.6 51.15 141.95 47.65 141.7 44.15 141.45 41.85 138.8 39.6 136.15 39.85 132.7 39.85 132.05 40 131.5 40.55 128.75 42.7 126.9 45.3 124.6 48.8 124.85 52.3 125.1 54.6 127.7 56.2 129.6 56.55 131.9 Z"/>

<path fill="#45658E" stroke="none" d="
M 121.05 127.45
Q 118.75 124.8 115.25 124.55 111.75 124.35 109.15 126.6 106.5 128.9 106.25 132.4 106.25 132.8 106.25 133.15 106.25 136.15 108.3 138.5 110.6 141.15 114.1 141.35 117.6 141.6 120.2 139.35 122.85 137.05 123.05 133.55 123.3 130.05 121.05 127.45
M 118.4 129.65
Q 119.75 131.2 119.6 133.3 119.6 133.35 119.6 133.45 119.4 135.4 117.9 136.75 116.35 138.05 114.3 137.9 112.2 137.8 110.85 136.25 109.75 134.95 109.7 133.25 109.65 132.9 109.65 132.6 109.8 130.5 111.35 129.15 112.9 127.85 115 127.95 117.05 128.1 118.4 129.65
M 56.65 133.9
Q 56.7 132.85 56.55 131.9 56.2 129.6 54.6 127.7 52.3 125.1 48.8 124.85 45.3 124.6 42.7 126.9 40.55 128.75 40 131.5 39.85 132.05 39.85 132.7 39.6 136.15 41.85 138.8 44.15 141.45 47.65 141.7 51.15 141.95 53.75 139.6 56.4 137.35 56.65 133.9
M 53 131.8
Q 53.25 132.6 53.2 133.6 53.05 135.65 51.5 137.05 49.95 138.4 47.9 138.25 45.8 138.1 44.45 136.55 43.1 134.95 43.25 132.9 43.3 132.2 43.5 131.55 43.9 130.35 44.9 129.45 46.5 128.1 48.6 128.25 50.65 128.4 51.95 129.95 52.7 130.8 53 131.8 Z"/>

<path fill="#6C9EC4" stroke="none" d="
M 119.6 133.3
Q 119.75 131.2 118.4 129.65 117.05 128.1 115 127.95 112.9 127.85 111.35 129.15 109.8 130.5 109.65 132.6 109.65 132.9 109.7 133.25 109.75 134.95 110.85 136.25 112.2 137.8 114.3 137.9 116.35 138.05 117.9 136.75 119.4 135.4 119.6 133.45 119.6 133.35 119.6 133.3
M 125.85 133.65
Q 126 138.4 123.85 142.6 127.55 139.1 127.9 133.9 127.95 133.8 127.95 133.7 128.15 130.4 126.9 127.6 126.05 125.85 124.7 124.2 121.1 120.05 115.6 119.65 115.35 119.65 115.15 119.65 124.05 123.6 125.1 129.15 125.7 131.45 125.85 133.65
M 53.2 133.6
Q 53.25 132.6 53 131.8 52.7 130.8 51.95 129.95 50.65 128.4 48.6 128.25 46.5 128.1 44.9 129.45 43.9 130.35 43.5 131.55 43.3 132.2 43.25 132.9 43.1 134.95 44.45 136.55 45.8 138.1 47.9 138.25 49.95 138.4 51.5 137.05 53.05 135.65 53.2 133.6
M 49.15 120
Q 48.9 120 48.7 120 57.6 123.9 58.65 129.45 58.95 130.75 59.15 131.95 60 137.8 57.4 142.95 61.1 139.4 61.5 134.2 61.55 133.1 61.5 132 61.25 129.95 60.5 128.05 59.7 126.15 58.25 124.5 57.45 123.6 56.6 122.9 53.45 120.3 49.15 120 Z"/>

<path fill="#726C90" stroke="none" d="
M 58.25 124.5
Q 59.7 126.15 60.5 128.05
L 102.3 127.95
Q 103.4 125.1 105.95 122.9 106.2 122.65 106.5 122.35
L 56.6 122.9
Q 57.45 123.6 58.25 124.5 Z"/>

<path fill="#CBCBE5" stroke="none" d="
M 50.6 116.15
L 58.75 119.15 126.85 118.8 130.9 125.2 131.35 118.3
Q 131.25 115.55 127.75 115.1
L 50.6 116.15 Z"/>

<path fill="#A8A6D1" stroke="none" d="
M 48.7 120
Q 48.9 120 49.15 120 53.45 120.3 56.6 122.9
L 106.5 122.35
Q 110.3 119.45 115.15 119.65 115.35 119.65 115.6 119.65 121.1 120.05 124.7 124.2 126.05 125.85 126.9 127.6 130.45 127.5 130.9 125.2
L 126.85 118.8 58.75 119.15 50.6 116.15 53.75 109.15
Q 51 109.1 48.9 108.2
L 44.8 114.25 41.4 121.85
Q 44.65 119.8 48.7 120 Z"/>

<path fill="#837AA0" stroke="none" d="
M 48.9 108.2
Q 45.95 106.8 44.2 103.65
L 36.1 123.65 35.3 129.95
Q 36.25 126 39.45 123.2 40.35 122.4 41.4 121.85
L 44.8 114.25 48.9 108.2 Z"/>

<path fill="#E9A648" stroke="none" d="
M 35.35 33.85
L 30.4 33.2 42.95 100.6
Q 43.5 102.3 44.2 103.65 45.95 106.8 48.9 108.2
L 35.35 33.85
M 39.45 19.05
L 35.75 19.7 28.1 21.05 28.95 25.35 97.5 28.1
Q 81.25 25.3 67.1 21
L 39.45 19.05 Z"/>

<path fill="#D76919" stroke="none" d="
M 33.85 16.4
L 36.4 16.15 33.55 10.2 6.75 11.8 2.45 5.55 0.55 5.65
Q -1.35 12.45 3.45 18.85
L 27.35 16.9 33.85 16.4 Z"/>

<path fill="#E9E3E8" stroke="none" d="
M 35.75 19.7
L 39.45 19.05 38.45 15.95 36.4 16.15 33.85 16.4 35.75 19.7 Z"/>

<path fill="#9C97B9" stroke="none" d="
M 27.35 16.9
L 28.1 21.05 35.75 19.7 33.85 16.4 27.35 16.9 Z"/>

<path fill="#FEC727" stroke="none" d="
M 33.55 10.2
L 30.7 4.2 2.45 5.55 6.75 11.8 33.55 10.2 Z"/>

<path fill="#FBEA71" stroke="none" d="
M 30.7 4.2
L 33.55 10.2 36.4 16.15 38.45 15.95 33.3 0 1.45 3.2
Q 0.9 4.45 0.55 5.65
L 2.45 5.55 30.7 4.2 Z"/>

<path fill="#F49C29" stroke="none" d="
M 138.75 93.9
L 109.35 94.6 61.1 97.65
Q 56.05 98.1 55.25 94.7
L 42.35 40.35 37.35 33.95 53.5 103.2 124.4 100.2
Q 132.35 100.05 138.75 93.9 Z"/>

<path fill="#CC5C1B" stroke="none" d="
M 142.8 89.05
Q 140.85 91.8 138.75 93.9 132.35 100.05 124.4 100.2
L 53.5 103.2 37.35 33.95 35.35 33.85 48.9 108.2
Q 51 109.1 53.75 109.15
L 128.1 105.55
Q 137 104.4 141.35 94.6
L 142.8 89.05 Z"/>

<path fill="#AA430F" stroke="none" d="
M 140.85 43.65
Q 142.5 39.05 137 37.65
L 46.45 31.35
Q 41.4 31.35 41.45 36.55
L 42.35 40.35 55.25 94.7
Q 56.05 98.1 61.1 97.65
L 109.35 94.6 125.2 93.65
Q 129.1 92.5 129.95 89.2
L 140.85 43.65
M 137 42.1
L 135.95 46.5 125.1 90.35 59.55 93.85 46 38.4 45.35 35.7 137 42.1 Z"/>

<path fill="#FDCC28" stroke="none" d="
M 125.1 90.35
L 135.95 46.5 46 38.4 59.55 93.85 125.1 90.35 Z"/>

<path fill="#ED8E21" stroke="none" d="
M 135.95 46.5
L 137 42.1 45.35 35.7 46 38.4 135.95 46.5 Z"/>

<path fill="#FCD42D" stroke="none" d="
M 137 37.65
Q 142.5 39.05 140.85 43.65
L 129.95 89.2
Q 129.1 92.5 125.2 93.65
L 109.35 94.6 138.75 93.9
Q 140.85 91.8 142.8 89.05
L 142.8 89 148.5 33.2
Q 120.85 32.1 97.5 28.1
L 28.95 25.35 30.4 33.2 35.35 33.85 37.35 33.95 42.35 40.35 41.45 36.55
Q 41.4 31.35 46.45 31.35
L 137 37.65 Z"/>

<path fill="#FBFABD" stroke="none" d="
M 156.4 35.95
Q 156.65 28.55 150.4 26.8
L 67.1 21
Q 81.25 25.3 97.5 28.1 120.85 32.1 148.5 33.2
L 142.8 89 156.4 35.95 Z"/>
</g>

<path id="_______2_0_Layer0_0_1_STROKES" stroke="#791E00" stroke-width="2" stroke-linejoin="round" stroke-linecap="round" fill="none" d="
M 67.1 21
L 150.4 26.8
Q 156.65 28.55 156.4 35.95
L 142.8 89
M 142.8 89.05
L 141.35 94.6
Q 137 104.4 128.1 105.55
L 53.75 109.15 50.6 116.15 127.75 115.1
Q 131.25 115.55 131.35 118.3
L 130.9 125.2
Q 130.45 127.5 126.9 127.6 128.15 130.4 127.95 133.7 127.95 133.8 127.9 133.9 127.55 139.1 123.85 142.6 123.6 142.8 123.35 142.95 119.25 146.6 113.75 146.2 108.25 145.85 104.6 141.65 101.3 137.9 101.35 133 101.35 132.55 101.35 132.05 101.5 129.85 102.3 127.95
L 60.5 128.05
Q 61.25 129.95 61.5 132 61.55 133.1 61.5 134.2 61.1 139.4 57.4 142.95 57.15 143.15 56.9 143.3 52.8 146.95 47.3 146.55 41.75 146.15 38.1 142 34.55 137.85 34.95 132.35 34.95 131.85 35.05 131.35 35.1 130.65 35.3 129.95
L 36.1 123.65 44.2 103.65
Q 43.5 102.3 42.95 100.6
L 30.4 33.2 28.95 25.35 28.1 21.05 27.35 16.9 3.45 18.85
Q -1.35 12.45 0.55 5.65 0.9 4.45 1.45 3.2
L 33.3 0 38.45 15.95 39.45 19.05 67.1 21
M 36.4 16.15
L 38.45 15.95
M 39.45 19.05
L 35.75 19.7 28.1 21.05
M 36.4 16.15
L 33.85 16.4 27.35 16.9
M 53.75 109.15
Q 51 109.1 48.9 108.2 45.95 106.8 44.2 103.65
M 48.7 120
Q 48.9 120 49.15 120 53.45 120.3 56.6 122.9
M 106.5 122.35
Q 110.3 119.45 115.15 119.65 115.35 119.65 115.6 119.65 121.1 120.05 124.7 124.2 126.05 125.85 126.9 127.6
M 48.7 120
Q 44.65 119.8 41.4 121.85 40.35 122.4 39.45 123.2 36.25 126 35.3 129.95
M 56.6 122.9
Q 57.45 123.6 58.25 124.5 59.7 126.15 60.5 128.05
M 102.3 127.95
Q 103.4 125.1 105.95 122.9 106.2 122.65 106.5 122.35"/>
</defs>

<g transform="matrix( 1, 0, 0, 1, 8.05,5.25) ">
<g transform="matrix( 1, 0, 0, 1, 0,0) ">
<use xlink:href="#_______3_0_Layer2_0_FILL"/>
</g>

<g transform="matrix( 1, 0, 0, 1, 0,0) ">
<use xlink:href="#_______3_0_Layer1_0_FILL"/>
</g>

<g transform="matrix( 1, 0, 0, 1, 0,0) ">
<use xlink:href="#_______3_0_Layer0_0_FILL"/>
</g>
</g>

<g transform="matrix( 1, 0, 0, 1, 60.55,21) ">
<g transform="matrix( 1, 0, 0, 1, 0,0) ">
<use xlink:href="#_______2_0_Layer0_0_FILL"/>

<use xlink:href="#_______2_0_Layer0_0_1_STROKES"/>
</g>
</g>
</svg>
