
<svg xmlns="http://www.w3.org/2000/svg" version="1.1" xmlns:xlink="http://www.w3.org/1999/xlink" preserveAspectRatio="none" x="0px" y="0px" width="158px" height="122px" viewBox="0 0 158 122">
<defs>
<g id="_______________________________________0_Layer1_0_FILL">
<path fill="#125A6D" stroke="none" d="
M 70.75 47.05
L 64.65 30.25 49.35 39.55 51.25 18.5 36.75 0 18.5 17.5 19.7 37.2 5.8 29.1 0 44.15 11.6 70.9 4.95 75.55 6.85 79.55 20.95 86.45 33.75 87.55 47.45 86.55 61.85 79.65 63.35 76.75 57.4 71.75 70.75 47.05
M 37.4 77.45
L 37.5 77.2 37.45 77.5 37.4 77.45 Z"/>
</g>

<g id="_______________________________________0_Layer0_0_FILL">
<path fill="#0F84B3" stroke="none" d="
M 46.95 79.9
L 55.25 75.7 57.4 71.75 69.95 48.5 63.05 50.75 46.95 79.9
M 44.65 81.05
L 46.75 77.3 42.2 73.75 40.15 78.85 41.85 79.65 44.65 81.05
M 37.15 68.6
L 30.55 73.45 30.55 77.7 33.4 79.05 36.4 77.85 37.15 68.6
M 27.65 62.6
L 22.05 68.55 24.95 80.6 29.05 76.95 28.6 72.35 27.65 62.6
M 19.9 38.4
L 11.35 47.8 14.8 60.75 17.85 54.7 22.7 58.2 19.9 38.4
M 48.15 40.25
L 49.35 39.55 51.15 19.95 41.75 27.95 37.5 77.2 39.75 69.35 48.15 40.25 Z"/>

<path fill="#463457" stroke="none" d="
M 47.75 83.35
L 47.45 86.55 61.85 79.65 63.35 76.75 47.75 83.35
M 11.35 77.75
L 12.6 82.35 17.5 78.95 18.1 78.25 16.7 75.25 11.35 77.75 Z"/>

<path fill="#675677" stroke="none" d="
M 46.95 79.9
L 44.65 81.05 47.75 83.35 63.35 76.75 57.4 71.75 55.25 75.7 46.95 79.9
M 20.95 86.45
L 33.75 87.55 47.45 86.55 47.75 83.35 43.5 83 34.7 85 24.55 83.35 18.35 85.2 20.95 86.45
M 18.1 78.25
L 17.5 78.95 26.15 82.25 34 79.65 41.85 79.65 40.15 78.85 37.45 77.5 37.4 77.45 36.4 77.85 33.4 79.05 30.55 77.7 29.05 76.95 24.95 80.6 24.3 81.2 18.1 78.25
M 12.6 82.35
L 11.35 77.75 4.95 75.55 6.85 79.55 12.6 82.35 Z"/>

<path fill="#30B3E2" stroke="none" d="
M 42.7 72.5
L 42.2 73.75 46.75 77.3 62.15 49.75 53.35 45.75 42.7 72.5
M 37.5 77.2
L 37.45 77.5 40.15 78.85 42.2 73.75 39.75 69.35 37.5 77.2
M 12.25 65.7
L 16.15 74 16.7 75.25 18.1 78.25 24.3 81.2 21.1 67.95 12.25 65.7
M 30.55 73.45
L 28.6 72.35 29.05 76.95 30.55 77.7 30.55 73.45
M 30.55 73.45
L 37.15 68.6 40.55 26.75 30.55 26.75 30.55 64.35 30.55 73.45
M 27.55 61.7
L 22.7 58.2 17.85 54.7 18.25 56.2 20.85 67.05 21.1 67.95 27.55 61.7
M 5.8 29.1
L 6.95 33.85 9.8 45.95 10.2 47.8 19.7 37.2 5.8 29.1
M 40.55 26.75
L 51.25 18.5 36.75 0 40.55 26.75
M 70.75 47.05
L 64.65 30.25 62.15 49.75 70.75 47.05 Z"/>

<path fill="#9A7993" stroke="none" d="
M 17.5 78.95
L 12.6 82.35 18.35 85.2 24.55 83.35 34.7 85 43.5 83 47.75 83.35 44.65 81.05 41.85 79.65 34 79.65 26.15 82.25 17.5 78.95
M 16.15 74
L 11.6 70.9 4.95 75.55 11.35 77.75 16.7 75.25 16.15 74 Z"/>

<path fill="#93DEF7" stroke="none" d="
M 18.25 56.2
L 14.9 65.25 20.85 67.05 18.25 56.2
M 36.75 0
L 30.55 26.75 40.55 26.75 36.75 0
M 21.95 17.75
L 29.25 23.85 34.15 5.35 21.95 17.75
M 10.5 48.8
L 0.5 45.25 11.6 70.9 16.15 74 12.25 65.7 14.25 61.8 10.5 48.8
M 19.7 37.2
L 19.9 38.4 22.7 58.2 27.55 61.7 27.65 62.6 28.6 72.35 30.55 73.45 30.55 64.35 28.15 24.9 18.5 17.5 19.7 37.2
M 2.45 43.15
L 9.8 45.95 6.95 33.85 2.45 43.15
M 64.65 30.25
L 53.35 45.75 62.15 49.75 64.65 30.25
M 52.85 45.2
L 48.15 40.25 39.75 69.35 42.2 73.75 42.7 72.5 52.85 45.2
M 59.9 35.05
L 51.1 40.9 53.2 44.15 59.9 35.05 Z"/>

<path fill="#125A6D" stroke="none" d="
M 22.05 68.55
L 27.65 62.6 27.55 61.7 21.1 67.95 24.3 81.2 24.95 80.6 22.05 68.55
M 0 44.15
L 0.5 45.25 10.5 48.8 14.25 61.8 14.8 60.75 11.35 47.8 19.9 38.4 19.7 37.2 10.2 47.8 0 44.15
M 69.95 48.5
L 70.75 47.05 62.15 49.75 46.75 77.3 44.65 81.05 46.95 79.9 63.05 50.75 69.95 48.5
M 51.15 19.95
L 51.25 18.5 40.55 26.75 37.15 68.6 36.4 77.85 37.4 77.45 37.5 77.2 41.75 27.95 51.15 19.95 Z"/>

<path fill="#FCFFFC" stroke="none" d="
M 21.1 67.95
L 20.85 67.05 14.9 65.25 18.25 56.2 17.85 54.7 14.8 60.75 14.25 61.8 12.25 65.7 21.1 67.95
M 36.75 0
L 18.5 17.5 28.15 24.9 30.55 64.35 30.55 26.75 36.75 0
M 29.25 23.85
L 21.95 17.75 34.15 5.35 29.25 23.85
M 6.95 33.85
L 5.8 29.1 0 44.15 10.2 47.8 9.8 45.95 2.45 43.15 6.95 33.85
M 48.15 40.25
L 52.85 45.2 42.7 72.5 53.35 45.75 64.65 30.25 49.35 39.55 48.15 40.25
M 51.1 40.9
L 59.9 35.05 53.2 44.15 51.1 40.9 Z"/>
</g>

<path id="_______________________________________0_Layer1_0_1_STROKES" stroke="#333843" stroke-width="6" stroke-linejoin="round" stroke-linecap="round" fill="none" d="
M 51.25 18.5
L 49.35 39.55 64.65 30.25 70.75 47.05 57.4 71.75 63.35 76.75 61.85 79.65 47.45 86.55 33.75 87.55 20.95 86.45 6.85 79.55 4.95 75.55 11.6 70.9 0 44.15 5.8 29.1 19.7 37.2 18.5 17.5 36.75 0 51.25 18.5 Z"/>
</defs>

<g transform="matrix( 1.2685546875, 0, 0, 1.2685546875, 33,5.5) ">
<g transform="matrix( 1, 0, 0, 1, 0,0) ">
<use xlink:href="#_______________________________________0_Layer1_0_FILL"/>

<use xlink:href="#_______________________________________0_Layer1_0_1_STROKES"/>
</g>

<g transform="matrix( 1, 0, 0, 1, 0,0) ">
<use xlink:href="#_______________________________________0_Layer0_0_FILL"/>
</g>
</g>
</svg>
