
<svg xmlns="http://www.w3.org/2000/svg" version="1.1" xmlns:xlink="http://www.w3.org/1999/xlink" preserveAspectRatio="none" x="0px" y="0px" width="668px" height="1016px" viewBox="0 0 668 1016">
<defs>
<g id="Layer0_0_FILL">
<path fill="#E5AD50" stroke="none" d="
M 59.05 18.05
Q 37.85 19 20.15 27.5
L 16.35 75.25 16.35 946.2
Q 23.9 991 77.6 995.4
L 609.65 995.4
Q 635.15 996.9 660.7 978.95
L 657.3 951.75 656.3 812.25 655.3 812.25 649.8 65.7
Q 641.05 19.8 609.65 18.05
L 59.05 18.05
M 567.45 38.2
L 590.85 38.2
Q 609.9 38.2 623.35 51.4 636.8 64.6 636.8 83.35
L 636.8 933.2
Q 636.8 951.9 623.35 965.15 609.9 978.35 590.85 978.35
L 75.5 978.35
Q 56.4 978.35 43 965.15 29.55 951.9 29.55 933.2
L 29.55 83.35
Q 29.55 64.6 43 51.4 56.4 38.2 75.5 38.2
L 92.7 38.2 92.7 114.1
Q 94.9 120.45 100 125.55 108.95 134.5 121.65 134.5
L 538.6 134.5
Q 551.25 134.5 560.2 125.55 565.25 120.55 567.45 114.35
L 567.45 38.2
M 502.4 38.35
Q 514.9 38.35 523.65 46.15 532.45 54.05 532.45 65.15
L 532.45 92.4 532.45 98.85
Q 532.45 109.95 523.65 117.75 514.9 125.65 502.4 125.65
L 156.7 125.65
Q 144.3 125.65 135.5 117.75 126.7 109.95 126.7 98.85
L 126.7 65.15
Q 126.7 54.05 135.5 46.15 137.65 44.3 140 42.85 147.3 38.35 156.7 38.35
L 502.4 38.35 Z"/>

<path fill="#FFC059" stroke="none" d="
M 532.45 98.85
L 532.45 92.4 511.25 108.3
Q 511.1 108.3 511 108.5 510.75 108.65 510.4 108.95 502.4 114.9 491.05 114.9
L 484.85 114.9
Q 484.15 114.9 483.45 114.9
L 168.15 114.9
Q 156.75 114.9 148.75 108.95 140.75 103.05 140.75 94.7
L 140.75 69.3
Q 140.75 60.95 148.75 55.05 150.2 54 151.7 53.15
L 140 42.85
Q 137.65 44.3 135.5 46.15 126.7 54.05 126.7 65.15
L 126.7 98.85
Q 126.7 109.95 135.5 117.75 144.3 125.65 156.7 125.65
L 502.4 125.65
Q 514.9 125.65 523.65 117.75 532.45 109.95 532.45 98.85
M 662.85 52
Q 662.85 32.1 648.25 18.05 633.65 4 612.95 4
L 53.3 4
Q 32.6 4 18 18.05 9.75 26 6.15 35.8 12.85 31 20.15 27.5 37.85 19 59.05 18.05
L 609.65 18.05
Q 641.05 19.8 649.8 65.7
L 655.3 812.25 656.3 812.25 657.3 951.75 660.7 978.95
Q 662.85 972.15 662.85 964.45
L 662.85 52 Z"/>

<path fill="#3A2520" stroke="none" d="
M 518.4 69.3
Q 518.4 60.95 510.4 55.05 502.4 49.1 491.05 49.1
L 484.85 49.1
Q 484.15 49.1 483.45 49.2
L 168.15 49.1
Q 158.8 49.1 151.7 53.15 150.2 54 148.75 55.05 140.75 60.95 140.75 69.3
L 140.75 94.7
Q 140.75 103.05 148.75 108.95 156.75 114.9 168.15 114.9
L 483.45 114.9
Q 484.15 114.9 484.85 114.9
L 491.05 114.9
Q 502.4 114.9 510.4 108.95 510.75 108.65 511 108.5 511.1 108.3 511.25 108.3 518.4 102.6 518.4 94.7
L 518.4 69.3 Z"/>

<path fill="#A97222" stroke="none" d="
M 523.65 46.15
Q 514.9 38.35 502.4 38.35
L 156.7 38.35
Q 147.3 38.35 140 42.85
L 151.7 53.15
Q 158.8 49.1 168.15 49.1
L 483.45 49.2
Q 484.15 49.1 484.85 49.1
L 491.05 49.1
Q 502.4 49.1 510.4 55.05 518.4 60.95 518.4 69.3
L 518.4 94.7
Q 518.4 102.6 511.25 108.3
L 532.45 92.4 532.45 65.15
Q 532.45 54.05 523.65 46.15
M 537.05 144.95
Q 549.65 144.95 558.55 136.05 567.45 127.15 567.45 114.5
L 567.45 114.35
Q 565.25 120.55 560.2 125.55 551.25 134.5 538.6 134.5
L 121.65 134.5
Q 108.95 134.5 100 125.55 94.9 120.45 92.7 114.1
L 92.7 114.5
Q 92.7 127.15 101.6 136.05 110.5 144.95 123.1 144.95
L 537.05 144.95
M 20.15 27.5
Q 12.85 31 6.15 35.8 3.4 43.35 3.4 52
L 3.4 964.45
Q 3.4 984.35 18 998.4 32.6 1012.45 53.3 1012.45
L 612.95 1012.45
Q 633.65 1012.45 648.25 998.4 657.2 989.8 660.7 978.95 635.15 996.9 609.65 995.4
L 77.6 995.4
Q 23.9 991 16.35 946.2
L 16.35 75.25 20.15 27.5 Z"/>

<path fill="#582F11" stroke="none" d="
M 590.85 38.2
L 567.45 38.2 567.45 114.35 567.45 114.5
Q 567.45 127.15 558.55 136.05 549.65 144.95 537.05 144.95
L 123.1 144.95
Q 110.5 144.95 101.6 136.05 92.7 127.15 92.7 114.5
L 92.7 114.1 92.7 38.2 75.5 38.2
Q 56.4 38.2 43 51.4 29.55 64.6 29.55 83.35
L 29.55 933.2
Q 29.55 951.9 43 965.15 56.4 978.35 75.5 978.35
L 590.85 978.35
Q 609.9 978.35 623.35 965.15 636.8 951.9 636.8 933.2
L 636.8 83.35
Q 636.8 64.6 623.35 51.4 609.9 38.2 590.85 38.2
M 579.4 57.2
L 579.8 57.2
Q 598.05 57.2 610.9 70 623.8 82.75 623.8 100.95
L 623.8 919.5
Q 623.8 937.6 610.9 950.4 598.05 963.2 579.8 963.2
L 86.6 963.2
Q 68.35 963.2 55.5 950.4 42.65 937.6 42.65 919.5
L 42.65 100.95
Q 42.65 82.75 55.5 70 66.25 59.3 80.75 57.55
L 80.75 125.5
Q 80.75 138.8 90.1 148.15 99.45 157.5 112.7 157.5
L 547.5 157.5
Q 560.7 157.5 570.05 148.15 579.4 138.8 579.4 125.5
L 579.4 57.2 Z"/>

<path fill="#85481A" stroke="none" d="
M 579.8 57.2
L 579.4 57.2 579.4 125.5
Q 579.4 138.8 570.05 148.15 560.7 157.5 547.5 157.5
L 112.7 157.5
Q 99.45 157.5 90.1 148.15 80.75 138.8 80.75 125.5
L 80.75 57.55
Q 66.25 59.3 55.5 70 42.65 82.75 42.65 100.95
L 42.65 919.5
Q 42.65 937.6 55.5 950.4 68.35 963.2 86.6 963.2
L 579.8 963.2
Q 598.05 963.2 610.9 950.4 623.8 937.6 623.8 919.5
L 623.8 100.95
Q 623.8 82.75 610.9 70 598.05 57.2 579.8 57.2 Z"/>
</g>
</defs>

<g transform="matrix( 1, 0, 0, 1, 0,0) ">
<use xlink:href="#Layer0_0_FILL"/>
</g>
</svg>
