
<svg xmlns="http://www.w3.org/2000/svg" version="1.1" xmlns:xlink="http://www.w3.org/1999/xlink" preserveAspectRatio="none" x="0px" y="0px" width="238px" height="238px" viewBox="0 0 238 238">
<defs>
<g id="___________________________________1_________2_Layer0_0_FILL">
<path fill="#A97222" stroke="none" d="
M 9.3 19.8
Q 9.303515625 19.7431640625 9.3 19.65 9.7025390625 14.1572265625 13.05 11.6
L 4.2 2.6
Q 0 5.9498046875 0 13.5
L 0 122.1
Q 0 135.6 13.5 135.6
L 122.05 135.6
Q 128.4931640625 135.6 131.85 132.55
L 123.05 123.55
Q 120.1501953125 126.25 114.55 126.25
L 20.95 126.25
Q 9.3 126.25 9.3 114.65
L 9.3 21.05
Q 9.3 20.9703125 9.3 20.9 9.3005859375 20.8205078125 9.3 20.75 9.301171875 20.6720703125 9.3 20.6 9.301953125 20.5130859375 9.3 20.4 9.30234375 20.348046875 9.3 20.25 9.3021484375 20.21640625 9.3 20.15 9.302734375 20.0875 9.3 20 9.3029296875 19.966015625 9.3 19.9 9.3029296875 19.84765625 9.3 19.8 Z"/>

<path fill="#321919" stroke="none" d="
M 126.15 21.05
Q 126.15 9.45 114.55 9.45
L 20.95 9.45
Q 15.9123046875 9.45 13.05 11.6 9.7025390625 14.1572265625 9.3 19.65 9.303515625 19.7431640625 9.3 19.8 9.3029296875 19.84765625 9.3 19.9 9.3029296875 19.966015625 9.3 20 9.302734375 20.0875 9.3 20.15 9.3021484375 20.21640625 9.3 20.25 9.30234375 20.348046875 9.3 20.4 9.301953125 20.5130859375 9.3 20.6 9.301171875 20.6720703125 9.3 20.75 9.3005859375 20.8205078125 9.3 20.9 9.3 20.9703125 9.3 21.05
L 9.3 114.65
Q 9.3 126.25 20.95 126.25
L 114.55 126.25
Q 120.1501953125 126.25 123.05 123.55 126.15 120.6498046875 126.15 114.65
L 126.15 21.05
M 122.85 25.2
L 122.85 50.45 122.85 113.45
Q 122.85 113.539453125 122.85 113.6 122.8490234375 113.74453125 122.85 113.85 122.8484375 113.9580078125 122.85 114.05 122.7822265625 116.4466796875 122.15 118.3 121.6251953125 119.9267578125 120.65 121.1 118.36015625 123.924609375 113.7 124.35 113.6337890625 124.3677734375 113.55 124.35 112.7619140625 124.45 111.9 124.45
L 23.6 124.45
Q 12.65 124.45 12.65 113.5
L 12.65 87.4 12.65 25.2
Q 12.65 18.2380859375 17.05 15.7 19.6119140625 14.25 23.6 14.25
L 111.9 14.25
Q 122.85 14.25 122.85 25.2 Z"/>

<path fill="#D1C5C2" stroke="none" d="
M 15.45 85.2
Q 14.052734375 86.2908203125 12.65 87.4
L 12.65 113.5
Q 12.65 124.45 23.6 124.45
L 111.9 124.45
Q 112.7619140625 124.45 113.55 124.35 113.6337890625 124.3677734375 113.7 124.35 118.36015625 123.924609375 120.65 121.1 121.6251953125 119.9267578125 122.15 118.3 122.7822265625 116.4466796875 122.85 114.05 122.8484375 113.9580078125 122.85 113.85 122.8490234375 113.74453125 122.85 113.6 122.85 113.539453125 122.85 113.45
L 122.85 50.45
Q 90.8517578125 48.22890625 60.8 59.55 60.5615234375 59.6349609375 60.3 59.7 37.3240234375 68.4955078125 15.45 85.2 Z"/>

<path fill="#E3D6D3" stroke="none" d="
M 122.85 50.45
L 122.85 25.2
Q 122.85 14.25 111.9 14.25
L 23.6 14.25
Q 19.6119140625 14.25 17.05 15.7 12.65 18.2380859375 12.65 25.2
L 12.65 87.4
Q 14.052734375 86.2908203125 15.45 85.2 37.3240234375 68.4955078125 60.3 59.7 60.5615234375 59.6349609375 60.8 59.55 90.8517578125 48.22890625 122.85 50.45 Z"/>

<path fill="#FFC059" stroke="none" d="
M 135.6 13.5
Q 135.6 0 122.05 0
L 13.5 0
Q 7.5501953125 0 4.2 2.6
L 13.05 11.6
Q 15.9123046875 9.45 20.95 9.45
L 114.55 9.45
Q 126.15 9.45 126.15 21.05
L 126.15 114.65
Q 126.15 120.6498046875 123.05 123.55
L 131.85 132.55
Q 135.6 129.1806640625 135.6 122.1
L 135.6 13.5 Z"/>
</g>
</defs>

<g transform="matrix( 1.724334716796875, 0, 0, 1.724334716796875, 2.1,2.1) ">
<g transform="matrix( 1, 0, 0, 1, 0,0) ">
<use xlink:href="#___________________________________1_________2_Layer0_0_FILL"/>
</g>
</g>
</svg>
