
<svg xmlns="http://www.w3.org/2000/svg" version="1.1" xmlns:xlink="http://www.w3.org/1999/xlink" preserveAspectRatio="none" x="0px" y="0px" width="194px" height="170px" viewBox="0 0 194 170">
<defs>
<g id="_______7_________0_Layer3_0_FILL">
<path fill="#000000" fill-opacity="0.2980392156862745" stroke="none" d="
M 176 16.8
Q 174.05 14.2 171.6 11.8 159.55 0 142.4 0
L 41.25 0
Q 24.15 0 12.05 11.8 8 15.8 5.3 20.35 0.2 29 0 39.65
L 0 105.7
Q 0.0015625 105.8841796875 0 106.05
L 0 119.15
Q 0.15 124.8 1.75 129.9 4.55 139.2 12.05 146.55 24.15 158.4 41.25 158.4
L 142.4 158.4
Q 159.55 158.4 171.6 146.55 173.7 144.45 175.5 142.25 183.3 132.2 183.65 119.15
L 183.65 39.65
Q 183.4 26.75 176 16.8 Z"/>
</g>

<g id="_______7_________0_Layer3_1_FILL">
<path fill="#000000" fill-opacity="0.2980392156862745" stroke="none" d="
M 130.95 45.8
Q 127.65 45.8 125.3 48.15
L 93.05 80.4 60.8 48.15
Q 58.45 45.8 55.15 45.8 51.85 45.8 49.5 48.15 47.15 50.5 47.15 53.8 47.15 55.4 47.7 56.8 47.15 58.2 47.15 59.8 47.15 63.1 49.5 65.45
L 87.4 103.35
Q 89.75 105.7 93.05 105.7 96.35 105.7 98.7 103.35
L 136.6 65.45
Q 138.95 63.1 138.95 59.8 138.95 58.2 138.4 56.8 138.95 55.4 138.95 53.8 138.95 50.5 136.6 48.15 134.25 45.8 130.95 45.8 Z"/>
</g>

<g id="_______7_________0_Layer3_2_FILL">
<path fill="#000000" fill-opacity="0.2980392156862745" stroke="none" d="
M 45.75 33.4
Q 48.85 28 46.65 24.2 44.45 20.35 38.25 20.4 32.1 20.35 25.55 24.1 19.05 27.9 15.95 33.25 12.9 38.55 15.1 42.4 17.3 46.2 23.45 46.25 29.65 46.25 36.15 42.45 42.7 38.7 45.75 33.4
M 74.65 19.95
Q 71.3 17.95 66.4 17.95 61.55 17.95 58.15 19.95 54.7 21.95 54.7 24.8 54.7 27.6 58.15 29.6 61.6 31.6 66.45 31.55 71.3 31.6 74.65 29.6 78.15 27.6 78.15 24.8 78.15 21.9 74.65 19.95 Z"/>
</g>

<g id="_______7_________0_Layer2_0_FILL">
<path fill="#02678B" stroke="none" d="
M 183.65 119.15
L 183.65 105.7
Q 183.4 119.05 175.5 129.25 173.7 131.45 171.6 133.55 159.55 145.4 142.4 145.4
L 41.25 145.4
Q 24.15 145.4 12.05 133.55 4.55 126.2 1.75 116.9 0.1515625 111.765625 0 106.05
L 0 119.15
Q 0.15 124.8 1.75 129.9 4.55 139.2 12.05 146.55 24.15 158.4 41.25 158.4
L 142.4 158.4
Q 159.55 158.4 171.6 146.55 173.7 144.45 175.5 142.25 183.3 132.2 183.65 119.15 Z"/>

<path fill="#04ADE9" stroke="none" d="
M 176 25.8
Q 174.05 23.2 171.6 20.8 159.55 9 142.4 9
L 41.25 9
Q 24.15 9 12.05 20.8 8 24.8 5.3 29.35 0.3 37.8 0 48.25
L 0 105.7
Q 0.0015625 105.8841796875 0 106.05 0.1515625 111.765625 1.75 116.9 4.55 126.2 12.05 133.55 24.15 145.4 41.25 145.4
L 142.4 145.4
Q 159.55 145.4 171.6 133.55 173.7 131.45 175.5 129.25 183.4 119.05 183.65 105.7
L 183.65 48.25
Q 183.3 35.6 176 25.8 Z"/>

<path fill="#A6E7FF" stroke="none" d="
M 176 16.8
Q 174.05 14.2 171.6 11.8 159.55 0 142.4 0
L 41.25 0
Q 24.15 0 12.05 11.8 8 15.8 5.3 20.35 0.2 29 0 39.65
L 0 48.25
Q 0.3 37.8 5.3 29.35 8 24.8 12.05 20.8 24.15 9 41.25 9
L 142.4 9
Q 159.55 9 171.6 20.8 174.05 23.2 176 25.8 183.3 35.6 183.65 48.25
L 183.65 39.65
Q 183.4 26.75 176 16.8 Z"/>
</g>

<g id="_______7_________0_Layer1_0_FILL">
<path fill="#FFFFFF" stroke="none" d="
M 138.95 59.8
Q 138.95 58.2 138.4 56.8 137.8 55.35 136.6 54.15 134.25 51.8 130.95 51.8 127.65 51.8 125.3 54.15
L 93.05 86.4 60.8 54.15
Q 58.45 51.8 55.15 51.8 51.85 51.8 49.5 54.15 48.3 55.35 47.7 56.8 47.15 58.2 47.15 59.8 47.15 63.1 49.5 65.45
L 87.4 103.35
Q 89.75 105.7 93.05 105.7 96.35 105.7 98.7 103.35
L 136.6 65.45
Q 138.95 63.1 138.95 59.8 Z"/>

<path fill="#02678B" stroke="none" d="
M 130.95 45.8
Q 127.65 45.8 125.3 48.15
L 93.05 80.4 60.8 48.15
Q 58.45 45.8 55.15 45.8 51.85 45.8 49.5 48.15 47.15 50.5 47.15 53.8 47.15 55.4 47.7 56.8 48.3 55.35 49.5 54.15 51.85 51.8 55.15 51.8 58.45 51.8 60.8 54.15
L 93.05 86.4 125.3 54.15
Q 127.65 51.8 130.95 51.8 134.25 51.8 136.6 54.15 137.8 55.35 138.4 56.8 138.95 55.4 138.95 53.8 138.95 50.5 136.6 48.15 134.25 45.8 130.95 45.8 Z"/>
</g>

<g id="_______7_________0_Layer0_0_FILL">
<path fill="#A6E7FF" stroke="none" d="
M 45.75 33.4
Q 48.85 28 46.65 24.2 44.45 20.35 38.25 20.4 32.1 20.35 25.55 24.1 19.05 27.9 15.95 33.25 12.9 38.55 15.1 42.4 17.3 46.2 23.45 46.25 29.65 46.25 36.15 42.45 42.7 38.7 45.75 33.4
M 74.65 19.95
Q 71.3 17.95 66.4 17.95 61.55 17.95 58.15 19.95 54.7 21.95 54.7 24.8 54.7 27.6 58.15 29.6 61.6 31.6 66.45 31.55 71.3 31.6 74.65 29.6 78.15 27.6 78.15 24.8 78.15 21.9 74.65 19.95 Z"/>
</g>
</defs>

<g transform="matrix( 0.99932861328125, 0, 0, 0.99932861328125, 5.1,3.75) ">
<g transform="matrix( 1.039031982421875, 0, 0, 1.0616912841796875, -3.35,-2.75) ">
<use xlink:href="#_______7_________0_Layer3_0_FILL"/>
</g>

<g transform="matrix( 1.039031982421875, 0, 0, 1.0616912841796875, -3.35,-2.75) ">
<use xlink:href="#_______7_________0_Layer3_1_FILL"/>
</g>

<g transform="matrix( 1.039031982421875, 0, 0, 1.0616912841796875, -3.35,-2.75) ">
<use xlink:href="#_______7_________0_Layer3_2_FILL"/>
</g>

<g transform="matrix( 1, 0, 0, 1, 0,0) ">
<use xlink:href="#_______7_________0_Layer2_0_FILL"/>
</g>

<g transform="matrix( 1, 0, 0, 1, 0,0) ">
<use xlink:href="#_______7_________0_Layer1_0_FILL"/>
</g>

<g transform="matrix( 1, 0, 0, 1, 0,0) ">
<use xlink:href="#_______7_________0_Layer0_0_FILL"/>
</g>
</g>
</svg>
