
<svg xmlns="http://www.w3.org/2000/svg" version="1.1" xmlns:xlink="http://www.w3.org/1999/xlink" preserveAspectRatio="none" x="0px" y="0px" width="92px" height="92px" viewBox="0 0 92 92">
<defs>
<g id="Layer2_0_FILL">
<path fill="#C40000" stroke="none" d="
M 10.75 35.05
Q 10.85 35.4 11 35.75 14.95 44 28.65 56.85 33.55 61.2 37.3 65.55 40.65 69.45 43.1 73.3 45.7 77.4 46.45 79.8
L 49.9 73.4
Q 55.2 65.3 64.25 56.85 68.5 53.1 71.85 49.7 55.9 63.75 48 61.15 29.35 51.15 10.75 35.05 Z"/>

<path fill="#FF7373" stroke="none" d="
M 46.45 23.3
Q 46.4 23.2 46.2 22.8 45.95 22.4 45.95 22.1 43.9 17.45 39.4 12.35 35.25 7.2 28.8 6.55 20.95 5.8 14.2 13.4 13.25 14.5 12.5 15.6 20.85 9.3 28.25 10.4 38.45 14.5 46.45 23.3
M 83.85 31.1
Q 83.9 30.8 83.95 30.5 85.5 21.75 78.7 13.9 72.05 6.45 64 7.3 57.8 8 53.4 12.9 51.5 15.35 50.35 16.85 48.35 19.6 47.3 21.6 46.85 22.25 46.75 22.55 46.45 23.1 46.45 23.3 56.55 11.45 65.1 11.85 79 14.1 83.85 31.1
M 16.65 20.85
Q 15.85 20.85 15.35 20.85 14.15 23.25 14.15 26.8 14.15 31.8 16.75 31.8 18.95 31.8 20.05 28.5 20.75 26.5 20.75 24.75 20.75 22.55 19.95 21.7 19.05 20.85 16.65 20.85
M 24 17.25
Q 25.3 17.25 26.1 16.4 26.85 15.65 26.85 14.7 26.85 13.75 26.15 13.55 25.15 13.55 24.45 13.55 23.45 13.55 22.95 13.8 22.5 14.05 21.9 14.25 21.35 15.05 21.35 15.7 21.35 17.1 24 17.25 Z"/>

<path fill="#EB0000" stroke="none" d="
M 82.05 36.2
Q 82.5 35.15 82.9 34.2 83.5 32.65 83.85 31.1 79 14.1 65.1 11.85 56.55 11.45 46.45 23.3 38.45 14.5 28.25 10.4 20.85 9.3 12.5 15.6 7.7 22.35 9.05 29.8 9.5 32.4 10.75 35.05 29.35 51.15 48 61.15 55.9 63.75 71.85 49.7 79.15 42.15 82.05 36.2
M 26.1 16.4
Q 25.3 17.25 24 17.25 21.35 17.1 21.35 15.7 21.35 15.05 21.9 14.25 22.5 14.05 22.95 13.8 23.45 13.55 24.45 13.55 25.15 13.55 26.15 13.55 26.85 13.75 26.85 14.7 26.85 15.65 26.1 16.4
M 15.35 20.85
Q 15.85 20.85 16.65 20.85 19.05 20.85 19.95 21.7 20.75 22.55 20.75 24.75 20.75 26.5 20.05 28.5 18.95 31.8 16.75 31.8 14.15 31.8 14.15 26.8 14.15 23.25 15.35 20.85 Z"/>

<path fill="#000000" fill-opacity="0.2" stroke="none" d="
M 82.9 40.65
Q 84.45 36.55 84.25 32.65 83.55 33.45 82.9 34.2 82.5 35.15 82.05 36.2 79.15 42.15 71.85 49.7 68.5 53.1 64.25 56.85 55.2 65.3 49.9 73.4
L 46.45 79.8
Q 45.7 77.4 43.1 73.3 40.65 69.45 37.3 65.55 33.55 61.2 28.65 56.85 14.95 44 11 35.75 10.85 35.4 10.75 35.05 9.5 32.4 9.05 29.8 7.9 35.75 11 42.2 14.95 50.45 28.65 63.3 30.8 65.2 32.7 67.1 35.15 69.5 37.3 72 40.65 75.9 43.1 79.75 45.7 83.85 46.45 86.25
L 49.9 79.85
Q 55.2 71.75 64.25 63.3 77.9 51.3 82.05 42.65 82.5 41.65 82.9 40.65 Z"/>
</g>

<path id="Layer2_0_1_STROKES" stroke="#801700" stroke-width="2" stroke-linejoin="round" stroke-linecap="round" fill="none" d="
M 9.05 29.8
Q 7.7 22.35 12.5 15.6 13.25 14.5 14.2 13.4 20.95 5.8 28.8 6.55 35.25 7.2 39.4 12.35 43.9 17.45 45.95 22.1 45.95 22.4 46.2 22.8 46.4 23.2 46.45 23.3 46.45 23.1 46.75 22.55 46.85 22.25 47.3 21.6 48.35 19.6 50.35 16.85 51.5 15.35 53.4 12.9 57.8 8 64 7.3 72.05 6.45 78.7 13.9 85.5 21.75 83.95 30.5 83.9 30.8 83.85 31.1 83.5 32.65 82.9 34.2 82.5 35.15 82.05 36.2 79.15 42.15 71.85 49.7 68.5 53.1 64.25 56.85 55.2 65.3 49.9 73.4
L 46.45 79.8
Q 45.7 77.4 43.1 73.3 40.65 69.45 37.3 65.55 33.55 61.2 28.65 56.85 14.95 44 11 35.75 10.85 35.4 10.75 35.05 9.5 32.4 9.05 29.8 Z"/>
</defs>

<g transform="matrix( 1, 0, 0, 1, 0,0) ">
<use xlink:href="#Layer2_0_FILL"/>

<use xlink:href="#Layer2_0_1_STROKES"/>
</g>
</svg>
