
<svg xmlns="http://www.w3.org/2000/svg" version="1.1" xmlns:xlink="http://www.w3.org/1999/xlink" preserveAspectRatio="none" x="0px" y="0px" width="158px" height="122px" viewBox="0 0 158 122">
<defs>
<g id="________0_Layer1_0_FILL">
<path fill="#D8770E" stroke="none" d="
M 75.75 66.3
Q 74.85 66.25 73.9 66.2 71.8134765625 66.031640625 69.8 65.45 62.8611328125 63.453125 56.85 56.55 55.8109375 55.3775390625 54.85 54.15 54.087109375 53.1078125 53.35 52 52.9880859375 51.443359375 52.6 50.85 52.5384765625 50.698046875 52.45 50.55 52.4388671875 50.5234375 52.4 50.5 50.199609375 46.7755859375 48.8 42.55
L 38.9 45.1
Q 40.09453125 48.45390625 41.8 51.55 42.071484375 51.9728515625 42.3 52.4 42.9912109375 53.5181640625 43.7 54.6 45.0701171875 56.559375 46.65 58.4 52.978515625 65.6052734375 60.3 67.45 62.574609375 68.040625 64.95 68.1 71.9 68.3 77.65 67.1 76.7 66.3 75.75 66.3
M 40.05 54.6
L 40.05 68.5
Q 41.8 68.55 43.6 68.55 52.80390625 68.55 60.3 67.45 52.978515625 65.6052734375 46.65 58.4 45.0701171875 56.559375 43.7 54.6 43.6654296875 54.6 43.6 54.6 41.8 54.6 40.05 54.6
M 35.05 37.75
Q 33.25 37.75 31.5 37.75
L 31.5 51.65
Q 33.25 51.7 35.05 51.7 38.5626953125 51.7 41.8 51.55 40.09453125 48.45390625 38.9 45.1 37.615625 41.5404296875 36.95 37.75 36.023828125 37.75 35.05 37.75
M 11.7 49.35
Q 10.9720703125 49.196875 10.25 49 9.3615234375 48.7703125 8.55 48.5
L 8.55 59.4
Q 8.55 63.2 18.8 65.85 20.45 66.3 22.25 66.65
L 22.25 52.75
Q 21.5 52.6 20.8 52.4 19.75 52.2 18.8 51.95 18.4 51.85 18 51.75 17.65 51.6 17.25 51.55 13.804296875 50.5341796875 11.7 49.35
M 13.7 35.9
Q 12.95 35.75 12.25 35.55 11.2 35.35 10.25 35.1 9.85 35 9.45 34.9 9.1 34.75 8.7 34.7 0.117578125 32.169921875 0 28.75
L 0 42.55
Q 0 46.0205078125 8.55 48.5 9.3615234375 48.7703125 10.25 49 10.9720703125 49.196875 11.7 49.35 12.6876953125 49.603125 13.7 49.8
L 13.7 35.9
M 15 17.95
Q 13.95 17.75 13 17.5 12.6 17.4 12.2 17.3 11.85 17.15 11.45 17.1 2.867578125 14.569921875 2.75 11.15
L 2.75 24.9 2.75 24.95
Q 2.75 26.901171875 5.45 28.55 6.052734375 28.9169921875 6.8 29.25 9.1859375 30.4138671875 13 31.4 14.65 31.85 16.45 32.2
L 16.45 18.3
Q 15.7 18.15 15 17.95
M 37.55 20.15
Q 35.87578125 20.15 34.25 20.15
L 34.25 34.05
Q 35.3716796875 34.08203125 36.5 34.1 35.8146484375 26.5015625 37.55 20.15
M 60.05 1.9
Q 60.35078125 1.68515625 60.7 1.55
L 55.85 3.15 53.25 4 50.9 4.8 47.95 5.8
Q 47.45 6.05 46.95 6.3 46.2001953125 6.66328125 45.5 7.15 44.1689453125 8.05390625 43 9.35 42.635546875 9.8171875 42.25 10.3 41.8501953125 10.8650390625 41.45 11.5 40.65 12.7 40 13.95 39.7126953125 14.6203125 39.4 15.3
L 39.4 15.35
Q 39.3 15.4 39.2 15.5
L 50.15 12.05
Q 50.489453125 11.423046875 50.85 10.8 51.0337890625 10.534375 51.2 10.25 51.3896484375 9.9654296875 51.6 9.65 51.75 9.4 51.9 9.2 52.3884765625 8.4849609375 52.9 7.8 53.926171875 6.51328125 55.05 5.4 55.5921875 4.913671875 56.15 4.45 56.7896484375 3.90390625 57.45 3.4 58.7015625 2.5455078125 60.05 1.9 Z"/>

<path fill="#FDE159" stroke="none" d="
M 17.25 51.55
L 19.05 50.7
Q 16.2638671875 50.3259765625 13.7 49.8 12.6876953125 49.603125 11.7 49.35 13.804296875 50.5341796875 17.25 51.55
M 25.5 53.35
Q 27.65 53.65 29.95 53.95
L 34.1 52.05
Q 31.6 51.85 29.3 51.6
L 25.5 53.35
M 34.95 54.35
Q 37.4 54.5 40.05 54.6 41.8 54.6 43.6 54.6 43.6654296875 54.6 43.7 54.6 42.9912109375 53.5181640625 42.3 52.4 41.46171875 52.3787109375 40.6 52.35 40 52.35 39.35 52.3
L 34.95 54.35
M 25.55 35.2
Q 23.05 35 20.75 34.75
L 16.95 36.5
Q 19.1 36.8 21.4 37.1
L 25.55 35.2
M 26.9 33.7
Q 27.26171875 33.72265625 27.55 33.7 26.4078125 33.6322265625 25.25 33.5 25.3123046875 33.5337890625 25.35 33.55 25.45 33.55 25.55 33.6 26.2 33.65 26.9 33.7
M 32.05 35.5
Q 31.45 35.5 30.8 35.45
L 26.4 37.5
Q 28.85 37.65 31.5 37.75 33.25 37.75 35.05 37.75 36.023828125 37.75 36.95 37.75 36.7943359375 36.6521484375 36.65 35.55 35.8658203125 35.55 35.05 35.55 33.55 35.55 32.05 35.5
M 6 30
Q 5.45 29.35 5.45 28.6
L 5.45 28.55
Q 2.75 26.901171875 2.75 24.95
L 2.75 24.9
Q 0.02578125 26.590625 0 28.55
L 0 28.75
Q 0.117578125 32.169921875 8.7 34.7
L 12.25 33.05
Q 7.4 31.7 6 30
M 38.2 17.95
Q 38.0166015625 17.95 37.8 17.95 36.3 17.95 34.8 17.9 34.2 17.9 33.55 17.85
L 29.15 19.9
Q 31.6 20.05 34.25 20.15 35.87578125 20.15 37.55 20.15 37.85234375 19.03046875 38.2 17.95
M 28.3 17.6
Q 25.8 17.4 23.5 17.15
L 19.7 18.9
Q 21.85 19.2 24.15 19.5
L 28.3 17.6
M 47.75 18.65
Q 47.4955078125 19.24375 47.35 19.85 47.3228515625 19.94375 47.3 20.05 46.9 21.9 46.7 23.9
L 50.85 26.45
Q 51 24.4 51.5 22.55 51.65 21.8 51.8 21.15
L 47.75 18.65
M 42.25 10.3
Q 41.6625 9.980859375 41.1 9.3 40.2 8.25 37.1 7.95 36.3 7.9 35.95 7.9 35.7 7.95 35.6 8.05
L 32.4 9.75
Q 32.7 10 32.5 10.15 32.3 10.3 30.15 10.5 28.8 10.55 26.7 10.65 23.25 10.85 22.3 11.25 22.45 11.45 22.95 11.6
L 28.3 13.15 27.25 15.25
Q 27.1 15.5 27.45 15.65 27.75 15.8 28.1 15.95 28.2 15.95 28.3 16 28.95 16.05 29.65 16.1 30.45 16.15 31.05 16.05
L 36.55 15.3 38.05 15.1 39.4 15.3
Q 39.7126953125 14.6203125 40 13.95 40.65 12.7 41.45 11.5 41.8501953125 10.8650390625 42.25 10.3
M 42.05 3.25
L 44.8 2.05
Q 41.4 1.85 37.8 1.85 23.25 1.85 13 4.5 2.8 7.15 2.75 10.95
L 2.75 11.15
Q 2.867578125 14.569921875 11.45 17.1
L 15 15.45
Q 10.15 14.1 8.75 12.4 8.2 11.75 8.2 11 8.25 9.45 10.85 8.1 12.85 6.45 18.35 5.2 27 3.2 39.25 3.2 40.65 3.2 42.05 3.25
M 52.6 3.95
Q 52.94375 3.9890625 53.25 4
L 55.85 3.15
Q 55.2875 3.083984375 54.7 3
L 52.6 3.95
M 92.2 47.85
Q 92.1 48.3 91.85 48.9 91.55 49.85 91.1 50.85
L 94.5 52.85
Q 95.25 51.1 95.95 49.3 96.1 48.7 96.3 48.15
L 92.65 46
Q 92.45 46.95 92.2 47.85
M 85.5 27.95
Q 84 26.8 83.5 26.65 82.75 26.35 80.6 26.35 79.3 26.35 77.1 27 74.95 27.65 74.55 27.65 73.7736328125 27.65 72.6 25.95 72.0498046875 25.1521484375 71.4 23.95 69.5 20.25 66.25 20.25 65.35 20.25 65 20.3 64.85 20.55 64.8 20.8
L 63.2 27.55
Q 63.75 28.35 63.75 29.05 63.75 29.6 61.75 30.75 60.5623046875 31.4150390625 58.8 32.25 58.6947265625 32.305078125 58.6 32.35 57.6525390625 32.7951171875 56.9 33.25 55.1419921875 34.3880859375 54.75 35.6 54.9197265625 35.891015625 55.15 36.1 55.391015625 36.3455078125 55.7 36.5
L 62.45 40.5 63.4 48.3
Q 63.45 49.1 63.95 49.7 64.2646484375 50.0146484375 64.65 50.3 64.7826171875 50.375390625 64.9 50.45 65 50.45 65.1 50.5 65.8 50.75 66.55 50.7 67.3 50.55 67.85 50
L 72.55 45.95 73.75 44.9 78.55 45.85 78.6 45.85 81.4 46.4
Q 82.1 46.5 82.8 46.3 83 45.95 83.05 45.75 83.15 45.5 83.15 44.6 83.15 43.65 82.1 40.6 81 37.5 81 36.8 81 36.15 81.05 36.05 81.15 35.8 81.5 35.55
L 81.45 35.45 85.25 28.65
Q 85.45 28.25 85.5 27.95
M 93.15 34.35
L 97.55 37.05
Q 97.45 35.2 97.25 33.15 95.7 19.4 87.2 9.65 78.75 0 68.4 0 64.7 0 61.55 1.15 61.5 1.25 61.35 1.3
L 61.05 1.45 60.85 1.5 60.7 1.55
Q 60.35078125 1.68515625 60.05 1.9 58.7015625 2.5455078125 57.45 3.4 56.7896484375 3.90390625 56.15 4.45 55.5921875 4.913671875 55.05 5.4 53.926171875 6.51328125 52.9 7.8 52.3884765625 8.4849609375 51.9 9.2
L 56.35 12
Q 57.675 10.2609375 59.15 9 60.40625 8.021875 61.75 7.35 61.85 7.25 62 7.2 62.0970703125 7.1470703125 62.2 7.1 62.6470703125 6.855859375 63.1 6.65 63.2 6.55 63.4 6.55 63.7072265625 6.4318359375 64 6.3 65.251171875 5.9234375 66.55 5.75 67.747265625 5.5791015625 69 5.6 77.7 5.55 84.6 13.65 91.7 21.7 93 33.15 93.1 33.75 93.15 34.35 Z"/>

<path fill="#F1F590" stroke="none" d="
M 20.8 52.4
Q 21.5 52.6 22.25 52.75 23.85 53.1 25.5 53.35
L 29.3 51.6
Q 29.203125 51.584765625 29.1 51.55 23.75078125 51.3439453125 19.05 50.7
L 17.25 51.55
Q 17.65 51.6 18 51.75 18.4 51.85 18.8 51.95 19.75 52.2 20.8 52.4
M 39.35 52.3
Q 36.6 52.25 34.1 52.05
L 29.95 53.95
Q 32.35 54.2 34.95 54.35
L 39.35 52.3
M 25.55 35.2
L 21.4 37.1
Q 23.64453125 37.3337890625 26.05 37.45 26.231640625 37.490234375 26.4 37.5
L 30.8 35.45
Q 28.05 35.4 25.55 35.2
M 13.7 35.9
Q 15.3 36.25 16.95 36.5
L 20.75 34.75
Q 18.85 34.45 17.05 34.15 16.4 34.05 15.8 33.9 14.95 33.7 14.15 33.5 13.15 33.3 12.25 33.05
L 8.7 34.7
Q 9.1 34.75 9.45 34.9 9.85 35 10.25 35.1 11.2 35.35 12.25 35.55 12.95 35.75 13.7 35.9
M 18.55 16.3
Q 17.7 16.1 16.9 15.9 15.9 15.7 15 15.45
L 11.45 17.1
Q 11.85 17.15 12.2 17.3 12.6 17.4 13 17.5 13.95 17.75 15 17.95 15.7 18.15 16.45 18.3 18.05 18.65 19.7 18.9
L 23.5 17.15
Q 21.6 16.85 19.8 16.55 19.15 16.45 18.55 16.3
M 26.4 19.7
Q 27.740625 19.81875 29.15 19.9
L 33.55 17.85
Q 30.8 17.8 28.3 17.6
L 24.15 19.5
Q 25.2490234375 19.614453125 26.4 19.7
M 32 9.95
L 30.85 10 24.4 10.3
Q 23.7 10.35 23.1 10.45 22.55 10.6 22.35 10.8 22.1 11 22.2 11.2 22.25 11.25 22.3 11.25 23.25 10.85 26.7 10.65 28.8 10.55 30.15 10.5 32.3 10.3 32.5 10.15 32.7 10 32.4 9.75
L 32 9.95
M 41.1 9.3
Q 41.6625 9.980859375 42.25 10.3 42.635546875 9.8171875 43 9.35
L 40.4 8
Q 40.05 7.8 39.4 7.75 38.75 7.6 38 7.6 37.25 7.6 36.65 7.7 36.45 7.75 36.3 7.8 36.1845703125 7.8 36.05 7.8 36.01328125 7.8578125 35.95 7.9 36.3 7.9 37.1 7.95 40.2 8.25 41.1 9.3
M 51.9 9.2
Q 51.75 9.4 51.6 9.65 51.3896484375 9.9654296875 51.2 10.25 51.0337890625 10.534375 50.85 10.8 50.489453125 11.423046875 50.15 12.05 50.03515625 12.27265625 49.9 12.5 49.26484375 13.83515625 48.75 15.25 48.9 15.5 48.6 15.65 48.2822265625 16.58125 48 17.55 47.87734375 18.092578125 47.75 18.65
L 51.8 21.15
Q 52.021484375 20.2421875 52.3 19.35 52.70390625 18.1296875 53.2 16.95 54.00703125 15.226171875 55.05 13.65 55.65 12.7 56.35 12
L 51.9 9.2
M 50.9 4.8
L 53.25 4
Q 52.94375 3.9890625 52.6 3.95
L 54.7 3
Q 50.05 2.3 44.8 2.05
L 42.05 3.25
Q 40.65 3.2 39.25 3.2 27 3.2 18.35 5.2 12.85 6.45 10.85 8.1 13 7 16.9 6.15 25.55 4.1 37.8 4.1 38.95 4.1 40.05 4.15 45.8 4.25 50.7 4.8 50.7953125 4.8107421875 50.9 4.8
M 54.8 32.65
Q 54.7046875 32.8134765625 54.6 32.95 54.4578125 33.3912109375 54.4 33.85 54.4046875 33.930078125 54.4 34 54.35 34.75 54.65 35.45 54.7 35.5 54.75 35.6 55.1419921875 34.3880859375 56.9 33.25 57.6525390625 32.7951171875 58.6 32.35 58.6947265625 32.305078125 58.8 32.25 60.5623046875 31.4150390625 61.75 30.75 63.75 29.6 63.75 29.05 63.75 28.35 63.2 27.55
L 63 28.4 61.95 28.95 55.95 31.7
Q 55.3 32 54.85 32.65
L 54.8 32.65
M 81.5 35.55
Q 81.15 35.8 81.05 36.05 81 36.15 81 36.8 81 37.5 82.1 40.6 83.15 43.65 83.15 44.6 83.15 45.5 83.05 45.75 83 45.95 82.8 46.3 82.9 46.3 82.95 46.25 83.6 46 84.1 45.45 84.15 45.4 84.2 45.3 84.55 44.8 84.7 44.1 84.8 43.4 84.5 42.6
L 81.5 35.55
M 83.5 26.65
Q 84 26.8 85.5 27.95 85.55 27.55 85.55 27.15 85.55 26.4 85.15 25.8 84.7 25.2 84.05 24.8 83.35 24.45 82.6 24.55
L 74.8 25.25 69.5 19.5
Q 68.95 18.95 68.25 18.75 67.5 18.55 66.75 18.7 66.05 18.95 65.5 19.45 65.35 19.6 65.25 19.75 65.1 19.95 65 20.3 65.35 20.25 66.25 20.25 69.5 20.25 71.4 23.95 72.0498046875 25.1521484375 72.6 25.95 73.7736328125 27.65 74.55 27.65 74.95 27.65 77.1 27 79.3 26.35 80.6 26.35 82.75 26.35 83.5 26.65
M 97.55 37.05
L 93.15 34.35
Q 93.3 36.5 93.3 38.5 93.15 42.3 92.2 45.75 92.1 46.2 91.85 46.85 91.25 48.6 90.3 50.4 89.8 51.55 89.05 52.6 88.45 53.5 87.8 54.3 84.15 59 79.1 60.3 78.7533203125 60.372265625 78.4 60.4 77.5388671875 60.57890625 76.65 60.65 75.9 60.7 75.1 60.7 74.4 60.7 73.65 60.65 66.4013671875 60.0419921875 60.25 53.5 59.8205078125 53.0787109375 59.4 52.6 58.9166015625 52.0513671875 58.45 51.45 57.7302734375 50.5845703125 57.05 49.65 53.0748046875 43.9451171875 51.55 36.7 51.345703125 35.5939453125 51.15 34.45 51.090234375 33.9466796875 51 33.4 51.0166015625 33.290234375 51 33.15 50.95 32.6 50.9 32 50.8 30.95 50.8 29.85 50.75 28.1 50.85 26.45
L 46.7 23.9
Q 46.35 26.55 46.55 29.25
L 50.8 31.95
Q 50.8 32.6884765625 50.85 33.45 50.8703125 33.7736328125 50.9 34.1 50.91640625 34.296484375 50.9 34.5 50.96640625 34.880078125 51 35.25 51.089453125 36.0091796875 51.2 36.75 52.330078125 44.070703125 55.85 49.9 56.4259765625 50.7982421875 57 51.65 57.7830078125 52.7265625 58.6 53.75 59.003515625 54.202734375 59.4 54.65 65.9 62.05 73.65 62.75 74.4 62.8 75.1 62.8 75.6875 62.8 76.25 62.75 76.45078125 62.76328125 76.65 62.75 77.9 62.65 79.1 62.4 84.15 61.1 87.8 56.4 88.35 55.7 88.9 55
L 92.2 57
Q 92.25 56.75 92.4 56.55 93.6 54.75 94.5 52.85
L 91.1 50.85
Q 91.55 49.85 91.85 48.9 92.1 48.3 92.2 47.85 92.45 46.95 92.65 46
L 96.3 48.15
Q 97.75 43.05 97.55 37.05 Z"/>

<path fill="#E09914" stroke="none" d="
M 40.05 54.6
Q 37.4 54.5 34.95 54.35 32.35 54.2 29.95 53.95 27.65 53.65 25.5 53.35 23.85 53.1 22.25 52.75
L 22.25 66.65
Q 30.05 68.25 40.05 68.5
L 40.05 54.6
M 16.95 36.5
Q 15.3 36.25 13.7 35.9
L 13.7 49.8
Q 16.2638671875 50.3259765625 19.05 50.7 23.75078125 51.3439453125 29.1 51.55 30.287109375 51.6197265625 31.5 51.65
L 31.5 37.75
Q 28.85 37.65 26.4 37.5 26.231640625 37.490234375 26.05 37.45 23.64453125 37.3337890625 21.4 37.1 19.1 36.8 16.95 36.5
M 29.15 19.9
Q 27.740625 19.81875 26.4 19.7 25.2490234375 19.614453125 24.15 19.5 21.85 19.2 19.7 18.9 18.05 18.65 16.45 18.3
L 16.45 32.2
Q 20.3576171875 33.0015625 24.8 33.45 25.0427734375 33.501171875 25.25 33.5 26.4078125 33.6322265625 27.55 33.7 30.7841796875 33.96328125 34.25 34.05
L 34.25 20.15
Q 31.6 20.05 29.15 19.9
M 47.75 18.65
Q 47.87734375 18.092578125 48 17.55 48.2822265625 16.58125 48.6 15.65 48.9 15.5 48.75 15.25 49.26484375 13.83515625 49.9 12.5 50.03515625 12.27265625 50.15 12.05
L 39.2 15.5
Q 39.1455078125 15.6212890625 39.1 15.75 38.624609375 16.82890625 38.2 17.95 37.85234375 19.03046875 37.55 20.15 35.8146484375 26.5015625 36.5 34.1 36.553125 34.519921875 36.6 34.95 36.6306640625 35.2462890625 36.65 35.55 36.7943359375 36.6521484375 36.95 37.75 37.615625 41.5404296875 38.9 45.1
L 48.8 42.55
Q 47.9837890625 39.9556640625 47.45 37.2 47.223046875 36.111328125 47.05 35 46.9552734375 34.39765625 46.85 33.8 46.839453125 33.476171875 46.8 33.15 46.55 31.2 46.55 29.25 46.35 26.55 46.7 23.9 46.9 21.9 47.3 20.05 47.3228515625 19.94375 47.35 19.85 47.4955078125 19.24375 47.75 18.65 Z"/>

<path fill="#FD9706" stroke="none" d="
M 34.1 52.05
Q 36.6 52.25 39.35 52.3 40 52.35 40.6 52.35 41.46171875 52.3787109375 42.3 52.4 42.071484375 51.9728515625 41.8 51.55 38.5626953125 51.7 35.05 51.7 33.25 51.7 31.5 51.65 30.287109375 51.6197265625 29.1 51.55 29.203125 51.584765625 29.3 51.6 31.6 51.85 34.1 52.05
M 15.8 33.9
Q 16.4 34.05 17.05 34.15 18.85 34.45 20.75 34.75 23.05 35 25.55 35.2 28.05 35.4 30.8 35.45 31.45 35.5 32.05 35.5 33.55 35.55 35.05 35.55 35.8658203125 35.55 36.65 35.55 36.6306640625 35.2462890625 36.6 34.95 36.553125 34.519921875 36.5 34.1 35.3716796875 34.08203125 34.25 34.05 30.7841796875 33.96328125 27.55 33.7 27.26171875 33.72265625 26.9 33.7 26.2 33.65 25.55 33.6 25.45 33.55 25.35 33.55 25.05703125 33.519921875 24.8 33.45 20.3576171875 33.0015625 16.45 32.2 14.65 31.85 13 31.4 9.1859375 30.4138671875 6.8 29.25 6.321875 29.613671875 6 30 7.4 31.7 12.25 33.05 13.15 33.3 14.15 33.5 14.95 33.7 15.8 33.9
M 43 9.35
Q 44.1689453125 8.05390625 45.5 7.15 41.844140625 6.85 37.8 6.85 35.8 6.85 33.9 6.95 24.15 7.2 16.9 8.9 13.05 9.75 10.9 10.85 10.45 11.05 10.1 11.3 9.25 11.8 8.75 12.4 10.15 14.1 15 15.45 15.9 15.7 16.9 15.9 17.7 16.1 18.55 16.3 19.15 16.45 19.8 16.55 21.6 16.85 23.5 17.15 25.8 17.4 28.3 17.6 30.8 17.8 33.55 17.85 34.2 17.9 34.8 17.9 36.3 17.95 37.8 17.95 38.0166015625 17.95 38.2 17.95 38.624609375 16.82890625 39.1 15.75 37.617578125 15.5373046875 36.55 15.3
L 31.05 16.05
Q 30.45 16.15 29.65 16.1 28.95 16.05 28.3 16 28.2 15.95 28.1 15.95 26.15 15.75 26.3 14.95 27.25 13.8 27.15 13.45 27.15 13.25 23.85 12.4 20.95 11.65 21.6 10.95 21.8 10.75 22.05 10.65 22.35 10.55 23.1 10.45 23.7 10.35 24.4 10.3
L 30.85 10
Q 32 9.2 33.1 8.75 34.505078125 8.0943359375 36.05 7.8 36.1845703125 7.8 36.3 7.8 36.45 7.75 36.65 7.7 37.25 7.6 38 7.6 38.75 7.6 39.4 7.75 40.05 7.8 40.4 8
L 43 9.35
M 89.8 35.65
Q 89.7 35.05 89.6 34.45 89.45 33.2 89.25 32 87.55 22.1 81.2 14.95 76.7 9.65 71.4 7.85 70.8759765625 7.681640625 70.35 7.55 68.0384765625 6.95 65.6 6.95 63.989453125 6.909765625 62.45 7.2 62.1103515625 7.2623046875 61.75 7.35 60.40625 8.021875 59.15 9 57.675 10.2609375 56.35 12 55.65 12.7 55.05 13.65 54.00703125 15.226171875 53.2 16.95 52.70390625 18.1296875 52.3 19.35 52.021484375 20.2421875 51.8 21.15 51.65 21.8 51.5 22.55 51 24.4 50.85 26.45 50.75 28.1 50.8 29.85 50.8 30.95 50.9 32 50.95 32.6 51 33.15 51.0166015625 33.290234375 51 33.4 51.090234375 33.9466796875 51.15 34.45 51.345703125 35.5939453125 51.55 36.7 53.0748046875 43.9451171875 57.05 49.65 57.7302734375 50.5845703125 58.45 51.45 58.9166015625 52.0513671875 59.4 52.6 59.8205078125 53.0787109375 60.25 53.5 66.4013671875 60.0419921875 73.65 60.65 74.4 60.7 75.1 60.7 75.9 60.7 76.65 60.65 77.5388671875 60.57890625 78.4 60.4 78.7533203125 60.372265625 79.1 60.3 82.05 58.7 84.4 55.6 85.1 54.8 85.65 53.9 85.85 53.55 86.05 53.25 86.55 52.5 86.9 51.7 87.6 50.4 88.15 49.1 88.3 48.6 88.45 48.15 88.75 47.5 88.8 47.05 89.2 45.6 89.45 44.1 90.15 40.1 89.8 35.65
M 85.5 27.95
Q 85.45 28.25 85.25 28.65
L 81.45 35.45 81.5 35.55 84.5 42.6
Q 84.8 43.4 84.7 44.1 84.55 44.8 84.2 45.3 84.1 46.7 83.6 47.15 83.05 47.7 80.7 47.7 79.8662109375 47.7 78.6 47.5 78.259765625 47.445703125 77.9 47.35 77.1548828125 47.2416015625 76.3 47.05 74.84453125 46.75234375 73.65 46.35 73.3208984375 46.2541015625 73 46.1 72.765234375 46.040234375 72.55 45.95
L 67.85 50
Q 67.3 50.55 66.55 50.7 65.8 50.75 65.1 50.5 65 50.45 64.9 50.45 64.6267578125 50.430859375 64.35 50.35 62.9771484375 50.012109375 62.4 48.25 62.2841796875 47.8861328125 62.2 47.45 62 43.15 61.6 42.05 61.35 41.25 57.4 39.15 54.9150390625 37.8384765625 54.15 36.3 53.8 35.593359375 53.8 34.85 53.8 34.3412109375 53.85 33.95 53.9197265625 33.7306640625 54 33.55 54.119921875 33.280078125 54.35 33 54.559765625 32.830078125 54.8 32.65
L 54.85 32.65
Q 55.3 32 55.95 31.7
L 61.95 28.95
Q 62.4 25.8 62.95 23.9 63.8 21.1 65.25 19.75 65.35 19.6 65.5 19.45 66.05 18.95 66.75 18.7 67.5 18.55 68.25 18.75 68.95 18.95 69.5 19.5
L 74.8 25.25 82.6 24.55
Q 83.35 24.45 84.05 24.8 84.7 25.2 85.15 25.8 85.55 26.4 85.55 27.15 85.55 27.55 85.5 27.95 Z"/>

<path fill="#AC5800" stroke="none" d="
M 25.25 33.5
Q 25.0427734375 33.501171875 24.8 33.45 25.05703125 33.519921875 25.35 33.55 25.3123046875 33.5337890625 25.25 33.5
M 6.8 29.25
Q 6.052734375 28.9169921875 5.45 28.55
L 5.45 28.6
Q 5.45 29.35 6 30 6.321875 29.613671875 6.8 29.25
M 39.4 15.3
L 38.05 15.1 36.55 15.3
Q 37.617578125 15.5373046875 39.1 15.75 39.1455078125 15.6212890625 39.2 15.5 39.3 15.4 39.4 15.35
L 39.4 15.3
M 22.3 11.25
Q 22.25 11.25 22.2 11.2 22.1 11 22.35 10.8 22.55 10.6 23.1 10.45 22.35 10.55 22.05 10.65 21.8 10.75 21.6 10.95 20.95 11.65 23.85 12.4 27.15 13.25 27.15 13.45 27.25 13.8 26.3 14.95 26.15 15.75 28.1 15.95 27.75 15.8 27.45 15.65 27.1 15.5 27.25 15.25
L 28.3 13.15 22.95 11.6
Q 22.45 11.45 22.3 11.25
M 30.85 10
L 32 9.95 32.4 9.75 35.6 8.05
Q 35.7 7.95 35.95 7.9 36.01328125 7.8578125 36.05 7.8 34.505078125 8.0943359375 33.1 8.75 32 9.2 30.85 10
M 50.9 4.8
Q 50.7953125 4.8107421875 50.7 4.8 45.8 4.25 40.05 4.15 38.95 4.1 37.8 4.1 25.55 4.1 16.9 6.15 13 7 10.85 8.1 8.25 9.45 8.2 11 8.2 11.75 8.75 12.4 9.25 11.8 10.1 11.3 10.45 11.05 10.9 10.85 13.05 9.75 16.9 8.9 24.15 7.2 33.9 6.95 35.8 6.85 37.8 6.85 41.844140625 6.85 45.5 7.15 46.2001953125 6.66328125 46.95 6.3 47.45 6.05 47.95 5.8
L 50.9 4.8
M 54 33.55
Q 53.9197265625 33.7306640625 53.85 33.95 53.8 34.3412109375 53.8 34.85 53.8 35.593359375 54.15 36.3 54.9150390625 37.8384765625 57.4 39.15 61.35 41.25 61.6 42.05 62 43.15 62.2 47.45 62.2841796875 47.8861328125 62.4 48.25 62.9771484375 50.012109375 64.35 50.35 64.6267578125 50.430859375 64.9 50.45 64.7826171875 50.375390625 64.65 50.3 64.2646484375 50.0146484375 63.95 49.7 63.45 49.1 63.4 48.3
L 62.45 40.5 55.7 36.5
Q 55.391015625 36.3455078125 55.15 36.1 54.9197265625 35.891015625 54.75 35.6 54.7 35.5 54.65 35.45 54.35 34.75 54.4 34 54.4046875 33.930078125 54.4 33.85 54.4578125 33.3912109375 54.6 32.95 54.7046875 32.8134765625 54.8 32.65 54.559765625 32.830078125 54.35 33 54.119921875 33.280078125 54 33.55
M 65 20.3
Q 65.1 19.95 65.25 19.75 63.8 21.1 62.95 23.9 62.4 25.8 61.95 28.95
L 63 28.4 63.2 27.55 64.8 20.8
Q 64.85 20.55 65 20.3
M 82.95 46.25
Q 82.9 46.3 82.8 46.3 82.1 46.5 81.4 46.4
L 78.6 45.85 78.55 45.85 73.75 44.9 72.55 45.95
Q 72.765234375 46.040234375 73 46.1 73.3208984375 46.2541015625 73.65 46.35 74.84453125 46.75234375 76.3 47.05 77.1548828125 47.2416015625 77.9 47.35 78.259765625 47.445703125 78.6 47.5 79.8662109375 47.7 80.7 47.7 83.05 47.7 83.6 47.15 84.1 46.7 84.2 45.3 84.15 45.4 84.1 45.45 83.6 46 82.95 46.25
M 93.15 34.35
Q 93.1 33.75 93 33.15 91.7 21.7 84.6 13.65 77.7 5.55 69 5.6 67.747265625 5.5791015625 66.55 5.75 65.251171875 5.9234375 64 6.3 63.7072265625 6.4318359375 63.4 6.55 63.2 6.55 63.1 6.65 62.6470703125 6.855859375 62.2 7.1 62.0970703125 7.1470703125 62 7.2 61.85 7.25 61.75 7.35 62.1103515625 7.2623046875 62.45 7.2 63.989453125 6.909765625 65.6 6.95 68.0384765625 6.95 70.35 7.55 70.8759765625 7.681640625 71.4 7.85 76.7 9.65 81.2 14.95 87.55 22.1 89.25 32 89.45 33.2 89.6 34.45 89.7 35.05 89.8 35.65 90.15 40.1 89.45 44.1 89.2 45.6 88.8 47.05 88.75 47.5 88.45 48.15 88.3 48.6 88.15 49.1 87.6 50.4 86.9 51.7 86.55 52.5 86.05 53.25 85.85 53.55 85.65 53.9 85.1 54.8 84.4 55.6 82.05 58.7 79.1 60.3 84.15 59 87.8 54.3 88.45 53.5 89.05 52.6 89.8 51.55 90.3 50.4 91.25 48.6 91.85 46.85 92.1 46.2 92.2 45.75 93.15 42.3 93.3 38.5 93.3 36.5 93.15 34.35 Z"/>

<path fill="#F3BE17" stroke="none" d="
M 88.9 55
Q 88.35 55.7 87.8 56.4 84.15 61.1 79.1 62.4 77.9 62.65 76.65 62.75 76.45078125 62.76328125 76.25 62.75 75.6875 62.8 75.1 62.8 74.4 62.8 73.65 62.75 65.9 62.05 59.4 54.65 59.003515625 54.202734375 58.6 53.75 57.7830078125 52.7265625 57 51.65 56.4259765625 50.7982421875 55.85 49.9 52.330078125 44.070703125 51.2 36.75 51.089453125 36.0091796875 51 35.25 50.96640625 34.880078125 50.9 34.5 50.91640625 34.296484375 50.9 34.1 50.8703125 33.7736328125 50.85 33.45 50.8 32.6884765625 50.8 31.95
L 46.55 29.25
Q 46.55 31.2 46.8 33.15 46.839453125 33.476171875 46.85 33.8 46.9552734375 34.39765625 47.05 35 47.223046875 36.111328125 47.45 37.2 47.9837890625 39.9556640625 48.8 42.55 50.199609375 46.7755859375 52.4 50.5 52.4388671875 50.5234375 52.45 50.55 52.5384765625 50.698046875 52.6 50.85 52.9880859375 51.443359375 53.35 52 54.087109375 53.1078125 54.85 54.15 55.8109375 55.3775390625 56.85 56.55 62.8611328125 63.453125 69.8 65.45 71.8134765625 66.031640625 73.9 66.2 74.85 66.25 75.75 66.3 76.7 66.3 77.65 67.1 86.5 65.4 92.2 57
L 88.9 55 Z"/>
</g>

<g id="____________________________________________0_Layer1_0_FILL">
<path fill="#D8770E" stroke="none" d="
M 12.9 21.05
Q 12.4 20.9 11.9 20.8 0.1 17.3 0 12.6
L 0 31.5
Q 0 36.7 14 40.35 16.25 40.95 18.7 41.45
L 18.7 22.45
Q 17.7 22.25 16.7 22 15.3 21.7 14 21.35 13.45 21.2 12.9 21.05
M 82.7 21.05
Q 82.15 21.2 81.6 21.35 80.3 21.7 78.95 22 65.75 25 47.8 25 45.35 25 43 24.95
L 43 43.95
Q 45.35 44 47.8 44 67.6 44 81.6 40.35 95.6 36.7 95.6 31.5
L 95.6 12.7
Q 95.35 17.55 82.7 21.05 Z"/>

<path fill="#F1F590" stroke="none" d="
M 29.2 24.1
Q 32.5 24.45 36 24.65
L 42.05 21.85
Q 38.3 21.75 34.85 21.5
L 29.2 24.1
M 23.1 23.25
L 28.35 20.85
Q 25.7 20.5 23.25 20.05 22.4 19.9 21.55 19.7 20.4 19.45 19.3 19.2 17.95 18.9 16.75 18.55
L 11.9 20.8
Q 12.4 20.9 12.9 21.05 13.45 21.2 14 21.35 15.3 21.7 16.7 22 17.7 22.25 18.7 22.45 20.85 22.9 23.1 23.25
M 90.1 11.45
Q 90.1 11.35 90.1 11.3 90.1 7.45 78.95 4.75
L 81.4 3.6
Q 79 2.95 76.4 2.45
L 73.75 3.7
Q 71 3.2 68.05 2.85
L 70.9 1.55
Q 64.55 0.6 57.35 0.25
L 53.65 1.9
Q 51.75 1.85 49.8 1.85 33.1 1.85 21.3 4.6 13.8 6.3 11.05 8.55 14 7.05 19.3 5.85 31.1 3.1 47.8 3.1 49.4 3.1 50.9 3.15 58.75 3.25 65.45 4.05 68.45 4.35 71.2 4.85 73.85 5.3 76.3 5.85 76.4 5.85 76.5 5.9 87.2 8.4 88.05 11.95 88.1 12.25 88.1 12.55 88.1 12.6 88.1 12.7 88.05 13.6 87.4 14.45 87 14.9 86.45 15.35 88.5 14.3 89.4 13.2 90.05 12.35 90.1 11.45 Z"/>

<path fill="#FDE159" stroke="none" d="
M 28.35 20.85
L 23.1 23.25
Q 26.05 23.7 29.2 24.1
L 34.85 21.5
Q 31.45 21.2 28.35 20.85
M 53.65 1.9
L 57.35 0.25
Q 52.75 0 47.8 0 28 0 14 3.65 0.1 7.25 0 12.45
L 0 12.6
Q 0.1 17.3 11.9 20.8
L 16.75 18.55
Q 10.1 16.75 8.2 14.4 7.45 13.5 7.45 12.5 7.5 10.35 11.05 8.55 13.8 6.3 21.3 4.6 33.1 1.85 49.8 1.85 51.75 1.85 53.65 1.9
M 76.4 2.45
Q 73.75 1.95 70.9 1.55
L 68.05 2.85
Q 71 3.2 73.75 3.7
L 76.4 2.45
M 81.6 3.65
Q 81.5 3.6 81.4 3.6
L 78.95 4.75
Q 90.1 7.45 90.1 11.3 90.1 11.35 90.1 11.45 90.05 12.35 89.4 13.2 88.5 14.3 86.45 15.35 83.7 17.5 76.3 19.2 75.2 19.45 74.05 19.7 62.95 21.95 47.8 21.95 45.75 21.95 43.75 21.9 42.9 21.9 42.05 21.85
L 36 24.65
Q 39.4 24.85 43 24.95 45.35 25 47.8 25 65.75 25 78.95 22 80.3 21.7 81.6 21.35 82.15 21.2 82.7 21.05 95.35 17.55 95.6 12.7 95.6 12.6 95.6 12.5 95.6 7.3 81.6 3.65 Z"/>

<path fill="#E09914" stroke="none" d="
M 43 43.95
L 43 24.95
Q 39.4 24.85 36 24.65 32.5 24.45 29.2 24.1 26.05 23.7 23.1 23.25 20.85 22.9 18.7 22.45
L 18.7 41.45
Q 29.35 43.6 43 43.95 Z"/>

<path fill="#AC5800" stroke="none" d="
M 87.4 14.45
Q 88.05 13.6 88.1 12.7 88.1 12.6 88.1 12.55 88.1 12.25 88.05 11.95 87.2 8.4 76.5 5.9 76.4 5.85 76.3 5.85 73.85 5.3 71.2 4.85 68.45 4.35 65.45 4.05 58.75 3.25 50.9 3.15 49.4 3.1 47.8 3.1 31.1 3.1 19.3 5.85 14 7.05 11.05 8.55 7.5 10.35 7.45 12.5 7.45 13.5 8.2 14.4 8.85 13.6 10 12.9 10.5 12.55 11.15 12.25 14.05 10.8 19.3 9.6 29.2 7.3 42.5 6.95 45.1 6.85 47.8 6.85 53.45 6.85 58.5 7.2 61.8 7.4 64.9 7.7 68 8.05 70.85 8.55 73.7 9 76.3 9.6 85.2 11.65 87.4 14.45 Z"/>

<path fill="#FD9706" stroke="none" d="
M 86.45 15.35
Q 87 14.9 87.4 14.45 85.2 11.65 76.3 9.6 73.7 9 70.85 8.55 68 8.05 64.9 7.7 61.8 7.4 58.5 7.2 53.45 6.85 47.8 6.85 45.1 6.85 42.5 6.95 29.2 7.3 19.3 9.6 14.05 10.8 11.15 12.25 10.5 12.55 10 12.9 8.85 13.6 8.2 14.4 10.1 16.75 16.75 18.55 17.95 18.9 19.3 19.2 20.4 19.45 21.55 19.7 22.4 19.9 23.25 20.05 25.7 20.5 28.35 20.85 31.45 21.2 34.85 21.5 38.3 21.75 42.05 21.85 42.9 21.9 43.75 21.9 45.75 21.95 47.8 21.95 62.95 21.95 74.05 19.7 75.2 19.45 76.3 19.2 83.7 17.5 86.45 15.35 Z"/>
</g>

<g id="____________________________________________0_Layer0_0_FILL">
<path fill="#AC5800" stroke="none" d="
M 26.75 12.2
Q 27.05 11.95 27.75 11.75 26.75 11.9 26.35 12 26 12.15 25.7 12.45 24.85 13.35 28.8 14.4 33.3 15.55 33.3 15.85 33.45 16.3 32.15 17.9 31.95 18.95 34.6 19.25 34.15 19.05 33.7 18.85 33.2 18.6 33.45 18.3
L 34.9 15.4 27.55 13.3
Q 26.9 13.1 26.7 12.85 26.6 12.8 26.55 12.75 26.4 12.5 26.75 12.2
M 45.3 8.25
Q 45.5 8.15 45.75 8.1 43.45 8.45 41.4 9.4 39.95 10.05 38.35 11.15
L 39.9 11.05 40.45 10.75 44.8 8.45
Q 44.95 8.35 45.3 8.25
M 61.5 19.25
Q 61.4 19.3 61.35 19.3 60.5 19.45 59.6 19.45 59.5 19.45 59.4 19.45 58.4 19.45 57.5 19.4
L 48.15 18.1 46.1 18.35
Q 47.95 18.75 50.7 19.1 54.2 19.65 56.15 19.8 59.15 20 60.1 19.85 60.95 19.75 61.5 19.25 Z"/>

<path fill="#F1F590" stroke="none" d="
M 32.7 12
Q 35.55 11.9 37.4 11.8 40.35 11.55 40.6 11.35 40.85 11.1 40.45 10.75
L 39.9 11.05 38.35 11.15 29.55 11.55
Q 28.6 11.6 27.8 11.75
L 27.75 11.75
Q 27.05 11.95 26.75 12.2 26.4 12.5 26.55 12.75 26.6 12.8 26.7 12.85 27.95 12.25 32.7 12
M 62.8 18.3
L 61.35 15.4
Q 60.95 15.5 60.7 15.55 60.6 15.6 60.35 15.85 60.1 16.1 60.45 17.3 60.7 18.55 60.35 18.9 60.1 19.2 59.8 19.3 59.65 19.4 59.4 19.45 59.5 19.45 59.6 19.45 60.5 19.45 61.35 19.3 61.4 19.3 61.5 19.25 62.1 19.1 62.55 18.85 62.95 18.6 62.8 18.3
M 69.5 12.25
Q 69.15 11.95 68.45 11.75 67.65 11.6 66.6 11.55
L 56.3 11 51.4 8.4
Q 50.9 8.15 50 8.05 49.15 7.85 48.1 7.85 47.1 7.85 46.25 8 46 8.05 45.75 8.1 45.5 8.15 45.3 8.25 45.75 8.25 46.9 8.35 51.1 8.7 52.35 10.2 53.65 11.75 55.1 11.9 55.65 11.9 58.6 11.9 61.75 11.85 63.45 12 66.25 12.2 67.1 12.4 67.65 12.5 69.3 13.05 69.5 12.95 69.65 12.8 69.85 12.5 69.5 12.25 Z"/>

<path fill="#FDE159" stroke="none" d="
M 68.65 13.3
Q 69.05 13.15 69.3 13.05 67.65 12.5 67.1 12.4 66.25 12.2 63.45 12 61.75 11.85 58.6 11.9 55.65 11.9 55.1 11.9 53.65 11.75 52.35 10.2 51.1 8.7 46.9 8.35 45.75 8.25 45.3 8.25 44.95 8.35 44.8 8.45
L 40.45 10.75
Q 40.85 11.1 40.6 11.35 40.35 11.55 37.4 11.8 35.55 11.9 32.7 12 27.95 12.25 26.7 12.85 26.9 13.1 27.55 13.3
L 34.9 15.4 33.45 18.3
Q 33.2 18.6 33.7 18.85 34.15 19.05 34.6 19.25 34.75 19.25 34.9 19.3 35.75 19.4 36.7 19.45 37.8 19.5 38.6 19.4
L 46.1 18.35 48.15 18.1 57.5 19.4
Q 58.4 19.45 59.4 19.45 59.65 19.4 59.8 19.3 60.1 19.2 60.35 18.9 60.7 18.55 60.45 17.3 60.1 16.1 60.35 15.85 60.6 15.6 60.7 15.55 60.95 15.5 61.35 15.4
L 61.3 15.4 68.65 13.3 Z"/>
</g>

<g id="_____________________________________1_________0_Layer1_0_FILL">
<path fill="#D8770E" stroke="none" d="
M 12.05 42.85
L 2.55 45.3
Q 5.05 52.3 9.95 58.05 17.9 67.1 27.5 67.35 34.15 67.5 39.7 66.35 38.75 65.6 37.85 65.6 37 65.55 36.1 65.5 27.15 64.8 19.75 56.25 14.5 50.35 12.05 42.85
M 22.8 3.9
Q 23.1677734375 3.6548828125 23.55 3.5
L 11.2 7.6
Q 10.75 7.85 10.25 8.1 7.2 9.6 5 13.1 4.2 14.25 3.6 15.45 3.3 16.1 3 16.75 2.9 16.8 2.85 16.9
L 13.3 13.6
Q 13.95 12.45 14.7 11.3 14.85 11.05 15 10.9 18.3 6.05 22.8 3.9 Z"/>

<path fill="#F3BE17" stroke="none" d="
M 14.15 35.85
Q 14.1 35.3 14.05 34.75 13.97421875 33.7087890625 13.95 32.65
L 9.85 30.1
Q 9.85 31.95 10.1 33.85 10.7 38.6 12.05 42.85 14.5 50.35 19.75 56.25 27.15 64.8 36.1 65.5 37 65.55 37.85 65.6 38.75 65.6 39.7 66.35 48.15 64.75 53.6 56.7
L 50.4 54.7
Q 49.946484375 55.46953125 49.4 56.1 45.9 60.6 41.05 61.85 39.9 62.1 38.7 62.2 38 62.25 37.25 62.25 36.55 62.25 35.85 62.2 28.4 61.55 22.2 54.45 15.45 46.8 14.15 35.85 Z"/>

<path fill="#E09914" stroke="none" d="
M 11 19.95
Q 11.8 16.6 13.3 13.6
L 2.85 16.9
Q -0.8 25 0.35 35.55 0.85 40.65 2.55 45.3
L 12.05 42.85
Q 10.7 38.6 10.1 33.85 9.85 31.95 9.85 30.1 9.7 27.5 10 24.95 10.2 23.05 10.6 21.3 10.75 20.6 11 19.95 Z"/>

<path fill="#FDE159" stroke="none" d="
M 14.6 23.65
Q 14.75 22.95 14.9 22.35
L 11 19.95
Q 10.75 20.6 10.6 21.3 10.2 23.05 10 24.95
L 14 27.4
Q 14.15 25.45 14.6 23.65
M 53.6 47.9
Q 53.55 48.35 53.3 48.95 52.975 49.8708984375 52.55 50.8
L 55.85 52.7
Q 56.55 51.05 57.2 49.3 57.35 48.75 57.55 48.2
L 54.05 46.15
Q 53.8490234375 47.0416015625 53.6 47.9
M 54.4 33.85
Q 54.5 34.4 54.55 35
L 58.75 37.55
Q 58.65 35.8 58.45 33.85 57 20.65 48.85 11.3 40.75 2.05 30.8 2.05 27.25 2.05 24.25 3.15 24.2 3.25 24.05 3.3
L 23.75 3.45 23.55 3.5
Q 23.1677734375 3.6548828125 22.8 3.9 18.3 6.05 15 10.9
L 19.25 13.55
Q 21.5388671875 10.5458984375 24.4 9.1 24.5587890625 9.0171875 24.7 8.95 25.2 8.65 25.75 8.45 25.85 8.35 26 8.35 28.5 7.4 31.4 7.45 39.75 7.4 46.35 15.15 53.15 22.85 54.4 33.85 Z"/>

<path fill="#F1F590" stroke="none" d="
M 15 10.9
Q 14.85 11.05 14.7 11.3 13.95 12.45 13.3 13.6 11.8 16.6 11 19.95
L 14.9 22.35
Q 15.85 18.4 18 15.15 18.6 14.25 19.25 13.55
L 15 10.9
M 53.6 45.9
Q 53.55 46.35 53.3 46.95 52.7 48.65 51.8 50.35 51.3 51.45 50.6 52.45 50.05 53.35 49.4 54.1 45.903125 58.6134765625 41 59.8 39.8953125 60.097265625 38.7 60.2 38 60.25 37.25 60.25 36.55 60.25 35.85 60.2 28.4 59.55 22.2 52.45 15.45 44.8 14.15 33.85 14.1 33.3 14.05 32.75 13.9732421875 31.6947265625 13.95 30.65 13.9076171875 29.00234375 14 27.4
L 10 24.95
Q 9.7 27.5 9.85 30.1
L 13.95 32.65
Q 13.97421875 33.7087890625 14.05 34.75 14.1 35.3 14.15 35.85 15.45 46.8 22.2 54.45 28.4 61.55 35.85 62.2 36.55 62.25 37.25 62.25 38 62.25 38.7 62.2 39.9 62.1 41.05 61.85 45.9 60.6 49.4 56.1 49.946484375 55.46953125 50.4 54.7
L 53.6 56.7
Q 53.65 56.45 53.8 56.25 54.95 54.55 55.85 52.7
L 52.55 50.8
Q 52.975 49.8708984375 53.3 48.95 53.55 48.35 53.6 47.9 53.8490234375 47.0416015625 54.05 46.15
L 57.55 48.2
Q 58.95 43.3 58.75 37.55
L 54.55 35
Q 54.722265625 37.0322265625 54.65 38.95 54.5505859375 42.622265625 53.6 45.9 Z"/>

<path fill="#FD9706" stroke="none" d="
M 51.3 36.25
Q 51.25 35.65 51.15 35.1 51.012890625 33.8935546875 50.8 32.7 49.1541015625 23.25546875 43.1 16.4 38.766796875 11.31171875 33.65 9.55 31.0177734375 8.6828125 28.15 8.7 26.1931640625 8.6662109375 24.4 9.1 21.5388671875 10.5458984375 19.25 13.55 18.6 14.25 18 15.15 15.85 18.4 14.9 22.35 14.75 22.95 14.6 23.65 14.15 25.45 14 27.4 13.9076171875 29.00234375 13.95 30.65 13.9732421875 31.6947265625 14.05 32.75 14.1 33.3 14.15 33.85 15.45 44.8 22.2 52.45 28.4 59.55 35.85 60.2 36.55 60.25 37.25 60.25 38 60.25 38.7 60.2 39.8953125 60.097265625 41 59.8 43.8771484375 58.28359375 46.15 55.35 46.8 54.6 47.35 53.7 47.556640625 53.4048828125 47.75 53.1 48.19765625 52.375390625 48.55 51.6 49.2158203125 50.3421875 49.7 49.05 49.8939453125 48.6421875 50.05 48.2 50.3 47.6 50.35 47.15 50.7505859375 45.7689453125 51 44.3 51.6619140625 40.5203125 51.3 36.25 Z"/>

<path fill="#AC5800" stroke="none" d="
M 54.55 35
Q 54.5 34.4 54.4 33.85 53.15 22.85 46.35 15.15 39.75 7.4 31.4 7.45 28.5 7.4 26 8.35 25.85 8.35 25.75 8.45 25.2 8.65 24.7 8.95 24.5587890625 9.0171875 24.4 9.1 26.1931640625 8.6662109375 28.15 8.7 31.0177734375 8.6828125 33.65 9.55 38.766796875 11.31171875 43.1 16.4 49.1541015625 23.25546875 50.8 32.7 51.012890625 33.8935546875 51.15 35.1 51.25 35.65 51.3 36.25 51.6619140625 40.5203125 51 44.3 50.7505859375 45.7689453125 50.35 47.15 50.3 47.6 50.05 48.2 49.8939453125 48.6421875 49.7 49.05 49.2158203125 50.3421875 48.55 51.6 48.19765625 52.375390625 47.75 53.1 47.556640625 53.4048828125 47.35 53.7 46.8 54.6 46.15 55.35 43.8771484375 58.28359375 41 59.8 45.903125 58.6134765625 49.4 54.1 50.05 53.35 50.6 52.45 51.3 51.45 51.8 50.35 52.7 48.65 53.3 46.95 53.55 46.35 53.6 45.9 54.5505859375 42.622265625 54.65 38.95 54.722265625 37.0322265625 54.55 35 Z"/>
</g>

<g id="_____________________________________1_________0_Layer0_0_FILL">
<path fill="#AC5800" stroke="none" d="
M 18.65 37.05
Q 18.06484375 36.7349609375 17.7 36.15 17.6849609375 36.11484375 17.65 36.05 17.35 35.35 17.4 34.65 17.45 33.95 17.8 33.35 17.1955078125 33.808984375 17 34.2 16.8 34.65 16.8 35.45 16.8 37.75 20.25 39.6 24.05 41.6 24.3 42.35 24.7 43.4 24.85 47.55 25.3935546875 50.2681640625 27.45 50.35 26.92734375 50.119140625 26.55 49.7 26.05 49.1 26 48.35
L 25.1 40.9 18.65 37.05
M 27.35 22
Q 27.4232421875 21.725390625 27.5 21.45 27.647265625 21.22421875 27.8 21 26.4091796875 22.3205078125 25.6 24.95 25.0296875 26.812890625 24.6 29.75
L 25.65 29.3 25.85 28.45 27.35 22
M 44.75 46.4
Q 44.675 46.4267578125 44.6 46.45 43.9642578125 46.6392578125 43.25 46.55
L 35.95 45.1 34.8 46.1
Q 36.3216796875 46.6759765625 38.4 47.15 41.15 47.8 42.6 47.8 44.85 47.8 45.4 47.25 45.8462890625 46.8037109375 45.95 45.45 45.89609375 45.5435546875 45.85 45.6 45.4 46.15 44.75 46.4 Z"/>

<path fill="#F1F590" stroke="none" d="
M 18.9 32.45
Q 18.2671875 32.7419921875 17.8 33.3 17.8119140625 33.3341796875 17.8 33.35 17.45 33.95 17.4 34.65 17.35 35.35 17.65 36.05 17.6849609375 36.11484375 17.7 36.15 18.2572265625 34.5529296875 21.4 33.05 23.262109375 32.184765625 24.4 31.5 26.35 30.4302734375 26.35 29.9 26.35 29.2439453125 25.85 28.45
L 25.65 29.3 24.6 29.75 18.9 32.45
M 43.3 36.1
Q 43.0296875 36.3611328125 42.95 36.6 42.9 36.7 42.9 37.35 42.9 38 43.95 40.95 44.95 43.9 44.95 44.8 44.95 45.65 44.85 45.9 44.7787109375 46.1140625 44.6 46.45 44.675 46.4267578125 44.75 46.4 45.4 46.15 45.85 45.6 45.89609375 45.5435546875 45.95 45.45 46.3154296875 44.9783203125 46.45 44.35 46.55 43.65 46.25 42.9
L 43.3 36.1
M 46.85 26.8
Q 46.45 26.2 45.8 25.85 45.15 25.5 44.4 25.6
L 36.95 26.25 31.85 20.75
Q 31.35 20.2 30.65 20.05 29.95 19.85 29.25 20 28.55 20.2 28.05 20.7 27.91953125 20.8435546875 27.8 21 27.647265625 21.22421875 27.5 21.45 27.8939453125 21.45 28.75 21.45 31.85 21.45 33.7 25 35.6 28.55 36.7 28.55 37.1 28.55 39.15 27.95 41.25 27.3 42.5 27.3 44.55 27.3 45.3 27.6 45.7396484375 27.7599609375 47.2 28.8 47.274609375 28.4693359375 47.25 28.1 47.25 27.35 46.85 26.8 Z"/>

<path fill="#FDE159" stroke="none" d="
M 46.95 29.5
Q 47.1275390625 29.1701171875 47.2 28.8 45.7396484375 27.7599609375 45.3 27.6 44.55 27.3 42.5 27.3 41.25 27.3 39.15 27.95 37.1 28.55 36.7 28.55 35.6 28.55 33.7 25 31.85 21.45 28.75 21.45 27.8939453125 21.45 27.5 21.45 27.4232421875 21.725390625 27.35 22
L 25.85 28.45
Q 26.35 29.2439453125 26.35 29.9 26.35 30.4302734375 24.4 31.5 23.262109375 32.184765625 21.4 33.05 18.2572265625 34.5529296875 17.7 36.15 18.06484375 36.7349609375 18.65 37.05
L 25.1 40.9 26 48.35
Q 26.05 49.1 26.55 49.7 26.92734375 50.119140625 27.45 50.35 27.544921875 50.4095703125 27.65 50.45 28.3 50.7 29.05 50.65 29.75 50.5 30.3 50
L 34.8 46.1 35.95 45.1 43.25 46.55
Q 43.9642578125 46.6392578125 44.6 46.45 44.7787109375 46.1140625 44.85 45.9 44.95 45.65 44.95 44.8 44.95 43.9 43.95 40.95 42.9 38 42.9 37.35 42.9 36.7 42.95 36.6 43.0296875 36.3611328125 43.3 36.1
L 43.3 36.05 46.95 29.5 Z"/>
</g>

<path id="________0_Layer1_0_1_STROKES" stroke="#801700" stroke-width="5" stroke-linejoin="round" stroke-linecap="round" fill="none" d="
M 97.55 37.05
Q 97.45 35.2 97.25 33.15 95.7 19.4 87.2 9.65 78.75 0 68.4 0 64.7 0 61.55 1.15 61.5 1.25 61.35 1.3
L 61.05 1.45 60.85 1.5 60.725 1.55
M 92.2 57
Q 92.25 56.75 92.4 56.55 93.6 54.75 94.5 52.85
M 97.55 37.05
Q 97.75 43.05 96.3 48.15 96.1 48.7 95.95 49.3 95.25 51.1 94.5 52.85
M 55.85 3.175
L 60.725 1.55
M 50.9 4.825
L 53.275 4.025
M 44.8 2.05
Q 50.05 2.3 54.7 3
M 50.9 4.825
L 47.95 5.8
Q 47.45 6.05 46.95 6.3 46.2001953125 6.66328125 45.5 7.15 44.1689453125 8.05390625 43.025 9.375 42.635546875 9.8171875 42.275 10.3 41.8501953125 10.8650390625 41.45 11.5 40.65 12.7 40 13.95 39.7126953125 14.6203125 39.425 15.3
L 39.4 15.35
Q 39.3 15.4 39.2 15.5
M 54.7 3
Q 55.2875 3.083984375 55.85 3.175
L 53.275 4.025
M 16.45 32.2
Q 20.3576171875 33.0015625 24.8 33.475 25.0427734375 33.501171875 25.275 33.525 26.4078125 33.6322265625 27.575 33.725 30.7841796875 33.96328125 34.25 34.05
M 39.2 15.5
Q 39.1455078125 15.6212890625 39.1 15.75 38.624609375 16.82890625 38.225 17.95 37.85234375 19.03046875 37.55 20.15
M 2.75 11.15
L 2.75 10.95
Q 2.8 7.15 13 4.5 23.25 1.85 37.8 1.85 41.4 1.85 44.8 2.05
M 2.75 11.15
L 2.75 24.925 2.75 24.95
Q 2.75 26.901171875 5.45 28.55 6.052734375 28.9169921875 6.8 29.275 9.1859375 30.4138671875 13 31.4 14.65 31.85 16.45 32.2
M 13.7 49.8
Q 16.2638671875 50.3259765625 19.075 50.7 23.75078125 51.3439453125 29.1 51.575 30.287109375 51.6197265625 31.5 51.65
M 0 28.75
L 0 28.55
Q 0.02578125 26.590625 2.75 24.925
M 0 28.75
L 0 42.55
Q 0 46.0205078125 8.55 48.525 9.3615234375 48.7703125 10.25 49 10.9720703125 49.196875 11.725 49.375 12.6876953125 49.603125 13.7 49.8
M 36.525 34.1
Q 35.3716796875 34.08203125 34.25 34.05
M 36.675 35.55
Q 36.6306640625 35.2462890625 36.6 34.95 36.553125 34.519921875 36.525 34.1 35.8146484375 26.5015625 37.55 20.15
M 38.9 45.1
Q 37.615625 41.5404296875 36.975 37.75 36.7943359375 36.6521484375 36.675 35.55
M 42.325 52.4
Q 42.071484375 51.9728515625 41.825 51.55 38.5626953125 51.7 35.05 51.7 33.25 51.7 31.5 51.65
M 40.05 68.5
Q 30.05 68.25 22.25 66.65
M 43.725 54.6
Q 42.9912109375 53.5181640625 42.325 52.4
M 22.25 66.65
Q 20.45 66.3 18.8 65.85 8.55 63.2 8.55 59.4
L 8.55 48.525
M 41.825 51.55
Q 40.09453125 48.45390625 38.9 45.1
M 77.65 67.1
Q 71.9 68.3 64.95 68.1 62.574609375 68.040625 60.3 67.45 52.80390625 68.55 43.6 68.55 41.8 68.55 40.05 68.5
M 60.3 67.45
Q 52.978515625 65.6052734375 46.65 58.4 45.0701171875 56.559375 43.725 54.6
M 92.2 57
Q 86.5 65.4 77.65 67.1"/>

<path id="____________________________________________0_Layer1_0_1_STROKES" stroke="#801700" stroke-width="1.5" stroke-linejoin="round" stroke-linecap="round" fill="none" d="
M 81.4 3.6
Q 81.5 3.6 81.6 3.65 95.6 7.3 95.6 12.5 95.6 12.6 95.6 12.7
L 95.6 31.5
Q 95.6 36.7 81.6 40.35 67.6 44 47.8 44 45.35 44 43 43.95 29.35 43.6 18.7 41.45 16.25 40.95 14 40.35 0 36.7 0 31.5
L 0 12.6 0 12.45
Q 0.1 7.25 14 3.65 28 0 47.8 0 52.75 0 57.35 0.25 64.55 0.6 70.9 1.55 73.75 1.95 76.4 2.45 79 2.95 81.4 3.6 Z"/>

<path id="_____________________________________1_________0_Layer1_0_1_STROKES" stroke="#801700" stroke-width="1.5" stroke-linejoin="round" stroke-linecap="round" fill="none" d="
M 58.75 37.55
Q 58.65 35.8 58.45 33.85 57 20.65 48.85 11.3 40.75 2.05 30.8 2.05 27.25 2.05 24.25 3.15 24.2 3.25 24.05 3.3
L 23.75 3.45 23.575 3.5
M 55.85 52.7
Q 56.55 51.05 57.2 49.3 57.35 48.75 57.55 48.2 58.95 43.3 58.75 37.55
M 2.85 16.9
Q 2.9 16.8 3 16.75 3.3 16.1 3.6 15.45 4.2 14.25 5 13.1 7.2 9.6 10.25 8.1 10.75 7.85 11.2 7.6
L 23.575 3.5
M 2.85 16.9
Q -0.8 25 0.35 35.55 0.85 40.65 2.55 45.3
M 39.7 66.35
Q 34.15 67.5 27.5 67.35 17.9 67.1 9.95 58.05 5.05 52.3 2.55 45.3
M 55.85 52.7
Q 54.95 54.55 53.8 56.25 53.65 56.45 53.6 56.7 48.15 64.75 39.7 66.35"/>
</defs>

<g transform="matrix( 1.48968505859375, 0, 0, 1.48968505859375, 6.5,9.5) ">
<g transform="matrix( 1, 0, 0, 1, 0,0) ">
<use xlink:href="#________0_Layer1_0_FILL"/>

<use xlink:href="#________0_Layer1_0_1_STROKES"/>
</g>

<g transform="matrix( 0.7327880859375, 0, 0, 0.7327880859375, 8.55,36.3) ">
<g transform="matrix( 1, 0, 0, 1, 0,0) ">
<use xlink:href="#____________________________________________0_Layer1_0_FILL"/>

<use xlink:href="#____________________________________________0_Layer1_0_1_STROKES"/>
</g>

<g transform="matrix( 1, 0, 0, 1, 0,0) ">
<use xlink:href="#____________________________________________0_Layer0_0_FILL"/>
</g>
</g>

<g transform="matrix( 0.7327880859375, 0, 0, 0.7327880859375, 0,19.45) ">
<g transform="matrix( 1, 0, 0, 1, 0,0) ">
<use xlink:href="#____________________________________________0_Layer1_0_FILL"/>

<use xlink:href="#____________________________________________0_Layer1_0_1_STROKES"/>
</g>

<g transform="matrix( 1, 0, 0, 1, 0,0) ">
<use xlink:href="#____________________________________________0_Layer0_0_FILL"/>
</g>
</g>

<g transform="matrix( 0.7327880859375, 0, 0, 0.7327880859375, 2.75,1.85) ">
<g transform="matrix( 1, 0, 0, 1, 0,0) ">
<use xlink:href="#____________________________________________0_Layer1_0_FILL"/>

<use xlink:href="#____________________________________________0_Layer1_0_1_STROKES"/>
</g>

<g transform="matrix( 1, 0, 0, 1, 0,0) ">
<use xlink:href="#____________________________________________0_Layer0_0_FILL"/>
</g>
</g>

<g transform="matrix( 1.0433807373046875, 0, 0, 1.0433807373046875, 36.25,-2.15) ">
<g transform="matrix( 1, 0, 0, 1, 0,0) ">
<use xlink:href="#_____________________________________1_________0_Layer1_0_FILL"/>

<use xlink:href="#_____________________________________1_________0_Layer1_0_1_STROKES"/>
</g>

<g transform="matrix( 1, 0, 0, 1, 0,0) ">
<use xlink:href="#_____________________________________1_________0_Layer0_0_FILL"/>
</g>
</g>
</g>
</svg>
