
<svg xmlns="http://www.w3.org/2000/svg" version="1.1" xmlns:xlink="http://www.w3.org/1999/xlink" preserveAspectRatio="none" x="0px" y="0px" width="706px" height="138px" viewBox="0 0 706 138">
<defs>
<g id="Layer0_0_FILL">
<path fill="#E5AD50" stroke="none" d="
M 172.6 81.3
L 172.6 73.05
Q 153.3 73.2 144.85 73.75 140.05 73.95 127.85 75 117 75.8 110.8 76.1 104.25 76.4 95.3 76.4 93.6 76.4 79.8 76.4 42.5 76.25 5 78.35
L 5 86.55
Q 5 90.05 5.45 93.4
L 72.85 86.85
Q 109.85 83.2 129.9 82.15 145.95 81.35 172.6 81.3
M 175.35 97.25
Q 176.5 97.2 177.65 97.15 172.8 91.3 172.6 83.75 147.5 83.85 133.95 84.45 115.05 85.3 80.35 88.75
L 5.85 95.95
Q 7.05 102.35 9.95 108.05 25.6 107.8 44.25 106.65 55.05 106.05 89.5 103.25 133.35 99.8 175.35 97.25
M 172.6 70.55
L 172.6 64.3
Q 136.75 65.8 84.8 68.7 56.35 69.9 21.2 70.55 14 70.7 5 70.8
L 5 75.9
Q 44.65 73.7 84.15 73.8 103.7 73.95 111.95 73.6 117 73.3 125.2 72.65 135.4 71.75 138.4 71.5 150.7 70.7 172.6 70.55
M 179.3 30.65
Q 177.25 30.65 175.35 30.7 163.3 30.75 157.05 30.8 138.1 31 123.3 31.65 105.25 32.55 82.75 34.35 69.3 35.6 42.45 38.25
L 6 41.9
Q 5 46.75 5 52
L 5 68 82.05 66.2
Q 109.85 65.55 123.75 64.85 135 64.3 155.6 62.8 165.3 62.1 172.6 61.6
L 172.6 57.95
Q 163.1 58.1 148.5 58.15
L 16.7 58.6
Q 15.8 58.6 14.85 58.6
L 6 55.5
Q 17.05 55.55 29.3 55.65 75.45 56 98.5 56 139 56.2 172.6 55
L 172.6 53.15
Q 172.6 43.25 180.45 36.2 182.35 34.55 184.45 33.25 187.1 31.6 190.1 30.65 184.25 30.65 179.3 30.65
M 175.35 20.7
Q 177 20.65 178.65 20.6 188.15 20.15 197.65 19.7 211.85 18.8 220.5 18.05
L 57.75 18.05
Q 48 18.65 38.9 20.8 107.15 23.45 175.35 20.7
M 553.25 116.25
Q 550.8 116.1 548.1 116.05 532.35 115.6 512.3 115.3 476.5 114.8 426.9 114.8
L 340.15 114.7
Q 315.05 114.65 301.5 114.85 280.2 115.25 263 116.45 258.2 116.85 249.9 117.55
L 571.5 117.55
Q 567.6 117.15 564.7 116.95 559.95 116.5 553.25 116.25
M 692.35 106.5
L 681.2 105.7
Q 652.9 103.55 638.85 102.3 632.55 101.6 618.5 99.95 605.25 98.45 598.05 97.8 589.25 96.9 579.75 96.2 566.3 95.2 551.3 94.55 546.05 94.35 540.55 94.15 536.4 94 531.4 93.85 529.5 97.15 526.3 100 518.5 107.05 507.4 107.05
L 199.35 107.05
Q 188.7 107.05 181.05 100.55
L 49.6 108.2
Q 26 109.55 11.05 110.1 11.25 110.45 11.45 110.8 21.15 117.55 34.95 117.55
L 219.75 117.55
Q 225.15 117.2 231.65 116.6 236.35 116.15 240.3 115.8 248.25 115.15 253.05 114.7 275.95 112.95 304.5 112.4 322.4 112 356.2 112.05 422.55 112.05 450.95 112.2 483.8 112.45 512.3 112.85 529.9 113 545.8 113.35 550 113.45 553 113.5 555.25 113.55 556.85 113.6 563.1 113.9 567.95 114.45 572.25 114.95 579.75 115.95 580 116 580.25 116.05 586.4 117 590.1 117.55
L 635.65 117.55
Q 638.75 117.55 641.75 117.2 670.6 117.25 692.35 106.5
M 701.4 92.45
Q 679.6 90.9 657.55 90.45 645.75 90.25 625.1 90.25 602 90.25 592.65 90.15 586.8 90.1 579.75 89.95 567.15 89.6 550.85 88.85 542.7 88.45 533.65 88 533.3 89.65 532.7 91.15 543.1 91.4 551.1 91.75 555.35 91.95 558.95 92.15 566.35 92.6 579.75 93.8 592.75 94.9 611.45 96.75 650.7 100.65 678.1 102.95 687.45 103.7 696.4 104.35 697.7 103.65 699 102.85 700.75 97.9 701.4 92.45
M 701.7 78.4
L 701.7 72.85
Q 688 70.9 679.95 69.75 660.2 67.15 645.8 66.25 633.7 65.55 609.3 65.7 594.5 65.75 579.75 65.75 564.25 65.75 548.8 65.8 541.5 65.8 534.15 65.85
L 534.15 71.15
Q 541.3 70.4 549.2 70 553.75 69.75 558.65 69.6 567.7 69.35 579.75 69.5 584 69.55 588.6 69.6 613.45 70.15 630.25 71.45 635.95 71.9 657 73.9
L 701.7 78.4
M 701.7 81.4
L 701.55 81.35
Q 669.65 77.7 653.65 75.95 625.7 73.1 605.55 72.45 598.5 72.15 579.75 72.05 578.9 72.05 578 72.05 558.45 72.05 549.4 72.65 549.05 72.65 548.75 72.7 543.8 73 534.15 73.95
L 534.15 77.4 534.15 83.15
Q 534.15 84.3 534.05 85.4 542.75 85.85 550.6 86.2 567 86.9 579.75 87.35 588.1 87.6 594.9 87.7 604.3 87.8 627.2 87.7 647.9 87.7 659.55 87.95 680.7 88.4 701.6 89.9 701.7 88.25 701.7 86.55
L 701.7 81.4
M 701.7 56.3
L 701.7 52
Q 701.7 46.7 700.7 41.8 690.4 40.9 678.45 39.65 633.05 34.85 627.55 34.35 600.55 32.05 579.75 32.45 578.15 32.45 576.65 32.45 564.65 32.75 546.05 34.3 545.7 34.3 545.4 34.35 533.6 35.4 526.1 36.05 526.2 36.1 526.3 36.2 532.65 41.9 533.9 49.5 541.5 49.45 547.4 49.45 551.8 49.45 555.25 49.45 567.25 49.45 579.75 49.75 622.25 50.55 670.35 53.85 686 54.95 701.7 56.3
M 648.45 63.7
Q 662.55 64.5 683.2 67.6 690.3 68.65 701.7 70.35
L 701.7 58.8
Q 640.95 53.5 579.75 52.35 563.7 52.05 547.6 52.05 544.7 52.05 541.85 52.05 538.6 52.05 534.15 52.1 534.15 52.6 534.15 53.15
L 534.15 63.25 619.95 63.15
Q 639 63.15 648.45 63.7
M 682.55 23.2
Q 674.05 19.3 663.5 18.25 662.35 18.15 661.15 18.05
L 636.85 18.15
Q 634.25 18.15 631.65 18.15 616.8 18.1 603.1 18.05 598.4 18.05 593.85 18
L 408.55 18.05
Q 409.4 18.15 410.3 18.3 421.75 19.9 428.4 20.65 438.3 21.55 450.8 21.9 458.35 21.95 473.35 21.95
L 569.6 21.55
Q 574.85 21.5 579.75 21.5 609 21.45 625.9 21.65 657.05 21.95 682.1 23.15 682.3 23.15 682.55 23.2
M 700.1 39.2
Q 699.55 37.2 698.85 35.3 694 29.75 687.85 26 633.8 24.3 579.75 24 562.45 23.9 545.1 23.95 528.7 23.95 512.3 24.1 500.6 24.2 488.85 24.35 466.8 24.75 457.15 24.65 439.4 24.35 425.65 22.95 417.3 21.95 400.45 19.6 393.6 18.75 386.2 18.05
L 243.7 18.05
Q 242.05 18.25 240.3 18.45 239.25 18.55 238.2 18.7 228.05 19.9 223.65 20.35 212.95 21.55 194.15 22.45 186.5 22.8 178.8 23.1 177.1 23.2 175.35 23.25 103.35 26.05 31.05 22.95 19.2 26.7 8.65 33.3 7.4 36.15 6.6 39.2
L 46.75 35.15
Q 70.6 32.75 81.05 31.9 100.15 30.15 115.4 29.5 134.4 28.55 172.5 28.35
L 270.8 27.9
Q 288.95 27.85 298.95 28 314.5 28.2 327.1 29.1 328.05 29.15 329.1 29.25
L 507.4 29.25
Q 516.1 29.25 522.8 33.55 531.75 32.85 545.8 31.75 546.4 31.7 547 31.65 565.95 30.15 579.75 29.8 583.35 29.75 586.55 29.75 605.65 29.75 632.4 32.35 647.6 33.95 678 37.3 689.05 38.4 700.1 39.2 Z"/>

<path fill="#D59B41" stroke="none" d="
M 172.6 83.75
Q 172.6 83.45 172.6 83.15
L 172.6 81.3
Q 145.95 81.35 129.9 82.15 109.85 83.2 72.85 86.85
L 5.45 93.4
Q 5.6 94.65 5.85 95.95
L 80.35 88.75
Q 115.05 85.3 133.95 84.45 147.5 83.85 172.6 83.75
M 177.65 97.15
Q 176.5 97.2 175.35 97.25 133.35 99.8 89.5 103.25 55.05 106.05 44.25 106.65 25.6 107.8 9.95 108.05 10.45 109.1 11.05 110.1 26 109.55 49.6 108.2
L 181.05 100.55
Q 180.75 100.25 180.45 100 178.9 98.6 177.65 97.15
M 172.6 73.05
L 172.6 70.55
Q 150.7 70.7 138.4 71.5 135.4 71.75 125.2 72.65 117 73.3 111.95 73.6 103.7 73.95 84.15 73.8 44.65 73.7 5 75.9
L 5 78.35
Q 42.5 76.25 79.8 76.4 93.6 76.4 95.3 76.4 104.25 76.4 110.8 76.1 117 75.8 127.85 75 140.05 73.95 144.85 73.75 153.3 73.2 172.6 73.05
M 172.6 64.3
L 172.6 61.6
Q 165.3 62.1 155.6 62.8 135 64.3 123.75 64.85 109.85 65.55 82.05 66.2
L 5 68 5 70.8
Q 14 70.7 21.2 70.55 56.35 69.9 84.8 68.7 136.75 65.8 172.6 64.3
M 172.6 57.95
L 172.6 55
Q 139 56.2 98.5 56 75.45 56 29.3 55.65 17.05 55.55 6 55.5
L 14.85 58.6
Q 15.8 58.6 16.7 58.6
L 148.5 58.15
Q 163.1 58.1 172.6 57.95
M 223.65 20.35
Q 228.05 19.9 238.2 18.7 239.25 18.55 240.3 18.45 242.05 18.25 243.7 18.05
L 220.5 18.05
Q 211.85 18.8 197.65 19.7 188.15 20.15 178.65 20.6 177 20.65 175.35 20.7 107.15 23.45 38.9 20.8 34.9 21.7 31.05 22.95 103.35 26.05 175.35 23.25 177.1 23.2 178.8 23.1 186.5 22.8 194.15 22.45 212.95 21.55 223.65 20.35
M 329.1 29.25
Q 328.05 29.15 327.1 29.1 314.5 28.2 298.95 28 288.95 27.85 270.8 27.9
L 172.5 28.35
Q 134.4 28.55 115.4 29.5 100.15 30.15 81.05 31.9 70.6 32.75 46.75 35.15
L 6.6 39.2
Q 6.25 40.5 6 41.9
L 42.45 38.25
Q 69.3 35.6 82.75 34.35 105.25 32.55 123.3 31.65 138.1 31 157.05 30.8 163.3 30.75 175.35 30.7 177.25 30.65 179.3 30.65 184.25 30.65 190.1 30.65 194.4 29.25 199.35 29.25
L 329.1 29.25
M 548.1 116.05
Q 550.8 116.1 553.25 116.25 559.95 116.5 564.7 116.95 567.6 117.15 571.5 117.55
L 590.1 117.55
Q 586.4 117 580.25 116.05 580 116 579.75 115.95 572.25 114.95 567.95 114.45 563.1 113.9 556.85 113.6 555.25 113.55 553 113.5 550 113.45 545.8 113.35 529.9 113 512.3 112.85 483.8 112.45 450.95 112.2 422.55 112.05 356.2 112.05 322.4 112 304.5 112.4 275.95 112.95 253.05 114.7 248.25 115.15 240.3 115.8 236.35 116.15 231.65 116.6 225.15 117.2 219.75 117.55
L 249.9 117.55
Q 258.2 116.85 263 116.45 280.2 115.25 301.5 114.85 315.05 114.65 340.15 114.7
L 426.9 114.8
Q 476.5 114.8 512.3 115.3 532.35 115.6 548.1 116.05
M 692.35 106.5
Q 694.4 105.45 696.4 104.35 687.45 103.7 678.1 102.95 650.7 100.65 611.45 96.75 592.75 94.9 579.75 93.8 566.35 92.6 558.95 92.15 555.35 91.95 551.1 91.75 543.1 91.4 532.7 91.15 532.15 92.55 531.4 93.85 536.4 94 540.55 94.15 546.05 94.35 551.3 94.55 566.3 95.2 579.75 96.2 589.25 96.9 598.05 97.8 605.25 98.45 618.5 99.95 632.55 101.6 638.85 102.3 652.9 103.55 681.2 105.7
L 692.35 106.5
M 701.55 81.35
L 701.7 81.4 701.7 78.4 657 73.9
Q 635.95 71.9 630.25 71.45 613.45 70.15 588.6 69.6 584 69.55 579.75 69.5 567.7 69.35 558.65 69.6 553.75 69.75 549.2 70 541.3 70.4 534.15 71.15
L 534.15 73.95
Q 543.8 73 548.75 72.7 549.05 72.65 549.4 72.65 558.45 72.05 578 72.05 578.9 72.05 579.75 72.05 598.5 72.15 605.55 72.45 625.7 73.1 653.65 75.95 669.65 77.7 701.55 81.35
M 701.4 92.45
Q 701.5 91.2 701.6 89.9 680.7 88.4 659.55 87.95 647.9 87.7 627.2 87.7 604.3 87.8 594.9 87.7 588.1 87.6 579.75 87.35 567 86.9 550.6 86.2 542.75 85.85 534.05 85.4 533.9 86.7 533.65 88 542.7 88.45 550.85 88.85 567.15 89.6 579.75 89.95 586.8 90.1 592.65 90.15 602 90.25 625.1 90.25 645.75 90.25 657.55 90.45 679.6 90.9 701.4 92.45
M 701.7 58.8
L 701.7 56.3
Q 686 54.95 670.35 53.85 622.25 50.55 579.75 49.75 567.25 49.45 555.25 49.45 551.8 49.45 547.4 49.45 541.5 49.45 533.9 49.5 534.05 50.75 534.15 52.1 538.6 52.05 541.85 52.05 544.7 52.05 547.6 52.05 563.7 52.05 579.75 52.35 640.95 53.5 701.7 58.8
M 683.2 67.6
Q 662.55 64.5 648.45 63.7 639 63.15 619.95 63.15
L 534.15 63.25 534.15 65.85
Q 541.5 65.8 548.8 65.8 564.25 65.75 579.75 65.75 594.5 65.75 609.3 65.7 633.7 65.55 645.8 66.25 660.2 67.15 679.95 69.75 688 70.9 701.7 72.85
L 701.7 70.35
Q 690.3 68.65 683.2 67.6
M 687.85 26
Q 685.3 24.45 682.55 23.2 682.3 23.15 682.1 23.15 657.05 21.95 625.9 21.65 609 21.45 579.75 21.5 574.85 21.5 569.6 21.55
L 473.35 21.95
Q 458.35 21.95 450.8 21.9 438.3 21.55 428.4 20.65 421.75 19.9 410.3 18.3 409.4 18.15 408.55 18.05
L 386.2 18.05
Q 393.6 18.75 400.45 19.6 417.3 21.95 425.65 22.95 439.4 24.35 457.15 24.65 466.8 24.75 488.85 24.35 500.6 24.2 512.3 24.1 528.7 23.95 545.1 23.95 562.45 23.9 579.75 24 633.8 24.3 687.85 26
M 700.7 41.8
Q 700.4 40.45 700.1 39.2 689.05 38.4 678 37.3 647.6 33.95 632.4 32.35 605.65 29.75 586.55 29.75 583.35 29.75 579.75 29.8 565.95 30.15 547 31.65 546.4 31.7 545.8 31.75 531.75 32.85 522.8 33.55 524.5 34.65 526.1 36.05 533.6 35.4 545.4 34.35 545.7 34.3 546.05 34.3 564.65 32.75 576.65 32.45 578.15 32.45 579.75 32.45 600.55 32.05 627.55 34.35 633.05 34.85 678.45 39.65 690.4 40.9 700.7 41.8 Z"/>

<path fill="#FFC059" stroke="none" d="
M 491.75 97.45
Q 491.1 97.45 490.5 97.45
L 209.55 97.45
Q 203.95 97.45 199.3 95.85 195.45 94.55 192.25 92.15 187.3 88.5 185.8 83.75 185.45 82.55 185.3 81.3 185.15 80.4 185.15 79.45
L 185.15 56.85
Q 185.15 55.65 185.35 54.5 186.3 48.55 192.25 44.15 193.55 43.2 194.9 42.45
L 184.45 33.25
Q 182.35 34.55 180.45 36.2 172.6 43.25 172.6 53.15
L 172.6 55 172.6 57.95 172.6 61.6 172.6 64.3 172.6 70.55 172.6 73.05 172.6 81.3 172.6 83.15
Q 172.6 83.45 172.6 83.75 172.8 91.3 177.65 97.15 178.9 98.6 180.45 100 180.75 100.25 181.05 100.55 188.7 107.05 199.35 107.05
L 507.4 107.05
Q 518.5 107.05 526.3 100 529.5 97.15 531.4 93.85 532.15 92.55 532.7 91.15 533.3 89.65 533.65 88 533.9 86.7 534.05 85.4 534.15 84.3 534.15 83.15
L 534.15 77.4 515.35 91.55 515.25 91.6
Q 515.15 91.6 515.05 91.75 514.8 91.9 514.5 92.15 513.6 92.8 512.65 93.4 506.1 97.45 497.25 97.45
L 491.75 97.45
M 698.85 35.3
Q 697.1 30.5 694.3 26.2 693.5 24.95 692.6 23.8 690.4 20.8 687.7 18.1
L 687.65 18.05
Q 686.35 16.75 685 15.55 671.75 4 653.7 4
L 53 4
Q 39.8 4 29.2 10.2 27.5 11.15 25.85 12.35 22.3 14.8 19.05 18.05 18.2 18.9 17.4 19.8 16.3 21 15.3 22.2 11.1 27.4 8.65 33.3 19.2 26.7 31.05 22.95 34.9 21.7 38.9 20.8 48 18.65 57.75 18.05
L 220.5 18.05 243.7 18.05 386.2 18.05 408.55 18.05 593.85 18
Q 598.4 18.05 603.1 18.05 616.8 18.1 631.65 18.15 634.25 18.15 636.85 18.15
L 661.15 18.05
Q 662.35 18.15 663.5 18.25 674.05 19.3 682.55 23.2 685.3 24.45 687.85 26 694 29.75 698.85 35.3 Z"/>

<path fill="#3A2520" stroke="none" d="
M 514.5 44.15
Q 507.4 38.85 497.25 38.85
L 491.75 38.85
Q 491.1 38.85 490.5 38.9
L 209.55 38.85
Q 201.2 38.85 194.9 42.45 193.55 43.2 192.25 44.15 186.3 48.55 185.35 54.5 185.15 55.65 185.15 56.85
L 185.15 79.45
Q 185.15 80.4 185.3 81.3 185.45 82.55 185.8 83.75 187.3 88.5 192.25 92.15 195.45 94.55 199.3 95.85 203.95 97.45 209.55 97.45
L 490.5 97.45
Q 491.1 97.45 491.75 97.45
L 497.25 97.45
Q 506.1 97.45 512.65 93.4 513.6 92.8 514.5 92.15 514.8 91.9 515.05 91.75 515.15 91.6 515.25 91.6
L 515.35 91.55
Q 515.75 91.2 516.15 90.85 518.05 89.15 519.35 87.25 520.15 86 520.65 84.7 521.65 82.2 521.65 79.45
L 521.65 56.85
Q 521.65 54.35 520.85 52.15 520.4 50.8 519.65 49.6 517.9 46.65 514.5 44.15 Z"/>

<path fill="#A97222" stroke="none" d="
M 497.25 38.85
Q 507.4 38.85 514.5 44.15 517.9 46.65 519.65 49.6 520.4 50.8 520.85 52.15 521.65 54.35 521.65 56.85
L 521.65 79.45
Q 521.65 82.2 520.65 84.7 520.15 86 519.35 87.25 518.05 89.15 516.15 90.85 515.75 91.2 515.35 91.55
L 534.15 77.4 534.15 73.95 534.15 71.15 534.15 65.85 534.15 63.25 534.15 53.15
Q 534.15 52.6 534.15 52.1 534.05 50.75 533.9 49.5 532.65 41.9 526.3 36.2 526.2 36.1 526.1 36.05 524.5 34.65 522.8 33.55 516.1 29.25 507.4 29.25
L 329.1 29.25 199.35 29.25
Q 194.4 29.25 190.1 30.65 187.1 31.6 184.45 33.25
L 194.9 42.45
Q 201.2 38.85 209.55 38.85
L 490.5 38.9
Q 491.1 38.85 491.75 38.85
L 497.25 38.85
M 688.95 119.2
Q 694.25 113.45 697.35 106.85 697.9 105.7 698.4 104.5 698.7 103.7 699 102.85 697.7 103.65 696.4 104.35 694.4 105.45 692.35 106.5 670.6 117.25 641.75 117.2 638.75 117.55 635.65 117.55
L 590.1 117.55 571.5 117.55 249.9 117.55 219.75 117.55 34.95 117.55
Q 21.15 117.55 11.45 110.8 14.45 115.85 18.85 120.3 18.95 120.4 19.05 120.5 20.2 121.65 21.4 122.7 34.7 134.55 53 134.55
L 653.7 134.55
Q 666 134.55 676.05 129.2 678.1 128.1 680.1 126.75 683.35 124.6 686.35 121.8 687 121.15 687.65 120.5 688.3 119.85 688.95 119.2 Z"/>
</g>
</defs>

<g transform="matrix( 1, 0, 0, 1, 0,0) ">
<use xlink:href="#Layer0_0_FILL"/>
</g>
</svg>
