
<svg xmlns="http://www.w3.org/2000/svg" version="1.1" xmlns:xlink="http://www.w3.org/1999/xlink" preserveAspectRatio="none" x="0px" y="0px" width="1228px" height="512px" viewBox="0 0 1228 512">
<defs>
<g id="Layer0_0_FILL">
<path fill="#A97222" stroke="none" d="
M 1175.05 510.45
Q 1195.75 510.45 1210.35 496.4 1219.3 487.8 1222.8 476.95 1197.25 494.9 1171.75 493.4
L 79.2 493.4
Q 25.5 489 17.95 444.2
L 17.95 75.25 21.75 27.5
Q 14.45 31 7.75 35.8 5 43.35 5 52
L 5 462.45
Q 5 482.35 19.6 496.4 34.2 510.45 54.9 510.45
L 1175.05 510.45 Z"/>

<path fill="#E5AD50" stroke="none" d="
M 1212.15 358.95
L 1211.9 327.2
Q 1203.15 281.3 1171.75 279.55
L 521.45 279.55
Q 509.35 277.5 509.2 265.5
L 509.2 184.7 508.4 65.7
Q 499.65 19.8 468.25 18.05
L 60.65 18.05
Q 39.45 19 21.75 27.5
L 17.95 75.25 17.95 444.2
Q 25.5 489 79.2 493.4
L 1171.75 493.4
Q 1197.25 494.9 1222.8 476.95
L 1219.4 449.75 1212.15 358.95
M 1185.45 312.9
Q 1198.9 326.1 1198.9 344.85
L 1198.9 431.2
Q 1198.9 449.9 1185.45 463.15 1172 476.35 1152.95 476.35
L 77.1 476.35
Q 58 476.35 44.6 463.15 31.15 449.9 31.15 431.2
L 31.15 83.35
Q 31.15 64.6 44.6 51.4 58 38.2 77.1 38.2
L 449.45 38.2
Q 468.5 38.2 481.95 51.4 495.4 64.6 495.4 83.35
L 495.4 265.5
Q 495.2 299.8 521.45 299.7
L 1152.95 299.7
Q 1172 299.7 1185.45 312.9 Z"/>

<path fill="#582F11" stroke="none" d="
M 1198.9 344.85
Q 1198.9 326.1 1185.45 312.9 1172 299.7 1152.95 299.7
L 521.45 299.7
Q 495.2 299.8 495.4 265.5
L 495.4 83.35
Q 495.4 64.6 481.95 51.4 468.5 38.2 449.45 38.2
L 77.1 38.2
Q 58 38.2 44.6 51.4 31.15 64.6 31.15 83.35
L 31.15 431.2
Q 31.15 449.9 44.6 463.15 58 476.35 77.1 476.35
L 1152.95 476.35
Q 1172 476.35 1185.45 463.15 1198.9 449.9 1198.9 431.2
L 1198.9 344.85
M 1141.9 318.7
Q 1160.15 318.7 1173 331.5 1184.65 343 1185.8 358.95
L 1185.8 368.5 1185.9 368.5 1185.9 417.5
Q 1185.9 435.6 1173 448.4 1160.15 461.2 1141.9 461.2
L 88.2 461.2
Q 69.95 461.2 57.1 448.4 44.25 435.6 44.25 417.5
L 44.25 100.95
Q 44.25 82.75 57.1 70 67.85 59.3 82.35 57.55
L 438 57.55 438 57.2 438.4 57.2
Q 456.65 57.2 469.5 70 481.15 81.5 482.3 97.45 482.4 99.15 482.4 100.95
L 482.4 265.5
Q 481.05 319.65 521.45 319.05
L 1141.5 319.05 1141.5 318.7 1141.9 318.7 Z"/>

<path fill="#85481A" stroke="none" d="
M 1173 331.5
Q 1160.15 318.7 1141.9 318.7
L 1141.5 318.7 1141.5 319.05 521.45 319.05
Q 481.05 319.65 482.4 265.5
L 482.4 100.95
Q 482.4 99.15 482.3 97.45 481.15 81.5 469.5 70 456.65 57.2 438.4 57.2
L 438 57.2 438 57.55 82.35 57.55
Q 67.85 59.3 57.1 70 44.25 82.75 44.25 100.95
L 44.25 417.5
Q 44.25 435.6 57.1 448.4 69.95 461.2 88.2 461.2
L 1141.9 461.2
Q 1160.15 461.2 1173 448.4 1185.9 435.6 1185.9 417.5
L 1185.9 368.5 1185.8 368.5 1185.8 358.95
Q 1184.65 343 1173 331.5 Z"/>

<path fill="#FFC059" stroke="none" d="
M 1210.35 279.55
Q 1195.75 265.5 1175.05 265.5
L 535.5 265.5
Q 521.7 263.05 521.45 252.15
L 521.45 52
Q 521.45 32.1 506.85 18.05 492.25 4 471.55 4
L 54.9 4
Q 34.2 4 19.6 18.05 11.35 26 7.75 35.8 14.45 31 21.75 27.5 39.45 19 60.65 18.05
L 468.25 18.05
Q 499.65 19.8 508.4 65.7
L 509.2 184.7 509.2 265.5
Q 509.35 277.5 521.45 279.55
L 1171.75 279.55
Q 1203.15 281.3 1211.9 327.2
L 1212.15 358.95 1219.4 449.75 1222.8 476.95
Q 1224.95 470.15 1224.95 462.45
L 1224.95 313.5
Q 1224.95 293.6 1210.35 279.55 Z"/>
</g>
</defs>

<g transform="matrix( 1, 0, 0, 1, 0,0) ">
<use xlink:href="#Layer0_0_FILL"/>
</g>
</svg>
