
<svg xmlns="http://www.w3.org/2000/svg" version="1.1" xmlns:xlink="http://www.w3.org/1999/xlink" preserveAspectRatio="none" x="0px" y="0px" width="124px" height="124px" viewBox="0 0 124 124">
<defs>
<g id="Layer0_0_FILL">
<path fill="#582F11" stroke="none" d="
M 122.7 19.9
Q 122.7 1.5 104.3 1.5
L 19.95 1.5
Q 1.5 1.5 1.5 19.9
L 1.5 104.25
Q 1.5 122.7 19.95 122.7
L 104.3 122.7
Q 122.7 122.7 122.7 104.25
L 122.7 19.9
M 116.55 16.75
L 116.55 18.3 116.55 19.1 116.55 21.55
Q 116.65 22.8 116.65 24.2 116.6 24.3 116.55 24.45
L 116.55 24.7 116.55 35.3 116.55 37.1 116.55 40.55 116.55 42.1 116.55 60 116.55 61.85 116.55 66.45 116.55 70.55 116.55 71.75 116.55 84.5 116.55 86.15 116.55 92.15 116.55 93.65 116.55 105.45 116.55 106.95
Q 116.55 107.2 116.55 107.4 116.3 116.15 107.35 116.15
L 17.2 116.15
Q 9.9 116.15 8.35 110.45 7.95 108.9 7.95 106.95
L 7.95 105.65 7.95 103.65 7.95 95.95 7.95 94.2 7.95 89.85 7.95 88.35 7.95 76.2 7.95 73.95 7.95 66.65 7.95 65.1 7.95 59.65 7.95 58.05 7.95 53.45 7.95 51.5 7.95 49.05 7.95 47.35 7.95 33 7.95 31.5 7.95 27.35 7.95 25.65 7.95 22.35 7.95 20.8 7.95 19.95 7.95 16.75
Q 7.95 7.6 17.2 7.6
L 107.35 7.6
Q 116.55 7.6 116.55 16.75 Z"/>

<path fill="#D19E49" stroke="none" d="
M 78.45 106.2
Q 76.75 105.95 74.05 105.7 55.2 111.1 28.3 111.1 19.7 111.15 10.35 110.6 9.35 110.55 8.35 110.45 9.9 116.15 17.2 116.15
L 107.35 116.15
Q 116.3 116.15 116.55 107.4 116.05 107.4 115.55 107.4 109.75 107.45 104.95 107.4 90 107.35 81.6 106.55 81.3 106.55 78.45 106.2
M 116.55 93.65
Q 112.85 93.6 108.45 93.6 104.95 93.6 98.85 93.65 90.45 100.15 78.45 104.25 81.3 104.6 81.6 104.65 90 105.45 104.95 105.5 110 105.5 116.15 105.45 116.3 105.45 116.55 105.45
L 116.55 93.65
M 116.55 92.15
L 116.55 86.15 106.65 86.15
Q 104.1 89.2 101.05 91.85 109.8 91.9 116.55 92.15
M 116.55 71.75
Q 115.75 71.75 114.95 71.75 112.4 78.75 107.95 84.5 112.4 84.5 116.55 84.5
L 116.55 71.75
M 116.55 70.55
L 116.55 66.45
Q 116.05 68.55 115.35 70.55 115.9 70.55 116.55 70.55 Z"/>

<path fill="#BA8D41" stroke="none" d="
M 74.05 105.7
Q 76.75 105.95 78.45 106.2 81.3 106.55 81.6 106.55 90 107.35 104.95 107.4 109.75 107.45 115.55 107.4 116.05 107.4 116.55 107.4 116.55 107.2 116.55 106.95
L 116.55 105.45
Q 116.3 105.45 116.15 105.45 110 105.5 104.95 105.5 90 105.45 81.6 104.65 81.3 104.6 78.45 104.25 76.35 105 74.05 105.7
M 106.65 86.15
L 116.55 86.15 116.55 84.5
Q 112.4 84.5 107.95 84.5 107.35 85.35 106.65 86.15
M 101.05 91.85
Q 99.95 92.8 98.85 93.65 104.95 93.6 108.45 93.6 112.85 93.6 116.55 93.65
L 116.55 92.15
Q 109.8 91.9 101.05 91.85
M 116.55 71.75
L 116.55 70.55
Q 115.9 70.55 115.35 70.55 115.1 71.1 114.95 71.75 115.75 71.75 116.55 71.75 Z"/>

<path fill="#E5AD50" stroke="none" d="
M 62.75 104.3
Q 61.35 104.15 59.9 103.95 59.25 103.85 58.55 103.8 41.9 101.7 35.4 101.7 31.7 101.7 28.3 101.95 21.95 102.3 16.65 103.4 14.3 103.85 8.25 105.55 8.1 105.55 7.95 105.65
L 7.95 106.95
Q 7.95 108.9 8.35 110.45 9.35 110.55 10.35 110.6 19.7 111.15 28.3 111.1 55.2 111.1 74.05 105.7 69.65 105.15 62.75 104.3
M 98.85 93.65
Q 96.9 93.65 94.75 93.7 91.7 93.75 70.05 93.55 67.75 93.45 65.3 93.45 58.55 93.4 52.7 93.45 43.05 93.6 35.9 93.95 32.5 94.1 28.3 94.4 23.35 94.7 17.1 95.2 13.3 95.5 7.95 95.95
L 7.95 103.65
Q 14.25 101.95 16.65 101.4 21.95 100.4 28.3 100 31.7 99.8 35.4 99.8 41.9 99.8 58.55 101.85 58.6 101.85 58.7 101.9 61.35 102.15 63.75 102.45 74.15 103.75 78.45 104.25 90.45 100.15 98.85 93.65
M 94.45 91.8
Q 97.9 91.85 101.05 91.85 104.1 89.2 106.65 86.15
L 91.45 86.15
Q 83.2 86.1 76.9 86.15 71.1 86.2 67 86.25 55.9 86.45 46.6 87 44.6 87.15 42.7 87.25 38.6 87.6 30.55 88.3 29.4 88.35 28.3 88.45 21.9 89.05 18.5 89.35 13.6 89.6 7.95 89.85
L 7.95 94.2
Q 9.65 94.1 11.2 94 14.25 93.7 16.7 93.55 18.3 93.4 19.9 93.35 24 93.05 28.3 92.85 39.15 92.3 51.45 92.1 53.45 92.05 55.55 92 61.95 91.9 71.5 91.85 81.3 91.8 94.45 91.8
M 99.1 71.8
Q 95.3 71.85 91.15 72 80.65 72.2 68.35 72.75 58.85 73.25 37.55 74.45
L 7.95 76.2 7.95 88.35
Q 8.65 88.3 9.35 88.3 14.75 88.05 22.85 87.35 25.8 87.1 28.3 86.85 33.35 86.45 36.35 86.15 40.55 85.8 45.1 85.6 56.1 84.95 68.9 84.7 73.05 84.6 78.6 84.55 88.05 84.45 101.65 84.5 104.85 84.5 107.95 84.5 112.4 78.75 114.95 71.75 105.15 71.7 99.1 71.8
M 84.65 62.25
Q 83.9 61.7 82.5 61.35 77.3 60.05 72.15 59.65 67.75 59.25 58.85 59.25
L 7.95 59.65 7.95 65.1 67.1 65.1
Q 73.25 65.1 76.25 64.9 81.3 64.6 85.05 63.5 85.55 62.95 84.65 62.25
M 115.35 70.55
Q 116.05 68.55 116.55 66.45
L 116.55 61.85
Q 113.15 61.25 109.35 60.6 103.15 59.5 98.6 58.75 92.05 57.6 88.9 57.15 62.65 53.25 28.3 53.2 25.95 53.2 23.6 53.2 16.85 53.2 9.8 53.4 8.9 53.4 7.95 53.45
L 7.95 58.05 58.1 57.7
Q 66.6 57.65 71 57.95 78.05 58.35 83.25 59.8 85.25 60.3 86.5 61.15 88 62.1 87.8 63.25 87.4 65.25 82.35 65.95 78.4 66.4 73.45 66.55 70.4 66.75 64.35 66.75
L 7.95 66.65 7.95 73.95
Q 18.4 73.35 28.3 72.9 30.35 72.8 32.45 72.75 62.9 71.3 89 70.85 90.55 70.85 92.1 70.85 103.05 70.65 115.35 70.55
M 116.55 35.3
Q 116.3 35.25 116.05 35.25 116.15 36.1 116.25 37 116.4 37 116.55 37.1
L 116.55 35.3
M 97.85 41.65
Q 95.25 41.55 92.95 41.65 80.7 41.8 61.4 43.65 61.25 43.65 61.1 43.65 52.05 44.45 41.5 45.65 34.5 46.45 28.3 47.1 25.9 47.35 23.6 47.6 15 48.5 7.95 49.05
L 7.95 51.5
Q 15.85 51.25 23.75 51.3 26 51.3 28.3 51.3 63.9 51.7 98.85 57 103.15 57.65 107.35 58.35 113 59.3 116.55 60
L 116.55 42.1
Q 111.7 41.85 107.4 41.75 102.25 41.65 97.85 41.65
M 93.35 34.55
Q 88.95 34.05 85.95 33.8 79.55 33.15 71.55 33.05 70.4 33 68.85 33 64.45 32.95 57.05 32.95
L 7.95 33 7.95 47.35
Q 16.2 46.75 23.6 46.1 24.6 46 25.65 45.9 27.05 45.8 28.3 45.6 45.5 43.65 54.4 42.65 57.45 42.3 60.35 42.05 61.35 41.9 62.4 41.85 74.55 40.65 83.45 40.2 89.7 39.95 97.1 40 102.45 40 108.35 40.25 112.3 40.35 116.55 40.55 116.4 38.75 116.25 37 113.25 36.8 110.5 36.55 108.9 36.45 107.4 36.25 104.95 36 96.7 34.95 94.9 34.7 93.35 34.55
M 91.6 32.75
Q 95.8 33.15 101.15 33.75 107.05 34.35 111.5 34.85 113.95 35.05 116.05 35.25 115.55 31.25 114.95 28 114.6 26.15 114.15 24.5 107.35 24.05 99.85 23.75 89.55 23.45 69.85 23.45 58.55 23.45 52.9 23.5 43.6 23.65 36.2 24.4 33.3 24.7 28.3 25.25 27.65 25.4 26.95 25.45 20.6 26.2 17.75 26.5 13.8 26.95 7.95 27.35
L 7.95 31.5 47.6 31.25
Q 50.15 31.25 52.45 31.25 60.45 31.2 65.4 31.3 68.1 31.4 70.65 31.45 77.45 31.6 83.2 32 86.55 32.25 91.6 32.75
M 111.75 18.15
Q 108.9 12.6 104.45 12.45
L 18.85 12.45
Q 11.35 12.1 8 19.9
L 7.95 19.95 7.95 20.8
Q 12.65 20.25 22.2 19 25.5 18.55 28.3 18.2 34.35 17.5 38.4 17.2 45.4 16.7 54.3 16.7 59.25 16.75 70.25 17.05
L 111.75 18.15
M 112.25 19
Q 114.2 19.05 116.2 19.1 116.4 19.1 116.55 19.1
L 116.55 18.3 111.75 18.15
Q 112 18.55 112.25 19
M 113.6 22.7
Q 113 20.6 112.25 19 89.35 18.2 70.5 18.2 51.65 18.05 39.65 19 35.45 19.35 28.3 20.1 24.55 20.5 19.95 21 13.1 21.8 7.95 22.35
L 7.95 25.65
Q 14.75 25.15 18.8 24.75 21.55 24.5 28.3 23.65 34.45 22.9 37.9 22.6 45.6 21.95 55.9 21.95 56.25 21.95 74 21.95 90.9 21.95 99.35 22.1 107.05 22.3 113.6 22.7
M 113.6 22.7
Q 113.9 23.6 114.15 24.5 115.3 24.65 116.45 24.7 116.5 24.7 116.55 24.7
L 116.55 24.45 116.55 22.9
Q 115.1 22.8 113.6 22.7 Z"/>

<path fill="#D59B41" stroke="none" d="
M 59.9 103.95
Q 61.35 104.15 62.75 104.3 69.65 105.15 74.05 105.7 76.35 105 78.45 104.25 74.15 103.75 63.75 102.45 61.35 102.15 58.7 101.9 58.6 101.85 58.55 101.85 41.9 99.8 35.4 99.8 31.7 99.8 28.3 100 21.95 100.4 16.65 101.4 14.25 101.95 7.95 103.65
L 7.95 105.65
Q 8.1 105.55 8.25 105.55 14.3 103.85 16.65 103.4 21.95 102.3 28.3 101.95 31.7 101.7 35.4 101.7 41.9 101.7 58.55 103.8 59.25 103.85 59.9 103.95
M 106.65 86.15
Q 107.35 85.35 107.95 84.5 104.85 84.5 101.65 84.5 88.05 84.45 78.6 84.55 73.05 84.6 68.9 84.7 56.1 84.95 45.1 85.6 40.55 85.8 36.35 86.15 33.35 86.45 28.3 86.85 25.8 87.1 22.85 87.35 14.75 88.05 9.35 88.3 8.65 88.3 7.95 88.35
L 7.95 89.85
Q 13.6 89.6 18.5 89.35 21.9 89.05 28.3 88.45 29.4 88.35 30.55 88.3 38.6 87.6 42.7 87.25 44.6 87.15 46.6 87 55.9 86.45 67 86.25 71.1 86.2 76.9 86.15 83.2 86.1 91.45 86.15
L 106.65 86.15
M 101.05 91.85
Q 97.9 91.85 94.45 91.8 81.3 91.8 71.5 91.85 61.95 91.9 55.55 92 53.45 92.05 51.45 92.1 39.15 92.3 28.3 92.85 24 93.05 19.9 93.35 18.3 93.4 16.7 93.55 14.25 93.7 11.2 94 9.65 94.1 7.95 94.2
L 7.95 95.95
Q 13.3 95.5 17.1 95.2 23.35 94.7 28.3 94.4 32.5 94.1 35.9 93.95 43.05 93.6 52.7 93.45 58.55 93.4 65.3 93.45 67.75 93.45 70.05 93.55 91.7 93.75 94.75 93.7 96.9 93.65 98.85 93.65 99.95 92.8 101.05 91.85
M 82.5 61.35
Q 83.9 61.7 84.65 62.25 85.55 62.95 85.05 63.5 81.3 64.6 76.25 64.9 73.25 65.1 67.1 65.1
L 7.95 65.1 7.95 66.65 64.35 66.75
Q 70.4 66.75 73.45 66.55 78.4 66.4 82.35 65.95 87.4 65.25 87.8 63.25 88 62.1 86.5 61.15 85.25 60.3 83.25 59.8 78.05 58.35 71 57.95 66.6 57.65 58.1 57.7
L 7.95 58.05 7.95 59.65 58.85 59.25
Q 67.75 59.25 72.15 59.65 77.3 60.05 82.5 61.35
M 114.95 71.75
Q 115.1 71.1 115.35 70.55 103.05 70.65 92.1 70.85 90.55 70.85 89 70.85 62.9 71.3 32.45 72.75 30.35 72.8 28.3 72.9 18.4 73.35 7.95 73.95
L 7.95 76.2 37.55 74.45
Q 58.85 73.25 68.35 72.75 80.65 72.2 91.15 72 95.3 71.85 99.1 71.8 105.15 71.7 114.95 71.75
M 116.55 61.85
L 116.55 60
Q 113 59.3 107.35 58.35 103.15 57.65 98.85 57 63.9 51.7 28.3 51.3 26 51.3 23.75 51.3 15.85 51.25 7.95 51.5
L 7.95 53.45
Q 8.9 53.4 9.8 53.4 16.85 53.2 23.6 53.2 25.95 53.2 28.3 53.2 62.65 53.25 88.9 57.15 92.05 57.6 98.6 58.75 103.15 59.5 109.35 60.6 113.15 61.25 116.55 61.85
M 92.95 41.65
Q 95.25 41.55 97.85 41.65 102.25 41.65 107.4 41.75 111.7 41.85 116.55 42.1
L 116.55 40.55
Q 112.3 40.35 108.35 40.25 102.45 40 97.1 40 89.7 39.95 83.45 40.2 74.55 40.65 62.4 41.85 61.35 41.9 60.35 42.05 57.45 42.3 54.4 42.65 45.5 43.65 28.3 45.6 27.05 45.8 25.65 45.9 24.6 46 23.6 46.1 16.2 46.75 7.95 47.35
L 7.95 49.05
Q 15 48.5 23.6 47.6 25.9 47.35 28.3 47.1 34.5 46.45 41.5 45.65 52.05 44.45 61.1 43.65 61.25 43.65 61.4 43.65 80.7 41.8 92.95 41.65
M 101.15 33.75
Q 95.8 33.15 91.6 32.75 86.55 32.25 83.2 32 77.45 31.6 70.65 31.45 68.1 31.4 65.4 31.3 60.45 31.2 52.45 31.25 50.15 31.25 47.6 31.25
L 7.95 31.5 7.95 33 57.05 32.95
Q 64.45 32.95 68.85 33 70.4 33 71.55 33.05 79.55 33.15 85.95 33.8 88.95 34.05 93.35 34.55 94.9 34.7 96.7 34.95 104.95 36 107.4 36.25 108.9 36.45 110.5 36.55 113.25 36.8 116.25 37 116.15 36.1 116.05 35.25 113.95 35.05 111.5 34.85 107.05 34.35 101.15 33.75
M 112.25 19
Q 112 18.55 111.75 18.15
L 70.25 17.05
Q 59.25 16.75 54.3 16.7 45.4 16.7 38.4 17.2 34.35 17.5 28.3 18.2 25.5 18.55 22.2 19 12.65 20.25 7.95 20.8
L 7.95 22.35
Q 13.1 21.8 19.95 21 24.55 20.5 28.3 20.1 35.45 19.35 39.65 19 51.65 18.05 70.5 18.2 89.35 18.2 112.25 19
M 114.15 24.5
Q 113.9 23.6 113.6 22.7 107.05 22.3 99.35 22.1 90.9 21.95 74 21.95 56.25 21.95 55.9 21.95 45.6 21.95 37.9 22.6 34.45 22.9 28.3 23.65 21.55 24.5 18.8 24.75 14.75 25.15 7.95 25.65
L 7.95 27.35
Q 13.8 26.95 17.75 26.5 20.6 26.2 26.95 25.45 27.65 25.4 28.3 25.25 33.3 24.7 36.2 24.4 43.6 23.65 52.9 23.5 58.55 23.45 69.85 23.45 89.55 23.45 99.85 23.75 107.35 24.05 114.15 24.5 Z"/>

<path fill="#F6CA79" stroke="none" d="
M 116.55 37.1
Q 116.4 37 116.25 37 116.4 38.75 116.55 40.55
L 116.55 37.1
M 116.55 24.7
Q 116.5 24.7 116.45 24.7 115.3 24.65 114.15 24.5 114.6 26.15 114.95 28 115.55 31.25 116.05 35.25 116.3 35.25 116.55 35.3
L 116.55 24.7
M 112.25 19
Q 113 20.6 113.6 22.7 115.1 22.8 116.55 22.9
L 116.55 21.55 116.55 19.1
Q 116.4 19.1 116.2 19.1 114.2 19.05 112.25 19
M 116.55 18.3
L 116.55 16.75
Q 116.55 7.6 107.35 7.6
L 17.2 7.6
Q 7.95 7.6 7.95 16.75
L 7.95 19.95 8 19.9
Q 11.35 12.1 18.85 12.45
L 104.45 12.45
Q 108.9 12.6 111.75 18.15
L 116.55 18.3 Z"/>

<path fill="#46D010" stroke="none" d="
M 116.65 24.2
Q 116.65 22.8 116.55 21.55
L 116.55 22.9 116.55 24.45
Q 116.6 24.3 116.65 24.2 Z"/>
</g>
</defs>

<g transform="matrix( 1, 0, 0, 1, 0,0) ">
<use xlink:href="#Layer0_0_FILL"/>
</g>
</svg>
