
<svg xmlns="http://www.w3.org/2000/svg" version="1.1" xmlns:xlink="http://www.w3.org/1999/xlink" preserveAspectRatio="none" x="0px" y="0px" width="92px" height="92px" viewBox="0 0 92 92">
<defs>
<g id="Layer0_0_FILL">
<path fill="#FEB80E" stroke="none" d="
M 57.9 11.65
L 57.85 11.65 56.7 12.6 57.9 11.65
M 12.7 60.45
Q 13.6 62.65 14.65 64.75
L 20.85 59.75
Q 19.8 57.55 19 55.2 18.75 54.7 18.6 54.2
L 12.25 59.35
Q 12.5 59.9 12.7 60.45
M 48 11.3
Q 46.9 10.2 45.8 9.2 30.05 26.2 7.85 29.3 7.55 41.2 9.7 50.75
L 16.6 45.1
Q 15.75 38.55 16.2 30.7 16.95 30.75 17.6 30.7 17.775 30.7 17.95 30.65
L 18.25 30.65
Q 19.1 30.55 19.9 30.4 21.4 30.1 22.8 29.65 34.35 26.65 42.25 17.7 43.95 19.7 45.75 21.45
L 53.2 15.4
Q 50.5 13.5 48 11.3
M 66.95 22.25
Q 63.85 21.25 60.9 19.85
L 52.45 26.7
Q 55.25 28.35 58.25 29.45
L 59.65 28.25 59.6 28.25 66.95 22.25 Z"/>

<path fill="#B24B06" stroke="none" d="
M 74.55 60.7
L 66.05 66.1
Q 63.95 69.15 61.3 71.8 60.55 72.6 59.85 73.35 52.05 80.85 42.1 85.25 41.05 85.75 40.1 86.1 41.4 86.6 42.75 87 65.75 80.45 74.55 60.7 Z"/>

<path fill="#FFDD63" stroke="none" d="
M 9.7 50.75
Q 10.7 55.35 12.25 59.35
L 18.6 54.2
Q 17.25 49.95 16.6 45.1
L 9.7 50.75
M 28.85 70.05
Q 27.75 69.15 26.8 68.1 23.2 64.45 20.85 59.75
L 14.65 64.75
Q 17.05 69.2 20.25 72.95 21.25 74.15 22.4 75.25
L 28.85 70.05
M 53.2 15.4
L 45.75 21.45
Q 49 24.6 52.45 26.7
L 60.9 19.85
Q 56.85 17.9 53.2 15.4
M 67.9 22.55
Q 68 22.6 68.1 22.65 68.45 21.35 67.9 22.55
M 67.6 23.2
L 67 22.25 66.95 22.25 59.6 28.25 59.65 28.25 58.25 29.45
Q 59.9 30 61.65 30.4 63.85 30.9 67.1 31.3 67.2 34.85 67 38.2 66.95 38.8 66.95 39.3
L 74.95 32.85
Q 74.9 32.65 74.9 32.4 74.8 28.45 74.1 24.4
L 74.05 24.15
Q 72.95 23.9 71.85 23.65 70 23.2 68.1 22.65 68 22.6 67.9 22.55 67.75 22.8 67.6 23.2 Z"/>

<path fill="#B75D1B" stroke="none" d="
M 17.6 30.7
Q 16.95 30.75 16.2 30.7 15.75 38.55 16.6 45.1 17.25 49.95 18.6 54.2 18.75 54.7 19 55.2 19.8 57.55 20.85 59.75 23.2 64.45 26.8 68.1 27.75 69.15 28.85 70.05 34.5 74.8 42.6 77.2 42.95 77.05 43.25 77 35.15 74.45 29.6 69.45 28.55 68.5 27.6 67.5 24.1 63.8 21.9 58.85 21.15 57.35 20.5 55.6 20.3 54.95 20.05 54.3 19.9 53.8 19.7 53.3 18.45 49 17.9 44.1 17.8 43.05 17.75 42 17.35 37.35 17.55 32.25 17.55 31.5 17.6 30.75 17.775 30.70625 17.95 30.65 17.775 30.7 17.6 30.7 Z"/>

<path fill="#FF9904" stroke="none" d="
M 74.95 32.85
L 66.95 39.3
Q 65.75 58.3 55.35 68.9 50.3 73.9 43.25 77 42.95 77.05 42.6 77.2 34.5 74.8 28.85 70.05
L 22.4 75.25
Q 29.55 82.4 40.1 86.1 41.05 85.75 42.1 85.25 52.05 80.85 59.85 73.35 60.55 72.6 61.3 71.8 63.95 69.15 66.05 66.1 70.95 59.25 73.2 50.85 75.35 42.6 74.95 32.85 Z"/>

<path fill="#015E7F" stroke="none" d="
M 65.4 40.55
Q 65.4 40.2 65.4 39.85 64.85 40.75 64.25 41.55 57.1 51 47.75 54.8 37.5 59.05 24.75 56.6 22.65 56.15 20.5 55.6 21.15 57.35 21.9 58.85 24.1 63.8 27.6 67.5 28.55 68.5 29.6 69.45 35.15 74.45 43.25 77 64.35 65.25 65.4 40.6
L 65.4 40.55 Z"/>

<path fill="#027AA5" stroke="none" d="
M 65.4 39.85
Q 65.4 39.65 65.4 39.45 65.65 37.4 65.7 35.3 53.75 42.2 40.65 43.65 36.05 44.1 31.25 43.9 25.65 43.7 19.9 42.5 18.75 42.25 17.75 42 17.8 43.05 17.9 44.1 18.45 49 19.7 53.3 19.9 53.8 20.05 54.3 20.3 54.95 20.5 55.6 22.65 56.15 24.75 56.6 37.5 59.05 47.75 54.8 57.1 51 64.25 41.55 64.85 40.75 65.4 39.85 Z"/>

<path fill="#000000" fill-opacity="0.2" stroke="none" d="
M 79.85 28.75
Q 79.85 28.8 79.85 28.85 80.15 41.7 77.5 51.95 76.25 56.6 74.55 60.7 65.75 80.45 42.75 87 65.15 87.15 77.05 66.9 86.6 47.7 84.95 26.7
L 79.7 24.85
Q 79.8 26.85 79.85 28.75 Z"/>

<path fill="#0391C4" stroke="none" d="
M 44.35 22.6
Q 43.25 21.5 42.15 20.25 29.5 31.45 17.55 32.25 17.35 37.35 17.75 42 18.75 42.25 19.9 42.5 25.65 43.7 31.25 43.9 36.05 44.1 40.65 43.65 53.75 42.2 65.7 35.3 65.75 33.7 65.75 32.05 61.2 31.6 57.2 30.3 54 29.2 51.2 27.7 47.4 25.6 44.35 22.6 Z"/>

<path fill="#6C0000" stroke="none" d="
M 42.15 20.25
Q 43.25 21.5 44.35 22.6 47.4 25.6 51.2 27.7 54 29.2 57.2 30.3 61.2 31.6 65.75 32.05 65.75 33.7 65.7 35.3 65.65 37.4 65.4 39.45 65.4 39.65 65.4 39.85 65.4 40.2 65.4 40.55
L 65.4 40.6
Q 64.35 65.25 43.25 77 50.3 73.9 55.35 68.9 65.75 58.3 66.95 39.3 66.95 38.8 67 38.2 67.2 34.85 67.1 31.3 63.85 30.9 61.65 30.4 59.9 30 58.25 29.45 55.25 28.35 52.45 26.7 49 24.6 45.75 21.45 43.95 19.7 42.25 17.7 34.35 26.65 22.8 29.65 21.4 30.1 19.9 30.4 19.1 30.55 18.25 30.65
L 17.95 30.65
Q 17.775 30.70625 17.6 30.75 17.55 31.5 17.55 32.25 29.5 31.45 42.15 20.25 Z"/>

<path fill="#FFC16E" stroke="none" d="
M 45.55 9
Q 44.05 7.4 42.6 5.75 41.25 7.45 39.8 9 38.7 10.2 37.5 11.3 34.5 14.15 31.25 16.4 30.9 16.6 30.6 16.8 29.6 17.5 28.45 18.15 22.85 21.5 16.45 23.2 12.8 24.2 7.95 24.85 7.85 27.15 7.85 29.3 30.05 26.2 45.8 9.2 45.7 9.05 45.55 9 Z"/>

<path fill="#D96000" stroke="none" d="
M 74.05 24.15
L 74.1 24.4
Q 74.8 28.45 74.9 32.4 74.9 32.65 74.95 32.85 75.35 42.6 73.2 50.85 70.95 59.25 66.05 66.1
L 74.55 60.7
Q 76.25 56.6 77.5 51.95 80.15 41.7 79.85 28.85 79.85 28.8 79.85 28.75 79.8 26.85 79.7 24.85 76.8 24.65 74.05 24.15 Z"/>
</g>

<path id="Layer0_0_1_STROKES" stroke="#801700" stroke-width="2" stroke-linejoin="round" stroke-linecap="round" fill="none" d="
M 60.9 19.85
Q 63.85 21.25 66.95 22.25
M 67 22.25
Q 67.4 22.4 67.9 22.55
M 68.1 22.65
Q 70 23.2 71.85 23.65 72.95 23.9 74.05 24.15 76.8 24.65 79.7 24.85
M 42.75 87
Q 41.4 86.6 40.1 86.1 29.55 82.4 22.4 75.25 21.25 74.15 20.25 72.95 17.05 69.2 14.65 64.75 13.6 62.65 12.7 60.45 12.5 59.9 12.25 59.35 10.7 55.35 9.7 50.75 7.55 41.2 7.85 29.3 7.85 27.15 7.95 24.85 12.8 24.2 16.45 23.2 22.85 21.5 28.45 18.15 29.6 17.5 30.6 16.8 30.9 16.6 31.25 16.4 34.5 14.15 37.5 11.3 38.7 10.2 39.8 9 41.25 7.45 42.6 5.75 44.05 7.4 45.55 9 45.7 9.05 45.8 9.2 46.9 10.2 48 11.3 50.5 13.5 53.2 15.4 56.85 17.9 60.9 19.85
M 67.9 22.55
Q 68 22.6 68.1 22.65
M 74.55 60.7
Q 76.25 56.6 77.5 51.95 80.15 41.7 79.85 28.85 79.85 28.8 79.85 28.75 79.8 26.85 79.7 24.85
M 74.55 60.7
Q 65.75 80.45 42.75 87"/>
</defs>

<g transform="matrix( 1, 0, 0, 1, 0,0) ">
<use xlink:href="#Layer0_0_FILL"/>

<use xlink:href="#Layer0_0_1_STROKES"/>
</g>
</svg>
