
<svg xmlns="http://www.w3.org/2000/svg" version="1.1" xmlns:xlink="http://www.w3.org/1999/xlink" preserveAspectRatio="none" x="0px" y="0px" width="668px" height="804px" viewBox="0 0 668 804">
<defs>
<g id="Layer0_0_FILL">
<path fill="#A97222" stroke="none" d="
M 649.15 785.7
Q 658.1 777.1 661.6 766.25 636.05 784.2 610.55 782.7
L 78.5 782.7
Q 24.8 778.3 17.25 733.5
L 17.25 75.55 21.05 27.8
Q 13.75 31.3 7.05 36.1 4.3 43.65 4.3 52.3
L 4.3 751.75
Q 4.3 771.65 18.9 785.7 33.5 799.75 54.2 799.75
L 613.85 799.75
Q 634.55 799.75 649.15 785.7
M 524.55 46.45
Q 515.8 38.65 503.3 38.65
L 157.6 38.65
Q 148.2 38.65 140.9 43.15
L 152.6 53.45
Q 159.7 49.4 169.05 49.4
L 484.35 49.5
Q 485.05 49.4 485.75 49.4
L 491.95 49.4
Q 503.3 49.4 511.3 55.35 519.3 61.25 519.3 69.6
L 519.3 95
Q 519.3 102.9 512.15 108.6
L 533.35 92.7 533.35 65.45
Q 533.35 54.35 524.55 46.45
M 561.1 125.85
Q 552.15 134.8 539.5 134.8
L 122.55 134.8
Q 109.85 134.8 100.9 125.85 95.8 120.75 93.6 114.4
L 93.6 114.8
Q 93.6 127.45 102.5 136.35 111.4 145.25 124 145.25
L 537.95 145.25
Q 550.55 145.25 559.45 136.35 568.35 127.45 568.35 114.8
L 568.35 114.65
Q 566.15 120.85 561.1 125.85 Z"/>

<path fill="#E5AD50" stroke="none" d="
M 651.8 386.3
L 651.8 214.8 650.7 66
Q 641.95 20.1 610.55 18.35
L 59.95 18.35
Q 38.75 19.3 21.05 27.8
L 17.25 75.55 17.25 733.5
Q 24.8 778.3 78.5 782.7
L 610.55 782.7
Q 636.05 784.2 661.6 766.25
L 658.2 739.05 657.5 637 651.8 386.3
M 568.35 38.5
L 591.75 38.5
Q 610.8 38.5 624.25 51.7 637.7 64.9 637.7 83.65
L 637.7 720.5
Q 637.7 739.2 624.25 752.45 610.8 765.65 591.75 765.65
L 76.4 765.65
Q 57.3 765.65 43.9 752.45 30.45 739.2 30.45 720.5
L 30.45 83.65
Q 30.45 64.9 43.9 51.7 57.3 38.5 76.4 38.5
L 93.6 38.5 93.6 114.4
Q 95.8 120.75 100.9 125.85 109.85 134.8 122.55 134.8
L 539.5 134.8
Q 552.15 134.8 561.1 125.85 566.15 120.85 568.35 114.65
L 568.35 38.5
M 503.3 38.65
Q 515.8 38.65 524.55 46.45 533.35 54.35 533.35 65.45
L 533.35 92.7 533.35 99.15
Q 533.35 110.25 524.55 118.05 515.8 125.95 503.3 125.95
L 157.6 125.95
Q 145.2 125.95 136.4 118.05 127.6 110.25 127.6 99.15
L 127.6 65.45
Q 127.6 54.35 136.4 46.45 138.55 44.6 140.9 43.15 148.2 38.65 157.6 38.65
L 503.3 38.65 Z"/>

<path fill="#FFC059" stroke="none" d="
M 503.3 125.95
Q 515.8 125.95 524.55 118.05 533.35 110.25 533.35 99.15
L 533.35 92.7 512.15 108.6
Q 512 108.6 511.9 108.8 511.65 108.95 511.3 109.25 503.3 115.2 491.95 115.2
L 485.75 115.2
Q 485.05 115.2 484.35 115.2
L 169.05 115.2
Q 157.65 115.2 149.65 109.25 141.65 103.35 141.65 95
L 141.65 69.6
Q 141.65 61.25 149.65 55.35 151.1 54.3 152.6 53.45
L 140.9 43.15
Q 138.55 44.6 136.4 46.45 127.6 54.35 127.6 65.45
L 127.6 99.15
Q 127.6 110.25 136.4 118.05 145.2 125.95 157.6 125.95
L 503.3 125.95
M 663.75 52.3
Q 663.75 32.4 649.15 18.35 634.55 4.3 613.85 4.3
L 54.2 4.3
Q 33.5 4.3 18.9 18.35 10.65 26.3 7.05 36.1 13.75 31.3 21.05 27.8 38.75 19.3 59.95 18.35
L 610.55 18.35
Q 641.95 20.1 650.7 66
L 651.8 214.8 651.8 386.3 657.5 637 658.2 739.05 661.6 766.25
Q 663.75 759.45 663.75 751.75
L 663.75 52.3 Z"/>

<path fill="#3A2520" stroke="none" d="
M 519.3 69.6
Q 519.3 61.25 511.3 55.35 503.3 49.4 491.95 49.4
L 485.75 49.4
Q 485.05 49.4 484.35 49.5
L 169.05 49.4
Q 159.7 49.4 152.6 53.45 151.1 54.3 149.65 55.35 141.65 61.25 141.65 69.6
L 141.65 95
Q 141.65 103.35 149.65 109.25 157.65 115.2 169.05 115.2
L 484.35 115.2
Q 485.05 115.2 485.75 115.2
L 491.95 115.2
Q 503.3 115.2 511.3 109.25 511.65 108.95 511.9 108.8 512 108.6 512.15 108.6 519.3 102.9 519.3 95
L 519.3 69.6 Z"/>

<path fill="#582F11" stroke="none" d="
M 591.75 38.5
L 568.35 38.5 568.35 114.65 568.35 114.8
Q 568.35 127.45 559.45 136.35 550.55 145.25 537.95 145.25
L 124 145.25
Q 111.4 145.25 102.5 136.35 93.6 127.45 93.6 114.8
L 93.6 114.4 93.6 38.5 76.4 38.5
Q 57.3 38.5 43.9 51.7 30.45 64.9 30.45 83.65
L 30.45 720.5
Q 30.45 739.2 43.9 752.45 57.3 765.65 76.4 765.65
L 591.75 765.65
Q 610.8 765.65 624.25 752.45 637.7 739.2 637.7 720.5
L 637.7 83.65
Q 637.7 64.9 624.25 51.7 610.8 38.5 591.75 38.5
M 580.3 57.5
L 580.7 57.5
Q 598.95 57.5 611.8 70.3 624.7 83.05 624.7 101.25
L 624.7 706.8
Q 624.7 724.9 611.8 737.7 598.95 750.5 580.7 750.5
L 87.5 750.5
Q 69.25 750.5 56.4 737.7 43.55 724.9 43.55 706.8
L 43.55 101.25
Q 43.55 83.05 56.4 70.3 67.15 59.6 81.65 57.85
L 81.65 125.8
Q 81.65 139.1 91 148.45 100.35 157.8 113.6 157.8
L 548.4 157.8
Q 561.6 157.8 570.95 148.45 580.3 139.1 580.3 125.8
L 580.3 57.5 Z"/>

<path fill="#85481A" stroke="none" d="
M 580.7 57.5
L 580.3 57.5 580.3 125.8
Q 580.3 139.1 570.95 148.45 561.6 157.8 548.4 157.8
L 113.6 157.8
Q 100.35 157.8 91 148.45 81.65 139.1 81.65 125.8
L 81.65 57.85
Q 67.15 59.6 56.4 70.3 43.55 83.05 43.55 101.25
L 43.55 706.8
Q 43.55 724.9 56.4 737.7 69.25 750.5 87.5 750.5
L 580.7 750.5
Q 598.95 750.5 611.8 737.7 624.7 724.9 624.7 706.8
L 624.7 101.25
Q 624.7 83.05 611.8 70.3 598.95 57.5 580.7 57.5 Z"/>
</g>
</defs>

<g transform="matrix( 1, 0, 0, 1, 0,0) ">
<use xlink:href="#Layer0_0_FILL"/>
</g>
</svg>
