
<svg xmlns="http://www.w3.org/2000/svg" version="1.1" xmlns:xlink="http://www.w3.org/1999/xlink" preserveAspectRatio="none" x="0px" y="0px" width="92px" height="92px" viewBox="0 0 92 92">
<defs>
<g id="Layer1_0_FILL">
<path fill="#F7FCFE" stroke="none" d="
M 62 15.05
L 25.05 57.6 48.8 33.95 36.35 51.2 87.75 2.6
Q 74.95 3.9 62 15.05 Z"/>

<path fill="#000000" fill-opacity="0.2" stroke="none" d="
M 22.05 90
L 26.15 85.9 26.15 83.3 29.6 79.7 40.3 87.65 47.15 80.55 45.55 76.45 41.5 80.9 39.4 83.1 29.25 73.9 20.45 82.85 20.85 85.35 15.45 90 22.05 90
M 84 31.1
Q 94.5 20.35 87.75 2.6 88.05 14.95 82.3 23.95 79.7 28.05 75.9 31.5
L 35.2 67.3 37.65 69.4 84 31.1 Z"/>

<path fill="#E69233" stroke="none" d="
M 4.15 78.4
L 3.35 83.1
Q 4.2 85.1 6.2 86.85 9.5 89.65 12.9 90.05
L 14.7 88.05 4.15 78.4 Z"/>

<path fill="#A1662D" stroke="none" d="
M 10.15 73.45
L 9.4 73.45 18.8 82.75 14.8 79.9 18.55 85.3 16.6 87.5 4.15 78.4 14.7 88.05 12.9 90.05
Q 14.2 90.15 15.45 90
L 20.85 85.35 20.45 82.85 10.15 73.45 Z"/>

<path fill="#EAAD50" stroke="none" d="
M 9.4 73.45
L 8.65 73.45 4.15 78.4 16.6 87.5 18.55 85.3 14.8 79.9 18.8 82.75 9.4 73.45 Z"/>

<path fill="#F8FADC" stroke="none" d="
M 8.65 73.45
L 7.25 73.45 2.85 77.7
Q 2.25 80.6 3.35 83.1
L 4.15 78.4 8.65 73.45 Z"/>

<path fill="#F59F2B" stroke="none" d="
M 12.85 56.95
L 17.35 58.75 13 54.25 17.35 50.35 15.75 48.85 9.25 55.9 19.05 64.75 21.85 65.1 12.85 56.95 Z"/>

<path fill="#FED764" stroke="none" d="
M 18.65 51.65
L 17.35 50.35 13 54.25 17.35 58.75 12.85 56.95 21.85 65.1 19.05 64.75 21.65 67.1 41.5 80.9 45.55 76.45 37.65 69.4 41.65 76.25 32.8 70.8 18.65 57.75 18.65 51.65 Z"/>

<path fill="#73A1DD" stroke="none" d="
M 31.25 63.55
L 35.2 67.3 75.9 31.5
Q 79.7 28.05 82.3 23.95
L 39.4 60.95 31.25 63.55 Z"/>

<path fill="#CB6D1B" stroke="none" d="
M 21.65 67.1
L 29.25 73.9 39.4 83.1 41.5 80.9 21.65 67.1 Z"/>

<path fill="#5C494F" stroke="none" d="
M 22.45 70.9
Q 23.6 72.2 24.45 73.3 25.45 74.65 25.45 75.2 25.45 76.5 23.25 77.85 21.15 79.2 21.05 78.65 21.05 78.6 21.05 78.55 19.8 78.55 19.15 78.2 18.5 77.85 17.25 76.6 16.9 76.3 16.15 75.85 15.1 75.15 14.9 75 12.45 72.85 11.55 72.05
L 10.15 73.45 20.45 82.85 29.25 73.9 21.65 67.1 19.05 64.75 17.05 66.7
Q 17.75 67.3 18.8 68.05 22.05 70.5 22.45 70.9 Z"/>

<path fill="#717495" stroke="none" d="
M 24.45 73.3
Q 23.6 72.2 22.45 70.9 22.05 70.5 18.8 68.05 17.75 67.3 17.05 66.7
L 11.55 72.05
Q 12.45 72.85 14.9 75 15.1 75.15 16.15 75.85 16.9 76.3 17.25 76.6 18.5 77.85 19.15 78.2 19.8 78.55 21.05 78.55 21.05 78.6 21.05 78.65 21.15 79.2 23.25 77.85 25.45 76.5 25.45 75.2 25.45 74.65 24.45 73.3
M 13.75 73.55
Q 13.2 73.55 13.2 72.75 13.2 71.75 14.65 70.55 15.15 70.1 15.75 69.75 16.1 69.75 16.65 69.75 17.4 69.9 17.4 70.4 17.4 70.85 16.15 72.1 14.7 73.55 13.75 73.55 Z"/>

<path fill="#CDD6EC" stroke="none" d="
M 13.2 72.75
Q 13.2 73.55 13.75 73.55 14.7 73.55 16.15 72.1 17.4 70.85 17.4 70.4 17.4 69.9 16.65 69.75 16.1 69.75 15.75 69.75 15.15 70.1 14.65 70.55 13.2 71.75 13.2 72.75 Z"/>

<path fill="#F19D24" stroke="none" d="
M 27.3 59.75
L 25.05 57.6 18.65 51.65 18.65 57.75 32.8 70.8 41.65 76.25 37.65 69.4 35.2 67.3 31.25 63.55 27.3 59.75 Z"/>

<path fill="#CBE2F8" stroke="none" d="
M 25.05 57.6
L 27.3 59.75 36.35 51.2 48.8 33.95 25.05 57.6 Z"/>

<path fill="#ADCFF7" stroke="none" d="
M 82.3 23.95
Q 88.05 14.95 87.75 2.6
L 36.35 51.2 27.3 59.75 31.25 63.55 39.4 60.95 82.3 23.95 Z"/>
</g>

<path id="Layer1_0_1_STROKES" stroke="#801700" stroke-width="2" stroke-linejoin="round" stroke-linecap="round" fill="none" d="
M 87.75 2.6
Q 88.05 14.95 82.3 23.95 79.7 28.05 75.9 31.5
L 35.2 67.3 37.65 69.4 45.55 76.45
M 15.45 90
Q 14.2 90.15 12.9 90.05 9.5 89.65 6.2 86.85 4.2 85.1 3.35 83.1 2.25 80.6 2.85 77.7
L 7.25 73.45 8.65 73.45
M 10.15 73.45
L 11.55 72.05 17.05 66.7 19.05 64.75 9.25 55.9 15.75 48.85 17.35 50.35 18.65 51.65 25.05 57.6 62 15.05
Q 74.95 3.9 87.75 2.6
M 31.25 63.55
L 27.3 59.75 25.05 57.6
M 29.25 73.9
L 39.4 83.1 41.5 80.9
M 31.25 63.55
L 35.2 67.3
M 15.45 90
L 20.85 85.35 20.45 82.85 29.25 73.9
M 41.5 80.9
L 45.55 76.45"/>
</defs>

<g transform="matrix( 1, 0, 0, 1, 0,0) ">
<use xlink:href="#Layer1_0_FILL"/>

<use xlink:href="#Layer1_0_1_STROKES"/>
</g>
</svg>
