
<svg xmlns="http://www.w3.org/2000/svg" version="1.1" xmlns:xlink="http://www.w3.org/1999/xlink" preserveAspectRatio="none" x="0px" y="0px" width="344px" height="136px" viewBox="0 0 344 136">
<defs>
<g id="_____________________2_Layer2_0_FILL">
<path fill="#000000" fill-opacity="0.2980392156862745" stroke="none" d="
M 365.6 29.05
Q 365.55 27.85 365.35 26.8 362.95 6.3 341.4 6.3
L 50.65 6.3
Q 44.65 6.3 40.1 7.95 27.4 12.45 26.5 29.7 26.45 30.75 26.4 31.85
L 26.4 111.05
Q 26.45 113.65 26.75 116.05 26.9 117.15 27.05 118.25 27.4 120.15 27.95 122 28.3 123.05 28.75 124 29.8 126.6 31.35 128.65 34.6 133 40.1 135 44.65 136.5 50.65 136.5
L 341.4 136.5
Q 361.25 136.5 364.9 119 365.05 117.95 365.25 116.95 365.65 114.2 365.7 111.15
L 365.7 31.65
Q 365.7 30.3 365.6 29.05 Z"/>
</g>

<g id="_______2_0_Layer0_0_FILL">
<path fill="#017128" stroke="none" d="
M 332.9 88.5
Q 332.7 89.4 332.55 90.35 328.95 106.25 309.45 106.25
L 23.85 106.25
Q 17.95 106.25 13.5 104.85 8.1 103.05 4.9 99.1 3.35 97.25 2.35 94.9 1.9 94 1.55 93.05 1 91.4 0.65 89.65 0.5 88.65 0.35 87.65 0.05 85.5 0 83.1
L 0 95.1
Q 0.05 97.5 0.35 99.65 0.5 100.65 0.65 101.65 1 103.4 1.55 105.05 1.9 106 2.35 106.9 3.35 109.25 4.9 111.1 8.1 115.05 13.5 116.85 17.95 118.25 23.85 118.25
L 309.45 118.25
Q 328.95 118.25 332.55 102.35 332.7 101.4 332.9 100.5 333.25 98 333.3 95.2
L 333.3 83.2
Q 333.25 86 332.9 88.5 Z"/>

<path fill="#46D010" stroke="none" d="
M 333.3 29.4
Q 333.275 28.5125 333.2 27.65 333.15 26.6 333 25.65 330.6 7 309.45 7
L 23.85 7
Q 17.95 7 13.5 8.5 1 12.6 0.1 28.25 0.05 29.2 0 30.2
L 0 83.1
Q 0.05 85.5 0.35 87.65 0.5 88.65 0.65 89.65 1 91.4 1.55 93.05 1.9 94 2.35 94.9 3.35 97.25 4.9 99.1 8.1 103.05 13.5 104.85 17.95 106.25 23.85 106.25
L 309.45 106.25
Q 328.95 106.25 332.55 90.35 332.7 89.4 332.9 88.5 333.25 86 333.3 83.2
L 333.3 29.4 Z"/>

<path fill="#C6FF82" stroke="none" d="
M 333.3 29.4
L 333.3 23.05
Q 333.3 21.8 333.2 20.65 333.15 19.6 333 18.65 330.6 0 309.45 0
L 23.85 0
Q 17.95 0 13.5 1.5 1 5.6 0.1 21.25 0.05 22.2 0 23.2
L 0 30.2
Q 0.05 29.2 0.1 28.25 1 12.6 13.5 8.5 17.95 7 23.85 7
L 309.45 7
Q 330.6 7 333 25.65 333.15 26.6 333.2 27.65 333.275 28.5125 333.3 29.4 Z"/>
</g>
</defs>

<g transform="matrix( 1, 0, 0, 1, -24.05,-3.4) ">
<g transform="matrix( 1, 0, 0, 1, 0,0) ">
<use xlink:href="#_____________________2_Layer2_0_FILL"/>
</g>

<g transform="matrix( 1, 0, 0, 1, 29.35,9.2) ">
<g transform="matrix( 1, 0, 0, 1, 0,0) ">
<use xlink:href="#_______2_0_Layer0_0_FILL"/>
</g>
</g>
</g>
</svg>
