
<svg xmlns="http://www.w3.org/2000/svg" version="1.1" xmlns:xlink="http://www.w3.org/1999/xlink" preserveAspectRatio="none" x="0px" y="0px" width="526px" height="540px" viewBox="0 0 526 540">
<defs>
<g id="Layer0_0_FILL">
<path fill="#A97222" stroke="none" d="
M 21.55 26.05
Q 14.25 29.55 7.55 34.35 4.8 41.9 4.8 50.55
L 4.8 489.5
Q 4.8 509.4 19.4 523.45 34 537.5 54.7 537.5
L 471.35 537.5
Q 492.05 537.5 506.65 523.45 515.6 514.85 519.1 504 493.55 521.95 468.05 520.45
L 79 520.45
Q 25.3 516.05 17.75 471.25
L 17.75 73.8 21.55 26.05 Z"/>

<path fill="#E5AD50" stroke="none" d="
M 508.95 165.25
L 508.2 64.25
Q 499.45 18.35 468.05 16.6
L 60.45 16.6
Q 39.25 17.55 21.55 26.05
L 17.75 73.8 17.75 471.25
Q 25.3 516.05 79 520.45
L 468.05 520.45
Q 493.55 521.95 519.1 504
L 515.7 476.8 509.4 364.5 508.95 165.25
M 449.25 36.75
Q 468.3 36.75 481.75 49.95 495.2 63.15 495.2 81.9
L 495.2 458.25
Q 495.2 476.95 481.75 490.2 468.3 503.4 449.25 503.4
L 76.9 503.4
Q 57.8 503.4 44.4 490.2 30.95 476.95 30.95 458.25
L 30.95 81.9
Q 30.95 63.15 44.4 49.95 57.8 36.75 76.9 36.75
L 449.25 36.75 Z"/>

<path fill="#582F11" stroke="none" d="
M 481.75 49.95
Q 468.3 36.75 449.25 36.75
L 76.9 36.75
Q 57.8 36.75 44.4 49.95 30.95 63.15 30.95 81.9
L 30.95 458.25
Q 30.95 476.95 44.4 490.2 57.8 503.4 76.9 503.4
L 449.25 503.4
Q 468.3 503.4 481.75 490.2 495.2 476.95 495.2 458.25
L 495.2 81.9
Q 495.2 63.15 481.75 49.95
M 437.8 56.1
L 437.8 55.75 438.2 55.75
Q 456.45 55.75 469.3 68.55 482.2 81.3 482.2 99.5
L 482.2 444.55
Q 482.2 462.65 469.3 475.45 456.45 488.25 438.2 488.25
L 88 488.25
Q 69.75 488.25 56.9 475.45 44.05 462.65 44.05 444.55
L 44.05 99.5
Q 44.05 81.3 56.9 68.55 67.65 57.85 82.15 56.1
L 437.8 56.1 Z"/>

<path fill="#85481A" stroke="none" d="
M 437.8 55.75
L 437.8 56.1 82.15 56.1
Q 67.65 57.85 56.9 68.55 44.05 81.3 44.05 99.5
L 44.05 444.55
Q 44.05 462.65 56.9 475.45 69.75 488.25 88 488.25
L 438.2 488.25
Q 456.45 488.25 469.3 475.45 482.2 462.65 482.2 444.55
L 482.2 99.5
Q 482.2 81.3 469.3 68.55 456.45 55.75 438.2 55.75
L 437.8 55.75 Z"/>

<path fill="#FFC059" stroke="none" d="
M 521.25 50.55
Q 521.25 30.65 506.65 16.6 492.05 2.55 471.35 2.55
L 54.7 2.55
Q 34 2.55 19.4 16.6 11.15 24.55 7.55 34.35 14.25 29.55 21.55 26.05 39.25 17.55 60.45 16.6
L 468.05 16.6
Q 499.45 18.35 508.2 64.25
L 508.95 165.25 509.4 364.5 515.7 476.8 519.1 504
Q 521.25 497.2 521.25 489.5
L 521.25 50.55 Z"/>
</g>
</defs>

<g transform="matrix( 1, 0, 0, 1, 0,0) ">
<use xlink:href="#Layer0_0_FILL"/>
</g>
</svg>
