
<svg xmlns="http://www.w3.org/2000/svg" version="1.1" xmlns:xlink="http://www.w3.org/1999/xlink" preserveAspectRatio="none" x="0px" y="0px" width="290px" height="270px" viewBox="0 0 290 270">
<defs>
<g id="______0_Layer2_0_FILL">
<path fill="#0C314E" stroke="none" d="
M 22.4 0
L 0 27.6 48.55 82.8 94.4 27.3 73.55 0 22.4 0 Z"/>
</g>

<g id="______0_Layer1_0_FILL">
<path fill="#7BF8E8" stroke="none" d="
M 38.4 2.25
L 27.15 26.35 68.6 26.35 38.4 2.25 Z"/>

<path fill="#1F4C66" stroke="none" d="
M 25 30.65
L 24.1 28.7 9.5 28.85 46.85 79 25 30.65 Z"/>

<path fill="#0C314E" stroke="none" d="
M 9.5 28.85
L 1.15 28.95 48.55 82.8 46.85 79 9.5 28.85 Z"/>

<path fill="#0988B3" stroke="none" d="
M 38.4 2.25
L 28.6 1.9 2.05 25.1 4.35 26.1 19.3 26.1 25.4 24.45 27.15 26.35 38.4 2.25 Z"/>

<path fill="#184870" stroke="none" d="
M 28.6 1.9
L 21.1 1.65 2.05 25.1 28.6 1.9 Z"/>

<path fill="#01DCDE" stroke="none" d="
M 68.6 26.35
L 57.95 2.9 38.4 2.25 68.6 26.35 Z"/>

<path fill="#03A5BF" stroke="none" d="
M 75.75 28.65
L 71 30.3 51.25 76.55 88.35 28.5 75.75 28.65 Z"/>

<path fill="#00D3D7" stroke="none" d="
M 71 30.3
L 68.8 28.4 27.15 28.4 25 30.65 46.85 79 48.55 82.8 51.25 76.55 71 30.3 Z"/>

<path fill="#79FAF0" stroke="none" d="
M 70.55 25.05
L 75.75 26.5 82 26.25 71.25 3.35 60.5 3 70.55 25.05 Z"/>

<path fill="#026F85" stroke="none" d="
M 93.5 28.45
L 88.35 28.5 51.25 76.55 48.55 82.8 93.5 28.45 Z"/>

<path fill="#FBFAEE" stroke="none" d="
M 93.3 25.85
L 82 26.25 75.75 26.5 70.55 25.05 60.5 3 71.25 3.35 86.2 16.55 73.55 0 22.4 0 21.1 1.65 28.6 1.9 38.4 2.25 57.95 2.9 68.6 26.35 27.15 26.35 25.4 24.45 19.3 26.1 4.35 26.1 2.05 25.1 0 27.6 1.15 28.95 9.5 28.85 24.1 28.7 25 30.65 27.15 28.4 68.8 28.4 71 30.3 75.75 28.65 88.35 28.5 93.5 28.45 94.4 27.3 93.3 25.85 Z"/>

<path fill="#06D0D4" stroke="none" d="
M 82 26.25
L 93.3 25.85 86.2 16.55 71.25 3.35 82 26.25 Z"/>
</g>

<g id="______0_Layer0_0_FILL">
<path fill="#FFFFFF" stroke="none" d="
M 23.1 -2.1
L 17 -7.35 17 0.65 9.4 5.25 19.8 5.25 25 12.65 27.1 2.05 32.6 -3.6 23.1 -2.1 Z"/>
</g>

<g id="______0_Layer0_1_FILL">
<path fill="#FFFFFF" stroke="none" d="
M 42.7 10.4
L 48.2 4.75 38.7 6.25 32.6 1 32.6 9 25 13.6 35.4 13.6 40.6 21 42.7 10.4 Z"/>
</g>

<path id="______0_Layer2_0_1_STROKES" stroke="#0C314E" stroke-width="6" stroke-linejoin="round" stroke-linecap="round" fill="none" d="
M 94.4 27.3
L 73.55 0 22.4 0 0 27.6 48.55 82.8 94.4 27.3 Z"/>
</defs>

<g transform="matrix( 2.847900390625, 0, 0, 2.847900390625, 11,23.95) ">
<g transform="matrix( 1, 0, 0, 1, 0,0) ">
<use xlink:href="#______0_Layer2_0_FILL"/>

<use xlink:href="#______0_Layer2_0_1_STROKES"/>
</g>

<g transform="matrix( 1, 0, 0, 1, 0,0) ">
<use xlink:href="#______0_Layer1_0_FILL"/>
</g>

<g transform="matrix( 1, 0, 0, 1, 0,0) ">
<use xlink:href="#______0_Layer0_0_FILL"/>
</g>

<g transform="matrix( 0.54998779296875, 0, 0, 0.54998779296875, 14.5,1.1) ">
<use xlink:href="#______0_Layer0_1_FILL"/>
</g>
</g>
</svg>
