
<svg xmlns="http://www.w3.org/2000/svg" version="1.1" xmlns:xlink="http://www.w3.org/1999/xlink" preserveAspectRatio="none" x="0px" y="0px" width="86px" height="86px" viewBox="0 0 86 86">
<defs>
<g id="Layer0_0_FILL">
<path fill="#FFC059" stroke="none" d="
M 4.5 6.1
Q 0.35 10.95 0.35 19.95
L 0.35 66.05
Q 0.35 85.7 19.95 85.7
L 66.1 85.7
Q 75.95 85.7 80.9 80.75
L 72.75 74.75
Q 68.8 77.8 61.8 77.8
L 24.2 77.8
Q 8.2 77.8 8.2 61.8
L 8.2 24.2
Q 8.2 15.75 12.65 11.8
L 4.5 6.1 Z"/>

<path fill="#321919" stroke="none" d="
M 77.8 24.2
Q 77.8 8.2 61.8 8.2
L 24.2 8.2
Q 16.65 8.2 12.65 11.8 8.2 15.75 8.2 24.2
L 8.2 61.8
Q 8.2 77.8 24.2 77.8
L 61.8 77.8
Q 68.8 77.8 72.75 74.75 77.8 70.8 77.8 61.8
L 77.8 24.2 Z"/>

<path fill="#A97222" stroke="none" d="
M 85.7 66.05
L 85.7 19.95
Q 85.7 0.3 66.1 0.3
L 19.95 0.3
Q 9.35 0.3 4.5 6.1
L 12.65 11.8
Q 16.65 8.2 24.2 8.2
L 61.8 8.2
Q 77.8 8.2 77.8 24.2
L 77.8 61.8
Q 77.8 70.8 72.75 74.75
L 80.9 80.75
Q 85.7 75.8 85.7 66.05 Z"/>
</g>
</defs>

<g transform="matrix( 1, 0, 0, 1, 0,0) ">
<use xlink:href="#Layer0_0_FILL"/>
</g>
</svg>
