
<svg xmlns="http://www.w3.org/2000/svg" version="1.1" xmlns:xlink="http://www.w3.org/1999/xlink" preserveAspectRatio="none" x="0px" y="0px" width="86px" height="86px" viewBox="0 0 86 86">
<defs>
<g id="Layer0_0_FILL">
<path fill="#FFC059" stroke="none" d="
M 8.2 24.2
Q 8.2 15.75 12.65 11.8
L 4.5 6.1
Q 0.35 10.95 0.35 19.95
L 0.35 66.05
Q 0.35 85.7 19.95 85.7
L 66.1 85.7
Q 75.95 85.7 80.9 80.75
L 72.75 74.75
Q 68.8 77.8 61.8 77.8
L 24.2 77.8
Q 8.2 77.8 8.2 61.8
L 8.2 24.2 Z"/>

<path fill="#321919" stroke="none" d="
M 77.8 24.2
Q 77.8 8.2 61.8 8.2
L 24.2 8.2
Q 16.65 8.2 12.65 11.8 8.2 15.75 8.2 24.2
L 8.2 61.8
Q 8.2 77.8 24.2 77.8
L 61.8 77.8
Q 68.8 77.8 72.75 74.75 77.8 70.8 77.8 61.8
L 77.8 24.2
M 47.3 20.45
Q 47.75 19.25 48.45 18.75 49.1 18.25 50.2 18.25
L 59.05 18.25
Q 60.7 18.3 60.8 19.05 60.9 19.8 60.55 20.45
L 50.65 40.6
Q 50.45 40.95 50.3 41.35 50.1 41.7 50.1 42.05 50.1 42.3 50.3 42.55 50.45 42.8 50.65 43.3
L 61 65.1
Q 61.1 65.4 61.25 65.7 61.35 66 61.35 66.45 61.35 67.1 60.7 67.3 60.1 67.45 59.15 67.45
L 51.2 67.45
Q 50.8 67.5 49.95 67.3 49.05 67.1 48.6 66.2
L 43.6 55.2
Q 43.5 55.15 43.35 54.85 43.2 54.65 42.95 54.6 42.75 54.65 42.65 54.85 42.5 55.15 42.4 55.2
L 37.8 64.95
Q 37.1 66.5 36.25 67 35.4 67.5 34.35 67.45
L 25.85 67.45
Q 24.75 67.4 24.4 66.7 24.1 66 24.5 64.95
L 35.4 42.75
Q 35.5 42.6 35.6 42.25 35.75 41.9 35.75 41.7 35.8 41.55 35.65 41.25 35.6 41 35.25 40.25
L 25.85 20.45
Q 25.4 19.35 25.8 18.9 26.15 18.4 26.75 18.3 27.4 18.25 27.65 18.25
L 36.05 18.25
Q 37.15 18.25 37.85 18.8 38.6 19.3 39.1 20.45
L 42.35 27.5
Q 42.5 27.95 42.7 28.2 42.9 28.45 43.25 28.5 43.5 28.45 43.75 28.1 43.95 27.8 44.1 27.45
L 47.3 20.45 Z"/>

<path fill="#FFFFFF" stroke="none" d="
M 48.45 18.75
Q 47.75 19.25 47.3 20.45
L 44.1 27.45
Q 43.95 27.8 43.75 28.1 43.5 28.45 43.25 28.5 42.9 28.45 42.7 28.2 42.5 27.95 42.35 27.5
L 39.1 20.45
Q 38.6 19.3 37.85 18.8 37.15 18.25 36.05 18.25
L 27.65 18.25
Q 27.4 18.25 26.75 18.3 26.15 18.4 25.8 18.9 25.4 19.35 25.85 20.45
L 35.25 40.25
Q 35.6 41 35.65 41.25 35.8 41.55 35.75 41.7 35.75 41.9 35.6 42.25 35.5 42.6 35.4 42.75
L 24.5 64.95
Q 24.1 66 24.4 66.7 24.75 67.4 25.85 67.45
L 34.35 67.45
Q 35.4 67.5 36.25 67 37.1 66.5 37.8 64.95
L 42.4 55.2
Q 42.5 55.15 42.65 54.85 42.75 54.65 42.95 54.6 43.2 54.65 43.35 54.85 43.5 55.15 43.6 55.2
L 48.6 66.2
Q 49.05 67.1 49.95 67.3 50.8 67.5 51.2 67.45
L 59.15 67.45
Q 60.1 67.45 60.7 67.3 61.35 67.1 61.35 66.45 61.35 66 61.25 65.7 61.1 65.4 61 65.1
L 50.65 43.3
Q 50.45 42.8 50.3 42.55 50.1 42.3 50.1 42.05 50.1 41.7 50.3 41.35 50.45 40.95 50.65 40.6
L 60.55 20.45
Q 60.9 19.8 60.8 19.05 60.7 18.3 59.05 18.25
L 50.2 18.25
Q 49.1 18.25 48.45 18.75 Z"/>

<path fill="#A97222" stroke="none" d="
M 85.7 66.05
L 85.7 19.95
Q 85.7 0.3 66.1 0.3
L 19.95 0.3
Q 9.35 0.3 4.5 6.1
L 12.65 11.8
Q 16.65 8.2 24.2 8.2
L 61.8 8.2
Q 77.8 8.2 77.8 24.2
L 77.8 61.8
Q 77.8 70.8 72.75 74.75
L 80.9 80.75
Q 85.7 75.8 85.7 66.05 Z"/>
</g>
</defs>

<g transform="matrix( 1, 0, 0, 1, 0,0) ">
<use xlink:href="#Layer0_0_FILL"/>
</g>
</svg>
