
<svg xmlns="http://www.w3.org/2000/svg" version="1.1" xmlns:xlink="http://www.w3.org/1999/xlink" preserveAspectRatio="none" x="0px" y="0px" width="454px" height="450px" viewBox="0 0 454 450">
<defs>
<g id="___________________________________1_0_Layer0_0_FILL">
<path fill="#F7A448" stroke="none" d="
M 135.6 119
L 135.45 119 131.35 117
Q 131.066796875 121.3958984375 129.25 124.4 125.6783203125 130.2896484375 116.15 130.75
L 117.9 135.6 122.05 135.6
Q 125.08125 135.6 127.4 134.9 132.461328125 133.4802734375 134.4 128.95 135.6 126.1234375 135.6 122.1
L 135.6 119
M 4.55 116.85
L 4.5 116.9 0 119 0 122.1
Q 0 135.6 13.5 135.6
L 17.75 135.6 19.5 130.7
Q 5.8349609375 129.4771484375 4.55 116.85
M 19.1 0
L 13.5 0
Q 11.991796875 0 10.65 0.15 10.499609375 0.1796875 10.35 0.2 4.334765625 1.0650390625 1.8 5.4 0 8.5521484375 0 13.5
L 0 16.6 4.35 18.7
Q 5.3091796875 6.1583984375 20.1 5
L 19.1 0 Z"/>

<path fill="#FFF6CB" stroke="none" d="
M 131.3 117
L 126.15 114.55 126.15 114.65
Q 126.15 126.25 114.55 126.25
L 116.15 130.75
Q 125.6783203125 130.2896484375 129.25 124.4 131.066796875 121.3958984375 131.35 117
L 131.3 117
M 9.3 114.65
L 9.3 114.6 4.55 116.85
Q 5.8349609375 129.4771484375 19.5 130.7
L 21.05 126.3 21.05 126.25 20.95 126.25
Q 9.3 126.25 9.3 114.65
M 73.55 135.6
L 74.45 130.8 63.7 130.8 62.85 135.6 73.55 135.6
M 53.15 135.6
L 54 130.8 30.75 130.85 29.85 135.6 53.15 135.6
M 76.3 4.9
L 54.4 4.9 53.55 9.45 75.5 9.45 76.3 4.9
M 98 4.9
L 86.45 4.9 85.6 9.45 97.15 9.45 98 4.9
M 126.15 21.05
L 131.25 18.65
Q 129.750390625 6.03046875 115.35 5.05
L 114.45 9.4 114.5 9.45 114.55 9.45
Q 126.15 9.45 126.15 21.05 Z"/>

<path fill="#C5BAB7" stroke="none" d="
M 21.05 126.25
L 21.05 126.3 21.1 126.25 21.05 126.25 Z"/>

<path fill="#FFE66F" stroke="none" d="
M 31.6 126.25
L 21.1 126.25 21.05 126.3 19.5 130.7
Q 21.0931640625 130.8595703125 22.85 130.85
L 30.75 130.85 31.6 126.25
M 75.3 126.25
L 74.45 130.8 112.8 130.8 112.8 130.75
Q 114.5783203125 130.8490234375 116.15 130.75
L 114.55 126.25 75.3 126.25
M 54.8 126.25
L 54 130.8 63.7 130.8 64.55 126.25 54.8 126.25
M 9.3 21.05
L 4.4 18.7 4.5 116.9 4.55 116.85 9.3 114.6 9.3 21.05
M 54.4 4.9
L 55.35 0 19.1 0 20.1 5
Q 21.354296875 4.938671875 22.7 4.9
L 54.4 4.9
M 86.45 4.9
L 87.35 0 77.2 0 76.3 4.9 86.45 4.9
M 115.35 5.05
L 116.4 0 98.9 0 98 4.9 112.75 4.95 112.75 4.95
Q 114.1154296875 4.9705078125 115.35 5.05
M 135.45 16.65
L 131.3 18.6 131.3 117 131.35 117 135.45 119 135.6 119 135.6 16.6 135.45 16.65 Z"/>

<path fill="#FEB62A" stroke="none" d="
M 19.5 130.7
L 17.75 135.6 29.85 135.6 30.75 130.85 22.85 130.85
Q 21.0931640625 130.8595703125 19.5 130.7
M 74.45 130.8
L 73.55 135.6 117.9 135.6 116.15 130.75
Q 114.5783203125 130.8490234375 112.8 130.75
L 112.8 130.8 74.45 130.8
M 54 130.8
L 53.15 135.6 62.85 135.6 63.7 130.8 54 130.8
M 4.35 18.7
L 0 16.6 0 119 4.5 116.9 4.4 18.7 4.35 18.7
M 53.55 9.45
L 54.4 4.9 22.7 4.9
Q 21.354296875 4.938671875 20.1 5
L 20.95 9.35 21 9.45 53.55 9.45
M 85.6 9.45
L 86.45 4.9 76.3 4.9 75.5 9.45 85.6 9.45
M 112.75 4.95
L 112.75 4.95 98 4.9 97.15 9.45 114.5 9.45 114.45 9.4 115.35 5.05
Q 114.1154296875 4.9705078125 112.75 4.95
M 131.25 18.65
L 126.15 21.05 126.15 114.55 131.3 117 131.3 18.6 131.25 18.65 Z"/>

<path fill="#FFFFFF" stroke="none" d="
M 74.45 130.8
L 75.3 126.25 64.55 126.25 63.7 130.8 74.45 130.8
M 54 130.8
L 54.8 126.25 31.6 126.25 30.75 130.85 54 130.8
M 54.4 4.9
L 76.3 4.9 77.2 0 55.35 0 54.4 4.9
M 86.45 4.9
L 98 4.9 98.9 0 87.35 0 86.45 4.9
M 135.6 16.6
L 135.6 13.5
Q 135.6 0 122.05 0
L 116.4 0 115.35 5.05
Q 129.750390625 6.03046875 131.25 18.65
L 131.3 18.6 135.45 16.65 135.6 16.6 Z"/>

<path fill="#000000" fill-opacity="0.2" stroke="none" d="
M 10.35 0.2
Q 10.499609375 0.1796875 10.65 0.15
L 4.5 0.6
Q -5.2779296875 2.655859375 -6.15 15 -6.35 16.521484375 -6.35 18.25
L -6.35 126.85
Q -6.35 140.35 7.15 140.35
L 115.7 140.35
Q 117.377734375 140.35 118.85 140.15 132.9990234375 138.9015625 134.4 128.95 132.461328125 133.4802734375 127.4 134.9 125.08125 135.6 122.05 135.6
L 117.9 135.6 73.55 135.6 62.85 135.6 53.15 135.6 29.85 135.6 17.75 135.6 13.5 135.6
Q 0 135.6 0 122.1
L 0 119 0 16.6 0 13.5
Q 0 8.5521484375 1.8 5.4 4.334765625 1.0650390625 10.35 0.2 Z"/>

<path fill="#F78200" stroke="none" d="
M 20.95 9.45
L 20.95 9.35 20.1 5
Q 5.3091796875 6.1583984375 4.35 18.7
L 4.4 18.7 9.3 21.05
Q 9.3 9.45 20.95 9.45 Z"/>

<path fill="#605156" stroke="none" d="
M 21 9.45
L 20.95 9.35 20.95 9.45 21 9.45 Z"/>

<path fill="#321919" stroke="none" d="
M 114.55 9.45
L 114.5 9.45 97.15 9.45 85.6 9.45 75.5 9.45 53.55 9.45 21 9.45 20.95 9.45
Q 9.3 9.45 9.3 21.05
L 9.3 114.6 9.3 114.65
Q 9.3 126.25 20.95 126.25
L 21.05 126.25 21.1 126.25 31.6 126.25 54.8 126.25 64.55 126.25 75.3 126.25 114.55 126.25
Q 126.15 126.25 126.15 114.65
L 126.15 114.55 126.15 21.05
Q 126.15 9.45 114.55 9.45
M 122.85 25.2
L 122.85 50.45 122.85 113.45
Q 122.85 124.45 111.9 124.45
L 23.6 124.45
Q 12.65 124.45 12.65 113.5
L 12.65 87.4 12.65 25.2
Q 12.65 14.25 23.6 14.25
L 111.9 14.25
Q 122.85 14.25 122.85 25.2 Z"/>

<path fill="#D1C5C2" stroke="none" d="
M 122.85 50.45
Q 105.7505859375 49.26328125 89.2 51.95 83.3302734375 52.906640625 77.5 54.35 72.2509765625 55.65703125 67 57.35 54.6615234375 61.4248046875 42.6 67.75 41.499609375 68.341015625 40.35 68.95 26.2837890625 76.6193359375 12.65 87.4
L 12.65 113.5
Q 12.65 124.45 23.6 124.45
L 111.9 124.45
Q 122.85 124.45 122.85 113.45
L 122.85 50.45 Z"/>

<path fill="#E3D6D3" stroke="none" d="
M 122.85 50.45
L 122.85 25.2
Q 122.85 14.25 111.9 14.25
L 23.6 14.25
Q 12.65 14.25 12.65 25.2
L 12.65 87.4
Q 26.2837890625 76.6193359375 40.35 68.95 41.499609375 68.341015625 42.6 67.75 54.6615234375 61.4248046875 67 57.35 72.2509765625 55.65703125 77.5 54.35 83.3302734375 52.906640625 89.2 51.95 105.7505859375 49.26328125 122.85 50.45 Z"/>
</g>
</defs>

<g transform="matrix( 3.190673828125, 0, 0, 3.190673828125, 20.8,1.1) ">
<g transform="matrix( 1, 0, 0, 1, 0,0) ">
<use xlink:href="#___________________________________1_0_Layer0_0_FILL"/>
</g>
</g>
</svg>
