
<svg xmlns="http://www.w3.org/2000/svg" version="1.1" xmlns:xlink="http://www.w3.org/1999/xlink" preserveAspectRatio="none" x="0px" y="0px" width="970px" height="1280px" viewBox="0 0 970 1280">
<defs>
<g id="Layer0_0_FILL">
<path fill="#A97222" stroke="none" d="
M 19.7 25.7
Q 12.55 29.15 6 33.85 3.3 41.25 3.3 49.75
L 3.3 1230.3
Q 3.3 1249.8 17.6 1263.55 31.9 1277.35 52.2 1277.35
L 917.85 1277.35
Q 938.15 1277.35 952.45 1263.55 961.2 1255.15 964.65 1244.5 939.6 1262.1 914.6 1260.65
L 76 1260.65
Q 23.35 1256.3 16 1212.4
L 16 72.5 19.7 25.7
M 668.2 142.85
Q 668.15 143.15 668 143.45
L 668.2 143.45
Q 668.2 143.25 668.2 143.05
L 668.2 142.85
M 730.05 62.65
Q 730.05 59 729.1 55.65 727.1 49.15 721.4 44 712.8 36.35 700.55 36.35
L 683.2 36.35 668.2 36.35 265.65 36.35
Q 256.45 36.35 249.3 40.75
L 260.75 50.85
Q 267.7 46.9 276.85 46.9
L 585.9 46.95
Q 586.05 46.95 586.2 46.95 586.65 46.9 587.1 46.9
L 689.45 46.9
Q 700.55 46.9 708.4 52.75 710.3 54.15 711.75 55.65 716.25 60.45 716.25 66.65
L 716.25 123.6
Q 716.25 131.4 709.25 136.95
L 730.05 121.35 730.05 62.65
M 764.3 143.05
L 764.3 142.85
Q 762.2 148.95 757.25 153.85 748.45 162.6 736.05 162.6
L 231.3 162.6
Q 218.85 162.6 210.1 153.85 205.05 148.85 202.9 142.65
L 202.9 143.05
Q 202.9 155.4 211.65 164.15 220.35 172.85 232.7 172.85
L 734.5 172.85
Q 746.9 172.85 755.6 164.15 764.3 155.4 764.3 143.05 Z"/>

<path fill="#E5AD50" stroke="none" d="
M 953.95 63.15
Q 945.4 18.2 914.6 16.45
L 57.85 16.45
Q 37.05 17.4 19.7 25.7
L 16 72.5 16 1212.4
Q 23.35 1256.3 76 1260.65
L 914.6 1260.65
Q 939.6 1262.1 964.65 1244.5
L 961.3 1217.8 960.7 1124.9
Q 960.65 1124.75 960.7 1124.55
L 960.65 1123.6 960.7 1123.6 955.8 460.5 960.65 460.5 960.5 442.5 955.65 442.5 953.95 63.15
M 813.9 164.15
Q 822.6 172.85 834.95 172.85
L 941.2 172.85 941.2 1199.65
Q 941.2 1216.65 929.9 1229.1 929 1230.05 928.05 1230.95 915.25 1243.5 897.35 1243.9
L 73.95 1243.9
Q 55.25 1243.9 42.1 1230.95 28.95 1218 28.95 1199.65
L 28.95 80.45
Q 28.95 62.05 42.1 49.15 55.25 36.2 73.95 36.2
L 202.9 36.2 202.9 142.65
Q 205.05 148.85 210.1 153.85 218.85 162.6 231.3 162.6
L 736.05 162.6
Q 748.45 162.6 757.25 153.85 762.2 148.95 764.3 142.85
L 764.3 36.2 805.15 36.2 805.15 143.05
Q 805.15 155.4 813.9 164.15
M 729.1 55.65
Q 730.05 59 730.05 62.65
L 730.05 121.35 730.05 127.7
Q 730.05 138.55 721.4 146.2 712.8 153.95 700.55 153.95
L 265.65 153.95
Q 253.5 153.95 244.9 146.2 236.25 138.55 236.25 127.7
L 236.25 62.65
Q 236.25 51.75 244.9 44 247 42.2 249.3 40.75 256.45 36.35 265.65 36.35
L 668.2 36.35 668.2 36.2 683.2 36.2 683.2 36.35 700.55 36.35
Q 712.8 36.35 721.4 44 727.1 49.15 729.1 55.65 Z"/>

<path fill="#FFC059" stroke="none" d="
M 708.4 137.6
Q 700.55 143.45 689.45 143.45
L 683.4 143.45
Q 683.3 143.45 683.2 143.45
L 668.2 143.45 668 143.45 372.95 143.45
Q 372.3 143.45 371.6 143.45
L 276.85 143.45
Q 265.7 143.45 257.85 137.6 250 131.8 250 123.6
L 250 66.65
Q 250 58.5 257.85 52.75 259.3 51.7 260.75 50.85
L 249.3 40.75
Q 247 42.2 244.9 44 236.25 51.75 236.25 62.65
L 236.25 127.7
Q 236.25 138.55 244.9 146.2 253.5 153.95 265.65 153.95
L 700.55 153.95
Q 712.8 153.95 721.4 146.2 730.05 138.55 730.05 127.7
L 730.05 121.35 709.25 136.95
Q 709.1 136.95 709 137.15 708.75 137.3 708.4 137.6
M 966.75 49.75
Q 966.75 30.25 952.45 16.45 938.15 2.7 917.85 2.7
L 52.2 2.7
Q 31.9 2.7 17.6 16.45 9.5 24.25 6 33.85 12.55 29.15 19.7 25.7 37.05 17.4 57.85 16.45
L 914.6 16.45
Q 945.4 18.2 953.95 63.15
L 955.65 442.5 960.5 442.5 960.65 460.5 955.8 460.5 960.7 1123.6 960.65 1123.6 960.7 1124.55
Q 960.65 1124.75 960.7 1124.9
L 961.3 1217.8 964.65 1244.5
Q 964.75 1244.2 964.85 1243.9 966.75 1237.5 966.75 1230.3
L 966.75 49.75 Z"/>

<path fill="#3A2520" stroke="none" d="
M 711.75 55.65
Q 710.3 54.15 708.4 52.75 700.55 46.9 689.45 46.9
L 587.1 46.9
Q 586.65 46.9 586.2 46.95 586.05 46.95 585.9 46.95
L 276.85 46.9
Q 267.7 46.9 260.75 50.85 259.3 51.7 257.85 52.75 250 58.5 250 66.65
L 250 123.6
Q 250 131.8 257.85 137.6 265.7 143.45 276.85 143.45
L 371.6 143.45
Q 372.3 143.45 372.95 143.45
L 668 143.45
Q 668.15 143.15 668.2 142.85
L 668.2 143.05
Q 668.2 143.25 668.2 143.45
L 683.2 143.45
Q 683.3 143.45 683.4 143.45
L 689.45 143.45
Q 700.55 143.45 708.4 137.6 708.75 137.3 709 137.15 709.1 136.95 709.25 136.95 716.25 131.4 716.25 123.6
L 716.25 66.65
Q 716.25 60.45 711.75 55.65 Z"/>

<path fill="#582F11" stroke="none" d="
M 668.2 36.2
L 668.2 36.35 683.2 36.35 683.2 36.2 668.2 36.2
M 834.95 172.85
Q 822.6 172.85 813.9 164.15 805.15 155.4 805.15 143.05
L 805.15 36.2 764.3 36.2 764.3 142.85 764.3 143.05
Q 764.3 155.4 755.6 164.15 746.9 172.85 734.5 172.85
L 232.7 172.85
Q 220.35 172.85 211.65 164.15 202.9 155.4 202.9 143.05
L 202.9 142.65 202.9 36.2 73.95 36.2
Q 55.25 36.2 42.1 49.15 28.95 62.05 28.95 80.45
L 28.95 1199.65
Q 28.95 1218 42.1 1230.95 55.25 1243.9 73.95 1243.9
L 897.35 1243.9
Q 915.25 1243.5 928.05 1230.95 929 1230.05 929.9 1229.1 941.2 1216.65 941.2 1199.65
L 941.2 172.85 834.95 172.85
M 824.8 185.15
L 928.5 185.2 928.5 387.2 928.5 1186.25
Q 928.5 1203.95 915.85 1216.5 904.35 1227.95 888.5 1229
L 731.5 1229.1 731.5 1229
Q 730.55 1229.05 729.6 1229.1
L 245 1229.1
Q 240.45 1229.1 236.25 1228.3
L 76.05 1227.55 76.05 1228.3
Q 74.5 1227.95 72.95 1227.55 62.5 1224.65 54.35 1216.5 41.75 1203.95 41.75 1186.25
L 41.75 1070.8 41.75 744.8 41.75 97.7
Q 41.75 79.9 54.35 67.4 63.7 58 76.05 55.65
L 188.2 55.65
Q 188.6 55.6 189.1 55.5 190.15 55.3 191.2 55.2
L 191.2 153.8
Q 191.2 166.85 200.4 176 209.55 185.15 222.55 185.15
L 623.85 185.15 744.75 185.15
Q 757.7 185.15 766.9 176 775.75 167.15 776.05 154.65
L 776.05 55.65 790.4 55.65
Q 791.9 55.4 793.45 55.2
L 793.45 153.8
Q 793.45 166.85 802.65 176 811.8 185.15 824.8 185.15 Z"/>

<path fill="#93DEF7" stroke="none" d="
M 529.2 223.25
Q 573.55 203.25 623.85 185.15
L 222.55 185.15
Q 209.55 185.15 200.4 176 191.2 166.85 191.2 153.8
L 191.2 55.2
Q 190.15 55.3 189.1 55.5 188.6 55.6 188.2 55.65
L 76.05 55.65
Q 63.7 58 54.35 67.4 41.75 79.9 41.75 97.7
L 41.75 744.8
Q 45.35 746.3 48.95 747.85 68.45 756.4 94.05 770.9 108.9 779.35 139.45 797.35 198.4 831.35 246.2 846.85 315.5 869.35 398.9 869.35 455.65 869.35 487.4 859.35 517.45 849.9 531.05 829.55 542.7 812 545.55 780.1 546.7 767.4 546.9 748.15 546.9 747.8 546.9 711.35 546.9 641.7 511.3 592.4 506.5 585.8 501 579.45 489.5 566.1 474.75 553.65 457.75 539.25 432.9 523.35 404.4 505.85 391.05 497.55 367.55 483 354.55 472.3 337.25 458.1 328.7 443.55 318.9 426.9 318.9 407.35 318.9 364.85 373.65 316.85 428.65 268.6 529.2 223.25 Z"/>

<path fill="#0F84B3" stroke="none" d="
M 786.2 485.65
Q 738.55 530.7 722.3 582.15 720.15 588.95 718.4 596.2 714.1 614 712.2 634.65 710 658.8 710.65 693.75 710.9 705.85 713.1 762.35 714.9 809.35 714.9 843.35 714.9 913.4 696.7 962.75 678.05 1013.35 639.05 1045.55 599.7 1078 537.3 1093.75 530.25 1095.55 522.85 1097.1 517.4 1098.25 511.8 1099.3 457.85 1109.35 386.9 1109.35 324.15 1109.35 267.65 1105.05 238.6 1102.85 208.85 1099.3 200 1098.25 191.15 1097.1 166.6 1093.9 141.6 1089.85 95.55 1082.4 41.75 1070.8
L 41.75 1186.25
Q 41.75 1203.95 54.35 1216.5 62.5 1224.65 72.95 1227.55 74.5 1227.95 76.05 1228.3
L 76.05 1227.55 236.25 1228.3
Q 240.45 1229.1 245 1229.1
L 729.6 1229.1
Q 730.55 1229.05 731.5 1229
L 731.5 1229.1 888.5 1229
Q 904.35 1227.95 915.85 1216.5 928.5 1203.95 928.5 1186.25
L 928.5 387.2
Q 834.15 440.4 786.2 485.65 Z"/>

<path fill="#30B3E2" stroke="none" d="
M 928.5 185.2
L 824.8 185.15
Q 811.8 185.15 802.65 176 793.45 166.85 793.45 153.8
L 793.45 55.2
Q 791.9 55.4 790.4 55.65
L 776.05 55.65 776.05 154.65
Q 775.75 167.15 766.9 176 757.7 185.15 744.75 185.15
L 623.85 185.15
Q 573.55 203.25 529.2 223.25 428.65 268.6 373.65 316.85 318.9 364.85 318.9 407.35 318.9 426.9 328.7 443.55 337.25 458.1 354.55 472.3 367.55 483 391.05 497.55 404.4 505.85 432.9 523.35 457.75 539.25 474.75 553.65 489.5 566.1 501 579.45 506.5 585.8 511.3 592.4 546.9 641.7 546.9 711.35 546.9 747.8 546.9 748.15 546.7 767.4 545.55 780.1 542.7 812 531.05 829.55 517.45 849.9 487.4 859.35 455.65 869.35 398.9 869.35 315.5 869.35 246.2 846.85 198.4 831.35 139.45 797.35 108.9 779.35 94.05 770.9 68.45 756.4 48.95 747.85 45.35 746.3 41.75 744.8
L 41.75 1070.8
Q 95.55 1082.4 141.6 1089.85 166.6 1093.9 191.15 1097.1 200 1098.25 208.85 1099.3 238.6 1102.85 267.65 1105.05 324.15 1109.35 386.9 1109.35 457.85 1109.35 511.8 1099.3 517.4 1098.25 522.85 1097.1 530.25 1095.55 537.3 1093.75 599.7 1078 639.05 1045.55 678.05 1013.35 696.7 962.75 714.9 913.4 714.9 843.35 714.9 809.35 713.1 762.35 710.9 705.85 710.65 693.75 710 658.8 712.2 634.65 714.1 614 718.4 596.2 720.15 588.95 722.3 582.15 738.55 530.7 786.2 485.65 834.15 440.4 928.5 387.2
L 928.5 185.2 Z"/>
</g>
</defs>

<g transform="matrix( 1, 0, 0, 1, 0,0) ">
<use xlink:href="#Layer0_0_FILL"/>
</g>
</svg>
