
<svg xmlns="http://www.w3.org/2000/svg" version="1.1" xmlns:xlink="http://www.w3.org/1999/xlink" preserveAspectRatio="none" x="0px" y="0px" width="1320px" height="2868px" viewBox="0 0 1320 2868">
<defs>
<linearGradient id="Gradient_1" gradientUnits="userSpaceOnUse" x1="-126.3" y1="3873.2000000000003" x2="-126.3" y2="290.0999999999999" spreadMethod="pad">
<stop  offset="0%" stop-color="#FFFFFF"/>

<stop  offset="36.07843137254902%" stop-color="#FFFFFF"/>

<stop  offset="49.80392156862745%" stop-color="#C0E9FF"/>

<stop  offset="100%" stop-color="#57BEFF"/>
</linearGradient>

<radialGradient id="Gradient_2" gradientUnits="userSpaceOnUse" cx="0" cy="0" r="162.8" fx="0" fy="0" gradientTransform="matrix( 1, 0, 0, 1, 0,0) " spreadMethod="pad">
<stop  offset="0%" stop-color="#FBFE84"/>

<stop  offset="100%" stop-color="#FBFE84" stop-opacity="0"/>
</radialGradient>

<g id="Layer66_0_FILL">
<path fill="url(#Gradient_1)" stroke="none" d="
M 1320 1324.6
L 1320 0 0 0 0 1221.2
Q 4.2392578125 1218.6841796875 9.05 1215.75 22.45 1207.5 30.6 1204.8 31.5 1204.45 32.65 1204.25 42.75 1201.2 56.9 1201.2 59.55 1201.2 83.35 1218.75 118.85 1244.85 139.5 1258.7 198.4 1298.45 244.9 1316.65 268.8 1326.05 289.35 1329.85 302.75 1332.3 323.8 1334.45 336.05 1335.85 363.35 1338.55 417.75 1344.35 463.2 1355.05 477.45 1358.25 498.4 1367.65 499.4 1368.2 519.1 1377.6 526.3 1381.05 536.15 1385.65 551.3 1392.85 562.85 1397.45 589.65 1391.4 647.75 1377.9 760.05 1352.15 796.8 1352.15 814.05 1352.15 833 1356.6 843.9 1359.15 866.5 1366.45 888.3 1373.35 900.8 1376.1 920.9 1380.55 939.8 1380.55 950.6 1380.55 974.15 1372.85 987.4 1368.45 1004.6 1361.75 1035.55 1349.55 1101.2 1320.25 1171.5 1288.85 1196.2 1278.8 1218.4 1269.7 1233.2 1265.05 1249.05 1259.9 1256.25 1259.9 1260.2 1259.9 1271.5 1272.1 1278.2 1279.55 1295 1299.1 1309.0958984375 1315.1548828125 1320 1324.6 Z"/>

<path fill="#CFEBFF" stroke="none" d="
M 1320 1613.2
L 1320 1609.8
Q 1318.5951171875 1609.5806640625 1317.2 1609.35 1318.8962890625 1611.3166015625 1320 1613.2
M 1.05 1699.15
Q 0.5279296875 1699.01484375 0 1698.85
L 0 1733.8
Q 3.497265625 1732.922265625 6.25 1732.05 26 1725.85 26 1715.05 26 1706.85 6.85 1700.9 3.95 1700 1.05 1699.15
M 946 2270.75
Q 946.8 2270.45 947.8 2270 947.3 2269.6 946.9 2269.2
L 936.55 2269.2
Q 926.25 2274.25 923.3 2278.95 920.95 2282.55 920.95 2290.9 920.95 2308.75 943.1 2318.3 960.3 2325.7 981.6 2325.7 983.9 2325.7 1003.8 2321.6 1020.35 2318.65 1022.4 2320.95
L 1022.4 2320.85
Q 1022.6453125 2320.6046875 1022.65 2321.55 1022.63828125 2321.18828125 1022.4 2320.95 1021.7 2321.5 1007.95 2321.6 1034.1 2321.95 1056.3 2325.7 1080.35 2329.8 1107.85 2329.8 1138.75 2329.8 1163.7 2322.4 1194.6181640625 2313.2765625 1197.05 2296.3 1197.25 2297.516796875 1197.25 2298.85 1197.25 2311.8 1167.55 2321.7 1154 2326.1 1102.25 2337.55 1056.85 2347.55 1036.9 2356.35 1007.2 2369.4 1007.2 2387.9 1007.2 2410.45 1026.6 2421.45 1040.25 2429.2 1069.35 2432.95 1077.1 2433.95 1092.2 2435.7 1104.85 2437.3 1112.1 2439.2 1131.55 2444.45 1131.55 2457.2 1131.55 2480.3 1058.1 2503.6 1055.7 2504.35 1053.35 2505.1 992.5 2523.8 896.5 2539.1 808 2553.15 734.9 2557.7 728.195703125 2558.1109375 709.8 2557.4 722.11796875 2556.6857421875 739.5 2554.55 769.85 2550.8 796.4 2544.7 868.55 2528.25 868.55 2505.65 868.55 2498.301953125 859.45 2492.55 859.87421875 2492.55 860.3 2492.55 865.4 2492.55 869.05 2490.8 872.55 2489.1 872.55 2486.65 872.55 2484.1 869.05 2482.35 865.4 2480.65 860.3 2480.65 855.2 2480.65 851.6 2482.35 848 2484.1 848 2486.65 848 2486.9052734375 848.05 2487.15 842.5349609375 2485.1462890625 835.55 2483.4 834.45 2483.15 833.4 2482.9
L 814.15 2478.9
Q 814.75 2479.15 815.3 2479.45 822.7 2483.45 824.05 2491.35 824.3 2493.05 824.3 2495 824.3 2518.5 808.7 2527.35 792.8 2536.35 750.4 2536.35 723.35 2536.95 712.7 2536.35 707.7 2536.2 693.4 2531.8 680.05 2527.35 679.9 2527.35 673.35 2527.35 663.9 2531.05 654.5 2534.75 640.5 2534.75 618.25 2534.75 602.85 2529.8 579.9 2522.45 579.9 2505.65 579.9 2504.95 579.9 2504.25 580.05 2496.25 582.05 2489.7 582.3 2488.95 582.55 2488.3
L 573.7 2491.15
Q 565.6 2494.35 564.25 2495.6 561.9 2497.8 561.9 2506.05 561.9 2535.7 612.65 2548.8 624.016796875 2551.73125 637.05 2553.7 559.35859375 2553.847265625 534.05 2553.75 490.3 2553.75 469.75 2552.55 449.9 2551.4 418.4 2547 370.35 2539.9 327.55 2534.15 296.6 2531.35 327.55 2521.75 344.6 2514.9 385 2509.2 397.05 2507.5 416.25 2505.1 434.6 2502.95 459.6 2500.05 498.55 2495.2 519.1 2490.25 521.7 2489.6 524.1 2488.95 551.6 2481.45 551.6 2470.6 551.6 2460.3 532.4 2453.9 526.75 2452.05 519.1 2450.4 504.15 2447.2 481.6 2444.9 456.2 2442.3 409.85 2440.15 355.6 2437.85 327.55 2436.35 223.6 2430.75 173.55 2417.8 103.5 2399.8 103.5 2362.3 103.5 2346.25 129.4 2332.6 147.7 2322.8 186.35 2311.55 196.7 2308.5 216.75 2302.95 233.7 2297.95 243.25 2294.6 269.25 2285.4 269.25 2276.95 269.25 2258.65 239.55 2253.5 221.05 2250.25 174.2 2251.2 125.95 2252.2 108.8 2249.65 79.2 2245.2 79.2 2228.3 79.2 2210.75 91.85 2202.4 102.4 2195.4 125.95 2192.75 131.4126953125 2192.2296875 164.7 2190.2 167.265234375 2186.53203125 171.5 2184.15 178.55 2180.2 198.95 2176.85
L 204.15 2176.85
Q 204.6607421875 2176.170703125 205.15 2175.55 195.1998046875 2172.80234375 187.55 2170.5 169.65 2165 158.8 2161.55 147.9 2158 127.35 2151.65 118.8 2149.15 68.85 2145.55 47.528125 2145.646875 0 2148.1
L 0 2868 1320 2868 1320 2180.35
Q 1312.751171875 2181.69296875 1304.55 2183.2 1281.85 2187.7 1257.75 2197.95 1235.55 2207.45 1216.3 2220.15 1197.7 2232.55 1186.65 2244.6 1175.3 2257.1 1175.3 2266 1175.3 2266.269140625 1175.3 2266.5 1169.9416015625 2264.7587890625 1162.25 2262.8 1165.2 2268.3 1166.3 2275.6 1167 2280 1167 2285.15 1167 2303.9 1144.85 2309.3 1138 2311.05 1129.65 2311.1
L 1123.65 2310.95
Q 1123 2311.05 1122.75 2311.35 1122.75 2311.2 1122.75 2310.95 1103.3 2310.8 1078.3 2305.2 1056.5 2299.5 1056.3 2299.5 1048.9 2301.8 1039.75 2304 1021.25 2308.5 1011.55 2308.5 990.85 2308.5 966.85 2301.15 938.2 2292.35 938.2 2280.25 938.2 2274.2 946 2270.75
M 903.05 2498.1
Q 897.4 2498.1 893.35 2499.2 889.4 2500.2 889.4 2501.7 889.4 2503.15 893.35 2504.15 896.25 2504.9 900.05 2505.1 901.5 2505.25 903.05 2505.25 904.6 2505.25 906.1 2505.1 909.9 2504.9 912.8 2504.15 916.7 2503.15 916.7 2501.7 916.7 2500.2 912.8 2499.2 908.7 2498.1 903.05 2498.1
M 910.45 2476.85
Q 907.15 2475.7 902.3 2475.7 897.55 2475.7 894.1 2476.85 890.85 2478 890.85 2479.65 890.85 2481.3 894.1 2482.35 897.55 2483.5 902.3 2483.5 907.15 2483.5 910.45 2482.35 913.9 2481.3 913.9 2479.65 913.9 2478 910.45 2476.85
M 960.2 2479.65
Q 960.2 2477.8 956.7 2476.35 953.05 2475.05 947.9 2475.05 942.85 2475.05 939.2 2476.35 935.7 2477.8 935.7 2479.65 935.7 2481.5 939.2 2482.85 942.85 2484.2 947.9 2484.2 953.05 2484.2 956.7 2482.85 960.2 2481.5 960.2 2479.65
M 955.25 2495.75
Q 955.25 2494.1 952.2 2492.95 949.15 2491.8 944.7 2491.8 940.4 2491.8 937.25 2492.95 934.3 2494.1 934.3 2495.75 934.3 2497.45 937.25 2498.5 940.4 2499.6 944.7 2499.6 949.15 2499.6 952.2 2498.5 955.25 2497.45 955.25 2495.75
M 866.2 2471.6
Q 874.45 2471.6 880.1 2469.6 885.85 2467.75 885.85 2464.9 885.85 2462.15 880.1 2460.15 874.45 2458.2 866.2 2458.2 858.1 2458.2 852.35 2460.15 846.55 2462.15 846.55 2464.9 846.55 2467.75 852.35 2469.6 858.1 2471.6 866.2 2471.6
M 907.5 2464.85
Q 914.4 2467.4 924.1 2467.4 933.8 2467.4 940.7 2464.85 947.6 2462.3 947.6 2458.6 947.6 2454.95 940.7 2452.45 933.8 2449.9 924.1 2449.9 914.4 2449.9 907.5 2452.45 900.6 2454.95 900.6 2458.6 900.6 2462.3 907.5 2464.85
M 984.35 2467.3
Q 986.8 2466.65 986.8 2465.6 986.8 2464.6 984.35 2463.85 982 2463.2 978.4 2463.2 974.9 2463.2 972.4 2463.85 970 2464.6 970 2465.6 970 2466.65 972.4 2467.3 974.9 2468.05 978.4 2468.05 982 2468.05 984.35 2467.3
M 1003.25 2210.95
Q 1007.45 2210.95 1010.5 2210.2 1013.45 2209.45 1013.45 2208.45 1013.45 2207.4 1010.5 2206.65 1007.45 2205.9 1003.25 2205.9 999.1 2205.9 996.1 2206.65 993.15 2207.4 993.15 2208.45 993.15 2209.45 996.1 2210.2 999.1 2210.95 1003.25 2210.95
M 997.3 2186.8
Q 997.3 2185.7 993.45 2184.95 989.7 2184.25 984.35 2184.25 979 2184.25 975.15 2184.95 971.45 2185.7 971.45 2186.8 971.45 2187.75 975.15 2188.5 979 2189.25 984.35 2189.25 989.7 2189.25 993.45 2188.5 997.3 2187.75 997.3 2186.8
M 1025.35 2201.8
Q 1030.85 2201.8 1034.75 2200.15 1038.7 2198.55 1038.7 2196.25 1038.7 2193.95 1034.75 2192.3 1030.85 2190.65 1025.35 2190.65 1019.8 2190.65 1015.9 2192.3 1012.05 2193.95 1012.05 2196.25 1012.05 2198.55 1015.9 2200.15 1019.8 2201.8 1025.35 2201.8
M 986.8 2175.9
Q 992.55 2175.9 996.7 2174.35 1000.8 2172.8 1000.8 2170.55 1000.8 2168.4 996.7 2166.85 992.55 2165.3 986.8 2165.3 981 2165.3 976.85 2166.85 972.85 2168.4 972.85 2170.55 972.85 2172.8 976.85 2174.35 981 2175.9 986.8 2175.9
M 944.55 2207
Q 941.3 2208 941.3 2209.45 941.3 2210.95 944.55 2212 947.75 2213 952.45 2213 957.15 2213 960.4 2212 963.75 2210.95 963.75 2209.45 963.75 2208 960.4 2207 957.15 2205.9 952.45 2205.9 947.75 2205.9 944.55 2207
M 967.5 2195.5
Q 962.7 2195.5 959.3 2196.4 956 2197.3 956 2198.7 956 2200 959.3 2200.9 962.7 2201.8 967.5 2201.8 972.4 2201.8 975.65 2200.9 979.1 2200 979.1 2198.7 979.1 2197.3 975.65 2196.4 972.4 2195.5 967.5 2195.5
M 956.75 2177.4
Q 952 2175.85 945.15 2175.85 938.3 2175.85 933.45 2177.4 928.65 2178.95 928.65 2181.1 928.65 2183.3 933.45 2184.85 938.3 2186.4 945.15 2186.4 952 2186.4 956.75 2184.85 961.6 2183.3 961.6 2181.1 961.6 2178.95 956.75 2177.4
M 1270.5 1727.6
Q 1271.9 1728.4126953125 1272.85 1729.45 1276.55 1733.4 1279.7 1746.25 1288.9 1747.15 1298.05 1753.55 1312.25 1763.45 1310.1 1774.65 1315.8271484375 1775.295703125 1320 1776
L 1320 1730.65
Q 1296.9916015625 1728.9705078125 1270.5 1727.6
M 1203.4 1730.6
Q 1210.55 1729.7 1211.6 1729.8 1212.6 1729.7 1215.1 1730.1 1217.65 1730.5 1233.4 1739.45 1237.95 1730.6 1242.2 1727.65 1243.2794921875 1726.91796875 1244.6 1726.35 1152.61875 1722.3697265625 1023.55 1721.75 933.25 1721.3 855.85 1722.65 819.45 1723.3 801.95 1724.05 805.55 1724.55 810.1 1725.3 625.15 1725.3 519.1 1727.85 476.25 1728.8 446.35 1730.2 313.2 1736.4 227.85 1756.95 180.7 1768.3 113.3 1775.15 74.8400390625 1779.2404296875 0 1785.4
L 0 1842.1 466.5 1842.1
Q 478.85 1843.4 519.1 1844.45 536.65 1844.8 559.55 1845.25 603.55 1846.05 708.4 1847.65 907.4 1851.3 907.4 1861.55 907.4 1867.2 902.65 1876.15 896.15 1887.95 895.25 1890.8
L 895.25 1915.1
Q 924.85 1916.45 982.9 1917.05 1035.2 1917.65 1060.5 1919.35 1100.3 1922.1 1129.1 1929.85 1162.95 1939 1189.95 1956.7 1182.35 1966.15 1171.8 1974.95 1165.95 1979.85 1155.4 1987.85 1147 1994.65 1143.5 2000.75 1138.85 2008.35 1138.85 2018.75 1138.85 2029.85 1145.55 2034.4 1147.1634765625 2035.489453125 1149.55 2036.4 1155.7990234375 2038.7912109375 1167.35 2039.95 1177.2 2041 1205.8 2043.15 1235.35 2045.95 1263.15 2051.65
L 1263.15 2063.8
Q 1256.75 2076.9 1245.7 2091 1241.95 2095.8 1240.65 2098.55 1238.85 2102.5 1238.85 2107.55 1238.85 2115.65 1241.3 2119.7 1243.55 2123.4 1248.65 2124.5 1252.45 2125.4 1260.8 2125.05 1276.1 2124.5 1277.8 2124.5 1296.0404296875 2124.5 1320 2123.7
L 1320 1839.4
Q 1319.7259765625 1839.3966796875 1319.45 1839.4 1319.45 1838.85 1319.1 1839.1 1318.55 1839.4 1318.15 1839.4
L 1318.2 1839.5
Q 1310 1839.5 1248.95 1836.55 1234.45 1836.55 1220.95 1837.6 1207.5 1838.6 1195.65 1838.6 1169.25 1838.6 1143.25 1831.25 1142.8 1831.15 1142.4 1831 1110.9 1821.9 1110.9 1807.5 1110.9 1797.9 1120.2 1793.05 1124.05 1791.1 1131.7 1788.25 1134.7 1787 1138.3 1785.7
L 1146 1785.7
Q 1151.4 1782.2 1159.6 1777.5 1156.5 1773 1155.75 1770.4 1155.5 1769.4 1155.5 1766.2 1155.5 1759.35 1160 1755 1165.1 1750.1 1174.75 1750.1 1176.5 1750.1 1180.9 1750.75 1185.25 1751.3 1185.8 1751.3 1185.8 1748.45 1186.55 1745 1187.55 1740.2 1189.5 1738.2 1196.2 1731.5 1203.4 1730.6
M 1253.7 1625
Q 1244.5 1627.75 1235.5 1629.9 1217.4 1634.3 1217.4 1631.55 1207.2 1631.45 1203.1 1629.25 1197.85 1626.3 1196.95 1614.65 1196.55 1614.4 1196.2 1614.25
L 1196.85 1613.1
Q 1197.7 1611.4 1198.6 1609.85
L 1194.8 1609.85
Q 1192.85 1610.75 1191.4 1611.55 1188.35 1613.1 1187.45 1614.15 1185.4 1616.4 1185.4 1621.7 1185.4 1632.25 1215.85 1642.6 1243.55 1652 1263.7 1652 1284.7 1652 1314.95 1644.65 1317.5669921875 1644.0115234375 1320 1643.35
L 1320 1627.3
Q 1314.3916015625 1636.45 1292.65 1636.45 1283.55 1636.45 1270.45 1630.7 1257.3 1625 1253.7 1625
M 51.15 1618.85
Q 45.5 1618.85 41.4 1619.95 37.4 1621.05 37.4 1622.7 37.4 1624.25 41.4 1625.3 45.5 1626.5 51.15 1626.5 56.75 1626.5 60.75 1625.3 64.75 1624.25 64.75 1622.7 64.75 1621.05 60.75 1619.95 56.75 1618.85 51.15 1618.85
M 48.6 1600.9
Q 48.6 1599.05 45.05 1597.7 41.6 1596.45 36.65 1596.45 31.75 1596.45 28.2 1597.7 24.75 1599.05 24.75 1600.9 24.75 1602.85 28.2 1604.25 31.75 1605.5 36.65 1605.5 41.6 1605.5 45.05 1604.25 48.6 1602.85 48.6 1600.9
M 80.3 1600.9
Q 76.2 1599.1 70.35 1599.1 64.55 1599.1 60.45 1600.9 56.3 1602.85 56.3 1605.45 56.3 1608.05 60.45 1609.9 64.55 1611.75 70.35 1611.75 76.2 1611.75 80.3 1609.9 84.4 1608.05 84.4 1605.45 84.4 1602.85 80.3 1600.9
M 118.2 1613.9
Q 121.45 1613.2 121.45 1612.2 121.45 1611.1 118.2 1610.35 114.9 1609.6 110.25 1609.6 105.6 1609.6 102.35 1610.35 99.05 1611.1 99.05 1612.2 99.05 1613.2 102.35 1613.9 105.6 1614.65 110.25 1614.65 114.9 1614.65 118.2 1613.9
M 81.55 1630.65
Q 81.55 1632.15 84.75 1633.25 87.95 1634.25 92.45 1634.25 96.9 1634.25 100.1 1633.25 103.3 1632.15 103.3 1630.65 103.3 1629.2 100.1 1628.2 96.9 1627.15 92.45 1627.15 87.95 1627.15 84.75 1628.2 81.55 1629.2 81.55 1630.65
M 121.45 1592.2
Q 121.45 1590.4 118.2 1589.3 114.9 1588.05 110.25 1588.05 105.6 1588.05 102.35 1589.3 99.05 1590.4 99.05 1592.2 99.05 1593.9 102.35 1595.15 105.6 1596.45 110.25 1596.45 114.9 1596.45 118.2 1595.15 121.45 1593.9 121.45 1592.2
M 63.7 1576.65
Q 58.6 1576.65 55 1577.85 51.35 1578.95 51.35 1580.6 51.35 1582.3 55 1583.35 58.6 1584.45 63.7 1584.45 68.8 1584.45 72.45 1583.35 75.95 1582.3 75.95 1580.6 75.95 1578.95 72.45 1577.85 68.8 1576.65 63.7 1576.65
M 65.9 1527.2
Q 62.0626953125 1526.3765625 58.45 1525.25 42.65 1520.3 29.15 1520.3 13.778125 1520.3 0 1523.35
L 0 1530.45
Q 32.9509765625 1528.7638671875 65.9 1527.2
M 0 1390.25
L 0 1435
Q 2.87578125 1438.2939453125 4.95 1445.75 4.9880859375 1445.8873046875 5 1446
L 37.9 1436.15 4.05 1438.6 3.75 1423.3 31.9 1411.4 3.65 1416.75 3.25 1399.05 22.05 1384.25 3.15 1392.05 2.65 1367.4 0 1390.25
M 1319.45 1482.85
Q 1319.6953125 1481.3009765625 1320 1479.85
L 1320 1471.05 1300.6 1466.7 1319.75 1478.4 1318.95 1485.65
Q 1319.1134765625 1484.6951171875 1319.3 1483.8 1319.3154296875 1483.76875 1319.3 1483.7 1319.3869140625 1483.2888671875 1319.45 1482.85
M 1320 1455.2
L 1320 1450 1307.6 1446.15 1320 1455.2
M 150.15 2198.45
Q 146.85 2201.25 146.85 2209.1 146.85 2222.2 167 2229.8 185.35 2236.7 212.95 2236.7 228.55 2236.7 232.6 2235.05 239.55 2232.25 258.35 2230.15 266.05 2229.3 280 2229.55 288.1 2229.75 306.85 2230.15 329.35 2230.4 345.1 2225.9 364.55 2220.3 364.55 2209.25 364.55 2200.35 352.45 2197.7 345.65 2197 339.9 2196.35 346.15 2200.65 346.15 2207.05 346.15 2215.5 332.2 2218.7 321.75 2221.15 299.05 2221.15 293.65 2221.15 275.25 2218.9 257.9 2216.65 257.8 2216.65 255.85 2216.65 249.7 2218.7 243 2220.95 239.15 2223.2 230.7 2228.2 223.75 2228.25 216.7 2228.35 213.6 2227.85 210.45 2227.3 210 2227.3 190.5 2227.3 176.8 2221.95 160.75 2215.75 160.75 2204.35 160.75 2203.85 160.75 2203.45 160.95 2198.3 162.5 2194.3 153.15 2196 150.15 2198.45
M 1178.3 1820.1
Q 1178.45 1821.15 1178.45 1819.75 1178.2 1819.85 1178.3 1820.1
M 1178.45 1819.75
Q 1178.5810546875 1819.70625 1178.8 1819.7 1178.58125 1819.7 1178.45 1819.7
L 1178.45 1819.75
M 1293.25 1807.4
Q 1293.25 1808.05 1295.95 1807.8 1297.25 1807.65 1299.05 1807.5 1293.25 1807.3 1293.25 1807.4
M 1203.8 1471.15
Q 1203.962890625 1469.65703125 1204.15 1468.3 1204.229296875 1467.83984375 1204.3 1467.4 1204.4224609375 1466.6724609375 1204.55 1465.95 1204.6998046875 1465.29765625 1204.85 1464.65 1205.081640625 1463.61796875 1205.35 1462.65 1205.4322265625 1462.3740234375 1205.5 1462.05
L 1204.95 1448.6 1224.4 1432.75 1204.7 1442.2 1203.7 1420.8 1201.3 1441.3 1185.7 1437.25 1200.8 1445.9 1198.5 1465.3 1176 1458.5 1197.7 1472.15 1196.15 1485.05
Q 1196.33359375 1485.335546875 1196.5 1485.6 1196.605859375 1485.7689453125 1196.7 1485.95 1197.5763671875 1487.347265625 1198.4 1488.75 1200.352734375 1491.978125 1202.1 1495.25 1202.29453125 1495.608984375 1202.45 1495.95 1202.6142578125 1496.205859375 1202.75 1496.45
L 1203.35 1497.6
Q 1203.4 1475.3 1203.8 1471.15
M 1273.55 1467.9
Q 1273.4912109375 1469.21875 1273.35 1470.55 1273.36484375 1470.7328125 1273.35 1470.9
L 1273.35 1470.95
Q 1273.3453125 1471.765234375 1273.25 1473.55 1273.2595703125 1473.7822265625 1273.25 1474
L 1292.75 1464.55 1273.55 1467.9
M 1263.35 1452.55
Q 1264.1203125 1452.53515625 1264.9 1452.5 1266.68046875 1452.1 1268.45 1452.1 1268.4841796875 1452.1 1268.5 1452.1
L 1268.55 1452.1
Q 1268.6095703125 1452.101171875 1268.65 1452.1
L 1268.75 1452.1
Q 1269.180859375 1452.1388671875 1269.55 1452.25 1269.819921875 1452.3671875 1270.05 1452.5 1271.3888671875 1453.266015625 1272.2 1455.45 1272.6546875 1456.6064453125 1272.95 1458.15
L 1273.05 1454.55 1284.95 1441.4 1273.2 1447.65 1273.6 1427.3 1268.35 1448.55 1254.35 1442.95 1263.35 1452.55
M 1114.85 1480.2
L 1100.7 1473.3 1111.6 1485.25
Q 1113.1380859375 1482.93046875 1114.85 1480.2
M 1125.4 1459.55
L 1124.55 1445.1 1121.2 1459.45 1104.85 1454.35 1119.55 1466.2 1117 1476.85
Q 1121.9650390625 1469.55 1125.05 1469.55 1125.534375 1469.55 1126 1469.65
L 1125.8 1466.8 1144.95 1455.6 1125.4 1459.55
M 349 1483.15
L 333.65 1479.45 348.75 1486.3 348.1 1495.3 332.65 1490.3 347.75 1499 347.1 1507.65 326 1502.85 346.8 1511.9 346.65 1513.8
Q 349.8474609375 1513.6814453125 353.05 1513.55
L 352.95 1512.05 373.15 1503.95 352.6 1508.1 352.6 1508.05 352.05 1500.25 369.85 1492.35 351.7 1495.9 351.2 1488.35 362.85 1478.8 350.9 1484.5 349.9 1471.2 349 1483.15
M 188.75 1457.15
L 188 1447.7 200 1433.5 187.6 1442.2 186.05 1422.85 184.9 1441.65 165.55 1437.3 184.6 1446.4 184 1455.6 163.9 1449.2 183.6 1461.6 182.85 1473.15 162.25 1468.45 182.45 1478.9 182.15 1483.95 182.15 1483.95
Q 182.5041015625 1483.6271484375 182.85 1483.25 183.4685546875 1482.721875 184.1 1482.15 184.172265625 1482.1166015625 184.25 1482.05 193.25 1474.5 200.25 1474.5 200.920703125 1474.5 201.5 1474.6
L 209.95 1471.25 189.9 1471.25 189.25 1463.45 204.75 1452.65 204.6 1452.65 188.75 1457.15
M 255.35 1460.1
Q 253.95 1459.85 252.45 1459.7
L 238 1462.25 237.45 1450.75 252.45 1439.75 237.1 1445.55 236.2 1428.6 235.05 1445 224.3 1438.1 234.65 1450.35 233.85 1461.4 215.05 1457.4 233.5 1466.6 232.45 1480.45 214.2 1474.05 225.1 1480.75 225.1 1480.75
Q 227.2796875 1480.921484375 228.5 1482.85
L 228.5 1482.85 232.1 1485.05 231.55 1492.85
Q 232.740625 1492.148828125 234.1 1491.5 234.1923828125 1491.458203125 234.25 1491.4 236.6953125 1490.33984375 238.85 1489.65 239.19296875 1489.5416015625 239.5 1489.45
L 239.35 1485.8 262.95 1476.35 239 1480.05 238.35 1468.65 255.35 1460.1
M 282.25 1465.5
L 267.4 1459.95 281.75 1471.9 280.7 1484.3 262.7 1480.2 280.15 1490.9 278.9 1505.4 256.75 1500.55 278.3 1512.45 277.85 1517.2
Q 278.068359375 1517.2150390625 278.25 1517.2
L 285.5 1516.8 285.4 1512.25 309.75 1501.4 285.2 1505.35 284.9 1491.55 285.7 1491.15 304 1480.45 284.7 1483.9 284.4 1471.2 299.25 1459.45 284.3 1465.45 283.8 1446.7 282.25 1465.5
M 69.75 1405.1
Q 69.15 1404.7 68.6 1404.35
L 52.35 1407.75 51.9 1394.5 66.85 1382.2 51.75 1388.6 51.2 1369.9 49.8 1388.75 34.35 1383 49.4 1394.2 48.4 1408.2 29 1401.5 47.9 1414.45 47 1426.55 25.15 1422.4 42.15 1430.15
Q 44.49921875 1427.55 47.1 1427.55 49.010546875 1427.55 53.05 1434.7
L 53.05 1434.65 76.4 1421.25 52.9 1427.75 52.5 1413.9 69.75 1405.1
M 117 1411.85
L 116.2 1396.65 134.75 1380.55 115.8 1389.65 114.55 1368.65 113.55 1389 94.85 1383.45 113.25 1395 112.4 1412.25 91.15 1404.85 112.1 1417.75 111.2 1435.65 85.85 1427.85 110.95 1441.05 110.3 1453.6
Q 111.405078125 1451.808203125 112.6 1450.5 112.678515625 1450.419140625 112.7 1450.35 112.7791015625 1450.26953125 112.8 1450.2 112.8771484375 1450.1240234375 112.9 1450.05 112.9783203125 1449.9736328125 113 1449.9 113.0740234375 1449.8310546875 113.1 1449.75 113.1763671875 1449.70390625 113.2 1449.6 113.2734375 1449.558984375 113.3 1449.5 113.373046875 1449.435546875 113.4 1449.35 113.4806640625 1449.3015625 113.5 1449.2 113.5779296875 1449.1568359375 113.6 1449.1 113.6759765625 1449.0353515625 113.7 1448.95 113.7703125 1448.9185546875 113.8 1448.85 115.657421875 1446.6140625 117.7 1445.45 118.3095703125 1445.173046875 118.9 1444.95
L 118.65 1439.9 154.45 1427.45 118.25 1432.75 117.45 1418.5 143.35 1406.5 117 1411.85 Z"/>

<path fill="#E7F5FE" stroke="none" d="
M 1295.95 1807.8
Q 1293.25 1808.05 1293.25 1807.4 1293.25 1807.3 1299.05 1807.5 1299.190625 1807.40625 1299.4 1807.4 1268.8025390625 1807.3970703125 1252.95 1801.5 1251.0947265625 1800.8150390625 1249.45 1800.05 1245.6 1798.25 1241.15 1794.95 1238.05 1792.65 1236.25 1792.65 1235.85 1792.65 1227.25 1797.25 1221.87421875 1800.19609375 1219.1 1801.5 1217.306640625 1802.34296875 1216.6 1802.5 1209.7 1804.35 1198.85 1804.8 1189.1 1805.2 1189.1 1804.55 1188.9 1804.55 1188.85 1804.55 1165.4 1804.45 1150.2 1799.7 1141.75 1797.1 1136.5 1793.05 1131.75 1798.25 1131.75 1804.8 1131.75 1812.5 1147 1816.4 1159.35 1819.7 1178.45 1819.7 1178.58125 1819.7 1178.8 1819.7 1178.5810546875 1819.70625 1178.45 1819.75 1178.7 1821.55 1189.25 1818.3 1205.05 1813.4 1206.35 1813.15 1210.7 1812.3 1216.85 1810.85 1221.5 1809.85 1224.35 1809.85 1226.1 1809.85 1249.9 1815 1277.75 1820.1 1299.2 1820.1 1312.248828125 1820.1 1320 1817.2
L 1320 1807.55
Q 1315.5294921875 1807.68515625 1309.45 1807.65 1303 1807.5 1299.05 1807.5 1297.25 1807.65 1295.95 1807.8
M 1294.3 1625.8
Q 1284.15 1625.8 1271.6 1621.05 1269.7564453125 1620.340234375 1268.1 1619.65 1260.3615234375 1616.352734375 1257.55 1613.5 1250.784765625 1617.7283203125 1247.25 1619.65 1245.39375 1620.6830078125 1244.45 1621.05 1237.95 1623.75 1227.9 1623.75 1218.65 1623.75 1206.1 1618.75 1201.3 1616.85 1196.95 1614.65 1197.85 1626.3 1203.1 1629.25 1207.2 1631.45 1217.4 1631.55 1217.4 1631.1 1217.5 1631.2 1217.74296875 1631.5400390625 1218.2 1631.55 1217.7875 1631.55 1217.4 1631.55 1217.4 1634.3 1235.5 1629.9 1244.5 1627.75 1253.7 1625 1257.3 1625 1270.45 1630.7 1283.55 1636.45 1292.65 1636.45 1314.3916015625 1636.45 1320 1627.3
L 1320 1618
Q 1317.0337890625 1619.6369140625 1314.75 1620.7 1304.1 1625.8 1294.3 1625.8
M 640.7 2516.8
Q 637.0404296875 2517.55 633.95 2517.55 609.2 2517.55 596.75 2513.85 585.8 2510.6 579.9 2504.25 579.9 2504.95 579.9 2505.65 579.9 2522.45 602.85 2529.8 618.25 2534.75 640.5 2534.75 654.5 2534.75 663.9 2531.05 673.35 2527.35 679.9 2527.35 680.05 2527.35 693.4 2531.8 707.7 2536.2 712.7 2536.35 723.35 2536.95 750.4 2536.35 792.8 2536.35 808.7 2527.35 824.3 2518.5 824.3 2495 824.3 2493.05 824.05 2491.35 804 2509.2 795.15 2514.6 783.8107421875 2521.461328125 764 2523.35 763.0158203125 2523.4685546875 762 2523.55 755.22890625 2524.1 747.5 2524.1 740.04765625 2524.1 731.2 2523.55 728.106640625 2523.3583984375 724.85 2523.1 709.35 2521.95 702.9 2520 694.8 2517.55 683.3 2510.5 677.9244140625 2507.18125 674.7 2505.65 674.3228515625 2505.5009765625 673.95 2505.35 671.8763671875 2504.45 670.85 2504.45 665.25 2507.7 657.85 2511 656.98671875 2511.3859375 656.15 2511.75 656.125 2511.7640625 656.1 2511.75 647.4228515625 2515.4951171875 640.7 2516.8
M 160.75 2203.45
Q 160.75 2203.85 160.75 2204.35 160.75 2215.75 176.8 2221.95 190.5 2227.3 210 2227.3 210.45 2227.3 213.6 2227.85 216.7 2228.35 223.75 2228.25 230.7 2228.2 239.15 2223.2 243 2220.95 249.7 2218.7 255.85 2216.65 257.8 2216.65 257.9 2216.65 275.25 2218.9 293.65 2221.15 299.05 2221.15 321.75 2221.15 332.2 2218.7 346.15 2215.5 346.15 2207.05 346.15 2200.65 339.9 2196.35 334.25 2192.5 323.8 2190.25 317.8 2188.95 308.3 2187.95 309.3 2190.35 309.3 2193.85 309.3 2201.75 304.4 2204.75 299.15 2208.05 285.15 2208.05 272.3 2208.05 260 2204.45 246.65 2200.6 243.2 2194.85 237.4 2203.8 230.6 2208.3 220.55 2215 205.5 2215 190.65 2215 176.35 2210.55 166.35 2207.45 160.75 2203.45
M 947.8 2270
Q 946.8 2270.45 946 2270.75 938.2 2274.2 938.2 2280.25 938.2 2292.35 966.85 2301.15 990.85 2308.5 1011.55 2308.5 1021.25 2308.5 1039.75 2304 1048.9 2301.8 1056.3 2299.5 1056.5 2299.5 1078.3 2305.2 1103.3 2310.8 1122.75 2310.95 1123.15 2310.95 1123.65 2310.95
L 1129.65 2311.1
Q 1138 2311.05 1144.85 2309.3 1167 2303.9 1167 2285.15 1167 2280 1166.3 2275.6 1141.367578125 2296.185546875 1114.65 2296.2
L 1114.6 2296.2
Q 1092.9 2296.2 1066.45 2286.8 1044 2277.4 1042.3 2277.4 1041.9466796875 2277.4 1039.15 2278.25 1038.2884765625 2278.548046875 1037.2 2278.9 1032.810546875 2280.323046875 1024.65 2283.1 1007.95 2288.85 1000.1 2288.85 998.8556640625 2288.85 997.55 2288.75 983.2177734375 2288.072265625 964.35 2279.35 952.8 2274.05 947.8 2270 Z"/>

<path fill="#E1F3FF" stroke="none" d="
M 1129.1 1929.85
Q 1100.3 1922.1 1060.5 1919.35 1035.2 1917.65 982.9 1917.05 924.85 1916.45 895.25 1915.1
L 895.25 1890.8
Q 896.15 1887.95 902.65 1876.15 907.4 1867.2 907.4 1861.55 907.4 1851.3 708.4 1847.65 603.55 1846.05 559.55 1845.25 536.65 1844.8 519.1 1844.45 478.85 1843.4 466.5 1842.1
L 0 1842.1 0 2148.1
Q 47.528125 2145.646875 68.85 2145.55 118.8 2149.15 127.35 2151.65 147.9 2158 158.8 2161.55 169.65 2165 187.55 2170.5 195.1998046875 2172.80234375 205.15 2175.55 209.344140625 2170.051953125 211.05 2168.75 216.8 2164.15 228.5 2164.15 233.7 2164.15 238.65 2165.6 243.55 2167 243.9 2167 244.3 2167 249.2 2163.55 254.1 2160.05 257.8 2160.05 270.1 2160.05 279.9 2168 285.9 2172.85 299.9 2186.65 300.35 2187.15 308 2187.9 308.15 2187.9 308.3 2187.95 317.8 2188.95 323.8 2190.25 334.25 2192.5 339.9 2196.35 345.65 2197 352.45 2197.7 364.55 2200.35 364.55 2209.25 364.55 2220.3 345.1 2225.9 329.35 2230.4 306.85 2230.15 288.1 2229.75 280 2229.55 266.05 2229.3 258.35 2230.15 239.55 2232.25 232.6 2235.05 228.55 2236.7 212.95 2236.7 185.35 2236.7 167 2229.8 146.85 2222.2 146.85 2209.1 146.85 2201.25 150.15 2198.45 153.15 2196 162.5 2194.3 163.3796875 2192.083984375 164.7 2190.2 131.4126953125 2192.2296875 125.95 2192.75 102.4 2195.4 91.85 2202.4 79.2 2210.75 79.2 2228.3 79.2 2245.2 108.8 2249.65 125.95 2252.2 174.2 2251.2 221.05 2250.25 239.55 2253.5 269.25 2258.65 269.25 2276.95 269.25 2285.4 243.25 2294.6 233.7 2297.95 216.75 2302.95 196.7 2308.5 186.35 2311.55 147.7 2322.8 129.4 2332.6 103.5 2346.25 103.5 2362.3 103.5 2399.8 173.55 2417.8 223.6 2430.75 327.55 2436.35 355.6 2437.85 409.85 2440.15 456.2 2442.3 481.6 2444.9 504.15 2447.2 519.1 2450.4 526.75 2452.05 532.4 2453.9 551.6 2460.3 551.6 2470.6 551.6 2481.45 524.1 2488.95 521.7 2489.6 519.1 2490.25 498.55 2495.2 459.6 2500.05 434.6 2502.95 416.25 2505.1 397.05 2507.5 385 2509.2 344.6 2514.9 327.55 2521.75 296.6 2531.35 327.55 2534.15 370.35 2539.9 418.4 2547 449.9 2551.4 469.75 2552.55 490.3 2553.75 534.05 2553.75 559.35859375 2553.847265625 637.05 2553.7 624.016796875 2551.73125 612.65 2548.8 561.9 2535.7 561.9 2506.05 561.9 2497.8 564.25 2495.6 565.6 2494.35 573.7 2491.15
L 582.55 2488.3
Q 583.85 2484.15 585.95 2480.6 593.5 2468 609.4 2465.85 612.6 2465.45 629.05 2465.45 639.5 2465.45 641.3 2462.6 652.85 2443.75 670.45 2443.75 682.25 2443.75 688.9 2446.15 692.5 2447.45 696.6 2449.9 721 2436.4 733.6 2436.4 738.85 2436.4 746.45 2438.45 756.2 2441 762.75 2445.4 769.2 2449.75 776.85 2461.35 783.2 2471.2 788.1 2472.4 789.95 2472.85 800.5 2474.9 808.1 2476.35 812.2 2478 812.95 2478.3 813.65 2478.65 813.9 2478.75 814.15 2478.9
L 833.4 2482.9
Q 834.45 2483.15 835.55 2483.4 842.5349609375 2485.1462890625 848.05 2487.15 848 2486.9052734375 848 2486.65 848 2484.1 851.6 2482.35 855.2 2480.65 860.3 2480.65 865.4 2480.65 869.05 2482.35 872.55 2484.1 872.55 2486.65 872.55 2489.1 869.05 2490.8 865.4 2492.55 860.3 2492.55 859.87421875 2492.55 859.45 2492.55 868.55 2498.301953125 868.55 2505.65 868.55 2528.25 796.4 2544.7 769.85 2550.8 739.5 2554.55 722.11796875 2556.6857421875 709.8 2557.4 728.195703125 2558.1109375 734.9 2557.7 808 2553.15 896.5 2539.1 992.5 2523.8 1053.35 2505.1 1055.7 2504.35 1058.1 2503.6 1131.55 2480.3 1131.55 2457.2 1131.55 2444.45 1112.1 2439.2 1104.85 2437.3 1092.2 2435.7 1077.1 2433.95 1069.35 2432.95 1040.25 2429.2 1026.6 2421.45 1007.2 2410.45 1007.2 2387.9 1007.2 2369.4 1036.9 2356.35 1056.85 2347.55 1102.25 2337.55 1154 2326.1 1167.55 2321.7 1197.25 2311.8 1197.25 2298.85 1197.25 2297.516796875 1197.05 2296.3 1194.6181640625 2313.2765625 1163.7 2322.4 1138.75 2329.8 1107.85 2329.8 1080.35 2329.8 1056.3 2325.7 1034.1 2321.95 1007.95 2321.6 1021.7 2321.5 1022.4 2320.95 1020.35 2318.65 1003.8 2321.6 983.9 2325.7 981.6 2325.7 960.3 2325.7 943.1 2318.3 920.95 2308.75 920.95 2290.9 920.95 2282.55 923.3 2278.95 926.25 2274.25 936.55 2269.2
L 946.9 2269.2
Q 947.3 2269.6 947.8 2270 948.6 2269.6 949.65 2269.2 954.65 2267.05 963.6 2263.45 965 2262.75 969.1 2251.45 975.15 2240.55 986.95 2240.55 987.1 2240.55 997.65 2243.4 1008.8 2246.25 1012 2246.25 1016.8 2234.65 1021.7 2232.35 1023.7 2231.35 1033.7 2231.35 1036.3 2231.35 1038.35 2231.45 1042.2 2228.25 1046.35 2226.05 1056.5 2220.75 1069.8 2220.75 1086.75 2220.75 1098.1 2225.15 1114.9 2231.6 1112.95 2246.25 1142 2243.25 1155.35 2254.4 1159.55 2257.9 1162.25 2262.8 1169.9416015625 2264.7587890625 1175.3 2266.5 1175.3 2266.269140625 1175.3 2266 1175.3 2257.1 1186.65 2244.6 1197.7 2232.55 1216.3 2220.15 1235.55 2207.45 1257.75 2197.95 1281.85 2187.7 1304.55 2183.2 1312.751171875 2181.69296875 1320 2180.35
L 1320 2123.7
Q 1296.0404296875 2124.5 1277.8 2124.5 1276.1 2124.5 1260.8 2125.05 1252.45 2125.4 1248.65 2124.5 1243.55 2123.4 1241.3 2119.7 1238.85 2115.65 1238.85 2107.55 1238.85 2102.5 1240.65 2098.55 1241.95 2095.8 1245.7 2091 1256.75 2076.9 1263.15 2063.8
L 1263.15 2051.65
Q 1235.35 2045.95 1205.8 2043.15 1177.2 2041 1167.35 2039.95 1155.7990234375 2038.7912109375 1149.55 2036.4 1147.1634765625 2035.489453125 1145.55 2034.4 1138.85 2029.85 1138.85 2018.75 1138.85 2008.35 1143.5 2000.75 1147 1994.65 1155.4 1987.85 1165.95 1979.85 1171.8 1974.95 1182.35 1966.15 1189.95 1956.7 1162.95 1939 1129.1 1929.85
M 945.15 2175.85
Q 952 2175.85 956.75 2177.4 961.6 2178.95 961.6 2181.1 961.6 2183.3 956.75 2184.85 952 2186.4 945.15 2186.4 938.3 2186.4 933.45 2184.85 928.65 2183.3 928.65 2181.1 928.65 2178.95 933.45 2177.4 938.3 2175.85 945.15 2175.85
M 959.3 2196.4
Q 962.7 2195.5 967.5 2195.5 972.4 2195.5 975.65 2196.4 979.1 2197.3 979.1 2198.7 979.1 2200 975.65 2200.9 972.4 2201.8 967.5 2201.8 962.7 2201.8 959.3 2200.9 956 2200 956 2198.7 956 2197.3 959.3 2196.4
M 941.3 2209.45
Q 941.3 2208 944.55 2207 947.75 2205.9 952.45 2205.9 957.15 2205.9 960.4 2207 963.75 2208 963.75 2209.45 963.75 2210.95 960.4 2212 957.15 2213 952.45 2213 947.75 2213 944.55 2212 941.3 2210.95 941.3 2209.45
M 996.7 2174.35
Q 992.55 2175.9 986.8 2175.9 981 2175.9 976.85 2174.35 972.85 2172.8 972.85 2170.55 972.85 2168.4 976.85 2166.85 981 2165.3 986.8 2165.3 992.55 2165.3 996.7 2166.85 1000.8 2168.4 1000.8 2170.55 1000.8 2172.8 996.7 2174.35
M 1034.75 2200.15
Q 1030.85 2201.8 1025.35 2201.8 1019.8 2201.8 1015.9 2200.15 1012.05 2198.55 1012.05 2196.25 1012.05 2193.95 1015.9 2192.3 1019.8 2190.65 1025.35 2190.65 1030.85 2190.65 1034.75 2192.3 1038.7 2193.95 1038.7 2196.25 1038.7 2198.55 1034.75 2200.15
M 993.45 2184.95
Q 997.3 2185.7 997.3 2186.8 997.3 2187.75 993.45 2188.5 989.7 2189.25 984.35 2189.25 979 2189.25 975.15 2188.5 971.45 2187.75 971.45 2186.8 971.45 2185.7 975.15 2184.95 979 2184.25 984.35 2184.25 989.7 2184.25 993.45 2184.95
M 1010.5 2210.2
Q 1007.45 2210.95 1003.25 2210.95 999.1 2210.95 996.1 2210.2 993.15 2209.45 993.15 2208.45 993.15 2207.4 996.1 2206.65 999.1 2205.9 1003.25 2205.9 1007.45 2205.9 1010.5 2206.65 1013.45 2207.4 1013.45 2208.45 1013.45 2209.45 1010.5 2210.2
M 986.8 2465.6
Q 986.8 2466.65 984.35 2467.3 982 2468.05 978.4 2468.05 974.9 2468.05 972.4 2467.3 970 2466.65 970 2465.6 970 2464.6 972.4 2463.85 974.9 2463.2 978.4 2463.2 982 2463.2 984.35 2463.85 986.8 2464.6 986.8 2465.6
M 924.1 2467.4
Q 914.4 2467.4 907.5 2464.85 900.6 2462.3 900.6 2458.6 900.6 2454.95 907.5 2452.45 914.4 2449.9 924.1 2449.9 933.8 2449.9 940.7 2452.45 947.6 2454.95 947.6 2458.6 947.6 2462.3 940.7 2464.85 933.8 2467.4 924.1 2467.4
M 880.1 2469.6
Q 874.45 2471.6 866.2 2471.6 858.1 2471.6 852.35 2469.6 846.55 2467.75 846.55 2464.9 846.55 2462.15 852.35 2460.15 858.1 2458.2 866.2 2458.2 874.45 2458.2 880.1 2460.15 885.85 2462.15 885.85 2464.9 885.85 2467.75 880.1 2469.6
M 952.2 2492.95
Q 955.25 2494.1 955.25 2495.75 955.25 2497.45 952.2 2498.5 949.15 2499.6 944.7 2499.6 940.4 2499.6 937.25 2498.5 934.3 2497.45 934.3 2495.75 934.3 2494.1 937.25 2492.95 940.4 2491.8 944.7 2491.8 949.15 2491.8 952.2 2492.95
M 956.7 2476.35
Q 960.2 2477.8 960.2 2479.65 960.2 2481.5 956.7 2482.85 953.05 2484.2 947.9 2484.2 942.85 2484.2 939.2 2482.85 935.7 2481.5 935.7 2479.65 935.7 2477.8 939.2 2476.35 942.85 2475.05 947.9 2475.05 953.05 2475.05 956.7 2476.35
M 902.3 2475.7
Q 907.15 2475.7 910.45 2476.85 913.9 2478 913.9 2479.65 913.9 2481.3 910.45 2482.35 907.15 2483.5 902.3 2483.5 897.55 2483.5 894.1 2482.35 890.85 2481.3 890.85 2479.65 890.85 2478 894.1 2476.85 897.55 2475.7 902.3 2475.7
M 893.35 2499.2
Q 897.4 2498.1 903.05 2498.1 908.7 2498.1 912.8 2499.2 916.7 2500.2 916.7 2501.7 916.7 2503.15 912.8 2504.15 909.9 2504.9 906.1 2505.1 904.6 2505.25 903.05 2505.25 901.5 2505.25 900.05 2505.1 896.25 2504.9 893.35 2504.15 889.4 2503.15 889.4 2501.7 889.4 2500.2 893.35 2499.2
M 65.9 1527.2
Q 32.9509765625 1528.7638671875 0 1530.45
L 0 1698.85
Q 0.5279296875 1699.01484375 1.05 1699.15 3.95 1700 6.85 1700.9 26 1706.85 26 1715.05 26 1725.85 6.25 1732.05 3.497265625 1732.922265625 0 1733.8
L 0 1785.4
Q 74.8400390625 1779.2404296875 113.3 1775.15 180.7 1768.3 227.85 1756.95 313.2 1736.4 446.35 1730.2 476.25 1728.8 519.1 1727.85 625.15 1725.3 810.1 1725.3 805.55 1724.55 801.95 1724.05 819.45 1723.3 855.85 1722.65 933.25 1721.3 1023.55 1721.75 1152.61875 1722.3697265625 1244.6 1726.35 1248.6716796875 1724.7 1255.1 1724.7 1265.573828125 1724.7 1270.5 1727.6 1296.9916015625 1728.9705078125 1320 1730.65
L 1320 1643.35
Q 1317.5669921875 1644.0115234375 1314.95 1644.65 1284.7 1652 1263.7 1652 1243.55 1652 1215.85 1642.6 1185.4 1632.25 1185.4 1621.7 1185.4 1616.4 1187.45 1614.15 1188.35 1613.1 1191.4 1611.55 1192.85 1610.75 1194.8 1609.85
L 1198.6 1609.85
Q 1207 1594.2 1215.6 1594.2 1217.9 1594.2 1219.15 1595.15 1219.85 1595.75 1221.9 1597.85 1224.2 1595.1 1229.95 1586.6 1235.85 1579.45 1242.2 1579.45 1244.95 1579.45 1247.95 1582.8 1250.8 1586.1 1250.6 1588.45
L 1251 1588.85
Q 1255.15 1582.25 1257.35 1581.25 1258.6 1580.7 1266.8 1580.7 1274.75 1580.7 1278.1 1583.15 1280.3 1584.75 1281.35 1588.7 1282.5 1592.9 1283.75 1594.2 1286.25 1596.65 1292.65 1596.65 1303.7 1596.65 1313.3 1605.25 1315.6 1607.3 1317.2 1609.35 1318.5951171875 1609.5806640625 1320 1609.8
L 1320 1514.15
Q 1288.8138671875 1513.399609375 1257.65 1512.7 1256.619921875 1512.69765625 1255.6 1512.65
L 1255.55 1512.65
Q 1181.5658203125 1511.0763671875 1107.65 1510.1 1075.1 1509.7 1042.65 1509.35 964.5 1508.65 886.45 1508.55 885.85 1508.8 885.3 1508.95 877.3 1508.7 869.35 1508.55 805.7 1507 742.2 1506.5 653.35 1505.75 564.55 1507.15 541.8 1507.45 519.1 1508.05 436.05546875 1509.8857421875 353.05 1513.55 349.8474609375 1513.6814453125 346.65 1513.8 316.0724609375 1515.203515625 285.5 1516.8
L 278.25 1517.2
Q 278.068359375 1517.2150390625 277.85 1517.2 267.33203125 1517.8015625 256.8 1518.4 256.7251953125 1518.404296875 256.65 1518.4
L 256.6 1518.4
Q 256.265625 1518.4197265625 255.9 1518.45 234.8677734375 1519.678125 213.9 1521.05 139.8544921875 1523.7912109375 65.9 1527.2
M 55 1577.85
Q 58.6 1576.65 63.7 1576.65 68.8 1576.65 72.45 1577.85 75.95 1578.95 75.95 1580.6 75.95 1582.3 72.45 1583.35 68.8 1584.45 63.7 1584.45 58.6 1584.45 55 1583.35 51.35 1582.3 51.35 1580.6 51.35 1578.95 55 1577.85
M 118.2 1589.3
Q 121.45 1590.4 121.45 1592.2 121.45 1593.9 118.2 1595.15 114.9 1596.45 110.25 1596.45 105.6 1596.45 102.35 1595.15 99.05 1593.9 99.05 1592.2 99.05 1590.4 102.35 1589.3 105.6 1588.05 110.25 1588.05 114.9 1588.05 118.2 1589.3
M 84.75 1633.25
Q 81.55 1632.15 81.55 1630.65 81.55 1629.2 84.75 1628.2 87.95 1627.15 92.45 1627.15 96.9 1627.15 100.1 1628.2 103.3 1629.2 103.3 1630.65 103.3 1632.15 100.1 1633.25 96.9 1634.25 92.45 1634.25 87.95 1634.25 84.75 1633.25
M 121.45 1612.2
Q 121.45 1613.2 118.2 1613.9 114.9 1614.65 110.25 1614.65 105.6 1614.65 102.35 1613.9 99.05 1613.2 99.05 1612.2 99.05 1611.1 102.35 1610.35 105.6 1609.6 110.25 1609.6 114.9 1609.6 118.2 1610.35 121.45 1611.1 121.45 1612.2
M 70.35 1599.1
Q 76.2 1599.1 80.3 1600.9 84.4 1602.85 84.4 1605.45 84.4 1608.05 80.3 1609.9 76.2 1611.75 70.35 1611.75 64.55 1611.75 60.45 1609.9 56.3 1608.05 56.3 1605.45 56.3 1602.85 60.45 1600.9 64.55 1599.1 70.35 1599.1
M 45.05 1597.7
Q 48.6 1599.05 48.6 1600.9 48.6 1602.85 45.05 1604.25 41.6 1605.5 36.65 1605.5 31.75 1605.5 28.2 1604.25 24.75 1602.85 24.75 1600.9 24.75 1599.05 28.2 1597.7 31.75 1596.45 36.65 1596.45 41.6 1596.45 45.05 1597.7
M 41.4 1619.95
Q 45.5 1618.85 51.15 1618.85 56.75 1618.85 60.75 1619.95 64.75 1621.05 64.75 1622.7 64.75 1624.25 60.75 1625.3 56.75 1626.5 51.15 1626.5 45.5 1626.5 41.4 1625.3 37.4 1624.25 37.4 1622.7 37.4 1621.05 41.4 1619.95
M 1196.95 1614.65
Q 1196.85 1613.85 1196.85 1613.1
L 1196.2 1614.25
Q 1196.55 1614.4 1196.95 1614.65
M 1217.4 1631.55
Q 1217.7875 1631.55 1218.2 1631.55 1217.74296875 1631.5400390625 1217.5 1631.2 1217.4 1631.1 1217.4 1631.55
M 1122.75 2311.35
Q 1123 2311.05 1123.65 2310.95 1123.15 2310.95 1122.75 2310.95 1122.75 2311.2 1122.75 2311.35
M 1022.4 2320.95
Q 1022.63828125 2321.18828125 1022.65 2321.55 1022.6453125 2320.6046875 1022.4 2320.85
L 1022.4 2320.95 Z"/>

<path fill="#CBE6FA" stroke="none" d="
M 1120.2 1793.05
Q 1110.9 1797.9 1110.9 1807.5 1110.9 1821.9 1142.4 1831 1142.8 1831.15 1143.25 1831.25 1169.25 1838.6 1195.65 1838.6 1207.5 1838.6 1220.95 1837.6 1234.45 1836.55 1248.95 1836.55 1310 1839.5 1318.2 1839.5
L 1318.15 1839.4
Q 1318.55 1839.4 1319.1 1839.1 1319.45 1838.85 1319.45 1839.4 1319.7259765625 1839.3966796875 1320 1839.4
L 1320 1817.2
Q 1312.248828125 1820.1 1299.2 1820.1 1277.75 1820.1 1249.9 1815 1226.1 1809.85 1224.35 1809.85 1221.5 1809.85 1216.85 1810.85 1210.7 1812.3 1206.35 1813.15 1205.05 1813.4 1189.25 1818.3 1178.7 1821.55 1178.45 1819.75 1178.45 1821.15 1178.3 1820.1 1178.2 1819.85 1178.45 1819.75
L 1178.45 1819.7
Q 1159.35 1819.7 1147 1816.4 1131.75 1812.5 1131.75 1804.8 1131.75 1798.25 1136.5 1793.05 1137.1 1792.5 1137.65 1791.95 1140.35 1789.4 1146 1785.7
L 1138.3 1785.7
Q 1134.7 1787 1131.7 1788.25 1124.05 1791.1 1120.2 1793.05 Z"/>

<path fill="#F4FCFF" stroke="none" d="
M 1211.6 1729.8
Q 1210.55 1729.7 1203.4 1730.6 1196.2 1731.5 1189.5 1738.2 1187.55 1740.2 1186.55 1745 1185.8 1748.45 1185.8 1751.3 1185.25 1751.3 1180.9 1750.75 1176.5 1750.1 1174.75 1750.1 1165.1 1750.1 1160 1755 1155.5 1759.35 1155.5 1766.2 1155.5 1769.4 1155.75 1770.4 1156.5 1773 1159.6 1777.5 1151.4 1782.2 1146 1785.7 1140.35 1789.4 1137.65 1791.95 1137.1 1792.5 1136.5 1793.05 1141.75 1797.1 1150.2 1799.7 1165.4 1804.45 1188.85 1804.55 1188.9 1804.55 1189.1 1804.55 1189.1 1805.2 1198.85 1804.8 1209.7 1804.35 1216.6 1802.5 1217.306640625 1802.34296875 1219.1 1801.5 1221.87421875 1800.19609375 1227.25 1797.25 1235.85 1792.65 1236.25 1792.65 1238.05 1792.65 1241.15 1794.95 1245.6 1798.25 1249.45 1800.05 1251.0947265625 1800.8150390625 1252.95 1801.5 1268.8025390625 1807.3970703125 1299.4 1807.4 1299.190625 1807.40625 1299.05 1807.5 1303 1807.5 1309.45 1807.65 1315.5294921875 1807.68515625 1320 1807.55
L 1320 1776
Q 1315.8271484375 1775.295703125 1310.1 1774.65 1312.25 1763.45 1298.05 1753.55 1288.9 1747.15 1279.7 1746.25 1276.55 1733.4 1272.85 1729.45 1271.9 1728.4126953125 1270.5 1727.6 1265.573828125 1724.7 1255.1 1724.7 1248.6716796875 1724.7 1244.6 1726.35 1243.2794921875 1726.91796875 1242.2 1727.65 1237.95 1730.6 1233.4 1739.45 1217.65 1730.5 1215.1 1730.1 1212.6 1729.7 1211.6 1729.8
M 1247.95 1582.8
Q 1244.95 1579.45 1242.2 1579.45 1235.85 1579.45 1229.95 1586.6 1224.2 1595.1 1221.9 1597.85 1219.85 1595.75 1219.15 1595.15 1217.9 1594.2 1215.6 1594.2 1207 1594.2 1198.6 1609.85 1197.7 1611.4 1196.85 1613.1 1196.85 1613.85 1196.95 1614.65 1201.3 1616.85 1206.1 1618.75 1218.65 1623.75 1227.9 1623.75 1237.95 1623.75 1244.45 1621.05 1245.39375 1620.6830078125 1247.25 1619.65 1250.784765625 1617.7283203125 1257.55 1613.5 1260.3615234375 1616.352734375 1268.1 1619.65 1269.7564453125 1620.340234375 1271.6 1621.05 1284.15 1625.8 1294.3 1625.8 1304.1 1625.8 1314.75 1620.7 1317.0337890625 1619.6369140625 1320 1618
L 1320 1613.2
Q 1318.8962890625 1611.3166015625 1317.2 1609.35 1315.6 1607.3 1313.3 1605.25 1303.7 1596.65 1292.65 1596.65 1286.25 1596.65 1283.75 1594.2 1282.5 1592.9 1281.35 1588.7 1280.3 1584.75 1278.1 1583.15 1274.75 1580.7 1266.8 1580.7 1258.6 1580.7 1257.35 1581.25 1255.15 1582.25 1251 1588.85
L 1250.6 1588.45
Q 1250.8 1586.1 1247.95 1582.8
M 58.45 1525.25
Q 62.0626953125 1526.3765625 65.9 1527.2 139.8544921875 1523.7912109375 213.9 1521.05 234.8677734375 1519.678125 255.9 1518.45 256.265625 1518.4197265625 256.6 1518.4 256.6 1518.1439453125 256.6 1517.9 255.85 1517.65 255.15 1517.5 203.25 1503.85 165.6 1503.85 161.5 1503.85 129.45 1507.15 97.4 1510.45 93.3 1510.45 74.3 1510.45 58.45 1505.5 42.65 1500.6 29.15 1500.6 13.778125 1500.6 0 1503.65
L 0 1523.35
Q 13.778125 1520.3 29.15 1520.3 42.65 1520.3 58.45 1525.25
M 1317.55 1499.7
Q 1317.11484375 1499.6427734375 1316.6 1499.7 1316.1 1499.7 1315.45 1499.8 1314.7359375 1499.8931640625 1314.05 1500.05 1313.67890625 1500.1984375 1313.3 1500.35 1313.25 1500.3 1313.25 1500.2 1301.95 1501.45 1274.4 1508.2 1263.5490234375 1510.8755859375 1255.6 1512.65 1256.619921875 1512.69765625 1257.65 1512.7 1288.8138671875 1513.399609375 1320 1514.15
L 1320 1499.95
Q 1319.0818359375 1499.953125 1318.15 1499.95 1317.871875 1499.8001953125 1317.55 1499.7
M 629.05 2465.45
Q 612.6 2465.45 609.4 2465.85 593.5 2468 585.95 2480.6 583.85 2484.15 582.55 2488.3 582.3 2488.95 582.05 2489.7 580.05 2496.25 579.9 2504.25 585.8 2510.6 596.75 2513.85 609.2 2517.55 633.95 2517.55 637.0404296875 2517.55 640.7 2516.8 647.4228515625 2515.4951171875 656.1 2511.75 656.125 2511.7640625 656.15 2511.75 656.98671875 2511.3859375 657.85 2511 665.25 2507.7 670.85 2504.45 671.8763671875 2504.45 673.95 2505.35 674.3228515625 2505.5009765625 674.7 2505.65 677.9244140625 2507.18125 683.3 2510.5 694.8 2517.55 702.9 2520 709.35 2521.95 724.85 2523.1 728.106640625 2523.3583984375 731.2 2523.55 740.04765625 2524.1 747.5 2524.1 755.22890625 2524.1 762 2523.55 763.0158203125 2523.4685546875 764 2523.35 783.8107421875 2521.461328125 795.15 2514.6 804 2509.2 824.05 2491.35 822.7 2483.45 815.3 2479.45 814.75 2479.15 814.15 2478.9 813.9 2478.75 813.65 2478.65 812.95 2478.3 812.2 2478 808.1 2476.35 800.5 2474.9 789.95 2472.85 788.1 2472.4 783.2 2471.2 776.85 2461.35 769.2 2449.75 762.75 2445.4 756.2 2441 746.45 2438.45 738.85 2436.4 733.6 2436.4 721 2436.4 696.6 2449.9 692.5 2447.45 688.9 2446.15 682.25 2443.75 670.45 2443.75 652.85 2443.75 641.3 2462.6 639.5 2465.45 629.05 2465.45
M 228.5 2164.15
Q 216.8 2164.15 211.05 2168.75 209.344140625 2170.051953125 205.15 2175.55 204.6607421875 2176.170703125 204.15 2176.85
L 198.95 2176.85
Q 178.55 2180.2 171.5 2184.15 167.265234375 2186.53203125 164.7 2190.2 163.3796875 2192.083984375 162.5 2194.3 160.95 2198.3 160.75 2203.45 166.35 2207.45 176.35 2210.55 190.65 2215 205.5 2215 220.55 2215 230.6 2208.3 237.4 2203.8 243.2 2194.85 246.65 2200.6 260 2204.45 272.3 2208.05 285.15 2208.05 299.15 2208.05 304.4 2204.75 309.3 2201.75 309.3 2193.85 309.3 2190.35 308.3 2187.95 308.15 2187.9 308 2187.9 300.35 2187.15 299.9 2186.65 285.9 2172.85 279.9 2168 270.1 2160.05 257.8 2160.05 254.1 2160.05 249.2 2163.55 244.3 2167 243.9 2167 243.55 2167 238.65 2165.6 233.7 2164.15 228.5 2164.15
M 969.1 2251.45
Q 965 2262.75 963.6 2263.45 954.65 2267.05 949.65 2269.2 948.6 2269.6 947.8 2270 952.8 2274.05 964.35 2279.35 983.2177734375 2288.072265625 997.55 2288.75 998.8556640625 2288.85 1000.1 2288.85 1007.95 2288.85 1024.65 2283.1 1032.810546875 2280.323046875 1037.2 2278.9 1038.2884765625 2278.548046875 1039.15 2278.25 1041.9466796875 2277.4 1042.3 2277.4 1044 2277.4 1066.45 2286.8 1092.9 2296.2 1114.6 2296.2
L 1114.65 2296.2
Q 1141.367578125 2296.185546875 1166.3 2275.6 1165.2 2268.3 1162.25 2262.8 1159.55 2257.9 1155.35 2254.4 1142 2243.25 1112.95 2246.25 1114.9 2231.6 1098.1 2225.15 1086.75 2220.75 1069.8 2220.75 1056.5 2220.75 1046.35 2226.05 1042.2 2228.25 1038.35 2231.45 1036.3 2231.35 1033.7 2231.35 1023.7 2231.35 1021.7 2232.35 1016.8 2234.65 1012 2246.25 1008.8 2246.25 997.65 2243.4 987.1 2240.55 986.95 2240.55 975.15 2240.55 969.1 2251.45 Z"/>

<path fill="#3780AD" stroke="none" d="
M 118.9 1444.95
Q 118.3095703125 1445.173046875 117.7 1445.45 115.657421875 1446.6140625 113.8 1448.85 113.7703125 1448.9185546875 113.7 1448.95 113.6759765625 1449.0353515625 113.6 1449.1 113.5779296875 1449.1568359375 113.5 1449.2 113.4806640625 1449.3015625 113.4 1449.35 113.373046875 1449.435546875 113.3 1449.5 113.2734375 1449.558984375 113.2 1449.6 113.1763671875 1449.70390625 113.1 1449.75 113.0740234375 1449.8310546875 113 1449.9 112.9783203125 1449.9736328125 112.9 1450.05 112.8771484375 1450.1240234375 112.8 1450.2 112.7791015625 1450.26953125 112.7 1450.35 112.678515625 1450.419140625 112.6 1450.5 111.1453125 1452.7419921875 109.85 1455.8 106.3 1464.5 104.65 1477.95 103.15 1472.1 101.85 1467.05 99.45 1457.65 93.7 1457.65 89.75 1457.65 88.3 1459.95 84.2 1466.15 80.85 1469.55
L 80.85 1468.85
Q 82.45 1463 81.45 1453.15 80.4 1443.25 75.25 1442.95
L 70.25 1442.95
Q 67.65 1444.35 65.2 1450.3 63.3 1455.2 61.9 1461.85
L 61.9 1461.15
Q 63.5 1455.65 56.5 1441.35 54.6166015625 1437.4994140625 53.05 1434.7 49.010546875 1427.55 47.1 1427.55 44.49921875 1427.55 42.15 1430.15 38.277734375 1434.523046875 35.1 1446.05 31.05 1460.45 31.05 1468.85
L 30.3 1468.15
Q 29.65 1462 26.9 1456.5 23.55 1449.95 19.45 1449.95 16.7 1449.95 13.5 1454.6 9.8 1460.05 7.9 1468.85
L 7.9 1468.15
Q 7.9 1456.5515625 5 1446 4.9880859375 1445.8873046875 4.95 1445.75 2.87578125 1438.2939453125 0 1435
L 0 1503.65
Q 13.778125 1500.6 29.15 1500.6 42.65 1500.6 58.45 1505.5 74.3 1510.45 93.3 1510.45 97.4 1510.45 129.45 1507.15 161.5 1503.85 165.6 1503.85 203.25 1503.85 255.15 1517.5 255.85 1517.65 256.6 1517.9 256.6 1518.1439453125 256.6 1518.4
L 256.65 1518.4
Q 256.7251953125 1518.404296875 256.8 1518.4 256.65 1509.75 256.35 1505.35 255.45 1488.45 245.85 1488.45 245.5966796875 1488.45 245.35 1488.45 244.67890625 1488.471484375 243.95 1488.55 242.4005859375 1488.7134765625 240.65 1489.15 240.093359375 1489.2791015625 239.5 1489.45 239.19296875 1489.5416015625 238.85 1489.65 236.6953125 1490.33984375 234.25 1491.4 234.1923828125 1491.458203125 234.1 1491.5 232.740625 1492.148828125 231.55 1492.85 230.8185546875 1493.2916015625 230.15 1493.75 230.15 1491.9 230.15 1490.4 230.14296875 1490.06484375 230.1 1489.75 230.07265625 1488.4236328125 229.9 1487.3 229.6330078125 1485.1763671875 228.95 1483.75 228.7611328125 1483.255859375 228.5 1482.85 227.2796875 1480.921484375 225.1 1480.75 224.9623046875 1480.7529296875 224.8 1480.75
L 224.75 1480.75
Q 220.95 1480.75 214.25 1486.7 208.15 1491.9 206.05 1496.85 206.8 1494.7 206.9 1493.45 206.95 1492.65 206.95 1487.4 206.95 1475.79140625 201.5 1474.6 200.920703125 1474.5 200.25 1474.5 193.25 1474.5 184.25 1482.05 184.172265625 1482.1166015625 184.1 1482.15 183.4685546875 1482.721875 182.85 1483.25 182.5041015625 1483.6271484375 182.15 1483.95 181.6603515625 1484.44609375 181.15 1484.9 174.14375 1492.1232421875 171.55 1501.25 171.3994140625 1501.84453125 171.25 1502.45
L 171.25 1500.4
Q 171.25 1496.85 169.75 1490.85 168.05 1483.65 165.9 1483.65 164 1483.65 159.65 1489.2 155 1495.05 153.75 1499.65
L 153.75 1495.75
Q 155.75 1477.95 155.75 1474.75 156.3 1467.2 155.75 1464 154.85 1458.4 149.5 1458.4 146.1 1458.4 141.8 1460.2 136.1 1462.6 134.55 1467.1 135.3 1461.7 132.35 1454.2 128.45 1444.35 122.15 1444.35 120.4630859375 1444.35 118.9 1444.95
M 1320 1479.85
Q 1319.6953125 1481.3009765625 1319.45 1482.85 1319.3869140625 1483.2888671875 1319.3 1483.7 1319.2875 1483.9625 1319.25 1484.2
L 1319.2 1484.6
Q 1318.6 1489.2 1317.85 1497.7 1317.7140625 1498.7869140625 1317.55 1499.7 1317.871875 1499.8001953125 1318.15 1499.95 1319.0818359375 1499.953125 1320 1499.95
L 1320 1479.85
M 1314.05 1500.05
Q 1313.3921875 1496.4826171875 1312.65 1491.5 1311.25 1482.2 1307.3 1482.2 1303.3 1482.15 1298.65 1487.2 1292.95 1493.45 1288.75 1495.45
L 1288.75 1494.8
Q 1289.35 1489 1289 1483.65 1288.25 1473.15 1283.05 1473.15 1280.5 1473.15 1276.1 1478.7 1273.35 1482.15 1272.45 1484.2 1272.7 1481.5 1273 1478.35 1273.1533203125 1475.7431640625 1273.25 1474 1273.2595703125 1473.7822265625 1273.25 1473.55 1273.3453125 1471.765234375 1273.35 1470.95
L 1273.35 1470.9
Q 1273.36484375 1470.7328125 1273.35 1470.55 1273.4912109375 1469.21875 1273.55 1467.9 1273.5607421875 1467.5767578125 1273.55 1467.25 1273.630859375 1464.3857421875 1273.4 1461.65 1273.386328125 1461.55 1273.35 1461.4 1273.3626953125 1461.281640625 1273.35 1461.15 1273.20625 1459.5234375 1272.95 1458.2
L 1272.95 1458.15
Q 1272.6546875 1456.6064453125 1272.2 1455.45 1271.3888671875 1453.266015625 1270.05 1452.5 1269.819921875 1452.3671875 1269.55 1452.25 1269.180859375 1452.1388671875 1268.75 1452.1
L 1268.65 1452.1
Q 1268.6095703125 1452.101171875 1268.55 1452.1
L 1268.5 1452.1
Q 1268.4841796875 1452.1 1268.45 1452.1 1266.68046875 1452.1 1264.9 1452.5 1264.275390625 1452.6732421875 1263.65 1452.85 1259.4548828125 1454.2166015625 1255.2 1457.9 1248.65 1463.45 1248.05 1468.85
L 1248.05 1468.15
Q 1248.05 1467.437109375 1248 1466.7 1248.0134765625 1466.386328125 1248 1466.05 1247.72265625 1460.779296875 1246.05 1454.4 1246.00859375 1454.11484375 1245.9 1453.8 1245.8986328125 1453.7197265625 1245.85 1453.6
L 1245.85 1453.55
Q 1243 1443.6 1239.35 1443.6 1234 1443.6 1229.55 1452.8 1229.349609375 1453.2171875 1229.15 1453.65 1228.452734375 1455.2044921875 1227.9 1456.8 1227.8603515625 1456.94453125 1227.8 1457.05 1225.1453125 1464.87890625 1225.55 1474.4 1225.5666015625 1474.5568359375 1225.55 1474.7 1225.59140625 1474.8701171875 1225.6 1475 1225.6140625 1475.19765625 1225.6 1475.35 1225.6376953125 1475.566796875 1225.65 1475.75 1225.6626953125 1475.90625 1225.65 1476.05 1225.61328125 1476.0849609375 1225.55 1476.1 1224.6322265625 1474.1798828125 1223.8 1470.25 1222.55 1464.35 1222.15 1462.95 1221.4572265625 1460.6623046875 1220.5 1458.95 1217.813671875 1454.2 1213.05 1454.2 1212.091796875 1454.2 1211.2 1454.45 1210.982421875 1454.5552734375 1210.75 1454.65 1210.3240234375 1454.836328125 1209.9 1455.1 1207.38125 1456.73515625 1205.8 1461.25 1205.6529296875 1461.6685546875 1205.5 1462.05 1205.4322265625 1462.3740234375 1205.35 1462.65 1205.081640625 1463.61796875 1204.85 1464.65 1204.6998046875 1465.29765625 1204.55 1465.95 1204.4224609375 1466.6724609375 1204.3 1467.4 1204.229296875 1467.83984375 1204.15 1468.3 1203.962890625 1469.65703125 1203.8 1471.15 1203.4 1475.3 1203.35 1497.6
L 1202.75 1496.45
Q 1202.6142578125 1496.205859375 1202.45 1495.95 1202.29453125 1495.608984375 1202.1 1495.25 1200.352734375 1491.978125 1198.4 1488.75 1197.5763671875 1487.347265625 1196.7 1485.95 1196.605859375 1485.7689453125 1196.5 1485.6 1196.33359375 1485.335546875 1196.15 1485.05 1190.3373046875 1475.9 1188.1 1475.9 1184.85 1475.9 1183.05 1480.05 1181.45 1483.85 1182.05 1488.4 1180.65 1479.85 1178.95 1474.65 1178.9240234375 1474.56875 1178.9 1474.5 1178.291015625 1472.6212890625 1177.55 1471.1 1177.4734375 1470.8892578125 1177.35 1470.65 1177.258984375 1470.4767578125 1177.15 1470.25 1175.8005859375 1467.7697265625 1174.05 1466.35 1172.25703125 1464.8857421875 1170 1464.65 1169.9923828125 1464.65390625 1169.95 1464.65 1169.9154296875 1464.6533203125 1169.85 1464.65 1169.842578125 1464.6529296875 1169.8 1464.65 1169.7443359375 1464.6525390625 1169.7 1464.65 1169.5966796875 1464.653125 1169.5 1464.65 1169.4447265625 1464.6509765625 1169.4 1464.65 1169.3455078125 1464.6505859375 1169.3 1464.65 1169.2458984375 1464.65 1169.2 1464.65 1163.4806640625 1464.65 1160.4 1471.8 1158.7908203125 1475.5626953125 1157.9 1481.25 1156.55 1489.9 1156.3 1501.1
L 1155.6 1501.1
Q 1154.45 1497.7 1150.75 1491.3 1146.7 1484.3 1145.45 1484.3 1139.65 1484.3 1136.9 1494 1134.6 1502.3 1136 1506.1
L 1135.25 1505.35
Q 1135.25 1495.9 1133.25 1485.1 1130.6150390625 1470.9712890625 1126 1469.65 1125.534375 1469.55 1125.05 1469.55 1121.9650390625 1469.55 1117 1476.85 1116.5236328125 1477.6251953125 1116 1478.45 1115.7150390625 1478.8986328125 1115.4 1479.3 1115.152734375 1479.7736328125 1114.85 1480.2 1113.1380859375 1482.93046875 1111.6 1485.25 1104.6552734375 1496.111328125 1102.4 1498.95 1103.5 1494.4 1101.55 1488.65 1099.6 1482.9 1096.7 1482.9 1092.25 1482.9 1089.15 1488.55 1088.15 1490.25 1085.5 1497.6
L 1085.5 1496.95
Q 1083.4 1486.5 1082.15 1482.75 1080.05 1476.55 1073.95 1476.55 1070 1476.55 1066.8 1486.5 1064.65 1492.95 1063.15 1502.55
L 1062.45 1501.8
Q 1059.65 1498.1 1058.7 1497.1 1057.2 1495.45 1053.35 1495.45 1049.1 1495.45 1047.1 1496.2 1042.05 1497.9 1042.05 1503.5 1042.05 1506.7 1042.65 1509.35 1075.1 1509.7 1107.65 1510.1 1181.5658203125 1511.0763671875 1255.55 1512.65
L 1255.6 1512.65
Q 1263.5490234375 1510.8755859375 1274.4 1508.2 1301.95 1501.45 1313.25 1500.2 1313.25 1500.3 1313.3 1500.35 1313.67890625 1500.1984375 1314.05 1500.05 Z"/>

<path fill="#22688F" stroke="none" d="
M 15.7 1350.6
Q 9.944140625 1346.9416015625 0 1346.85
L 0 1390.25 2.65 1367.4 3.15 1392.05 22.05 1384.25 3.25 1399.05 3.65 1416.75 31.9 1411.4 3.75 1423.3 4.05 1438.6 37.9 1436.15 5 1446
Q 7.9 1456.5515625 7.9 1468.15
L 7.9 1468.85
Q 9.8 1460.05 13.5 1454.6 16.7 1449.95 19.45 1449.95 23.55 1449.95 26.9 1456.5 29.65 1462 30.3 1468.15
L 31.05 1468.85
Q 31.05 1460.45 35.1 1446.05 38.277734375 1434.523046875 42.15 1430.15
L 25.15 1422.4 47 1426.55 47.9 1414.45 29 1401.5 48.4 1408.2 49.4 1394.2 34.35 1383 49.8 1388.75 51.2 1369.9 51.75 1388.6 66.85 1382.2 51.9 1394.5 52.35 1407.75 68.6 1404.35
Q 69.15 1404.7 69.75 1405.1
L 52.5 1413.9 52.9 1427.75 76.4 1421.25 53.05 1434.65 53.05 1434.7
Q 54.6166015625 1437.4994140625 56.5 1441.35 63.5 1455.65 61.9 1461.15
L 61.9 1461.85
Q 63.3 1455.2 65.2 1450.3 67.65 1444.35 70.25 1442.95
L 75.25 1442.95
Q 80.4 1443.25 81.45 1453.15 82.45 1463 80.85 1468.85
L 80.85 1469.55
Q 84.2 1466.15 88.3 1459.95 89.75 1457.65 93.7 1457.65 99.45 1457.65 101.85 1467.05 103.15 1472.1 104.65 1477.95 106.3 1464.5 109.85 1455.8 111.1453125 1452.7419921875 112.6 1450.5 111.405078125 1451.808203125 110.3 1453.6
L 110.95 1441.05 85.85 1427.85 111.2 1435.65 112.1 1417.75 91.15 1404.85 112.4 1412.25 113.25 1395 94.85 1383.45 113.55 1389 114.55 1368.65 115.8 1389.65 134.75 1380.55 116.2 1396.65 117 1411.85 143.35 1406.5 117.45 1418.5 118.25 1432.75 154.45 1427.45 118.65 1439.9 118.9 1444.95
Q 120.4630859375 1444.35 122.15 1444.35 128.45 1444.35 132.35 1454.2 135.3 1461.7 134.55 1467.1 136.1 1462.6 141.8 1460.2 146.1 1458.4 149.5 1458.4 154.85 1458.4 155.75 1464 156.3 1467.2 155.75 1474.75 155.75 1477.95 153.75 1495.75
L 153.75 1499.65
Q 155 1495.05 159.65 1489.2 164 1483.65 165.9 1483.65 168.05 1483.65 169.75 1490.85 171.25 1496.85 171.25 1500.4
L 171.25 1502.45
Q 171.3994140625 1501.84453125 171.55 1501.25 174.14375 1492.1232421875 181.15 1484.9 181.6603515625 1484.44609375 182.15 1483.95
L 182.15 1483.95 182.45 1478.9 162.25 1468.45 182.85 1473.15 183.6 1461.6 163.9 1449.2 184 1455.6 184.6 1446.4 165.55 1437.3 184.9 1441.65 186.05 1422.85 187.6 1442.2 200 1433.5 188 1447.7 188.75 1457.15 204.6 1452.65 204.75 1452.65 189.25 1463.45 189.9 1471.25 209.95 1471.25 201.5 1474.6
Q 206.95 1475.79140625 206.95 1487.4 206.95 1492.65 206.9 1493.45 206.8 1494.7 206.05 1496.85 208.15 1491.9 214.25 1486.7 220.95 1480.75 224.75 1480.75
L 224.8 1480.75
Q 224.9623046875 1480.7529296875 225.1 1480.75
L 225.1 1480.75 214.2 1474.05 232.45 1480.45 233.5 1466.6 215.05 1457.4 233.85 1461.4 234.65 1450.35 224.3 1438.1 235.05 1445 236.2 1428.6 237.1 1445.55 252.45 1439.75 237.45 1450.75 238 1462.25 252.45 1459.7
Q 253.95 1459.85 255.35 1460.1
L 238.35 1468.65 239 1480.05 262.95 1476.35 239.35 1485.8 239.5 1489.45
Q 240.093359375 1489.2791015625 240.65 1489.15 242.4005859375 1488.7134765625 243.95 1488.55 244.67890625 1488.471484375 245.35 1488.45 245.5966796875 1488.45 245.85 1488.45 255.45 1488.45 256.35 1505.35 256.65 1509.75 256.8 1518.4 267.33203125 1517.8015625 277.85 1517.2
L 278.3 1512.45 256.75 1500.55 278.9 1505.4 280.15 1490.9 262.7 1480.2 280.7 1484.3 281.75 1471.9 267.4 1459.95 282.25 1465.5 283.8 1446.7 284.3 1465.45 299.25 1459.45 284.4 1471.2 284.7 1483.9 304 1480.45 285.7 1491.15 284.9 1491.55 285.2 1505.35 309.75 1501.4 285.4 1512.25 285.5 1516.8
Q 316.0724609375 1515.203515625 346.65 1513.8
L 346.8 1511.9 326 1502.85 347.1 1507.65 347.75 1499 332.65 1490.3 348.1 1495.3 348.75 1486.3 333.65 1479.45 349 1483.15 349.9 1471.2 350.9 1484.5 362.85 1478.8 351.2 1488.35 351.7 1495.9 369.85 1492.35 352.05 1500.25 352.6 1508.05 352.6 1508.1 373.15 1503.95 352.95 1512.05 353.05 1513.55
Q 436.05546875 1509.8857421875 519.1 1508.05 541.8 1507.45 564.55 1507.15 561.2 1506.25 557.65 1505.45 543.25 1502.1 519.1 1498.45 518.5 1498.35 517.95 1498.3 513.75 1474.35 508.85 1469.15 505.95 1466.2 500.8 1465.4 497.15 1464.65 487.75 1464.65 481.3 1464.65 466.2 1473.5 452.3 1481.65 449.25 1485.7 446.85 1482.15 444.7 1477.45 441.95 1471.05 441.7 1470.7 438.5 1464.65 431 1464.65 419.3 1464.65 406.8 1473.35 398.05 1479.45 390.45 1488.45 386.05 1486.25 381.75 1481.1 377.15 1474.85 374.75 1471.7 365.8 1460.25 353.9 1460.25 345.4 1460.25 330.4 1470.25 322.5 1475.4 310.55 1482.9 311.55 1478.95 312.45 1471.15 313.35 1464 313.35 1461 313.35 1444.2 306.35 1437.95 300.05 1432.35 283.9 1432.35 279.2 1432.15 277.4 1432.15 274.4 1432.35 272.5 1433.25 268.55 1435.3 263.2 1446.8 267.9 1435.85 258.3 1424.4 248.4 1412.8 234.85 1412.8 229.5 1412.8 222.15 1421.4 215.15 1429.6 212.4 1437.95 212.9 1418.2 209.1 1411.25 205.35 1404.4 192.85 1404.4 182.85 1404.4 178 1407.65 177.15 1408.35 166.1 1419.8 162.1 1393 147.65 1368.4 133.25 1343.55 108.15 1351.25 95.25 1355.95 78 1381.95 69.6 1358.1 66.1 1352.45 61.65 1345.45 53.35 1345.45 32.65 1345.45 31.75 1369.35
L 30.3 1369.35
Q 23.15 1355.5 15.7 1350.6
M 1320 1418.05
Q 1319.975 1418.075390625 1319.95 1418.1 1317.1 1420.9 1313.15 1427.9 1306.65 1439.5 1305.6 1441.2 1300.8525390625 1448.8513671875 1295.3 1454.55 1294.8267578125 1455.0310546875 1294.35 1455.5 1294.35 1455.4310546875 1294.35 1455.35
L 1294.35 1455
Q 1294.3384765625 1454.7224609375 1294.3 1454.4 1294.31328125 1454 1294.3 1453.55 1293.9712890625 1447.0318359375 1291.45 1438.1 1291.4123046875 1437.8939453125 1291.35 1437.65 1291.269921875 1437.3537109375 1291.15 1437 1290.972265625 1436.3123046875 1290.75 1435.55 1290.7052734375 1435.3826171875 1290.65 1435.2 1284.9 1416.3 1274.35 1416.3 1268.1 1416.3 1259.4 1426.05 1251.05 1436.75 1249.45 1438.75 1246.6 1434.3 1242.8 1426.7 1239.5 1420.25 1233.5 1413.35 1227.45 1406.45 1207.6 1407.35 1204.3 1407.6 1200.15 1408.85 1183.8 1413.6 1173.8 1423.95 1168.25 1429.85 1162.9 1440.05 1157.65 1450 1154.9 1452.75 1150.4 1444.1 1146.85 1439.5 1140.45 1431 1134.15 1429.85 1127.8 1428.55 1117.85 1432.15 1107.9 1435.7 1105.6 1439.5 1103.2 1443.35 1100.65 1451.7 1098.15 1460.05 1098.2 1461.85 1093.6 1456.75 1084.3 1454.55 1077 1452.75 1065.9 1452.75 1065.85 1452.75 1065.65 1452.75 1042.85 1452.9 1030.05 1472.75 1026.95 1477.7 1022.25 1486.4 1018.4 1492.65 1014.65 1492.65 1012.5 1492.65 1010.85 1491.3 1009 1489.3 1001.6 1484.55 994.1 1479.75 978.7 1481.5 964.7 1483.65 936.6 1492.1 911.2 1499.85 886.45 1508.55 964.5 1508.65 1042.65 1509.35 1042.05 1506.7 1042.05 1503.5 1042.05 1497.9 1047.1 1496.2 1049.1 1495.45 1053.35 1495.45 1057.2 1495.45 1058.7 1497.1 1059.65 1498.1 1062.45 1501.8
L 1063.15 1502.55
Q 1064.65 1492.95 1066.8 1486.5 1070 1476.55 1073.95 1476.55 1080.05 1476.55 1082.15 1482.75 1083.4 1486.5 1085.5 1496.95
L 1085.5 1497.6
Q 1088.15 1490.25 1089.15 1488.55 1092.25 1482.9 1096.7 1482.9 1099.6 1482.9 1101.55 1488.65 1103.5 1494.4 1102.4 1498.95 1104.6552734375 1496.111328125 1111.6 1485.25
L 1100.7 1473.3 1114.85 1480.2
Q 1115.152734375 1479.7736328125 1115.4 1479.3 1115.7150390625 1478.8986328125 1116 1478.45 1116.5236328125 1477.6251953125 1117 1476.85
L 1119.55 1466.2 1104.85 1454.35 1121.2 1459.45 1124.55 1445.1 1125.4 1459.55 1144.95 1455.6 1125.8 1466.8 1126 1469.65
Q 1130.6150390625 1470.9712890625 1133.25 1485.1 1135.25 1495.9 1135.25 1505.35
L 1136 1506.1
Q 1134.6 1502.3 1136.9 1494 1139.65 1484.3 1145.45 1484.3 1146.7 1484.3 1150.75 1491.3 1154.45 1497.7 1155.6 1501.1
L 1156.3 1501.1
Q 1156.55 1489.9 1157.9 1481.25 1158.7908203125 1475.5626953125 1160.4 1471.8 1163.4806640625 1464.65 1169.2 1464.65 1169.2458984375 1464.65 1169.3 1464.65 1169.3455078125 1464.6505859375 1169.4 1464.65 1169.4447265625 1464.6509765625 1169.5 1464.65 1169.5966796875 1464.653125 1169.7 1464.65 1169.7443359375 1464.6525390625 1169.8 1464.65 1169.842578125 1464.6529296875 1169.85 1464.65 1169.9154296875 1464.6533203125 1169.95 1464.65 1169.9923828125 1464.65390625 1170 1464.65 1172.25703125 1464.8857421875 1174.05 1466.35 1175.8005859375 1467.7697265625 1177.15 1470.25 1177.258984375 1470.4767578125 1177.35 1470.65 1177.4734375 1470.8892578125 1177.55 1471.1 1178.291015625 1472.6212890625 1178.9 1474.5 1178.9240234375 1474.56875 1178.95 1474.65 1180.65 1479.85 1182.05 1488.4 1181.45 1483.85 1183.05 1480.05 1184.85 1475.9 1188.1 1475.9 1190.3373046875 1475.9 1196.15 1485.05
L 1197.7 1472.15 1176 1458.5 1198.5 1465.3 1200.8 1445.9 1185.7 1437.25 1201.3 1441.3 1203.7 1420.8 1204.7 1442.2 1224.4 1432.75 1204.95 1448.6 1205.5 1462.05
Q 1205.6529296875 1461.6685546875 1205.8 1461.25 1207.38125 1456.73515625 1209.9 1455.1 1210.3240234375 1454.836328125 1210.75 1454.65 1210.982421875 1454.5552734375 1211.2 1454.45 1212.091796875 1454.2 1213.05 1454.2 1217.813671875 1454.2 1220.5 1458.95 1221.4572265625 1460.6623046875 1222.15 1462.95 1222.55 1464.35 1223.8 1470.25 1224.6322265625 1474.1798828125 1225.55 1476.1 1225.61328125 1476.0849609375 1225.65 1476.05 1225.6626953125 1475.90625 1225.65 1475.75 1225.6376953125 1475.566796875 1225.6 1475.35 1225.6140625 1475.19765625 1225.6 1475 1225.59140625 1474.8701171875 1225.55 1474.7 1225.5666015625 1474.5568359375 1225.55 1474.4 1225.1453125 1464.87890625 1227.8 1457.05 1227.8603515625 1456.94453125 1227.9 1456.8 1228.452734375 1455.2044921875 1229.15 1453.65 1229.349609375 1453.2171875 1229.55 1452.8 1234 1443.6 1239.35 1443.6 1243 1443.6 1245.85 1453.55
L 1245.85 1453.6
Q 1245.8986328125 1453.7197265625 1245.9 1453.8 1246.00859375 1454.11484375 1246.05 1454.4 1247.72265625 1460.779296875 1248 1466.05 1248.0134765625 1466.386328125 1248 1466.7 1248.05 1467.437109375 1248.05 1468.15
L 1248.05 1468.85
Q 1248.65 1463.45 1255.2 1457.9 1259.4548828125 1454.2166015625 1263.65 1452.85 1264.275390625 1452.6732421875 1264.9 1452.5 1264.1203125 1452.53515625 1263.35 1452.55
L 1254.35 1442.95 1268.35 1448.55 1273.6 1427.3 1273.2 1447.65 1284.95 1441.4 1273.05 1454.55 1272.95 1458.15 1272.95 1458.2
Q 1273.20625 1459.5234375 1273.35 1461.15 1273.3626953125 1461.281640625 1273.35 1461.4 1273.386328125 1461.55 1273.4 1461.65 1273.630859375 1464.3857421875 1273.55 1467.25 1273.5607421875 1467.5767578125 1273.55 1467.9
L 1292.75 1464.55 1273.25 1474
Q 1273.1533203125 1475.7431640625 1273 1478.35 1272.7 1481.5 1272.45 1484.2 1273.35 1482.15 1276.1 1478.7 1280.5 1473.15 1283.05 1473.15 1288.25 1473.15 1289 1483.65 1289.35 1489 1288.75 1494.8
L 1288.75 1495.45
Q 1292.95 1493.45 1298.65 1487.2 1303.3 1482.15 1307.3 1482.2 1311.25 1482.2 1312.65 1491.5 1313.3921875 1496.4826171875 1314.05 1500.05 1314.7359375 1499.8931640625 1315.45 1499.8 1316.1 1499.7 1316.6 1499.7 1317.11484375 1499.6427734375 1317.55 1499.7 1317.7140625 1498.7869140625 1317.85 1497.7 1318.6 1489.2 1319.2 1484.6
L 1319.25 1484.2
Q 1319.2875 1483.9625 1319.3 1483.7 1319.3154296875 1483.76875 1319.3 1483.8 1319.1134765625 1484.6951171875 1318.95 1485.65
L 1319.75 1478.4 1300.6 1466.7 1320 1471.05 1320 1455.2 1307.6 1446.15 1320 1450 1320 1418.05
M 228.5 1482.85
Q 228.7611328125 1483.255859375 228.95 1483.75 229.6330078125 1485.1763671875 229.9 1487.3 230.07265625 1488.4236328125 230.1 1489.75 230.14296875 1490.06484375 230.15 1490.4 230.15 1491.9 230.15 1493.75 230.8185546875 1493.2916015625 231.55 1492.85
L 232.1 1485.05 228.5 1482.85 228.5 1482.85 Z"/>

<path fill="#559DB5" stroke="none" d="
M 1320 1343.7
L 1297.2 1324.55 1277.55 1344.2 1233.2 1265.05
Q 1218.4 1269.7 1196.2 1278.8 1171.5 1288.85 1101.2 1320.25 1035.55 1349.55 1004.6 1361.75 987.4 1368.45 974.15 1372.85 950.6 1380.55 939.8 1380.55 920.9 1380.55 900.8 1376.1 888.3 1373.35 866.5 1366.45 843.9 1359.15 833 1356.6 814.05 1352.15 796.8 1352.15 760.05 1352.15 647.75 1377.9 589.65 1391.4 562.85 1397.45 551.3 1392.85 536.15 1385.65 526.3 1381.05 519.1 1377.6 499.4 1368.2 498.4 1367.65 477.45 1358.25 463.2 1355.05 417.75 1344.35 363.35 1338.55 336.05 1335.85 323.8 1334.45 302.75 1332.3 289.35 1329.85 268.8 1326.05 244.9 1316.65
L 200.5 1316.2 100.45 1258.7 80.85 1276.85 32.65 1204.25
Q 31.5 1204.45 30.6 1204.8 22.45 1207.5 9.05 1215.75 4.2392578125 1218.6841796875 0 1221.2
L 0 1346.85
Q 9.944140625 1346.9416015625 15.7 1350.6 23.15 1355.5 30.3 1369.35
L 31.75 1369.35
Q 32.65 1345.45 53.35 1345.45 61.65 1345.45 66.1 1352.45 69.6 1358.1 78 1381.95 95.25 1355.95 108.15 1351.25 133.25 1343.55 147.65 1368.4 162.1 1393 166.1 1419.8 177.15 1408.35 178 1407.65 182.85 1404.4 192.85 1404.4 205.35 1404.4 209.1 1411.25 212.9 1418.2 212.4 1437.95 215.15 1429.6 222.15 1421.4 229.5 1412.8 234.85 1412.8 248.4 1412.8 258.3 1424.4 267.9 1435.85 263.2 1446.8 268.55 1435.3 272.5 1433.25 274.4 1432.35 277.4 1432.15 279.2 1432.15 283.9 1432.35 300.05 1432.35 306.35 1437.95 313.35 1444.2 313.35 1461 313.35 1464 312.45 1471.15 311.55 1478.95 310.55 1482.9 322.5 1475.4 330.4 1470.25 345.4 1460.25 353.9 1460.25 365.8 1460.25 374.75 1471.7 377.15 1474.85 381.75 1481.1 386.05 1486.25 390.45 1488.45 398.05 1479.45 406.8 1473.35 419.3 1464.65 431 1464.65 438.5 1464.65 441.7 1470.7 441.95 1471.05 444.7 1477.45 446.85 1482.15 449.25 1485.7 452.3 1481.65 466.2 1473.5 481.3 1464.65 487.75 1464.65 497.15 1464.65 500.8 1465.4 505.95 1466.2 508.85 1469.15 513.75 1474.35 517.95 1498.3 518.5 1498.35 519.1 1498.45 543.25 1502.1 557.65 1505.45 561.2 1506.25 564.55 1507.15 653.35 1505.75 742.2 1506.5 805.7 1507 869.35 1508.55 877.3 1508.7 885.3 1508.95 885.85 1508.8 886.45 1508.55 911.2 1499.85 936.6 1492.1 964.7 1483.65 978.7 1481.5 994.1 1479.75 1001.6 1484.55 1009 1489.3 1010.85 1491.3 1012.5 1492.65 1014.65 1492.65 1018.4 1492.65 1022.25 1486.4 1026.95 1477.7 1030.05 1472.75 1042.85 1452.9 1065.65 1452.75 1065.85 1452.75 1065.9 1452.75 1077 1452.75 1084.3 1454.55 1093.6 1456.75 1098.2 1461.85 1098.15 1460.05 1100.65 1451.7 1103.2 1443.35 1105.6 1439.5 1107.9 1435.7 1117.85 1432.15 1127.8 1428.55 1134.15 1429.85 1140.45 1431 1146.85 1439.5 1150.4 1444.1 1154.9 1452.75 1157.65 1450 1162.9 1440.05 1168.25 1429.85 1173.8 1423.95 1183.8 1413.6 1200.15 1408.85 1204.3 1407.6 1207.6 1407.35 1227.45 1406.45 1233.5 1413.35 1239.5 1420.25 1242.8 1426.7 1246.6 1434.3 1249.45 1438.75 1251.05 1436.75 1259.4 1426.05 1268.1 1416.3 1274.35 1416.3 1284.9 1416.3 1290.65 1435.2 1290.7052734375 1435.3826171875 1290.75 1435.55 1290.972265625 1436.3123046875 1291.15 1437 1291.269921875 1437.3537109375 1291.35 1437.65 1291.4123046875 1437.8939453125 1291.45 1438.1 1293.9712890625 1447.0318359375 1294.3 1453.55 1294.31328125 1454 1294.3 1454.4 1294.3384765625 1454.7224609375 1294.35 1455
L 1294.35 1455.35
Q 1294.35 1455.4310546875 1294.35 1455.5 1294.8267578125 1455.0310546875 1295.3 1454.55 1300.8525390625 1448.8513671875 1305.6 1441.2 1306.65 1439.5 1313.15 1427.9 1317.1 1420.9 1319.95 1418.1 1319.975 1418.075390625 1320 1418.05
L 1320 1343.7 Z"/>

<path fill="#EEF7FC" stroke="none" d="
M 1320 1343.7
L 1320 1324.6
Q 1309.0958984375 1315.1548828125 1295 1299.1 1278.2 1279.55 1271.5 1272.1 1260.2 1259.9 1256.25 1259.9 1249.05 1259.9 1233.2 1265.05
L 1277.55 1344.2 1297.2 1324.55 1320 1343.7
M 200.5 1316.2
L 244.9 1316.65
Q 198.4 1298.45 139.5 1258.7 118.85 1244.85 83.35 1218.75 59.55 1201.2 56.9 1201.2 42.75 1201.2 32.65 1204.25
L 80.85 1276.85 100.45 1258.7 200.5 1316.2 Z"/>

<path fill="#067065" stroke="none" d="
M -796.45 2338.5
Q -796.05 2338.95 -795.7 2339.5 -795.4 2340.05 -795.4 2339.85 -795.55 2338.15 -795.55 2336.6 -795.6 2337.65 -796.45 2338.5 Z"/>
</g>

<g id="Layer65_0_FILL">
<path fill="#86D0FF" stroke="none" d="
M 1309.8 773.6
Q 1314.97734375 779.018359375 1320 784
L 1320 535.15
Q 1305.4712890625 526.2357421875 1289.1 518.65 1213 483.55 1105.1 480.95 992.75 478.3 856.15 511.3 711.7 546.15 550.35 618.7 398.4 687 268.3 695.85 164.25 703.05 78.85 672.05 48.2533203125 660.9490234375 21.55 645.6 10.4376953125 639.2509765625 0 632.15
L 0 755.45
Q 10.2818359375 756.419140625 21.55 756.7 56.8974609375 757.5859375 101.95 751.8 178.3 741.95 288.55 712 358.6 692.95 480.2 654.5 513.45 643.95 540.55 635.55 445.35 671.75 386.35 692.4 261.55 736 146.35 762 77.2744140625 777.53203125 21.55 783.6 10.51328125 784.8302734375 0 785.65
L 0 815.7
Q 7.3220703125 817.35390625 14.95 818.9 18.2599609375 819.5708984375 21.55 820.2 137.215625 842.8359375 229.15 831.8 304.55 822.65 380.6 787.5 407.1 775.25 445.3 754.35 506.6 720.8 509.4 719.35 588.2 677.75 655.75 660.55 733.15 640.75 841.75 654.1 929.9 665 1032.55 696.85 1110.85 721.05 1182.7 752.45 1209.65 764.15 1228.3 773.75 1245.1 782.45 1246.65 784.8 1248.5 787.7 1245.35 778.9 1241.85 769.1 1235.35 756.1 1215.9 717.1 1185.85 681.8 1260 721.4 1309.8 773.6
M 1320 530.75
L 1320 505.7
Q 1269.1494140625 482.158203125 1196.25 464.05 1082.55 435.75 964.75 450.55 825.55 468 666.6 546.35 576.4 590.7 505.3 611.3 425.65 634.35 354.95 632.25 279.55 630.05 205.85 599.05 129.55 567 48.65 501.5 35.198046875 502.5115234375 21.55 503.85 10.835546875 504.955859375 0 506.25
L 0 587.85 196.35 624.55
Q 370.3 657.15 533.1 613.85 600.15 596.1 671.7 563.9 725.95 539.5 797.2 499.85 854.5 468 940.95 458.25 1018.55 449.5 1104.6 459.75 1185.8 469.5 1248.7 492.8 1296.1744140625 510.3314453125 1320 530.75 Z"/>
</g>

<g id="_________________________________________0_Layer1_0_FILL">
<path fill="url(#Gradient_2)" stroke="none" d="
M 5.1 -161.4
Q 2.564453125 -161.45 0 -161.45 -66.9 -161.45 -114.2 -114.2 -161.45 -66.9 -161.45 0 -161.45 66.9 -114.2 114.15 -66.9 161.45 0 161.45 2.564453125 161.45 5.1 161.35
L 5.1 -161.4 Z"/>
</g>

<g id="_________________________________________0_Layer0_0_FILL">
<path fill="#FBFE84" stroke="none" d="
M 5.1 -116.95
Q 2.5703125 -117.05 0 -117.05 -48.5 -117.05 -82.8 -82.8 -117.05 -48.5 -117.05 0 -117.05 48.5 -82.8 82.75 -48.5 117.05 0 117.05 2.5703125 117.05 5.1 116.95
L 5.1 -116.95 Z"/>
</g>
</defs>

<g transform="matrix( 1, 0, 0, 1, 0,0) ">
<use xlink:href="#Layer66_0_FILL"/>
</g>

<g transform="matrix( 1, 0, 0, 1, 0,0) ">
<use xlink:href="#Layer65_0_FILL"/>
</g>

<g transform="matrix( 1.216278076171875, 0, 0, 1.216278076171875, 1313.8,622.15) ">
<g transform="matrix( 1, 0, 0, 1, 0,0) ">
<use xlink:href="#_________________________________________0_Layer1_0_FILL"/>
</g>

<g transform="matrix( 1, 0, 0, 1, 0,0) ">
<use xlink:href="#_________________________________________0_Layer0_0_FILL"/>
</g>
</g>
</svg>
