
<svg xmlns="http://www.w3.org/2000/svg" version="1.1" xmlns:xlink="http://www.w3.org/1999/xlink" preserveAspectRatio="none" x="0px" y="0px" width="190px" height="190px" viewBox="0 0 190 190">
<defs>
<g id="_____1_0_Layer1_0_FILL">
<path fill="#000000" fill-opacity="0.2980392156862745" stroke="none" d="
M 125.55 -2.1
L 10.1 -2.1
Q 3.8 -2.1 0.25 0.7 -4.25 4.2 -4.25 12.25
L -4.25 127.5
Q -4.25 141.85 10.1 141.85
L 125.55 141.85
Q 132.4 141.85 136 138.6 139.95 135.05 139.95 127.5
L 139.95 12.25
Q 139.95 -2.1 125.55 -2.1 Z"/>
</g>

<g id="_____1_0_Layer0_0_FILL">
<path fill="#999999" stroke="none" d="
M 4.2 2.6
Q 0 5.9580078125 0 13.5
L 0 122.1
Q 0 135.6 13.5 135.6
L 122.05 135.6
Q 128.4978515625 135.6 131.85 132.55
L 123.05 123.55
Q 120.14140625 126.25 114.55 126.25
L 20.95 126.25
Q 9.3 126.25 9.3 114.65
L 9.3 21.05
Q 9.3 14.4615234375 13.05 11.6
L 4.2 2.6 Z"/>

<path fill="#321919" stroke="none" d="
M 126.15 21.05
Q 126.15 9.45 114.55 9.45
L 20.95 9.45
Q 15.9169921875 9.45 13.05 11.6 9.3 14.4615234375 9.3 21.05
L 9.3 114.65
Q 9.3 126.25 20.95 126.25
L 114.55 126.25
Q 120.14140625 126.25 123.05 123.55 126.15 120.65859375 126.15 114.65
L 126.15 21.05
M 122.85 25.2
L 122.85 50.45 122.85 113.45
Q 122.85 118.3919921875 120.65 121.1 117.93046875 124.45 111.9 124.45
L 23.6 124.45
Q 12.65 124.45 12.65 113.5
L 12.65 87.4 12.65 25.2
Q 12.65 18.2478515625 17.05 15.7 19.6021484375 14.25 23.6 14.25
L 111.9 14.25
Q 122.85 14.25 122.85 25.2 Z"/>

<path fill="#623F35" stroke="none" d="
M 60.3 59.7
Q 35.8431640625 69.06015625 12.65 87.4
L 12.65 113.5
Q 12.65 124.45 23.6 124.45
L 111.9 124.45
Q 117.93046875 124.45 120.65 121.1 122.85 118.3919921875 122.85 113.45
L 122.85 50.45
Q 90.6005859375 48.2115234375 60.3 59.7 Z"/>

<path fill="#734A3F" stroke="none" d="
M 122.85 50.45
L 122.85 25.2
Q 122.85 14.25 111.9 14.25
L 23.6 14.25
Q 19.6021484375 14.25 17.05 15.7 12.65 18.2478515625 12.65 25.2
L 12.65 87.4
Q 35.8431640625 69.06015625 60.3 59.7 90.6005859375 48.2115234375 122.85 50.45 Z"/>

<path fill="#FFFFFF" stroke="none" d="
M 135.6 13.5
Q 135.6 0 122.05 0
L 13.5 0
Q 7.5419921875 0 4.2 2.6
L 13.05 11.6
Q 15.9169921875 9.45 20.95 9.45
L 114.55 9.45
Q 126.15 9.45 126.15 21.05
L 126.15 114.65
Q 126.15 120.65859375 123.05 123.55
L 131.85 132.55
Q 135.6 129.1759765625 135.6 122.1
L 135.6 13.5 Z"/>
</g>

<g id="____________0_Layer3_0_FILL">
<path fill="#990000" stroke="none" d="
M 114.2 98.1
Q 129.8 98.1 129.8 82.5
L 129.8 15.6
Q 129.8 0 114.2 0
L 15.55 0
Q 0 0 0 15.6
L 0 82.5
Q 0 98.1 15.55 98.1
L 114.2 98.1
M 124.35 8
Q 126.6 11.5 126.6 17.35
L 126.6 80.65
Q 126.6 95.45 111.85 95.45
L 17.9 95.45
Q 3.15 95.45 3.15 80.65
L 3.15 17.35
Q 3.15 2.55 17.9 2.55
L 111.85 2.55
Q 120.8 2.55 124.35 8 Z"/>

<path fill="#DF2C00" stroke="none" d="
M 92.2 47.25
Q 112.1 31.25 124.35 8 120.8 2.55 111.85 2.55
L 17.9 2.55
Q 3.15 2.55 3.15 17.35
L 3.15 80.65
Q 50.9 75.15 82.45 54.35
L 39.9 69.55 39.9 29.45 92.2 47.25
M 59.2 9.65
Q 62.1 11.25 62.1 13.7 62.1 16 59.2 17.65 56.45 19.3 52.4 19.3 48.4 19.3 45.5 17.65 42.65 16 42.65 13.7 42.65 11.3 45.5 9.65 48.35 8 52.35 8 56.45 8 59.2 9.65
M 29 10
Q 34.15 10 35.95 13.2 37.8 16.35 35.2 20.8 32.7 25.2 27.25 28.35 21.85 31.5 16.7 31.5 11.6 31.45 9.75 28.3 7.95 25.1 10.45 20.7 13.05 16.25 18.45 13.1 23.9 10 29 10 Z"/>

<path fill="#FF9176" stroke="none" d="
M 35.95 13.2
Q 34.15 10 29 10 23.9 10 18.45 13.1 13.05 16.25 10.45 20.7 7.95 25.1 9.75 28.3 11.6 31.45 16.7 31.5 21.85 31.5 27.25 28.35 32.7 25.2 35.2 20.8 37.8 16.35 35.95 13.2
M 62.1 13.7
Q 62.1 11.25 59.2 9.65 56.45 8 52.35 8 48.35 8 45.5 9.65 42.65 11.3 42.65 13.7 42.65 16 45.5 17.65 48.4 19.3 52.4 19.3 56.45 19.3 59.2 17.65 62.1 16 62.1 13.7 Z"/>

<path fill="#FFFFFF" stroke="none" d="
M 97.4 49
L 92.2 47.25 39.9 29.45 39.9 69.55 82.45 54.35 97.4 49 Z"/>

<path fill="#B82400" stroke="none" d="
M 126.6 17.35
Q 126.6 11.5 124.35 8 112.1 31.25 92.2 47.25
L 97.4 49 82.45 54.35
Q 50.9 75.15 3.15 80.65 3.15 95.45 17.9 95.45
L 111.85 95.45
Q 126.6 95.45 126.6 80.65
L 126.6 17.35 Z"/>
</g>

<g id="____________0_Layer1_0_FILL">
<path fill="#FFFFFF" stroke="none" d="
M 98.45 77
Q 98.3 77.25 98.3 77.5
L 98.3 80.45
Q 98.3 80.85 98.1 80.95 97.9 81 97.8 81
L 97.15 81
Q 96.8220703125 80.953125 96.6 81.1 96.6400390625 81.1779296875 96.65 81.2 96.9021484375 82.0951171875 96.85 82.35
L 96.85 84.9
Q 96.851171875 84.994921875 96.85 85.1 96.9828125 85.123828125 97.15 85.1
L 97.8 85.1
Q 97.9 85.1 98.1 85.15 98.3 85.25 98.3 85.65
L 98.3 98.05
Q 98.3 100.85 99.75 102.05 101.2 103.25 104.4 103.25 105.6 103.25 106.2 103.1 106.8 103 107 102.7 107.2 102.45 107.15 102.05
L 107.15 99.05
Q 107.15 98.8 107.05 98.6 106.95 98.45 106.7 98.45 106.3 98.45 106.2 98.45 106.1 98.5 106 98.55 105.85 98.55 105.5 98.55 104.5 98.55 104.15 98 103.75 97.45 103.75 96.45
L 103.75 85.55
Q 103.75 85.35 103.9 85.2 104 85.1 104.2 85.1
L 105.85 85.1
Q 106.25 85.15 106.6 84.95 106.95 84.75 107 84
L 107 82.1
Q 106.95 81.35 106.6 81.15 106.25 80.95 105.85 81
L 104.3 81
Q 103.9 80.95 103.8 80.8 103.75 80.65 103.75 80.45
L 103.75 76
Q 103.75 75.35 103.45 75.3 103.15 75.3 102.9 75.4
L 98.95 76.65
Q 98.55 76.8 98.45 77 Z"/>

<path fill="#990000" stroke="none" d="
M 96.3 80.35
Q 96.5837890625 79.8169921875 96.95 78.7
L 97.5 78.5 97.8 78.5 97.3 78.5
Q 96.4509765625 78.4146484375 95.8 78.65
L 95.8 79.75
Q 95.4939453125 79.47890625 95.05 79.15 95.0498046875 79.166796875 95 79.15 94.2828125 78.53671875 92.35 78.15 90.9921875 77.8556640625 88.5 77.8 88.4283203125 77.79765625 88.35 77.8 84.6734375 77.9328125 82.75 79.3 81.0291015625 80.41171875 80.1 81.85 79.0642578125 80.074609375 76.85 78.9
L 76.85 78.95
Q 74.966015625 77.8671875 71.7 77.8 71.6501953125 77.798828125 71.6 77.8 68.415234375 77.862109375 66.45 78.9 64.2109375 80.0873046875 63.15 81.9 62.9060546875 82.332421875 62.7 82.75 62.4951171875 82.3322265625 62.25 81.9 61.1888671875 80.0873046875 58.95 78.9
L 58.95 78.95
Q 57.066015625 77.8671875 53.8 77.8 53.7501953125 77.798828125 53.7 77.8 50.515234375 77.862109375 48.55 78.9 46.3109375 80.0873046875 45.25 81.9 44.9787109375 82.378125 44.75 82.85 44.798046875 82.4068359375 44.8 81.95 44.846484375 79.445703125 43.6 77.25 42.4212890625 75.0486328125 39.75 73.65
L 39.7 73.65
Q 37.297265625 72.40546875 33.4 72.4
L 25.65 72.4
Q 22.664453125 72.4048828125 22.35 74.2 21.7904296875 75.2625 21.95 76.2
L 21.95 101.55
Q 21.9490234375 103.2173828125 22.75 104.1 23.555078125 105.3984375 25.65 105.4
L 34.2 105.4
Q 38.426171875 105.34375 40.85 103.95
L 40.8 103.95
Q 43.39921875 102.5751953125 44.6 100.3 44.8708984375 100.9919921875 45.25 101.6 46.3109375 103.4626953125 48.55 104.6 50.515234375 105.6876953125 53.7 105.75 53.7501953125 105.7509765625 53.8 105.75 57.066015625 105.6828125 58.95 104.6
L 58.95 104.6
Q 61.1888671875 103.4626953125 62.25 101.6 62.4953125 101.217578125 62.7 100.8 62.9060546875 101.217578125 63.15 101.6 64.2109375 103.4626953125 66.45 104.6 68.415234375 105.6876953125 71.6 105.75 71.6501953125 105.7509765625 71.7 105.75 74.966015625 105.6828125 76.85 104.6
L 76.85 104.6
Q 78.289453125 103.877734375 79.25 102.85 79.6037109375 103.8310546875 81 104.6 81.8111328125 105.1083984375 83.5 105.45 83.5630859375 105.4626953125 83.6 105.45 85.045703125 105.6970703125 87.45 105.75
L 87.5 105.75
Q 90.4537109375 105.7505859375 92.65 104.7
L 92.55 104.75
Q 95.05078125 103.6943359375 96.4 101.65
L 96.4 101.6
Q 97.73515625 99.6298828125 97.8 96.8 97.801953125 96.74140625 97.8 96.65 97.7396484375 94.3818359375 97 92.75 96.9748046875 92.71796875 96.95 92.65 96.4640625 91.6513671875 95.8 90.75 95.3955078125 90.24921875 94.9 89.75 94.8998046875 89.767578125 94.85 89.75 94.0357421875 88.95078125 93.1 88.25 93.3169921875 88.250390625 93.55 88.25 93.659375 88.255078125 93.75 88.25 95.0998046875 88.1283203125 95.8 87.55 95.851953125 87.5076171875 95.9 87.45 96.3099609375 87.08359375 96.45 86.5 96.528125 86.4212890625 96.55 86.3 96.820703125 85.7080078125 96.85 85.1 96.851171875 84.994921875 96.85 84.9
L 96.85 82.35
Q 96.9021484375 82.0951171875 96.65 81.2 96.6400390625 81.1779296875 96.6 81.1
L 96.6 81.1
Q 96.57578125 80.7474609375 96.3 80.35
M 84.75 95.4
Q 84.776171875 95.434375 84.8 95.45 85.1861328125 95.7017578125 85.6 95.95
L 85.55 95.95
Q 84.6998046875 95.82734375 84 95.65 83.52734375 95.465625 83.15 95.35 82.4419921875 95.1564453125 82.05 95.2 81.928125 95.20625 81.8 95.2
L 81.75 95.2
Q 81.7529296875 95.1646484375 81.75 95.1
L 81.75 93
Q 82.0966796875 93.3751953125 82.45 93.7 82.50078125 93.7087890625 82.5 93.7 83.718359375 94.710546875 84.75 95.4
M 33.6 82.75
L 33.65 82.75
Q 33.637109375 82.790234375 33.6 82.8 33.3310546875 82.9294921875 32.85 82.95
L 32.85 82.6
Q 33.295703125 82.638671875 33.55 82.7 33.6037109375 82.7359375 33.6 82.75
M 34.3 94.8
Q 34.302734375 94.8275390625 34.25 94.85 33.780859375 95.1572265625 32.85 95.2
L 32.85 93.2
Q 33.5044921875 93.206640625 33.95 93.35 34.2572265625 93.546484375 34.4 93.75 34.505078125 94.00234375 34.5 94.25 34.49921875 94.2796875 34.5 94.3 34.5224609375 94.612109375 34.3 94.8
M 42.9 87.5
Q 43.2390625 87.125390625 43.5 86.7 43.5236328125 86.658203125 43.55 86.6 43.6978515625 86.3787109375 43.8 86.1 43.6552734375 87.2748046875 43.65 88.3 43.3107421875 87.8720703125 42.9 87.5
M 109.05 104.15
Q 109.0580078125 104.11171875 109.05 104.05
L 108.95 104.25
Q 108.9962890625 104.1998046875 109.05 104.15
M 105.35 96.2
Q 105.5580078125 96.3560546875 106.25 96.65 106.214453125 96.5927734375 106.15 96.5 106.2515625 96.5173828125 106.25 96.45
L 106.25 95.95 106.2 95.95
Q 105.839453125 95.9533203125 105.5 96.05 105.391015625 96.0849609375 105.25 96.1 105.178515625 96.1724609375 105.05 96.2 104.975 96.275 104.85 96.3
L 105.35 96.2
M 105.45 87
Q 103.2337890625 87.6033203125 104.2 87.6
L 105.85 87.6
Q 106.05234375 87.6109375 106.25 87.6
L 106.25 85.55
Q 105.5529296875 86.74375 105.45 87
M 105.85 78.5
L 104.4 78.5
Q 104.33984375 78.4994140625 104.3 78.5 103.88984375 78.573046875 105.85 79.4
L 106.15 80
Q 106.2515625 80.6984375 106.25 80.45
L 106.25 78.5
Q 106.05234375 78.4888671875 105.85 78.5
M 97.15 87.6
L 97.8 87.6 97.5 87.55 97.15 87.6
M 96.2 75.8
L 96.2 75.85 96.3 75.7
Q 96.2673828125 75.779296875 96.2 75.8 Z"/>
</g>

<g id="____________0_Layer0_0_FILL">
<path fill="#FFFFFF" stroke="none" d="
M 75.7 81.15
Q 74.2 80.35 71.65 80.3 69.15 80.35 67.6 81.15 66.05 81.95 65.3 83.2 64.55 84.45 64.3 85.85 64.05 87.2 64.05 88.35
L 64.05 95.2
Q 64.05 96.35 64.3 97.7 64.55 99.1 65.3 100.35 66.05 101.6 67.6 102.4 69.15 103.2 71.65 103.25 74.2 103.2 75.7 102.4 77.25 101.6 78 100.35 78.75 99.1 79.05 97.7 79.3 96.35 79.25 95.2
L 79.25 88.35
Q 79.3 87.2 79.05 85.85 78.75 84.45 78 83.2 77.25 81.95 75.7 81.15
M 71.65 84.8
Q 72.45 84.75 73.1 85.3 73.75 85.9 73.8 87.45
L 73.8 96.1
Q 73.75 97.65 73.1 98.25 72.45 98.8 71.65 98.75 70.85 98.8 70.2 98.25 69.55 97.65 69.5 96.1
L 69.5 87.45
Q 69.55 85.9 70.2 85.3 70.85 84.75 71.65 84.8
M 57.8 81.15
Q 56.3 80.35 53.75 80.3 51.25 80.35 49.7 81.15 48.15 81.95 47.4 83.2 46.65 84.45 46.4 85.85 46.15 87.2 46.15 88.35
L 46.15 95.2
Q 46.15 96.35 46.4 97.7 46.65 99.1 47.4 100.35 48.15 101.6 49.7 102.4 51.25 103.2 53.75 103.25 56.3 103.2 57.8 102.4 59.35 101.6 60.1 100.35 60.85 99.1 61.15 97.7 61.4 96.35 61.35 95.2
L 61.35 88.35
Q 61.4 87.2 61.15 85.85 60.85 84.45 60.1 83.2 59.35 81.95 57.8 81.15
M 53.75 84.8
Q 54.55 84.75 55.2 85.3 55.85 85.9 55.9 87.45
L 55.9 96.1
Q 55.85 97.65 55.2 98.25 54.55 98.8 53.75 98.75 52.95 98.8 52.3 98.25 51.65 97.65 51.6 96.1
L 51.6 87.45
Q 51.65 85.9 52.3 85.3 52.95 84.75 53.75 84.8
M 38.6 75.9
Q 36.6 74.9 33.4 74.9
L 25.65 74.9
Q 24.8 74.9 24.65 75.25 24.4 75.65 24.45 76
L 24.45 101.55
Q 24.45 102.2 24.75 102.55 25 102.9 25.65 102.9
L 34.2 102.9
Q 37.65 102.85 39.65 101.75 41.7 100.65 42.55 98.8 43.45 97 43.4 94.85 43.4 92.25 42.1 90.4 40.85 88.55 38.55 87.8
L 38.55 87.65
Q 40.45 86.85 41.4 85.35 42.3 83.85 42.3 81.95 42.35 80.1 41.45 78.5 40.55 76.9 38.6 75.9
M 30.55 80.25
Q 30.7 80.1 31.1 80.1
L 32.35 80.1
Q 33.9 80.1 34.7 80.5 35.55 80.9 35.85 81.55 36.15 82.15 36.15 82.75 36.15 83.9 35.25 84.7 34.4 85.45 32.4 85.5
L 31.15 85.5
Q 30.8 85.5 30.6 85.35 30.35 85.2 30.35 85
L 30.35 80.65
Q 30.35 80.4 30.55 80.25
M 30.35 97.2
L 30.35 91.4
Q 30.35 91.2 30.45 90.95 30.55 90.7 31 90.7
L 32.75 90.7
Q 34.25 90.7 35.2 91.2 36.15 91.75 36.6 92.55 37 93.35 37 94.25 37.05 95.7 36 96.65 34.95 97.65 32.75 97.7
L 30.9 97.7
Q 30.65 97.7 30.5 97.6 30.35 97.5 30.35 97.2
M 93.6 81.2
Q 93.1 80.85 91.85 80.6 90.65 80.35 88.45 80.3 85.6 80.4 84.1 81.4 82.55 82.4 81.95 83.8 81.4 85.2 81.45 86.4 81.5 88.25 82.25 89.55 83 90.85 84.1 91.8 85.2 92.7 86.15 93.35 86.85 93.8 87.6 94.35 88.35 94.85 88.9 95.45 89.45 96.05 89.45 96.85 89.45 97.5 88.95 98.05 88.4 98.6 87.1 98.6 86.25 98.6 85.15 98.45 84 98.25 83.15 98 82.75 97.85 82.5 97.8 82.2 97.7 82.05 97.7 81.55 97.75 81.45 98.05 81.4 98.4 81.4 98.65
L 81.4 101.25
Q 81.4 101.45 81.5 101.75 81.65 102.1 82.2 102.4 82.75 102.75 84 103 85.3 103.2 87.5 103.25 89.85 103.25 91.6 102.45 93.35 101.7 94.3 100.25 95.25 98.8 95.3 96.75 95.25 95 94.7 93.75 94.1 92.5 93.15 91.55 92.15 90.6 91 89.8 90.3 89.3 89.45 88.75 88.55 88.2 87.95 87.55 87.3 86.95 87.3 86.25 87.25 85.9 87.6 85.45 87.95 84.95 89.05 84.95 90.2 84.95 90.5 85.05 90.85 85.15 91 85.3 91.15 85.5 91.6 85.6 92.1 85.75 93.55 85.75 94.1 85.7 94.25 85.4 94.35 85.15 94.35 84.9
L 94.35 82.35
Q 94.35 82.25 94.25 81.9 94.15 81.6 93.6 81.2
M 98.95 76.65
Q 98.55 76.8 98.45 77 98.3 77.25 98.3 77.5
L 98.3 80.45
Q 98.3 80.85 98.1 80.95 97.9 81 97.8 81
L 97.15 81
Q 96.8 80.95 96.6 81.15 96.35 81.35 96.35 82.1
L 96.35 84
Q 96.35 84.75 96.6 84.95 96.8 85.15 97.15 85.1
L 97.8 85.1
Q 97.9 85.1 98.1 85.15 98.3 85.25 98.3 85.65
L 98.3 98.05
Q 98.3 100.85 99.75 102.05 101.2 103.25 104.4 103.25 105.6 103.25 106.2 103.1 106.8 103 107 102.7 107.2 102.45 107.15 102.05
L 107.15 99.05
Q 107.15 98.8 107.05 98.6 106.95 98.45 106.7 98.45 106.3 98.45 106.2 98.45 106.1 98.5 106 98.55 105.85 98.55 105.5 98.55 104.5 98.55 104.15 98 103.75 97.45 103.75 96.45
L 103.75 85.55
Q 103.75 85.35 103.9 85.2 104 85.1 104.2 85.1
L 105.85 85.1
Q 106.25 85.15 106.6 84.95 106.95 84.75 107 84
L 107 82.1
Q 106.95 81.35 106.6 81.15 106.25 80.95 105.85 81
L 104.3 81
Q 103.9 80.95 103.8 80.8 103.75 80.65 103.75 80.45
L 103.75 76
Q 103.75 75.35 103.45 75.3 103.15 75.3 102.9 75.4
L 98.95 76.65 Z"/>
</g>

<path id="____________0_Layer1_0_1_STROKES" stroke="#990000" stroke-width="5" stroke-linejoin="round" stroke-linecap="round" fill="none" d="
M 96.625 81.125
Q 96.8220703125 80.953125 97.15 81
L 97.8 81
Q 97.9 81 98.1 80.95 98.3 80.85 98.3 80.45
L 98.3 77.5
Q 98.3 77.25 98.45 77 98.55 76.8 98.95 76.65
L 102.9 75.4
Q 103.15 75.3 103.45 75.3 103.75 75.35 103.75 76
L 103.75 80.45
Q 103.75 80.65 103.8 80.8 103.9 80.95 104.3 81
L 105.85 81
Q 106.25 80.95 106.6 81.15 106.95 81.35 107 82.1
L 107 84
Q 106.95 84.75 106.6 84.95 106.25 85.15 105.85 85.1
L 104.2 85.1
Q 104 85.1 103.9 85.2 103.75 85.35 103.75 85.55
L 103.75 96.45
Q 103.75 97.45 104.15 98 104.5 98.55 105.5 98.55 105.85 98.55 106 98.55 106.1 98.5 106.2 98.45 106.3 98.45 106.7 98.45 106.95 98.45 107.05 98.6 107.15 98.8 107.15 99.05
L 107.15 102.05
Q 107.2 102.45 107 102.7 106.8 103 106.2 103.1 105.6 103.25 104.4 103.25 101.2 103.25 99.75 102.05 98.3 100.85 98.3 98.05
L 98.3 85.65
Q 98.3 85.25 98.1 85.15 97.9 85.1 97.8 85.1
L 97.15 85.1
Q 96.9828125 85.123828125 96.85 85.1"/>
</defs>

<g transform="matrix( 1.289794921875, 0, 0, 1.289794921875, 7.9,5) ">
<g transform="matrix( 1, 0, 0, 1, 0,0) ">
<use xlink:href="#_____1_0_Layer1_0_FILL"/>
</g>

<g transform="matrix( 1, 0, 0, 1, 0,0) ">
<use xlink:href="#_____1_0_Layer0_0_FILL"/>
</g>
</g>

<g transform="matrix( 1, 0, 0, 1, 30.3,39.8) ">
<g transform="matrix( 1, 0, 0, 1, 0,0) ">
<use xlink:href="#____________0_Layer3_0_FILL"/>
</g>

<g transform="matrix( 1, 0, 0, 1, 0,0) ">
<use xlink:href="#____________0_Layer1_0_FILL"/>

<use xlink:href="#____________0_Layer1_0_1_STROKES"/>
</g>

<g transform="matrix( 1, 0, 0, 1, 0,0) ">
<use xlink:href="#____________0_Layer0_0_FILL"/>
</g>
</g>
</svg>
