
<svg xmlns="http://www.w3.org/2000/svg" version="1.1" xmlns:xlink="http://www.w3.org/1999/xlink" preserveAspectRatio="none" x="0px" y="0px" width="264px" height="64px" viewBox="0 0 264 64">
<defs>
<g id="Layer0_0_FILL">
<path fill="#464646" stroke="none" d="
M 261.7 14.15
Q 261.7 1.35 245.85 1.35
L 17.4 1.35
Q 1.5 1.35 1.5 14.15
L 1.5 50.25
Q 1.5 62.95 17.4 62.95
L 245.85 62.95
Q 261.7 62.95 261.7 50.25
L 261.7 14.15
M 243.45 3.6
Q 258.95 3.6 258.95 15.4
L 258.95 27.1 258.95 47.25 258.95 49.05
Q 258.95 60.9 243.45 60.9
L 19.8 60.9
Q 4.15 60.9 4.15 49.05
L 4.15 47.25 4.15 27.1 4.15 15.4
Q 4.15 3.6 19.8 3.6
L 243.45 3.6 Z"/>

<path fill="#66CCFF" stroke="none" d="
M 151.65 30.8
L 155 27.05 162.8 18.3 146.95 18.3 141.6 34.2 141 35.95 152.9 35.75 144.95 51.35 164 35 151.65 30.8 Z"/>

<path fill="#9DDEFF" stroke="none" d="
M 162.8 18.3
L 167.5 13.05 148.6 13.4 146.95 18.3 162.8 18.3
M 164 35
L 165.5 33.75 168.95 30.75 155 27.05 151.65 30.8 164 35 Z"/>

<path fill="#D4A900" stroke="none" d="
M 258.95 49.05
L 258.95 47.25
Q 258.65 58.5 243.45 58.5
L 19.8 58.5
Q 4.55 58.5 4.15 47.25
L 4.15 49.05
Q 4.15 60.9 19.8 60.9
L 243.45 60.9
Q 258.95 60.9 258.95 49.05 Z"/>

<path fill="#EABB00" stroke="none" d="
M 258.95 47.25
L 258.95 27.1
Q 223.3 31.1 187.35 32.85 176.45 33.4 165.5 33.75
L 164 35 144.95 51.35 152.9 35.75 141 35.95 141.6 34.2
Q 73.2 34.8 4.15 27.1
L 4.15 47.25
Q 4.55 58.5 19.8 58.5
L 243.45 58.5
Q 258.65 58.5 258.95 47.25 Z"/>

<path fill="#FFCC00" stroke="none" d="
M 258.95 15.4
Q 258.95 3.6 243.45 3.6
L 19.8 3.6
Q 4.15 3.6 4.15 15.4
L 4.15 27.1
Q 73.2 34.8 141.6 34.2
L 146.95 18.3 148.6 13.4 167.5 13.05 162.8 18.3 155 27.05 168.95 30.75 165.5 33.75
Q 176.45 33.4 187.35 32.85 223.3 31.1 258.95 27.1
L 258.95 15.4 Z"/>
</g>

<path id="Layer0_0_1_STROKES" stroke="#5E756A" stroke-width="1" stroke-linejoin="round" stroke-linecap="round" fill="none" d="
M 141.6 34.2
L 146.95 18.3 148.6 13.4 167.5 13.05 162.8 18.3 155 27.05 168.95 30.75 165.5 33.75 164 35 144.95 51.35 152.9 35.75 141 35.95 141.6 34.2 Z"/>
</defs>

<g transform="matrix( 1, 0, 0, 1, 0,0) ">
<use xlink:href="#Layer0_0_FILL"/>

<use xlink:href="#Layer0_0_1_STROKES"/>
</g>
</svg>
