
<svg xmlns="http://www.w3.org/2000/svg" version="1.1" xmlns:xlink="http://www.w3.org/1999/xlink" preserveAspectRatio="none" x="0px" y="0px" width="1275px" height="294px" viewBox="0 0 1275 294">
<defs>
<g id="Layer0_0_FILL">
<path fill="#BED856" stroke="none" d="
M 130.5 152.6
Q 132.75 157.8 134.05 163.7 135.2 169.1 135.2 172.3
L 135.3 172.65
Q 135.45 172.95 136.4 172.95 136.6 172.95 140.1 170.45 144.55 167.4 149.15 165.1 159.9 159.7 172.55 157.95 167.1 156.7 160.95 154.35 145.7 148.45 144.55 141.05 137.75 148.95 136.2 150.55 134.6 152.3 130.5 152.6
M 78.25 126.75
Q 78.05 123.3 78.75 122.15 78.3 122.15 77.5 123 76.7 123.8 76.25 123.8 75.95 125.45 75.55 127.1 76.85 126.85 78.25 126.75
M 292.5 194.55
Q 287.95 194.55 283.9 194.25 288.65 196.35 293.45 199.15 292.85 196.95 292.5 194.55
M 236.2 185.55
Q 235 186 233.85 186.5 234.85 186.5 236.05 186.5 249.1 186.25 249.2 186.25 255.9 186.25 262.75 187.5 261.9 186.95 261.25 186.35 259.3 184.7 256.15 180.7 254.1 178.15 252.55 178.15 244.35 182.25 236.2 185.55
M 388.65 204.4
Q 388.55 204.75 388.45 205.15 389.35 205.7 390.35 206.45 390.25 205.45 390.25 204.4
L 388.65 204.4
M 406.7 249.55
Q 407.25 248.7 408 247.9 404.95 246.8 402 245.05 401.6 244.8 401.25 244.55 397.8 242.25 395.1 240.5 393.5 250.75 400.4 258.15 401.7 259.5 403.25 260.8 402.65 255.15 406.7 249.55
M 406.7 208.75
Q 406.7 209.25 406.7 209.75 406.7 211.45 405.05 214.25 404.15 215.65 403.05 216.65
L 403.15 216.65
Q 404.65 218.05 406.2 219.5 407.15 218.4 408.2 217.35 408.25 216.05 408.25 214.75 408.25 213.85 408.25 212.95 407.5 210.8 406.7 208.75
M 946.15 215.5
Q 958.85 204.1 971.25 199 969.95 198.65 969.05 198.25 964.1 196.05 958.2 194.55 955.4 200.15 953.7 203 951.3 206.95 947.5 211.8 938.65 223.1 931.1 225.35 924.95 227.15 924.55 223.2 924.9375 222.4734375 925.85 222.45 916.2080078125 222.438671875 902.45 218.75 890.55 215.1 890.4 215.1 889.75 215.1 885.55 218.75 881.3 222.45 880.15 222.45 870.6 222.45 865.85 220.65 862.1 219.25 858 215.1 853.65 216.45 847.3 220.15 843.3 222.45 838.1 222.45 834.25 222.45 829.4 220.95 828.55 220.7 827.7 220.4 825.95 219.75 824.1 218.95 821.55 217.85 819.35 216.7 819.35 219.85 819.3 223.2 819.25 223.45 819.25 223.75 819.25 227.4 819.15 231.15 819.35 237.25 820.55 240.75 820.95 241.85 821.95 243.7 826.85 239.35 831.7 236.65 833.9 235.35 836.1 234.45 851.1 228.1 865.55 236.9 879.1 226.3 901.9 226.3 910.25 226.3 918.7 231.25 923 233.7 926.75 236.15 934.55 225.85 946.15 215.5
M 1171.9 169.95
Q 1165.4 176.1 1157.4 177.65 1154.65 178.15 1145.65 178.15 1131.55 178.15 1126.6 175.6 1120.3 172.3 1111 158.45 1106.25 163.45 1104.3 164.75 1101.4 166.65 1095 166.65 1088.75 166.65 1086 163.6 1082.2 158.2 1077.35 153.35 1073.4 157.65 1067.35 167.95 1063.35 174.85 1060.05 174.85 1058.9 174.85 1054.8 172.4 1050.6 169.95 1048.95 169.95 1046.5 169.95 1043.2 175.6 1039.1 183.5 1036.75 188 1031 198.6 1024.9 203 1028.85 206.95 1032.15 212.95
L 1032.9 213.1
Q 1033.8 213.45 1034.5 214.15 1040.45 206.6 1046.4 196.7 1052 187.6 1054.15 185.05 1058.05 180.45 1064 178.55 1070.4 176.5 1082.55 176.5 1102.15 176.5 1111.5 182.65 1119.85 188.15 1133 208.1 1133.5 207.85 1138.9 204.8 1141.7 203.35 1144.35 202.6 1150.65 200.8 1169.45 200.8 1195.8 200.8 1208.2 206.6 1212.85 208.75 1213.25 209.15 1218.2 211.3 1222.4 213.5 1248 196.75 1271.35 208.85 1271.2 208.5 1271.15 208.1 1271.45 202.5 1271.6 196.1 1267.1 196.2 1258.55 196.2 1241.25 196.2 1233.35 189.65 1228.45 183.05 1225.65 183.05 1224.25 183.05 1216.9 187.15 1209.5 191.25 1203.5 191.25 1193 191.25 1185.55 183.9 1177.75 174.3 1171.9 169.95 Z"/>

<path fill="#D8EEFF" stroke="none" d="
M 221.35 175.85
Q 221.446875 175.753125 221.6 175.75 216.604296875 175.75 221.2 175.85 221.3 175.85 221.35 175.85
M 346.5 191.45
Q 347.45 188.65 348.35 185.55 350.2 188.8 351.95 191.7 357.1 199.95 361.65 205 371 215.1 380.4 215.1 383.45 215.1 385 213 386.5 211.05 388.45 205.15 388.55 204.75 388.65 204.4
L 390.25 204.4
Q 390.25 205.45 390.35 206.45 390.7 211.85 392.05 214.75 393.95 218.35 398.05 218.35 399.15 218.35 400.05 218.1 401.75 217.7 403.05 216.65 404.15 215.65 405.05 214.25 406.7 211.45 406.7 209.75 406.7 209.25 406.7 208.75 406.45 197.9 401.1 187.5 389.8 183.9 374.65 180.05 353.75 171.15 331.5 168.55 331.2 168.45 330.85 168.3 330.6 168.3 330.35 168.15 329.2 168.15 328.2 168.05 314.45 164.1 309 161.3 298.2 155.8 294.15 146.15 292.95 143.1 290.7 134.95 288.75 127.65 286.95 124.05 281.3 112.3 266.65 112.3 266.35 112.3 255.2 113.95 244.1 115.6 241.45 115.6 223.1 115.6 212 92.65 207.1 81.05 204.65 76.8 200.6 69.55 195.85 69.55 190.85 69.55 185.4 72.05 180 74.5 170.4 74.5 154.55 74.5 146.05 68.75 140.55 64.95 140.1 64.8 136.6 63 131.75 63 128.95 63 122.4 68.5 113.75 76.3 108.85 80.75 94.1 93.85 84.15 97.2 80.7 98.35 77.9 98.35 71.2 98.35 66.65 96.75 63.95 95.75 59.05 92.65 47.4 119.2 36.2 134.05 35.05 135.65 33.9 137.1 21.55 152.35 8.9 155.35 15.95 161.5 25.8 163.35 30.05 164.2 34.8 164.2 57.15 164.2 68.55 145.5 72.8 138.5 75.55 127.1 75.95 125.45 76.25 123.8 76.7 123.8 77.5 123 78.3 122.15 78.75 122.15 78.05 123.3 78.25 126.75 78.25 127.75 78.3 129.05 78.8 135.05 80.55 140.8 85.3 156.8 94.8 156.8 102.35 156.8 108.45 143.5 111.5 136.8 112.6 131.75 113.3 128.75 113.3 126.3
L 114.9 126.3
Q 116.9 133.75 120.15 136.55 122.65 138.6 127.25 138.6 131.25 138.6 141.35 125.6 150.85 113.3 152.75 107.4
L 153.6 107.4
Q 152.6 119.15 159.55 133.4 167.05 148.6 175.75 148.6 180.6 148.6 187.05 143.5 193.55 138.4 194.6 133.65
L 194.6 132.85
Q 195.35 147.35 197.65 156.65 199.6 164.75 202.75 168.85 207.898828125 175.5984375 221.8 175.7
L 221.8 175.85
Q 226.35 175.7 233.7 173.3 241.45 170.7 245.6 165 248.05 161.55 252.7 155.5 256.4 150.55 257.25 147.8
L 258.05 146.95
Q 266.35 166.55 270.45 173.15 279.25 187.15 289.25 187.15 290.45 187.15 296.4 182.9 302.05 178.8 302.35 178.15 308.1 194.25 310.6 200.3 311.5 202.75 311.95 203.6 316.9 212.6 325.75 212.6 336.9 212.6 342.65 200.8 344.65 196.7 346.5 191.45
M 236.2 148.6
Q 236.3 148.7 236 148.85 235.9015625 148.50546875 235.8 148.3 235.9046875 148.5015625 236.2 148.6
M 241.25 155
L 241 154.9
Q 241.3 154.85 241.45 154.85
L 241.25 155
M 131.15 115.85
Q 131.40546875 115.84453125 131.75 115.5
L 131.75 115.85
Q 131.40546875 115.85 131.15 115.85
M 138.95 112.5
Q 138.95 112.25 139.05 112.1
L 139.05 112.3 138.95 112.5
M 656.25 180.2
L 650.85 180.2
Q 649.55 181.5 643.3 187.5 637.2 193.9 634.45 199.65 631.4 205.95 628.5 215.3 626.05 221.55 620.7 221.55 617.7 221.55 604.15 209.75 590.6 197.85 584.75 197.85 580.6 197.85 571.25 211.55 562.05 225.25 561.15 225.25 557.95 225.25 548 211.3 538.1 197.25 535.3 197.25 527.1 197.25 517.3 208.85 514.95 211.7 510.85 216.7 507.65 220.4 505.75 220.4 504.5 220.4 495.9 213.35 487.35 206.4 482.1 206.4 473.8 206.4 466.1 216.7 461.9 222.3 460.25 223.85 456.9 227.05 453.15 227.05 449.45 227.05 443.35 221.9 437.4 216.65 434.65 216.65 432.55 216.65 418.75 234.3 416.3 237.4 414.05 240.25 419.5 242.15 422.7 242.15 426.6 242.15 432.6 236.8 435.9 234.05 440.4 229.05 443.6 229.05 451.65 234.35 459.6 239.7 465.85 239.7 473 239.7 478.65 234.6 484.3 229.45 483.1 224.1 485.15 225.15 492.85 229.75 500.3 233.95 503.7 233.95 506.95 233.95 511.65 230.4 517.05 226.4 517.65 221.65
L 518.45 221.65
Q 522.15 228.95 524.95 236.6 527 240.5 533.25 240.5 535.95 240.5 543.8 237.05 553.75 232.65 555.55 227.4
L 556.05 227
Q 556.7 226.55 557.2 226.55 558.6 240.5 571.95 240.5 580.75 240.5 584.95 236.8 585.85 236 593.3 225.75 597.25 227.55 601 231.8 603.25 234.3 607.35 239.8 609.65 242.55 612.25 244.55 613.5 244.15 614.75 243.7 614.65 245.2 615.3 246.6 620.55 249.55 626.55 249.55 636.25 249.55 642.2 236.5 645.4 229.6 649.1 218.35
L 649.95 218.35
Q 652.5 241.35 663.95 241.35 669 241.35 671.7 239.35 673.65 237.95 681.2 232.3 688.5 235.9 689.9 239.85 690.65 242.15 695.15 242.15 700.5 242.15 705.35 237.9 717.4 227.15 718.2 226.55
L 718.2 225.75
Q 724.85 239.85 727.75 242.1 730.35 244.15 739.4 244.55 740.3 244.3 740.8 244.3 740.95 244.3 741.55 244.6 742.75 244.6 744.05 244.6 751.7 244.6 759.85 239.7 772.55 231.8 773.3 231.5 776.5 241.1 782.9 246.6 789.3 252 797.1 252 805.05 252 806.7 251.25 811.35 249.2 814.3 239.7 817.55 243.15 819.75 246.75 820.95 248.25 823.75 248.65 824.2 248.7 824.7 248.7 823 245.75 821.95 243.7 820.95 241.85 820.55 240.75 819.35 237.25 819.15 231.15 819.25 227.4 819.25 223.75 819.25 223.45 819.3 223.2 804 215.5 793.05 215.5 791.25 215.5 780.7 219.45 770.1 223.45 767.3 223.45 761.3 223.45 754 217.95 746.7 212.45 744.4 212.45 740.15 212.45 732.85 217.95 725.5 223.45 723.15 223.45 720.7 223.45 718.8 221.25 718.05 220.25 715.75 216.4 711.75 209.4 705.85 209.4 705.4 209.4 692.95 215.5 680.45 221.55 677.25 221.55 669.55 221.55 664.85 206.6 662.4 197.7 661.1 193.1 658.7 184.85 656.25 180.2
M 1195.45 95.75
Q 1194 85.4 1192.4 79.4 1182.8 44.05 1161.25 44.05 1145.05 44.05 1134.75 51.75 1127.6 57.1 1121 68.75 1112.8 83.1 1110.7 85.65 1104.2 93.35 1094.6 93.35 1090.4 93.35 1074.65 83.95 1058.8 74.5 1053.05 74.5 1041.9 74.5 1034.05 85 1028.75 92.05 1022.8 108.2 1015.95 126.45 1013.2 131.35 1007.25 141.85 999.25 141.85 987.25 141.85 974.55 133.25 961.8 124.65 950.7 124.65 936.45 124.65 923.65 142.55 921.65 145.3 919.7 148.5 915.5 155.9 912.8 160.4 911 163.2 909.85 164.95 904.85 172.4 900.65 172.4 898.85 172.4 889.65 171.15 880.4 169.95 877.7 169.95 867.9 169.45 863.9 169.85 858.25 170.35 844.85 174.85 837.2 177.3 827.8 188.05 823.3 193.25 820.55 196.4 820.25 196.65 820 196.95 819.5 201.45 819.4 206.6 819.9 207.1 820.55 207.5 821.8 208.45 823.2 209.25 824 209.7 824.85 210.1 831.75 213.45 840.75 213.45 848.45 213.45 851.15 209.6 853.05 206.8 858.8 195.4 865.35 204 868.25 206.45 872.45 210.15 877.7 210.15 884 210.15 888.7 206.3 894.35 201.45 894.9 192.1 895.75 190.45 895.75 189.65 899.25 201.05 905 207.95 910.9 215.1 917.1 215.1 937.6 215.1 944.65 193.5 947.1 186 948.35 174.55 949.4 162.3 950 157.45 950.15 170.25 958.35 178.95 965.25 186.35 971.75 186.35 979.55 186.35 981.75 184.05 982.75 183.05 988.65 171.6
L 989.45 171.6
Q 991.85 184.65 998.1 189.55 1003.4 193.75 1014.1 193.75 1031.3 193.75 1036.9 172.95 1039.5 163.35 1039.5 143.5 1046.4 145.8 1047.9 150.5 1048.55 152.55 1049.2 153.1 1050.35 154.2 1053.55 154.2 1059.15 154.2 1061.25 153.35 1063.35 152.55 1064.4 150 1065.8 146.15 1066.85 143 1069.05 137.1 1072.45 131.2 1078.25 138.6 1083.45 146.2 1087.15 150.1 1096.25 150.1 1101 150.1 1105.45 146.15 1110.95 141.15 1115.3 130.4
L 1116.1 129.55
Q 1126.05 151.95 1129.3 156.55 1135.95 165.65 1147.7 165.65 1155.55 165.65 1163.35 158.45 1172.55 149.85 1171.1 137.75
L 1172.7 136.1
Q 1178.15 142.85 1189.2 161.4 1200.15 176.5 1212.55 176.5 1217.45 176.5 1221.25 172.95 1223.6 170.75 1230.25 164.05 1238.45 178.4 1239.1 178.95 1241.6 181.45 1251.6 181.45 1264.75 181.45 1268.65 172.8 1268.85 172.5 1270.45 167.8 1270.4 167.7 1270.4 167.55 1269.9 164.05 1269.3 160.85 1259.65 155.35 1243.55 147.45 1238.45 144.5 1233.85 142.55 1212.55 131.3 1204.75 121.35 1202.25 118.15 1200.4 114.4 1198.25 106.15 1195.45 95.75
M 1139.9 98.95
Q 1140.1546875 99.046875 1140.45 98.85 1140.65 98.8 1140.45 99.25 1140.1546875 99.053125 1139.9 98.95
M 1148.6 99.75
L 1148.35 99.95
Q 1148.5 99.7 1148.6 99.6
L 1148.6 99.75
M 1046.9 131.2
L 1047.3 131.35 1047.1 131.45 1046.9 131.2
M 1045.95 123.3
Q 1046.1 123.5 1045.6 123.4 1045.6984375 123.0552734375 1045.75 122.85 1045.70390625 123.05390625 1045.95 123.3
M 944.65 149.65
Q 944.9947265625 149.3544921875 945.15 149.15 945.00078125 149.35625 945.05 149.75 945.15 149.9 944.65 149.65
M 941.95 157.05
Q 942.2 157.4 942.25 157.4
L 942.05 157.4 941.95 157.05 Z"/>

<path fill="#8BB51C" stroke="none" d="
M 221.2 176.4
Q 221.8 177.4 221.8 175.85
L 221.8 175.7
Q 221.696875 175.7015625 221.6 175.75 221.446875 175.753125 221.35 175.85 220.95 176 221.2 176.4
M 382.7 221.3
Q 380.35 219.2 378.8 219.2 376.8 219.2 372.7 221.25 368.6 223.3 366 223.3 362.1 223.3 355.3 218.35 348 212.6 345.05 210.95 337.65 220.25 336.5 221 335.3 221.65 326.6 221.65 313.35 221.65 304.75 215.8 296.15 210 293.45 199.15 288.65 196.35 283.9 194.25 270.2 192.9 262.75 187.5 255.9 186.25 249.2 186.25 249.1 186.25 236.05 186.5 234.85 186.5 233.85 186.5 222.7 188.4 220.15 188.55 219.65 188.55 219.5 188.55 219.5 188.4 219.5 188.3 219.75 188.15 220.15 188.05
L 220.15 188
Q 204.7 187.9 195.2 182 183.2 174.6 183.1 159.25 178.3 159.25 172.55 157.95 159.9 159.7 149.15 165.1 144.55 167.4 140.1 170.45 136.6 172.95 136.4 172.95 135.45 172.95 135.3 172.65
L 135.2 172.3
Q 135.2 169.1 134.05 163.7 132.75 157.8 130.5 152.6 129.55 152.7 128.45 152.7 126.75 152.7 123.05 152.2 119.1 151.65 117.4 151.05 114.9 160.25 108.75 165.4 102.3 170.75 93.15 170.75 89 170.75 81.5 166.65 73.95 162.55 72.55 162.55 70.85 162.55 61.1 169.55 51.25 176.5 42.6 176.5 34.15 176.5 27.95 174.85 31.3 181.2 39.75 187.5 53.6 197.75 69.45 199.05 69.45 200.05 68.9 202.95 68.3 205.9 68.3 209.65 68.3 224.1 81.1 230.1 92.75 235.5 119.05 235.5 124.1 235.5 162.5 232.45 162.75 232.45 168.45 234.85 175.65 237.65 182.95 239.8 207.85 247.1 236.7 247.1 259.6 247.1 290.45 236.75 296.05 234.85 301.9 232.8 346.95 254 396.2 236 396.75 234.25 397.55 232.4 398.15 230.9 398.9 229.45 401.75 224.45 406.2 219.5 404.65 218.05 403.15 216.65 392.8 231 386.15 224.9 384.05 222.55 382.7 221.3
M 92.75 174.95
Q 92.998828125 174.789453125 92.95 174.35 92.95 174.3 93.25 174.55 93.005859375 174.794140625 92.75 174.95
M 470.8 248.65
Q 478 253.4 481.7 253.4 482.5 253.4 496.55 249.8 511.75 246.1 518.8 246.1 525.05 252.35 532.75 253.5 535.8 254 552.2 254 570.6 254 581.4 252.35 589.85 251.1 601 248 598.25 244.35 594.95 238.9 589.35 243.4 586.5 245.35 581.55 248.7 575.25 248.7 569.25 248.7 564.1 246.75 557.55 244.3 555.55 239.7
L 553.9 240.5
Q 547.2 247.35 545.3 248.25 544.05 248.7 536.95 248.7 530.85 248.7 527.1 247.1 525.75 246.45 521.4 243.4 513.8 238.05 497.95 238.05 495.3 238.05 486.15 243.4 476.95 248.7 472.85 248.7 471.85 248.7 470.8 248.65
M 458 245.7
Q 455.75 244.85 453.45 243.8 444.25 238.9 442.85 238.9 438.45 241.6 433.85 244.2 424.55 249.55 417.35 249.55 412.6 249.55 408 247.9 407.25 248.7 406.7 249.55 409.05 250.45 411.95 251.45 421.15 254.65 427.7 254.65 436.8 254.65 449.6 249.15 454.7 247 458 245.7
M 724.95 250.05
Q 725.7 249.7 726.45 249.45 711.35 244.6 711.15 244.6 710.2 244.6 703.6 248.3 697.8 251.5 693.5 252 693.75 252.15 694.1 252.5 697.55 255.85 703.35 255.85 711.5 255.85 724.95 250.05
M 681.85 250.85
Q 684 249.8 685.9 249.45 681.1 247.1 680.4 247.1 679.25 247.1 673.35 247.9 667.5 248.7 667.25 248.7 659.7 248.7 658.45 248.4 655.95 247.75 652.4 243.8 636.9 254.15 635.9 254.55 634.35 255.2 625.55 255.3 635.4 260.05 649.95 260.05 664.15 260.05 674.9 254.65 677.6 253.3 681.85 250.85
M 759.4 252.5
Q 758.35 253.55 755.3 254.05 761.05 257.5 766.55 259.5 774.35 262.2 786.9 263.6 799.4 264.95 799.4 263.1 805.4 263.1 812.25 263.25 817.05 263.15 819.9 262.2 822.6 261.35 828.2 258 828.9 257.6 829.6 257.2 827.95 254.3 826.2 251.35 825.4 249.95 824.7 248.7 824.2 248.7 823.75 248.65 822.95 251.25 821.8 253.15 818.5 258.55 811.85 258.55 800.3 258.55 786.5 254.95 770.85 250.85 768.35 245.45 764.5 247.4 759.4 252.5
M 1082.55 176.5
Q 1070.4 176.5 1064 178.55 1058.05 180.45 1054.15 185.05 1052 187.6 1046.4 196.7 1040.45 206.6 1034.5 214.15 1033.8 213.45 1032.9 213.1
L 1032.15 212.95
Q 1028.85 206.95 1024.9 203 1020.65 206.05 1016.15 206.05
L 984.05 197.85
Q 977.25 199.5 976.65 199.5 973.45 199.5 971.25 199 958.85 204.1 946.15 215.5 934.55 225.85 926.75 236.15 923 233.7 918.7 231.25 910.25 226.3 901.9 226.3 879.1 226.3 865.55 236.9 851.1 228.1 836.1 234.45 833.9 235.35 831.7 236.65 826.85 239.35 821.95 243.7 824.95 245.75 827.8 247.4 833.15 250.6 837.8 252.4 838.1 252.5 838.4 252.65 843 254.45 848.45 255.55 850.1 255.85 851.9 256.1 858.5 257 866.1 257 877.45 257 886.3 253.05 895.15 249.15 899.6 249.15 902.3 249.15 917.65 256.75 937 264.3 959.65 264.3 982.1 264.3 1006.45 253.15 1021.2 246.35 1042.25 232.05 1048.7 238.55 1057.35 247.6 1063.65 253.8 1068.25 256.45 1073.5 259.3 1081.3 260.4 1088.25 261.3 1102.95 261.3 1122.65 261.3 1137.1 256.1 1144.35 253.55 1148.6 250.95 1151.15 250.95 1153.25 251.7 1154.65 252.1 1157.95 253.05 1166 255.2 1184.7 255.2 1185.75 255.2 1186.9 255.2 1210 254.45 1236.15 238.8 1242.4 235.1 1248.05 231 1261.3 221.15 1271.35 208.85 1248 196.75 1222.4 213.5 1218.2 211.3 1213.25 209.15 1212.85 208.75 1208.2 206.6 1195.8 200.8 1169.45 200.8 1150.65 200.8 1144.35 202.6 1141.7 203.35 1138.9 204.8 1133.5 207.85 1133 208.1 1119.85 188.15 1111.5 182.65 1102.15 176.5 1082.55 176.5 Z"/>

<path fill="#6F9016" stroke="none" d="
M 395.1 240.5
Q 395.45 238.3 396.2 236 346.95 254 301.9 232.8 296.05 234.85 290.45 236.75 259.6 247.1 236.7 247.1 207.85 247.1 182.95 239.8 175.65 237.65 168.45 234.85 162.75 232.45 162.5 232.45 124.1 235.5 119.05 235.5 92.75 235.5 81.1 230.1 68.3 224.1 68.3 209.65 68.3 205.9 68.9 202.95 69.45 200.05 69.45 199.05 53.6 197.75 39.75 187.5 31.3 181.2 27.95 174.85 24.5 173.95 21.7 172.5 12.85 167.9 8.15 156.8
L 8.15 155.5
Q 8.5 155.35 8.9 155.35 8.5 155 8.15 154.65
L 8.15 144.35
Q 7.9 144.65 7.65 145 5.75 147.55 4.6 150.9 3.7 153.2 3.15 156 2 161.3 2 168.05 2 189 21.45 198.25 26.3 200.55 34.8 203.6 37.6 204.65 39.1 205.9 37.3 207.75 35.4 212.85 33.1 218.5 33.1 221.25 33.1 227.15 38.6 229.05 39.4 229.25 40.3 229.45 44.6 230.4 56.4 229.45 55.5 234.05 59.2 238.55 62.5 242.55 65.7 242.55 68.4 242.55 70.6 241.5 72.4 240.6 74.85 238.2 73.9 241.15 79.65 247.25 85.4 253.15 89.9 253 94.3 252.85 101.3 249.95 108.2 247.15 109.85 246 111.5 250.2 114.85 253.05 116.15 254.2 117.4 254.9 119.75 256.2 122.25 256.2 124.75 256.2 127.75 254.9 131.75 253.15 134.3 249.7 135.3 249.3 136.35 249.05 137 254.55 139.3 257.35 142.75 261.55 150.85 261.55 153.65 261.55 168.25 249.65 170.4 250.95 172.7 252.25 173.1 252.65 173.35 253.15 174.25 254.45 175.35 256.85 177.3 260.55 183.95 260.55 185.65 260.55 190.35 259.3 193.7 258.4 198.7 256.95 204.7 255.15 210.2 253.3 211.45 253.3 214 258.9 218.15 264.5 227.7 264.5 233.25 264.5 238.7 261.1 245.65 256.75 245.9 256.7 248.95 262.2 249.95 263.15 251.4 264.5 255.1 264.5 257.8 264.5 261.65 260.8 265.25 256.75 265.75 256.2 268.5 259.5 270.3 263.6 271.25 265.7 272.65 269.25 272.65 269.3 272.75 269.4 275.2 274.65 282.5 274.65 288.65 274.65 293.5 267.85 296.65 263.6 298.85 257.2 301.45 259.8 303.2 262.25 308.1 267.45 314 262.35 319.3 257.85 322.65 252.85 324.95 257.75 326.4 262.5 327.55 264.9 330.35 265.9 331.85 266.6 333.3 266.8 334.8 266.95 336.75 265.65 339.3 264 341.1 260.95 341.85 259.9 342.35 258.65 343.9 260.2 345.55 262.35 345.95 262.85 346.35 263.4 349.5 267.85 353.25 267.85 357.2 267.85 360 264.4 360.15 264.25 360.3 264.05 363.75 259.9 365.4 259.15 366.15 259.9 369 263.75 369.6 264.55 370.3 265.65 372.4 268.35 375.1 268.35 378.7 268.35 381.8 263.5 382.9 261.35 383.8 259.8 385.1 257.25 385.75 256.2 386.4 256.7 387.7 257.75 389.45 259.15 392.5 261.75 393.95 263 396.2 263 398.9 263 400.4 258.15 393.5 250.75 395.1 240.5
M 1073.5 290.85
Q 1074.65 291 1084.65 292.2 1095.15 293.3 1106.8 277.1 1108.3 275.05 1109.7 272.85 1112 275 1114.6 278 1116.75 280.5 1119.15 283.6 1123.55 288.6 1129.15 288.6 1136.45 288.6 1146.8 281.3 1151.7 277.7 1153.7 276.4 1156.8 274.1 1157.95 274.1 1159.6 274.1 1161 276.85 1164.1 282.95 1164.25 283.2 1170 292.2 1183.8 292.2 1185.85 292.2 1191.35 287.3 1193.9 285 1195.55 283.05 1198.5 284.75 1200.85 286.5 1202.1 287.15 1204.3 287.55 1206.95 288.05 1211.15 288.05 1218.2 288.05 1223.75 285.35 1226.55 283.95 1232.4 279.5 1235.35 277.3 1239.85 270.8
L 1243.9 264.95
Q 1245.1 264.95 1248.8 266.8 1252.5 268.6 1253.3 268.6 1263.4 268.6 1268.85 244.85 1272.45 229.2 1272.45 217.55 1272.45 213.35 1271.35 208.85 1261.3 221.15 1248.05 231 1242.4 235.1 1236.15 238.8 1210 254.45 1186.9 255.2 1185.75 255.2 1184.7 255.2 1166 255.2 1157.95 253.05 1154.65 252.1 1153.25 251.7 1151.15 250.95 1148.6 250.95 1144.35 253.55 1137.1 256.1 1122.65 261.3 1102.95 261.3 1088.25 261.3 1081.3 260.4 1073.5 259.3 1068.25 256.45 1063.65 253.8 1057.35 247.6 1048.7 238.55 1042.25 232.05 1021.2 246.35 1006.45 253.15 982.1 264.3 959.65 264.3 937 264.3 917.65 256.75 902.3 249.15 899.6 249.15 895.15 249.15 886.3 253.05 877.45 257 866.1 257 858.5 257 851.9 256.1 851.6 256.95 851.35 257.85 849.85 256.7 848.45 255.55 843 254.45 838.4 252.65 838.1 252.5 837.8 252.4 833.15 250.6 827.8 247.4 824.95 245.75 821.95 243.7 823 245.75 824.7 248.7 825.4 249.95 826.2 251.35 827.95 254.3 829.6 257.2 828.9 257.6 828.2 258 822.6 261.35 819.9 262.2 817.05 263.15 812.25 263.25 805.4 263.1 799.4 263.1 799.4 264.95 786.9 263.6 774.35 262.2 766.55 259.5 761.05 257.5 755.3 254.05 752.35 252.25 749.3 250.05 743.35 245.6 741.55 244.6 740.95 244.3 740.8 244.3 740.3 244.3 739.4 244.55 735.95 245.35 726.45 249.45 725.7 249.7 724.95 250.05 711.5 255.85 703.35 255.85 697.55 255.85 694.1 252.5 693.75 252.15 693.5 252 690.4 249.15 688.2 249.15 687.05 249.15 685.9 249.45 684 249.8 681.85 250.85 677.6 253.3 674.9 254.65 664.15 260.05 649.95 260.05 635.4 260.05 625.55 255.3 624.25 254.65 623.1 254 616.95 250.3 615.3 246.6 614.65 245.2 614.75 243.7 613.5 244.15 612.25 244.55 606.3 246.45 601 248 589.85 251.1 581.4 252.35 570.6 254 552.2 254 535.8 254 532.75 253.5 525.05 252.35 518.8 246.1 511.75 246.1 496.55 249.8 482.5 253.4 481.7 253.4 478 253.4 470.8 248.65 470.7 248.65 470.6 248.55 463.9 243.7 463.45 243.7 462.9 243.7 458 245.7 454.7 247 449.6 249.15 436.8 254.65 427.7 254.65 421.15 254.65 411.95 251.45 409.05 250.45 406.7 249.55 402.65 255.15 403.25 260.8 405.8 262.85 409.25 264.75 412.85 266.05 415.3 266.95 417.7 267.85 421.55 267.75 425.4 267.6 428.75 265.2 428.85 265.05 428.9 264.95 429.5 264.55 433.1 260.95 435.3 263.1 437.15 264.55 441.25 267.95 443.8 267.95 449.95 267.95 452 262.75 452.65 263.35 453.55 264.8 454.7 266.1 457.3 266.1 458.9 266.1 461 264.9 463.15 263.65 463.65 263.65 464.15 263.65 466.9 267.25 470.85 270.95 476.3 270.95 481.6 270.95 486.2 264.95 489.55 259.55 491.6 257 492.35 257 493.25 257 495 260.3 497.85 262.25 501.45 264.9 506.3 264.9 508.85 264.9 512.15 263.5 513.8 262.75 515.4 261.85 516.8 264.25 517.8 266.2 518.45 267.05 520.9 267.05 524.05 267.05 526.65 265.2 529.45 263.35 529.7 263.35 529.95 263.35 532.8 266.1 536.5 268.85 540.2 268.85 543 268.85 548.35 266.3 550.95 264.95 553.4 263.65 554.1 263.65 556.7 266.1 560.05 268.5 564 268.5 568.75 268.5 574.1 265.9 575.15 265.4 576.3 264.75 580.1 262.45 583.45 259.15 585.25 264 587.95 267.05 588.7 267.85 589.45 268.5 593.45 271.85 599.45 271.85 601.5 271.85 605.05 270.15 606.05 269.65 607.2 269 608.15 268.4 609.05 268 610.4 269.55 612.2 270.8 612.25 270.9 612.35 270.95 616.1 273.45 620.45 273.45 626.4 273.45 630.3 271.05
L 630.4 270.95
Q 636.4 267.2 639.35 266.1 640.75 268.4 641.65 269.65 642.7 271.4 642.8 271.45 644.2 272.85 647.8 272.85 651.1 272.85 654.7 270 658.3 267.05 659.7 267.05 659.85 267.05 663.5 269.15 667.15 271.3 670.6 271.3 676.6 271.3 682.1 267.5 684.65 265.8 686.8 263.4 690.95 268.35 691.9 268.9 693.85 270.4 698.2 270.4 703.2 270.4 706.75 264 708.35 260.85 708.95 259.65 710 257.65 710.75 257.65 711 257.65 716.15 263.6 721.35 269.5 725.5 269.5 728.75 269.5 732.25 265.4 735.3 261.75 735.3 260.05 738 261.95 741.95 265.2 745.45 267.7 750.05 267.7 751.8 267.7 757.35 266.1 757.45 266.1 761.2 269.65 765.4 273.1 767.7 273.1 771.25 273.1 778.15 269.4 779.75 268.4 781.1 267.7 783.95 270.3 787.4 272.1 792.35 274.6 797.25 274.65 797.25 274.75 797.35 274.75 797.85 275.25 804 272.2 807.35 270.65 810.8 268.9 811.6 268.9 814.3 270.9 817.05 272.85 820 272.85 828.95 272.85 832.45 269.8 833.95 268.6 834.95 266.65 836.4 269.3 837.8 271.95 844.3 278.25 850.35 278.25 853.65 278.25 857.35 276.45 859.7 275.3 864.4 272.2 864.7 274.35 868.35 279.85 871.85 285.25 875.4 285.15 879 285 886.8 279.6 888 278.7 889.35 277.7 899.35 270.4 900.5 270.4 902.4 270.4 903.8 272.2 904.5 273.35 906.15 276.15 910 281.95 920.2 281.95 925.3 281.95 927.35 280.3 935.7 273.6 937.85 272.2 943.9 283.45 948.6 286.7 953 289.85 962.4 289.85 966.75 289.85 970.25 289.2 973.4 288.05 976.65 286.9 976.9 286.7 977.15 286.65 984.55 282.2 989.45 270.4
L 990.05 269.15
Q 992.6 276.7 994.9 279.9 995.3 280.4 995.7 280.8 998.5 283.75 1004.3 283.75 1006.7 283.75 1013.5 280.4 1020.3 277.1 1020.75 277.1 1021.4 277.1 1028.7 281.65 1035.9 286.25 1043.2 286.25 1047.8 286.25 1053.3 281.3 1061.7 273.85 1062.35 273.45 1063.15 286.9 1069.25 289.6 1071.3 290.4 1073.5 290.85 Z"/>

<path fill="#5B8835" stroke="none" d="
M 92.95 174.35
Q 92.998828125 174.789453125 92.75 174.95 93.005859375 174.794140625 93.25 174.55 92.95 174.3 92.95 174.35
M 139.05 112.1
Q 138.95 112.25 138.95 112.5
L 139.05 112.3 139.05 112.1
M 131.75 115.5
Q 131.40546875 115.84453125 131.15 115.85 131.40546875 115.85 131.75 115.85
L 131.75 115.5
M 851.35 257.85
Q 851.6 256.95 851.9 256.1 850.1 255.85 848.45 255.55 849.85 256.7 851.35 257.85
M 1045.6 123.4
Q 1046.1 123.5 1045.95 123.3 1045.70390625 123.05390625 1045.75 122.85 1045.6984375 123.0552734375 1045.6 123.4
M 1148.35 99.95
L 1148.6 99.75 1148.6 99.6
Q 1148.5 99.7 1148.35 99.95
M 1140.45 98.85
Q 1140.1546875 99.046875 1139.9 98.95 1140.1546875 99.053125 1140.45 99.25 1140.65 98.8 1140.45 98.85 Z"/>

<path fill="#769A17" stroke="none" d="
M 458 245.7
Q 462.9 243.7 463.45 243.7 463.9 243.7 470.6 248.55 470.7 248.65 470.8 248.65 471.85 248.7 472.85 248.7 476.95 248.7 486.15 243.4 495.3 238.05 497.95 238.05 513.8 238.05 521.4 243.4 525.75 246.45 527.1 247.1 530.85 248.7 536.95 248.7 544.05 248.7 545.3 248.25 547.2 247.35 553.9 240.5
L 555.55 239.7
Q 557.55 244.3 564.1 246.75 569.25 248.7 575.25 248.7 581.55 248.7 586.5 245.35 589.35 243.4 594.95 238.9 598.25 244.35 601 248 606.3 246.45 612.25 244.55 609.65 242.55 607.35 239.8 603.25 234.3 601 231.8 597.25 227.55 593.3 225.75 585.85 236 584.95 236.8 580.75 240.5 571.95 240.5 558.6 240.5 557.2 226.55 556.7 226.55 556.05 227
L 555.55 227.4
Q 553.75 232.65 543.8 237.05 535.95 240.5 533.25 240.5 527 240.5 524.95 236.6 522.15 228.95 518.45 221.65
L 517.65 221.65
Q 517.05 226.4 511.65 230.4 506.95 233.95 503.7 233.95 500.3 233.95 492.85 229.75 485.15 225.15 483.1 224.1 484.3 229.45 478.65 234.6 473 239.7 465.85 239.7 459.6 239.7 451.65 234.35 443.6 229.05 440.4 229.05 435.9 234.05 432.6 236.8 426.6 242.15 422.7 242.15 419.5 242.15 414.05 240.25 411.1 239.2 407.5 237.55 406 236.9 404.65 236.25 402.6 235.25 400.8 234.25 399.05 233.35 397.55 232.4 396.75 234.25 396.2 236 395.45 238.3 395.1 240.5 397.8 242.25 401.25 244.55 401.6 244.8 402 245.05 404.95 246.8 408 247.9 412.6 249.55 417.35 249.55 424.55 249.55 433.85 244.2 438.45 241.6 442.85 238.9 444.25 238.9 453.45 243.8 455.75 244.85 458 245.7
M 348.35 185.55
Q 347.45 188.65 346.5 191.45 344.65 196.7 342.65 200.8 336.9 212.6 325.75 212.6 316.9 212.6 311.95 203.6 311.5 202.75 310.6 200.3 308.1 194.25 302.35 178.15 302.05 178.8 296.4 182.9 290.45 187.15 289.25 187.15 279.25 187.15 270.45 173.15 266.35 166.55 258.05 146.95
L 257.25 147.8
Q 256.4 150.55 252.7 155.5 248.05 161.55 245.6 165 241.45 170.7 233.7 173.3 226.35 175.7 221.8 175.85 221.8 177.4 221.2 176.4 220.95 176 221.35 175.85 221.3 175.85 221.2 175.85 216.604296875 175.75 221.6 175.75 221.696875 175.7015625 221.8 175.7 207.898828125 175.5984375 202.75 168.85 199.6 164.75 197.65 156.65 195.35 147.35 194.6 132.85
L 194.6 133.65
Q 193.55 138.4 187.05 143.5 180.6 148.6 175.75 148.6 167.05 148.6 159.55 133.4 152.6 119.15 153.6 107.4
L 152.75 107.4
Q 150.85 113.3 141.35 125.6 131.25 138.6 127.25 138.6 122.65 138.6 120.15 136.55 116.9 133.75 114.9 126.3
L 113.3 126.3
Q 113.3 128.75 112.6 131.75 111.5 136.8 108.45 143.5 102.35 156.8 94.8 156.8 85.3 156.8 80.55 140.8 78.8 135.05 78.3 129.05 78.25 127.75 78.25 126.75 76.85 126.85 75.55 127.1 72.8 138.5 68.55 145.5 57.15 164.2 34.8 164.2 30.05 164.2 25.8 163.35 15.95 161.5 8.9 155.35 8.5 155.35 8.15 155.5
L 8.15 156.8
Q 12.85 167.9 21.7 172.5 24.5 173.95 27.95 174.85 34.15 176.5 42.6 176.5 51.25 176.5 61.1 169.55 70.85 162.55 72.55 162.55 73.95 162.55 81.5 166.65 89 170.75 93.15 170.75 102.3 170.75 108.75 165.4 114.9 160.25 117.4 151.05 119.1 151.65 123.05 152.2 126.75 152.7 128.45 152.7 129.55 152.7 130.5 152.6 134.6 152.3 136.2 150.55 137.75 148.95 144.55 141.05 145.7 148.45 160.95 154.35 167.1 156.7 172.55 157.95 178.3 159.25 183.1 159.25 183.2 174.6 195.2 182 204.7 187.9 220.15 188
L 220.15 188.05
Q 219.75 188.15 219.5 188.3 219.5 188.4 219.5 188.55 219.65 188.55 220.15 188.55 222.7 188.4 233.85 186.5 235 186 236.2 185.55 244.35 182.25 252.55 178.15 254.1 178.15 256.15 180.7 259.3 184.7 261.25 186.35 261.9 186.95 262.75 187.5 270.2 192.9 283.9 194.25 287.95 194.55 292.5 194.55 292.85 196.95 293.45 199.15 296.15 210 304.75 215.8 313.35 221.65 326.6 221.65 335.3 221.65 336.5 221 337.65 220.25 345.05 210.95 348 212.6 355.3 218.35 362.1 223.3 366 223.3 368.6 223.3 372.7 221.25 376.8 219.2 378.8 219.2 380.35 219.2 382.7 221.3 384.05 222.55 386.15 224.9 392.8 231 403.15 216.65
L 403.05 216.65
Q 401.75 217.7 400.05 218.1 399.15 218.35 398.05 218.35 393.95 218.35 392.05 214.75 390.7 211.85 390.35 206.45 389.35 205.7 388.45 205.15 386.5 211.05 385 213 383.45 215.1 380.4 215.1 371 215.1 361.65 205 357.1 199.95 351.95 191.7 350.2 188.8 348.35 185.55
M 95.95 167.05
Q 95.8 166.9 95.7 166.75
L 95.9 166.9 95.95 167.05
M 695.15 242.15
Q 690.65 242.15 689.9 239.85 688.5 235.9 681.2 232.3 673.65 237.95 671.7 239.35 669 241.35 663.95 241.35 652.5 241.35 649.95 218.35
L 649.1 218.35
Q 645.4 229.6 642.2 236.5 636.25 249.55 626.55 249.55 620.55 249.55 615.3 246.6 616.95 250.3 623.1 254 624.25 254.65 625.55 255.3 634.35 255.2 635.9 254.55 636.9 254.15 652.4 243.8 655.95 247.75 658.45 248.4 659.7 248.7 667.25 248.7 667.5 248.7 673.35 247.9 679.25 247.1 680.4 247.1 681.1 247.1 685.9 249.45 687.05 249.15 688.2 249.15 690.4 249.15 693.5 252 697.8 251.5 703.6 248.3 710.2 244.6 711.15 244.6 711.35 244.6 726.45 249.45 735.95 245.35 739.4 244.55 730.35 244.15 727.75 242.1 724.85 239.85 718.2 225.75
L 718.2 226.55
Q 717.4 227.15 705.35 237.9 700.5 242.15 695.15 242.15
M 782.9 246.6
Q 776.5 241.1 773.3 231.5 772.55 231.8 759.85 239.7 751.7 244.6 744.05 244.6 742.75 244.6 741.55 244.6 743.35 245.6 749.3 250.05 752.35 252.25 755.3 254.05 758.35 253.55 759.4 252.5 764.5 247.4 768.35 245.45 770.85 250.85 786.5 254.95 800.3 258.55 811.85 258.55 818.5 258.55 821.8 253.15 822.95 251.25 823.75 248.65 820.95 248.25 819.75 246.75 817.55 243.15 814.3 239.7 811.35 249.2 806.7 251.25 805.05 252 797.1 252 789.3 252 782.9 246.6
M 1172.7 136.1
L 1171.1 137.75
Q 1172.55 149.85 1163.35 158.45 1155.55 165.65 1147.7 165.65 1135.95 165.65 1129.3 156.55 1126.05 151.95 1116.1 129.55
L 1115.3 130.4
Q 1110.95 141.15 1105.45 146.15 1101 150.1 1096.25 150.1 1087.15 150.1 1083.45 146.2 1078.25 138.6 1072.45 131.2 1069.05 137.1 1066.85 143 1065.8 146.15 1064.4 150 1063.35 152.55 1061.25 153.35 1059.15 154.2 1053.55 154.2 1050.35 154.2 1049.2 153.1 1048.55 152.55 1047.9 150.5 1046.4 145.8 1039.5 143.5 1039.5 163.35 1036.9 172.95 1031.3 193.75 1014.1 193.75 1003.4 193.75 998.1 189.55 991.85 184.65 989.45 171.6
L 988.65 171.6
Q 982.75 183.05 981.75 184.05 979.55 186.35 971.75 186.35 965.25 186.35 958.35 178.95 950.15 170.25 950 157.45 949.4 162.3 948.35 174.55 947.1 186 944.65 193.5 937.6 215.1 917.1 215.1 910.9 215.1 905 207.95 899.25 201.05 895.75 189.65 895.75 190.45 894.9 192.1 894.35 201.45 888.7 206.3 884 210.15 877.7 210.15 872.45 210.15 868.25 206.45 865.35 204 858.8 195.4 853.05 206.8 851.15 209.6 848.45 213.45 840.75 213.45 831.75 213.45 824.85 210.1 824 209.7 823.2 209.25 821.8 208.45 820.55 207.5 820 207.95 819.5 208.4 819.4 208.45 819.35 208.5 819.35 209.6 819.35 210.75 819.35 211.2 819.35 211.7 819.35 212.85 819.35 213.95 819.35 215.3 819.35 216.7 821.55 217.85 824.1 218.95 825.95 219.75 827.7 220.4 828.55 220.7 829.4 220.95 834.25 222.45 838.1 222.45 843.3 222.45 847.3 220.15 853.65 216.45 858 215.1 862.1 219.25 865.85 220.65 870.6 222.45 880.15 222.45 881.3 222.45 885.55 218.75 889.75 215.1 890.4 215.1 890.55 215.1 902.45 218.75 916.2080078125 222.438671875 925.85 222.45 924.9375 222.4734375 924.55 223.2 924.95 227.15 931.1 225.35 938.65 223.1 947.5 211.8 951.3 206.95 953.7 203 955.4 200.15 958.2 194.55 964.1 196.05 969.05 198.25 969.95 198.65 971.25 199 973.45 199.5 976.65 199.5 977.25 199.5 984.05 197.85
L 1016.15 206.05
Q 1020.65 206.05 1024.9 203 1031 198.6 1036.75 188 1039.1 183.5 1043.2 175.6 1046.5 169.95 1048.95 169.95 1050.6 169.95 1054.8 172.4 1058.9 174.85 1060.05 174.85 1063.35 174.85 1067.35 167.95 1073.4 157.65 1077.35 153.35 1082.2 158.2 1086 163.6 1088.75 166.65 1095 166.65 1101.4 166.65 1104.3 164.75 1106.25 163.45 1111 158.45 1120.3 172.3 1126.6 175.6 1131.55 178.15 1145.65 178.15 1154.65 178.15 1157.4 177.65 1165.4 176.1 1171.9 169.95 1177.75 174.3 1185.55 183.9 1193 191.25 1203.5 191.25 1209.5 191.25 1216.9 187.15 1224.25 183.05 1225.65 183.05 1228.45 183.05 1233.35 189.65 1241.25 196.2 1258.55 196.2 1267.1 196.2 1271.6 196.1 1271.6 193.65 1271.6 191.1 1271.6 178.25 1270.45 167.8 1268.85 172.5 1268.65 172.8 1264.75 181.45 1251.6 181.45 1241.6 181.45 1239.1 178.95 1238.45 178.4 1230.25 164.05 1223.6 170.75 1221.25 172.95 1217.45 176.5 1212.55 176.5 1200.15 176.5 1189.2 161.4 1178.15 142.85 1172.7 136.1 Z"/>

<path fill="#ECFA8E" stroke="none" d="
M 401.75 187.65
Q 399.45 183.55 396.5 179.85 398.45 182.6 400.1 185.6 400.6 186.5 401.1 187.5 406.45 197.9 406.7 208.75 407.5 210.8 408.25 212.95 407.85 198.85 401.75 187.65
M 819.4 206.6
Q 819.35 207.4 819.35 208.25 819.35 208.35 819.35 208.5 819.4 208.45 819.5 208.4 820 207.95 820.55 207.5 819.9 207.1 819.4 206.6 Z"/>

<path fill="#EAF7FD" stroke="none" d="
M 328.2 168.05
Q 329.2 168.15 330.35 168.15 330.6 168.3 330.85 168.3 331.2 168.45 331.5 168.55 353.75 171.15 374.65 180.05 389.8 183.9 401.1 187.5 400.6 186.5 400.1 185.6 398.45 182.6 396.5 179.85 394.35 177.15 391.85 174.8 386.4 169.6 379.6 165.75 354.65 151.95 309.65 155.9 310.8 131.2 301.9 116.5 289.65 96.4 259.2 96.4 248.7 96.4 246.8 96.65 242.6 97.4 237.95 101.25
L 229.4 101.25
Q 229.35 101.1 228.65 91.95 228 82.1 225.95 75 219.15 51.25 197.25 51.25 188.45 51.25 178.55 55.8 168.2 61.3 163.85 63.4 158.75 57 156.95 54.7 153.9 51.1 151.85 49.55 147.35 46.4 134.55 46.4 126.5 46.4 120 47.65 105.9 50.45 99.1 59.15 95.3 64.25 92.95 72.1 92 75.25 89.55 86.65 80.45 79.65 77.5 78.6 76 78 67 78 56.9 78 46.8 88.85 46.7 88.95 46.65 89
L 46.55 89
Q 40.8 95.15 35 104.85 28.65 115.35 24.8 126.35 23.25 130.8 22.35 134.4 12.65 138.5 8.15 144.35
L 8.15 154.65
Q 8.5 155 8.9 155.35 21.55 152.35 33.9 137.1 35.05 135.65 36.2 134.05 47.4 119.2 59.05 92.65 63.95 95.75 66.65 96.75 71.2 98.35 77.9 98.35 80.7 98.35 84.15 97.2 94.1 93.85 108.85 80.75 113.75 76.3 122.4 68.5 128.95 63 131.75 63 136.6 63 140.1 64.8 140.55 64.95 146.05 68.75 154.55 74.5 170.4 74.5 180 74.5 185.4 72.05 190.85 69.55 195.85 69.55 200.6 69.55 204.65 76.8 207.1 81.05 212 92.65 223.1 115.6 241.45 115.6 244.1 115.6 255.2 113.95 266.35 112.3 266.65 112.3 281.3 112.3 286.95 124.05 288.75 127.65 290.7 134.95 292.95 143.1 294.15 146.15 298.2 155.8 309 161.3 314.45 164.1 328.2 168.05
M 669.8 178.4
Q 666 162 653.9 162 647.05 162 642.15 168.2 639.1 172 634.5 182 629.85 192 626.8 195.8 621.8 202.05 615 202.05 614 202.05 611.6 199.55 606.45 194.3 606.2 194.15 597.6 186.25 589.3 186.25 581.1 186.25 570.35 195.4 564 200.55 562.55 201.6 558.45 204.5 555.3 204.5 552.2 204.5 549.55 200.9 548.4 199.25 545.2 192.9 539.3 181.45 532.25 181.45 531.75 181.45 515.65 190.95 499 200.8 495.65 203.25 495.3 199.55 490.95 194.8 486.6 189.9 483.5 189.9 483.25 189.9 467.75 202.1 452.15 214.35 452 214.35 450.25 214.35 444.1 207.5 437.95 200.8 435.55 200.8 425.8 200.8 412.1 213.5 411.1 214.35 410.3 215.25 409.85 215.7 409.4 216.15 408.8 216.75 408.2 217.35 407.15 218.4 406.2 219.5 401.75 224.45 398.9 229.45 398.15 230.9 397.55 232.4 399.05 233.35 400.8 234.25 402.6 235.25 404.65 236.25 406 236.9 407.5 237.55 411.1 239.2 414.05 240.25 416.3 237.4 418.75 234.3 432.55 216.65 434.65 216.65 437.4 216.65 443.35 221.9 449.45 227.05 453.15 227.05 456.9 227.05 460.25 223.85 461.9 222.3 466.1 216.7 473.8 206.4 482.1 206.4 487.35 206.4 495.9 213.35 504.5 220.4 505.75 220.4 507.65 220.4 510.85 216.7 514.95 211.7 517.3 208.85 527.1 197.25 535.3 197.25 538.1 197.25 548 211.3 557.95 225.25 561.15 225.25 562.05 225.25 571.25 211.55 580.6 197.85 584.75 197.85 590.6 197.85 604.15 209.75 617.7 221.55 620.7 221.55 626.05 221.55 628.5 215.3 631.4 205.95 634.45 199.65 637.2 193.9 643.3 187.5 649.55 181.5 650.85 180.2
L 656.25 180.2
Q 658.7 184.85 661.1 193.1 662.4 197.7 664.85 206.6 669.55 221.55 677.25 221.55 680.45 221.55 692.95 215.5 705.4 209.4 705.85 209.4 711.75 209.4 715.75 216.4 718.05 220.25 718.8 221.25 720.7 223.45 723.15 223.45 725.5 223.45 732.85 217.95 740.15 212.45 744.4 212.45 746.7 212.45 754 217.95 761.3 223.45 767.3 223.45 770.1 223.45 780.7 219.45 791.25 215.5 793.05 215.5 804 215.5 819.3 223.2 819.35 219.85 819.35 216.7 819.35 215.3 819.35 213.95 815.65 210.8 814.55 209.5 811.6 206 810.2 201.2 803.1 197.2 795.45 197.2 788.55 197.2 779.7 200.45 769.85 204.1 760.8 210.55 754.6 204.25 752.45 198.5 751.85 196.85 751.2 196.45 750.3 195.95 747.45 195.95 743.35 195.95 732 200.2 720.75 204.5 720.05 204.5 716.25 204.5 712.8 198.4 709.45 192.35 704.85 192.35 699.75 192.35 695.65 194.5 692.1 196.3 674.5 205.65 673.25 201.7 672.1 192.75 670.7 182.35 669.8 178.4
M 1158.45 6.2
Q 1146.85 6.2 1135.15 14.8 1124.65 22.55 1115.7 35.75 1107.3 48 1102.7 61.3 1098.1 74.55 1098.95 83.95 1098.45 81.15 1094.5 75.8 1090.1 69.8 1084.1 64.5 1067.9 49.95 1051.5 49.95 1017.95 49.95 1004.55 88.3 1000.45 100 997.75 117.65 994.9 136.2 994.45 137.7
L 994.45 135.2
Q 982 115.6 972.9 109.6 963.2 103.4 944.4 103.4 920.35 103.4 909.2 115.6 896.15 130.15 894.6 166.8 888.85 161.55 879.3 159 872.1 157.15 864.2 157.15 838.95 157.15 829 169.3 822.05 177.8 820.15 195.85 820.05 196.4 820 196.95 820.25 196.65 820.55 196.4 823.3 193.25 827.8 188.05 837.2 177.3 844.85 174.85 858.25 170.35 863.9 169.85 867.9 169.45 877.7 169.95 880.4 169.95 889.65 171.15 898.85 172.4 900.65 172.4 904.85 172.4 909.85 164.95 911 163.2 912.8 160.4 915.5 155.9 919.7 148.5 921.65 145.3 923.65 142.55 936.45 124.65 950.7 124.65 961.8 124.65 974.55 133.25 987.25 141.85 999.25 141.85 1007.25 141.85 1013.2 131.35 1015.95 126.45 1022.8 108.2 1028.75 92.05 1034.05 85 1041.9 74.5 1053.05 74.5 1058.8 74.5 1074.65 83.95 1090.4 93.35 1094.6 93.35 1104.2 93.35 1110.7 85.65 1112.8 83.1 1121 68.75 1127.6 57.1 1134.75 51.75 1145.05 44.05 1161.25 44.05 1182.8 44.05 1192.4 79.4 1194 85.4 1195.45 95.75 1198.25 106.15 1200.4 114.4 1202.25 118.15 1204.75 121.35 1212.55 131.3 1233.85 142.55 1238.45 144.5 1243.55 147.45 1259.65 155.35 1269.3 160.85 1266.35 144.75 1259.8 135.65 1246.65 117.6 1213.35 118.25 1215.05 108.15 1214.35 91.8 1213.45 71.35 1208.65 54.2 1197.5 14.35 1170.25 7.6 1168.85 7.25 1167.45 7.05 1163.1 6.2 1158.45 6.2 Z"/>

<path fill="#000000" fill-opacity="0.2" stroke="none" d="
M 334.6 146.8
Q 325 148 324.85 148 321.6 138.65 317.9 128.4 310.4 107.75 307.8 103.55 306.7 101.8 299.85 97.05 293 92.3 289.55 90.8 275.2 84.4 267.15 83.35 254.45 84 250.4 85.25 246.4 86.55 245.8 86.55 241 67.35 239.1 56.75 238.6 53.4 235.3 49.55 231.2 45.35 229.4 43.4 224.25 37.9 198.15 38.15 190.85 38.55 186.15 39.6 177.8 41.6 166.15 48.25 161.15 40.5 157.45 39.1 155.8 38.55 146.7 38.55 139.15 38.55 133.8 39.85 131.1 40.5 128.95 41.5 124.85 43.4 120 47.65 126.5 46.4 134.55 46.4 147.35 46.4 151.85 49.55 153.9 51.1 156.95 54.7 158.75 57 163.85 63.4 168.2 61.3 178.55 55.8 188.45 51.25 197.25 51.25 219.15 51.25 225.95 75 228 82.1 228.65 91.95 229.35 101.1 229.4 101.25
L 237.95 101.25
Q 242.6 97.4 246.8 96.65 248.7 96.4 259.2 96.4 289.65 96.4 301.9 116.5 310.8 131.2 309.65 155.9 354.65 151.95 379.6 165.75 386.4 169.6 391.85 174.8 394.35 177.15 396.5 179.85 399.45 183.55 401.75 187.65 407.85 198.85 408.25 212.95 408.25 213.85 408.25 214.75 408.25 216.05 408.2 217.35 408.8 216.75 409.4 216.15 409.55 215.3 409.7 214.5 412.65 198.35 411.85 191.1 411.7 189.9 411.45 188.9 408.8 178.4 402.25 169.7 384.3 145.55 346.1 145.55 344.65 145.55 334.6 146.8
M 1166.8 6.35
Q 1161.95 2 1147.85 2 1131.35 2 1115.75 12.85 1098.85 24.6 1092.2 43.4
L 1091.65 43.7
Q 1091 44.2 1091 44.6 1072.2 37.55 1069 36.65 1066.95 36.1 1050.35 36.1 1032.15 36.1 1022.15 39.05 1011.85 42.05 1005.95 49.3 1000.7 55.8 996.45 68.65 994.55 74.75 988.25 99.25 982.3 95.75 967.05 92.2 950.4 88.35 937.45 88.35 911.15 88.35 896.55 110.2 886.7 124.95 885.5 141.3 880.05 139.75 859.7 144.8 844.75 148.5 830.25 153.45 819.35 157.05 813.5 169.55 809.2 178.8 808.9 189.3 806.05 188.75 802.75 188.75 794.8 188.75 788.45 192.1 782 195.4 775.75 195.4 772.4 195.4 767.7 191.75 763.1 188.15 755.65 188.15 752.05 188.15 742.75 192.1 734.05 196.05 733.8 196.05 730.7 196.05 728.25 193.35 726.9 192 724.15 187.5 718.9 179.05 712.8 179.05 708.2 179.05 700.4 183.9 692.6 188.75 687.2 188.75 682.35 188.75 679.55 183.8 678.85 182.5 675.55 172.95 673 165.5 669.45 162.05 664.45 157.15 655.7 157.15 641.5 157.15 629.5 172.95 626.55 176.9 621.8 183.8 618.1 188.75 615.55 188.75 612.1 188.75 609.7 186.75 608.4 185.7 605.95 182.35 601.25 176 594.55 176 588.15 176 574.5 182.1 560.9 188.15 560.5 188.15 558.25 188.15 556.4 184.85 555.55 183.4 553.25 177.8 549.15 167.4 544.4 167.4 532.35 167.4 518.85 177.5 515.5 180.05 510.15 184.4 506.15 187.5 504.25 187.5 503.5 187.5 499.25 181.75 495.05 176 490.55 176 480.65 176 469.9 188.4 463.15 196.1 462.25 197 458.3 200.9 455 200.9 453.85 200.9 448.95 197.5 444 194.25 442.55 194.25 424 194.25 416.95 200.45 411.6 205.25 410.3 215.25 411.1 214.35 412.1 213.5 425.8 200.8 435.55 200.8 437.95 200.8 444.1 207.5 450.25 214.35 452 214.35 452.15 214.35 467.75 202.1 483.25 189.9 483.5 189.9 486.6 189.9 490.95 194.8 495.3 199.55 495.65 203.25 499 200.8 515.65 190.95 531.75 181.45 532.25 181.45 539.3 181.45 545.2 192.9 548.4 199.25 549.55 200.9 552.2 204.5 555.3 204.5 558.45 204.5 562.55 201.6 564 200.55 570.35 195.4 581.1 186.25 589.3 186.25 597.6 186.25 606.2 194.15 606.45 194.3 611.6 199.55 614 202.05 615 202.05 621.8 202.05 626.8 195.8 629.85 192 634.5 182 639.1 172 642.15 168.2 647.05 162 653.9 162 666 162 669.8 178.4 670.7 182.35 672.1 192.75 673.25 201.7 674.5 205.65 692.1 196.3 695.65 194.5 699.75 192.35 704.85 192.35 709.45 192.35 712.8 198.4 716.25 204.5 720.05 204.5 720.75 204.5 732 200.2 743.35 195.95 747.45 195.95 750.3 195.95 751.2 196.45 751.85 196.85 752.45 198.5 754.6 204.25 760.8 210.55 769.85 204.1 779.7 200.45 788.55 197.2 795.45 197.2 803.1 197.2 810.2 201.2 811.6 206 814.55 209.5 815.65 210.8 819.35 213.95 819.35 212.85 819.35 211.7 819.35 211.2 819.35 210.75 819.35 209.6 819.35 208.5 819.35 208.35 819.35 208.25 819.35 207.4 819.4 206.6 819.5 201.45 820 196.95 820.05 196.4 820.15 195.85 822.05 177.8 829 169.3 838.95 157.15 864.2 157.15 872.1 157.15 879.3 159 888.85 161.55 894.6 166.8 896.15 130.15 909.2 115.6 920.35 103.4 944.4 103.4 963.2 103.4 972.9 109.6 982 115.6 994.45 135.2
L 994.45 137.7
Q 994.9 136.2 997.75 117.65 1000.45 100 1004.55 88.3 1017.95 49.95 1051.5 49.95 1067.9 49.95 1084.1 64.5 1090.1 69.8 1094.5 75.8 1098.45 81.15 1098.95 83.95 1098.1 74.55 1102.7 61.3 1107.3 48 1115.7 35.75 1124.65 22.55 1135.15 14.8 1146.85 6.2 1158.45 6.2 1163.1 6.2 1167.45 7.05 1167.05 6.6 1166.8 6.35 Z"/>
</g>
</defs>

<g transform="matrix( 1, 0, 0, 1, 0,0) ">
<use xlink:href="#Layer0_0_FILL"/>
</g>
</svg>
