
<svg xmlns="http://www.w3.org/2000/svg" version="1.1" xmlns:xlink="http://www.w3.org/1999/xlink" preserveAspectRatio="none" x="0px" y="0px" width="435px" height="200px" viewBox="0 0 435 200">
<defs>
<g id="_____________3_0_Layer0_0_FILL">
<path fill="#BCC3FF" stroke="none" d="
M 77.35 396.5
Q 72.1966796875 405.8013671875 48.6 404.4 63.734765625 408.5732421875 79.8 402 97.101953125 407.8779296875 114.45 408.25 88.53125 405.3259765625 77.35 396.5
M 181.95 405.15
Q 188.3396484375 405.159375 192.85 404.2 162.22109375 404.7521484375 160.25 395 152.52109375 403.94296875 121.95 408.15 138.66484375 407.411328125 155.45 401.6 167.9671875 405.390625 181.95 405.15 Z"/>

<path fill="#E3E4FF" stroke="none" d="
M 177.6 371.95
Q 177.241015625 379.825390625 171.3 385.7 177.49375 383.99375 182.1 380.7 179.837109375 381.062109375 177.5 381.95 178.2189453125 376.58671875 177.6 371.95
M 135.55 363.1
Q 139.3541015625 357.165234375 145.4 352.15 142.537890625 353.5490234375 139.6 355.75 139.350390625 344.0453125 133.75 335.15 138.1470703125 349.3248046875 135.55 363.1 Z"/>

<path fill="#F1F1FF" stroke="none" d="
M 11.95 394.7
Q 17.25234375 394.0833984375 23.55 395.45 31.251171875 395.4232421875 35.9 387.65 45.9275390625 394.0728515625 58.9 391.6 71.696875 389.448828125 73.6 378.4 74.35234375 370.30234375 64.55 366.7 64.4416015625 360.9822265625 58.95 356.7 42.78125 352.0982421875 34.15 362.3 27.104296875 371.377734375 29.1 383.1 9.7462890625 377.921875 -0.55 391.25 2.514453125 395.885546875 11.95 394.7
M 80.05 317.65
Q 69.37109375 322.8939453125 64.05 331.9 59.7033203125 341.9216796875 63.2 352.65 63.2017578125 352.65625 63.2 352.65 66.567578125 365.1681640625 76.95 370.85
L 76.95 370.85
Q 88.921484375 378.0337890625 102.55 375.5 99.753515625 380.8837890625 103.9 384.65 112.5212890625 392.67421875 126.25 391.15 138.9490234375 389.284375 147.55 382.55 157.7423828125 391.6822265625 169.85 387.45 174.4349609375 396.7501953125 184.85 394.3 193.869140625 391.990234375 203.4 395.6 203.81328125 391.386328125 199.6 386.85 191.473828125 379.2279296875 182.1 380.7 177.49375 383.99375 171.3 385.7 177.241015625 379.825390625 177.6 371.95 176.4025390625 362.28046875 169.5 355.75 157.7107421875 346.3775390625 145.4 352.15 139.3541015625 357.165234375 135.55 363.1 138.1470703125 349.3248046875 133.75 335.15 128.5576171875 326.8576171875 118.75 321 99.401953125 310.326171875 80.05 317.65 Z"/>

<path fill="#D3D7FF" stroke="none" d="
M 23.55 395.45
Q 17.25234375 394.0833984375 11.95 394.7 2.514453125 395.885546875 -0.55 391.25 -0.6912109375 391.4861328125 -0.85 391.7 -3.94296875 398.2689453125 7.15 402.05 25.4041015625 408.227734375 41.9 402.05 45.223828125 403.502734375 48.6 404.4 72.1966796875 405.8013671875 77.35 396.5 88.53125 405.3259765625 114.45 408.25 118.21328125 408.3447265625 121.95 408.15 152.52109375 403.94296875 160.25 395 162.22109375 404.7521484375 192.85 404.2 199.10859375 402.9501953125 201.75 399.85 203.2154296875 397.780078125 203.4 395.6 193.869140625 391.990234375 184.85 394.3 174.4349609375 396.7501953125 169.85 387.45 157.7423828125 391.6822265625 147.55 382.55 138.9490234375 389.284375 126.25 391.15 112.5212890625 392.67421875 103.9 384.65 99.753515625 380.8837890625 102.55 375.5 88.921484375 378.0337890625 76.95 370.85
L 76.95 370.85
Q 66.567578125 365.1681640625 63.2 352.65 63.2017578125 352.65625 63.2 352.65 59.7033203125 341.9216796875 64.05 331.9 58.19296875 341.97578125 58.95 356.7 64.4416015625 360.9822265625 64.55 366.7 74.35234375 370.30234375 73.6 378.4 71.696875 389.448828125 58.9 391.6 45.9275390625 394.0728515625 35.9 387.65 31.251171875 395.4232421875 23.55 395.45 Z"/>
</g>
</defs>

<g transform="matrix( -2.0919189453125, 0, 0, 2.0919189453125, 452.95,2.15) ">
<g transform="matrix( 1, 0, 0, 1, 12.3,-314.7) ">
<use xlink:href="#_____________3_0_Layer0_0_FILL"/>
</g>
</g>
</svg>
