
<svg xmlns="http://www.w3.org/2000/svg" version="1.1" xmlns:xlink="http://www.w3.org/1999/xlink" preserveAspectRatio="none" x="0px" y="0px" width="580px" height="215px" viewBox="0 0 580 215">
<defs>
<g id="_____________2_0_Layer0_0_FILL">
<path fill="#F1F1FF" stroke="none" d="
M 210.5 23.3
Q 221.45 28.85 233 24.8
L 235.7 25.8
Q 233.3 20.8 227.5 18.55 215.5 15.6 210.8 22.7 210.6 23 210.5 23.3
M 316.5 -2.3
Q 306.9 -6.7 301.25 -14.3 294.1 -17.1 286.85 -15.95 269.65 -12.35 268.95 4.6 256.65 -2.45 243.6 0.6 232.1 3 228.8 11.9 237.1 27.6 252 22 256.1 19.9 261.85 19.85 269.8 20.85 271.35 9.6 282.05 16.85 291.6 11.3
L 296.4 8.3 296.45 8.3
Q 305.15 3.95 314.1 9.6 318.45 11.45 323 11.3 321.1 5.95 325.35 1.6 332.9 -5.1 344 -5.1 354.4 -5.1 365.2 2.7 371.25 8.75 366 13.75 369.75 11.8 372.75 13.75 380.25 16.6 388.25 14.25 393 11.95 396.85 15.25 399.1 17.25 397.4 21.3 405.65 17.2 408.85 9.6 411.75 2.95 422.75 8
L 431.35 11.05
Q 442.2 14.75 452.45 14.1 449.45 16.35 449.25 18.95 457.35 27.1 470.55 22.25 483.05 17.35 496.55 23.35 497.55 18.45 491.45 12.8 479.55 3.3 467.25 6.85 462.75 11.55 455.6 13.8 461.7 6.6 460.9 -2.8 456.85 -22.55 435.75 -26.2 413 -28.25 405.9 -10.3 402.6 -13.6 398.25 -11.5 384.45 -46.25 344.65 -45.65 317.25 -44.95 309.7 -17.5 309.2 -9.05 316.5 -2.3 Z"/>

<path fill="#BCC3FF" stroke="none" d="
M 325.4 33.55
Q 342.05 39.3 358.45 40.1 334.3 35.15 318.2 23.85 320.85 30.8 309.1 32.1 287.85 34.25 274.45 24 274 35.9 229.75 34.2 257 39.05 280.7 32.25 302.2 41.35 325.4 33.55
M 451.25 36.25
L 451.3 36.25
Q 463.2 35.95 472.1 34.75 428.8 37.55 409.4 22.35 398.65 35.25 362.6 40.25 384.85 40.55 406.75 31.7 427.9 37.45 451.25 36.25 Z"/>

<path fill="#E3E4FF" stroke="none" d="
M 467.25 6.85
Q 464.55 7.6 461.8 9 461.95 2.5 460.9 -2.8 461.7 6.6 455.6 13.8 462.75 11.55 467.25 6.85
M 301.25 -14.3
Q 306.9 -6.7 316.5 -2.3 309.2 -9.05 309.7 -17.5 308.75 -14.3 308.15 -10.65 304.7 -12.95 301.25 -14.3 Z"/>

<path fill="#D3D7FF" stroke="none" d="
M 495 26.65
Q 496.2 25.05 496.55 23.35 483.05 17.35 470.55 22.25 457.35 27.1 449.25 18.95 449.45 16.35 452.45 14.1 442.2 14.75 431.35 11.05
L 422.75 8
Q 411.75 2.95 408.85 9.6 405.65 17.2 397.4 21.3 399.1 17.25 396.85 15.25 393 11.95 388.25 14.25 380.25 16.6 372.75 13.75 369.75 11.8 366 13.75 371.25 8.75 365.2 2.7 354.4 -5.1 344 -5.1 332.9 -5.1 325.35 1.6 321.1 5.95 323 11.3 318.45 11.45 314.1 9.6 305.15 3.95 296.45 8.3
L 296.4 8.3 291.6 11.3
Q 282.05 16.85 271.35 9.6 269.8 20.85 261.85 19.85 256.1 19.9 252 22 237.1 27.6 228.8 11.9 227.7 14.85 227.5 18.55 233.3 20.8 235.7 25.8
L 233 24.8
Q 221.45 28.85 210.5 23.3 208.2 28.55 215.65 31 222.8 32.95 229.75 34.2 274 35.9 274.45 24 287.85 34.25 309.1 32.1 320.85 30.8 318.2 23.85 334.3 35.15 358.45 40.1 360.5 40.2 362.6 40.25 398.65 35.25 409.4 22.35 428.8 37.55 472.1 34.75 489.35 32.4 495 26.65 Z"/>
</g>
</defs>

<g transform="matrix( 1.33514404296875, 0, 0, 1.33514404296875, -3.35,-34.85) ">
<g transform="matrix( 1.49188232421875, 0, 0, 1.78887939453125, -307.05,110.6) ">
<use xlink:href="#_____________2_0_Layer0_0_FILL"/>
</g>
</g>
</svg>
