
<svg xmlns="http://www.w3.org/2000/svg" version="1.1" xmlns:xlink="http://www.w3.org/1999/xlink" preserveAspectRatio="none" x="0px" y="0px" width="450px" height="180px" viewBox="0 0 450 180">
<defs>
<g id="_____________1_0_Layer0_0_FILL">
<path fill="#F1F1FF" stroke="none" d="
M 18.85 59.6
Q 22.65 54.85 14.45 47.9 2.75 43.1 -1.1 51 -14.95 48.5 -20.8 58.4 -13.5 63.7 -2.45 60.9 11.55 68.3 18.85 59.6
M 165.15 59.8
Q 177.25 54.65 189.9 59.8 190.55 57.2 189.2 53.95 179.35 40.15 164.65 39.45 152.65 41.2 144.7 46.7 155.1 36.15 156.4 22.95 156.1 20.9 155.65 18.8 147.8 -8.6 117.6 -9.45 89.55 -7.55 84.85 9.5 84.4 22.55 91.1 32.65 85.75 25 76.35 20.05 74.6 19.8 72.85 20 57.25 1.45 30.6 9.4 20.85 13.1 16.15 21.1 15.8 48.05 44 43.85 57.6 67.1 90.15 51.65
L 90.15 55.1
Q 99.75 48.55 95.15 34.75 113.5 55.75 137.85 46.75 141.5 66.25 165.15 59.8 Z"/>

<path fill="#BCC3FF" stroke="none" d="
M 151 72.8
Q 115.1 72.15 99.7 57.45 92.95 69.25 63.2 70.75 42.15 72.1 26.45 60.25 32.8 72.9 -4.75 70.7 7.8 72.85 25 72.3
L 40.35 71.6
Q 74.35 76.25 100.2 68.05 127.15 74.45 151 72.8 Z"/>

<path fill="#E3E4FF" stroke="none" d="
M 84.85 9.5
Q 83.2 15.25 84.3 22.85 80.35 20.45 76.35 20.05 85.75 25 91.1 32.65 84.4 22.55 84.85 9.5
M 154.3 40.4
Q 157.75 32.9 156.4 22.95 155.1 36.15 144.7 46.7 152.65 41.2 164.65 39.45 159.75 39.15 154.3 40.4 Z"/>

<path fill="#D3D7FF" stroke="none" d="
M 189.9 59.8
Q 177.25 54.65 165.15 59.8 141.5 66.25 137.85 46.75 113.5 55.75 95.15 34.75 99.75 48.55 90.15 55.1
L 90.15 51.65
Q 57.6 67.1 44 43.85 15.8 48.05 16.15 21.1 12 28.1 11.7 38.3 11.55 42.65 14.45 47.9 22.65 54.85 18.85 59.6 11.55 68.3 -2.45 60.9 -13.5 63.7 -20.8 58.4 -21.15 58.95 -21.45 59.55 -23.4 66.45 -12.45 69 -8.85 70 -4.75 70.7 32.8 72.9 26.45 60.25 42.15 72.1 63.2 70.75 92.95 69.25 99.7 57.45 115.1 72.15 151 72.8 166.95 71.7 181.5 67 188.75 64.4 189.9 59.8 Z"/>
</g>
</defs>

<g transform="matrix( 2.09197998046875, 0, 0, 2.09197998046875, 48.4,22.75) ">
<g transform="matrix( 1, 0, 0, 1, 0,0) ">
<use xlink:href="#_____________1_0_Layer0_0_FILL"/>
</g>
</g>
</svg>
