
<svg xmlns="http://www.w3.org/2000/svg" version="1.1" xmlns:xlink="http://www.w3.org/1999/xlink" preserveAspectRatio="none" x="0px" y="0px" width="640px" height="64px" viewBox="0 0 640 64">
<defs>
<g id="Layer0_0_FILL">
<path fill="#009297" stroke="none" d="
M 624.05 63.25
L 632.55 55.5 153.05 55.5
Q 152.7 55.5 152.4 55.5 152 55.5 151.6 55.5
L 8.35 55.5 17.6 63.25 624.05 63.25 Z"/>

<path fill="#00BEC5" stroke="none" d="
M 638.6 12
L 634.95 9.15 6.05 9.15 5.7 9.35
Q 5.5615234375 9.486328125 5.4 9.6 5.15 9.75 4.9 9.95
L 1.35 12.4 1.35 49.65 8.35 55.5 151.6 55.5
Q 152 55.5 152.4 55.5 152.7 55.5 153.05 55.5
L 632.55 55.5 638.6 50 638.6 12 Z"/>

<path fill="#01F6FF" stroke="none" d="
M 634.95 9.15
L 625.1 1.55 16.85 1.55
Q 11.95 5 7.05 8.45 6.9 8.5 6.8 8.6 6.5576171875 8.776171875 6.3 8.95
L 6.05 9.15 634.95 9.15 Z"/>
</g>
</defs>

<g transform="matrix( 1, 0, 0, 1, 0,0) ">
<use xlink:href="#Layer0_0_FILL"/>
</g>
</svg>
