
<svg xmlns="http://www.w3.org/2000/svg" version="1.1" xmlns:xlink="http://www.w3.org/1999/xlink" preserveAspectRatio="none" x="0px" y="0px" width="491px" height="45px" viewBox="0 0 491 45">
<defs>
<g id="Layer0_0_FILL">
<path fill="#009297" stroke="none" d="
M 477.45 42.75
Q 488.05 42.75 489.05 35.6
L 118.35 35.6
Q 117 35.7 115.6 35.6
L 2.1 35.6
Q 3.0841796875 42.75 13.6 42.75
L 477.45 42.75 Z"/>

<path fill="#01F6FF" stroke="none" d="
M 488.9 7.8
Q 488.5 6.3 487.6 5.15 484.85 1.65 477.45 1.65
L 13.6 1.65
Q 9.95 1.65 7.5 2.55 3.265234375 3.9744140625 2.3 7.8
L 488.9 7.8 Z"/>

<path fill="#00BEC5" stroke="none" d="
M 489.05 35.6
Q 489.15 34.85 489.15 34.05
L 489.15 10.3
Q 489.15 8.95 488.9 7.8
L 2.3 7.8
Q 2 8.9427734375 2 10.3
L 2 34.05
Q 2 34.8630859375 2.1 35.6
L 115.6 35.6
Q 117 35.7 118.35 35.6
L 489.05 35.6 Z"/>
</g>

<path id="Layer0_0_1_STROKES" stroke="#333333" stroke-width="2" stroke-linejoin="round" stroke-linecap="round" fill="none" d="
M 488.9 7.8
Q 489.15 8.95 489.15 10.3
L 489.15 34.05
Q 489.15 34.85 489.05 35.6 488.05 42.75 477.45 42.75
L 13.6 42.75
Q 3.0841796875 42.75 2.1 35.6 2 34.8630859375 2 34.05
L 2 10.3
Q 2 8.9427734375 2.3 7.8 3.265234375 3.9744140625 7.5 2.55 9.95 1.65 13.6 1.65
L 477.45 1.65
Q 484.85 1.65 487.6 5.15 488.5 6.3 488.9 7.8 Z"/>
</defs>

<g transform="matrix( 1, 0, 0, 1, 0,0) ">
<use xlink:href="#Layer0_0_FILL"/>

<use xlink:href="#Layer0_0_1_STROKES"/>
</g>
</svg>
