
<svg xmlns="http://www.w3.org/2000/svg" version="1.1" xmlns:xlink="http://www.w3.org/1999/xlink" preserveAspectRatio="none" x="0px" y="0px" width="190px" height="190px" viewBox="0 0 190 190">
<defs>
<g id="_____1_0_Layer1_0_FILL">
<path fill="#000000" fill-opacity="0.2980392156862745" stroke="none" d="
M 125.55 -2.1
L 10.1 -2.1
Q 3.8 -2.1 0.25 0.7 -4.25 4.2 -4.25 12.25
L -4.25 127.5
Q -4.25 141.85 10.1 141.85
L 125.55 141.85
Q 132.4 141.85 136 138.6 139.95 135.05 139.95 127.5
L 139.95 12.25
Q 139.95 -2.1 125.55 -2.1 Z"/>
</g>

<g id="_____1_0_Layer0_0_FILL">
<path fill="#999999" stroke="none" d="
M 4.2 2.6
Q 0 5.9580078125 0 13.5
L 0 122.1
Q 0 135.6 13.5 135.6
L 122.05 135.6
Q 128.4978515625 135.6 131.85 132.55
L 123.05 123.55
Q 120.14140625 126.25 114.55 126.25
L 20.95 126.25
Q 9.3 126.25 9.3 114.65
L 9.3 21.05
Q 9.3 14.4615234375 13.05 11.6
L 4.2 2.6 Z"/>

<path fill="#321919" stroke="none" d="
M 126.15 21.05
Q 126.15 9.45 114.55 9.45
L 20.95 9.45
Q 15.9169921875 9.45 13.05 11.6 9.3 14.4615234375 9.3 21.05
L 9.3 114.65
Q 9.3 126.25 20.95 126.25
L 114.55 126.25
Q 120.14140625 126.25 123.05 123.55 126.15 120.65859375 126.15 114.65
L 126.15 21.05
M 122.85 25.2
L 122.85 50.45 122.85 113.45
Q 122.85 118.3919921875 120.65 121.1 117.93046875 124.45 111.9 124.45
L 23.6 124.45
Q 12.65 124.45 12.65 113.5
L 12.65 87.4 12.65 25.2
Q 12.65 18.2478515625 17.05 15.7 19.6021484375 14.25 23.6 14.25
L 111.9 14.25
Q 122.85 14.25 122.85 25.2 Z"/>

<path fill="#623F35" stroke="none" d="
M 60.3 59.7
Q 35.8431640625 69.06015625 12.65 87.4
L 12.65 113.5
Q 12.65 124.45 23.6 124.45
L 111.9 124.45
Q 117.93046875 124.45 120.65 121.1 122.85 118.3919921875 122.85 113.45
L 122.85 50.45
Q 90.6005859375 48.2115234375 60.3 59.7 Z"/>

<path fill="#734A3F" stroke="none" d="
M 122.85 50.45
L 122.85 25.2
Q 122.85 14.25 111.9 14.25
L 23.6 14.25
Q 19.6021484375 14.25 17.05 15.7 12.65 18.2478515625 12.65 25.2
L 12.65 87.4
Q 35.8431640625 69.06015625 60.3 59.7 90.6005859375 48.2115234375 122.85 50.45 Z"/>

<path fill="#FFFFFF" stroke="none" d="
M 135.6 13.5
Q 135.6 0 122.05 0
L 13.5 0
Q 7.5419921875 0 4.2 2.6
L 13.05 11.6
Q 15.9169921875 9.45 20.95 9.45
L 114.55 9.45
Q 126.15 9.45 126.15 21.05
L 126.15 114.65
Q 126.15 120.65859375 123.05 123.55
L 131.85 132.55
Q 135.6 129.1759765625 135.6 122.1
L 135.6 13.5 Z"/>
</g>

<g id="__________0_Layer1_0_FILL">
<path fill="#3B403E" stroke="none" d="
M 143.9 205.4
Q 143.7 205.3 143.5 205.25 142.4 204.9 141.4 204.45
L 130.2 211.7 132.05 213 143.9 205.4
M 119.75 168.3
L 91.95 184.55 93.2 185.4 120.25 169.65
Q 120.1 169.3 120 168.95 119.85 168.6 119.75 168.3
M 85.95 77.8
L 83.65 78.95 111.65 97.85 75.45 117.75 46.75 97.65 44.9 98.55 73.7 118.75 31.8 141.8 33.1 142.75 75.05 119.7 102 138.55 59.85 161.75 61.2 162.7 103.35 139.5 114.05 147.05
Q 113.8 145.75 113.6 144.5
L 105.1 138.55 112.1 134.7
Q 112 133.9 111.95 133.1
L 103.75 137.6 76.8 118.7 113.05 98.8 126.05 107.6
Q 127.2 107 128.4 106.45
L 115.25 97.6 123.25 93.2 121.7 92.35 113.85 96.65 85.95 77.8
M 254.7 145.1
L 247.1 140.45
Q 245.95 140.95 244.8 141.4
L 283 164.9 284.8 163.6 254.7 145.1
M 187.85 196.55
Q 186.85 196.95 185.85 197.4
L 211.1 215.05 212.65 213.95 187.85 196.55
M 239.85 143.15
Q 237.2 143.9 234.6 144.35
L 208.95 160.9 205.2 158.35
Q 205.3 159.75 205.4 161.15
L 206.9 162.2 205.45 163.1
Q 205.5 164.2 205.55 165.25 205.55 165.4 205.55 165.6
L 208.85 163.5 218.3 169.9 247.55 189.65 249.5 188.25 210.85 162.2 240.9 142.8
Q 240.35 142.95 239.85 143.15
M 167.55 91.5
L 165.55 92.65 176.55 99.4
Q 177.55 99.85 178.5 100.45 178.25 99.2 178.1 97.95
L 167.55 91.5
M 313 96.3
L 310.85 95.15 276.4 117.4 273.65 115.85
Q 273.3 116.85 272.95 117.9
L 274.4 118.7 272.1 120.15
Q 271.3 121.9 270.1 123.6 269.85 123.95 269.65 124.3
L 276.5 119.85 285.15 124.65 316.2 141.75 318.1 140.4 278.5 118.55 313 96.3 Z"/>

<path fill="#C4F9BB" stroke="none" d="
M 155.15 219.4
L 155.15 206.2
Q 154.15 206.35 153.15 206.5 148.05 206.65 143.9 205.4
L 132.05 213 162.05 234.3
Q 172.8 242.2 183.5 234.3
L 211.1 215.05 185.85 197.4 186.75 219.4 155.15 219.4
M 120.25 169.65
L 93.2 185.4 130.2 211.7 141.4 204.45
Q 141.2 204.35 141 204.25 133.9 200.9 129.85 192.6 124.4 182.15 120.65 170.85 120.55 170.6 120.45 170.35 120.35 170 120.25 169.65
M 114.05 147.05
L 103.35 139.5 61.2 162.7 91.95 184.55 119.75 168.3
Q 116.15 157.7 114.05 147.05
M 112.1 134.7
L 105.1 138.55 113.6 144.5
Q 112.65 139.6 112.1 134.7
M 114 117.15
Q 115.55 114.2 118 112 119.4 111.15 120.85 110.35 123.4 108.85 126.05 107.6
L 113.05 98.8 76.8 118.7 103.75 137.6 111.95 133.1
Q 111.7 130.75 111.5 128.45 111.5 126.5 111.75 124.75 112.25 120.45 114 117.15
M 33.1 142.75
L 59.85 161.75 102 138.55 75.05 119.7 33.1 142.75
M 11.95 115.25
Q 4.65 119.5 9.95 126.3
L 31.8 141.8 73.7 118.75 44.9 98.55 11.95 115.25
M 47.05 113.7
Q 51.35 116.2 51.35 119.7 51.35 123.2 47.05 125.7 42.8 128.2 36.75 128.2 30.7 128.2 26.4 125.7 22.15 123.2 22.15 119.7 22.15 116.2 26.4 113.7 30.7 111.2 36.75 111.2 42.8 111.2 47.05 113.7
M 111.65 97.85
L 83.65 78.95 46.75 97.65 75.45 117.75 111.65 97.85
M 316.2 141.75
L 285.15 124.65 254.7 145.1 284.8 163.6 316.2 141.75
M 240.9 142.8
L 210.85 162.2 249.5 188.25 283 164.9 244.8 141.4
Q 242.85 142.2 240.9 142.8
M 193.45 194
Q 190.65 195.35 187.85 196.55
L 212.65 213.95 247.55 189.65 218.3 169.9 205.1 179.45
Q 203.45 188.75 193.45 194
M 193.65 36.85
Q 193.85 44.25 193.1 51.7 200.25 47.95 207.75 44.9
L 193.65 36.85
M 310.85 95.15
L 280.5 79
Q 279.8 94 275.8 108.7 274.8 112.3 273.65 115.85
L 276.4 117.4 310.85 95.15
M 342.2 123.55
Q 351.6 117.95 344.15 112.9
L 313 96.3 278.5 118.55 318.1 140.4 342.2 123.55
M 325.45 109.7
Q 329.75 112.2 329.75 115.7 329.75 119.2 325.45 121.7 321.2 124.2 315.15 124.2 309.1 124.2 304.8 121.7 300.55 119.2 300.55 115.7 300.55 112.2 304.8 109.7 309.1 107.2 315.15 107.2 321.2 107.2 325.45 109.7 Z"/>

<path fill="#9A0104" stroke="none" d="
M 155.15 206.2
L 155.15 219.4 186.75 219.4 185.85 197.4
Q 170.8 203.6 155.15 206.2 Z"/>

<path fill="#D42500" stroke="none" d="
M 133.4 147.05
Q 134.2 145.85 135.1 144.65 124.1 143.35 118.9 133.75 118.25 132.7 117.7 131.6 117.35 130.95 117.05 130.3 115.35 126.75 114.65 122.95 114.05 120.1 114 117.15 112.25 120.45 111.75 124.75 111.5 126.5 111.5 128.45 111.7 130.75 111.95 133.1 112 133.9 112.1 134.7 112.65 139.6 113.6 144.5 113.8 145.75 114.05 147.05 116.15 157.7 119.75 168.3 119.85 168.6 120 168.95 120.1 169.3 120.25 169.65 120.35 170 120.45 170.35 120.55 170.6 120.65 170.85 124.4 182.15 129.85 192.6 133.9 200.9 141 204.25 130.05 188.6 128.05 170.35 127.8 168.3 127.75 166.35 127.7 165.8 127.75 165.25 127.7 164.95 127.75 164.65 127.75 164.1 127.8 163.6 127.95 160.4 128.75 157.35 129 156.4 129.3 155.5 130.7 151.15 133.4 147.05 Z"/>

<path fill="#EC342E" stroke="none" d="
M 51.35 119.7
Q 51.35 116.2 47.05 113.7 42.8 111.2 36.75 111.2 30.7 111.2 26.4 113.7 22.15 116.2 22.15 119.7 22.15 123.2 26.4 125.7 30.7 128.2 36.75 128.2 42.8 128.2 47.05 125.7 51.35 123.2 51.35 119.7
M 329.75 115.7
Q 329.75 112.2 325.45 109.7 321.2 107.2 315.15 107.2 309.1 107.2 304.8 109.7 300.55 112.2 300.55 115.7 300.55 119.2 304.8 121.7 309.1 124.2 315.15 124.2 321.2 124.2 325.45 121.7 329.75 119.2 329.75 115.7 Z"/>

<path fill="#2E4931" stroke="none" d="
M 133.7 98.85
L 123.25 93.2 115.25 97.6 128.4 106.45
Q 128.65 106.35 128.95 106.2 136.55 102.8 144.8 100.6 143.75 100.75 142.7 100.85 140 100.95 137.25 100.2 135.5 99.7 133.7 98.85
M 166.45 97.1
Q 172.05 97.35 176.55 99.4
L 165.55 92.65 156 98.25
Q 161.1 97.45 166.45 97.1
M 234.6 144.35
Q 229.05 145.25 223.7 144.65 220.3 144.05 216.9 142.95 209.2 140.5 201.55 135.5 204.4 146.95 205.2 158.35
L 208.95 160.9 234.6 144.35
M 167.55 91.5
L 178.1 97.95
Q 177.15 91.55 177 85.95
L 167.55 91.5 Z"/>

<path fill="#5F8D47" stroke="none" d="
M 103.35 82.4
Q 98.15 79 96.15 72.6
L 85.95 77.8 113.85 96.65 121.7 92.35 103.35 82.4 Z"/>

<path fill="#DAD4D0" stroke="none" d="
M 136.4 49.3
Q 135.1 45.3 132.35 42.4
L 113.05 29.85 103.75 25.3
Q 98.4 24.55 94.85 27.4 94.1 30.4 94.3 33.95
L 94.95 65.55
Q 95.15 69.45 96.15 72.6 98.15 79 103.35 82.4
L 121.7 92.35 123.25 93.2 133.7 98.85
Q 138.7 97.45 139.35 92.3
L 137.6 58.1
Q 137.7 53.2 136.4 49.3
M 105.55 38.4
Q 107.7 38.4 109.7 40.9 111.15 42.6 111.95 44.8 112.1 45.2 112.2 45.65 112.24375 45.825 112.3 46
L 112.3 46.05
Q 112.4 46.5 112.5 46.95 113.2 50.5 112.05 52.95 111.05 55.4 109.05 55.5 108.95 55.5 108.85 55.5 106.65 55.5 104.55 52.95 104.4 52.75 104.25 52.55 103.55 51.6 103.05 50.6 102.25 48.9 101.85 46.95 101.75 46.55 101.75 46.2 101.55 44.95 101.6 43.85 101.65 42.2 102.2 40.9 103.35 38.4 105.55 38.4
M 132.4 81.8
Q 132.65 84.5 131.75 86.45 130.7 89 128.55 89 126.35 89 124.25 86.45 123.35 85.35 122.75 84.1 122.1 82.65 121.7 81.1 121.6 80.75 121.55 80.45 121.45 80.05 121.45 79.7 120.95 76.65 121.9 74.4 123.05 71.9 125.25 71.9 127.4 71.9 129.4 74.4 130.85 76.1 131.65 78.3 131.85 78.9 132 79.55 132.1 80 132.2 80.45 132.35 81.15 132.4 81.8 Z"/>

<path fill="#3B3254" stroke="none" d="
M 132.15 81.8
Q 132.2 80.75 132 79.55 131.85 78.9 131.65 78.3 130.85 76.1 129.4 74.4 127.4 71.9 125.25 71.9 123.05 71.9 121.9 74.4 120.95 76.65 121.45 79.7 121.6 80.4 121.85 81.1 122.1 81.85 122.45 82.6 123.05 83.85 123.95 84.95 126.05 87.5 128.25 87.5 130.4 87.5 131.45 84.95 132.1 83.55 132.15 81.8
M 101.75 46.2
Q 102.1 47.75 102.75 49.1 103.35 50.35 104.25 51.45 106.35 54 108.55 54 110.7 54 111.75 51.45 112.8 49.2 112.3 46.05
L 112.3 46
Q 112.24375 45.825 112.2 45.65 112.1 45.2 111.95 44.8 111.15 42.6 109.7 40.9 107.7 38.4 105.55 38.4 103.35 38.4 102.2 40.9 101.65 42.2 101.6 43.85 101.55 44.95 101.75 46.2
M 163.3 76.2
L 163.3 76.15
Q 162.95 75 162.3 74 161 71.8 158.9 71.8 156.75 71.8 155 74 153.6 75.85 153.2 78.3 153.1 78.8 153.05 79.3 152.95 80.35 153.1 81.25 153.3 82.2 153.75 83 153.85 83.15 153.95 83.35 155.35 85.55 157.45 85.55 157.65 85.55 157.9 85.55 159.75 85.35 161.3 83.35 163 81.15 163.25 78.05 163.3 77.15 163.3 76.2
M 163 51.3
Q 163 50.85 163 50.4 162.65 49.25 162 48.25 160.7 46.05 158.6 46.05 156.45 46.05 154.7 48.25 154.15 49 153.75 49.8 153.45 50.35 153.3 50.95 153.15 51.35 153.05 51.85 152.8 52.65 152.75 53.55 152.65 54.6 152.8 55.5 153.05 56.65 153.65 57.6 155.05 59.8 157.15 59.8 159.3 59.8 161 57.6 161.4 57.1 161.7 56.6 162.2 55.65 162.55 54.65 162.85 53.55 162.95 52.3 163 51.8 163 51.3
M 181.4 35.5
Q 179.25 35.5 177.5 37.7 175.8 39.9 175.55 43 175.45 44.05 175.6 44.95 175.85 46.1 176.45 47.05 177.85 49.25 179.95 49.25 180.3 49.25 180.6 49.2 182.35 48.9 183.8 47.05 184.6 46 185.1 44.8 185.6 43.4 185.75 41.75 185.8 40.8 185.8 39.85 185.45 38.7 184.8 37.7 183.5 35.5 181.4 35.5
M 148.65 14.95
Q 148.3 14.75 147.9 14.6 146.05 13.75 143.5 13.75 140.45 13.75 138.25 14.95 136.3 16 136.15 17.5 136.6 18.6 138.1 19.45 139.45 20.1 141.1 20.4 142.15 20.55 143.35 20.55 146.4 20.5 148.5 19.45 150.5 18.4 150.65 16.9 150.25 15.75 148.65 14.95 Z"/>

<path fill="#14111C" stroke="none" d="
M 131.75 86.45
Q 132.65 84.5 132.4 81.8 132.35 81.15 132.2 80.45 132.1 80 132 79.55 132.2 80.75 132.15 81.8 132.1 83.55 131.45 84.95 130.4 87.5 128.25 87.5 126.05 87.5 123.95 84.95 123.05 83.85 122.45 82.6 122.1 81.85 121.85 81.1 121.6 80.4 121.45 79.7 121.45 80.05 121.55 80.45 121.6 80.75 121.7 81.1 122.1 82.65 122.75 84.1 123.35 85.35 124.25 86.45 126.35 89 128.55 89 130.7 89 131.75 86.45
M 102.75 49.1
Q 102.1 47.75 101.75 46.2 101.75 46.55 101.85 46.95 102.25 48.9 103.05 50.6 103.55 51.6 104.25 52.55 104.4 52.75 104.55 52.95 106.65 55.5 108.85 55.5 108.95 55.5 109.05 55.5 111.05 55.4 112.05 52.95 113.2 50.5 112.5 46.95 112.4 46.5 112.3 46.05 112.8 49.2 111.75 51.45 110.7 54 108.55 54 106.35 54 104.25 51.45 103.35 50.35 102.75 49.1
M 163.3 76.2
Q 163.3 77.15 163.25 78.05 163 81.15 161.3 83.35 159.75 85.35 157.9 85.55 157.65 85.55 157.45 85.55 155.35 85.55 153.95 83.35 153.85 83.15 153.75 83 153.3 82.2 153.1 81.25 153.15 82.05 153.35 82.75 153.65 83.75 154.15 84.6 155.55 86.8 157.65 86.8 158.55 86.8 159.35 86.45 160.5 85.9 161.5 84.6 163.2 82.4 163.45 79.3 163.6 77.65 163.3 76.2
M 163.15 51.3
Q 163.1 50.85 163 50.4 163 50.85 163 51.3 163 51.8 162.95 52.3 162.85 53.55 162.55 54.65 162.2 55.65 161.7 56.6 161.4 57.1 161 57.6 159.3 59.8 157.15 59.8 155.05 59.8 153.65 57.6 153.05 56.65 152.8 55.5 152.95 57.35 153.85 58.85 155.25 61.05 157.35 61.05 159.5 61.05 161.2 58.85 161.9 57.95 162.35 56.95 162.75 55.95 163 54.9 163.1 54.25 163.15 53.55 163.25 52.35 163.15 51.3
M 176.45 47.05
Q 175.85 46.1 175.6 44.95 175.75 46.8 176.65 48.3 177.5 49.65 178.65 50.2 179.35 50.5 180.15 50.5 182.3 50.5 184 48.3 185.6 46.2 185.95 43.35 185.95 43.15 185.95 43 186.1 41.3 185.8 39.85 185.8 40.8 185.75 41.75 185.6 43.4 185.1 44.8 184.6 46 183.8 47.05 182.35 48.9 180.6 49.2 180.3 49.25 179.95 49.25 177.85 49.25 176.45 47.05
M 150.65 16.9
Q 150.65 16.8 150.65 16.65 150.75 15.1 148.95 14.05 148.75 13.9 148.5 13.8 146.4 12.65 143.35 12.65 140.3 12.65 138.1 13.8 136 14.95 136 16.6 135.95 17.1 136.15 17.5 136.3 16 138.25 14.95 140.45 13.75 143.5 13.75 146.05 13.75 147.9 14.6 148.3 14.75 148.65 14.95 150.25 15.75 150.65 16.9 Z"/>

<path fill="#E9E7E3" stroke="none" d="
M 138.4 43.75
Q 136.9 41.7 134.55 39.9 133.55 39.6 132.65 39.25 131.3 38.75 130.05 38.1
L 113.05 29.85 132.35 42.4
Q 135.1 45.3 136.4 49.3 137.7 53.2 137.6 58.1
L 139.35 92.3
Q 138.7 97.45 133.7 98.85 135.5 99.7 137.25 100.2 140 100.95 142.7 100.85
L 141.2 53.05
Q 141.3 51.4 141.05 49.9 140.5 46.55 138.4 43.75 Z"/>

<path fill="#C7BBB6" stroke="none" d="
M 134.55 39.9
Q 136.9 41.7 138.4 43.75 140.5 46.55 141.05 49.9 141.3 51.4 141.2 53.05
L 142.7 100.85
Q 143.75 100.75 144.8 100.6 150.25 99.15 156 98.25 150.9 98.2 148.3 95.45 146.55 93.55 145.9 90.4
L 145.9 55.05
Q 145.95 52.65 146.45 50.45 146.65 49.45 147 48.5 147.3 47.45 147.75 46.5 149.95 41.4 154.8 37.35 150.4 39.2 146.1 40.4 141.2 41.25 136.75 40.45 135.6 40.2 134.55 39.9 Z"/>

<path fill="#3E317B" stroke="none" d="
M 247.1 140.45
L 254.7 145.1 285.15 124.65 276.5 119.85 269.65 124.3
Q 266.7 128.1 261.9 131.35 254.4 137.1 247.1 140.45 Z"/>

<path fill="#2353A9" stroke="none" d="
M 208.85 163.5
L 205.55 165.6
Q 205.6 170.1 205.35 174.65 205.45 177.15 205.1 179.45
L 218.3 169.9 208.85 163.5 Z"/>

<path fill="#FEDA75" stroke="none" d="
M 176.1 137.35
L 174.25 135.85 133.4 147.05
Q 130.7 151.15 129.3 155.5 129 156.4 128.75 157.35 127.95 160.4 127.8 163.6 127.75 164.1 127.75 164.65 127.7 164.95 127.75 165.25 127.7 165.8 127.75 166.35 127.8 168.3 128.05 170.35 130.05 188.6 141 204.25 135.65 193.6 132.6 182.95 129.75 173.6 130.5 164.8 130.55 164.2 130.6 163.6 130.65 163.3 130.7 163.05 130.75 162.4 130.85 161.8 131.05 160.45 131.35 159.15 131.55 158.2 131.8 157.3 132.9 153.15 134.85 149.15
L 176.1 137.35 Z"/>

<path fill="#F05A06" stroke="none" d="
M 176.05 132.95
Q 175.6 133.1 175.15 133.3 173.15 134.2 170.8 135.1 169.55 135.6 168.25 136.05 160.45 138.85 149.5 141.7 146 142.75 142.9 143.45 138.6 144.4 135.1 144.65 134.2 145.85 133.4 147.05
L 174.25 135.85 176.1 137.35 134.85 149.15
Q 132.9 153.15 131.8 157.3 131.55 158.2 131.35 159.15 131.05 160.45 130.85 161.8 130.75 162.4 130.7 163.05 130.65 163.3 130.6 163.6 130.55 164.2 130.5 164.8 129.75 173.6 132.6 182.95 135.65 193.6 141 204.25 141.2 204.35 141.4 204.45 142.4 204.9 143.5 205.25 143.7 205.3 143.9 205.4 148.05 206.65 153.15 206.5 154.15 206.35 155.15 206.2 170.8 203.6 185.85 197.4 186.85 196.95 187.85 196.55 190.65 195.35 193.45 194 203.45 188.75 205.1 179.45 205.45 177.15 205.35 174.65 205.6 170.1 205.55 165.6 205.55 165.4 205.55 165.25 205.5 164.2 205.45 163.1 205.45 162.45 205.4 161.8 205.35 161.45 205.3 161.1 205.1 159.6 204.85 158.15 201.3 135.55 194.55 130.35 185.3 129.35 176.05 132.95
M 179.6 148.35
Q 180.7 147.95 181.9 147.95 185 147.95 187.2 150.3 188.2 151.4 188.8 152.65 189.45 154.2 189.45 156.05 189.45 159.4 187.2 161.75 185 164.15 181.9 164.15 181.75 164.15 181.6 164.15 178.7 164.05 176.55 161.75 175.05 160.15 174.6 158.15 174.35 157.15 174.35 156.05 174.35 152.7 176.55 150.3 177.9 148.9 179.6 148.35
M 182.5 172.2
Q 183.8 171.55 185.4 171.55 187.9 171.55 189.8 173.25 190 173.45 190.25 173.7 190.65 174.15 191 174.65 191.1 174.75 191.15 174.9 191.45 175.3 191.65 175.8 192.3 177.25 192.3 178.95 192.3 182 190.25 184.15 188.25 186.35 185.4 186.35 182.55 186.35 180.5 184.15 180.4 184.05 180.3 183.95 179.7 183.25 179.35 182.5 179.25 182.35 179.2 182.25 178.85 181.55 178.7 180.8
L 178.7 180.75
Q 178.65 180.58125 178.65 180.45 178.5 179.7 178.5 178.95 178.5 175.9 180.5 173.7 181.4 172.75 182.5 172.2
M 145.35 159
Q 146.9 157.4 148.9 156.9 149.75 156.65 150.7 156.65 153.8 156.65 156 159 157 160.1 157.6 161.35 158.25 162.9 158.25 164.75 158.25 168.1 156 170.45 154.8 171.75 153.35 172.35 152.35 172.75 151.3 172.85 151.1 172.85 150.9 172.85 150.8 172.85 150.7 172.85 147.6 172.85 145.35 170.45 144.25 169.25 143.7 167.8 143.5 167.3 143.4 166.85 143.2 166.05 143.15 165.25 143.15 165 143.15 164.75 143.15 161.4 145.35 159
M 155 180.45
Q 157.8 180.45 159.8 182.55 160.7 183.5 161.2 184.65 161.65 185.65 161.8 186.75 161.85 187.25 161.85 187.8 161.85 190.2 160.65 192.05 160.25 192.55 159.8 193.05 158.1 194.9 155.8 195.15 155.4 195.2 155 195.2 152.15 195.2 150.1 193.05 148.75 191.6 148.3 189.7 148.1 188.8 148.1 187.8 148.1 184.75 150.1 182.55 150.45 182.15 150.9 181.85 152.65 180.45 155 180.45 Z"/>

<path fill="#898B96" stroke="none" d="
M 149.65 191.7
Q 148.8 190.8 148.3 189.7 148.75 191.6 150.1 193.05 152.15 195.2 155 195.2 155.4 195.2 155.8 195.15 158.1 194.9 159.8 193.05 160.25 192.55 160.65 192.05 161.85 190.2 161.85 187.8 161.85 187.25 161.8 186.75 161.65 185.65 161.2 184.65 161.4 185.5 161.4 186.45 161.4 186.6 161.4 186.8 161.3 189.65 159.35 191.7 157.35 193.85 154.55 193.85 151.7 193.85 149.65 191.7
M 144.9 169.1
Q 144.45 168.6 144.1 168.1 143.65 167.5 143.4 166.85 143.5 167.3 143.7 167.8 144.25 169.25 145.35 170.45 147.6 172.85 150.7 172.85 150.8 172.85 150.9 172.85 151.1 172.85 151.3 172.85 152.35 172.75 153.35 172.35 154.8 171.75 156 170.45 158.25 168.1 158.25 164.75 158.25 162.9 157.6 161.35 157.8 162.35 157.8 163.4 157.8 166.75 155.55 169.1 153.95 170.85 151.85 171.35 151.6 171.4 151.3 171.45 150.8 171.5 150.25 171.5 149.45 171.5 148.75 171.35 146.6 170.9 144.9 169.1
M 178.7 180.8
Q 178.85 181.55 179.2 182.25 179.25 182.35 179.35 182.5 179.7 183.25 180.3 183.95 180.4 184.05 180.5 184.15 182.55 186.35 185.4 186.35 188.25 186.35 190.25 184.15 192.3 182 192.3 178.95 192.3 177.25 191.65 175.8 191.85 176.65 191.85 177.6 191.85 180.65 189.8 182.8 187.8 185 184.95 185 182.85 185 181.15 183.8 180.6 183.35 180.05 182.8 179.8 182.55 179.65 182.3 179.55 182.2 179.45 182.1 179 181.45 178.7 180.8
M 189 154.7
Q 189 158.05 186.75 160.4 184.55 162.8 181.45 162.8 178.35 162.8 176.1 160.4 175.1 159.35 174.6 158.15 175.05 160.15 176.55 161.75 178.7 164.05 181.6 164.15 181.75 164.15 181.9 164.15 185 164.15 187.2 161.75 189.45 159.4 189.45 156.05 189.45 154.2 188.8 152.65 189 153.65 189 154.7
M 141.4 127.95
Q 139.65 128.4 138.35 129.2 137.4 129.75 136.65 130.45 134.9 132.1 135.3 133.7 135.4 134.15 135.7 134.5 135.45 133 137.05 131.5 137.8 130.8 138.75 130.25 140.1 129.45 141.8 129 144.75 128.2 147.1 128.8 148.85 129.2 149.55 130.15 149.55 130.05 149.5 129.9 149.1 128.3 146.7 127.75 144.35 127.15 141.4 127.95
M 134.25 110.4
Q 135.25 110.4 136.15 110.65 137.9 111.05 138.6 112 138.6 111.9 138.55 111.75 138.15 110.15 135.75 109.6 134.35 109.25 132.75 109.4 131.65 109.5 130.45 109.8 130.3 109.85 130.15 109.9 129.9 109.95 129.7 110.05 127.25 110.85 125.7 112.3 123.95 113.95 124.35 115.55 124.45 116 124.75 116.35 124.5 114.85 126.1 113.35 127.8 111.75 130.55 110.95 130.7 110.9 130.85 110.85
L 130.9 110.85
Q 132.65 110.35 134.25 110.4
M 143.55 120.7
Q 143.55 120.6 143.5 120.45 143.15 119.15 141.5 118.55 141.1 118.4 140.7 118.3 140 118.1 139.25 118.1 137.45 117.95 135.4 118.5 134.6 118.7 133.85 119 131.95 119.75 130.65 121 129.25 122.3 129.25 123.6 129.2 123.9 129.3 124.25 129.4 124.7 129.7 125.05
L 129.7 125
Q 129.55 124 130.2 123.05 130.5 122.55 131.05 122.05 132.35 120.8 134.3 120.05 135 119.75 135.8 119.55 136.45 119.4 137.05 119.3 138.8 118.95 140.3 119.2 140.7 119.25 141.1 119.35 142.85 119.75 143.55 120.7
M 170.1 119.4
Q 168.7 120.05 167.7 121 165.95 122.65 166.35 124.25 166.45 124.7 166.75 125.05 166.5 123.55 168.1 122.05 169.15 121.05 170.6 120.4 171.6 119.9 172.85 119.55 175.8 118.75 178.15 119.35 179.9 119.75 180.6 120.7 180.6 120.6 180.55 120.45 180.15 118.85 177.75 118.3 175.4 117.7 172.45 118.5 171.15 118.85 170.1 119.4
M 169.65 102.55
Q 169.65 102.45 169.6 102.3 169.2 100.7 166.8 100.15 164.45 99.55 161.5 100.35 158.55 101.15 156.75 102.85 155 104.5 155.4 106.1 155.5 106.55 155.8 106.9 155.55 105.4 157.15 103.9 158.35 102.75 160.15 102 160.5 101.85 160.9 101.7 161.4 101.55 161.9 101.4 164.85 100.6 167.2 101.2 168.95 101.6 169.65 102.55
M 172.15 109.9
Q 173.9 110.3 174.6 111.25 174.6 111.15 174.55 111 174.15 109.4 171.75 108.85 169.4 108.25 166.45 109.05 165.55 109.3 164.75 109.65 162.95 110.4 161.7 111.55 159.95 113.2 160.35 114.8 160.45 115.25 160.75 115.6 160.5 114.1 162.1 112.6 163.4 111.4 165.3 110.65 166 110.3 166.85 110.1 169.8 109.3 172.15 109.9
M 195.5 108.7
Q 195.65 109.95 195.5 111.1 195.45 111.85 195.25 112.55 195.05 113.05 194.85 113.5 193.8 116 191.75 116.05 192.2 116.75 192.65 117.5 194.25 117.15 195.15 115 195.65 114 195.8 112.8 195.85 112.1 195.85 111.35 195.85 110.25 195.6 109 195.55 108.85 195.55 108.75 195.4623046875 108.4431640625 195.4 108.15 195.45625 108.4375 195.5 108.7
M 204.05 119.05
Q 204.05 119.4 204.15 119.8 204.55 121.75 205.35 123.45 205.95 124.7 206.85 125.8 208.95 128.35 211.15 128.35 213.3 128.35 214.35 125.8 214.9 124.6 215.05 123.1 215.1 121.95 214.95 120.65 214.9 120.3 214.85 120 214.8 119.9 214.8 119.8 214.7 119.35 214.6 118.9 214.7 119.45 214.75 119.95 214.75 120.25 214.75 120.55 214.8 121.75 214.55 122.8 214.4 123.6 214.05 124.3 213 126.85 210.85 126.85 208.65 126.85 206.55 124.3 205.65 123.2 205.05 121.95 204.4 120.6 204.05 119.05
M 206.7 98.85
Q 206.05 97.5 205.7 95.95 205.7 96.3 205.8 96.7 206.2 98.65 207 100.35 207.6 101.6 208.5 102.7 210.6 105.25 212.8 105.25 214.95 105.25 216 102.7 216.9 100.75 216.65 98.1 216.6 97.4 216.45 96.7 216.35 96.25 216.25 95.8 216.4 96.8 216.4 97.75 216.4 99.65 215.7 101.2 214.65 103.75 212.5 103.75 210.3 103.75 208.2 101.2 207.3 100.1 206.7 98.85
M 197.25 86.2
Q 197.15 85.75 197.05 85.3 197.2 86.1 197.2 86.85 197.3 89 196.5 90.7 195.45 93.25 193.3 93.25 191.1 93.25 189 90.7 188.1 89.6 187.5 88.35 186.85 87 186.5 85.45 186.5 85.8 186.6 86.2 187 88.15 187.8 89.85 188.4 91.1 189.3 92.2 191.4 94.75 193.6 94.75 195.75 94.75 196.8 92.2 197.85 90 197.4 86.9 197.3 86.55 197.25 86.2
M 262.3 104.3
Q 262.5 102.3 262.15 100.65 262.15 101.75 262.1 102.85 261.9 105.35 260.85 107.4 260.55 107.95 260.2 108.5 260.05 108.7 259.85 108.95 259.35 109.6 258.8 110.1 257.25 111.5 255.4 111.5 252.95 111.5 251.4 108.95 250.7 107.85 250.4 106.55 250.55 108.65 251.65 110.4 253.2 112.95 255.65 112.95 257.95 112.95 259.9 110.7 260 110.55 260.1 110.4 260.6 109.7 261.05 108.95 261.35 108.25 261.65 107.55 262.15 106.05 262.3 104.3
M 231.7 63.5
Q 231.3 63.45 230.85 63.45 227.8 63.45 225.6 64.6 223.5 65.75 223.5 67.4 223.45 67.9 223.65 68.3 223.8 66.8 225.75 65.75 227.95 64.55 231 64.55 231.35 64.55 231.7 64.6 234.3 64.7 236.15 65.75 237.75 66.55 238.15 67.7 238.15 67.6 238.15 67.45 238.25 65.75 236 64.6 234.2 63.6 231.7 63.5
M 231.2 47.3
Q 232.55 47.55 233.65 48.2 235.25 49 235.65 50.15 235.65 50.05 235.65 49.9 235.7 49.45 235.55 49.05 235.15 47.9 233.5 47.05 232.55 46.55 231.45 46.25 231.4 46.25 231.35 46.25 230 45.9 228.35 45.9 225.3 45.9 223.1 47.05 221 48.2 221 49.85 220.95 50.35 221.15 50.75 221.3 49.25 223.25 48.2 225.45 47 228.5 47 229.95 47 231.2 47.3 Z"/>

<path fill="#FFFFFF" stroke="none" d="
M 159.8 182.55
Q 157.8 180.45 155 180.45 152.65 180.45 150.9 181.85 150.45 182.15 150.1 182.55 148.1 184.75 148.1 187.8 148.1 188.8 148.3 189.7 148.8 190.8 149.65 191.7 151.7 193.85 154.55 193.85 157.35 193.85 159.35 191.7 161.3 189.65 161.4 186.8 161.4 186.6 161.4 186.45 161.4 185.5 161.2 184.65 160.7 183.5 159.8 182.55
M 148.9 156.9
Q 146.9 157.4 145.35 159 143.15 161.4 143.15 164.75 143.15 165 143.15 165.25 143.2 166.05 143.4 166.85 143.65 167.5 144.1 168.1 144.45 168.6 144.9 169.1 146.6 170.9 148.75 171.35 149.45 171.5 150.25 171.5 150.8 171.5 151.3 171.45 151.6 171.4 151.85 171.35 153.95 170.85 155.55 169.1 157.8 166.75 157.8 163.4 157.8 162.35 157.6 161.35 157 160.1 156 159 153.8 156.65 150.7 156.65 149.75 156.65 148.9 156.9
M 185.4 171.55
Q 183.8 171.55 182.5 172.2 181.4 172.75 180.5 173.7 178.5 175.9 178.5 178.95 178.5 179.7 178.65 180.45 178.65 180.58125 178.7 180.75
L 178.7 180.8
Q 179 181.45 179.45 182.1 179.55 182.2 179.65 182.3 179.8 182.55 180.05 182.8 180.6 183.35 181.15 183.8 182.85 185 184.95 185 187.8 185 189.8 182.8 191.85 180.65 191.85 177.6 191.85 176.65 191.65 175.8 191.45 175.3 191.15 174.9 191.1 174.75 191 174.65 190.65 174.15 190.25 173.7 190 173.45 189.8 173.25 187.9 171.55 185.4 171.55
M 181.9 147.95
Q 180.7 147.95 179.6 148.35 177.9 148.9 176.55 150.3 174.35 152.7 174.35 156.05 174.35 157.15 174.6 158.15 175.1 159.35 176.1 160.4 178.35 162.8 181.45 162.8 184.55 162.8 186.75 160.4 189 158.05 189 154.7 189 153.65 188.8 152.65 188.2 151.4 187.2 150.3 185 147.95 181.9 147.95
M 138.75 130.25
Q 137.8 130.8 137.05 131.5 135.45 133 135.7 134.5 136.4 135.45 138.1 135.85 139.5 136.15 141.1 136.05 142.2 135.95 143.45 135.6 146.4 134.8 148.15 133.15 149.8 131.65 149.55 130.15 148.85 129.2 147.1 128.8 144.75 128.2 141.8 129 140.1 129.45 138.75 130.25
M 136.15 110.65
Q 135.25 110.4 134.25 110.4 132.65 110.35 130.9 110.85
L 130.85 110.85
Q 130.7 110.9 130.55 110.95 127.8 111.75 126.1 113.35 124.5 114.85 124.75 116.35 125.45 117.3 127.15 117.7 129.55 118.25 132.5 117.45 132.8 117.35 133.1 117.3 135.6 116.5 137.15 115.05
L 137.2 115
Q 138.15 114.15 138.5 113.3 138.7 112.65 138.6 112 137.9 111.05 136.15 110.65
M 142.15 123.7
Q 143.8 122.2 143.55 120.7 142.85 119.75 141.1 119.35 140.7 119.25 140.3 119.2 138.8 118.95 137.05 119.3 136.45 119.4 135.8 119.55 135 119.75 134.3 120.05 132.35 120.8 131.05 122.05 130.5 122.55 130.2 123.05 129.55 124 129.7 125
L 129.7 125.05
Q 130.4 126 132.1 126.4 134.35 126.9 137.05 126.25 137.25 126.2 137.45 126.15 140.4 125.35 142.15 123.7
M 170.6 120.4
Q 169.15 121.05 168.1 122.05 166.5 123.55 166.75 125.05 167.45 126 169.15 126.4 171.1 126.85 173.45 126.4 173.95 126.3 174.5 126.15 177.45 125.35 179.2 123.7 180.85 122.2 180.6 120.7 179.9 119.75 178.15 119.35 175.8 118.75 172.85 119.55 171.6 119.9 170.6 120.4
M 169.65 102.55
Q 168.95 101.6 167.2 101.2 164.85 100.6 161.9 101.4 161.4 101.55 160.9 101.7 160.5 101.85 160.15 102 158.35 102.75 157.15 103.9 155.55 105.4 155.8 106.9 156.5 107.85 158.2 108.25 160.6 108.8 163.55 108 163.65 108 163.75 107.95 166.55 107.15 168.25 105.55 169.1 104.8 169.45 104.05 169.75 103.3 169.65 102.55
M 174.6 111.25
Q 173.9 110.3 172.15 109.9 169.8 109.3 166.85 110.1 166 110.3 165.3 110.65 163.4 111.4 162.1 112.6 160.5 114.1 160.75 115.6 161.45 116.55 163.15 116.95 165.55 117.5 168.5 116.7 168.55 116.7 168.65 116.65 171.5 115.85 173.2 114.25 174.85 112.75 174.6 111.25
M 184.15 22.3
L 184.65 19.8 154.55 34.85
Q 144.8 40.45 134.35 37
L 106.75 24.45
Q 102.4 20.9 101.9 17.35 96.35 21.25 94.85 27.4 98.4 24.55 103.75 25.3
L 113.05 29.85 130.05 38.1
Q 131.3 38.75 132.65 39.25 133.55 39.6 134.55 39.9 135.6 40.2 136.75 40.45 141.2 41.25 146.1 40.4 150.4 39.2 154.8 37.35 159.15 35.55 163.55 33.1
L 184.15 22.3 Z"/>

<path fill="#FCF9AF" stroke="none" d="
M 175.15 133.3
Q 175.6 133.05 176.05 132.9 181.7 130.2 184.65 127.55 180 129.35 175.35 131 171.8 132.2 168.3 133.4 166.95 133.85 165.6 134.3 154.15 137.9 142.5 140.75 140.3 141.25 138.1 141.75 129.35 143.15 118.9 133.75 124.1 143.35 135.1 144.65 138.6 144.4 142.9 143.45 146 142.75 149.5 141.7 160.45 138.85 168.25 136.05 169.55 135.6 170.8 135.1 173.15 134.2 175.15 133.3 Z"/>

<path fill="#FBC469" stroke="none" d="
M 191.95 117.55
Q 191.2 117.55 190.5 117.3 191.9 124.45 184.65 127.55 181.7 130.2 176.05 132.9 175.6 133.05 175.15 133.3 175.6 133.1 176.05 132.95 185.3 129.35 194.55 130.35 201.3 135.55 204.85 158.15 205.1 159.6 205.3 161.1 205.35 161.45 205.4 161.8 205.4 161.45 205.4 161.15 205.3 159.75 205.2 158.35 204.4 146.95 201.55 135.5 198.1 126.5 192.65 117.5 192.3 117.55 191.95 117.55 Z"/>

<path fill="#FFBB31" stroke="none" d="
M 184.7 105.85
L 184.4 105.6
Q 184.4041015625 105.529296875 184.4 105.45 183.8234375 104.758203125 183.2 104.1 182.2466796875 103.1310546875 181.2 102.3 179.9 101.25 178.5 100.45 177.55 99.85 176.55 99.4 172.05 97.35 166.45 97.1 161.1 97.45 156 98.25 150.25 99.15 144.8 100.6 136.55 102.8 128.95 106.2 128.65 106.35 128.4 106.45 127.2 107 126.05 107.6 123.4 108.85 120.85 110.35 119.4 111.15 118 112 115.55 114.2 114 117.15 114.05 120.1 114.65 122.95 115.35 126.75 117.05 130.3 117.35 130.95 117.7 131.6 118.25 132.7 118.9 133.75 129.35 143.15 138.1 141.75 140.3 141.25 142.5 140.75 154.15 137.9 165.6 134.3 166.95 133.85 168.3 133.4 171.8 132.2 175.35 131 180 129.35 184.65 127.55 191.9 124.45 190.5 117.3 191.2 117.55 191.95 117.55 192.3 117.55 192.65 117.5 192.2 116.75 191.75 116.05 189.6 112.6 187.15 109.15 186.55 108.3 186 107.55 185.36484375 106.670703125 184.7 105.85
M 174.55 111
Q 174.6 111.15 174.6 111.25 174.85 112.75 173.2 114.25 171.5 115.85 168.65 116.65 168.55 116.7 168.5 116.7 165.55 117.5 163.15 116.95 161.45 116.55 160.75 115.6 160.45 115.25 160.35 114.8 159.95 113.2 161.7 111.55 162.95 110.4 164.75 109.65 165.55 109.3 166.45 109.05 169.4 108.25 171.75 108.85 174.15 109.4 174.55 111
M 169.6 102.3
Q 169.65 102.45 169.65 102.55 169.75 103.3 169.45 104.05 169.1 104.8 168.25 105.55 166.55 107.15 163.75 107.95 163.65 108 163.55 108 160.6 108.8 158.2 108.25 156.5 107.85 155.8 106.9 155.5 106.55 155.4 106.1 155 104.5 156.75 102.85 158.55 101.15 161.5 100.35 164.45 99.55 166.8 100.15 169.2 100.7 169.6 102.3
M 167.7 121
Q 168.7 120.05 170.1 119.4 171.15 118.85 172.45 118.5 175.4 117.7 177.75 118.3 180.15 118.85 180.55 120.45 180.6 120.6 180.6 120.7 180.85 122.2 179.2 123.7 177.45 125.35 174.5 126.15 173.95 126.3 173.45 126.4 171.1 126.85 169.15 126.4 167.45 126 166.75 125.05 166.45 124.7 166.35 124.25 165.95 122.65 167.7 121
M 143.5 120.45
Q 143.55 120.6 143.55 120.7 143.8 122.2 142.15 123.7 140.4 125.35 137.45 126.15 137.25 126.2 137.05 126.25 134.35 126.9 132.1 126.4 130.4 126 129.7 125.05 129.4 124.7 129.3 124.25 129.2 123.9 129.25 123.6 129.25 122.3 130.65 121 131.95 119.75 133.85 119 134.6 118.7 135.4 118.5 137.45 117.95 139.25 118.1 140 118.1 140.7 118.3 141.1 118.4 141.5 118.55 143.15 119.15 143.5 120.45
M 132.75 109.4
Q 134.35 109.25 135.75 109.6 138.15 110.15 138.55 111.75 138.6 111.9 138.6 112 138.7 112.65 138.5 113.3 138.15 114.15 137.2 115
L 137.15 115.05
Q 135.6 116.5 133.1 117.3 132.8 117.35 132.5 117.45 129.55 118.25 127.15 117.7 125.45 117.3 124.75 116.35 124.45 116 124.35 115.55 123.95 113.95 125.7 112.3 127.25 110.85 129.7 110.05 129.9 109.95 130.15 109.9 130.3 109.85 130.45 109.8 131.65 109.5 132.75 109.4
M 138.35 129.2
Q 139.65 128.4 141.4 127.95 144.35 127.15 146.7 127.75 149.1 128.3 149.5 129.9 149.55 130.05 149.55 130.15 149.8 131.65 148.15 133.15 146.4 134.8 143.45 135.6 142.2 135.95 141.1 136.05 139.5 136.15 138.1 135.85 136.4 135.45 135.7 134.5 135.4 134.15 135.3 133.7 134.9 132.1 136.65 130.45 137.4 129.75 138.35 129.2 Z"/>

<path fill="#CFD2E3" stroke="none" d="
M 195.05 106.85
Q 194.25 104.65 192.8 102.95 190.8 100.45 188.65 100.45 186.65 100.45 185.5 102.55 185.4 102.75 185.3 102.95 185 103.7 184.85 104.55 184.7 105.15 184.7 105.8 184.71484375 105.81953125 184.7 105.85 185.36484375 106.670703125 186 107.55 186.55 108.3 187.15 109.15 189.6 112.6 191.75 116.05 193.8 116 194.85 113.5 195.05 113.05 195.25 112.55 195.45 111.85 195.5 111.1 195.65 109.95 195.5 108.7 195.45625 108.4375 195.4 108.15
L 195.4 108.1
Q 195.25 107.45 195.05 106.85
M 204.5 113.75
Q 204.4 113.95 204.35 114.15 204 115.1 203.9 116.2
L 203.9 116.25
Q 203.8 117.55 204.05 119.05 204.4 120.6 205.05 121.95 205.65 123.2 206.55 124.3 208.65 126.85 210.85 126.85 213 126.85 214.05 124.3 214.4 123.6 214.55 122.8 214.8 121.75 214.75 120.55 214.75 120.25 214.75 119.95 214.7 119.45 214.6 118.9 214.45 118.25 214.25 117.65 213.45 115.45 212 113.75 210 111.25 207.85 111.25 205.65 111.25 204.5 113.75
M 205.7 95.95
Q 206.05 97.5 206.7 98.85 207.3 100.1 208.2 101.2 210.3 103.75 212.5 103.75 214.65 103.75 215.7 101.2 216.4 99.65 216.4 97.75 216.4 96.8 216.25 95.8 216.1 95.15 215.9 94.55 215.1 92.35 213.65 90.65 211.65 88.15 209.5 88.15 207.5 88.15 206.4 90.2 206.25 90.4 206.15 90.65 205.2 92.9 205.7 95.95
M 196.7 84.05
Q 195.9 81.85 194.45 80.15 193.35 78.8 192.25 78.2 191.3 77.65 190.3 77.65 188.15 77.65 187.05 80 187 80.05 186.95 80.15 186.3 81.75 186.35 83.7 186.35 84.55 186.5 85.45 186.85 87 187.5 88.35 188.1 89.6 189 90.7 191.1 93.25 193.3 93.25 195.45 93.25 196.5 90.7 197.3 89 197.2 86.85 197.2 86.1 197.05 85.3 196.9 84.65 196.7 84.05
M 253.5 97.15
Q 253 97.6 252.55 98.15 250.95 100.25 250.5 103.15 250.4 103.7 250.35 104.3 250.3 104.85 250.3 105.4 250.3 106 250.4 106.55 250.7 107.85 251.4 108.95 252.95 111.5 255.4 111.5 257.25 111.5 258.8 110.1 259.35 109.6 259.85 108.95 260.05 108.7 260.2 108.5 260.55 107.95 260.85 107.4 261.9 105.35 262.1 102.85 262.15 101.75 262.15 100.65 261.75 99.3 261.05 98.15 259.5 95.65 257.05 95.65 255.15 95.65 253.5 97.15
M 231.7 64.6
Q 231.35 64.55 231 64.55 227.95 64.55 225.75 65.75 223.8 66.8 223.65 68.3 224.1 69.4 225.6 70.25 227.5 71.2 230.1 71.35 230.45 71.35 230.85 71.35 233.9 71.3 236 70.25 238 69.2 238.15 67.7 237.75 66.55 236.15 65.75 234.3 64.7 231.7 64.6
M 233.65 48.2
Q 232.55 47.55 231.2 47.3 229.95 47 228.5 47 225.45 47 223.25 48.2 221.3 49.25 221.15 50.75 221.6 51.85 223.1 52.7 225.3 53.8 228.35 53.8 229.8 53.8 231.05 53.55 232.4 53.25 233.5 52.7 235.5 51.65 235.65 50.15 235.25 49 233.65 48.2 Z"/>

<path fill="#229AC7" stroke="none" d="
M 232.55 93.25
Q 234.5 87.55 239.75 83.15
L 245.85 79.9
Q 242.2 81.25 240.1 79.75
L 225.85 80.1 230.5 82.25
Q 220.25 80.8 211.75 75.35 219.2 81.05 223 88 223.85 89.55 224.55 91.2 225.5 93.5 226.05 95.95 229.1 110.65 226.55 127.8 226.4 128.85 226.25 130 226.15 130.45 226.05 130.95
L 223.2 140.5
Q 226.9 137.6 228.4 131.3 228.55 130.55 228.7 129.8
L 231.45 100.45
Q 231.45 97.75 232 95.3 232.2 94.25 232.55 93.25 Z"/>

<path fill="#0E80A9" stroke="none" d="
M 192.55 64.7
Q 186.2 61.15 187.85 54.55 187 55.05 186.15 55.55 182.5 59.3 180.35 64.45 179.9 65.4 179.55 66.45 177.4 72.4 177.05 80.1 176.95 81.8 176.95 83.6 176.95 84.75 177 85.95 177.15 91.55 178.1 97.95 178.25 99.2 178.5 100.45 179.9 101.25 181.2 102.3 182.2466796875 103.1310546875 183.2 104.1 183.8234375 104.758203125 184.4 105.45 184.4041015625 105.529296875 184.4 105.6
L 184.7 105.85
Q 184.71484375 105.81953125 184.7 105.8 184.7 105.15 184.85 104.55 185 103.7 185.3 102.95 185.4 102.75 185.5 102.55 186.65 100.45 188.65 100.45 190.8 100.45 192.8 102.95 194.25 104.65 195.05 106.85 195.25 107.45 195.4 108.1
L 195.4 108.15
Q 195.4623046875 108.4431640625 195.55 108.75 195.55 108.85 195.6 109 195.85 110.25 195.85 111.35 195.85 112.1 195.8 112.8 195.65 114 195.15 115 194.25 117.15 192.65 117.5 198.1 126.5 201.55 135.5 209.2 140.5 216.9 142.95 220.65 142.9 223.2 140.5
L 226.05 130.95
Q 226.15 130.45 226.25 130 226.4 128.85 226.55 127.8 229.1 110.65 226.05 95.95 225.5 93.5 224.55 91.2 223.85 89.55 223 88 219.2 81.05 211.75 75.35
L 192.55 64.7
M 194.45 80.15
Q 195.9 81.85 196.7 84.05 196.9 84.65 197.05 85.3 197.15 85.75 197.25 86.2 197.3 86.55 197.4 86.9 197.85 90 196.8 92.2 195.75 94.75 193.6 94.75 191.4 94.75 189.3 92.2 188.4 91.1 187.8 89.85 187 88.15 186.6 86.2 186.5 85.8 186.5 85.45 186.35 84.55 186.35 83.7 186.3 81.75 186.95 80.15 187 80.05 187.05 80 188.15 77.65 190.3 77.65 191.3 77.65 192.25 78.2 193.35 78.8 194.45 80.15
M 205.8 96.7
Q 205.7 96.3 205.7 95.95 205.2 92.9 206.15 90.65 206.25 90.4 206.4 90.2 207.5 88.15 209.5 88.15 211.65 88.15 213.65 90.65 215.1 92.35 215.9 94.55 216.1 95.15 216.25 95.8 216.35 96.25 216.45 96.7 216.6 97.4 216.65 98.1 216.9 100.75 216 102.7 214.95 105.25 212.8 105.25 210.6 105.25 208.5 102.7 207.6 101.6 207 100.35 206.2 98.65 205.8 96.7
M 204.35 114.15
Q 204.4 113.95 204.5 113.75 205.65 111.25 207.85 111.25 210 111.25 212 113.75 213.45 115.45 214.25 117.65 214.45 118.25 214.6 118.9 214.7 119.35 214.8 119.8 214.8 119.9 214.85 120 214.9 120.3 214.95 120.65 215.1 121.95 215.05 123.1 214.9 124.6 214.35 125.8 213.3 128.35 211.15 128.35 208.95 128.35 206.85 125.8 205.95 124.7 205.35 123.45 204.55 121.75 204.15 119.8 204.05 119.4 204.05 119.05 203.8 117.55 203.9 116.25
L 203.9 116.2
Q 204 115.1 204.35 114.15 Z"/>

<path fill="#72D7FA" stroke="none" d="
M 187.85 54.55
Q 186.2 61.15 192.55 64.7
L 211.75 75.35
Q 220.25 80.8 230.5 82.25
L 225.85 80.1 221.2 77.9 193.85 62.55
Q 188.9 58.55 187.85 54.55
M 267.85 68.7
Q 272.35 66.2 272.35 63.7
L 240.1 79.75
Q 242.2 81.25 245.85 79.9
L 267.85 68.7 Z"/>

<path fill="#DCD6D3" stroke="none" d="
M 193.65 36.85
Q 193.55 34 193.35 31.25
L 193.35 31.2
Q 193.25 29.7 193.1 28.2 189.9 21.5 184.15 22.3
L 163.55 33.1
Q 159.15 35.55 154.8 37.35 149.95 41.4 147.75 46.5 147.3 47.45 147 48.5 146.65 49.45 146.45 50.45 145.95 52.65 145.9 55.05
L 145.9 90.4
Q 146.55 93.55 148.3 95.45 150.9 98.2 156 98.25
L 165.55 92.65 167.55 91.5 177 85.95
Q 176.95 84.75 176.95 83.6 176.95 81.8 177.05 80.1 177.4 72.4 179.55 66.45 179.9 65.4 180.35 64.45 182.5 59.3 186.15 55.55 187 55.05 187.85 54.55 190.45 53.05 193.1 51.7 193.85 44.25 193.65 36.85
M 177.5 37.7
Q 179.25 35.5 181.4 35.5 183.5 35.5 184.8 37.7 185.45 38.7 185.8 39.85 186.1 41.3 185.95 43 185.95 43.15 185.95 43.35 185.6 46.2 184 48.3 182.3 50.5 180.15 50.5 179.35 50.5 178.65 50.2 177.5 49.65 176.65 48.3 175.75 46.8 175.6 44.95 175.45 44.05 175.55 43 175.8 39.9 177.5 37.7
M 163 50.4
Q 163.1 50.85 163.15 51.3 163.25 52.35 163.15 53.55 163.1 54.25 163 54.9 162.75 55.95 162.35 56.95 161.9 57.95 161.2 58.85 159.5 61.05 157.35 61.05 155.25 61.05 153.85 58.85 152.95 57.35 152.8 55.5 152.65 54.6 152.75 53.55 152.8 52.65 153.05 51.85 153.15 51.35 153.3 50.95 153.45 50.35 153.75 49.8 154.15 49 154.7 48.25 156.45 46.05 158.6 46.05 160.7 46.05 162 48.25 162.65 49.25 163 50.4
M 163.3 76.15
L 163.3 76.2
Q 163.6 77.65 163.45 79.3 163.2 82.4 161.5 84.6 160.5 85.9 159.35 86.45 158.55 86.8 157.65 86.8 155.55 86.8 154.15 84.6 153.65 83.75 153.35 82.75 153.15 82.05 153.1 81.25 152.95 80.35 153.05 79.3 153.1 78.8 153.2 78.3 153.6 75.85 155 74 156.75 71.8 158.9 71.8 161 71.8 162.3 74 162.95 75 163.3 76.15 Z"/>

<path fill="#FEFEFE" stroke="none" d="
M 184.65 19.8
L 184.15 22.3
Q 189.9 21.5 193.1 28.2 193 27.25 192.9 26.3 190.95 16.55 181.5 12.75
L 153.05 1.95
Q 143.95 -1.95 135.45 1.95
L 107.1 14.5
Q 104.15 15.75 101.9 17.35 102.4 20.9 106.75 24.45
L 134.35 37
Q 144.8 40.45 154.55 34.85
L 184.65 19.8
M 150.65 16.65
Q 150.65 16.8 150.65 16.9 150.5 18.4 148.5 19.45 146.4 20.5 143.35 20.55 142.15 20.55 141.1 20.4 139.45 20.1 138.1 19.45 136.6 18.6 136.15 17.5 135.95 17.1 136 16.6 136 14.95 138.1 13.8 140.3 12.65 143.35 12.65 146.4 12.65 148.5 13.8 148.75 13.9 148.95 14.05 150.75 15.1 150.65 16.65 Z"/>

<path fill="#47406A" stroke="none" d="
M 207.75 44.9
Q 210.8 43.65 213.95 42.55
L 193.4 31.2 193.35 31.2 193.35 31.25
Q 193.55 34 193.65 36.85
L 207.75 44.9
M 351.7 120.65
Q 351.8 112.45 344.65 108.75
L 280.65 75
Q 280.6 77 280.5 79
L 310.85 95.15 313 96.3 344.15 112.9
Q 351.6 117.95 342.2 123.55
L 318.1 140.4 316.2 141.75 284.8 163.6 283 164.9 249.5 188.25 247.55 189.65 212.65 213.95 211.1 215.05 183.5 234.3
Q 172.8 242.2 162.05 234.3
L 132.05 213 130.2 211.7 93.2 185.4 91.95 184.55 61.2 162.7 59.85 161.75 33.1 142.75 31.8 141.8 9.95 126.3
Q 4.65 119.5 11.95 115.25
L 44.9 98.55 46.75 97.65 83.65 78.95 85.95 77.8 96.15 72.6
Q 95.15 69.45 94.95 65.55
L 9.7 109.25
Q 4.25 111.9 1.85 115.6 0.3 123.15 6.95 129.1
L 158.8 237.8
Q 168.45 244.85 179 241.9
L 351.7 122.4
Q 351.75 121.55 351.7 120.65 Z"/>

<path fill="#0E5E8F" stroke="none" d="
M 272.35 63.7
Q 272.35 66.2 267.85 68.7
L 245.85 79.9 239.75 83.15
Q 234.5 87.55 232.55 93.25 232.2 94.25 232 95.3 231.45 97.75 231.45 100.45
L 228.7 129.8
Q 228.55 130.55 228.4 131.3 226.9 137.6 223.2 140.5 220.65 142.9 216.9 142.95 220.3 144.05 223.7 144.65 229.05 145.25 234.6 144.35 237.2 143.9 239.85 143.15 240.35 142.95 240.9 142.8 242.85 142.2 244.8 141.4 245.95 140.95 247.1 140.45 254.4 137.1 261.9 131.35 266.7 128.1 269.65 124.3 269.85 123.95 270.1 123.6 271.3 121.9 272.1 120.15 272.2 119.95 272.25 119.8 272.6 118.85 272.95 117.9 273.3 116.85 273.65 115.85 274.8 112.3 275.8 108.7 279.8 94 280.5 79 280.6 77 280.65 75 280.65 73.6 280.65 72.25 279.7 62.8 273.6 57.4 274.95 60.55 272.35 63.7
M 252.55 98.15
Q 253 97.6 253.5 97.15 255.15 95.65 257.05 95.65 259.5 95.65 261.05 98.15 261.75 99.3 262.15 100.65 262.5 102.3 262.3 104.3 262.15 106.05 261.65 107.55 261.35 108.25 261.05 108.95 260.6 109.7 260.1 110.4 260 110.55 259.9 110.7 257.95 112.95 255.65 112.95 253.2 112.95 251.65 110.4 250.55 108.65 250.4 106.55 250.3 106 250.3 105.4 250.3 104.85 250.35 104.3 250.4 103.7 250.5 103.15 250.95 100.25 252.55 98.15 Z"/>

<path fill="#32C5EC" stroke="none" d="
M 273.6 57.4
Q 270.8 55 267 53.4
L 240.75 42.5
Q 229.6 38.25 220.8 40.25 217.3 41.35 213.95 42.55 210.8 43.65 207.75 44.9 200.25 47.95 193.1 51.7 190.45 53.05 187.85 54.55 188.9 58.55 193.85 62.55
L 221.2 77.9 225.85 80.1 240.1 79.75 272.35 63.7
Q 274.95 60.55 273.6 57.4
M 223.1 47.05
Q 225.3 45.9 228.35 45.9 230 45.9 231.35 46.25 231.4 46.25 231.45 46.25 232.55 46.55 233.5 47.05 235.15 47.9 235.55 49.05 235.7 49.45 235.65 49.9 235.65 50.05 235.65 50.15 235.5 51.65 233.5 52.7 232.4 53.25 231.05 53.55 229.8 53.8 228.35 53.8 225.3 53.8 223.1 52.7 221.6 51.85 221.15 50.75 220.95 50.35 221 49.85 221 48.2 223.1 47.05
M 230.85 63.45
Q 231.3 63.45 231.7 63.5 234.2 63.6 236 64.6 238.25 65.75 238.15 67.45 238.15 67.6 238.15 67.7 238 69.2 236 70.25 233.9 71.3 230.85 71.35 230.45 71.35 230.1 71.35 227.5 71.2 225.6 70.25 224.1 69.4 223.65 68.3 223.45 67.9 223.5 67.4 223.5 65.75 225.6 64.6 227.8 63.45 230.85 63.45 Z"/>

<path fill="#24173B" stroke="none" d="
M 345.6 133
Q 351.3 128.6 351.7 122.4
L 179 241.9
Q 168.45 244.85 158.8 237.8
L 6.95 129.1
Q 0.3 123.15 1.85 115.6 -2.3 121.95 2.85 131.35
L 157.35 243.8
Q 174 254.5 188.15 243.8
L 345.6 133 Z"/>
</g>

<g id="__________0_Layer0_0_FILL">
<path fill="#F1F590" stroke="none" d="
M 90.5 112.35
Q 90.055859375 112.6373046875 89.55 112.9 89.5439453125 112.970703125 89.5 113.05 89.25 113.45 89.6 115.45 89.85 117.55 89.5 118.15 89.25 118.65 88.95 118.85 88.8 119 88.55 119.1 88.65 119.1 88.75 119.1 89.65 119.1 90.5 118.85 90.55 118.85 90.65 118.75 91.25 118.5 91.7 118.05 92.1 117.65 91.95 117.15
L 90.5 112.35
M 97.3 106.05
Q 96.9412109375 106.707421875 96.45 107.3 97.0787109375 107.560546875 98.45 108.35 98.65 108.2 98.8 107.9 99 107.4 98.65 107 98.3 106.5 97.6 106.15 97.4609375 106.106640625 97.3 106.05
M 76.85 96.85
Q 76.8775390625 96.9716796875 76.9 97.1 77.116015625 98.9138671875 76.85 99.6 76.84765625 99.718359375 76.8 99.8 76.5615234375 100.2767578125 76.25 100.45
L 76.25 100.5
Q 76.1 100.65 75.85 100.75 75.95 100.75 76.05 100.75 76.61875 100.75 77.15 100.65 77.487109375 100.5919921875 77.8 100.5 77.85 100.5 77.95 100.4 78.453125 100.1904296875 78.85 99.85 78.92734375 99.77265625 79 99.7 79.4 99.3 79.25 98.8
L 77.85 94.15 77.8 93.95
Q 77.4943359375 94.0646484375 77.25 94.15 77.208984375 94.1763671875 77.15 94.2 77.05 94.25 76.8 94.7 76.566015625 95.0744140625 76.85 96.85
M 44.2 87.8
Q 43.5 88.15 43.2 88.55 42.85 89.05 43 89.5 43.05 89.55 43.15 89.65 44.4 88.65 49.15 88.25 52 88.05 53.85 87.9 56.8 87.5 57.05 87.15 57.3 86.7 56.9 86.15
L 56.35 86.65 54.8 86.8 46 87.5
Q 45.05 87.55 44.25 87.8
L 44.2 87.8
M 85.75 90
Q 85.95 89.85 86.1 89.55 86.3 89.05 85.95 88.65 85.6 88.15 84.9 87.8 84.1 87.55 83.05 87.5
L 72.75 86.55 68.2 82.5 67.85 82.2
Q 67.35 81.75 66.45 81.6 65.6 81.25 64.55 81.25 63.55 81.25 62.7 81.5 62.45 81.6 62.2 81.7 62.15 81.7 62.1 81.75 61.9 81.8 61.75 81.95 62.2 81.95 63.35 82.1 64.15 82.2 64.85 82.4 67.8 83.2 68.8 85.2 70.1 87.8 71.55 88.05 72.1 88.05 75.05 88.05 78.2 88 79.9 88.25 82.7 88.55 83.55 88.9 84.1 89.05 85.75 90 Z"/>

<path fill="#FDE159" stroke="none" d="
M 89.5 112.95
Q 89.1 113.2 88.65 113.4 84.124609375 115.808984375 78.75 117.15
L 86.65 119
Q 87.55 119.1 88.55 119.1 88.8 119 88.95 118.85 89.25 118.65 89.5 118.15 89.85 117.55 89.6 115.45 89.25 113.45 89.5 113.05 89.5439453125 112.970703125 89.55 112.9 89.541796875 112.9271484375 89.5 112.95
M 98.45 108.35
Q 97.0787109375 107.560546875 96.45 107.3 94.933984375 109.346484375 92.4 111.15 91.85078125 111.5365234375 91.25 111.9
L 97.8 108.75
Q 98.2 108.5 98.45 108.35
M 69.65 118.55
Q 67.0818359375 118.75 64.35 118.75 64.0537109375 118.75 63.75 118.75 63.9046875 118.753125 64.05 118.85 64.9 119 65.85 119.1 66.95 119.15 67.75 119
L 69.65 118.55
M 85.1 90.4
Q 85.5 90.15 85.75 90 84.1 89.05 83.55 88.9 82.7 88.55 79.9 88.25 78.2 88 75.05 88.05 72.1 88.05 71.55 88.05 70.1 87.8 68.8 85.2 67.8 83.2 64.85 82.4 64.15 82.2 63.35 82.1 62.2 81.95 61.75 81.95 61.4 82.1 61.25 82.3
L 56.9 86.15
Q 57.3 86.7 57.05 87.15 56.8 87.5 53.85 87.9 52 88.05 49.15 88.25 44.4 88.65 43.15 89.65 43.35 90.1 44 90.4
L 51.35 93.95 49.9 98.8
Q 49.65 99.3 50.15 99.7 50.6 100.05 51.05 100.4 51.2 100.4 51.35 100.5 52.16171875 100.6431640625 53.05 100.75 53.1072265625 100.7455078125 53.15 100.75 54.25 100.8 55.05 100.65
L 62.55 98.9 64.6 98.45 73.95 100.65
Q 74.85 100.75 75.85 100.75 76.1 100.65 76.25 100.5
L 76.25 100.45
Q 76.5615234375 100.2767578125 76.8 99.8 76.84765625 99.718359375 76.85 99.6 77.116015625 98.9138671875 76.9 97.1 76.8775390625 96.9716796875 76.85 96.85 76.566015625 95.0744140625 76.8 94.7 77.05 94.25 77.15 94.2 77.208984375 94.1763671875 77.25 94.15 77.4943359375 94.0646484375 77.8 93.95
L 77.75 93.95 85.1 90.4 Z"/>

<path fill="#D45900" stroke="none" d="
M 104.55 107.95
Q 105.1 108.95 105.3 110.05 105.35 110.3 105.4 110.55 105.45 110.35 105.45 110.15 105.45 110 105.5 109.9 105.5 109.55 105.5 109.2 105.5 108.9 105.5 108.6 105.14609375 103.42265625 98.8 99.5
L 98.8 100.6
Q 98.8 100.95 98.8 101.35 98.75 101.65 98.75 101.95 98.7107421875 102.028515625 98.7 102.15 102.9455078125 104.741015625 104.55 107.95
M 78.75 117.15
Q 77.6150390625 117.4185546875 76.45 117.65 77.935546875 118.0822265625 79.85 118.5 83.35 119.4 85.3 119.65 88.3 120 89.25 119.75 90.1 119.6 90.65 118.75 90.55 118.85 90.5 118.85 89.65 119.1 88.75 119.1 88.65 119.1 88.55 119.1 87.55 119.1 86.65 119
L 78.75 117.15
M 64.6 98.45
L 62.55 98.9
Q 64.4 99.55 67.15 100.15 69.35625 100.7171875 70.95 101 71.5408203125 101.14453125 72.05 101.2 72.3408203125 101.266796875 72.6 101.3 72.8828125 101.3330078125 73.15 101.35 75.689453125 101.6263671875 76.55 101.4 77.1884765625 101.2873046875 77.65 100.75 77.8130859375 100.6115234375 77.95 100.4 77.85 100.5 77.8 100.5 77.487109375 100.5919921875 77.15 100.65 76.61875 100.75 76.05 100.75 75.95 100.75 75.85 100.75 74.85 100.75 73.95 100.65
L 64.6 98.45
M 43.2 88.55
Q 43.5 88.15 44.2 87.8 43.2 88.05 42.8 88.25 42.45 88.5 42.15 89 41.3 90.5 45.25 92.25 49.75 94.2 49.75 94.7 49.9 95.45 48.6 98.15 48.563671875 98.4685546875 48.6 98.75 48.882421875 99.991015625 51.05 100.4 50.6 100.05 50.15 99.7 49.65 99.3 49.9 98.8
L 51.35 93.95 44 90.4
Q 43.35 90.1 43.15 89.65 43.05 89.55 43 89.5 42.85 89.05 43.2 88.55
M 60 82.55
Q 58.9 83.05 57.85 83.85 56.4 84.95 54.8 86.8
L 56.35 86.65 56.9 86.15 61.25 82.3
Q 61.4 82.1 61.75 81.95 61.9 81.8 62.1 81.75 61 82 60 82.55
M 91.85 89.6
Q 92.4 90.6 92.6 91.7 92.65 91.95 92.7 92.2 92.75 92 92.75 91.8 92.75 91.65 92.8 91.55 92.8 91.2 92.8 90.85 92.8 90.55 92.8 90.25 92.4 84.4 84.35 80.15 76 75.8 64.2 75.8 52.35 75.8 43.9 80.15 35.8 84.45 35.55 90.5 35.55 90.65 35.55 90.85 35.55 91.25 35.6 91.65 35.6 91.85 35.65 92.05 35.65 92.096875 35.65 92.2 35.653125 92.0939453125 35.7 92 35.9 90.9 36.35 89.9 38.1 85.95 43.9 82.85 52.35 78.5 64.2 78.5 76 78.5 84.35 82.85 89.95 85.8 91.85 89.6 Z"/>

<path fill="#FB9500" stroke="none" d="
M 102.3 106.55
Q 103.5 107.2 104.55 107.95 102.9455078125 104.741015625 98.7 102.15
L 98.7 102.2
Q 98.5251953125 103.364453125 98.1 104.45 99.7748046875 105.1712890625 101.35 106 101.85 106.25 102.3 106.55
M 88.65 87.65
Q 89.15 87.9 89.6 88.2 90.8 88.85 91.85 89.6 89.95 85.8 84.35 82.85 76 78.5 64.2 78.5 52.35 78.5 43.9 82.85 38.1 85.95 36.35 89.9 37 89.4 37.75 88.95 38 88.75 38.3 88.6 39.05 88.1 39.9 87.65 41.6 86.75 43.4 86.05 50.75 83.1 60 82.55 61 82 62.1 81.75 62.15 81.7 62.2 81.7 62.45 81.6 62.7 81.5 63.55 81.25 64.55 81.25 65.6 81.25 66.45 81.6 67.35 81.75 67.85 82.2
L 68.2 82.5
Q 80 83.1 88.65 87.65 Z"/>

<path fill="#EC7300" stroke="none" d="
M 111.5 109.95
Q 111.45 109.95 111.5 110
L 111.5 109.85
Q 111.45 109.9 111.5 109.95
M 97.65 95.7
Q 97.45 96.1 97.2 96.5 96.71796875 97.2771484375 96.1 98 95.2904296875 98.987890625 94.25 99.9 92.8669921875 101.109375 91.05 102.2 89.9396484375 102.933984375 88.65 103.6 87.35 104.3 86 104.9 85.951953125 104.92109375 85.9 104.95 84.6314453125 105.4953125 83.3 105.95 74.9830078125 108.95 64.35 108.95 60.115625 108.95 56.25 108.45 55.5056640625 108.385546875 54.75 108.25 52.4458984375 107.9359375 50.25 107.4 49.9046875 107.343359375 49.55 107.25 49.0400390625 107.1220703125 48.5 106.95 45.8 106.2302734375 43.3 105.2 42.3837890625 104.816796875 41.5 104.4 40.7 104 39.9 103.6 33.9 100.45 31.5 96.5 31.25 96.1 31.05 95.7 30.05 93.75 29.9 91.6 29.85625 91.425 29.85 91.2
L 29.85 92.4
Q 29.85 92.55 29.85 92.75
L 29.85 100.6
Q 29.85 100.65 29.85 100.7
L 29.85 100.9
Q 29.85 101.1 29.9 101.4 30.35 108.45 39.9 113.4 41.190625 114.0802734375 42.55 114.65
L 42.55 118.95
Q 42.55 119 42.55 119.05
L 42.55 119.25
Q 42.55 119.45 42.6 119.75 43.05 126.8 52.6 131.75 62.75 137.1 77.05 137.1 91.3 137.1 101.35 131.75 101.8 131.55 102.2 131.3 103.75 130.45 105.1 129.5 110.65 125.55 111.4 120.55 111.4 120.4 111.45 120.3 111.45 120 111.5 119.7 111.5 119.3 111.5 118.95
L 111.5 110
Q 111.3 112.15 110.35 114.05 110.15 114.45 109.9 114.85 107.45 118.8 101.35 121.95 100.05 122.65 98.7 123.25 89.45 127.3 77.05 127.3 63.85 127.3 54.2 122.75 53.4 122.35 52.6 121.95 47.11796875 119.071875 44.65 115.5 47.6568359375 116.6607421875 50.95 117.4 52.12578125 117.6447265625 53.3 117.85 58.2154296875 118.7052734375 63.75 118.75 64.0537109375 118.75 64.35 118.75 67.0818359375 118.75 69.65 118.55 73.201171875 118.2869140625 76.45 117.65 77.6150390625 117.4185546875 78.75 117.15 84.124609375 115.808984375 88.65 113.4 89.1 113.2 89.5 112.95 89.541796875 112.9271484375 89.55 112.9 90.055859375 112.6373046875 90.5 112.35 90.903125 112.135546875 91.25 111.9 91.85078125 111.5365234375 92.4 111.15 94.933984375 109.346484375 96.45 107.3 96.9412109375 106.707421875 97.3 106.05 97.7791015625 105.2892578125 98.1 104.45 98.5251953125 103.364453125 98.7 102.2
L 98.7 102.15
Q 98.7107421875 102.028515625 98.75 101.95 98.75 101.65 98.8 101.35 98.8 100.95 98.8 100.6
L 98.8 99.5 98.8 94.95 98.8 91.65
Q 98.6525390625 93.234765625 98.1 94.65 97.8998046875 95.2005859375 97.65 95.7
M 98.8 91.5
Q 98.75 91.55 98.8 91.6 98.75 91.6 98.8 91.65
L 98.8 91.5 Z"/>

<path fill="#FDED68" stroke="none" d="
M 53.3 117.85
Q 52.12578125 117.6447265625 50.95 117.4 53.0298828125 119.605078125 56.6 121.45 65.05 125.9 76.9 125.9 88.7 125.9 97.05 121.45 104.6 117.6 105.4 112.15 105.35 111.75 105.25 111.35 104.05 116.3 97.05 119.85 88.7 124.3 76.9 124.3 65.05 124.3 56.6 119.85 54.75 118.8982421875 53.3 117.85
M 92.55 93
Q 92.156640625 94.62265625 91.15 96.1 90.36875 97.2240234375 89.2 98.25 87.5025390625 99.81953125 84.95 101.15 84.6599609375 101.3427734375 84.35 101.5 83.49609375 101.955078125 82.6 102.35 81.8943359375 102.6978515625 81.15 103 75.8525390625 105.133984375 69.3 105.7 66.8494140625 105.95 64.2 105.95 61.8498046875 105.95 59.6 105.75 56.944140625 105.565625 54.45 105.1 53.11484375 104.8318359375 51.8 104.5 50.8560546875 104.2552734375 49.9 103.95 47.3974609375 103.194140625 45.1 102.1 44.4962890625 101.8140625 43.9 101.5 37 97.95 35.8 93.05 35.7 93.4 35.65 93.8 36.45 99.25 43.9 103.1 44.082421875 103.19609375 44.25 103.3 46.573828125 104.469140625 49.1 105.3 49.8701171875 105.5591796875 50.6 105.75 51.409765625 106.0029296875 52.2 106.2 53.6859375 106.564453125 55.2 106.8 55.55 106.880859375 55.85 106.9 56.8271484375 107.076171875 57.8 107.2 60.872265625 107.55 64.2 107.55 74.3150390625 107.55 81.9 104.25 82.8525390625 103.8662109375 83.75 103.4 84.0607421875 103.2541015625 84.35 103.1 85.883203125 102.3181640625 87.15 101.45 89.15703125 100.11328125 90.45 98.55 91.3650390625 97.50859375 91.9 96.35 92.5064453125 95.11875 92.7 93.8 92.65 93.4 92.55 93 Z"/>

<path fill="#FECA10" stroke="none" d="
M 101.35 96.2
Q 100.1064453125 95.550390625 98.8 94.95
L 98.8 99.5
Q 105.14609375 103.42265625 105.5 108.6 105.5 108.9 105.5 109.2 105.5 109.55 105.5 109.9 105.45 110 105.45 110.15 105.45 110.35 105.4 110.55 105.35 110.3 105.3 110.05 105.1 108.95 104.55 107.95 103.5 107.2 102.3 106.55 101.85 106.25 101.35 106 99.7748046875 105.1712890625 98.1 104.45 97.7791015625 105.2892578125 97.3 106.05 97.4609375 106.106640625 97.6 106.15 98.3 106.5 98.65 107 99 107.4 98.8 107.9 98.65 108.2 98.45 108.35 98.2 108.5 97.8 108.75
L 91.25 111.9
Q 90.903125 112.135546875 90.5 112.35
L 91.95 117.15
Q 92.1 117.65 91.7 118.05 91.25 118.5 90.65 118.75 90.1 119.6 89.25 119.75 88.3 120 85.3 119.65 83.35 119.4 79.85 118.5 77.935546875 118.0822265625 76.45 117.65 73.201171875 118.2869140625 69.65 118.55
L 67.75 119
Q 66.95 119.15 65.85 119.1 64.9 119 64.05 118.85 63.9046875 118.753125 63.75 118.75 58.2154296875 118.7052734375 53.3 117.85 54.75 118.8982421875 56.6 119.85 65.05 124.3 76.9 124.3 88.7 124.3 97.05 119.85 104.05 116.3 105.25 111.35 105.35 111.75 105.4 112.15 104.6 117.6 97.05 121.45 88.7 125.9 76.9 125.9 65.05 125.9 56.6 121.45 53.0298828125 119.605078125 50.95 117.4 47.6568359375 116.6607421875 44.65 115.5 47.11796875 119.071875 52.6 121.95 53.4 122.35 54.2 122.75 63.85 127.3 77.05 127.3 89.45 127.3 98.7 123.25 100.05 122.65 101.35 121.95 107.45 118.8 109.9 114.85 110.15 114.45 110.35 114.05 111.3 112.15 111.5 110 111.45 109.95 111.5 109.95 111.45 109.9 111.5 109.85 111.5 109.5 111.5 109.15 111.5 101.55 101.35 96.2
M 98.8 91.6
Q 98.75 91.55 98.8 91.5 98.8 91.15 98.8 90.8 98.8 83.2 88.65 77.85 78.6 72.6 64.35 72.6 52.45 72.6 43.4 76.25 41.6 76.95 39.9 77.85 38.75 78.45 37.75 79.15 29.85 84.1 29.85 90.8 29.85 90.95 29.85 91.15
L 29.85 91.2
Q 29.85625 91.425 29.9 91.6 30.05 93.75 31.05 95.7 31.25 96.1 31.5 96.5 33.9 100.45 39.9 103.6 40.7 104 41.5 104.4 42.3837890625 104.816796875 43.3 105.2 45.8 106.2302734375 48.5 106.95 49.0400390625 107.1220703125 49.55 107.25 49.9046875 107.343359375 50.25 107.4 52.4458984375 107.9359375 54.75 108.25 55.5056640625 108.385546875 56.25 108.45 60.115625 108.95 64.35 108.95 74.9830078125 108.95 83.3 105.95 84.6314453125 105.4953125 85.9 104.95 85.951953125 104.92109375 86 104.9 87.35 104.3 88.65 103.6 89.9396484375 102.933984375 91.05 102.2 92.8669921875 101.109375 94.25 99.9 95.2904296875 98.987890625 96.1 98 96.71796875 97.2771484375 97.2 96.5 97.45 96.1 97.65 95.7 97.8998046875 95.2005859375 98.1 94.65 98.6525390625 93.234765625 98.8 91.65 98.75 91.6 98.8 91.6
M 89.6 88.2
Q 89.15 87.9 88.65 87.65 80 83.1 68.2 82.5
L 72.75 86.55 83.05 87.5
Q 84.1 87.55 84.9 87.8 85.6 88.15 85.95 88.65 86.3 89.05 86.1 89.55 85.95 89.85 85.75 90 85.5 90.15 85.1 90.4
L 77.75 93.95 77.8 93.95 77.85 94.15 79.25 98.8
Q 79.4 99.3 79 99.7 78.92734375 99.77265625 78.85 99.85 78.453125 100.1904296875 77.95 100.4 77.8130859375 100.6115234375 77.65 100.75 77.1884765625 101.2873046875 76.55 101.4 75.689453125 101.6263671875 73.15 101.35 72.8828125 101.3330078125 72.6 101.3 72.3408203125 101.266796875 72.05 101.2 71.5408203125 101.14453125 70.95 101 69.35625 100.7171875 67.15 100.15 64.4 99.55 62.55 98.9
L 55.05 100.65
Q 54.25 100.8 53.15 100.75 53.1072265625 100.7455078125 53.05 100.75 52.16171875 100.6431640625 51.35 100.5 51.2 100.4 51.05 100.4 48.882421875 99.991015625 48.6 98.75 48.563671875 98.4685546875 48.6 98.15 49.9 95.45 49.75 94.7 49.75 94.2 45.25 92.25 41.3 90.5 42.15 89 42.45 88.5 42.8 88.25 43.2 88.05 44.2 87.8
L 44.25 87.8
Q 45.05 87.55 46 87.5
L 54.8 86.8
Q 56.4 84.95 57.85 83.85 58.9 83.05 60 82.55 50.75 83.1 43.4 86.05 41.6 86.75 39.9 87.65 39.05 88.1 38.3 88.6 38 88.75 37.75 88.95 37 89.4 36.35 89.9 35.9 90.9 35.7 92 35.653125 92.0939453125 35.65 92.2 35.65 92.096875 35.65 92.05 35.6 91.85 35.6 91.65 35.55 91.25 35.55 90.85 35.55 90.65 35.55 90.5 35.8 84.45 43.9 80.15 52.35 75.8 64.2 75.8 76 75.8 84.35 80.15 92.4 84.4 92.8 90.25 92.8 90.55 92.8 90.85 92.8 91.2 92.8 91.55 92.75 91.65 92.75 91.8 92.75 92 92.7 92.2 92.65 91.95 92.6 91.7 92.4 90.6 91.85 89.6 90.8 88.85 89.6 88.2
M 91.15 96.1
Q 92.156640625 94.62265625 92.55 93 92.65 93.4 92.7 93.8 92.5064453125 95.11875 91.9 96.35 91.3650390625 97.50859375 90.45 98.55 89.15703125 100.11328125 87.15 101.45 85.883203125 102.3181640625 84.35 103.1 84.0607421875 103.2541015625 83.75 103.4 82.8525390625 103.8662109375 81.9 104.25 74.3150390625 107.55 64.2 107.55 60.872265625 107.55 57.8 107.2 56.8271484375 107.076171875 55.85 106.9 55.55 106.880859375 55.2 106.8 53.6859375 106.564453125 52.2 106.2 51.409765625 106.0029296875 50.6 105.75 49.8701171875 105.5591796875 49.1 105.3 46.573828125 104.469140625 44.25 103.3 44.082421875 103.19609375 43.9 103.1 36.45 99.25 35.65 93.8 35.7 93.4 35.8 93.05 37 97.95 43.9 101.5 44.4962890625 101.8140625 45.1 102.1 47.3974609375 103.194140625 49.9 103.95 50.8560546875 104.2552734375 51.8 104.5 53.11484375 104.8318359375 54.45 105.1 56.944140625 105.565625 59.6 105.75 61.8498046875 105.95 64.2 105.95 66.8494140625 105.95 69.3 105.7 75.8525390625 105.133984375 81.15 103 81.8943359375 102.6978515625 82.6 102.35 83.49609375 101.955078125 84.35 101.5 84.6599609375 101.3427734375 84.95 101.15 87.5025390625 99.81953125 89.2 98.25 90.36875 97.2240234375 91.15 96.1 Z"/>
</g>

<path id="__________0_Layer1_0_1_STROKES" stroke="#FF0000" stroke-width="0.1" stroke-linejoin="round" stroke-linecap="round" fill="none" d="
M 329.75 115.7
Q 329.75 119.2 325.45 121.7 321.2 124.2 315.15 124.2 309.1 124.2 304.8 121.7 300.55 119.2 300.55 115.7 300.55 112.2 304.8 109.7 309.1 107.2 315.15 107.2 321.2 107.2 325.45 109.7 329.75 112.2 329.75 115.7 Z
M 51.35 119.7
Q 51.35 123.2 47.05 125.7 42.8 128.2 36.75 128.2 30.7 128.2 26.4 125.7 22.15 123.2 22.15 119.7 22.15 116.2 26.4 113.7 30.7 111.2 36.75 111.2 42.8 111.2 47.05 113.7 51.35 116.2 51.35 119.7 Z"/>
</defs>

<g transform="matrix( 1.289794921875, 0, 0, 1.289794921875, 7.9,5) ">
<g transform="matrix( 1, 0, 0, 1, 0,0) ">
<use xlink:href="#_____1_0_Layer1_0_FILL"/>
</g>

<g transform="matrix( 1, 0, 0, 1, 0,0) ">
<use xlink:href="#_____1_0_Layer0_0_FILL"/>
</g>
</g>

<g transform="matrix( 0.37640380859375, 0, 0, 0.4674072265625, 29,38.95) ">
<g transform="matrix( 1, 0, 0, 1, 0,0) ">
<use xlink:href="#__________0_Layer1_0_FILL"/>

<use xlink:href="#__________0_Layer1_0_1_STROKES"/>
</g>

<g transform="matrix( 1, 0, 0, 1, 0,0) ">
<use xlink:href="#__________0_Layer0_0_FILL"/>
</g>
</g>
</svg>
