
<svg xmlns="http://www.w3.org/2000/svg" version="1.1" xmlns:xlink="http://www.w3.org/1999/xlink" preserveAspectRatio="none" x="0px" y="0px" width="135px" height="100px" viewBox="0 0 135 100">
<defs>
<g id="Layer0_0_FILL">
<path fill="#FFFFFF" stroke="none" d="
M 27.3 78.9
Q 26.4 79 25.65 79.65 25 80.25 25 81.2 24.9 82.2 25.5 82.85 25.65 83.1 25.9 83.25 26.4 83.75 27.05 83.75 27.9 83.9 28.7 83.3
L 28.8 83.3
Q 29.55 82.8 29.7 81.95 30.05 80.8 29.3 79.8 28.5 78.9 27.3 78.9
M 28.05 63.15
L 27.9 63.15 27.8 63 27.65 63
Q 27.55 63 27.55 62.95
L 26.9 62.95
Q 26.9 63 26.8 63
L 26.65 63 26.55 63.15 26.4 63.15
Q 26.4 63.2 26.3 63.2
L 26.15 63.2 26.15 63.3 26.1 63.3 25.95 63.35
Q 25.9 63.35 25.9 63.45
L 25.75 63.45 25.6 63.7 25.5 63.7
Q 25.5 63.75 25.45 63.75
L 25.45 63.9 25.2 63.95 25.2 64.05
Q 25.2 64.1 25.15 64.2 25.05 64.2 25.05 64.25
L 25 64.35 25 64.4
Q 25 64.5 25 64.55
L 24.9 64.55 24.9 64.8 24.85 64.85 24.85 65 24.75 65.1 24.75 65.45
Q 24.75 65.5 24.75 65.6
L 24.75 65.65
Q 24.75 65.75 24.75 65.85
L 24.75 66
Q 24.75 66.05 24.75 66.15
L 24.75 66.25
Q 24.75 66.35 24.75 66.4
L 24.75 66.5
Q 24.75 66.55 24.75 66.65
L 24.75 66.7
Q 24.75 66.8 24.75 66.9
L 24.75 66.95
Q 24.75 67.1 24.75 67.15
L 24.75 67.25
Q 24.75 67.3 24.75 67.4
L 24.75 67.45
Q 24.75 67.55 24.75 67.6
L 24.75 67.7
Q 24.75 67.8 24.75 67.9
L 24.75 68
Q 24.75 68.05 24.75 68.15
L 24.75 68.2
Q 24.75 68.3 24.75 68.35
L 24.75 68.45
Q 24.75 68.5 24.75 68.65
L 24.75 68.8
Q 24.75 68.85 24.75 68.95
L 24.75 69.05
Q 24.75 69.1 24.75 69.2
L 24.75 69.25
Q 24.75 69.4 24.75 69.45
L 24.75 69.55
Q 24.75 69.6 24.75 69.7
L 24.75 69.75
Q 24.75 69.85 24.75 69.9
L 24.75 70
Q 24.75 70.15 24.75 70.2
L 24.75 70.3
Q 24.75 70.35 24.75 70.45
L 24.75 70.5
Q 24.75 70.6 24.75 70.65
L 24.75 70.75
Q 24.75 70.8 24.75 70.95
L 24.75 71.05
Q 24.75 71.1 24.75 71.2
L 24.75 71.25
Q 24.75 71.35 24.75 71.4
L 24.75 71.5
Q 24.75 71.55 24.75 71.65
L 24.75 71.85
Q 24.75 71.9 24.75 72
L 24.75 72.1
Q 24.75 72.15 24.75 72.25
L 24.75 72.4
Q 24.75 72.45 24.75 72.6
L 24.75 72.65
Q 24.75 72.75 24.75 72.8
L 24.75 72.9
Q 24.75 72.95 24.75 73.05
L 24.75 73.15
Q 24.75 73.2 24.75 73.35
L 24.75 73.5
Q 24.75 73.55 24.75 73.65
L 24.75 73.7
Q 24.75 73.8 24.75 73.85
L 24.75 73.95
Q 24.75 74 24.75 74.15
L 24.75 74.25
Q 24.75 74.3 24.75 74.4
L 24.75 74.45
Q 24.75 74.55 24.75 74.6
L 24.75 74.7
Q 24.75 74.75 24.75 74.9
L 24.75 74.95
Q 24.75 75.05 24.75 75.1 24.75 75.2 24.75 75.3
L 24.75 75.35
Q 24.75 75.45 24.85 75.5
L 24.85 75.65
Q 24.85 75.7 24.9 75.8
L 24.9 75.85
Q 25 75.95 25 76
L 25 76.15 25.05 76.25 25.15 76.25
Q 25.15 76.35 25.15 76.45 25.2 76.45 25.2 76.55
L 25.45 76.7 25.45 76.75 25.5 76.75 25.5 76.85
Q 25.6 76.85 25.6 76.9
L 25.65 76.9 25.75 77
Q 25.8 77 25.8 77.05 25.9 77.05 25.9 77.15
L 25.95 77.15
Q 25.95 77.25 26.1 77.25
L 26.15 77.25
Q 26.25 77.25 26.25 77.35
L 26.3 77.35
Q 26.4 77.35 26.4 77.45
L 26.55 77.45 26.65 77.5 27.8 77.5 27.9 77.45 28.05 77.45
Q 28.05 77.35 28.1 77.35
L 28.2 77.35
Q 28.2 77.25 28.25 77.25
L 28.35 77.25
Q 28.5 77.25 28.5 77.15
L 28.55 77.15
Q 28.55 77.05 28.65 77.05 28.65 77 28.7 77
L 28.8 76.9 28.85 76.9
Q 28.85 76.85 28.95 76.85
L 28.95 76.75 29 76.75 29 76.7 29.15 76.55
Q 29.15 76.45 29.3 76.45 29.3 76.35 29.3 76.25
L 29.35 76.25 29.45 76.15 29.45 76
Q 29.45 75.95 29.55 75.85
L 29.55 75.8
Q 29.6 75.7 29.6 75.65
L 29.6 75.5
Q 29.7 75.45 29.7 75.35
L 29.7 75.3
Q 29.7 75.2 29.7 75.1 29.7 75.05 29.7 74.95
L 29.7 74.9
Q 29.7 74.75 29.7 74.7
L 29.7 74.6
Q 29.7 74.55 29.7 74.45
L 29.7 74.4
Q 29.7 74.3 29.7 74.25
L 29.7 74.15
Q 29.7 74 29.7 73.95
L 29.7 73.85
Q 29.7 73.8 29.7 73.7
L 29.7 73.65
Q 29.7 73.55 29.7 73.5
L 29.7 73.35
Q 29.7 73.2 29.7 73.15
L 29.7 73.05
Q 29.7 72.95 29.7 72.9
L 29.7 72.8
Q 29.7 72.75 29.7 72.65
L 29.7 72.6
Q 29.7 72.45 29.7 72.4
L 29.7 72.25
Q 29.7 72.15 29.7 72.1
L 29.7 72
Q 29.7 71.9 29.7 71.85
L 29.7 71.65
Q 29.7 71.55 29.7 71.5
L 29.7 71.4
Q 29.7 71.35 29.7 71.25
L 29.7 71.2
Q 29.7 71.1 29.7 71.05
L 29.7 70.95
Q 29.7 70.8 29.7 70.75
L 29.7 70.65
Q 29.7 70.6 29.7 70.5
L 29.7 70.45
Q 29.7 70.35 29.7 70.3
L 29.7 70.2
Q 29.7 70.15 29.7 70
L 29.7 69.9
Q 29.7 69.85 29.7 69.75
L 29.7 69.7
Q 29.7 69.6 29.7 69.55
L 29.7 69.45
Q 29.7 69.4 29.7 69.25
L 29.7 69.2
Q 29.7 69.1 29.7 69.05
L 29.7 68.95
Q 29.7 68.85 29.7 68.8
L 29.7 68.65
Q 29.7 68.5 29.7 68.45
L 29.7 68.35
Q 29.7 68.3 29.7 68.2
L 29.7 68.15
Q 29.7 68.05 29.7 68
L 29.7 67.9
Q 29.7 67.8 29.7 67.7
L 29.7 67.6
Q 29.7 67.55 29.7 67.45
L 29.7 67.25
Q 29.7 67.15 29.7 67.1
L 29.7 66.95
Q 29.7 66.9 29.7 66.8
L 29.7 66.7
Q 29.7 66.65 29.7 66.55
L 29.7 66.5
Q 29.7 66.4 29.7 66.35
L 29.7 66.15
Q 29.7 66.05 29.7 66
L 29.7 65.85
Q 29.7 65.75 29.7 65.65
L 29.7 65.6
Q 29.7 65.5 29.7 65.45
L 29.7 65.1 29.6 65 29.6 64.85 29.55 64.8 29.55 64.55 29.45 64.55
Q 29.45 64.5 29.45 64.4
L 29.45 64.35 29.35 64.25
Q 29.35 64.2 29.3 64.2 29.15 64.1 29.15 64.05
L 29.15 63.95 29 63.9 29 63.75
Q 28.95 63.75 28.95 63.7
L 28.85 63.7 28.7 63.45 28.55 63.45 28.35 63.3 28.25 63.3 28.25 63.2 28.1 63.2
Q 28.05 63.2 28.05 63.15 Z"/>

<path fill="#4A7000" stroke="none" d="
M 11.1 77.5
Q 12.2 81.7 15.4 84.95 20.3 89.7 27.3 89.7 34.2 89.7 39.05 84.95 39.8 84.2 40.45 83.4 42.4 80.95 43.25 78.1 36 83.1 28.8 83.3
L 28.7 83.3
Q 27.9 83.9 27.05 83.75 26.4 83.75 25.9 83.25 18.45 82.5 10.95 76.75 10.95 77.05 11.1 77.5 Z"/>

<path fill="#669900" stroke="none" d="
M 39.05 61.2
Q 34.2 56.2 27.3 56.2 20.3 56.2 15.4 61.2 10.55 66 10.55 73.05 10.55 73.7 10.55 74.4 10.6 75.65 10.95 76.75 18.45 82.5 25.9 83.25 25.65 83.1 25.5 82.85 24.9 82.2 25 81.2 25 80.25 25.65 79.65 26.4 79 27.3 78.9 28.5 78.9 29.3 79.8 30.05 80.8 29.7 81.95 29.55 82.8 28.8 83.3 36 83.1 43.25 78.1 43.95 75.7 43.95 73.05 43.95 71.1 43.65 69.25 42.6 64.7 39.05 61.2
M 27.9 63.15
L 28.05 63.15
Q 28.05 63.2 28.1 63.2
L 28.25 63.2 28.25 63.3 28.35 63.3 28.55 63.45 28.7 63.45 28.85 63.7 28.95 63.7
Q 28.95 63.75 29 63.75
L 29 63.9 29.15 63.95 29.15 64.05
Q 29.15 64.1 29.3 64.2 29.35 64.2 29.35 64.25
L 29.45 64.35 29.45 64.4
Q 29.45 64.5 29.45 64.55
L 29.55 64.55 29.55 64.8 29.6 64.85 29.6 65 29.7 65.1 29.7 65.45
Q 29.7 65.5 29.7 65.6
L 29.7 65.65
Q 29.7 65.75 29.7 65.85
L 29.7 66
Q 29.7 66.05 29.7 66.15
L 29.7 66.35
Q 29.7 66.4 29.7 66.5
L 29.7 66.55
Q 29.7 66.65 29.7 66.7
L 29.7 66.8
Q 29.7 66.9 29.7 66.95
L 29.7 67.1
Q 29.7 67.15 29.7 67.25
L 29.7 67.45
Q 29.7 67.55 29.7 67.6
L 29.7 67.7
Q 29.7 67.8 29.7 67.9
L 29.7 68
Q 29.7 68.05 29.7 68.15
L 29.7 68.2
Q 29.7 68.3 29.7 68.35
L 29.7 68.45
Q 29.7 68.5 29.7 68.65
L 29.7 68.8
Q 29.7 68.85 29.7 68.95
L 29.7 69.05
Q 29.7 69.1 29.7 69.2
L 29.7 69.25
Q 29.7 69.4 29.7 69.45
L 29.7 69.55
Q 29.7 69.6 29.7 69.7
L 29.7 69.75
Q 29.7 69.85 29.7 69.9
L 29.7 70
Q 29.7 70.15 29.7 70.2
L 29.7 70.3
Q 29.7 70.35 29.7 70.45
L 29.7 70.5
Q 29.7 70.6 29.7 70.65
L 29.7 70.75
Q 29.7 70.8 29.7 70.95
L 29.7 71.05
Q 29.7 71.1 29.7 71.2
L 29.7 71.25
Q 29.7 71.35 29.7 71.4
L 29.7 71.5
Q 29.7 71.55 29.7 71.65
L 29.7 71.85
Q 29.7 71.9 29.7 72
L 29.7 72.1
Q 29.7 72.15 29.7 72.25
L 29.7 72.4
Q 29.7 72.45 29.7 72.6
L 29.7 72.65
Q 29.7 72.75 29.7 72.8
L 29.7 72.9
Q 29.7 72.95 29.7 73.05
L 29.7 73.15
Q 29.7 73.2 29.7 73.35
L 29.7 73.5
Q 29.7 73.55 29.7 73.65
L 29.7 73.7
Q 29.7 73.8 29.7 73.85
L 29.7 73.95
Q 29.7 74 29.7 74.15
L 29.7 74.25
Q 29.7 74.3 29.7 74.4
L 29.7 74.45
Q 29.7 74.55 29.7 74.6
L 29.7 74.7
Q 29.7 74.75 29.7 74.9
L 29.7 74.95
Q 29.7 75.05 29.7 75.1 29.7 75.2 29.7 75.3
L 29.7 75.35
Q 29.7 75.45 29.6 75.5
L 29.6 75.65
Q 29.6 75.7 29.55 75.8
L 29.55 75.85
Q 29.45 75.95 29.45 76
L 29.45 76.15 29.35 76.25 29.3 76.25
Q 29.3 76.35 29.3 76.45 29.15 76.45 29.15 76.55
L 29 76.7 29 76.75 28.95 76.75 28.95 76.85
Q 28.85 76.85 28.85 76.9
L 28.8 76.9 28.7 77
Q 28.65 77 28.65 77.05 28.55 77.05 28.55 77.15
L 28.5 77.15
Q 28.5 77.25 28.35 77.25
L 28.25 77.25
Q 28.2 77.25 28.2 77.35
L 28.1 77.35
Q 28.05 77.35 28.05 77.45
L 27.9 77.45 27.8 77.5 26.65 77.5 26.55 77.45 26.4 77.45
Q 26.4 77.35 26.3 77.35
L 26.25 77.35
Q 26.25 77.25 26.15 77.25
L 26.1 77.25
Q 25.95 77.25 25.95 77.15
L 25.9 77.15
Q 25.9 77.05 25.8 77.05 25.8 77 25.75 77
L 25.65 76.9 25.6 76.9
Q 25.6 76.85 25.5 76.85
L 25.5 76.75 25.45 76.75 25.45 76.7 25.2 76.55
Q 25.2 76.45 25.15 76.45 25.15 76.35 25.15 76.25
L 25.05 76.25 25 76.15 25 76
Q 25 75.95 24.9 75.85
L 24.9 75.8
Q 24.85 75.7 24.85 75.65
L 24.85 75.5
Q 24.75 75.45 24.75 75.35
L 24.75 75.3
Q 24.75 75.2 24.75 75.1 24.75 75.05 24.75 74.95
L 24.75 74.9
Q 24.75 74.75 24.75 74.7
L 24.75 74.6
Q 24.75 74.55 24.75 74.45
L 24.75 74.4
Q 24.75 74.3 24.75 74.25
L 24.75 74.15
Q 24.75 74 24.75 73.95
L 24.75 73.85
Q 24.75 73.8 24.75 73.7
L 24.75 73.65
Q 24.75 73.55 24.75 73.5
L 24.75 73.35
Q 24.75 73.2 24.75 73.15
L 24.75 73.05
Q 24.75 72.95 24.75 72.9
L 24.75 72.8
Q 24.75 72.75 24.75 72.65
L 24.75 72.6
Q 24.75 72.45 24.75 72.4
L 24.75 72.25
Q 24.75 72.15 24.75 72.1
L 24.75 72
Q 24.75 71.9 24.75 71.85
L 24.75 71.65
Q 24.75 71.55 24.75 71.5
L 24.75 71.4
Q 24.75 71.35 24.75 71.25
L 24.75 71.2
Q 24.75 71.1 24.75 71.05
L 24.75 70.95
Q 24.75 70.8 24.75 70.75
L 24.75 70.65
Q 24.75 70.6 24.75 70.5
L 24.75 70.45
Q 24.75 70.35 24.75 70.3
L 24.75 70.2
Q 24.75 70.15 24.75 70
L 24.75 69.9
Q 24.75 69.85 24.75 69.75
L 24.75 69.7
Q 24.75 69.6 24.75 69.55
L 24.75 69.45
Q 24.75 69.4 24.75 69.25
L 24.75 69.2
Q 24.75 69.1 24.75 69.05
L 24.75 68.95
Q 24.75 68.85 24.75 68.8
L 24.75 68.65
Q 24.75 68.5 24.75 68.45
L 24.75 68.35
Q 24.75 68.3 24.75 68.2
L 24.75 68.15
Q 24.75 68.05 24.75 68
L 24.75 67.9
Q 24.75 67.8 24.75 67.7
L 24.75 67.6
Q 24.75 67.55 24.75 67.45
L 24.75 67.4
Q 24.75 67.3 24.75 67.25
L 24.75 67.15
Q 24.75 67.1 24.75 66.95
L 24.75 66.9
Q 24.75 66.8 24.75 66.7
L 24.75 66.65
Q 24.75 66.55 24.75 66.5
L 24.75 66.4
Q 24.75 66.35 24.75 66.25
L 24.75 66.15
Q 24.75 66.05 24.75 66
L 24.75 65.85
Q 24.75 65.75 24.75 65.65
L 24.75 65.6
Q 24.75 65.5 24.75 65.45
L 24.75 65.1 24.85 65 24.85 64.85 24.9 64.8 24.9 64.55 25 64.55
Q 25 64.5 25 64.4
L 25 64.35 25.05 64.25
Q 25.05 64.2 25.15 64.2 25.2 64.1 25.2 64.05
L 25.2 63.95 25.45 63.9 25.45 63.75
Q 25.5 63.75 25.5 63.7
L 25.6 63.7 25.75 63.45 25.9 63.45
Q 25.9 63.35 25.95 63.35
L 26.1 63.3 26.15 63.3 26.15 63.2 26.3 63.2
Q 26.4 63.2 26.4 63.15
L 26.55 63.15 26.65 63 26.8 63
Q 26.9 63 26.9 62.95
L 27.55 62.95
Q 27.55 63 27.65 63
L 27.8 63 27.9 63.15
M 21.85 62.45
Q 22.75 63.45 22.55 64.8 22.4 65.45 21.7 66.15 21.4 66.55 20.6 67.4 19.25 68.7 18.8 68.85 17.35 69.55 16.35 68.45 15.25 67.45 15.55 66 15.75 64.95 17.55 63.35 18.75 62.05 19.55 61.9 20.8 61.55 21.85 62.45 Z"/>

<path fill="#A9FF00" stroke="none" d="
M 22.55 64.8
Q 22.75 63.45 21.85 62.45 20.8 61.55 19.55 61.9 18.75 62.05 17.55 63.35 15.75 64.95 15.55 66 15.25 67.45 16.35 68.45 17.35 69.55 18.8 68.85 19.25 68.7 20.6 67.4 21.4 66.55 21.7 66.15 22.4 65.45 22.55 64.8 Z"/>

<path fill="#EE9F2D" stroke="none" d="
M 48.75 19.3
L 55.55 12.7
Q 53.35 14.55 51.25 16.65 49.9 18 48.75 19.3 Z"/>

<path fill="#8B8C8F" stroke="none" d="
M 85.05 98.05
Q 104.75 98.05 118.75 84.05 132.65 70.15 132.65 50.35 132.65 38.6 127.8 28.9 130 41.25 128.55 53.7 128.35 55.95 127.9 58.15 124.8 73.8 110.4 84.55 100.45 93.35 82.35 92.45 69.25 93.15 50.2 86.65
L 40.45 83.4
Q 39.8 84.2 39.05 84.95 34.2 89.7 27.3 89.7 20.3 89.7 15.4 84.95 12.2 81.7 11.1 77.5
L 3.25 74.7
Q 3.85 83.3 10.2 89.55 17.05 96.5 26.9 96.5
L 77.75 97.55
Q 81.3 98.05 85.05 98.05 Z"/>

<path fill="#D3D6D7" stroke="none" d="
M 118.75 16.65
Q 104.75 2.7 85.05 2.7 68.25 2.7 55.55 12.7
L 48.75 19.3 11.2 55.25
Q 10.7 55.7 10.2 56.2 10.1 56.2 10.05 56.3 3.2 63.2 3.2 72.9 3.2 73.8 3.25 74.7
L 11.1 77.5
Q 10.95 77.05 10.95 76.75 10.6 75.65 10.55 74.4 10.55 73.7 10.55 73.05 10.55 66 15.4 61.2 20.3 56.2 27.3 56.2 34.2 56.2 39.05 61.2 42.6 64.7 43.65 69.25 43.95 71.1 43.95 73.05 43.95 75.7 43.25 78.1 42.4 80.95 40.45 83.4
L 50.2 86.65
Q 69.25 93.15 82.35 92.45 100.45 93.35 110.4 84.55 124.8 73.8 127.9 58.15 128.35 55.95 128.55 53.7 130 41.25 127.8 28.9 124.4 22.35 118.75 16.65
M 107.05 18.55
Q 115.55 24.8 118.6 32.85 121.35 40.1 121.35 46.2 120.85 50.3 119.35 53.7 119.1 54.05 118.95 54.6 117.7 66 109.15 74.55 99.3 84.4 85.35 84.4 71.35 84.4 61.45 74.55 52.6 65.75 51.65 53.7 51.55 52.3 51.55 50.95 49.1 46.2 49.4 37.7 51.3 27.6 60.95 19.45 72.9 11.8 85.5 11.6 98.2 11.9 107.05 18.55 Z"/>

<path fill="#630D04" stroke="none" d="
M 109.15 74.55
Q 117.7 66 118.95 54.6 118.95 54.05 118.95 53.7 84.1 97.45 51.65 53.7 52.6 65.75 61.45 74.55 71.35 84.4 85.35 84.4 99.3 84.4 109.15 74.55 Z"/>

<path fill="#F4F4F4" stroke="none" d="
M 85.35 16.85
Q 99.3 16.85 109.15 26.7 114.8 32.2 117.15 39.05 119.1 44.45 119.1 50.65 119.1 52.2 118.95 53.7 118.95 54.05 118.95 54.6 119.1 54.05 119.35 53.7 120.85 50.3 121.35 46.2 121.35 40.1 118.6 32.85 115.55 24.8 107.05 18.55 98.2 11.9 85.5 11.6 72.9 11.8 60.95 19.45 51.3 27.6 49.4 37.7 49.1 46.2 51.55 50.95 51.55 50.85 51.55 50.65 51.55 44.55 53.55 39.1 55.8 32.3 61.45 26.7 71.35 16.85 85.35 16.85 Z"/>

<path fill="#971C10" stroke="none" d="
M 109.15 26.7
Q 99.3 16.85 85.35 16.85 71.35 16.85 61.45 26.7 55.8 32.3 53.55 39.1 51.55 44.55 51.55 50.65 51.55 50.85 51.55 50.95 51.55 52.3 51.65 53.7 84.1 97.45 118.95 53.7 119.1 52.2 119.1 50.65 119.1 44.45 117.15 39.05 114.8 32.2 109.15 26.7 Z"/>
</g>

<path id="Layer0_0_1_STROKES" stroke="#333333" stroke-width="2" stroke-linejoin="round" stroke-linecap="round" fill="none" d="
M 127.8 28.9
Q 124.4 22.35 118.75 16.65 104.75 2.7 85.05 2.7 68.25 2.7 55.55 12.7
L 48.75 19.3 11.2 55.25
Q 10.7 55.7 10.2 56.2 10.1 56.2 10.05 56.3 3.2 63.2 3.2 72.9 3.2 73.8 3.25 74.7
M 11.1 77.5
Q 10.95 77.05 10.95 76.75 10.6 75.65 10.55 74.4 10.55 73.7 10.55 73.05 10.55 66 15.4 61.2 20.3 56.2 27.3 56.2 34.2 56.2 39.05 61.2 42.6 64.7 43.65 69.25 43.95 71.1 43.95 73.05 43.95 75.7 43.25 78.1 42.4 80.95 40.45 83.4
M 127.8 28.9
Q 132.65 38.6 132.65 50.35 132.65 70.15 118.75 84.05 104.75 98.05 85.05 98.05 81.3 98.05 77.75 97.55
L 26.9 96.5
Q 17.05 96.5 10.2 89.55 3.85 83.3 3.25 74.7
M 118.95 53.7
Q 119.1 52.2 119.1 50.65 119.1 44.45 117.15 39.05 114.8 32.2 109.15 26.7 99.3 16.85 85.35 16.85 71.35 16.85 61.45 26.7 55.8 32.3 53.55 39.1 51.55 44.55 51.55 50.65 51.55 50.85 51.55 50.95 51.55 52.3 51.65 53.7
M 118.95 54.6
Q 118.95 54.05 118.95 53.7
M 51.65 53.7
Q 52.6 65.75 61.45 74.55 71.35 84.4 85.35 84.4 99.3 84.4 109.15 74.55 117.7 66 118.95 54.6
M 55.55 12.7
Q 53.35 14.55 51.25 16.65 49.9 18 48.75 19.3
M 11.1 77.5
Q 12.2 81.7 15.4 84.95 20.3 89.7 27.3 89.7 34.2 89.7 39.05 84.95 39.8 84.2 40.45 83.4"/>
</defs>

<g transform="matrix( 1, 0, 0, 1, 0,0) ">
<use xlink:href="#Layer0_0_FILL"/>

<use xlink:href="#Layer0_0_1_STROKES"/>
</g>
</svg>
