
<svg xmlns="http://www.w3.org/2000/svg" version="1.1" xmlns:xlink="http://www.w3.org/1999/xlink" preserveAspectRatio="none" x="0px" y="0px" width="190px" height="190px" viewBox="0 0 190 190">
<defs>
<g id="_____1_0_Layer1_0_FILL">
<path fill="#000000" fill-opacity="0.2980392156862745" stroke="none" d="
M 125.55 -2.1
L 10.1 -2.1
Q 3.8 -2.1 0.25 0.7 -4.25 4.2 -4.25 12.25
L -4.25 127.5
Q -4.25 141.85 10.1 141.85
L 125.55 141.85
Q 132.4 141.85 136 138.6 139.95 135.05 139.95 127.5
L 139.95 12.25
Q 139.95 -2.1 125.55 -2.1 Z"/>
</g>

<g id="_____1_0_Layer0_0_FILL">
<path fill="#999999" stroke="none" d="
M 4.2 2.6
Q 0 5.9580078125 0 13.5
L 0 122.1
Q 0 135.6 13.5 135.6
L 122.05 135.6
Q 128.4978515625 135.6 131.85 132.55
L 123.05 123.55
Q 120.14140625 126.25 114.55 126.25
L 20.95 126.25
Q 9.3 126.25 9.3 114.65
L 9.3 21.05
Q 9.3 14.4615234375 13.05 11.6
L 4.2 2.6 Z"/>

<path fill="#321919" stroke="none" d="
M 126.15 21.05
Q 126.15 9.45 114.55 9.45
L 20.95 9.45
Q 15.9169921875 9.45 13.05 11.6 9.3 14.4615234375 9.3 21.05
L 9.3 114.65
Q 9.3 126.25 20.95 126.25
L 114.55 126.25
Q 120.14140625 126.25 123.05 123.55 126.15 120.65859375 126.15 114.65
L 126.15 21.05
M 122.85 25.2
L 122.85 50.45 122.85 113.45
Q 122.85 118.3919921875 120.65 121.1 117.93046875 124.45 111.9 124.45
L 23.6 124.45
Q 12.65 124.45 12.65 113.5
L 12.65 87.4 12.65 25.2
Q 12.65 18.2478515625 17.05 15.7 19.6021484375 14.25 23.6 14.25
L 111.9 14.25
Q 122.85 14.25 122.85 25.2 Z"/>

<path fill="#623F35" stroke="none" d="
M 60.3 59.7
Q 35.8431640625 69.06015625 12.65 87.4
L 12.65 113.5
Q 12.65 124.45 23.6 124.45
L 111.9 124.45
Q 117.93046875 124.45 120.65 121.1 122.85 118.3919921875 122.85 113.45
L 122.85 50.45
Q 90.6005859375 48.2115234375 60.3 59.7 Z"/>

<path fill="#734A3F" stroke="none" d="
M 122.85 50.45
L 122.85 25.2
Q 122.85 14.25 111.9 14.25
L 23.6 14.25
Q 19.6021484375 14.25 17.05 15.7 12.65 18.2478515625 12.65 25.2
L 12.65 87.4
Q 35.8431640625 69.06015625 60.3 59.7 90.6005859375 48.2115234375 122.85 50.45 Z"/>

<path fill="#FFFFFF" stroke="none" d="
M 135.6 13.5
Q 135.6 0 122.05 0
L 13.5 0
Q 7.5419921875 0 4.2 2.6
L 13.05 11.6
Q 15.9169921875 9.45 20.95 9.45
L 114.55 9.45
Q 126.15 9.45 126.15 21.05
L 126.15 114.65
Q 126.15 120.65859375 123.05 123.55
L 131.85 132.55
Q 135.6 129.1759765625 135.6 122.1
L 135.6 13.5 Z"/>
</g>

<g id="_______2_0_Layer0_0_FILL">
<path fill="#FDBF4D" stroke="none" d="
M 84.5 134.35
L 94.95 125.35 94.8 112.05 91.75 79.8 80.15 84.8 80.15 135.7
Q 82.35 135.35 84.5 134.35
M 116.35 59.85
Q 115.9 60.15 115.6 61.05 115.25 61.9 115.35 62.45 115.6 63.95 114.75 65.35 114.05 66.45 112.75 67
L 112.75 67.75 111.85 113.6
Q 111.95 114.4 111.9 115.2
L 116.95 111.95
Q 120.1 109.1 119.95 104.5
L 121.85 56.9
Q 121.3 57.1 120.7 57.4 119.6 58.05 119.1 58.3 117.6 59.05 116.35 59.85 Z"/>

<path fill="#FDAC15" stroke="none" d="
M 80.15 84.8
L 59.4 80.6 56.85 130.95 76.25 135.75
Q 78.2 136 80.15 135.7
L 80.15 84.8
M 30.35 74.1
Q 25.6 73.35 24.8 73.25 19.1 72.25 15.6 72.25 12.9 72.25 11.7 76.2 10.95 78.8 10.3 86.45 10 89.55 8.7 95.5
L 9.45 113.05
Q 9.6 118.1 14.05 120.55
L 34.7 126.9
Q 34.5 126.25 34.5 125.55
L 33.1 74.9
Q 31.95 74.45 30.35 74.1
M 10.6 38.95
Q 5.3 38 3.4 37.1 1.55 36.25 1.2 34.9 -0.05 36.75 0 39.25
L 0 52.6
Q 0.4 56.55 7.1 57.95
L 25.9 62.65
Q 26.45 61.3 27.4 56.85 28.9 50.05 28.9 47.4 28.9 44.55 28.2 43.1 27.95 42.45 27.5 42 23.25 41.3 10.6 38.95
M 56.9 48
Q 54.45 47.25 53.55 45.85 51.15 48.05 50.5 50.65 50.05 52.3 50.05 56.65 50.05 61.4 50.75 64.7 51.35 67.8 52.6 69.5
L 77.5 74.35
Q 77.8 74.35 78.15 74.4 79.05 73.15 79.95 70.1 81.15 65.95 81.15 62.25 81.15 58.75 80.7 55.9 80.25 53.1 79.4 51.95 77.75 51.8 75.65 51.55 70.9 50.95 66.6 50.1 57.9 48.3 56.9 48
M 94.85 58.95
Q 95.35 58.15 95.4 57.5 95.45 57.25 95.45 55.45
L 95.45 53.35
Q 95.45 50.45 95.35 50.15 94.85 49.1 94.05 47.25 92.15 48.45 89.4 49.9 89.35 49.95 86.1 51.4 84.8 52 83.5 52.15 82.65 52.25 82.45 52.15
L 82.45 52.2
Q 82.4 52.2 82.4 52.1 82.2 52.1 81.95 52.1 82.45 53.25 82.6 54.1 82.65 54.6 82.65 57 82.65 58.7 82.15 64.3 81.65 69.9 81.65 71.4 81.65 71.55 81.65 71.9 84.7 71.65 88.2 70.2 92.45 68.45 93.85 66.45 94.15 64.65 94.85 58.95
M 125.95 33.65
Q 125.95 32.65 125.7 31.8
L 111.75 39
Q 112.55 40.3 112.75 41.9
L 113.85 55.25
Q 119.6 53.25 122.3 50.7 123.45 49.7 124.45 48.15 124.9 47.5 125.7 46.25 125.7 45.9 125.7 45.5
L 125.95 34.05
Q 125.95 33.85 125.95 33.65 Z"/>

<path fill="#F36262" stroke="none" d="
M 32.95 69.35
L 33.1 74.9 34.5 125.55
Q 34.5 126.25 34.7 126.9 34.85 127.3 35.15 127.7
L 52.05 130.6 47.5 72.8
Q 43.1 71.95 40.6 71.45 36.05 70.45 32.95 69.35
M 46.9 46.2
Q 46 46.1 45 46 42.05 45.8 40.5 45.7 35.3 45.2 31.6 43.85 30.95 45.7 31 48.1
L 31 62.15
Q 31 63.2 31.25 64 31.65 65.25 32.85 65.9
L 47.15 68.5
Q 46.35 67.8 46.3 66.4
L 46.3 49.6
Q 46.25 47.85 46.9 46.2
M 45.05 42.9
Q 47.05 42.2 50.5 41.65
L 56.55 38
Q 55.3 38.05 53.25 38.3 49.85 38.7 47.45 39.3 45.5 39.8 40 41.65 38 42.3 34.4 42.3 33.1 42.3 32.3 42.25 32.15 42.55 32 42.9 33.05 43.2 35.2 43.3 36.05 43.3 38.95 43.3 43.7 43.3 45.05 42.9
M 45.65 19
Q 44.4 18.35 43.4 17.9 39.7 16.3 38.05 15.7 38 17.05 37.7 18.15 37.1 20.25 35.4 21.5 35.1 21.75 35 25 34.65 28.2 32.85 28.2 32.3 28.2 31.85 26.85 31.4 25.65 31.4 24.85 31.4 23.15 31.55 22.7 31.85 21.55 33.25 20.15 33.55 19.85 34.5 19.25 35.35 18.6 35.6 17.9 35.65 17.05 35.7 16.5 35.7 16.25 35.8 16 35.45 15.6 35.2 15.15 34.45 15.1 33.5 15.1 32.55 15.05 31.4 15.05 31.05 15.05 30.65 15.05 29.3 15.05 28.15 15.3 27.8 15.9 27.7 16.3 27.65 16.6 27.65 18.95 27.65 22.6 29.1 27.5 29.95 30.4 30.9 32.6 32.1 35.3 32.9 36.1 33.3 36.45 33.85 36.7 33.5 35.95 33.5 35.9 33.4 35.65 33.4 33.95 33.4 30.45 34.75 28.6 36.5 26.15 40.7 26.15 43.9 26.15 48.8 27.65 51.95 28.6 54.35 29.65 54.6 29.75 54.85 29.85 55.15 30 55.45 30.15 55.8 28.5 57.1 26.85 55.8 25.25 51.4 22.4 51.25 22.3 51.1 22.2 48 20.25 45.65 19
M 56 6.05
Q 54.55 5.2 53.15 4.55 49.55 2.8 47.55 2.8 43.95 2.8 39.55 4.65 35.7 6.25 34.05 8.45 34.55 8.3 35.05 8.3 38.85 8.3 44.5 14.05 45.35 14.9 46.25 15.85 47.3 16.2 48.4 16.4 50.45 16.8 52.4 16.8 54.3 16.8 55.2 16.35 56.1 15.95 56.45 14.75 56.7 13.85 56.85 11.55 56.95 9.3 57.05 8 56.95 7.75 56.85 7.55 56.45 6.75 56 6.05
M 112.75 67.75
L 99.4 74.8 97.3 126.45
Q 97.45 126.45 97.7 126.4
L 110.15 118.85
Q 111.65 117.1 111.9 115.2 111.95 114.4 111.85 113.6
L 112.75 67.75
M 112.75 41.9
Q 112.55 40.3 111.75 39
L 98.45 45.5
Q 99.5 48.3 99.3 52.1
L 99.3 66.65
Q 99.1 68.8 97.7 70
L 112.85 61.7
Q 114.15 60 114.1 58.3
L 114.05 57.4 113.85 55.25 112.75 41.9
M 97.5 32.85
Q 96 32.55 94.45 32.35 86.15 37.3 68.65 35.05
L 91 40.5
Q 95.4 42.05 97.45 44.15 97.95 43.9 98.15 43.65 98.45 43.4 98.45 42.8 98.45 40.6 91.6 38.9 84 37.45 82.45 36.95
L 82.4 36.85
Q 87.2 37.3 91.8 36.1 96.25 34.95 97.5 32.85
M 85.15 10.65
Q 84.1 9.75 83.75 9.35 83.55 9.15 83.4 8.9 82.65 9.3 81.9 9.85 80.95 10.55 79.25 12.05 76.9 14.15 76.05 14.9 73.85 16.75 71.5 20 69.65 22.7 68.4 24.5 68.1 24.85 67.9 25.15 68 25.4 68 25.8
L 68 25.85
Q 68.05 25.95 68.05 26.05 68.05 26.15 68.05 26.85 68.05 26.95 67.45 31.05 67.45 31.2 67.4 31.35 74.65 24.3 78.55 21.75 83.15 18.7 87.85 18.1 87.1 12.7 85.15 10.65 Z"/>

<path fill="#D77303" stroke="none" d="
M 32.95 69.35
L 32.85 65.9
Q 31.65 65.25 31.25 64
L 25.9 62.65 7.1 57.95 8.7 95.5
Q 10 89.55 10.3 86.45 10.95 78.8 11.7 76.2 12.9 72.25 15.6 72.25 19.1 72.25 24.8 73.25 25.6 73.35 30.35 74.1 31.95 74.45 33.1 74.9
L 32.95 69.35
M 94.45 69.55
Q 88.25 73.7 81.8 74.3 80 74.5 78.15 74.4 77.8 74.35 77.5 74.35
L 52.6 69.5 50.35 69.05 54 130.25 56.85 130.95 59.4 80.6 80.15 84.8 91.75 79.8 94.8 112.05 94.45 69.55
M 114.1 58.3
Q 114.15 60 112.85 61.7
L 112.75 67
Q 114.05 66.45 114.75 65.35 115.6 63.95 115.35 62.45 115.25 61.9 115.6 61.05 115.9 60.15 116.35 59.85 117.6 59.05 119.1 58.3 119.6 58.05 120.7 57.4 121.3 57.1 121.85 56.9
L 121.95 52.8 114.05 57.4 114.1 58.3 Z"/>

<path fill="#BE2339" stroke="none" d="
M 32.85 65.9
L 32.95 69.35
Q 36.05 70.45 40.6 71.45 43.1 71.95 47.5 72.8
L 52.05 130.6 35.15 127.7
Q 35.85 128.7 37.35 129.4
L 51.9 133.1
Q 54 133 54.05 131.75
L 54 130.25 50.35 69.05 47.15 68.5 32.85 65.9
M 112.75 67.75
L 112.75 67 112.85 61.7 97.7 70
Q 97.25 70.4 96.6 70.75
L 96.1 126.4
Q 96.6 126.55 97.3 126.45
L 99.4 74.8 112.75 67.75 Z"/>

<path fill="#F68404" stroke="none" d="
M 16.05 27.25
L 23.65 27.25
Q 23.15 25.65 22.95 24.4
L 16.05 27.25
M 26.75 35.05
Q 26.65 34.85 26.55 34.7 25.45 35 25 35.65 24.55 36.3 24.55 37.7 24.55 39.4 25.25 40.2 25.45 40.5 26.75 41.35 27.15 41.65 27.5 42 27.95 42.45 28.2 43.1 28.9 44.55 28.9 47.4 28.9 50.05 27.4 56.85 26.45 61.3 25.9 62.65
L 31.25 64
Q 31 63.2 31 62.15
L 31 48.1
Q 30.95 45.7 31.6 43.85 31.75 43.35 32 42.9 32.15 42.55 32.3 42.25 33.25 40.65 34.95 39.55 32.65 39.4 31.25 38.9 28.4 37.9 26.75 35.05
M 93.7 44.3
Q 92.25 43.25 90.25 42.6
L 68.7 37.4
Q 64.8 36.45 61.85 37.4
L 52.8 42.85
Q 48.6 45.95 48.4 50.7
L 48.4 65.5
Q 48.45 67.9 50.35 69.05
L 52.6 69.5
Q 51.35 67.8 50.75 64.7 50.05 61.4 50.05 56.65 50.05 52.3 50.5 50.65 51.15 48.05 53.55 45.85 53.8 45.6 54.15 45.3 58.45 41.7 60.2 40.65 63.35 38.8 66.65 38.8 71.35 38.8 76.9 40.25 86.85 42.85 93.7 44.3
M 95.6 46.15
Q 94.9 46.65 94.05 47.25 94.85 49.1 95.35 50.15 95.45 50.45 95.45 53.35
L 95.45 55.45
Q 95.45 57.25 95.4 57.5 95.35 58.15 94.85 58.95 94.15 64.65 93.85 66.45 92.45 68.45 88.2 70.2 84.7 71.65 81.65 71.9 81.7 72.7 81.8 74.3 88.25 73.7 94.45 69.55 96.9 68.15 97.1 66.05
L 97.1 50
Q 96.85 47.8 95.6 46.15
M 125.7 46.25
Q 124.9 47.5 124.45 48.15 123.45 49.7 122.3 50.7 119.6 53.25 113.85 55.25
L 114.05 57.4 121.95 52.8
Q 125.4 50.95 125.7 46.25 Z"/>

<path fill="#FEDF30" stroke="none" d="
M 4.35 32.1
Q 2.3 33.3 1.2 34.9 1.55 36.25 3.4 37.1 5.3 38 10.6 38.95 23.25 41.3 27.5 42 27.15 41.65 26.75 41.35 25.45 40.5 25.25 40.2 24.55 39.4 24.55 37.7 24.55 36.3 25 35.65 25.45 35 26.55 34.7 25.8 33.25 24.6 30.05 24.05 28.55 23.65 27.25
L 16.05 27.25 4.35 32.1
M 67.15 23.7
Q 68.85 21.1 70.55 18.9
L 60.4 17.25 62.2 22.75
Q 62.95 22.4 62.95 22.6
L 63 22.6
Q 65.45 22.6 66.6 23.3 66.9 23.45 67.15 23.7
M 94.05 47.25
Q 94.9 46.65 95.6 46.15 94.8 45.1 93.7 44.3 86.85 42.85 76.9 40.25 71.35 38.8 66.65 38.8 63.35 38.8 60.2 40.65 58.45 41.7 54.15 45.3 53.8 45.6 53.55 45.85 54.45 47.25 56.9 48 57.9 48.3 66.6 50.1 70.9 50.95 75.65 51.55 77.75 51.8 79.4 51.95 80.85 52.05 81.95 52.1 82.2 52.1 82.4 52.1 82.4984375 52.1 82.6 52.1 82.546875 52.1015625 82.45 52.15 82.65 52.25 83.5 52.15 84.8 52 86.1 51.4 89.35 49.95 89.4 49.9 92.15 48.45 94.05 47.25
M 99.1 27.75
Q 99.1 27.8 99.1 27.9
L 99.2 27.95
Q 99.35 28.1 100.05 29.1 100.35 29.5 100.35 31.25 100.35 32.55 100.3 32.8 100.25 33.05 100.1 33.35 104.3 34.2 108 35.65 110.55 37 111.75 39
L 125.7 31.8
Q 124.8 28.65 120.25 27.45
L 101.1 23.65
Q 100.4 25.7 99.1 27.6 99.1 27.65 99.1 27.75 Z"/>

<path fill="#FDF1ED" stroke="none" d="
M 37.05 15.35
Q 36.7 15.3 36.15 15.25 35.9 15.6 35.8 16 35.7 16.25 35.7 16.5 35.65 17.05 35.6 17.9 35.35 18.6 34.5 19.25 33.55 19.85 33.25 20.15 31.85 21.55 31.55 22.7 31.4 23.15 31.4 24.85 31.4 25.65 31.85 26.85 32.3 28.2 32.85 28.2 34.65 28.2 35 25 35.1 21.75 35.4 21.5 37.1 20.25 37.7 18.15 38 17.05 38.05 15.7 37.4 15.45 37.05 15.35
M 83.75 9.35
Q 84.1 9.75 85.15 10.65 87.1 12.7 87.85 18.1 89.1 17.9 90.4 17.9 92.25 17.9 93.75 18.35 93.6 17.65 93.5 17.5 93.45 17.35 92.6 16.6 91.8 15.95 91.65 15.25 91.5 14.5 91.7 13.4 91.85 12.25 91.75 11.65 91.45 10.15 89.35 7.95 88.6 7.9 87.8 7.9 85.45 7.9 83.4 8.9 83.55 9.15 83.75 9.35 Z"/>

<path fill="#FDC6A3" stroke="none" d="
M 50.5 41.65
Q 47.05 42.2 45.05 42.9 43.7 43.3 38.95 43.3 36.05 43.3 35.2 43.3 33.05 43.2 32 42.9 31.75 43.35 31.6 43.85 35.3 45.2 40.5 45.7 42.05 45.8 45 46 46 46.1 46.9 46.2 47.75 44 49.75 42.1
L 50.5 41.65
M 100.1 33.35
Q 98.85 33.05 97.5 32.85 96.25 34.95 91.8 36.1 87.2 37.3 82.4 36.85
L 82.45 36.95
Q 84 37.45 91.6 38.9 98.45 40.6 98.45 42.8 98.45 43.4 98.15 43.65 97.95 43.9 97.45 44.15 98.05 44.8 98.45 45.5
L 111.75 39
Q 110.55 37 108 35.65 104.3 34.2 100.1 33.35 Z"/>

<path fill="#C31B1D" stroke="none" d="
M 55.4 32
Q 55.4 32.15 55.45 32.25 55.7 33.6 57.05 34.25 57.2 34.35 57.4 34.4 58.8 34.95 61.85 34.95 62.8 34.95 64 34.35 64.6 34 65.3 33.5 67 32.25 67.4 31.35 67.45 31.2 67.45 31.05 68.05 26.95 68.05 26.85 68.05 26.15 68.05 26.05 68.05 25.95 68 25.85
L 68 25.8
Q 67.25 27.8 65.6 29.5 63 32.15 60.45 32.15 59.85 32.15 59 32 58.05 31.9 57.75 31.7 56.3 31.35 56.05 31.2 55.7 30.75 55.4 30.45 55.35 30.75 55.35 31.05 55.35 31.2 55.35 31.4 55.35 31.7 55.4 32
M 54.6 35.35
Q 54.45 35.45 54.25 35.5 51.15 37.05 49 37.35 46.3 37.95 43.65 38.5 38.3 39.65 37.2 39.65 36 39.65 34.95 39.55 33.25 40.65 32.3 42.25 33.1 42.3 34.4 42.3 38 42.3 40 41.65 45.5 39.8 47.45 39.3 49.85 38.7 53.25 38.3 55.3 38.05 56.55 38
L 58.25 37 54.6 35.35
M 46.25 15.85
Q 45.35 14.9 44.5 14.05 38.85 8.3 35.05 8.3 34.55 8.3 34.05 8.45 33.75 8.55 33.4 8.7 32.4 9.25 32.4 10.2 32.4 10.95 33 13.2 33.05 13.35 33.5 15.1 34.45 15.1 35.2 15.15 34.75 14.3 34.75 13.35 34.75 12.4 35.25 12.05 35.65 11.8 36.65 11.8 38.75 11.8 43.1 16.25 44.45 17.6 45.65 19 48 20.25 51.1 22.2 51.25 22.3 51.4 22.4 48.9 18.85 46.25 15.85 Z"/>

<path fill="#860B1E" stroke="none" d="
M 52.4 29.75
Q 51.9 29.55 50.75 29.25 49.65 29 48.8 28.85 45.25 28.2 44.45 28.1 43.55 27.95 41.6 27.95 37.65 27.95 36.35 28.8 34.85 29.75 34.85 32.75 34.85 35.15 35.75 36.2 36.3 36.85 37.3 37.15 38.1 37.35 39.1 37.35 41 37.35 42.9 36.6 46.35 35.2 47.7 34.8 49.1 34.4 52.95 33.05 54.25 32.6 55.45 32.25 55.4 32.15 55.4 32 55.35 31.7 55.35 31.4 55.35 31.2 55.35 31.05
L 52.4 29.75
M 43.4 17.9
Q 44.4 18.35 45.65 19 44.45 17.6 43.1 16.25 38.75 11.8 36.65 11.8 35.65 11.8 35.25 12.05 34.75 12.4 34.75 13.35 34.75 14.3 35.2 15.15 35.75 15.2 36.15 15.25 36.7 15.3 37.05 15.35 37.4 15.45 38.05 15.7 39.7 16.3 43.4 17.9
M 93.5 23.4
Q 92.1 22.1 90.15 22.1 85.6 22.1 80.7 24.7 78.7 25.75 75.35 27.9 71.2 30.55 68.6 32.2 71.9 33.15 72.55 33.25 73.9 33.45 77.9 33.45 85 33.45 89.25 32.2 94.95 30.55 94.95 26.8 94.95 24.8 93.5 23.4 Z"/>

<path fill="#D93644" stroke="none" d="
M 56 6.05
Q 54.25 3.2 52.05 1.8 51.1 1.2 50.05 0.8 46.65 -0.8 42.9 0.75 39.2 2.25 36.25 4.35 34.65 5.5 34 5.95 32.85 6.75 32.3 7.35 30.9 8.85 30.9 11.85 30.9 13 31.25 14.55 31.3 14.75 31.4 15.05 32.55 15.05 33.5 15.1 33.05 13.35 33 13.2 32.4 10.95 32.4 10.2 32.4 9.25 33.4 8.7 33.75 8.55 34.05 8.45 35.7 6.25 39.55 4.65 43.95 2.8 47.55 2.8 49.55 2.8 53.15 4.55 54.55 5.2 56 6.05
M 61.75 22.95
Q 62 22.85 62.2 22.75
L 60.4 17.25 59.9 15.8
Q 58.95 13 58.5 11.6 57.75 9.4 57.05 8 56.95 9.3 56.85 11.55 56.7 13.85 56.45 14.75 56.1 15.95 55.2 16.35 54.3 16.8 52.4 16.8 50.45 16.8 48.4 16.4 47.3 16.2 46.25 15.85 48.9 18.85 51.4 22.4 55.8 25.25 57.1 26.85 57.95 25.8 59.15 24.8 60.15 23.95 61.15 23.35 61.45 23.15 61.75 22.95
M 90.4 17.9
Q 89.1 17.9 87.85 18.1 83.15 18.7 78.55 21.75 74.65 24.3 67.4 31.35 67 32.25 65.3 33.5 64.6 34 64 34.35 62.8 34.95 61.85 34.95 58.8 34.95 57.4 34.4 57.2 34.35 57.05 34.25 55.7 33.6 55.45 32.25 54.25 32.6 52.95 33.05 49.1 34.4 47.7 34.8 46.35 35.2 42.9 36.6 41 37.35 39.1 37.35 38.1 37.35 37.3 37.15 36.3 36.85 35.75 36.2 34.85 35.15 34.85 32.75 34.85 29.75 36.35 28.8 37.65 27.95 41.6 27.95 43.55 27.95 44.45 28.1 45.25 28.2 48.8 28.85 49.65 29 50.75 29.25 51.9 29.55 52.4 29.75
L 55.35 31.05
Q 55.35 30.75 55.4 30.45 55.4 30.3 55.45 30.15 55.15 30 54.85 29.85 54.6 29.75 54.35 29.65 51.95 28.6 48.8 27.65 43.9 26.15 40.7 26.15 36.5 26.15 34.75 28.6 33.4 30.45 33.4 33.95 33.4 35.65 33.5 35.9 33.5 35.95 33.85 36.7 33.3 36.45 32.9 36.1 32.1 35.3 30.9 32.6 29.95 30.4 29.1 27.5 27.65 22.6 27.65 18.95 27.65 16.6 27.7 16.3 27.8 15.9 28.15 15.3 26.3 15.7 25.05 16.75 22.8 18.65 22.8 22.75 22.8 23.5 22.95 24.4 23.15 25.65 23.65 27.25 24.05 28.55 24.6 30.05 25.8 33.25 26.55 34.7 26.65 34.85 26.75 35.05 28.4 37.9 31.25 38.9 32.65 39.4 34.95 39.55 36 39.65 37.2 39.65 38.3 39.65 43.65 38.5 46.3 37.95 49 37.35 51.15 37.05 54.25 35.5 54.45 35.45 54.6 35.35
L 58.25 37 56.55 38 50.5 41.65 49.75 42.1
Q 47.75 44 46.9 46.2 46.25 47.85 46.3 49.6
L 46.3 66.4
Q 46.35 67.8 47.15 68.5
L 50.35 69.05
Q 48.45 67.9 48.4 65.5
L 48.4 50.7
Q 48.6 45.95 52.8 42.85
L 61.85 37.4
Q 64.8 36.45 68.7 37.4
L 90.25 42.6
Q 92.25 43.25 93.7 44.3 94.8 45.1 95.6 46.15 96.85 47.8 97.1 50
L 97.1 66.05
Q 96.9 68.15 94.45 69.55
L 94.8 112.05 94.95 125.35
Q 95.25 126.2 96.1 126.4
L 96.6 70.75
Q 97.25 70.4 97.7 70 99.1 68.8 99.3 66.65
L 99.3 52.1
Q 99.5 48.3 98.45 45.5 98.05 44.8 97.45 44.15 95.4 42.05 91 40.5
L 68.65 35.05
Q 86.15 37.3 94.45 32.35 97.2 30.3 98.95 27.85 99.05 27.7 99.1 27.6 99.1 23.1 97.35 20.75 96.05 19 93.75 18.35 92.25 17.9 90.4 17.9
M 90.15 22.1
Q 92.1 22.1 93.5 23.4 94.95 24.8 94.95 26.8 94.95 30.55 89.25 32.2 85 33.45 77.9 33.45 73.9 33.45 72.55 33.25 71.9 33.15 68.6 32.2 71.2 30.55 75.35 27.9 78.7 25.75 80.7 24.7 85.6 22.1 90.15 22.1
M 101.45 22.35
Q 102.3 18.9 101.65 14.9 97 5.4 87.5 6.2 87.1 6.25 86.7 6.3 84.9 6.65 83.15 7.55 77.05 10.45 70.55 18.9 68.85 21.1 67.15 23.7 67.75 24.25 67.9 25.15 68.1 24.85 68.4 24.5 69.65 22.7 71.5 20 73.85 16.75 76.05 14.9 76.9 14.15 79.25 12.05 80.95 10.55 81.9 9.85 82.65 9.3 83.4 8.9 85.45 7.9 87.8 7.9 88.6 7.9 89.35 7.95 94.65 8.45 97.85 12.55 100.75 16.3 101.45 22.35 Z"/>

<path fill="#F895A6" stroke="none" d="
M 67.15 23.7
Q 66.9 23.45 66.6 23.3 65.45 22.6 63 22.6
L 62.95 22.6
Q 62.95 22.4 62.2 22.75 62 22.85 61.75 22.95 61.45 23.15 61.15 23.35 60.15 23.95 59.15 24.8 57.95 25.8 57.1 26.85 55.8 28.5 55.45 30.15 55.4 30.3 55.4 30.45 55.7 30.75 56.05 31.2 56.3 31.35 57.75 31.7 58.05 31.9 59 32 59.85 32.15 60.45 32.15 63 32.15 65.6 29.5 67.25 27.8 68 25.8 68 25.4 67.9 25.15 67.75 24.25 67.15 23.7
M 93.75 18.35
Q 96.05 19 97.35 20.75 99.1 23.1 99.1 27.6 100.4 25.7 101.1 23.65 101.3 23 101.45 22.35 100.75 16.3 97.85 12.55 94.65 8.45 89.35 7.95 91.45 10.15 91.75 11.65 91.85 12.25 91.7 13.4 91.5 14.5 91.65 15.25 91.8 15.95 92.6 16.6 93.45 17.35 93.5 17.5 93.6 17.65 93.75 18.35 Z"/>

<path fill="#FEFE80" stroke="none" d="
M 82.6 54.1
Q 82.45 53.25 81.95 52.1 80.85 52.05 79.4 51.95 80.25 53.1 80.7 55.9 81.15 58.75 81.15 62.25 81.15 65.95 79.95 70.1 79.05 73.15 78.15 74.4 80 74.5 81.8 74.3 81.7 72.7 81.65 71.9 81.65 71.55 81.65 71.4 81.65 69.9 82.15 64.3 82.65 58.7 82.65 57 82.65 54.6 82.6 54.1 Z"/>

<path fill="#F99420" stroke="none" d="
M 100.05 29.1
Q 99.35 28.1 99.2 27.95
L 99.1 27.9
Q 99.05 27.9 98.95 27.85 97.2 30.3 94.45 32.35 96 32.55 97.5 32.85 98.85 33.05 100.1 33.35 100.25 33.05 100.3 32.8 100.35 32.55 100.35 31.25 100.35 29.5 100.05 29.1 Z"/>
</g>
</defs>

<g transform="matrix( 1.289794921875, 0, 0, 1.289794921875, 7.9,5) ">
<g transform="matrix( 1, 0, 0, 1, 0,0) ">
<use xlink:href="#_____1_0_Layer1_0_FILL"/>
</g>

<g transform="matrix( 1, 0, 0, 1, 0,0) ">
<use xlink:href="#_____1_0_Layer0_0_FILL"/>
</g>
</g>

<g transform="matrix( 1, 0, 0, 1, 31.7,25.8) ">
<g transform="matrix( 1, 0, 0, 1, 0,0) ">
<use xlink:href="#_______2_0_Layer0_0_FILL"/>
</g>
</g>
</svg>
