
<svg xmlns="http://www.w3.org/2000/svg" version="1.1" xmlns:xlink="http://www.w3.org/1999/xlink" preserveAspectRatio="none" x="0px" y="0px" width="190px" height="190px" viewBox="0 0 190 190">
<defs>
<g id="_____1_0_Layer1_0_FILL">
<path fill="#000000" fill-opacity="0.2980392156862745" stroke="none" d="
M 125.55 -2.1
L 10.1 -2.1
Q 3.8 -2.1 0.25 0.7 -4.25 4.2 -4.25 12.25
L -4.25 127.5
Q -4.25 141.85 10.1 141.85
L 125.55 141.85
Q 132.4 141.85 136 138.6 139.95 135.05 139.95 127.5
L 139.95 12.25
Q 139.95 -2.1 125.55 -2.1 Z"/>
</g>

<g id="_____1_0_Layer0_0_FILL">
<path fill="#999999" stroke="none" d="
M 4.2 2.6
Q 0 5.9580078125 0 13.5
L 0 122.1
Q 0 135.6 13.5 135.6
L 122.05 135.6
Q 128.4978515625 135.6 131.85 132.55
L 123.05 123.55
Q 120.14140625 126.25 114.55 126.25
L 20.95 126.25
Q 9.3 126.25 9.3 114.65
L 9.3 21.05
Q 9.3 14.4615234375 13.05 11.6
L 4.2 2.6 Z"/>

<path fill="#321919" stroke="none" d="
M 126.15 21.05
Q 126.15 9.45 114.55 9.45
L 20.95 9.45
Q 15.9169921875 9.45 13.05 11.6 9.3 14.4615234375 9.3 21.05
L 9.3 114.65
Q 9.3 126.25 20.95 126.25
L 114.55 126.25
Q 120.14140625 126.25 123.05 123.55 126.15 120.65859375 126.15 114.65
L 126.15 21.05
M 122.85 25.2
L 122.85 50.45 122.85 113.45
Q 122.85 118.3919921875 120.65 121.1 117.93046875 124.45 111.9 124.45
L 23.6 124.45
Q 12.65 124.45 12.65 113.5
L 12.65 87.4 12.65 25.2
Q 12.65 18.2478515625 17.05 15.7 19.6021484375 14.25 23.6 14.25
L 111.9 14.25
Q 122.85 14.25 122.85 25.2 Z"/>

<path fill="#623F35" stroke="none" d="
M 60.3 59.7
Q 35.8431640625 69.06015625 12.65 87.4
L 12.65 113.5
Q 12.65 124.45 23.6 124.45
L 111.9 124.45
Q 117.93046875 124.45 120.65 121.1 122.85 118.3919921875 122.85 113.45
L 122.85 50.45
Q 90.6005859375 48.2115234375 60.3 59.7 Z"/>

<path fill="#734A3F" stroke="none" d="
M 122.85 50.45
L 122.85 25.2
Q 122.85 14.25 111.9 14.25
L 23.6 14.25
Q 19.6021484375 14.25 17.05 15.7 12.65 18.2478515625 12.65 25.2
L 12.65 87.4
Q 35.8431640625 69.06015625 60.3 59.7 90.6005859375 48.2115234375 122.85 50.45 Z"/>

<path fill="#FFFFFF" stroke="none" d="
M 135.6 13.5
Q 135.6 0 122.05 0
L 13.5 0
Q 7.5419921875 0 4.2 2.6
L 13.05 11.6
Q 15.9169921875 9.45 20.95 9.45
L 114.55 9.45
Q 126.15 9.45 126.15 21.05
L 126.15 114.65
Q 126.15 120.65859375 123.05 123.55
L 131.85 132.55
Q 135.6 129.1759765625 135.6 122.1
L 135.6 13.5 Z"/>
</g>

<g id="_______________0_Layer2_0_FILL">
<path fill="#BF8E49" stroke="none" d="
M 83.1 124.95
L 84.15 123.55 102.7 122.1 82.4 121.7 81.5 124.95 80.6 128.45 83.1 124.95
M 94.75 115.85
L 85.6 114.15 90.2 117.25 94.75 115.85
M 117 121.8
L 114.8 119 110.85 113.95 113.35 119.05 114.75 121.9 111.7 125 109.85 126.9 112.5 125 117 121.8
M 102.55 115.45
L 102.55 119.55 105.05 115.45 102.55 115.45
M 123.95 116.5
Q 123.45 115.35 122.7 114.25
L 115.65 116.1 123.95 116.5
M 35.3 124.85
L 37.75 129.15
Q 39.2 129.05 40.6 129
L 36.35 124.85 34.2 122.8 35.3 124.85
M 16.2 121.6
L 17.2 123.65 20.45 121.6 16.2 121.6
M 27.1 118.2
L 26.8 116.3 15.15 114.65 20.6 117.7 25.15 120.3 27.05 124.85 28.45 128.15 27.95 124.85 27.1 118.2
M 45.4 128.8
L 43 124.9 43.75 128.85
Q 44.6 128.8 45.4 128.8
M 49.65 124.9
L 48.95 126.55 50.75 124.9 52.55 123.2 61.15 121.45 51.15 121.45 49.65 124.9
M 55.7 117.15
L 45.1 119.3 39.05 120.5 48.65 119.45 75.2 117.15 55.7 117.15
M 107.9 120.5
L 105.15 121.8 112.35 121.8 107.9 120.5
M 16.35 2.35
L 17 4.9 18.25 10 18.25 5 18.25 3.3 22.85 3.3 16.35 2.35
M 21.45 6.25
L 21.05 5.2 19.6 6.25 21.45 6.25
M 71.55 10.2
L 73.2 8.1 69.7 10.15 55.25 9.45 59.3 10.1 70.1 11.95 71.55 10.2
M 83.45 10.55
L 81.3 11.7 86.9 10.75 86.25 9 83.45 10.55
M 16.3 12.4
L 17.45 13.35 22.2 12.8 16.3 12.4
M 112.9 10.3
Q 112.55 10.95 112.45 11.3 111.9 12.5 113.4 11.1 113.7 10.8 114.15 10.3
L 114.85 6.55 112.9 10.3
M 111.9 3.7
L 115.55 2.15 110.85 2.6 110.85 3.9 110.85 10.55 111.9 3.7
M 24.65 10.1
L 26.85 9.3 25.05 8.55 24.65 10.1
M 24 6.6
L 21.45 7.5 21.45 9 24 9 24 6.6
M 63.7 7.65
L 66.7 8.8 69.6 7.65 63.7 7.65
M 112.25 6.55
L 113.55 6.55 114.25 4.1 112.25 6.55 Z"/>

<path fill="#C29A61" stroke="none" d="
M 112.5 125
L 109.85 126.9 111.7 125 83.1 124.95 80.6 128.45
Q 100.65 129 120.85 131.1 123.35 128 124.35 125.05
L 112.5 125
M 10.45 124.8
Q 11.35 127.85 13.75 131.1 25.45 129.85 37.15 129.2 37.45 129.15 37.75 129.15
L 35.3 124.85 27.95 124.85 28.45 128.15 27.05 124.85 10.45 124.8
M 48.95 126.55
L 49.65 124.9 36.35 124.85 40.6 129
Q 41.9 128.95 43.25 128.85 43.5 128.85 43.75 128.85
L 43 124.9 45.4 128.8
Q 63 128 80.6 128.45
L 81.5 124.95 50.75 124.9 48.95 126.55
M 113.4 11.1
Q 111.9 12.5 112.45 11.3 107.3 12.2 101.2 11.65 94.05 11.1 86.9 10.75
L 81.3 11.7 83.45 10.55
Q 77.5 10.3 71.55 10.2
L 70.1 11.95 59.3 10.1
Q 41.3 10.2 23.25 11.65 18 12 13.9 9.45 14.1 11.3 14.5 13.2 14.85 16.7 18.95 16.65 19.7 16.65 20.65 16.45
L 25.45 12.55 31 15.9
Q 39.95 15.5 48.95 15.2
L 51.7 11.6 51.25 15.15
Q 82.9 14.15 114.3 14.65 115.8 14.7 117.25 14.7 118.7 14.95 119.2 13.9 119.3 13.5 119.4 13.1 119.9 11.05 120.05 8.85 117 10.35 113.4 11.1
M 17.45 13.35
L 16.3 12.4 22.2 12.8 17.45 13.35 Z"/>

<path fill="#D0AD6E" stroke="none" d="
M 113.1 101.25
Q 113.05 100.25 113 99.3
L 105.35 100.9 113.1 101.25
M 19.75 104.3
Q 19.65 105.25 19.55 106.2
L 29.8 105.7 19.75 104.3
M 42.95 96.15
L 42.95 94.15 31.3 96.15 42.95 96.15
M 35.6 98
Q 35.55 97.95 35.45 98
L 35.45 101.95 36.8 97.95
Q 36.6 97.95 36.4 97.95 36.05 97.95 35.65 98
L 35.6 98
M 25 91
L 26.8 96.15 27.6 96.15 25 91
M 24.95 51.65
L 24.95 61.6 24.95 66.35 26.2 60.05 24.95 51.65
M 23.15 42.9
L 23.15 44.75 38.65 45.05
Q 38.75 44.85 38.95 44.7
L 23.15 42.9
M 24.35 35.5
L 20.6 36.35
Q 20.65 36.8 20.7 37.3
L 24.35 35.5
M 111.1 96.15
L 107.1 96.15 107.2 87.45 106 96.15 104.5 96.15 99.15 97.65 111.1 96.15
M 107.85 78.4
L 110.1 85.85
Q 110.1 84.9 110.1 84
L 107.85 78.4
M 110.7 68
Q 110.7 67.15 110.75 66.35
L 93.35 70.2 110.7 68
M 110.55 71.6
Q 110.6 70.8 110.65 69.95
L 105.7 69.95 110.55 71.6
M 111.25 56.85
Q 111.3 55.7 111.35 54.55
L 108.6 54.55 108.6 58.4 111.25 56.85
M 111.9 46.3
Q 111.9 45.35 111.95 44.45
L 106.3 36 110.85 44.45 111.9 46.3
M 112.3 39.5
Q 112.35 39 112.4 38.45
L 109.6 37.2 112.3 39.5
M 109.1 49.1
L 109.3 44.45 106.7 40.65 107.75 44.45 109.1 49.1
M 112.9 31.6
Q 112.95 31.25 112.95 30.85
L 110.55 28.95 112.9 31.6
M 97.35 22.7
L 91.35 21 80.4 17.75 78.4 18.5 74.05 21.85 80.9 19.45 89.4 21.1 97.35 22.7
M 86.9 22.75
L 82.5 21.85 81.9 23.4 86.9 22.75
M 101.9 107.55
L 102.75 102.1 99.25 105.3 85.05 107.55 101.9 107.55
M 37.35 105.7
L 29 100.5 36.7 108 47.85 106.95 37.35 105.7
M 78.6 106.5
L 78.6 109.8 81.75 109.8 78.6 106.5
M 72.35 108.25
L 66.25 106.25 56.95 108.25 72.35 108.25
M 66.55 96.15
L 66.65 91.35 64.75 93.9 66.4 96.15 66.55 96.15
M 65.1 83.75
L 74.55 85.15 76.1 81.3 65.1 83.75
M 68.1 68.35
L 67.05 71.35 71.75 69.6 71.4 67.2 68.1 68.35
M 65.9 67.65
L 66.15 57.7 64.25 66.15 57.2 71.4 65.9 67.65
M 37.85 68.45
L 37.3 69.8 40.5 69.3 42.2 70.8 41.75 69.05 45.35 68.45 37.85 68.45
M 26.5 69.3
L 24.55 68.7 24.55 72.25 28.55 70.8 26.5 69.3
M 29.75 68.65
L 29.75 69.6 35.6 69.6 29.75 68.65
M 65.65 39.85
L 64.9 48.15 66.55 48.15 65.65 39.85
M 66 35.75
L 65.65 39.7 68.55 43.35 66 35.75
M 106.75 28.2
L 107.95 25.9 106.75 24.7 106.75 28.2
M 106.6 22.05
L 109.75 23.6 108.45 28.75 112.1 22.05 106.6 22.05
M 104.9 23.5
L 103.5 22.35 102.65 23.5 104.9 23.5
M 23.9 24.9
L 25.45 26 25.7 24.4 23.9 24.9
M 21 27.4
Q 22.05 28.75 23.75 28.95 24.95 29.1 26.45 28.7
L 21 27.4
M 35.2 23.4
L 27.65 23.85 28 25.15 35.2 23.4
M 51.05 21.9
L 50.95 20.65 66.55 18.85 22.35 20.35 24.95 21.9 51.05 21.9
M 63.8 23.35
Q 66.2 23.9 68.7 22.5
L 61.6 22.5
Q 62.7 23.1 63.8 23.35 Z"/>

<path fill="#381D13" stroke="none" d="
M 132.8 119.7
Q 132.7 118.8 132.25 117.8
L 127.9 119.05 132.8 119.7
M 125 121.5
Q 125 122.1 124.9 122.7
L 120.3 124.15 124.45 124.8
Q 124.4 124.9 124.35 125.05
L 131 125.65
Q 132.85 123.1 132.85 120.6
L 125 121.5
M 0.5 117.7
Q 0.4 118.05 0.3 118.35
L 5.6 118.4 0.5 117.7
M 0 120.35
Q 0 121.1 0.1 121.9
L 7.9 121.9 0.3 122.8
Q 0.65 124.25 1.5 125.65
L 10.45 124.8
Q 10.15 124 10 123.2
L 14.6 122.05 9.85 121.1 0 120.35
M 13.95 3.85
Q 13.85 3.2 13.85 2.7 13.45 9.15 9.35 9.6 10.85 12.4 14.5 13.2 14.1 11.3 13.9 9.45 13.7 7.05 13.9 4.75
L 15.45 4.75 13.95 3.85
M 120.05 5.6
Q 120.15 7.25 120.05 8.85 119.9 11.05 119.4 13.1 122.7 12.25 124.05 9.6 121.05 9.3 120.05 5.6 Z"/>

<path fill="#713B2A" stroke="none" d="
M 124.6 118.35
Q 125.05 119.9 125 121.5
L 132.85 120.6
Q 132.85 120.2 132.8 119.7
L 127.9 119.05 132.25 117.8
Q 131.8 116.7 131 115.65
L 123.95 116.5
Q 124.4 117.45 124.6 118.35
M 0.3 118.35
Q 0.05 119.35 0 120.35
L 9.85 121.1
Q 9.85 120.25 9.95 119.35
L 12 118.6 10.3 117.8
Q 10.45 117.35 10.6 116.8
L 1.5 115.65
Q 0.9 116.65 0.5 117.7
L 5.6 118.4 0.3 118.35
M 13.85 2.7
Q 13.85 2.3 13.95 1.95 11.25 2.05 9.35 4.45
L 9.35 5.05 9.35 9.6
Q 13.45 9.15 13.85 2.7
M 124.05 5.05
L 124.05 4.45
Q 122.15 2.05 119.45 1.85 119.8 2.65 119.85 3.8 120 4.7 120.05 5.6 121.05 9.3 124.05 9.6
L 124.05 5.05 Z"/>

<path fill="#DCAE6E" stroke="none" d="
M 124.9 122.7
Q 125 122.1 125 121.5 125.05 119.9 124.6 118.35 119.7 118.7 114.8 119
L 117 121.8 112.5 125 124.35 125.05
Q 124.4 124.9 124.45 124.8
L 120.3 124.15 124.9 122.7
M 25.15 120.3
L 20.6 117.7
Q 20 117.65 19.4 117.6 15 117.25 10.6 116.8 10.45 117.35 10.3 117.8
L 12 118.6 9.95 119.35
Q 9.85 120.25 9.85 121.1
L 14.6 122.05 10 123.2
Q 10.15 124 10.45 124.8
L 27.05 124.85 25.15 120.3
M 17.2 123.65
L 16.2 121.6 20.45 121.6 17.2 123.65
M 54.8 119.65
Q 51.7 119.55 48.65 119.45
L 39.05 120.5 45.1 119.3
Q 42.7 119.2 40.35 119.05 33.7 118.7 27.1 118.2
L 27.95 124.85 35.3 124.85 34.2 122.8 36.35 124.85 49.65 124.9 51.15 121.45 61.15 121.45 52.55 123.2 50.75 124.9 81.5 124.95 82.4 121.7 102.7 122.1 84.15 123.55 83.1 124.95 111.7 125 114.75 121.9 113.35 119.05
Q 112.55 119.1 111.85 119.15 111.25 119.15 110.65 119.2 106.6 119.4 102.55 119.55 96.35 119.75 90.2 119.85 87.55 119.9 84.9 120 69.85 120.15 54.8 119.65
M 105.15 121.8
L 107.9 120.5 112.35 121.8 105.15 121.8
M 119.85 3.8
Q 119.8 2.65 119.45 1.85 115.55 3 111.9 3.7
L 110.85 10.55 110.85 3.9
Q 106.55 4.6 102.45 4.75 61.95 7.7 21.05 5.2
L 21.45 6.25 19.6 6.25 21.05 5.2
Q 19.6 5.1 18.25 5
L 18.25 10 17 4.9
Q 16.2 4.8 15.45 4.75
L 13.9 4.75
Q 13.7 7.05 13.9 9.45 18 12 23.25 11.65 41.3 10.2 59.3 10.1
L 55.25 9.45 69.7 10.15 73.2 8.1 71.55 10.2
Q 77.5 10.3 83.45 10.55
L 86.25 9 86.9 10.75
Q 94.05 11.1 101.2 11.65 107.3 12.2 112.45 11.3 112.55 10.95 112.9 10.3
L 114.85 6.55 114.15 10.3
Q 113.7 10.8 113.4 11.1 117 10.35 120.05 8.85 120.15 7.25 120.05 5.6 120 4.7 119.85 3.8
M 113.55 6.55
L 112.25 6.55 114.25 4.1 113.55 6.55
M 66.7 8.8
L 63.7 7.65 69.6 7.65 66.7 8.8
M 21.45 7.5
L 24 6.6 24 9 21.45 9 21.45 7.5
M 26.85 9.3
L 24.65 10.1 25.05 8.55 26.85 9.3 Z"/>

<path fill="#A17F50" stroke="none" d="
M 19.25 109.7
Q 19.15 111 19 112.35 52.55 115.2 85.6 114.15 99.9 113.65 114.1 112.45 113.9 110.65 113.75 108.8 66.85 113.55 19.25 109.7
M 114.05 17.9
Q 114.2 16.3 114.3 14.65 82.9 14.15 51.25 15.15
L 51.7 11.6 48.95 15.2
Q 39.95 15.5 31 15.9
L 25.45 12.55 20.65 16.45
Q 19.7 16.65 18.95 16.65 19 17.35 19.05 18.1
L 21.3 18.1 25.6 14.1 31.7 17.55
Q 76.8 14.9 114.05 17.9 Z"/>

<path fill="#FBE6B0" stroke="none" d="
M 48.65 119.45
Q 51.7 119.55 54.8 119.65 69.85 120.15 84.9 120 87.55 119.9 90.2 119.85 96.35 119.75 102.55 119.55
L 102.55 115.45 105.05 115.45 102.55 119.55
Q 106.6 119.4 110.65 119.2 111.25 119.15 111.85 119.15 112.55 119.1 113.35 119.05
L 110.85 113.95 114.8 119
Q 119.7 118.7 124.6 118.35 124.4 117.45 123.95 116.5
L 115.65 116.1 122.7 114.25
Q 122.3 113.65 121.9 113.15 121.4 112.5 120.85 111.9 117.45 112.2 114.1 112.45 99.9 113.65 85.6 114.15
L 94.75 115.85 90.2 117.25 85.6 114.15
Q 52.55 115.2 19 112.35 16.4 112.1 13.75 111.9 11.6 114.3 10.6 116.8 15 117.25 19.4 117.6 20 117.65 20.6 117.7
L 15.15 114.65 26.8 116.3 27.1 118.2
Q 33.7 118.7 40.35 119.05 42.7 119.2 45.1 119.3
L 55.7 117.15 75.2 117.15 48.65 119.45
M 119.45 1.85
Q 118.65 0.15 116.5 0.35 98.4 1.95 80.3 2.35 48.75 3.65 17.15 0.1 14.25 -0.45 13.95 1.95 13.85 2.3 13.85 2.7 13.85 3.2 13.95 3.85
L 15.45 4.75
Q 16.2 4.8 17 4.9
L 16.35 2.35 22.85 3.3 18.25 3.3 18.25 5
Q 19.6 5.1 21.05 5.2 61.95 7.7 102.45 4.75 106.55 4.6 110.85 3.9
L 110.85 2.6 115.55 2.15 111.9 3.7
Q 115.55 3 119.45 1.85 Z"/>

<path fill="#E8CF92" stroke="none" d="
M 27.6 96.15
L 26.8 96.15 20.4 96.15
Q 20.3 96.85 20.25 97.5 21.65 97.6 23.05 97.65 23.15 97.65 23.3 97.7 25.4 97.75 27.4 97.85 30.8 97.95 34.05 98 34.75 98 35.45 98 35.55 97.95 35.6 98
L 35.65 98
Q 36.05 97.95 36.4 97.95 36.6 97.95 36.8 97.95 39.35 97.95 41.8 97.85 47.65 97.65 52.85 97.05 56.05 96.7 59.05 96.15
L 42.95 96.15 31.3 96.15 27.6 96.15
M 109.3 44.45
L 109.1 49.1 107.75 44.45 106.4 44.45
Q 98.8 47.75 93.7 54.6 93.3 55.05 93 55.55 88.7 61.7 85.7 71.1 82.95 80 80.75 93.75 80.6 94.85 80.4 96.15
L 104.5 96.15 106 96.15 107.2 87.45 107.1 96.15 111.1 96.15 112.75 96.15
Q 109.95 91 110.1 85.85
L 107.85 78.4 110.4 76.05
Q 110.4 75.3 110.45 74.5 110.5 73.05 110.55 71.6
L 105.7 69.95 110.65 69.95
Q 110.7 69 110.7 68
L 93.35 70.2 110.75 66.35
Q 111 61.55 111.25 56.85
L 108.6 58.4 108.6 54.55 111.35 54.55
Q 111.6 50.45 111.9 46.3
L 110.85 44.45 109.3 44.45
M 113.45 20.8
Q 113.65 20.8 113.75 20.9 113.85 19.8 113.95 18.7 114 18.3 114.05 17.9 76.8 14.9 31.7 17.55
L 25.6 14.1 21.3 18.1 19.05 18.1
Q 19.8 25.8 20.4 33.55
L 24.35 35.5 20.7 37.3
Q 21.65 51.05 22.3 64.85 23.15 63.85 24 62.75 24.2 62.55 24.35 62.35 24.65 62 24.95 61.6
L 24.95 51.65 26.2 60.05
Q 31.05 54 33.55 50.95 36.3 47.7 38.65 45.05
L 23.15 44.75 23.15 42.9 38.95 44.7
Q 40.9 42.55 42.6 40.85 47.65 35.85 52.85 32.35 58.75 28.45 65.7 25.9 66 25.8 66.3 25.7 73.6 23.1 82.5 21.85 83.15 21.75 83.85 21.7 86.5 21.35 89.4 21.1
L 80.9 19.45 74.05 21.85 78.4 18.5 80.4 17.75 91.35 21
Q 96.2 20.6 101.6 20.6 107.2 20.55 113.45 20.8
M 68.7 22.5
Q 66.2 23.9 63.8 23.35 62.7 23.1 61.6 22.5
L 68.7 22.5
M 50.95 20.65
L 51.05 21.9 24.95 21.9 22.35 20.35 66.55 18.85 50.95 20.65
M 27.65 23.85
L 35.2 23.4 28 25.15 27.65 23.85
M 23.75 28.95
Q 22.05 28.75 21 27.4
L 26.45 28.7
Q 24.95 29.1 23.75 28.95
M 25.45 26
L 23.9 24.9 25.7 24.4 25.45 26 Z"/>

<path fill="#B05119" stroke="none" d="
M 3.8 8.35
Q 4.1 9.25 4.95 10.05 7.55 9 9.35 9.6
L 9.35 5.05
Q 8.15 8.45 3.8 8.35
M 6.95 4.3
L 6.95 5.45
Q 7.1 6 7.8 6.1 8.45 6.05 8.8 5.45
L 8.9 4.35
Q 8.75 4.35 8.65 4.35 8.55 4.35 8.45 4.35 7.85 4.25 7.25 4.3 7.1 4.3 6.95 4.3
M 128.5 10.05
Q 129.3 9.25 129.7 8.35 125.3 8.45 124.05 5.05
L 124.05 9.6
Q 125.9 9 128.5 10.05
M 127 5.45
L 127 4.35
Q 126.05 4.25 125.05 4.35
L 125.1 5.45
Q 125.55 6.05 126.15 6.1 126.85 6 127 5.45 Z"/>

<path fill="#FAB43D" stroke="none" d="
M 6.95 5.45
L 6.95 4.3
Q 5.4 4.4 4 5.05 3.15 6.85 3.8 8.35 8.15 8.45 9.35 5.05
L 9.35 4.45
Q 9.15 4.4 8.9 4.35
L 8.8 5.45
Q 8.45 6.05 7.8 6.1 7.1 6 6.95 5.45
M 127 4.35
L 127 5.45
Q 126.85 6 126.15 6.1 125.55 6.05 125.1 5.45
L 125.05 4.35
Q 124.5 4.35 124.05 4.45
L 124.05 5.05
Q 125.3 8.45 129.7 8.35 130.3 6.85 129.4 5.05 128.25 4.5 127 4.35 Z"/>

<path fill="#FBE8A9" stroke="none" d="
M 113.75 20.9
Q 113.65 20.8 113.45 20.8 107.2 20.55 101.6 20.6 96.2 20.6 91.35 21
L 97.35 22.7 89.4 21.1
Q 86.5 21.35 83.85 21.7 83.15 21.75 82.5 21.85
L 86.9 22.75 81.9 23.4 82.5 21.85
Q 73.6 23.1 66.3 25.7 66 25.8 65.7 25.9 58.75 28.45 52.85 32.35 47.65 35.85 42.6 40.85 40.9 42.55 38.95 44.7 38.75 44.85 38.65 45.05 36.3 47.7 33.55 50.95 31.05 54 26.2 60.05
L 24.95 66.35 24.95 61.6
Q 24.65 62 24.35 62.35 24.2 62.55 24 62.75 23.15 63.85 22.3 64.85 23.05 80.45 20.4 96.15
L 26.8 96.15 25 91 27.6 96.15 31.3 96.15 42.95 94.15 42.95 96.15 59.05 96.15
Q 56.05 96.7 52.85 97.05 47.65 97.65 41.8 97.85 39.35 97.95 36.8 97.95
L 35.45 101.95 35.45 98
Q 34.75 98 34.05 98 30.8 97.95 27.4 97.85 25.4 97.75 23.3 97.7 23.15 97.65 23.05 97.65 21.65 97.6 20.25 97.5 20.2 98.4 20.15 99.25 19.95 101.8 19.75 104.3
L 29.8 105.7 19.55 106.2
Q 19.45 107.95 19.25 109.7 66.85 113.55 113.75 108.8 113.45 105 113.1 101.25
L 105.35 100.9 113 99.3 113 99.25
Q 112.85 97.7 112.75 96.15
L 111.1 96.15 99.15 97.65 104.5 96.15 80.4 96.15
Q 80.6 94.85 80.75 93.75 82.95 80 85.7 71.1 88.7 61.7 93 55.55 93.3 55.05 93.7 54.6 98.8 47.75 106.4 44.45
L 107.75 44.45 106.7 40.65 109.3 44.45 110.85 44.45 106.3 36 111.95 44.45
Q 112.15 42 112.3 39.5
L 109.6 37.2 112.55 35.95
Q 112.7 33.75 112.9 31.6
L 110.55 28.95 113.2 27.5
Q 113.35 26.05 113.45 24.6 113.65 22.75 113.75 20.9
M 103.5 22.35
L 104.9 23.5 102.65 23.5 103.5 22.35
M 109.75 23.6
L 106.6 22.05 112.1 22.05 108.45 28.75 109.75 23.6
M 107.95 25.9
L 106.75 28.2 106.75 24.7 107.95 25.9
M 65.65 39.7
L 66 35.75 68.55 43.35 65.65 39.7
M 64.9 48.15
L 65.65 39.85 66.55 48.15 64.9 48.15
M 29.75 69.6
L 29.75 68.65 35.6 69.6 29.75 69.6
M 24.55 68.7
L 26.5 69.3 28.55 70.8 24.55 72.25 24.55 68.7
M 37.3 69.8
L 37.85 68.45 45.35 68.45 41.75 69.05 42.2 70.8 40.5 69.3 37.3 69.8
M 66.15 57.7
L 65.9 67.65 57.2 71.4 64.25 66.15 66.15 57.7
M 67.05 71.35
L 68.1 68.35 71.4 67.2 71.75 69.6 67.05 71.35
M 74.55 85.15
L 65.1 83.75 76.1 81.3 74.55 85.15
M 66.65 91.35
L 66.55 96.15 66.4 96.15 64.75 93.9 66.65 91.35
M 66.25 106.25
L 72.35 108.25 56.95 108.25 66.25 106.25
M 78.6 109.8
L 78.6 106.5 81.75 109.8 78.6 109.8
M 29 100.5
L 37.35 105.7 47.85 106.95 36.7 108 29 100.5
M 102.75 102.1
L 101.9 107.55 85.05 107.55 99.25 105.3 102.75 102.1 Z"/>
</g>

<g id="_______________0_Layer0_0_FILL">
<path fill="#846841" stroke="none" d="
M 34.5 85.2
Q 33.35 85.2 32.85 85.5 32.25 85.85 32 86.65 31.85 87.15 31.75 88.05 31.7 88.3 31.7 88.55 31.7 90.55 31.95 93.05
L 32.1 94.75
Q 32.15 95.05 32.2 95.3 32.25 95.9 32.4 96.2 32.75 97.05 33.6 97.35 34.1 97.55 35.3 97.55
L 42.05 97.55 43.75 97.4
Q 44.7 97.15 45.15 96.55 45.75 95.85 45.75 94
L 45.9 90.55
Q 45.945703125 89.6828125 45.95 88.9 46.05 88.8234375 46.05 88.65 45.9890625 88.4974609375 45.95 88.35 45.91953125 88.30859375 45.9 88.25
L 45.85 87.95 45.85 87.2
Q 45.85 86.81875 45.8 86.6 45.820703125 86.49140625 45.8 86.45 45.7896484375 86.4087890625 45.75 86.35 45.73046875 86.2548828125 45.65 86.15 45.5169921875 85.9658203125 45.3 85.8 45.2029296875 85.71875 45.1 85.65 44.74921875 85.34296875 44.4 85.25 44.34921875 85.2560546875 44.3 85.25 44.0416015625 85.20703125 43.6 85.2
L 34.5 85.2
M 33.05 86.35
Q 33.45 86 34.5 86
L 43.7 86 44.15 86.05 44.5 86.2 45 86.65 45.05 86.7 45.05 86.9
Q 45.05 87.548046875 45.05 87.95 45.0740234375 88.369921875 45.1 88.5 45.1375 88.5998046875 45.15 88.65
L 44.95 94.45
Q 44.95 95.35 44.65 95.85 44.3 96.45 43.5 96.6 43.05 96.75 42.15 96.75
L 35.25 96.75
Q 33.85 96.75 33.4 96.25 33.35 96.25 33.35 96.2 33.05 95.9 33 95.4 32.95 95.3 32.95 95.15 32.95 94.3 32.9 93.9
L 32.8 92.95
Q 32.35 90.4 32.6 87.6 32.6 87.4 32.65 87.25 32.75 86.65 33.05 86.35
M 32.85 66.5
Q 32.25 66.85 32 67.65 31.85 68.15 31.75 69.05 31.7 69.3 31.7 69.55 31.7 71.55 31.95 74.05
L 32.1 75.75
Q 32.15 76.05 32.2 76.3 32.25 76.9 32.4 77.2 32.75 78.05 33.6 78.35 34.1 78.55 35.3 78.55
L 42.05 78.55 43.75 78.4
Q 44.7 78.15 45.15 77.55 45.75 76.85 45.75 75
L 45.9 71.55
Q 46 69.65 45.9 68.3 47.4 67.1 47.95 66.35 48.15 66.05 48.1 65.85 48 65.55 47.45 65.55 45.95 65.6 44.2 66.35 44.1 66.3 44.05 66.3 43.9 66.2 43.55 66.2
L 34.5 66.2
Q 33.35 66.2 32.85 66.5
M 33.05 67.35
Q 33.45 67 34.5 67
L 42.85 67
Q 42.45 67.25 41.95 67.6 40.9 68.3 39.35 69.55 38.85 69.95 38.45 70.3 37.05 71.45 36.5 72.15 36.2 71.55 35.55 70.85 35.15 70.45 34.9 70.35 34.7 70.25 33.95 70.35
L 33.9 70.35
Q 33.35 70.45 33 70.7 32.85 70.85 32.75 71.55 32.75 72.1 32.9 72.55 32.95 72.8 33.35 73.55 34.55 75.3 35.2 75.75 36.3 76.65 37.25 76.05 37.4 76 38 75.25 38.85 74.1 40.7 72.5 41.9 71.5 42.8 70.75 43.4 70.25 43.9 69.85 44.45 69.4 44.9 69.05 45.05 68.95 45.2 68.85
L 44.95 75.45
Q 44.95 76.35 44.65 76.85 44.3 77.45 43.5 77.6 43.05 77.75 42.15 77.75
L 35.25 77.75
Q 33.85 77.75 33.4 77.25 33.35 77.25 33.35 77.2 33.05 76.9 33 76.4 32.95 76.3 32.95 76.15 32.95 75.3 32.9 74.9
L 32.8 73.95
Q 32.35 71.4 32.6 68.6 32.6 68.4 32.65 68.25 32.75 67.65 33.05 67.35
M 34.35 73.5
Q 33.8 72.75 33.7 72.45 33.45 71.85 33.65 71.25 33.95 71 34.3 71.05 34.65 71.1 35.1 71.55 35.65 72.45 36 72.85 36.15 73.1 36.45 73.15 36.8 73.2 37.25 72.55 37.8 71.8 39.2 70.7
L 40.3 69.85 40.35 69.8
Q 41.95 68.45 43.35 67.65 43.4 67.6 43.45 67.6 43.65 67.5 43.85 67.4 45.4 66.6 46.8 66.45 46.7 66.6 46.55 66.8 46.25 67.05 45.8 67.35 45.65 67.45 45.55 67.55 45.4 67.65 45.25 67.75 44.65 68.2 43.95 68.8 42.3 70.05 40.1 72 38 73.8 37.2 74.9 36.95 75.35 36.7 75.45 36.5 75.5 36.1 75.4 35.85 75.3 35.6 75.1 35.35 74.9 35.1 74.6 35 74.5 34.35 73.5
M 44.2 47.35
Q 44.1 47.3 44.05 47.3 43.9 47.2 43.55 47.2
L 34.5 47.2
Q 33.35 47.2 32.85 47.5 32.25 47.85 32 48.65 31.85 49.15 31.75 50.05 31.7 50.3 31.7 50.55 31.7 52.55 31.95 55.05
L 32.1 56.75
Q 32.15 57.05 32.2 57.3 32.25 57.9 32.4 58.2 32.75 59.05 33.6 59.35 34.1 59.55 35.3 59.55
L 42.05 59.55 43.75 59.4
Q 44.7 59.15 45.15 58.55 45.75 57.85 45.75 56
L 45.9 52.55
Q 46 50.65 45.9 49.3 47.4 48.1 47.95 47.35 48.15 47.05 48.1 46.85 48 46.55 47.45 46.55 45.95 46.6 44.2 47.35
M 45.55 48.55
Q 45.4 48.65 45.25 48.75 44.65 49.2 43.95 49.8 42.3 51.05 40.1 53 38 54.8 37.2 55.9 36.95 56.35 36.7 56.45 36.5 56.5 36.1 56.4 35.85 56.3 35.6 56.1 35.35 55.9 35.1 55.6 35 55.5 34.35 54.5 33.8 53.75 33.7 53.45 33.45 52.85 33.65 52.25 33.95 52 34.3 52.05 34.65 52.1 35.1 52.55 35.65 53.45 36 53.85 36.15 54.1 36.45 54.15 36.8 54.2 37.25 53.55 37.8 52.8 39.2 51.7
L 40.3 50.85 40.35 50.8
Q 41.95 49.45 43.35 48.65 43.4 48.6 43.45 48.6 43.65 48.5 43.85 48.4 45.4 47.6 46.8 47.45 46.7 47.6 46.55 47.8 46.25 48.05 45.8 48.35 45.65 48.45 45.55 48.55
M 42.85 48
Q 42.45 48.25 41.95 48.6 40.9 49.3 39.35 50.55 38.85 50.95 38.45 51.3 37.05 52.45 36.5 53.15 36.2 52.55 35.55 51.85 35.15 51.45 34.9 51.35 34.7 51.25 33.95 51.35
L 33.9 51.35
Q 33.35 51.45 33 51.7 32.85 51.85 32.75 52.55 32.75 53.1 32.9 53.55 32.95 53.8 33.35 54.55 34.55 56.3 35.2 56.75 36.3 57.65 37.25 57.05 37.4 57 38 56.25 38.85 55.1 40.7 53.5 41.9 52.5 42.8 51.75 43.4 51.25 43.9 50.85 44.45 50.4 44.9 50.05 45.05 49.95 45.2 49.85
L 44.95 56.45
Q 44.95 57.35 44.65 57.85 44.3 58.45 43.5 58.6 43.05 58.75 42.15 58.75
L 35.25 58.75
Q 33.85 58.75 33.4 58.25 33.35 58.25 33.35 58.2 33.05 57.9 33 57.4 32.95 57.3 32.95 57.15 32.95 56.3 32.9 55.9
L 32.8 54.95
Q 32.35 52.4 32.6 49.6 32.6 49.4 32.65 49.25 32.75 48.65 33.05 48.35 33.45 48 34.5 48
L 42.85 48
M 45.9 30.3
Q 47.4 29.1 47.95 28.35
L 47.95 28.3
Q 48.1486328125 28.044921875 48.1 27.85 48 27.55 47.45 27.55 45.95 27.6 44.2 28.35 44.1 28.3 44.05 28.3 43.9 28.2 43.55 28.2
L 34.5 28.2
Q 33.35 28.2 32.85 28.5 32.25 28.85 32 29.65 31.8416015625 30.1251953125 31.75 31.05 31.7208984375 31.2794921875 31.7 31.55 31.7 33.55 31.95 36.05
L 32.1 37.75
Q 32.1298828125 38.048828125 32.15 38.3 32.259765625 38.8845703125 32.4 39.2 32.75 40.05 33.6 40.35 34.1 40.55 35.3 40.55
L 42.05 40.55 43.75 40.4
Q 44.7 40.15 45.15 39.55 45.75 38.85 45.75 37
L 45.9 33.55
Q 46 31.65 45.9 30.3
M 46.8 28.45
Q 46.6947265625 28.6080078125 46.55 28.75 46.2541015625 29.0580078125 45.8 29.35 45.65 29.45 45.55 29.55 45.4 29.65 45.25 29.75 44.6484375 30.197265625 43.9 30.75 42.312890625 32.0638671875 40.1 34 38 35.8 37.2 36.9 36.95 37.35 36.7 37.45 36.5 37.5 36.1 37.4 35.85 37.3 35.6 37.1 35.35 36.9 35.1 36.6 35 36.5 34.35 35.5 33.8 34.75 33.7 34.45 33.45 33.85 33.65 33.25 33.93515625 32.988671875 34.25 33.05 34.6541015625 33.1041015625 35.1 33.55 35.65 34.45 36 34.85 36.15 35.1 36.45 35.15 36.8 35.2 37.25 34.55 37.8 33.8 39.2 32.7
L 40.3 31.85 40.35 31.8
Q 41.95 30.45 43.35 29.65 43.39453125 29.624609375 43.45 29.6 43.647265625 29.4892578125 43.85 29.4 45.4107421875 28.580078125 46.8 28.45
M 42.85 29
Q 42.463671875 29.23515625 41.95 29.6 40.910546875 30.321484375 39.35 31.55 38.85 31.95 38.45 32.3 37.05 33.45 36.5 34.15 36.2 33.55 35.55 32.85 35.15 32.45 34.9 32.35 34.70625 32.253125 33.95 32.35 33.925 32.346875 33.9 32.35 33.35 32.45 33 32.7 32.85 32.85 32.75 33.55 32.75 34.1 32.9 34.55 32.95 34.8 33.35 35.55 34.55 37.3 35.2 37.75 36.3 38.65 37.25 38.05 37.4 38 38 37.25 38.85 36.1 40.7 34.5 41.9 33.5 42.8 32.75 43.3859375 32.254296875 43.85 31.85 44.460546875 31.3796875 44.9 31.05 45.05 30.95 45.2 30.85
L 44.95 37.45
Q 44.95 38.35 44.65 38.85 44.3 39.45 43.5 39.6 43.05 39.75 42.15 39.75
L 35.25 39.75
Q 33.85 39.75 33.4 39.25 33.35 39.25 33.35 39.2 33.066796875 38.916796875 32.95 38.4 32.9595703125 38.2833984375 32.95 38.15 32.95 37.3 32.9 36.9
L 32.8 35.95
Q 32.35 33.4 32.6 30.6 32.6 30.4 32.65 30.25 32.75 29.65 33.05 29.35 33.45 29 34.5 29
L 42.85 29
M 102.3 97.6
Q 103 97.6 103.3 97.4 103.5 97.25 103.55 96.95 103.6 96.7 103.4 96.5 103.25 96.4 102.85 96.4
L 52.1 96.5
Q 51.2 96.5 51.2 97 51.2 97.5 52.05 97.5
L 102.3 97.6
M 98.5 77.1
Q 98.4 76.85 97.95 76.85
L 93.85 76.8
Q 92 76.8 91.05 76.95
L 89.3 77.4
Q 88.2 77.6 85.85 77.6
L 51 77.6
Q 50.45 77.6 50.35 77.9 50.3 78.1 50.55 78.25 50.8 78.4 51.1 78.4
L 86.1 78.4
Q 88.4 78.4 89.5 78.2
L 91.3 77.75
Q 92.1 77.6 94.4 77.6
L 97.7 77.7
Q 98.05 77.7 98.35 77.55 98.65 77.35 98.5 77.1
M 98.7 58.25
Q 98.45 58.1 98.1 58.1
L 51.95 58.1
Q 51.5 58.1 51.35 58.35 51.25 58.6 51.55 58.75 51.8 58.9 52.15 58.9
L 98.3 58.9
Q 98.8 58.9 98.85 58.65 98.95 58.4 98.7 58.25
M 99.55 39.9
Q 99.9 39.9 100.15 39.75 100.4 39.6 100.3 39.35 100.25 39.1 99.7 39.1
L 52.85 39.1
Q 52.55 39.1 52.3 39.25 52 39.4 52.1 39.65 52.15 39.9 52.7 39.9
L 99.55 39.9 Z"/>

<path fill="#EEA14E" stroke="none" d="
M 33.4 96.25
Q 33.85 96.75 35.25 96.75
L 42.15 96.75
Q 43.05 96.75 43.5 96.6 44.3 96.45 44.65 95.85 44.95 95.35 44.95 94.45
L 45.15 88.65
Q 45.1375 88.5998046875 45.1 88.5 45.0740234375 88.369921875 45.05 87.95 45.05 87.548046875 45.05 86.9
L 45.05 86.7 45 86.65
Q 44.8494140625 86.6833984375 44.65 86.7
L 43.9 88.85
Q 43.65 92.4 43.2 93.2 42 95.45 37.05 95.5 35.1 95.65 33 95.4 33.05 95.9 33.35 96.2 33.35 96.25 33.4 96.25
M 33 76.4
Q 33.05 76.9 33.35 77.2 33.35 77.25 33.4 77.25 33.85 77.75 35.25 77.75
L 42.15 77.75
Q 43.05 77.75 43.5 77.6 44.3 77.45 44.65 76.85 44.95 76.35 44.95 75.45
L 45.2 68.85
Q 45.05 68.95 44.9 69.05 44.45 69.4 43.9 69.85 43.65 73.4 43.2 74.2 42 76.45 37.05 76.5 35.1 76.65 33 76.4
M 33 57.4
Q 33.05 57.9 33.35 58.2 33.35 58.25 33.4 58.25 33.85 58.75 35.25 58.75
L 42.15 58.75
Q 43.05 58.75 43.5 58.6 44.3 58.45 44.65 57.85 44.95 57.35 44.95 56.45
L 45.2 49.85
Q 45.05 49.95 44.9 50.05 44.45 50.4 43.9 50.85 43.65 54.4 43.2 55.2 42 57.45 37.05 57.5 35.1 57.65 33 57.4
M 44.9 31.05
Q 44.460546875 31.3796875 43.85 31.85 43.6546875 35.414453125 43.2 36.2 42.0177734375 38.466015625 37.05 38.5 35.0912109375 38.6423828125 32.95 38.4 33.066796875 38.916796875 33.35 39.2 33.35 39.25 33.4 39.25 33.85 39.75 35.25 39.75
L 42.15 39.75
Q 43.05 39.75 43.5 39.6 44.3 39.45 44.65 38.85 44.95 38.35 44.95 37.45
L 45.2 30.85
Q 45.05 30.95 44.9 31.05 Z"/>

<path fill="#FCDE93" stroke="none" d="
M 34.05 87
Q 33.5 87.1 32.6 87.6 32.35 90.4 32.8 92.95
L 32.9 93.9
Q 32.95 94.3 32.95 95.15 32.95 95.3 33 95.4 35.1 95.65 37.05 95.5 37.003125 95.5 36.9 95.5 37.003125 95.496875 37.05 95.45
L 37.05 95.5
Q 42 95.45 43.2 93.2 43.65 92.4 43.9 88.85
L 44.65 86.7
Q 44.5587890625 86.695703125 44.45 86.7 44.3765625 86.6982421875 44.3 86.7 43.741015625 86.7 43.25 86.7 42.4052734375 86.7 41.8 86.7 41.876953125 86.6486328125 41.95 86.6
L 37 86.6
Q 35.95 86.55 35.6 86.65 34.9 86.8 34.05 87
M 37 67.6
Q 35.95 67.55 35.6 67.65 34.9 67.8 34.05 68 33.5 68.1 32.6 68.6 32.35 71.4 32.8 73.95
L 32.9 74.9
Q 32.95 75.3 32.95 76.15 32.95 76.3 33 76.4 35.1 76.65 37.05 76.5 37.003125 76.5 36.9 76.5 37.003125 76.496875 37.05 76.45
L 37.05 76.5
Q 42 76.45 43.2 74.2 43.65 73.4 43.9 69.85 43.4 70.25 42.8 70.75 41.9 71.5 40.7 72.5 38.85 74.1 38 75.25 37.4 76 37.25 76.05 36.3 76.65 35.2 75.75 34.55 75.3 33.35 73.55 32.95 72.8 32.9 72.55 32.75 72.1 32.75 71.55 32.85 70.85 33 70.7 33.35 70.45 33.9 70.35
L 33.95 70.35
Q 34.7 70.25 34.9 70.35 35.15 70.45 35.55 70.85 36.2 71.55 36.5 72.15 37.05 71.45 38.45 70.3 38.85 69.95 39.35 69.55 40.9 68.3 41.95 67.6
L 37 67.6
M 37 48.6
Q 35.95 48.55 35.6 48.65 34.9 48.8 34.05 49 33.5 49.1 32.6 49.6 32.35 52.4 32.8 54.95
L 32.9 55.9
Q 32.95 56.3 32.95 57.15 32.95 57.3 33 57.4 35.1 57.65 37.05 57.5 37.003125 57.5 36.9 57.5 37.003125 57.496875 37.05 57.45
L 37.05 57.5
Q 42 57.45 43.2 55.2 43.65 54.4 43.9 50.85 43.4 51.25 42.8 51.75 41.9 52.5 40.7 53.5 38.85 55.1 38 56.25 37.4 57 37.25 57.05 36.3 57.65 35.2 56.75 34.55 56.3 33.35 54.55 32.95 53.8 32.9 53.55 32.75 53.1 32.75 52.55 32.85 51.85 33 51.7 33.35 51.45 33.9 51.35
L 33.95 51.35
Q 34.7 51.25 34.9 51.35 35.15 51.45 35.55 51.85 36.2 52.55 36.5 53.15 37.05 52.45 38.45 51.3 38.85 50.95 39.35 50.55 40.9 49.3 41.95 48.6
L 37 48.6
M 42.8 32.75
Q 41.9 33.5 40.7 34.5 38.85 36.1 38 37.25 37.4 38 37.25 38.05 36.3 38.65 35.2 37.75 34.55 37.3 33.35 35.55 32.95 34.8 32.9 34.55 32.75 34.1 32.75 33.55 32.85 32.85 33 32.7 33.35 32.45 33.9 32.35 33.925 32.346875 33.95 32.35 34.70625 32.253125 34.9 32.35 35.15 32.45 35.55 32.85 36.2 33.55 36.5 34.15 37.05 33.45 38.45 32.3 38.85 31.95 39.35 31.55 40.910546875 30.321484375 41.95 29.6
L 37 29.6
Q 35.95 29.55 35.6 29.65 34.9 29.8 34.05 30 33.48203125 30.0947265625 32.6 30.6 32.35 33.4 32.8 35.95
L 32.9 36.9
Q 32.95 37.3 32.95 38.15 32.9595703125 38.2833984375 32.95 38.4 35.0912109375 38.6423828125 37.05 38.5 36.980078125 38.5 36.9 38.5 37.00234375 38.49765625 37.05 38.45
L 37.05 38.5
Q 42.0177734375 38.466015625 43.2 36.2 43.6546875 35.414453125 43.85 31.85 43.3859375 32.254296875 42.8 32.75 Z"/>

<path fill="#FDEEC2" stroke="none" d="
M 34.5 86
Q 33.45 86 33.05 86.35 32.75 86.65 32.65 87.25 32.6 87.4 32.6 87.6 33.5 87.1 34.05 87 34.9 86.8 35.6 86.65 35.95 86.55 37 86.6
L 41.95 86.6
Q 41.876953125 86.6486328125 41.8 86.7 42.4052734375 86.7 43.25 86.7 43.741015625 86.7 44.3 86.7 44.3765625 86.6982421875 44.45 86.7 44.5587890625 86.695703125 44.65 86.7 44.8494140625 86.6833984375 45 86.65
L 44.5 86.2 44.15 86.05 43.7 86 34.5 86
M 35.6 67.65
Q 35.95 67.55 37 67.6
L 41.95 67.6
Q 42.45 67.25 42.85 67
L 34.5 67
Q 33.45 67 33.05 67.35 32.75 67.65 32.65 68.25 32.6 68.4 32.6 68.6 33.5 68.1 34.05 68 34.9 67.8 35.6 67.65
M 41.95 48.6
Q 42.45 48.25 42.85 48
L 34.5 48
Q 33.45 48 33.05 48.35 32.75 48.65 32.65 49.25 32.6 49.4 32.6 49.6 33.5 49.1 34.05 49 34.9 48.8 35.6 48.65 35.95 48.55 37 48.6
L 41.95 48.6
M 41.95 29.6
Q 42.463671875 29.23515625 42.85 29
L 34.5 29
Q 33.45 29 33.05 29.35 32.75 29.65 32.65 30.25 32.6 30.4 32.6 30.6 33.48203125 30.0947265625 34.05 30 34.9 29.8 35.6 29.65 35.95 29.55 37 29.6
L 41.95 29.6 Z"/>

<path fill="#FFA974" stroke="none" d="
M 35.1 71.55
Q 34.65 71.1 34.3 71.05 34.55 71.5 35 72.2 36.05 73.8 36.6 73.8 37.1 73.8 39 72
L 41.25 69.85
Q 42.95 68.55 43.85 68.05 43.9 68 44 67.95 45.2 67.25 46.55 66.8 46.7 66.6 46.8 66.45 45.4 66.6 43.85 67.4 43.65 67.5 43.45 67.6 43.4 67.6 43.35 67.65 41.95 68.45 40.35 69.8
L 40.3 69.85 39.2 70.7
Q 37.8 71.8 37.25 72.55 36.8 73.2 36.45 73.15 36.15 73.1 36 72.85 35.65 72.45 35.1 71.55
M 43.85 49.05
Q 43.9 49 44 48.95 45.2 48.25 46.55 47.8 46.7 47.6 46.8 47.45 45.4 47.6 43.85 48.4 43.65 48.5 43.45 48.6 43.4 48.6 43.35 48.65 41.95 49.45 40.35 50.8
L 40.3 50.85 39.2 51.7
Q 37.8 52.8 37.25 53.55 36.8 54.2 36.45 54.15 36.15 54.1 36 53.85 35.65 53.45 35.1 52.55 34.65 52.1 34.3 52.05 34.55 52.5 35 53.2 36.05 54.8 36.6 54.8 37.1 54.8 39 53
L 41.25 50.85
Q 42.95 49.55 43.85 49.05
M 46.55 28.75
Q 46.6947265625 28.6080078125 46.8 28.45 45.4107421875 28.580078125 43.85 29.4 43.647265625 29.4892578125 43.45 29.6 43.39453125 29.624609375 43.35 29.65 41.95 30.45 40.35 31.8
L 40.3 31.85 39.2 32.7
Q 37.8 33.8 37.25 34.55 36.8 35.2 36.45 35.15 36.15 35.1 36 34.85 35.65 34.45 35.1 33.55 34.6541015625 33.1041015625 34.25 33.05 34.540625 33.5111328125 35 34.2 36.05 35.8 36.6 35.8 37.1 35.8 39 34
L 41.25 31.85
Q 42.9708984375 30.53671875 43.8 30.05 43.919921875 29.9923828125 44 29.95 45.2080078125 29.2494140625 46.55 28.75 Z"/>

<path fill="#EB7328" stroke="none" d="
M 33.7 72.45
Q 33.8 72.75 34.35 73.5 35 74.5 35.1 74.6 35.35 74.9 35.6 75.1 35.85 75.3 36.1 75.4 36.5 75.5 36.7 75.45 36.95 75.35 37.2 74.9 38 73.8 40.1 72 42.3 70.05 43.95 68.8 44.65 68.2 45.25 67.75 45.4 67.65 45.55 67.55 45.65 67.45 45.8 67.35 46.25 67.05 46.55 66.8 45.2 67.25 44 67.95 43.9 68 43.85 68.05 42.95 68.55 41.25 69.85
L 39 72
Q 37.1 73.8 36.6 73.8 36.05 73.8 35 72.2 34.55 71.5 34.3 71.05 33.95 71 33.65 71.25 33.45 71.85 33.7 72.45
M 45.25 48.75
Q 45.4 48.65 45.55 48.55 45.65 48.45 45.8 48.35 46.25 48.05 46.55 47.8 45.2 48.25 44 48.95 43.9 49 43.85 49.05 42.95 49.55 41.25 50.85
L 39 53
Q 37.1 54.8 36.6 54.8 36.05 54.8 35 53.2 34.55 52.5 34.3 52.05 33.95 52 33.65 52.25 33.45 52.85 33.7 53.45 33.8 53.75 34.35 54.5 35 55.5 35.1 55.6 35.35 55.9 35.6 56.1 35.85 56.3 36.1 56.4 36.5 56.5 36.7 56.45 36.95 56.35 37.2 55.9 38 54.8 40.1 53 42.3 51.05 43.95 49.8 44.65 49.2 45.25 48.75
M 45.8 29.35
Q 46.2541015625 29.0580078125 46.55 28.75 45.2080078125 29.2494140625 44 29.95 43.919921875 29.9923828125 43.8 30.05 42.9708984375 30.53671875 41.25 31.85
L 39 34
Q 37.1 35.8 36.6 35.8 36.05 35.8 35 34.2 34.540625 33.5111328125 34.25 33.05 33.93515625 32.988671875 33.65 33.25 33.45 33.85 33.7 34.45 33.8 34.75 34.35 35.5 35 36.5 35.1 36.6 35.35 36.9 35.6 37.1 35.85 37.3 36.1 37.4 36.5 37.5 36.7 37.45 36.95 37.35 37.2 36.9 38 35.8 40.1 34 42.312890625 32.0638671875 43.9 30.75 44.6484375 30.197265625 45.25 29.75 45.4 29.65 45.55 29.55 45.65 29.45 45.8 29.35 Z"/>
</g>
</defs>

<g transform="matrix( 1.289794921875, 0, 0, 1.289794921875, 7.9,5) ">
<g transform="matrix( 1, 0, 0, 1, 0,0) ">
<use xlink:href="#_____1_0_Layer1_0_FILL"/>
</g>

<g transform="matrix( 1, 0, 0, 1, 0,0) ">
<use xlink:href="#_____1_0_Layer0_0_FILL"/>
</g>
</g>

<g transform="matrix( 1, 0, 0, 1, 27.9,28.55) ">
<g transform="matrix( 1, 0, 0, 1, 0,0) ">
<use xlink:href="#_______________0_Layer2_0_FILL"/>
</g>

<g transform="matrix( 1, 0, 0, 1, 0,0) ">
<use xlink:href="#_______________0_Layer0_0_FILL"/>
</g>
</g>
</svg>
