
<svg xmlns="http://www.w3.org/2000/svg" version="1.1" xmlns:xlink="http://www.w3.org/1999/xlink" preserveAspectRatio="none" x="0px" y="0px" width="132px" height="148px" viewBox="0 0 132 148">
<defs>
<g id="___1_0_Layer1_0_FILL">
<path fill="#FEB80E" stroke="none" d="
M 53 7.4
L 54.3 6.35 54.25 6.35 53 7.4
M 14.15 58.5
Q 13 56.2 12.1 53.65 11.9 53.1 11.7 52.5
L 4.85 58.1
Q 5.05 58.7 5.3 59.3 6.3 61.7 7.45 63.95
L 14.15 58.5
M 56.25 24.4
L 56.2 24.35 64.15 17.9
Q 60.75 16.8 57.6 15.3
L 48.45 22.7
Q 51.45 24.5 54.7 25.7
L 56.25 24.4
M 43.6 6
Q 42.35 4.85 41.2 3.7 24.1 22.15 0.05 25.55 -0.25 38.4 2.05 48.8
L 9.55 42.7
Q 8.6 35.55 9.1 27.05 9.9 27.1 10.65 27.05 10.95625 27.05 11.25 27
L 11.35 27
Q 12.25 26.9 13.1 26.7 14.7 26.4 16.3 25.95 28.75 22.65 37.35 12.9 39.2 15.1 41.15 17
L 49.25 10.45
Q 46.3 8.4 43.6 6 Z"/>

<path fill="#B24B06" stroke="none" d="
M 37.15 86.2
Q 36.05 86.7 35 87.1 36.45 87.65 37.95 88.1 62.85 80.95 72.35 59.6
L 63.15 65.45
Q 60.9 68.7 58.05 71.65 57.25 72.5 56.4 73.3 48 81.4 37.15 86.2 Z"/>

<path fill="#FFDD63" stroke="none" d="
M 22.85 69.7
Q 21.65 68.7 20.6 67.6 16.7 63.65 14.15 58.5
L 7.45 63.95
Q 10.05 68.8 13.5 72.85 14.6 74.15 15.85 75.35
L 22.85 69.7
M 9.55 42.7
L 2.05 48.8
Q 3.15 53.75 4.85 58.1
L 11.7 52.5
Q 10.25 47.95 9.55 42.7
M 41.15 17
Q 44.65 20.4 48.45 22.7
L 57.6 15.3
Q 53.2 13.2 49.25 10.45
L 41.15 17
M 65.15 18.2
Q 65.25 18.25 65.4 18.3 65.75 16.9 65.15 18.2
M 69.5 19.4
Q 67.4 18.9 65.4 18.3 65.25 18.25 65.15 18.2 65 18.5 64.8 18.9
L 64.2 17.9 64.15 17.9 56.2 24.35 56.25 24.4 54.7 25.7
Q 56.5 26.3 58.4 26.75 60.75 27.25 64.25 27.7 64.4 31.55 64.2 35.2 64.15 35.8 64.15 36.4
L 72.8 29.4
Q 72.75 29.15 72.75 28.9 72.6 24.65 71.9 20.25
L 71.85 19.9
Q 70.65 19.65 69.5 19.4 Z"/>

<path fill="#B75D1B" stroke="none" d="
M 10.65 27.1
Q 10.95625 27.05625 11.25 27 10.95625 27.05 10.65 27.05 9.9 27.1 9.1 27.05 8.6 35.55 9.55 42.7 10.25 47.95 11.7 52.5 11.9 53.1 12.1 53.65 13 56.2 14.15 58.5 16.7 63.65 20.6 67.6 21.65 68.7 22.85 69.7 28.95 74.85 37.75 77.45 38.1 77.35 38.4 77.25 29.65 74.45 23.65 69.05 22.5 68.05 21.45 66.95 17.7 62.9 15.25 57.6 14.45 55.9 13.8 54.05 13.55 53.35 13.3 52.65 13.1 52.1 12.95 51.5 11.55 46.9 10.95 41.55 10.85 40.45 10.75 39.3 10.35 34.3 10.6 28.7 10.6 27.9 10.65 27.1 Z"/>

<path fill="#FF9904" stroke="none" d="
M 70.9 48.9
Q 73.25 39.95 72.8 29.4
L 64.15 36.4
Q 62.85 57 51.5 68.45 46.1 73.85 38.4 77.25 38.1 77.35 37.75 77.45 28.95 74.85 22.85 69.7
L 15.85 75.35
Q 23.55 83.1 35 87.1 36.05 86.7 37.15 86.2 48 81.4 56.4 73.3 57.25 72.5 58.05 71.65 60.9 68.7 63.15 65.45 68.5 58.05 70.9 48.9 Z"/>

<path fill="#990000" stroke="none" d="
M 62.45 37.8
L 62.45 37.75
Q 62.45 37.35 62.5 37 61.85 37.9 61.2 38.8 53.45 49.05 43.3 53.2 32.25 57.75 18.35 55.1 16.1 54.65 13.8 54.05 14.45 55.9 15.25 57.6 17.7 62.9 21.45 66.95 22.5 68.05 23.65 69.05 29.65 74.45 38.4 77.25 61.3 64.5 62.45 37.8 Z"/>

<path fill="#AD0000" stroke="none" d="
M 62.5 36.55
Q 62.7 34.35 62.8 32.05 49.8 39.55 35.65 41.1 30.6 41.6 25.4 41.4 19.35 41.15 13.1 39.85 11.9 39.6 10.75 39.3 10.85 40.45 10.95 41.55 11.55 46.9 12.95 51.5 13.1 52.1 13.3 52.65 13.55 53.35 13.8 54.05 16.1 54.65 18.35 55.1 32.25 57.75 43.3 53.2 53.45 49.05 61.2 38.8 61.85 37.9 62.5 37 62.5 36.75 62.5 36.55 Z"/>

<path fill="#BE0000" stroke="none" d="
M 62.8 32.05
Q 62.85 30.3 62.85 28.5 57.9 28 53.55 26.6 50.1 25.45 47.05 23.8 42.95 21.55 39.65 18.25 38.4 17.05 37.25 15.7 23.5 27.85 10.6 28.7 10.35 34.3 10.75 39.3 11.9 39.6 13.1 39.85 19.35 41.15 25.4 41.4 30.6 41.6 35.65 41.1 49.8 39.55 62.8 32.05 Z"/>

<path fill="#6C0000" stroke="none" d="
M 48.45 22.7
Q 44.65 20.4 41.15 17 39.2 15.1 37.35 12.9 28.75 22.65 16.3 25.95 14.7 26.4 13.1 26.7 12.25 26.9 11.35 27
L 11.25 27
Q 10.95625 27.05625 10.65 27.1 10.6 27.9 10.6 28.7 23.5 27.85 37.25 15.7 38.4 17.05 39.65 18.25 42.95 21.55 47.05 23.8 50.1 25.45 53.55 26.6 57.9 28 62.85 28.5 62.85 30.3 62.8 32.05 62.7 34.35 62.5 36.55 62.5 36.75 62.5 37 62.45 37.35 62.45 37.75
L 62.45 37.8
Q 61.3 64.5 38.4 77.25 46.1 73.85 51.5 68.45 62.85 57 64.15 36.4 64.15 35.8 64.2 35.2 64.4 31.55 64.25 27.7 60.75 27.25 58.4 26.75 56.5 26.3 54.7 25.7 51.45 24.5 48.45 22.7 Z"/>

<path fill="#FFC16E" stroke="none" d="
M 41.2 3.7
Q 41.05 3.6 40.95 3.5 39.3 1.8 37.75 0 36.25 1.85 34.7 3.5 33.5 4.8 32.25 6 28.95 9.1 25.4 11.55 25.05 11.75 24.75 12 23.6 12.75 22.4 13.45 16.35 17.05 9.4 18.95 5.45 20 0.2 20.75 0.05 23.2 0.05 25.55 24.1 22.15 41.2 3.7 Z"/>

<path fill="#D96000" stroke="none" d="
M 71.85 19.9
L 71.9 20.25
Q 72.6 24.65 72.75 28.9 72.75 29.15 72.8 29.4 73.25 39.95 70.9 48.9 68.5 58.05 63.15 65.45
L 72.35 59.6
Q 74.25 55.1 75.6 50.1 78.45 39 78.15 25.05 78.15 25 78.15 24.9 78.05 22.9 77.95 20.75 74.8 20.45 71.85 19.9 Z"/>
</g>

<path id="___1_0_Layer1_0_1_STROKES" stroke="#801700" stroke-width="2" stroke-linejoin="round" stroke-linecap="round" fill="none" d="
M 65.4 18.3
Q 67.4 18.9 69.5 19.4 70.65 19.65 71.85 19.9 74.8 20.45 77.95 20.75 78.05 22.9 78.15 24.9 78.15 25 78.15 25.05 78.45 39 75.6 50.1 74.25 55.1 72.35 59.6 62.85 80.95 37.95 88.1 36.45 87.65 35 87.1 23.55 83.1 15.85 75.35 14.6 74.15 13.5 72.85 10.05 68.8 7.45 63.95 6.3 61.7 5.3 59.3 5.05 58.7 4.85 58.1 3.15 53.75 2.05 48.8 -0.25 38.4 0.05 25.55 0.05 23.2 0.2 20.75 5.45 20 9.4 18.95 16.35 17.05 22.4 13.45 23.6 12.75 24.75 12 25.05 11.75 25.4 11.55 28.95 9.1 32.25 6 33.5 4.8 34.7 3.5 36.25 1.85 37.75 0 39.3 1.8 40.95 3.5 41.05 3.6 41.2 3.7 42.35 4.85 43.6 6 46.3 8.4 49.25 10.45 53.2 13.2 57.6 15.3 60.75 16.8 64.15 17.9
M 64.2 17.9
Q 64.65 18.05 65.15 18.2 65.25 18.25 65.4 18.3"/>
</defs>

<g transform="matrix( 1.62115478515625, 0, 0, 1.62115478515625, 2.7,2.65) ">
<g transform="matrix( 1, 0, 0, 1, 0,0) ">
<use xlink:href="#___1_0_Layer1_0_FILL"/>

<use xlink:href="#___1_0_Layer1_0_1_STROKES"/>
</g>
</g>
</svg>
