
<svg xmlns="http://www.w3.org/2000/svg" version="1.1" xmlns:xlink="http://www.w3.org/1999/xlink" preserveAspectRatio="none" x="0px" y="0px" width="1270px" height="305px" viewBox="0 0 1270 305">
<defs>
<g id="Layer0_0_FILL">
<path fill="#5ADFF1" stroke="none" d="
M 295 204.4
Q 294.6 205.5 294.35 206.95 294.1 208.55 294.1 214.7 294.1 217.85 294.95 223.2 295.75 228.5 295.75 231.4 295.75 238 286.35 252 284.2 255.15 282.15 258.05
L 282.15 291.5
Q 284.4 282.2 294.5 255.75 302.75 234.35 302.75 225.1 302.75 222.2 296.55 208.15 295.75 206.25 295 204.4
M 143.4 113.6
Q 142.8 113.75 142.35 114.05 143.4 123.3 145.5 136.2 146.45 143.1 146.85 150.3 148.85 141.2 149.9 132.7 150.95 123.85 151.15 111.9 146.85 112.5 143.4 113.6
M 76.95 154.5
Q 76.95 156 77.2 159.45 77.3 161.85 77.55 165.15 78.15 173.05 78.4 174.3 79.45 179.7 83.4 188.8 83.6 181.25 83.35 172.7 83.1 166.5 85.4 158.9 86.55 154.75 88.45 150.3 94.05 137.2 94.05 129.35 94.05 127.45 92 118.95 89.9 110.55 89.9 109.55 89.9 107.05 90.6 99.75 85.65 101.1 82.15 101.7 82.9 104.85 84.2 108.5 85.8 113.5 85.8 117.6 85.8 119.4 81.45 130.8 76.95 142.3 76.95 154.5
M 302.1 141.3
Q 301.45 141.05 297.75 140.95 292.55 143.95 290.1 149.45 287.9 154.4 287.9 162.1 287.9 165.15 291.3 172.95 291.6 171.35 292.05 170 294.35 162.5 302.75 151.25 304.75 148.7 305.95 143.05 303.1 141.65 302.1 141.3
M 239.4 151.45
Q 238.4 155.1 238.4 162.75 238.4 166.4 238.5 168.7 238.65 174.4 239.25 177.2 239.75 179.7 241.05 183.7 242.15 187.1 242.15 188.05 242.15 189.05 241.05 192.55 239.5 197.5 235.6 207.55 233.3 213.65 231.65 218.1 232.7 231.05 233.45 238.7
L 233.45 240.4
Q 236.25 227.1 243.45 196.65 243.85 195.1 244.2 193.6 247.5 179.2 247.5 175.2 247.5 174.25 246.65 168.2 245.8 162.25 245.8 161.2 245.8 156.45 247.9 152.2 247.95 151.95 251.25 146.4 244.85 146.6 241.3 147 239.9 149.65 239.4 151.45
M 483.05 165.05
Q 483.65 161.9 483.8 158.4 479.05 157.4 475.65 155.75 475.3 166.55 471.4 178.4 471.2 178.65 471.1 179 470.2 181.65 469.15 184.3 466.9 189.75 463.2 198.55 462.55 199.9 461.95 201.25 463.65 219.55 463.65 225.5
L 463.65 226.35
Q 465.95 214.6 470.6 200.8 473.95 190.95 478.35 180.15 478.45 179.85 478.6 179.6 478.9 179 479.05 178.5 482 170.85 483.05 165.05
M 437.25 190.85
Q 437.5 190.15 437.75 189.4 442.75 175.45 447.95 157.05 450.5 148.25 452.15 142.8 447.45 142.4 442.6 143.85 442.4 155.25 440.65 168.55 438.95 181.3 436.65 189 436.45 189.4 436.4 189.8 436.4 190 436.4 190.05
L 436.45 190.5
Q 436.7 190.85 437.25 190.85
M 402.15 177.65
Q 401.15 178 400.25 178.35 399.95 179.25 399.85 179.6 399.7 180.45 399.7 187.9 399.7 192.05 400.5 203.45 400.7 205.55 400.8 207.55 404.8 191.8 406.95 177.75 407 176.8 407.2 175.8 405.9 176.3 404.45 176.85 403.35 177.3 402.15 177.65
M 344.75 162.75
Q 345.7 157.65 346.65 153.2 343.15 150.75 340.75 149.2 340.35 148.95 340.05 148.7 339.9 149.9 339.75 151.35 339.05 155.75 339.05 159.6 339.05 160.2 339.3 170.5 339.45 177.6 339.75 189.4 341.6 178.85 343.6 168.8 344.15 165.75 344.75 162.75
M 589.65 188.9
Q 589.5 188.9 589.3 189 589.3 189.15 589.3 189.3 589.3 195.7 590.25 201.35 591.05 207.2 592.8 212.4 595.45 220.4 597.35 226.85 600.55 214.1 600.55 208.15 600.55 207.35 600.55 206.6 600.4 198.8 598.6 190.15 598.55 189.9 598.45 189.55 598.4 189.05 598.35 188.65 590.25 188.8 589.65 188.9
M 786.15 184.3
Q 785.6 184.05 783.5 183.95 783.05 184.95 782.85 186.1 782.3 188.9 782.3 192.9 782.2 195 782.35 197.5 782.6 200.7 783 204.55 783.25 207.7 783.75 211.45 784.85 207.95 785.85 204.75 787.65 199.1 788.95 194 789.6 191.6 790.2 189.25 790.45 187.95 790.8 186.75 790.05 186.35 789.45 186.1 786.95 184.7 786.15 184.3
M 762.05 177.35
Q 761.95 177.3 761.9 177.3 760.15 176.35 758.7 175.7 755.95 174.55 754.05 174.15 754.2 175.7 754.45 177.75 754.95 181.3 755.65 186.35 755.65 186.5 755.7 186.85 755.7 187.2 755.8 187.6 757 195.9 757.45 200.15 758.85 194.7 760.25 188.05 760.25 187.9 760.25 187.75 760.4 187 760.5 186.25 761.4 181.25 762.05 177.35
M 725.15 183.55
Q 723.7 183.85 722.35 184.3 719.7 185.15 717.4 186.4
L 717.35 186.4
Q 717.4 190.3 718.9 194.1 719.8 196.55 721.4 200.55 722.3 202.85 723.45 205.65 723.8 207.1 724.2 213.15 724.6 218.35 725.5 220.9 726.25 222.9 727.65 225.5 729.3 215.4 729.3 206.1 729.3 203.75 728.8 201.05 728.3 198.25 727.25 194.85 725.65 189.75 725.25 186.4 725.15 185.4 725.15 184.65 725.15 184.05 725.15 183.55
M 673.95 196.4
Q 674.05 196.65 674.3 196.9 676.1 199.9 678.25 203.2 680.95 208.2 680.95 215.1 680.95 221.35 677.65 227.5 677.55 227.65 677.55 227.9 675.95 230.9 674.9 234.1 673.35 238.3 672.8 243.05 674.8 239.05 677.35 234 678.4 231.8 679.65 229.5 680.1 228.65 680.45 227.9 685.5 217.25 685.5 206.85 685.5 205.05 685.2 197.8 685.1 196.8 685.05 195.8 684.95 194.6 684.95 193.35 682.45 193.4 677.8 194.95 675.75 195.7 673.95 196.4
M 845.65 191.6
Q 840.5 191.6 836.3 192.65 836.7 193.9 837.1 195.45 837.9 198.6 838.15 201.4 838.15 202.2 838.15 202.95 838.15 203.35 837.45 207.2 837.1 209 836.7 211.6 835.25 219.65 835.25 220.9 835.25 223.15 836.05 226.25 836.2 227.1 836.45 227.9 837.45 231.2 839.25 235.4 839.6 236.15 839.95 237 840.95 232.55 841.8 227.9 842 226.95 842.15 226 842.9 221.9 843.5 217.7 844.2 212.4 844.7 207.55 844.95 204.8 845.2 202.35 845.55 196.75 845.65 191.6
M 909.05 185.15
Q 909.05 185.35 909.05 185.6
L 909.85 202.75
Q 909.85 204.5 909.3 207.7 909.25 208.15 909.15 208.65 909.15 208.8 909.05 209 908.25 213.15 908.25 213.9 908.25 216.45 909.7 222.8 910.1 224.55 910.7 226.7 910.85 227.35 911.05 227.9 912.05 231.8 912.5 234.6 913.1 231.05 913.6 227.9 914 225 914.45 222.55 916 212.3 916.4 208.55 916.4 208.2 916.5 207.95 916.55 206.95 916.55 206.55 916.55 205.55 915.7 197.25 914.95 190.05 914.9 188.3 914.9 188.05 914.9 187.9 914.9 186.85 915.05 185.15 915.2 183.45 915.45 181.15 913.15 181.75 910.85 182.4 909.95 182.65 909.15 182.95 909.05 183.95 909.05 185.15
M 1096.5 147.1
Q 1094.95 147.1 1093.5 147.35 1094.95 153.05 1097.7 161.9 1098.8 165.4 1098.8 170.6 1098.8 173.75 1095.65 184.65 1094.65 187.95 1093.35 192.2
L 1093.35 192.3
Q 1091.85 197.05 1090.2 202.35 1090.6 205.05 1090.95 207.7 1092.35 219.65 1092.35 227.9 1092.35 228.4 1092.35 228.85 1092.4 228.3 1092.6 227.9 1095.15 216.15 1097.3 206.25 1098.6 199.95 1099.75 194.45 1100.85 189.05 1101.85 184.45 1104.8 169.9 1106.1 162.4 1106.1 162 1106.2 161.55 1106.35 160.8 1107.5 151.6 1099.85 147.1 1096.5 147.1
M 1016.7 191.05
Q 1016.7 191.8 1016.7 192.9 1016.7 200.4 1017.05 202.35 1017.2 203.75 1018 207.35 1021.5 195 1022.55 187.2 1020 188.75 1017.2 190.6 1016.95 190.8 1016.7 191.05
M 1047.8 156.8
Q 1047.35 158.25 1047.1 159.5 1046.35 162.75 1046.15 164.8 1046 166.5 1046 175.95 1046 178.25 1046.1 180.3 1046.1 183.55 1046.25 186.1 1046.55 190.4 1047.1 192.4 1049.75 201.1 1051.9 210.5 1052 195.8 1052.8 185.85 1053 183.7 1053.25 181.8 1053.35 180.9 1053.4 180.05 1054.35 172.1 1056.7 160.95 1056.8 160.35 1056.95 159.85
L 1056.95 159.7
Q 1056.05 159.25 1054.95 158.95 1050.25 157.2 1047.8 156.8
M 1170.75 176.95
Q 1170.6 179.2 1170.5 182.05 1170.5 182.85 1170.5 183.8 1170.5 185.6 1170.6 188.15 1170.7 191.05 1170.95 195 1171.35 202.45 1171.35 205.4 1171.35 214.45 1166.85 222.95 1162.3 231.45 1162.3 236.6 1162.3 242.6 1165.65 252.75 1167.25 257.35 1168.45 261.95 1171.95 228.85 1175.5 215.65 1177.65 207.7 1178.15 203.75 1178.7 198.35 1178.85 186.6 1178.85 184.3 1178.95 181.75 1178.95 178.25 1178.95 174.3 1178.95 173.5 1178.95 172.55 1176.15 174.25 1172.85 175.85 1171.8 176.35 1170.75 176.95
M 1135.05 196.75
Q 1135.85 187.1 1136 183.3 1136.1 182 1136.1 181.3 1136.1 180.3 1135.25 174.3 1134.9 172.1 1134.75 170.5 1132.75 169.6 1130.15 168.55 1130.3 176.05 1132.25 181 1132.75 182.25 1133.2 183.35 1134.65 187.85 1134.65 191.2 1134.65 191.95 1134.25 197 1134.05 198.7 1133.8 201.1 1133.8 203.6 1133.9 204 1134 204.9 1134.4 205.9 1134.55 202.7 1134.8 199.55 1134.9 198.1 1135.05 196.75
M 1210.95 111.45
Q 1211.8 115.75 1211.8 120.25 1211.8 127.05 1207.9 147.1 1204.75 163.1 1204.15 170.6 1203.95 172.45 1203.95 173.9 1203.95 177.35 1204.45 180.8 1204.55 181.65 1204.7 182.55 1205.6 188.3 1207.8 194 1207.9 188.5 1208.4 182.15 1208.5 181.4 1208.55 180.65 1209 176.1 1209.65 171.15 1210 168.3 1210.35 165.4 1213.75 145.2 1215.4 135.05 1217.9 120.1 1218.8 107.8 1214.6 106.2 1210.3 105.95 1210.45 108.75 1210.95 111.45 Z"/>

<path fill="#DDEAEF" stroke="none" d="
M 136.15 116.85
Q 136.65 119.3 137.15 122 140.25 135.75 140.25 140.45 140.25 143.45 138.6 150.9 138 153.55 137.7 155.6 136.95 159.35 136.95 161.2 136.95 162.9 137.45 167.85 138 173.15 138.6 176.05
L 138.6 177.65
Q 142.8 166.15 145.6 155.35 146.25 152.8 146.85 150.3 146.45 143.1 145.5 136.2 143.4 123.3 142.35 114.05 139 115.05 136.15 116.85
M 70.75 108.4
Q 70.55 108.65 70.5 108.95 69.9 117.9 69.45 128.35 68.6 148.4 68.5 160.1 68.5 161.3 68.5 162.4 68.5 167.35 72.6 196.65 76.7 226 76.7 237.1
L 76.7 237.9
Q 81.05 219.3 82.5 204.3 83.15 197.05 83.4 188.8 79.45 179.7 78.4 174.3 78.15 173.05 77.55 165.15 77.3 161.85 77.2 159.45 76.95 156 76.95 154.5 76.95 142.3 81.45 130.8 85.8 119.4 85.8 117.6 85.8 113.5 84.2 108.5 82.9 104.85 82.15 101.7
L 82.1 101.7
Q 74.75 102.8 70.75 108.4
M 297.75 140.95
Q 294.95 140.9 290.35 140.9 279.55 140.9 277.4 141.2 276.9 141.3 276.45 141.4 276.85 148.95 279.55 153.35 282.85 158.55 282.95 169.45 282.95 174.25 282.55 189.5 282.45 194 282.35 198 282.15 207.3 282.15 213.15
L 282.15 258.05
Q 284.2 255.15 286.35 252 295.75 238 295.75 231.4 295.75 228.5 294.95 223.2 294.1 217.85 294.1 214.7 294.1 208.55 294.35 206.95 294.6 205.5 295 204.4 293.15 199.9 292.15 195.9 290.35 189.8 290.35 185.15 290.35 177.65 291.3 172.95 287.9 165.15 287.9 162.1 287.9 154.4 290.1 149.45 292.55 143.95 297.75 140.95
M 174.45 115.3
Q 174.05 115.3 173.75 115.3 173.95 124.4 174.2 135.25 174.65 149.45 174.8 157.8 174.9 161.3 174.9 163.75 174.95 160.9 175.3 157.9 176.4 146.5 180.25 133.9 182.95 125.95 185.1 119.4 182.45 117.3 180.6 116.4 178.2 115.3 174.45 115.3
M 241.3 147
Q 240.9 147 240.45 147.1 236.45 147.6 229.35 152.1 227.7 153.3 226.45 154.15 227.1 162.65 228.85 184.35 228.95 185.3 229.05 186.15 230.5 204.9 231.65 218.1 233.3 213.65 235.6 207.55 239.5 197.5 241.05 192.55 242.15 189.05 242.15 188.05 242.15 187.1 241.05 183.7 239.75 179.7 239.25 177.2 238.65 174.4 238.5 168.7 238.4 166.4 238.4 162.75 238.4 155.1 239.4 151.45 239.9 149.65 241.3 147
M 475.65 155.75
Q 474.45 155.1 473.45 154.4 470.7 152.35 469.3 151.6 467.05 150.4 464 150.4 463.2 150.4 461.25 150.65 460.8 157.65 460.3 166.85 460.3 181.4 461.7 198.1 461.8 199.6 461.95 201.15
L 461.95 201.25
Q 462.55 199.9 463.2 198.55 466.9 189.75 469.15 184.3 470.2 181.65 471.1 179 471.2 178.65 471.4 178.4 475.3 166.55 475.65 155.75
M 442.6 143.85
Q 440.05 144.6 437.4 145.9 434.1 147.6 431.95 149.3 432.9 169.05 436.2 188.8 436.2 189.3 436.4 189.8 436.45 189.4 436.65 189 438.95 181.3 440.65 168.55 442.4 155.25 442.6 143.85
M 400.25 178.35
Q 395.35 180.05 391.6 181.05 394.9 222.7 395.15 223.9
L 395.95 224.75
Q 398.6 215.9 400.8 207.55 400.7 205.55 400.5 203.45 399.7 192.05 399.7 187.9 399.7 180.45 399.85 179.6 399.95 179.25 400.25 178.35
M 339.75 151.35
Q 339.9 149.9 340.05 148.7 333.95 144.95 328.15 143.25 329 157.15 331.05 174.65 331.4 177.3 331.7 180 335.4 210.35 334.9 216.45
L 334.9 218.1
Q 337.25 203.45 339.75 189.4 339.45 177.6 339.3 170.5 339.05 160.2 339.05 159.6 339.05 155.75 339.75 151.35
M 511.5 153.45
Q 510.45 153.3 509.8 153.3 508 153.3 502.55 154.9 500.6 155.5 498.8 156.2 499 161.05 499.25 167 499.5 174.25 499.9 178.65 500.1 180.15 500.25 181.4 500.5 183.2 500.75 184.3 501.95 183.3 503.15 181.65 504 180.3 504.85 178.65 507.75 172.9 509.9 162.35 510.9 157.3 511.5 153.45
M 623.7 182.05
Q 623.3 182.3 622.95 182.55 623.65 187.7 624.5 192.55 625.5 199.2 626.95 205.5 628.6 213.25 627.85 224.15 627.75 224.4 627.75 224.75
L 627.75 225.5
Q 627.9 225 628.1 224.4 630 217.6 637.75 193.75 638.05 192.8 638.4 191.7 638.7 190.7 639.05 189.75 637.45 187.1 636.35 185.6 634.95 183.7 633.2 182.65 630.95 181.3 628.15 181.3 624.65 181.3 624.25 181.65 624 181.8 623.7 182.05
M 580.05 191.2
Q 580.3 194.35 580.75 197.75 581.9 208.7 584.05 222.35 584.45 224.85 584.8 227.2 589 254.55 589 259.35 592.7 244.5 597.15 227.55 597.15 227.5 597.15 227.45 597.25 227.1 597.35 226.85 595.45 220.4 592.8 212.4 591.05 207.2 590.25 201.35 589.3 195.7 589.3 189.3 589.3 189.15 589.3 189 588.5 189.05 587.8 189.15 583.1 189.9 580.05 191.2
M 778.9 183.8
Q 778.3 183.8 777.65 183.85 777.7 184.95 777.8 186.15 777.85 189 778.05 192.05 778.3 197.75 778.45 204.25 778.7 211.9 778.8 220.55 779.65 220.55 779.65 223.05 781.85 217 783.75 211.45 783.25 207.7 783 204.55 782.6 200.7 782.35 197.5 782.2 195 782.3 192.9 782.3 188.9 782.85 186.1 783.05 184.95 783.5 183.95 781.7 183.8 778.9 183.8
M 748.3 174.15
Q 748.55 177.05 748.9 180.15 749.15 182.3 749.5 184.65 749.6 185.4 749.65 186.35 750.7 193.9 751.9 202.6 752.5 207.3 753.25 212.25
L 753.25 213.05
Q 754.95 208.9 756.65 202.95 757 201.5 757.45 200.15 757 195.9 755.8 187.6 755.7 187.2 755.7 186.85 755.65 186.5 755.65 186.35 754.95 181.3 754.45 177.75 754.2 175.7 754.05 174.15 752.8 173.9 751.9 173.9 750.85 173.9 748.3 174.15
M 717.35 186.4
Q 714 188.2 711.25 191.05 711.4 195.25 712.2 199.9 712.8 203.1 713.75 206.55 714.45 209.45 718.85 223.4 719.6 225.7 720.2 227.9 720.7 230 721.25 231.95 724.3 244.75 723.35 254.55 724.6 244 726.65 231.7 726.95 229.85 727.25 227.9 727.45 227.05 727.6 226 727.6 225.75 727.65 225.5 726.25 222.9 725.5 220.9 724.6 218.35 724.2 213.15 723.8 207.1 723.45 205.65 722.3 202.85 721.4 200.55 719.8 196.55 718.9 194.1 717.4 190.3 717.35 186.4
M 673.95 196.4
Q 673.3 196.55 672.8 196.8 669.5 198 667.1 198.8 668.2 203.5 668.2 205.65 668.2 212.4 666.15 222.15 665.45 225.1 665.05 227.9 664.55 231.3 664.35 234.45 664.1 237.1 664.1 239.55 664.1 240.3 664.45 247.05 664.85 253.75 664.85 256.05
L 665.7 256.85
Q 666.15 256 672.8 243.05 673.35 238.3 674.9 234.1 675.95 230.9 677.55 227.9 677.55 227.65 677.65 227.5 680.95 221.35 680.95 215.1 680.95 208.2 678.25 203.2 676.1 199.9 674.3 196.9 674.05 196.65 673.95 196.4
M 836.3 192.65
Q 834.55 192.95 832.95 193.5 829.05 194.85 824.75 197.55 824.85 198.55 825 199.7 825.3 203 825.8 206.7 826.75 213.85 827.85 222.45 828.2 224.65 828.45 226.7 828.55 227.3 828.6 227.9 832.45 256.25 832.45 259.35
L 832.45 260.15
Q 836.85 249.6 839.95 237 839.6 236.15 839.25 235.4 837.45 231.2 836.45 227.9 836.2 227.1 836.05 226.25 835.25 223.15 835.25 220.9 835.25 219.65 836.7 211.6 837.1 209 837.45 207.2 838.15 203.35 838.15 202.95 838.15 202.2 838.15 201.4 837.9 198.6 837.1 195.45 836.7 193.9 836.3 192.65
M 949.45 185.05
L 948.75 185.05
Q 948.75 185.2 948.75 185.3 948.75 185.5 948.75 185.75 948.75 186.85 948.75 188.05 948.75 189 948.75 190 948.75 204.25 953.25 217.85 953.85 219.55 954.3 221.35 955 223.55 955.55 225.75 955.8 223.45 956.15 221.35 957.35 213.05 959.7 206.15 960.7 203.25 964.6 194 961.45 191.85 961.1 191.7 957.7 189.5 955.05 187.95 952.6 186.5 950.8 185.65 950.4 185.4 950.05 185.3 949.7 185.15 949.45 185.05
M 928.35 173.65
Q 928.65 178.6 929.5 185.2 929.6 186 929.75 187
L 929.75 187.1
Q 929.85 187.7 929.95 188.2 931.4 199.6 931.4 204.05
L 931.8 204.55
Q 932.25 205.25 932.25 205.75 934.9 197.55 937.7 188.15 937.85 187.35 938.2 186.5 938.35 185.85 938.5 185.2 939.55 181.5 940.75 177.5 939.65 176.85 938.35 176.2 932.5 173.05 930.5 173.05 930 173.05 928.5 173.55 928.4 173.55 928.35 173.65
M 909.05 185.6
Q 909.05 185.35 909.05 185.15 909.05 183.95 909.15 182.95 905.75 184.05 903.1 185.15 901.7 185.65 900.55 186.35 900.05 191.05 900.05 192.55 900.05 200.9 901.15 207.35 901.25 207.95 901.4 208.65 902.1 212.8 903.35 216.3 904.5 219.35 905.25 222.95 905.65 225.35 906.1 227.9 906.7 232.95 906.7 238.7
L 906.7 276.15
Q 906.95 268.4 911.35 241.85 912.05 238 912.5 234.6 912.05 231.8 911.05 227.9 910.85 227.35 910.7 226.7 910.1 224.55 909.7 222.8 908.25 216.45 908.25 213.9 908.25 213.15 909.05 209 909.15 208.8 909.15 208.65 909.25 208.15 909.3 207.7 909.85 204.5 909.85 202.75
L 909.05 185.6
M 1083.85 150.5
Q 1083.35 150.75 1083.05 151 1083.35 155.85 1083.9 161.1 1085.1 172.2 1087.4 184.9
L 1087.4 184.95
Q 1087.9 187.9 1088.4 190.7 1089.45 196.8 1090.2 202.35 1091.85 197.05 1093.35 192.3
L 1093.35 192.2
Q 1094.65 187.95 1095.65 184.65 1098.8 173.75 1098.8 170.6 1098.8 165.4 1097.7 161.9 1094.95 153.05 1093.5 147.35 1089 148 1083.85 150.5
M 1016.7 192.9
Q 1016.7 191.8 1016.7 191.05 1011.1 194.85 1007.25 198.45 1007.6 204.9 1007.6 212.8 1007.6 215.8 1007.6 219.55 1007.6 223.3 1007.7 227.9 1007.7 234.35 1007.8 242.45 1008.45 242.85 1008.95 242.85 1010 237.4 1012.45 227.9 1013.55 223.8 1014.9 218.95 1016.2 213.75 1017.9 207.65 1017.9 207.45 1018 207.35 1017.2 203.75 1017.05 202.35 1016.7 200.4 1016.7 192.9
M 1039.95 159.25
Q 1039.8 159.45 1039.7 159.7 1040.15 168.95 1041.2 179.45 1041.5 182.7 1041.95 186.15 1042.85 194.45 1044.15 203.35 1045.15 209.95 1046 215.8 1046.85 222.35 1047.7 227.9 1051.8 256 1051.9 258.55
L 1052 259.05
Q 1052.25 259.65 1052.75 260.15 1052.05 242.45 1051.9 227.9 1051.85 221.1 1051.85 215.05 1051.85 212.65 1051.9 210.5 1049.75 201.1 1047.1 192.4 1046.55 190.4 1046.25 186.1 1046.1 183.55 1046.1 180.3 1046 178.25 1046 175.95 1046 166.5 1046.15 164.8 1046.35 162.75 1047.1 159.5 1047.35 158.25 1047.8 156.8 1046.6 156.55 1046 156.55 1042.25 156.55 1040.45 158.55 1040.2 158.9 1039.95 159.25
M 1154.3 182.65
Q 1154.85 187 1155.35 191.55 1156.6 203.45 1156.85 216.3 1157.25 233.35 1156.7 254.4 1156.8 256.05 1161.45 275.4 1165.55 292.2 1164.1 301.4
L 1164.2 301.8
Q 1164.45 302.25 1164.95 302.25 1166.65 279.4 1168.45 261.95 1167.25 257.35 1165.65 252.75 1162.3 242.6 1162.3 236.6 1162.3 231.45 1166.85 222.95 1171.35 214.45 1171.35 205.4 1171.35 202.45 1170.95 195 1170.7 191.05 1170.6 188.15 1170.5 185.6 1170.5 183.8 1170.5 182.85 1170.5 182.05 1170.6 179.2 1170.75 176.95 1161.2 181.4 1154.2 182.3 1154.2 182.5 1154.3 182.65
M 1134.25 197
Q 1134.65 191.95 1134.65 191.2 1134.65 187.85 1133.2 183.35 1132.75 182.25 1132.25 181 1130.3 176.05 1130.15 168.55 1128.1 167.7 1125.6 166.85
L 1122.55 166.85
Q 1123.35 174.85 1124.7 183.7 1125.5 189.75 1126.55 196.05 1126.8 197.4 1127.05 198.8 1127.75 202.85 1128.55 207.45 1130.15 216.65 1132.2 227.9 1132.45 229.6 1132.75 231.3
L 1133.55 231.3
Q 1133.55 229.6 1133.55 227.9 1133.65 219.3 1134.05 210.85 1134.15 208.65 1134.3 206.45 1134.3 206.15 1134.4 205.9 1134 204.9 1133.9 204 1133.8 203.6 1133.8 201.1 1134.05 198.7 1134.25 197
M 1211.8 120.25
Q 1211.8 115.75 1210.95 111.45 1210.45 108.75 1210.3 105.95 1209.15 105.85 1208.05 105.85 1201.3 105.85 1196.7 109.85 1196.65 109.95 1196.55 110.05 1202.85 130.05 1202.85 138.4 1202.85 147.75 1199.2 163.5 1198.35 167 1197.65 170 1196.1 177.2 1195.7 181.15 1195.45 182.7 1195.45 183.8 1195.45 189.55 1201.65 212.9 1207.8 236.25 1207.8 242.05
L 1208.25 242.95
Q 1208.6375 243.7734375 1208.65 244.35 1208.6486328125 232.170703125 1207.8 213.15 1207.8 195.6 1207.8 195.35 1207.8 194.7 1207.8 194 1205.6 188.3 1204.7 182.55 1204.55 181.65 1204.45 180.8 1203.95 177.35 1203.95 173.9 1203.95 172.45 1204.15 170.6 1204.75 163.1 1207.9 147.1 1211.8 127.05 1211.8 120.25 Z"/>

<path fill="#8FE6F1" stroke="none" d="
M 142.35 114.05
Q 142.8 113.75 143.4 113.6 146.85 112.5 151.15 111.9 151.2 106.8 151.15 101.3 145.6 102.65 137.6 105.5 135.7 106.2 134.1 106.75 134.8 111.05 136.15 116.85 139 115.05 142.35 114.05
M 92 82.45
Q 91.1 81.95 90.35 81.95 81.7 81.95 74.35 90.1 73.2 91.4 71.45 93.8 70.9 100.75 70.5 108.95 70.55 108.65 70.75 108.4 74.75 102.8 82.1 101.7
L 82.15 101.7
Q 85.65 101.1 90.6 99.75 90.85 96.6 91.15 92.65 91.7 86.95 92 82.45
M 307.55 131.35
Q 302.5 133.15 297.85 133.15 294.1 133.15 286.75 128.6 282 125.65 278 124.65 277.85 127.6 277.15 131 276.35 134.95 276.35 138.4 276.35 140 276.45 141.4 276.9 141.3 277.4 141.2 279.55 140.9 290.35 140.9 294.95 140.9 297.75 140.95 301.45 141.05 302.1 141.3 303.1 141.65 305.95 143.05 306.8 139.25 307.3 134.2 307.4 132.7 307.55 131.35
M 185.1 119.4
Q 186.1 116.1 187.05 113.1 181.75 105.75 173.4 102.65 173.5 108.5 173.75 115.3 174.05 115.3 174.45 115.3 178.2 115.3 180.6 116.4 182.45 117.3 185.1 119.4
M 226.45 142.55
Q 226.3 143.2 226.2 143.95 225.95 146.6 226.05 148.7 226.05 149.05 226.45 154.15 227.7 153.3 229.35 152.1 236.45 147.6 240.45 147.1 240.9 147 241.3 147 244.85 146.6 251.25 146.4 251.85 145.55 252.45 144.45 256.15 138.05 257.8 130.3 252.05 132.95 247.95 134.8 236.6 139.9 226.45 142.55
M 452.15 142.8
Q 453.15 139.5 455.55 133.55 451.65 132.35 447.95 132.35 441.75 132.35 431.55 140.7 431.6 145.05 431.95 149.3 434.1 147.6 437.4 145.9 440.05 144.6 442.6 143.85 447.45 142.4 452.15 142.8
M 483.55 146.4
Q 476.5 144.35 470.2 140.95 465.1 138 461.8 136.25 461.6 141.8 461.25 150.65 463.2 150.4 464 150.4 467.05 150.4 469.3 151.6 470.7 152.35 473.45 154.4 474.45 155.1 475.65 155.75 479.05 157.4 483.8 158.4 484.05 152.95 483.55 146.4
M 398.05 172.7
Q 396.05 172.7 393.65 173.05 392.35 173.25 390.9 173.5 391.25 177.4 391.6 181.05 395.35 180.05 400.25 178.35 401.15 178 402.15 177.65 403.35 177.3 404.45 176.85 405.9 176.3 407.2 175.8 408.1 169.6 408.6 163.75 407.1 165.3 406.05 166.4 399.95 172.7 398.05 172.7
M 347.9 146.3
Q 334.9 134.7 327.55 131.5 327.75 137.05 328.15 143.25 333.95 144.95 340.05 148.7 340.35 148.95 340.75 149.2 343.15 150.75 346.65 153.2 347.3 149.55 347.9 146.3
M 509.8 153.3
Q 510.45 153.3 511.5 153.45 511.85 151.35 512 149.65 509.95 149.65 507.75 149.65 503.05 149.65 498.55 149.2 498.75 152.35 498.8 156.2 500.6 155.5 502.55 154.9 508 153.3 509.8 153.3
M 622.55 173.65
Q 622.2 173.55 622 173.65
L 622 173.75
Q 622.4 177.9 622.9 182 622.95 182.25 622.95 182.55 623.3 182.3 623.7 182.05 624 181.8 624.25 181.65 624.65 181.3 628.15 181.3 630.95 181.3 633.2 182.65 634.95 183.7 636.35 185.6 637.45 187.1 639.05 189.75 640.15 186.15 640.85 183.3 641.7 179.75 642.05 177.15 640.95 176.55 640 176.1 633.7 173.55 624.05 173.55 623.3 173.55 622.55 173.65
M 579.45 183.1
Q 579.45 183.45 579.5 183.85 579.6 186.1 579.85 188.5 579.95 189.8 580.05 191.2 583.1 189.9 587.8 189.15 588.5 189.05 589.3 189 589.5 188.9 589.65 188.9 590.25 188.8 598.35 188.65 597.25 183.45 596.75 180.8 596.65 180.05 596.55 179.6 596.5 178.85 596.5 178.4 594.25 179.1 591.95 179.75 590.6 180.15 589.4 180.55 584.15 182.05 579.45 183.1
M 783.5 183.95
Q 785.6 184.05 786.15 184.3 786.95 184.7 789.45 186.1 790.05 186.35 790.8 186.75 790.8 186.4 790.9 186.1 792.1 180.8 793.1 176.7 789 175.2 784.4 173.55 780.35 172.1 776.75 170.85 777.25 176.55 777.65 183.85 778.3 183.8 778.9 183.8 781.7 183.8 783.5 183.95
M 762.05 177.35
Q 762.45 175.2 762.8 173.5 763.65 168.8 764.05 166.8 753.75 163.85 747.1 163.1 747.55 168.2 748.3 174.15 750.85 173.9 751.9 173.9 752.8 173.9 754.05 174.15 755.95 174.55 758.7 175.7 760.15 176.35 761.9 177.3 761.95 177.3 762.05 177.35
M 727 171.95
Q 727.5 170.6 727.9 169.3 722 173.75 718 176.45 714.75 178.75 711.35 180.65 711.15 183.35 711.15 186.4 711.15 187.5 711.15 188.75 711.15 189.9 711.25 191.05 714 188.2 717.35 186.4
L 717.4 186.4
Q 719.7 185.15 722.35 184.3 723.7 183.85 725.15 183.55 725.35 176.8 727 171.95
M 665.05 189.65
Q 665.45 192.05 666.15 194.6 666.4 195.5 666.55 196.3 666.9 197.55 667.1 198.8 669.5 198 672.8 196.8 673.3 196.55 673.95 196.4 675.75 195.7 677.8 194.95 682.45 193.4 684.95 193.35 684.75 191.2 684.6 189.25 678.5 190.05 671.9 190.05 668.2 190.05 665.05 189.65
M 823.65 185.75
Q 824 190.6 824.75 197.55 829.05 194.85 832.95 193.5 834.55 192.95 836.3 192.65 840.5 191.6 845.65 191.6 845.65 190.8 845.65 190 845.65 187.5 845.65 185.5 845.55 178.1 845.2 177.4 844.3 176.6 843.15 175.2 842.4 176.05 841.5 176.85 834.55 183.2 823.6 184.1 823.6 184.95 823.65 185.75
M 948.75 185.05
L 949.45 185.05
Q 949.7 185.15 950.05 185.3 950.4 185.4 950.8 185.65 952.6 186.5 955.05 187.95 957.7 189.5 961.1 191.7 961.45 191.85 964.6 194 965.65 191.45 966.9 188.4 967.05 188.05 967.15 187.85 967.6 186.7 968 185.6 968.2 185.2 968.35 184.9 968.5 184.35 968.7 184.05 965.7 181.9 963.65 180.9 956.1 177.15 949.2 173.25 949 175 948.9 177.2 948.85 179.85 948.75 185.05
M 916.55 172.9
Q 917.05 169.2 917.45 166.15 909.3 167.8 903.1 172.65 902.55 173.15 901.95 173.65 901.75 174.5 901.7 175.45 901.05 181.25 900.65 185.15 900.55 185.75 900.55 186.35 901.7 185.65 903.1 185.15 905.75 184.05 909.15 182.95 909.95 182.65 910.85 182.4 913.15 181.75 915.45 181.15 915.9 177.65 916.55 172.9
M 928.1 165.2
Q 928.1 165.3 928.1 165.4 928.1 166.55 928.1 167.7 928.1 170.25 928.35 173.65 928.4 173.55 928.5 173.55 930 173.05 930.5 173.05 932.5 173.05 938.35 176.2 939.65 176.85 940.75 177.5 941.6 174.05 942.65 170.5 942.8 170 942.95 169.5 940.3 167.95 937.85 166.3 937.75 166.25 937.7 166.25 936.1 165.15 934.45 165.05 931.55 165.2 928.1 165.2
M 1093.5 147.35
Q 1094.95 147.1 1096.5 147.1 1099.85 147.1 1107.5 151.6 1107.85 148.25 1108.4 143.85 1108.35 143.75 1108.25 143.7 1099.05 138 1091.5 138 1086.7 138 1082.55 140.35 1082.6 145.45 1083.05 151 1083.35 150.75 1083.85 150.5 1089 148 1093.5 147.35
M 1008.55 187
Q 1007.55 188.3 1006.75 189.5 1007 193.5 1007.25 198.45 1011.1 194.85 1016.7 191.05 1016.95 190.8 1017.2 190.6 1020 188.75 1022.55 187.2 1022.55 186.95 1022.65 186.7 1022.95 183.6 1022.95 181.3 1022.85 178.65 1022.65 176.3 1022.4 171.7 1022.15 167.6 1021 169.3 1019.85 171 1018.25 173.25 1016.85 175.35 1012.25 182 1008.55 187
M 1044.9 138.85
Q 1043.7 138.85 1039.35 144.1 1039.3 151.2 1039.7 159.25 1039.6 159.45 1039.7 159.7 1039.8 159.45 1039.95 159.25 1040.2 158.9 1040.45 158.55 1042.25 156.55 1046 156.55 1046.6 156.55 1047.8 156.8 1050.25 157.2 1054.95 158.95 1056.05 159.25 1056.95 159.7 1058.1 154.25 1059.05 149.8 1057.7 148.4 1056.2 146.65 1049.6 138.85 1044.9 138.85
M 1134.65 164.55
Q 1134.65 164.2 1134.75 163.95 1130.55 160.7 1124.95 156.2 1123.1 154.65 1121.45 153.35 1121.7 158.3 1122.2 163.6 1122.4 165.2 1122.55 166.85
L 1125.6 166.85
Q 1128.1 167.7 1130.15 168.55 1132.75 169.6 1134.75 170.5 1134.4 167.95 1134.4 167.25 1134.4 166 1134.65 164.55
M 1170.15 161.9
Q 1168.8 164.95 1167.5 167.25 1163.2 174.3 1158.75 174.3 1155.85 174.3 1152.8 173.55 1153.55 177.85 1154.2 182.3 1161.2 181.4 1170.75 176.95 1171.8 176.35 1172.85 175.85 1176.15 174.25 1178.95 172.55 1178.75 170.5 1178.45 168.2 1177.3 161.3 1173.85 152 1171.8 158.05 1170.15 161.9
M 1193.55 94.55
Q 1194.18984375 95.140625 1195.05 95.15 1193.6345703125 95.1654296875 1192.05 96.75 1193.4 100.65 1195.05 105.5 1195.8 107.8 1196.55 110.05 1196.65 109.95 1196.7 109.85 1201.3 105.85 1208.05 105.85 1209.15 105.85 1210.3 105.95 1214.6 106.2 1218.8 107.8 1219.1 103.4 1219.3 99.25 1196.45 93.1 1193.55 94.55 Z"/>

<path fill="#D8EEFF" stroke="none" d="
M 530.65 129.55
Q 528.55 128.5 526.55 127.5 519.85 124.1 517.05 122.8 508.851953125 119.15078125 494.35 119.15 494.56171875 119.14609375 495.3 118.9 487.9 118.9 455.35 121.6 433.4 121.6 420.8 110.05 412.3 102.3 412.05 102.1 407 98.45 400.5 98.45 390.85 98.45 374.4 105.1 357.85 111.65 351.85 111.65 336.4 111.65 327.3 106.55 320.9 102.9 315.95 95.2 309.35 85.05 308.3 83.9 303.3 78.7 294.95 78.7 288 78.7 269.75 83.65 251.45 88.6 244.6 88.6 225.95 88.6 217.55 78.3 212.35 71.85 211.5 71.2 207.8 67.95 201.7 67.95 196.6 67.95 191 69.25 185.35 70.45 179.85 70.45 168.5 70.45 162.85 66.6 159.05 63.95 156.75 58.1 154 51.15 152.55 49.5 149.15 45.6 141.5 45.6 124.25 50.6 121.3 50.6 108.65 50.6 102.8 47.2 99.25 45.2 96.2 39.85 93.05 34.5 89.45 32.5 83.4 29.15 70.55 29.15 60.1 29.15 53.8 33.3 45.65 40.5 38.65 46.45 26.9 58.9 18.55 66.9 18.35 67.15 18.1 67.4 10.7 74.35 4.05 78.7 3.3 82.35 3.3 86.05 3.3 96.95 10.8 114.15 19.4 133.95 28.5 133.95 39.75 133.95 48.7 125.8 54.55 120.45 62.2 108 67.9 98.65 71.45 93.8 73.2 91.4 74.35 90.1 81.7 81.95 90.35 81.95 91.1 81.95 92 82.45 96.35 84.5 105.3 96.4 116.15 110.9 119.2 110.9 122.1 110.9 134.1 106.75 135.7 106.2 137.6 105.5 145.6 102.65 151.15 101.3 155.9 100.15 158.8 100.15 166.95 100.15 173.4 102.65 181.75 105.75 187.05 113.1 190.05 117.3 192.05 122.8 194.2 128.5 197.1 138.4 200 145.55 205 145.55 215 145.55 226.45 142.55 236.6 139.9 247.95 134.8 252.05 132.95 257.8 130.3 260.55 128.95 263.7 127.45 271 124.1 273.9 124.1 275.85 124.1 278 124.65 282 125.65 286.75 128.6 294.1 133.15 297.85 133.15 302.5 133.15 307.55 131.35 308.75 130.8 310.1 130.25 316.4 127.35 326.35 131 326.95 131.15 327.55 131.5 334.9 134.7 347.9 146.3 352.35 150.3 357.55 155.4 364 161.85 369.3 166.15 381.1 175.7 386.15 174.5 388.7 173.9 390.9 173.5 392.35 173.25 393.65 173.05 396.05 172.7 398.05 172.7 399.95 172.7 406.05 166.4 407.1 165.3 408.6 163.75 412.3 159.75 419 152.55 425.85 145.35 431.55 140.7 441.75 132.35 447.95 132.35 451.65 132.35 455.55 133.55 457.4 134.15 459.3 135.05 460.4 135.5 461.8 136.25 465.1 138 470.2 140.95 476.5 144.35 483.55 146.4 490.65 148.45 498.55 149.2 503.05 149.65 507.75 149.65 509.95 149.65 512 149.65 523.1 149.4 527.95 148 535.35 145.9 535.35 140.15 535.35 137.35 531.6 130.9 531.15 130.15 530.65 129.55
M 820.2 145.55
Q 818.15 144.95 816 144.35 810.2 142.8 805.1 141.55 801 140.45 797.45 139.6 795.8 139.15 794.3 138.85 787.55 137.3 782.7 136.25 775.05 134.8 771.8 134.8 757.6 134.8 752.4 138.05 747.2 141.4 740.45 141.4 734.25 141.4 722.7 139.35 711.15 137.3 705.4 137.3 702.15 137.3 693.9 140.55 685.65 143.85 681.8 143.85 675.95 143.85 667 138.05 658.05 132.35 651.65 132.35 644.4 132.35 637 135.95 634.2 137.3 624.25 143.6 607.65 154.1 592.3 152.1 577.5 150.2 558.75 157.45 546.4 163.1 537.85 166.55 537.9 175.35 539.4 179.25 539.85 180.3 540.35 181 544.1 185.9 558.5 185.9 567.2 185.9 579.45 183.1 584.15 182.05 589.4 180.55 590.6 180.15 591.95 179.75 594.25 179.1 596.5 178.4 612.05 174.05 622 173.65 622.2 173.55 622.55 173.65 623.3 173.55 624.05 173.55 633.7 173.55 640 176.1 640.95 176.55 642.05 177.15 645.2 178.75 648.85 181.8 650.8 183.3 652.4 184.55 655.25 186.6 657.35 187.5 660.7 189 665.05 189.65 668.2 190.05 671.9 190.05 678.5 190.05 684.6 189.25 691.6 188.3 697.95 186.35 704.95 184.1 711.35 180.65 714.75 178.75 718 176.45 722 173.75 727.9 169.3 729.25 168.3 730.7 167.1 737.25 162.85 743.25 162.85 745 162.85 747.1 163.1 753.75 163.85 764.05 166.8 766.85 167.6 770.05 168.6 773.25 169.6 776.75 170.85 780.35 172.1 784.4 173.55 789 175.2 793.1 176.7 814.75 184.3 819.65 184.3 821.7 184.3 823.6 184.1 834.55 183.2 841.5 176.85 842.4 176.05 843.15 175.2 848.9 169.05 848.9 160.35 849.05 159.2 849.15 158.25 849.4 155.6 849.5 154 839 150.55 820.2 145.55
M 1257.45 47.3
Q 1256.75 45.85 1256 44.65 1247.55 42.35 1243.4 42.35 1234.3 42.35 1227.7 45.5 1224.8 46.75 1217.5 52.15 1211.2 56.65 1205.5 58.5 1197.1 61.15 1184.8 60.45 1174.75 59.9 1156.55 69.15 1137.8 78.6 1127.4 78.6 1115.85 78.6 1099.2 72 1082.55 65.4 1081.2 65.4 1076.85 65.4 1074 67.7 1073.6 68.15 1069.75 72.85 1063.55 80.25 1049.85 80.25 1037.25 80.25 1018.25 74.1 999.35 67.9 990.9 67.9 983.6 67.9 977.55 78.55 970.8 92.55 966.15 99.25 960.6 107.15 946.25 113.6 934.9 118.65 929 119.05 908.5 120.25 907.55 120.35 896.2 121.45 888.4 124.15 875.45 128.7 866.5 140.45 867.15 143.05 868.2 146.05 870.1 151.5 872.9 158.65 873.25 159.5 873.65 160.45 881.65 180.05 885.75 180.05 891.65 180.05 896.05 177.75 897.65 176.85 901.95 173.65 902.55 173.15 903.1 172.65 909.3 167.8 917.45 166.15 921.6 165.2 926.3 165.2 926.45 165.2 926.55 165.2 927.4 165.2 928.1 165.2 931.55 165.2 934.45 165.05 936.1 165.15 937.7 166.25 937.75 166.25 937.85 166.3 940.3 167.95 942.95 169.5 945.95 171.45 949.2 173.25 956.1 177.15 963.65 180.9 965.7 181.9 968.7 184.05 969.2 184.35 969.8 184.8 970.3 185.2 971 185.65 972.25 186.6 973.55 187.7 977.05 190.4 981.2 194.1 991.5 203.2 993.8 203.2 996.45 203.2 1006.75 189.5 1007.55 188.3 1008.55 187 1012.25 182 1016.85 175.35 1018.25 173.25 1019.85 171 1021 169.3 1022.15 167.6 1025.4 162.9 1028.2 159 1035.2 149.15 1039.35 144.1 1043.7 138.85 1044.9 138.85 1049.6 138.85 1056.2 146.65 1057.7 148.4 1059.05 149.8 1063.3 154.5 1065.1 154.5 1067.6 154.5 1070.25 151.95 1071.8 150.4 1075.1 146.25 1078.55 142.3 1082.55 140.35 1086.7 138 1091.5 138 1099.05 138 1108.25 143.7 1108.35 143.75 1108.4 143.85 1113.05 146.65 1121.45 153.35 1123.1 154.65 1124.95 156.2 1130.55 160.7 1134.75 163.95 1135.25 164.2 1135.75 164.65 1139.2 167.1 1141.65 168.6 1147.5 172.15 1152.8 173.55 1155.85 174.3 1158.75 174.3 1163.2 174.3 1167.5 167.25 1168.8 164.95 1170.15 161.9 1171.8 158.05 1173.85 152 1176.15 144.85 1178.85 134.7 1184.65 113 1186.6 107.5 1189.4 99.65 1192.05 96.75 1193.6345703125 95.1654296875 1195.05 95.15 1194.18984375 95.140625 1193.55 94.55 1193.065625 94.6953125 1193.05 95.1 1193.0533203125 94.1033203125 1193.3 94.35 1193.4 94.45 1193.55 94.55 1196.45 93.1 1219.3 99.25 1221.7 99.9 1224.4 100.65 1255.75 109.3 1255.75 110.8 1262.35 110.55 1265.7 102.55 1268.1 96.65 1268.1 89.35 1268.1 67.2 1257.45 47.3 Z"/>

<path fill="#EAF7FD" stroke="none" d="
M 526.55 127.5
Q 528.55 128.5 530.65 129.55 526.75 123.3 521.35 117.55 505.2 100.15 489.6 100.15 483.5 100.15 466.6 105.5 449.75 110.9 448.75 110.9 443.8 110.9 433.85 97.7 423.8 84.4 421.55 84.4 417.25 84.4 392 90.65 366.75 96.85 359.65 96.85 349.6 96.85 343.25 91.05 340.15 88.1 334.05 78.3 328.5 69.3 323.15 65.4 315.05 59.65 301.95 59.65 294.5 59.65 264.95 67.45 236.95 75.3 236.8 75.3 232 75.3 229.2 71.45 227.7 69.35 225.3 62.95 223.05 56.9 221 54.45 217.7 50.6 212 50.6 207.5 50.6 196.6 53.85 185.7 57.15 183.55 57.15 177.85 57.15 174.3 52.05 172.1 48.8 169.45 40.65 166.7 32.3 164.85 29.4 161.6 24.2 156.35 24.2 147.55 24.2 130.75 28.7 114 33.25 113.05 33.25 111.45 33.25 108.9 28.45 104.6 20.45 102.9 18 92.4 2.75 74.65 2.75 52.75 2.75 37.95 23.75 32.35 31.7 26.55 45.15 22.35 54.85 18.1 67.4 18.35 67.15 18.55 66.9 26.9 58.9 38.65 46.45 45.65 40.5 53.8 33.3 60.1 29.15 70.55 29.15 83.4 29.15 89.45 32.5 93.05 34.5 96.2 39.85 99.25 45.2 102.8 47.2 108.65 50.6 121.3 50.6 124.25 50.6 141.5 45.6 149.15 45.6 152.55 49.5 154 51.15 156.75 58.1 159.05 63.95 162.85 66.6 168.5 70.45 179.85 70.45 185.35 70.45 191 69.25 196.6 67.95 201.7 67.95 207.8 67.95 211.5 71.2 212.35 71.85 217.55 78.3 225.95 88.6 244.6 88.6 251.45 88.6 269.75 83.65 288 78.7 294.95 78.7 303.3 78.7 308.3 83.9 309.35 85.05 315.95 95.2 320.9 102.9 327.3 106.55 336.4 111.65 351.85 111.65 357.85 111.65 374.4 105.1 390.85 98.45 400.5 98.45 407 98.45 412.05 102.1 412.3 102.3 420.8 110.05 433.4 121.6 455.35 121.6 487.9 118.9 495.3 118.9 495.85 118.7 496.5 118.4 497.45 117.95 497.45 119.15 497.45 118.9 495.3 118.9 494.56171875 119.14609375 494.35 119.15 508.851953125 119.15078125 517.05 122.8 519.85 124.1 526.55 127.5
M 846.65 145.05
Q 845.9 143.35 844.8 141.4 843.05 138 831.15 137.8 817.45 137.55 815.1 136.45 804.2 131.5 792.75 123 788.6 119.95 774.6 119.95 765.5 119.95 743.65 124.85 721.8 129.85 719.35 129.85 715.45 129.85 711.7 126.15 707.85 122.4 700.35 122.4 695.75 122.4 690.15 124.5 684.5 126.55 679.35 126.55 670.5 126.55 670.4 124.85 670.4 123.25 658.3 123.25 648.15 123.25 633.55 129.85 618.95 136.45 607.95 136.45 597.35 136.45 594.5 132.7 592.95 130.65 592.15 130.15 590.15 129 585.7 129 576.3 129 565.9 136.25 559.8 141.4 555.1 145.05 549.75 146.25 547.15 147.4 537.85 151.5 537.85 165.75 537.85 166.15 537.85 166.55 546.4 163.1 558.75 157.45 577.5 150.2 592.3 152.1 607.65 154.1 624.25 143.6 634.2 137.3 637 135.95 644.4 132.35 651.65 132.35 658.05 132.35 667 138.05 675.95 143.85 681.8 143.85 685.65 143.85 693.9 140.55 702.15 137.3 705.4 137.3 711.15 137.3 722.7 139.35 734.25 141.4 740.45 141.4 747.2 141.4 752.4 138.05 757.6 134.8 771.8 134.8 775.05 134.8 782.7 136.25 787.55 137.3 794.3 138.85 795.8 139.15 797.45 139.6 801 140.45 805.1 141.55 810.2 142.8 816 144.35 818.15 144.95 820.2 145.55 839 150.55 849.5 154 849.5 153.05 849.4 152.35 849.25 150.3 846.65 145.05
M 1227.7 45.5
Q 1234.3 42.35 1243.4 42.35 1247.55 42.35 1256 44.65 1246.05 27.45 1235.15 27.45 1216.5 27.45 1195.95 38.6 1189.65 42.1 1183.65 46.25 1179 49.75 1178.95 49.75 1175.6 49.75 1172.45 43.1 1169.3 36.55 1164.55 36.55 1149.1 36.55 1130.15 47.7 1121.1 53.3 1117.35 55.35 1111.05 58.8 1107.6 58.8 1103.5 58.8 1096.3 55.55 1089 52.2 1081.2 52.2 1071.3 52.2 1070 52.7 1068.05 53.4 1059.35 60.45 1059.2 60.65 1056.7 63.35 1054.4 66.1 1051.9 67.9 1050.1 69.3 1041.35 70.45 1034.2 71.35 1033.15 71.3 1033.046875 71.3015625 1032.95 71.35 1032.95 73.65 1032.65 71.95 1032.55 71.55 1032.95 71.35 1032.95 71.30078125 1032.95 71.2 1032.9533203125 71.2984375 1033.15 71.3 1033.384375 71.20625 1033.6 71.2 1023.9359375 71.1845703125 1015.2 61.7 1010.75 56.9 1008.1 55.2 1003.6 52.2 997.45 52.2 984.35 52.2 973.8 61 966.4 67.05 957.7 80.25 946.8 96.65 944.35 99.55 936.85 108.35 929 108.35 926.35 108.35 917.25 103.4 907.95 98.4 903.45 98.4 891.9 98.4 878.2 115 869.3 125.8 865.15 135.25 865.55 137.55 866.5 140.45 875.45 128.7 888.4 124.15 896.2 121.45 907.55 120.35 908.5 120.25 929 119.05 934.9 118.65 946.25 113.6 960.6 107.15 966.15 99.25 970.8 92.55 977.55 78.55 983.6 67.9 990.9 67.9 999.35 67.9 1018.25 74.1 1037.25 80.25 1049.85 80.25 1063.55 80.25 1069.75 72.85 1073.6 68.15 1074 67.7 1076.85 65.4 1081.2 65.4 1082.55 65.4 1099.2 72 1115.85 78.6 1127.4 78.6 1137.8 78.6 1156.55 69.15 1174.75 59.9 1184.8 60.45 1197.1 61.15 1205.5 58.5 1211.2 56.65 1217.5 52.15 1224.8 46.75 1227.7 45.5 Z"/>
</g>
</defs>

<g transform="matrix( 1, 0, 0, 1, 0,0) ">
<use xlink:href="#Layer0_0_FILL"/>
</g>
</svg>
