
<svg xmlns="http://www.w3.org/2000/svg" version="1.1" xmlns:xlink="http://www.w3.org/1999/xlink" preserveAspectRatio="none" x="0px" y="0px" width="560px" height="360px" viewBox="0 0 560 360">
<defs>
<g id="______________3_Layer4_0_FILL">
<path fill="#000000" fill-opacity="0.2" stroke="none" d="
M 318.75 188.9
L 290.55 174.8 56.85 179.65 -64.3 179.65 -68.25 189.35 -48.9 196.15 -35.45 196.15
Q -12.85 220.85 23.8 236.45 69.45 254.85 120.25 256.5 191 258.6 239.2 232.5 269.8 217.1 285.45 196.8
L 307.05 196.8 318.75 188.9 Z"/>
</g>

<g id="______________3_Layer3_0_FILL">
<path fill="#8B8C8F" stroke="none" d="
M -26.05 87.7
Q -24.9984375 84.553515625 -23.55 81.5 -37.80625 104.86328125 -42.35 138.95 -42.183984375 138.2630859375 -42.05 137.55 -42.43046875 140.358984375 -42.85 143.25 -43.0763671875 145.438671875 -43.3 147.65 -43.3298828125 147.94296875 -43.35 148.2 -43.4578125 149.3662109375 -43.55 150.5 -43.5220703125 151.845703125 -43.5 153.2 -43.4693359375 153.458984375 -43.45 153.7 -43.4392578125 153.974609375 -43.45 154.25 -42.7037109375 169.3435546875 -34.65 182.75 -34.1 183.7 -33.5 184.7 -30.0486328125 189.995703125 -25.45 195
L -13.1 140.7 -13.15 140.65
Q -16.6650390625 136.8220703125 -19.4 132.8 -19.95 131.95 -20.45 131.1 -26.7138671875 121.0947265625 -28.1 110 -28.3625 107.93359375 -28.45 105.8 -28.55 104.6 -28.55 103.5 -28.55 99.8 -28 96.25 -27.380859375 91.89453125 -26.05 87.7
M 16.5 162.9
Q 8.3619140625 158.429296875 1.75 153.65
L -8.35 210.05
Q -1.8572265625 214.795703125 5.9 219.25 7.25 219.95 8.55 220.75 12.555078125 222.947265625 16.7 224.95
L 26.1 167.75
Q 22.44921875 166.065625 18.9 164.2 17.7 163.5 16.5 162.9
M 273.8 81.45
Q 277.1958984375 88.575390625 278.25 96.25 278.8 99.65 278.8 103.1 278.8 103.3 278.8 103.5 278.8 106.7681640625 278.4 109.95 277.0205078125 120.9876953125 270.85 131 259.9 148.6 233.75 162.9 188.8 187.6 125.15 187.6 95.95 187.6 70.65 182.4
L 63.95 241.35
Q 172.0423828125 242.3001953125 236.1 201.05 291.215625 166.3009765625 287.6 116.25 281.775 93.0158203125 273.8 81.4
L 273.8 81.45 Z"/>

<path fill="#737477" stroke="none" d="
M 70.65 182.4
Q 46.6 177.394921875 26.1 167.75
L 16.7 224.95
Q 38.498828125 235.61796875 63.95 241.35
L 70.65 182.4
M 1.75 153.65
L 1.7 153.65
Q -1.1326171875 151.601953125 -3.7 149.5 -8.9533203125 145.2166015625 -13.1 140.7
L -25.45 195
Q -21.3119140625 199.5451171875 -16.25 203.85 -12.56640625 207.021484375 -8.35 210.05
L 1.75 153.65
M 293.8 147.85
Q 292.708984375 140.561328125 291.45 133.9 289.6837890625 124.3705078125 287.6 116.25 291.215625 166.3009765625 236.1 201.05 172.0423828125 242.3001953125 63.95 241.35 64.6494140625 241.496875 65.35 241.65 93.15 247.6 125.2 247.6 195.1 247.6 244.45 219.25 273.15 202.85 285.15 182.65 293.6662109375 168.1966796875 293.9 151.95 293.8986328125 151.8251953125 293.9 151.7 293.8984375 151.4544921875 293.9 151.2 293.9 151.13046875 293.9 151.05 293.8666015625 149.4525390625 293.8 147.85 Z"/>

<path fill="#F4F4F4" stroke="none" d="
M 35.75 155
L 26.1 167.75
Q 46.6 177.394921875 70.65 182.4
L 77.25 167.45
Q 54.6595703125 163.3271484375 35.75 155
M 1.3 130.7
Q 0.6447265625 129.80546875 0.05 128.9
L -13.15 140.65 -13.1 140.7
Q -8.9533203125 145.2166015625 -3.7 149.5 -1.1326171875 151.601953125 1.7 153.65
L 13.4 142.45
Q 6.5845703125 137.41328125 2.2 131.9 1.75 131.3 1.3 130.7 Z"/>

<path fill="#D3D6D7" stroke="none" d="
M 15.55 144
Q 14.4564453125 143.2423828125 13.4 142.45
L 1.7 153.65 1.75 153.65
Q 8.3619140625 158.429296875 16.5 162.9 17.7 163.5 18.9 164.2 22.44921875 166.065625 26.1 167.75
L 35.75 155
Q 35.2865234375 154.817578125 34.8 154.6 33.75 154.1 32.75 153.65 22.85 149.05 15.55 144
M 273.8 81.4
Q 269.1623046875 71.65234375 260.15 62.9 249.8 52.8 233.75 44 229.25 41.5 224.45 39.3 214.25 34.45 203.2 30.85 186.35 25.3 167.5 22.5 147.5 19.45 125.15 19.45 61.5 19.45 16.5 44 -13.51953125 60.4287109375 -23.55 81.45
L -23.5 81.45 -23.55 81.5
Q -24.9984375 84.553515625 -26.05 87.7 -27.380859375 91.89453125 -28 96.25 -28.55 99.8 -28.55 103.5 -28.55 104.6 -28.45 105.8 -28.3625 107.93359375 -28.1 110 -26.7138671875 121.0947265625 -20.45 131.1 -19.95 131.95 -19.4 132.8 -16.6650390625 136.8220703125 -13.15 140.65
L 0.05 128.9
Q -5.051953125 121.091015625 -5.5 112.4 -5.55 111.55 -5.55 110.75 -5.55 108.05 -5.1 105.5 -2.9134765625 92.4111328125 10.2 81.45 12.3904296875 79.6462890625 14.85 77.9 22.408984375 72.5576171875 32.75 67.75 71 50 125.15 50 144.15 50 161.15 52.2 177.2 54.25 191.5 58.25 200.9 60.85 209.6 64.35 213.65 65.95 217.5 67.75 227.8568359375 72.56796875 235.4 77.9 237.826953125 79.6388671875 239.95 81.4 239.9802734375 81.425 240 81.45 253.2048828125 92.380078125 255.35 105.5 255.8 107.95 255.8 110.45 255.8 110.6 255.8 110.75 255.8 121.3 249.05 130.6 239.75 143.35 217.5 153.65 179.25 171.5 125.15 171.5 100.3 171.5 78.8 167.75 78.0416015625 167.6162109375 77.25 167.45
L 70.65 182.4
Q 95.95 187.6 125.15 187.6 188.8 187.6 233.75 162.9 259.9 148.6 270.85 131 277.0205078125 120.9876953125 278.4 109.95 278.8 106.7681640625 278.8 103.5 278.8 103.3 278.8 103.1 278.8 99.65 278.25 96.25 277.1958984375 88.575390625 273.8 81.45
L 273.8 81.4 Z"/>

<path fill="#333333" stroke="none" d="
M 240 81.45
Q 239.9802734375 81.425 239.95 81.4 237.826953125 79.6388671875 235.4 77.9 227.8568359375 72.56796875 217.5 67.75 213.65 65.95 209.6 64.35 200.9 60.85 191.5 58.25 177.2 54.25 161.15 52.2 144.15 50 125.15 50 71 50 32.75 67.75 22.408984375 72.5576171875 14.85 77.9 12.3904296875 79.6462890625 10.2 81.45 -2.9134765625 92.4111328125 -5.1 105.5 -5.55 108.05 -5.55 110.75 -5.55 111.55 -5.5 112.4 -5.051953125 121.091015625 0.05 128.9 0.6447265625 129.80546875 1.3 130.7 1.75 131.3 2.2 131.9 6.5845703125 137.41328125 13.4 142.45 14.4564453125 143.2423828125 15.55 144 22.85 149.05 32.75 153.65 33.75 154.1 34.8 154.6 35.2865234375 154.817578125 35.75 155 54.6595703125 163.3271484375 77.25 167.45 78.0416015625 167.6162109375 78.8 167.75 100.3 171.5 125.15 171.5 179.25 171.5 217.5 153.65 239.75 143.35 249.05 130.6 255.8 121.3 255.8 110.75 255.8 110.6 255.8 110.45 255.8 107.95 255.35 105.5 253.2048828125 92.380078125 240 81.45 Z"/>
</g>

<g id="______________3_Layer2_0_FILL">
<path fill="#C40000" stroke="none" d="
M 78.7 155.2
L 78.1 161.7
Q 83.7833984375 162.844140625 89.7 163.65 114.823046875 162.394140625 136 159.4 130.6357421875 159.65 125.1 159.65 102.05 159.65 82.1 155.9 80.383984375 155.5736328125 78.7 155.2
M 19.4 128.9
L 18.45 137.2
Q 26.006640625 142.9953125 36.65 148.15 36.9416015625 148.2919921875 37.2 148.4
L 37.9 141.05
Q 29.6921875 136.7857421875 23.45 132.15 21.31328125 130.5544921875 19.4 128.9
M 4.2 94.35
Q 4.234765625 94.0806640625 4.25 93.8
L 0.25 109.5
Q 0.3294921875 109.9533203125 0.4 110.4 1.4232421875 116.9689453125 5.1 123
L 6.65 112.3
Q 4.2333984375 106.6568359375 3.95 100.55 3.9 99.7 3.9 98.9 3.9 96.569140625 4.2 94.35 Z"/>

<path fill="#E26061" stroke="none" d="
M 13.75 112.85
Q 16.6923828125 116.1982421875 20.5 119.35 24.2171875 122.4177734375 28.75 125.3
L 186.65 46.4
Q 173.35 42.4 158.5 40.35
L 13.75 112.85
M 231.55 69.55
Q 223.4 62.25 210.75 55.9 207.15 54.1 203.4 52.5
L 42.4 132.75
Q 59.406640625 140.780859375 79.6 144.9 80.8078125 145.1708984375 82 145.4
L 231.55 69.55 Z"/>

<path fill="#A50000" stroke="none" d="
M 37.9 141.05
L 37.2 148.4
Q 55.7423828125 157.345703125 78.1 161.7
L 78.7 155.2
Q 58.3333984375 150.9666015625 41.3 142.75 40.35 142.25 39.4 141.8 38.6494140625 141.42265625 37.9 141.05
M 6.65 112.3
L 5.1 123
Q 9.7015625 130.5255859375 18.45 137.2
L 19.4 128.9
Q 14.4595703125 124.637890625 11.1 120.05 10.65 119.45 10.25 118.85 8.0830078125 115.6642578125 6.65 112.3
M 246.25 98.6
Q 246.25 98.75 246.25 98.9 246.25 99.99765625 246.15 101.05 246.17265625 101.11171875 246.15 101.15 245.5779296875 110.4501953125 240 118.75 231.35 131.5 210.75 141.8 179.1685546875 157.6796875 136 159.4 114.823046875 162.394140625 89.7 163.65 106.4439453125 166 125.15 166 177 166 213.65 148.15 240.978125 134.9328125 247.95 117.6 247.9841796875 117.503515625 248 117.4
L 246.45 100.35 246.45 100.3 246.25 97.95
Q 246.2486328125 98.0259765625 246.25 98.1 246.25 98.3462890625 246.25 98.6 Z"/>

<path fill="#E21516" stroke="none" d="
M 158.5 40.35
Q 142.7 38.15 125.1 38.15 74.9 38.15 39.4 55.9 18.209375 66.5287109375 9.65 79.8 5.4271484375 86.4060546875 4.3 93.65 4.3076171875 93.698828125 4.3 93.75
L 4.3 93.8
Q 5.1955078125 99.2228515625 7.8 104.3 8.8919921875 106.348828125 10.25 108.35 11.8 110.65 13.75 112.85
L 158.5 40.35
M 203.4 52.5
Q 195.35 49 186.65 46.4
L 28.75 125.3
Q 33.3658203125 128.250390625 38.85 131 39.119921875 131.1599609375 39.4 131.3 40.9 132.05 42.4 132.75
L 203.4 52.5
M 240.5 79.8
Q 237.0681640625 74.4625 231.55 69.55
L 82 145.4
Q 102 149.15 125.1 149.15 175.25 149.15 210.75 131.3 231.35 121 240 108.25 244.7 101.3 245.85 93.65 244.747265625 86.3994140625 240.5 79.8 Z"/>

<path fill="#FF9798" stroke="none" d="
M 246.25 97.95
Q 246.239453125 97.77578125 246.2 97.6 246.1693359375 95.605859375 245.85 93.65 244.7 101.3 240 108.25 231.35 121 210.75 131.3 175.25 149.15 125.1 149.15 102 149.15 82 145.4 80.8078125 145.1708984375 79.6 144.9 59.406640625 140.780859375 42.4 132.75 40.9 132.05 39.4 131.3 39.119921875 131.1599609375 38.85 131 33.3658203125 128.250390625 28.75 125.3 24.2171875 122.4177734375 20.5 119.35 16.6923828125 116.1982421875 13.75 112.85 11.8 110.65 10.25 108.35 8.8919921875 106.348828125 7.8 104.3 5.1955078125 99.2228515625 4.3 93.8
L 4.3 93.75
Q 4.3076171875 93.698828125 4.3 93.65 4.2873046875 93.7314453125 4.25 93.8 4.234765625 94.0806640625 4.2 94.35 3.9 96.569140625 3.9 98.9 3.9 99.7 3.95 100.55 4.2333984375 106.6568359375 6.65 112.3 8.0830078125 115.6642578125 10.25 118.85 10.65 119.45 11.1 120.05 14.4595703125 124.637890625 19.4 128.9 21.31328125 130.5544921875 23.45 132.15 29.6921875 136.7857421875 37.9 141.05 38.6494140625 141.42265625 39.4 141.8 40.35 142.25 41.3 142.75 58.3333984375 150.9666015625 78.7 155.2 80.383984375 155.5736328125 82.1 155.9 102.05 159.65 125.1 159.65 130.6357421875 159.65 136 159.4 179.1685546875 157.6796875 210.75 141.8 231.35 131.5 240 118.75 245.5779296875 110.4501953125 246.15 101.15 246.17265625 101.11171875 246.15 101.05 246.25 99.99765625 246.25 98.9 246.25 98.75 246.25 98.6 246.25 98.3462890625 246.25 98.1 246.2486328125 98.0259765625 246.25 97.95 Z"/>
</g>

<g id="______________3_Layer0_0_FILL">
<path fill="#D3D6D7" stroke="none" d="
M -71.05 162.15
L -64.1 180.65 -26.65 174.85
Q -35.48125 161.85 -37.9 148.85
L -71.05 162.15
M -56.85 163.45
Q -54.4279296875 162.15 -51.1 162.15 -47.65 162.15 -45.25 163.55 -42.8 164.95 -42.8 166.9 -42.8 167.7525390625 -43.3 168.5 -43.8490234375 169.350390625 -45.05 170.05 -45.1369140625 170.1353515625 -45.25 170.2 -47.65 171.6 -51.1 171.6 -54.55 171.6 -57 170.2 -59.4 168.8 -59.4 166.85 -59.4 165.7474609375 -58.6 164.8 -58.007421875 164.1376953125 -57 163.55 -56.91328125 163.500390625 -56.85 163.45
M 314.05 180.65
L 321 162.15 287.85 148.85
Q 285.45 161.85 276.6 174.85
L 314.05 180.65
M 306.95 163.55
Q 307.95 164.15 308.55 164.85 309.35 165.75 309.35 166.85 309.35 168.8 306.95 170.2 304.5 171.6 301.05 171.6 297.6 171.6 295.2 170.2 295.1 170.15 294.95 170.1 293.8 169.35 293.25 168.5 292.75 167.75 292.75 166.9 292.75 164.95 295.2 163.55 297.6 162.15 301.05 162.15 304.4 162.15 306.75 163.45 306.85 163.5 306.95 163.55 Z"/>

<path fill="#2B2B2B" stroke="none" d="
M -56.85 163.45
Q -56.91328125 163.500390625 -57 163.55 -58.007421875 164.1376953125 -58.6 164.8
L -45.05 170.05
Q -43.8490234375 169.350390625 -43.3 168.5
L -56.85 163.45
M 308.55 164.85
Q 307.95 164.15 306.95 163.55 306.85 163.5 306.75 163.45
L 293.25 168.5
Q 293.8 169.35 294.95 170.1
L 308.55 164.85 Z"/>

<path fill="#666666" stroke="none" d="
M -58.6 164.8
Q -59.4 165.7474609375 -59.4 166.85 -59.4 168.8 -57 170.2 -54.55 171.6 -51.1 171.6 -47.65 171.6 -45.25 170.2 -45.1369140625 170.1353515625 -45.05 170.05
L -58.6 164.8
M -51.1 162.15
Q -54.4279296875 162.15 -56.85 163.45
L -43.3 168.5
Q -42.8 167.7525390625 -42.8 166.9 -42.8 164.95 -45.25 163.55 -47.65 162.15 -51.1 162.15
M 292.75 166.9
Q 292.75 167.75 293.25 168.5
L 306.75 163.45
Q 304.4 162.15 301.05 162.15 297.6 162.15 295.2 163.55 292.75 164.95 292.75 166.9
M 306.95 170.2
Q 309.35 168.8 309.35 166.85 309.35 165.75 308.55 164.85
L 294.95 170.1
Q 295.1 170.15 295.2 170.2 297.6 171.6 301.05 171.6 304.5 171.6 306.95 170.2 Z"/>

<path fill="#737477" stroke="none" d="
M -64.1 180.65
L -69.4 189.3 -30.3 189.3 -26.65 174.85 -64.1 180.65 Z"/>

<path fill="#8B8C8F" stroke="none" d="
M -71.05 162.15
L -76.3 171.15 -69.4 189.3 -64.1 180.65 -71.05 162.15
M 314.05 180.65
L 319.35 189.3 326.25 171.15 321 162.15 314.05 180.65 Z"/>

<path fill="#606164" stroke="none" d="
M 276.6 174.85
L 280.25 189.3 319.35 189.3 314.05 180.65 276.6 174.85 Z"/>
</g>
</defs>

<g transform="matrix( 1.3788299560546875, 0, 0, 1.3788299560546875, 108.2,3) ">
<g transform="matrix( 1, 0, 0, 1, 0,0) ">
<use xlink:href="#______________3_Layer4_0_FILL"/>
</g>

<g transform="matrix( 1, 0, 0, 1, 0,0) ">
<use xlink:href="#______________3_Layer3_0_FILL"/>
</g>

<g transform="matrix( 1, 0, 0, 1, 0,0) ">
<use xlink:href="#______________3_Layer2_0_FILL"/>
</g>

<g transform="matrix( 1, 0, 0, 1, 0,0) ">
<use xlink:href="#______________3_Layer0_0_FILL"/>
</g>
</g>
</svg>
