
<svg xmlns="http://www.w3.org/2000/svg" version="1.1" xmlns:xlink="http://www.w3.org/1999/xlink" preserveAspectRatio="none" x="0px" y="0px" width="190px" height="190px" viewBox="0 0 190 190">
<defs>
<g id="_____1_0_Layer1_0_FILL">
<path fill="#000000" fill-opacity="0.2980392156862745" stroke="none" d="
M 125.55 -2.1
L 10.1 -2.1
Q 3.8 -2.1 0.25 0.7 -4.25 4.2 -4.25 12.25
L -4.25 127.5
Q -4.25 141.85 10.1 141.85
L 125.55 141.85
Q 132.4 141.85 136 138.6 139.95 135.05 139.95 127.5
L 139.95 12.25
Q 139.95 -2.1 125.55 -2.1 Z"/>
</g>

<g id="_____1_0_Layer0_0_FILL">
<path fill="#999999" stroke="none" d="
M 4.2 2.6
Q 0 5.9580078125 0 13.5
L 0 122.1
Q 0 135.6 13.5 135.6
L 122.05 135.6
Q 128.4978515625 135.6 131.85 132.55
L 123.05 123.55
Q 120.14140625 126.25 114.55 126.25
L 20.95 126.25
Q 9.3 126.25 9.3 114.65
L 9.3 21.05
Q 9.3 14.4615234375 13.05 11.6
L 4.2 2.6 Z"/>

<path fill="#321919" stroke="none" d="
M 126.15 21.05
Q 126.15 9.45 114.55 9.45
L 20.95 9.45
Q 15.9169921875 9.45 13.05 11.6 9.3 14.4615234375 9.3 21.05
L 9.3 114.65
Q 9.3 126.25 20.95 126.25
L 114.55 126.25
Q 120.14140625 126.25 123.05 123.55 126.15 120.65859375 126.15 114.65
L 126.15 21.05
M 122.85 25.2
L 122.85 50.45 122.85 113.45
Q 122.85 118.3919921875 120.65 121.1 117.93046875 124.45 111.9 124.45
L 23.6 124.45
Q 12.65 124.45 12.65 113.5
L 12.65 87.4 12.65 25.2
Q 12.65 18.2478515625 17.05 15.7 19.6021484375 14.25 23.6 14.25
L 111.9 14.25
Q 122.85 14.25 122.85 25.2 Z"/>

<path fill="#623F35" stroke="none" d="
M 60.3 59.7
Q 35.8431640625 69.06015625 12.65 87.4
L 12.65 113.5
Q 12.65 124.45 23.6 124.45
L 111.9 124.45
Q 117.93046875 124.45 120.65 121.1 122.85 118.3919921875 122.85 113.45
L 122.85 50.45
Q 90.6005859375 48.2115234375 60.3 59.7 Z"/>

<path fill="#734A3F" stroke="none" d="
M 122.85 50.45
L 122.85 25.2
Q 122.85 14.25 111.9 14.25
L 23.6 14.25
Q 19.6021484375 14.25 17.05 15.7 12.65 18.2478515625 12.65 25.2
L 12.65 87.4
Q 35.8431640625 69.06015625 60.3 59.7 90.6005859375 48.2115234375 122.85 50.45 Z"/>

<path fill="#FFFFFF" stroke="none" d="
M 135.6 13.5
Q 135.6 0 122.05 0
L 13.5 0
Q 7.5419921875 0 4.2 2.6
L 13.05 11.6
Q 15.9169921875 9.45 20.95 9.45
L 114.55 9.45
Q 126.15 9.45 126.15 21.05
L 126.15 114.65
Q 126.15 120.65859375 123.05 123.55
L 131.85 132.55
Q 135.6 129.1759765625 135.6 122.1
L 135.6 13.5 Z"/>
</g>

<g id="_____________0_Layer3_0_FILL">
<path fill="#FF9900" stroke="none" d="
M 61.7 76.85
L 61.2 76.6 60.95 82.7 63.55 83.8 67.4 79.3 61.7 76.85
M 56.75 80.8
L 59.65 75.9 43.4 68.8 42.35 74.9 56.65 80.9 56.75 80.8
M 82.7 91.8
L 81.85 85.6 67.4 79.3 66.7 85.1 82.7 91.8
M 88.95 22.7
L 89.65 16.05 46.55 0 47.3 5.5 84.3 20.8 88.95 22.7 Z"/>

<path fill="#FFCC33" stroke="none" d="
M 21 77.85
L 20.65 83.05 42.35 74.9 43.4 68.8 21 77.85
M 24.2 13.55
L 21.6 8.75 0 16.3 0 90.8 16.9 84.5 21 77.85 3.5 84.9 4.05 57.2 4.55 29.05 4.7 20.3 24.2 13.55
M 47.3 5.5
L 46.55 0 26.25 7.1 26.25 12.85 47.3 5.5
M 89.65 16.05
L 88.95 22.7 97.65 20 104.1 17.95 100.55 12.35 89.65 16.05
M 112.3 15.4
L 121.45 12.5 121.45 21 121.45 38.45 121.45 69.1 81.85 85.6 82.7 91.8 125.7 73.6 125.7 3.7 111.8 8.45 112.3 15.4
M 106.2 10.4
L 104.7 10.9 104.1 17.95 110.6 15.9 106.2 10.4 Z"/>

<path fill="#CCA77A" stroke="none" d="
M 30.3 65.3
Q 27.3 67.1 23.9 67.1 18.8 67.1 14.45 62.1 14.15 61.75 13.9 61.45 12 59.35 11.1 58.65 9.15 57.2 6.8 57.1 6.65 57.1 6.45 57.1 5.1 57.1 4.05 57.2
L 3.5 84.9 21 77.85 43.4 68.8 44.15 56.85
Q 39.45 58.25 35.55 61.3 33.5 62.9 32.25 63.85 30.65 65.1 30.3 65.3
M 24.75 71.3
Q 24.75 72.55 22.65 72.7 19.8 72.9 18.45 74.05 17.25 75.1 14.65 76.65 14.15 76.95 13.7 77.2 11.45 78.45 10.55 78.45 9 78.45 8.35 77.65 7.95 77.1 7.95 76.2 7.95 76.15 7.95 76.1 8 74.45 9.25 72.95 10.1 72.8 11.15 72.8 11.85 72.8 12.45 72.8 14.45 72.75 15.05 72.55 15.3 72.5 17.75 71.15 19.75 70.05 21.35 70.05 23.15 70.05 23.65 70.15 24.75 70.4 24.75 71.3
M 33.1 66.7
Q 33.65 66.7 34.2 66.8 35.6 67.15 35.7 68 35.7 68.05 35.7 68.1 35.7 70.15 33.35 70.15
L 31.35 70.05 31.35 68.55
Q 31.45 68.4 31.6 68.25 32.2 67.55 33.05 66.7
L 33.1 66.7
M 6.85 62.7
Q 7.2 62.55 7.65 62.55 8.1 62.55 8.55 62.7
L 8.6 62.75
Q 9.15 63.3 9.7 64.05 10.8 65.7 10.8 66.8 10.8 68.3 9.75 68.7 9.4 68.8 8.95 68.8 7.8 68.8 7.05 68.45 5.55 67.7 5.55 65.6 5.55 64.15 5.85 63.55 6.15 62.9 6.85 62.7
M 121.45 38.45
Q 120.2 39.65 119.1 40.75 114.9 44.75 112.75 46.6 107.7 50.9 104.4 52.25 102.2 53.1 94.75 53.9 90.8 54.3 89.05 54.8 87.9 55.15 87.65 55.5 86.35 57.4 84.85 59.2
L 81.85 85.6 121.45 69.1 121.45 38.45
M 104.6 57.15
Q 104.8 55.75 105.4 54.8 109.95 54.95 111.15 55.45 113.4 56.4 113.4 59.95 113.4 63.9 109.2 67.05 109.15 67.05 109.1 67.1 106.45 69.05 98.4 74.1
L 93.9 74.1 93.9 72.35
Q 94.5 70.4 98.4 67.55 101.95 65.05 103.1 64.1 103.55 63.75 103.65 63.6 104.25 62.85 104.35 60.85 104.55 57.25 104.6 57.15
M 91.65 61.1
Q 92.15 61.1 93.65 61.1 94.9 61.25 94.9 62.2 94.9 62.6 94.8 63.05 94.35 64.6 92.4 67.1
L 86.15 67.1 86.15 64.35
Q 86.45 63.15 88 61.7 88.1 61.6 88.2 61.55 88.85 61.35 89.9 61.25 90.5 61.2 90.9 61.15 91.4 61.1 91.65 61.1 Z"/>

<path fill="#DEB685" stroke="none" d="
M 7.65 62.55
Q 7.2 62.55 6.85 62.7 6.15 62.9 5.85 63.55 5.55 64.15 5.55 65.6 5.55 67.7 7.05 68.45 7.8 68.8 8.95 68.8 9.4 68.8 9.75 68.7 10.8 68.3 10.8 66.8 10.8 65.7 9.7 64.05 9.15 63.3 8.6 62.75
L 8.55 62.7
Q 8.1 62.55 7.65 62.55
M 34.2 66.8
Q 33.65 66.7 33.1 66.7
L 33.05 66.7
Q 32.2 67.55 31.6 68.25 31.45 68.4 31.35 68.55
L 31.35 70.05 33.35 70.15
Q 35.7 70.15 35.7 68.1 35.7 68.05 35.7 68 35.6 67.15 34.2 66.8
M 22.65 72.7
Q 24.75 72.55 24.75 71.3 24.75 70.4 23.65 70.15 23.15 70.05 21.35 70.05 19.75 70.05 17.75 71.15 15.3 72.5 15.05 72.55 14.45 72.75 12.45 72.8 11.85 72.8 11.15 72.8 10.1 72.8 9.25 72.95 8 74.45 7.95 76.1 7.95 76.15 7.95 76.2 7.95 77.1 8.35 77.65 9 78.45 10.55 78.45 11.45 78.45 13.7 77.2 14.15 76.95 14.65 76.65 17.25 75.1 18.45 74.05 19.8 72.9 22.65 72.7
M 45.6 33.8
Q 44 39.4 43.55 45
L 43.55 44.5
Q 42.9 36.85 41.5 30.8 40.25 25.1 38.25 22.15 36.15 18.95 33.15 18.95 26.2 18.95 18.8 21.45 15.25 22.65 11.95 24.4 8.05 26.35 4.55 29.05
L 4.05 57.2
Q 5.1 57.1 6.45 57.1 6.65 57.1 6.8 57.1 9.15 57.2 11.1 58.65 12 59.35 13.9 61.45 14.15 61.75 14.45 62.1 18.8 67.1 23.9 67.1 27.3 67.1 30.3 65.3 30.65 65.1 32.25 63.85 33.5 62.9 35.55 61.3 39.45 58.25 44.15 56.85
L 45.6 33.8
M 19.95 34.6
Q 18.45 35.1 17.2 35.6 16.45 34.65 16.45 32.8 16.45 30.75 18 28.75 19.9 26.25 23.1 26.25 25.6 26.25 26.25 26.5 26.95 26.8 26.95 28 26.95 29.45 26.5 30.55 25.55 32.8 22.7 33.7 21.25 34.15 19.95 34.6
M 13.75 47.3
Q 14.6 47.25 16.25 47.25 16.85 47.25 19.1 47.75 21.35 48.25 22.65 48.25 23.3 48.25 24.15 48.05 26 47.6 28.95 46.25 33.25 44.25 34.25 44.25 35.9 44.25 36.5 44.5 37.25 44.85 37.25 45.9 37.25 47.35 33.25 51.55 28.65 56.35 23.65 56.8 23.15 56.85 22.65 56.85 18.7 56.85 16 53.35 14.05 50.8 13.75 47.3
M 31.75 30
Q 33.9 29.7 35.2 30 35.85 30.15 36.25 30.45 37 30.95 37 32.4 37 33.05 36.75 35.6
L 33.45 35.6
Q 32.7 34.3 32.35 33.55 31.9 32.65 31.8 31.9 31.7 31.5 31.7 31.15 31.7 30.3 31.75 30
M 42.9 21
Q 44.25 21 44.5 19.55 44.5 17.75 44.5 17.15 44.5 16.7 44.5 16.3 44.45 15.75 44.45 15.35 44.25 13.35 43.7 12.8 42.8 12.05 39.15 12 38.85 12.25 38.6 12.55 38 13.25 38 14.15 38 14.45 38.3 15.05 38.8 16.05 40.1 17.85 40.15 17.95 40.25 18.05 42.5 21 42.9 21
M 93.65 61.1
Q 92.15 61.1 91.65 61.1 91.4 61.1 90.9 61.15 90.5 61.2 89.9 61.25 88.85 61.35 88.2 61.55 88.1 61.6 88 61.7 86.45 63.15 86.15 64.35
L 86.15 67.1 92.4 67.1
Q 94.35 64.6 94.8 63.05 94.9 62.6 94.9 62.2 94.9 61.25 93.65 61.1
M 105.4 54.8
Q 104.8 55.75 104.6 57.15 104.55 57.25 104.35 60.85 104.25 62.85 103.65 63.6 103.55 63.75 103.1 64.1 101.95 65.05 98.4 67.55 94.5 70.4 93.9 72.35
L 93.9 74.1 98.4 74.1
Q 106.45 69.05 109.1 67.1 109.15 67.05 109.2 67.05 113.4 63.9 113.4 59.95 113.4 56.4 111.15 55.45 109.95 54.95 105.4 54.8
M 58.8 46.75
Q 58.75 47.25 58.75 47.7 58.75 49.4 59.5 50.6 60.4 51.95 62.15 52.1 62.3 52.1 62.5 52.1 64.3 52.1 64.75 51.1 65 50.6 65 48.85 65 47.25 64.5 46.85 64.05 46.5 62.8 46.4 62.3 46.35 61.65 46.35 60.45 46.35 58.8 46.75
M 55.25 30.3
Q 55.25 30.4 55.25 30.5 55.25 33.25 58.75 35.35 60.7 36.5 62.4 36.9 63.25 37.1 64 37.1 66 37.1 67.5 36.35 69.25 35.45 69.25 33.95 69.25 32.25 64.75 31 62.75 30.45 60.95 30.25 59.4 30 58 30 56.4 30 55.25 30.3
M 83.3 42.1
Q 83.3 37.75 82.05 36.1 80.6 34.1 76.45 34.1 75.55 34.1 75 34.15 74.8 35.2 74.75 36.55 74.75 36.6 74.75 42 74.7 45.15 74.3 46.6 73.8 48.5 70.95 52.3 70.4 53 70 53.7 68.5 56.15 68.5 58.1 68.5 59.75 70.85 60.35 72 60.65 73.3 60.6 75.8 60.6 77.8 58.35 79.65 56.3 81.1 52.35 83.3 46.3 83.3 42.1
M 121.45 21
Q 119.5 21.2 116.65 21.6 108 22.75 105.65 22.75 103.3 22.75 100.1 21.25 98.65 20.5 97.65 20
L 88.95 22.7 84.85 59.2
Q 86.35 57.4 87.65 55.5 87.9 55.15 89.05 54.8 90.8 54.3 94.75 53.9 102.2 53.1 104.4 52.25 107.7 50.9 112.75 46.6 114.9 44.75 119.1 40.75 120.2 39.65 121.45 38.45
L 121.45 21
M 95.4 32.05
Q 95.65 28.45 96.65 27.15 98.15 25.25 103.1 25.25 103.3 25.25 108.4 26 113.4 27.1 113.4 28.9 113.4 31.4 110.65 32.5 106.95 33.5 104.95 34.05 101.3 35 100 36.9 99.9 37.05 99.8 37.25 98.25 39.8 99.55 44.6
L 97.05 44.6
Q 94.1 43 93.45 42.3 92.6 41.35 92.4 39.5 92.3 38.9 92.3 38.2 92.3 36.8 94.7 33.1 95.05 32.55 95.4 32.05
M 106.8 38.95
Q 107.1 38.35 107.65 37.75 108.4 37.65 109.35 37.6 111.4 37.75 111.4 39.7 111.4 39.95 111.35 40.25 111.2 41.15 110.65 42.6 109.55 45.35 108 45.35 106.8 45.35 106.4 44.35 106.15 43.7 106.15 42.45 106.15 40.5 106.7 39.25 106.75 39.1 106.8 38.95 Z"/>

<path fill="#EFC48F" stroke="none" d="
M 35.2 30
Q 33.9 29.7 31.75 30 31.7 30.3 31.7 31.15 31.7 31.5 31.8 31.9 31.9 32.65 32.35 33.55 32.7 34.3 33.45 35.6
L 36.75 35.6
Q 37 33.05 37 32.4 37 30.95 36.25 30.45 35.85 30.15 35.2 30
M 16.25 47.25
Q 14.6 47.25 13.75 47.3 14.05 50.8 16 53.35 18.7 56.85 22.65 56.85 23.15 56.85 23.65 56.8 28.65 56.35 33.25 51.55 37.25 47.35 37.25 45.9 37.25 44.85 36.5 44.5 35.9 44.25 34.25 44.25 33.25 44.25 28.95 46.25 26 47.6 24.15 48.05 23.3 48.25 22.65 48.25 21.35 48.25 19.1 47.75 16.85 47.25 16.25 47.25
M 17.2 35.6
Q 18.45 35.1 19.95 34.6 21.25 34.15 22.7 33.7 25.55 32.8 26.5 30.55 26.95 29.45 26.95 28 26.95 26.8 26.25 26.5 25.6 26.25 23.1 26.25 19.9 26.25 18 28.75 16.45 30.75 16.45 32.8 16.45 34.65 17.2 35.6
M 43.55 45
Q 44 39.4 45.6 33.8
L 47.3 5.5 26.25 12.85 26.25 17.45 24.2 13.55 4.7 20.3 4.55 29.05
Q 8.05 26.35 11.95 24.4 15.25 22.65 18.8 21.45 26.2 18.95 33.15 18.95 36.15 18.95 38.25 22.15 40.25 25.1 41.5 30.8 42.9 36.85 43.55 44.5
L 43.55 45
M 44.5 19.55
Q 44.25 21 42.9 21 42.5 21 40.25 18.05 40.15 17.95 40.1 17.85 38.8 16.05 38.3 15.05 38 14.45 38 14.15 38 13.25 38.6 12.55 38.85 12.25 39.15 12 42.8 12.05 43.7 12.8 44.25 13.35 44.45 15.35 44.45 15.75 44.5 16.3 44.5 16.7 44.5 17.15 44.5 17.75 44.5 19.55
M 56.75 15.25
Q 56.6 15.2 56.45 15.2 54.7 15.1 53.6 14.95
L 53.55 15
Q 53.55 15.1 53.55 15.3 53.5 15.55 53.5 15.9 53.5 16.1 53.55 16.3 53.7 17.55 55 18 55.7 18.25 57.15 18.25 58.25 18.25 58.7 17.9 59 17.6 59 17.15 59 15.7 56.75 15.25
M 107.65 37.75
Q 107.1 38.35 106.8 38.95 106.75 39.1 106.7 39.25 106.15 40.5 106.15 42.45 106.15 43.7 106.4 44.35 106.8 45.35 108 45.35 109.55 45.35 110.65 42.6 111.2 41.15 111.35 40.25 111.4 39.95 111.4 39.7 111.4 37.75 109.35 37.6 108.4 37.65 107.65 37.75
M 96.65 27.15
Q 95.65 28.45 95.4 32.05 95.05 32.55 94.7 33.1 92.3 36.8 92.3 38.2 92.3 38.9 92.4 39.5 92.6 41.35 93.45 42.3 94.1 43 97.05 44.6
L 99.55 44.6
Q 98.25 39.8 99.8 37.25 99.9 37.05 100 36.9 101.3 35 104.95 34.05 106.95 33.5 110.65 32.5 113.4 31.4 113.4 28.9 113.4 27.1 108.4 26 103.3 25.25 103.1 25.25 98.15 25.25 96.65 27.15
M 110.6 15.9
L 104.1 17.95 97.65 20
Q 98.65 20.5 100.1 21.25 103.3 22.75 105.65 22.75 108 22.75 116.65 21.6 119.5 21.2 121.45 21
L 121.45 12.5 112.3 15.4 112.5 18.3 110.6 15.9 Z"/>

<path fill="#A18360" stroke="none" d="
M 81.85 85.6
L 84.85 59.2
Q 82.7 61.7 80.2 63.95 76.5 67.3 74.55 67.8 74.2 67.85 73.95 67.85 64.7 67.85 60.5 61.7 58.75 58.8 57.75 57.6 57.65 57.5 57.6 57.45 55.9 55.5 53.3 55.5 48.4 55.5 44.15 56.85
L 43.4 68.8 59.65 75.9 62.45 71.1 61.7 76.85 67.4 79.3 81.85 85.6
M 72.3 71.6
Q 72.75 71.8 73.15 72.05 73.45 72.2 73.75 72.4 75.3 73.5 75.3 74.7 75.3 74.8 75.35 75.85 75.2 76.45 74.7 76.7 74.3 76.85 73.7 76.85 71.95 76.85 70.1 75.2 68.55 73.85 68.55 73.45 68.55 71.65 72.3 71.6
M 46.55 61.35
Q 47.4 60.85 49.55 60.85 51.75 60.85 54.1 61.9 55 62.3 55.95 62.9 57.75 64 58.85 65.35 57.75 65.7 56.15 66.65 53.7 68.1 51.7 68.1 49.6 68.1 48.05 67.6 46.1 66.95 45.55 65.65 45.3 65.05 45.3 64.35 45.3 62.1 46.55 61.35 Z"/>

<path fill="#B8966E" stroke="none" d="
M 49.55 60.85
Q 47.4 60.85 46.55 61.35 45.3 62.1 45.3 64.35 45.3 65.05 45.55 65.65 46.1 66.95 48.05 67.6 49.6 68.1 51.7 68.1 53.7 68.1 56.15 66.65 57.75 65.7 58.85 65.35 57.75 64 55.95 62.9 55 62.3 54.1 61.9 51.75 60.85 49.55 60.85
M 73.15 72.05
Q 72.75 71.8 72.3 71.6 68.55 71.65 68.55 73.45 68.55 73.85 70.1 75.2 71.95 76.85 73.7 76.85 74.3 76.85 74.7 76.7 75.2 76.45 75.35 75.85 75.3 74.8 75.3 74.7 75.3 73.5 73.75 72.4 73.45 72.2 73.15 72.05
M 88.95 22.7
L 84.3 20.8
Q 84.1 20.95 83.95 21.1 81.95 22.75 79.4 22.75 78.75 22.75 75.6 22 72.45 21.2 72.05 21.2 71.2 21.2 68.9 22 66.65 22.75 66.2 22.75 64.5 22.95 63.85 22.95 62.85 22.9 61.05 21.75 60.8 21.6 60.55 21.45 58.25 20 56.25 19.45 54.05 18.8 54.05 19.7
L 54.05 19.75
Q 50.2 20.3 46.95 29.4 46.15 31.6 45.6 33.8
L 44.15 56.85
Q 48.4 55.5 53.3 55.5 55.9 55.5 57.6 57.45 57.65 57.5 57.75 57.6 58.75 58.8 60.5 61.7 64.7 67.85 73.95 67.85 74.2 67.85 74.55 67.8 76.5 67.3 80.2 63.95 82.7 61.7 84.85 59.2
L 88.95 22.7
M 82.05 36.1
Q 83.3 37.75 83.3 42.1 83.3 46.3 81.1 52.35 79.65 56.3 77.8 58.35 75.8 60.6 73.3 60.6 72 60.65 70.85 60.35 68.5 59.75 68.5 58.1 68.5 56.15 70 53.7 70.4 53 70.95 52.3 73.8 48.5 74.3 46.6 74.7 45.15 74.75 42 74.75 36.6 74.75 36.55 74.8 35.2 75 34.15 75.55 34.1 76.45 34.1 80.6 34.1 82.05 36.1
M 55.25 30.5
Q 55.25 30.4 55.25 30.3 56.4 30 58 30 59.4 30 60.95 30.25 62.75 30.45 64.75 31 69.25 32.25 69.25 33.95 69.25 35.45 67.5 36.35 66 37.1 64 37.1 63.25 37.1 62.4 36.9 60.7 36.5 58.75 35.35 55.25 33.25 55.25 30.5
M 58.75 47.7
Q 58.75 47.25 58.8 46.75 60.45 46.35 61.65 46.35 62.3 46.35 62.8 46.4 64.05 46.5 64.5 46.85 65 47.25 65 48.85 65 50.6 64.75 51.1 64.3 52.1 62.5 52.1 62.3 52.1 62.15 52.1 60.4 51.95 59.5 50.6 58.75 49.4 58.75 47.7 Z"/>

<path fill="#D7AF80" stroke="none" d="
M 83.95 21.1
Q 84.1 20.95 84.3 20.8
L 47.3 5.5 45.6 33.8
Q 46.15 31.6 46.95 29.4 50.2 20.3 54.05 19.75
L 54.05 19.7
Q 54.05 18.8 56.25 19.45 58.25 20 60.55 21.45 60.8 21.6 61.05 21.75 62.85 22.9 63.85 22.95 64.5 22.95 66.2 22.75 66.65 22.75 68.9 22 71.2 21.2 72.05 21.2 72.45 21.2 75.6 22 78.75 22.75 79.4 22.75 81.95 22.75 83.95 21.1
M 56.45 15.2
Q 56.6 15.2 56.75 15.25 59 15.7 59 17.15 59 17.6 58.7 17.9 58.25 18.25 57.15 18.25 55.7 18.25 55 18 53.7 17.55 53.55 16.3 53.5 16.1 53.5 15.9 53.5 15.55 53.55 15.3 53.55 15.1 53.55 15
L 53.6 14.95
Q 54.7 15.1 56.45 15.2 Z"/>
</g>

<g id="_____________0_Layer1_0_FILL">
<path fill="#E4A25E" stroke="none" d="
M 19.1 63.2
L 17.8 67.45 20.4 63.1 19.1 63.2 Z"/>

<path fill="#F2C284" stroke="none" d="
M 19.7 59.7
L 19.6 58.5 13.95 57.05 19.7 59.7 Z"/>

<path fill="#E9A257" stroke="none" d="
M 19.2 61
Q 19.2 60.75 19.25 60.5 19.3 60.4 19.35 60.25
L 18.25 60.65 10.95 63.25 10.95 63.8 19.25 61.45
Q 19.2 61.25 19.2 61 Z"/>

<path fill="#ECA861" stroke="none" d="
M 19.35 60.25
Q 19.45 59.95 19.7 59.7
L 13.95 57.05 18.25 60.65 19.35 60.25 Z"/>

<path fill="#D27438" stroke="none" d="
M 20.4 63.1
L 20.25 62.85
Q 20.1 62.75 19.95 62.6 19.4 62.1 19.25 61.45
L 10.95 63.8 19.1 63.2 20.4 63.1 Z"/>

<path fill="#E28F4C" stroke="none" d="
M 21.3 62.4
Q 22.15 62.4 22.7 61.9
L 22.75 61.85
Q 22.4 62 21.9 62 21.1 62 20.55 61.5 20.1 61.1 20 60.6 19.95 60.5 19.95 60.35 19.95 59.7 20.45 59.25 20.2 59.35 19.95 59.55 19.45 59.95 19.4 60.55 19.4 60.65 19.4 60.75 19.4 61.4 19.95 61.9 20.5 62.4 21.3 62.4 Z"/>

<path fill="#C8793B" stroke="none" d="
M 21 64.3
L 20.4 63.1 17.8 67.45 17.4 68.7 21 64.3 Z"/>

<path fill="#D17737" stroke="none" d="
M 20.4 63.1
L 21 64.3 24 70 24.25 70 22.7 63.15
Q 22.3 63.25 21.8 63.25 21.2 63.25 20.7 63.05 20.45 62.95 20.25 62.85
L 20.4 63.1
M 21 58.85
Q 21.1 58.8 21.2 58.8
L 19.25 52.95 19.6 58.5 19.7 59.7
Q 19.8 59.55 19.95 59.4 20.45 59 21 58.85 Z"/>

<path fill="#F3BD7E" stroke="none" d="
M 24 63.75
L 23.9 62.4
Q 23.75 62.5 23.65 62.6 23.2 63 22.7 63.15
L 24.25 70 24.7 69.95 24 63.75
M 28.7 65.2
L 29.15 65.35 25 61.65 24.2 61.9 28.7 65.2 Z"/>

<path fill="#E69C54" stroke="none" d="
M 23.9 62.4
L 24 63.75 28.7 65.2 24.2 61.9
Q 24.1 62.15 23.9 62.4 Z"/>

<path fill="#E28441" stroke="none" d="
M 24.4 61
Q 24.4 61.05 24.4 61.15 24.4 61.55 24.2 61.9
L 25 61.65 31.7 59.45 24.25 60.2
Q 24.4 60.55 24.4 61 Z"/>

<path fill="#F5CB8C" stroke="none" d="
M 23.25 59.1
Q 23.25 59.15 23.3 59.15 23.35 59.15 23.35 59.2
L 24.4 59.2 26 54.7 22.95 58.95
Q 23.1 59 23.25 59.1 Z"/>

<path fill="#E4A65D" stroke="none" d="
M 22.9 58.9
L 22.95 58.95 26 54.7 22.35 57.95 22.9 58.9 Z"/>

<path fill="#FAD492" stroke="none" d="
M 21.2 58.8
Q 21.1 58.8 21 58.85 21.15 58.85 21.25 58.8 21.5 58.75 21.8 58.75 22.45 58.75 22.95 59 23.1 59.05 23.25 59.1 23.1 59 22.95 58.95
L 22.9 58.9 22.35 57.95 19.55 52.9
Q 19.4 52.95 19.25 52.95
L 21.2 58.8 Z"/>

<path fill="#F4C680" stroke="none" d="
M 21.3 59.05
Q 20.85 59.05 20.45 59.25 19.95 59.7 19.95 60.35 19.95 60.5 20 60.6 20.1 61.1 20.55 61.5 21.1 62 21.9 62 22.4 62 22.75 61.85 23.15 61.45 23.25 61 23.25 60.85 23.25 60.75 23.25 60.05 22.7 59.55 22.15 59.05 21.3 59.05 Z"/>

<path fill="#FBF2CD" stroke="none" d="
M 21 58.85
Q 20.75 58.95 20.55 59.15 20.5 59.2 20.45 59.25 20.85 59.05 21.3 59.05 22.15 59.05 22.7 59.55 23.25 60.05 23.25 60.75 23.25 60.85 23.25 61 23.15 61.45 22.75 61.85 23.05 61.7 23.3 61.5 23.55 61.3 23.65 61.05 23.85 60.75 23.85 60.35 23.85 59.7 23.35 59.2 23.35 59.15 23.3 59.15 23.25 59.15 23.25 59.1 23.1 59.05 22.95 59 22.45 58.75 21.8 58.75 21.5 58.75 21.25 58.8 21.15 58.85 21 58.85 Z"/>

<path fill="#BC5F2A" stroke="none" d="
M 20.55 59.15
Q 20.75 58.95 21 58.85 20.45 59 19.95 59.4 19.8 59.55 19.7 59.7 19.45 59.95 19.35 60.25 19.3 60.4 19.25 60.5 19.2 60.75 19.2 61 19.2 61.25 19.25 61.45 19.4 62.1 19.95 62.6 20.1 62.75 20.25 62.85 20.45 62.95 20.7 63.05 21.2 63.25 21.8 63.25 22.3 63.25 22.7 63.15 23.2 63 23.65 62.6 23.75 62.5 23.9 62.4 24.1 62.15 24.2 61.9 24.4 61.55 24.4 61.15 24.4 61.05 24.4 61 24.4 60.55 24.25 60.2 24.05 59.75 23.65 59.4 23.5 59.3 23.35 59.2 23.85 59.7 23.85 60.35 23.85 60.75 23.65 61.05 23.55 61.3 23.3 61.5 23.05 61.7 22.75 61.85
L 22.7 61.9
Q 22.15 62.4 21.3 62.4 20.5 62.4 19.95 61.9 19.4 61.4 19.4 60.75 19.4 60.65 19.4 60.55 19.45 59.95 19.95 59.55 20.2 59.35 20.45 59.25 20.5 59.2 20.55 59.15 Z"/>

<path fill="#F9EAC1" stroke="none" d="
M 31.7 59.45
Q 31.65 59.3 31.55 59.15
L 24.4 59.2 23.35 59.2
Q 23.5 59.3 23.65 59.4 24.05 59.75 24.25 60.2
L 31.7 59.45 Z"/>
</g>

<g id="_____________0_Layer0_0_FILL">
<path fill="#333333" stroke="none" d="
M 21.55 44.3
Q 21.55 41.95 19.9 40.3 18.25 38.65 15.9 38.65 13.55 38.65 11.9 40.3 10.25 41.95 10.25 44.3 10.25 46.65 11.9 48.3 13.55 49.95 15.9 49.95 18.25 49.95 19.9 48.3 21.55 46.65 21.55 44.3 Z"/>
</g>

<g id="_____________0_Layer0_0_STROKES_1_FILL">
<path fill="#333333" stroke="none" d="
M 40 39.35
Q 39.9359375 38.75390625 39.45 38.35 38.9810546875 37.948046875 38.35 38 36.4017578125 38.17890625 35.45 38.55 35.386328125 38.583984375 35.3 38.6 34.2361328125 39.1755859375 32.2 39.8 31.6109375 40.01875 31.3 40.55 31.0373046875 41.11875 31.2 41.7 31.418359375 42.2890625 31.95 42.55 32.5185546875 42.8623046875 33.1 42.65 35.375390625 41.95234375 36.6 41.3 37.2810546875 41.1138671875 38.6 41 39.246875 40.9353515625 39.65 40.45 40.0525390625 39.98203125 40 39.35
M 27.95 41.6
Q 27.41796875 41.289453125 26.8 41.45 24.3357421875 42.100390625 21.2 42.85 20.5998046875 42.9951171875 20.25 43.5 19.951953125 44.0513671875 20.1 44.65 20.2447265625 45.2501953125 20.75 45.55 21.301171875 45.89765625 21.9 45.75 25.0642578125 44.999609375 27.55 44.35 28.1798828125 44.1888671875 28.5 43.65 28.811328125 43.1185546875 28.65 42.5 28.4896484375 41.920703125 27.95 41.6
M 64.8 46.65
Q 64.9779296875 47.2716796875 65.5 47.55 68.46640625 49.171875 71.15 50.2 71.728515625 50.425390625 72.3 50.15 72.871875 49.9248046875 73.1 49.35 73.326171875 48.7705078125 73.05 48.2 72.82578125 47.62890625 72.25 47.4 69.73359375 46.4279296875 66.95 44.9 66.4234375 44.6263671875 65.8 44.8 65.22734375 44.9775390625 64.9 45.5 64.625390625 46.076171875 64.8 46.65
M 55 41.9
Q 57.294140625 42.9564453125 60.2 44.55 60.7755859375 44.8736328125 61.35 44.7 61.971875 44.5232421875 62.25 43.95 62.574609375 43.4248046875 62.4 42.8 62.22265625 42.2291015625 61.65 41.9 58.605859375 40.243359375 56.2 39.15 55.6419921875 38.924609375 55.05 39.15 54.48828125 39.37734375 54.2 39.95 53.9740234375 40.5072265625 54.2 41.05 54.428125 41.6609375 55 41.9
M 45.55 40.3
Q 45.837109375 40.0197265625 45.95 39.65 47.1833984375 39.667578125 49.35 40.15 49.975390625 40.3095703125 50.5 39.95 51.0189453125 39.6359375 51.15 39 51.29765625 38.42421875 50.95 37.9 50.636328125 37.381640625 50 37.25 46.8599609375 36.52421875 45.25 36.7 42.2501953125 36.989453125 42.5 39.25 42.5052734375 39.866015625 42.95 40.3 43.383984375 40.7447265625 44 40.75
L 44 40.75
Q 44.265625 40.75 44.5 40.75 45.116015625 40.7447265625 45.55 40.3
M 95.3 45.85
Q 94.7072265625 45.6876953125 94.15 45.95 90.029296875 48.1095703125 88.7 48.6 88.1515625 48.8140625 87.9 49.35 87.6365234375 49.9423828125 87.85 50.5 88.0634765625 51.11015625 88.6 51.35 89.1931640625 51.625390625 89.75 51.4 91.1708984375 50.8904296875 95.55 48.6 96.0931640625 48.3384765625 96.25 47.75 96.4626953125 47.15625 96.15 46.6 95.8890625 46.055859375 95.3 45.85
M 83.35 49.25
Q 82.95 49.25 82.5 49.25 80.028515625 49.253125 77.7 48.85 77.0859375 48.7685546875 76.55 49.1 76.0728515625 49.488671875 75.95 50.1 75.8677734375 50.7150390625 76.2 51.2 76.5875 51.7263671875 77.2 51.8 79.7712890625 52.246875 82.5 52.25 82.95 52.25 83.35 52.25 83.966015625 52.2447265625 84.4 51.8 84.8447265625 51.366015625 84.85 50.75 84.8447265625 50.133984375 84.4 49.7 83.966015625 49.2552734375 83.35 49.25 Z"/>
</g>

<path id="_____________0_Layer0_0_1_STROKES" stroke="#CC3300" stroke-width="3" stroke-linejoin="round" stroke-linecap="round" fill="none" d="
M 113.45 39.2
L 107.725 45.225 112.95 50.7
M 102.3 39.55
L 107.725 45.225 102.55 50.7"/>
</defs>

<g transform="matrix( 1.289794921875, 0, 0, 1.289794921875, 7.9,5) ">
<g transform="matrix( 1, 0, 0, 1, 0,0) ">
<use xlink:href="#_____1_0_Layer1_0_FILL"/>
</g>

<g transform="matrix( 1, 0, 0, 1, 0,0) ">
<use xlink:href="#_____1_0_Layer0_0_FILL"/>
</g>
</g>

<g transform="matrix( 1, 0, 0, 1, 31.2,47.05) ">
<g transform="matrix( 1, 0, 0, 1, 0,0) ">
<use xlink:href="#_____________0_Layer3_0_FILL"/>
</g>

<g transform="matrix( 1, 0, 0, 1, 0,0) ">
<use xlink:href="#_____________0_Layer1_0_FILL"/>
</g>

<g transform="matrix( 1, 0, 0, 1, 0,0) ">
<use xlink:href="#_____________0_Layer0_0_FILL"/>

<use xlink:href="#_____________0_Layer0_0_1_STROKES"/>

<use xlink:href="#_____________0_Layer0_0_STROKES_1_FILL"/>
</g>
</g>
</svg>
